<svg width="424" height="522" viewBox="0 0 424 522" fill="none" xmlns="http://www.w3.org/2000/svg">
<path d="M384.126 143.436L75.8965 159.423C84.6331 152.608 99.5641 138.98 108.79 136.883C120.322 134.262 125.302 140.159 135 140.159C142.47 140.159 151.512 125.482 162.52 117.357C171.327 110.857 183.052 111.633 185.323 114.342C188.904 118.611 194.366 120.764 201.18 114.342C213.731 102.513 228.86 87.8195 242.985 80.6618C271.947 65.9851 297.774 85.706 304.709 91.8012C322.008 107.004 330.815 134.419 344.024 127.972C365.779 117.357 383.252 138.02 384.126 143.436Z" fill="#F8F8F8"/>
<path fill-rule="evenodd" clip-rule="evenodd" d="M305.699 329.399L322.499 298.799C322.499 298.799 254.999 257.399 247.999 253.099C239.799 248.099 234.399 246.899 225.799 249.999C202.999 258.199 186.599 262.799 186.599 262.799C186.599 262.799 169.599 273.899 181.199 290.999C185.299 297.099 193.999 298.699 202.899 296.499C214.499 293.599 229.499 285.299 232.799 286.799C242.799 291.799 305.699 329.399 305.699 329.399Z" fill="#EFD9CE"/>
<path fill-rule="evenodd" clip-rule="evenodd" d="M276.199 312.7L294.699 280.6L325.099 300.3L306.399 330.6L276.199 312.7Z" fill="#CBE4FC"/>
<path fill-rule="evenodd" clip-rule="evenodd" d="M306.799 327.699C306.799 327.699 305.199 330.899 307.499 332.699C308.999 333.899 310.499 333.499 311.699 332.899C311.699 332.899 311.799 334.799 313.299 337.199C314.799 339.699 317.799 343.999 321.099 344.399C322.599 344.599 339.099 313.099 339.099 313.099L358.199 281.099C358.199 281.099 351.099 278.699 344.799 284.999C339.199 290.599 338.299 292.099 335.999 295.099C334.599 296.999 332.699 298.199 330.499 298.099C327.299 297.899 325.399 298.699 322.799 300.799C318.699 304.199 308.699 322.899 306.799 327.699Z" fill="#93BEFA"/>
<path fill-rule="evenodd" clip-rule="evenodd" d="M321.3 344.6C319.8 344.9 314.1 333 317.4 325.6C320.5 318.8 328.8 317.4 332.3 313.7C334.6 311.3 337 307 339.2 303.3C340.2 301.7 352.3 280.9 352.3 280.9C352.3 280.9 358.8 278.1 359.4 281.4C359.8 283.4 322.7 344.2 321.3 344.6Z" fill="#EFD9CE"/>
<path fill-rule="evenodd" clip-rule="evenodd" d="M331.6 308.699C330.8 310.699 328.7 311.6 326.8 310.9C324.9 310.2 324 307.999 324.8 306.099C325.6 304.199 327.7 303.2 329.6 303.9C331.4 304.6 332.3 306.699 331.6 308.699Z" fill="#CBE4FC"/>
<path fill-rule="evenodd" clip-rule="evenodd" d="M94.5 419.7L120 443.4C120 443.4 176.6 388 182.4 382.3C189.2 375.6 195.7 367 191.2 356.3C181.3 332.9 171.4 314.4 171.4 314.4C171.4 314.4 166.9 303 149.8 308.9C139.7 312.4 133.3 321.6 138.2 330.9C143.8 341.5 154.7 358 153.4 359.3C145.4 367.1 94.5 419.7 94.5 419.7Z" fill="#EFD9CE"/>
<path fill-rule="evenodd" clip-rule="evenodd" d="M117.9 395.301L144.5 421.001L117.9 445.701L93.0996 420.101L117.9 395.301Z" fill="#CBE4FC"/>
<path fill-rule="evenodd" clip-rule="evenodd" d="M103.801 422.3C103.801 422.3 100.201 417.7 97.9005 416C96.2005 414.8 94.4005 415.2 93.3005 416.2C91.8005 417.6 92.3005 419.7 92.3005 419.7C92.3005 419.7 88.8005 418.7 85.9005 419.5C83.1005 420.3 78.7005 422.3 78.8005 423.6C78.9005 424.9 108.501 462.5 108.501 462.5C108.501 462.5 139.901 463.3 140.001 463C140.101 462.7 139.401 460.1 134.401 456.7C130.001 453.7 120.201 452.9 117.601 452.5C115.001 452.1 118.001 451.4 118.401 446.8C118.801 441 114.601 437.3 113.501 435.5C112.401 433.6 103.801 422.3 103.801 422.3Z" fill="#93BEFA"/>
<path fill-rule="evenodd" clip-rule="evenodd" d="M113.6 445.901C112.8 447.801 110.7 448.801 108.8 448.101C106.9 447.401 106 445.201 106.8 443.301C107.6 441.401 109.7 440.401 111.6 441.101C113.4 441.801 114.4 444.001 113.6 445.901Z" fill="#CBE4FC"/>
<path fill-rule="evenodd" clip-rule="evenodd" d="M95.0999 425.801C90.5999 422.501 83.6999 422.401 79.8999 422.801C78.1999 423.001 78.2999 424.101 78.2999 424.101L104.7 461.101C104.7 461.101 107 466.201 114.4 466.701C122.5 467.301 140.6 467.201 140.6 467.201C140.6 467.201 142 467.301 141.1 465.201C140.6 464.001 139.9 461.201 138.2 460.701C136.6 460.201 115.5 461.301 112.4 459.201C110.6 458.001 101.8 446.001 101.5 443.301C101 436.501 99.5999 429.201 95.0999 425.801Z" fill="#EFD9CE"/>
<path d="M116.499 451.9C116.499 451.9 115.899 454.6 117.399 456.3" stroke="#424D51" stroke-linecap="round" stroke-linejoin="round"/>
<path fill-rule="evenodd" clip-rule="evenodd" d="M70.0996 104.001C69.0996 95.7005 66.9996 76.6005 67.3996 64.0005C67.3996 63.6005 67.4996 57.3005 72.2996 59.4005C72.2996 59.4005 71.9996 55.9005 74.8996 55.3005C77.0996 54.9005 78.0996 56.2005 78.6996 57.4005C78.6996 57.5005 78.3996 55.0005 80.8996 54.8005C84.0996 54.6005 85.1996 58.4005 85.1996 61.2005C85.1996 61.3005 85.1996 59.6005 87.5996 59.4005C88.4996 59.3005 89.9996 60.2005 90.7996 62.8005C92.1996 67.5005 92.7996 83.3005 92.7996 83.3005C92.7996 83.3005 94.6996 80.8005 96.5996 78.0005C97.0996 77.2005 98.9996 75.6005 100.8 76.7005C102.6 77.7005 102.6 79.0005 101.4 82.2005C100.2 85.5005 97.6996 92.1005 94.4996 96.4005C94.1996 96.8005 94.3996 100.601 94.3996 103.201C94.0996 115.401 71.6996 117.601 70.0996 104.001Z" fill="#EFD9CE"/>
<path d="M86.7 79.1008C86.7 79.1008 85.3 64.3008 85 60.8008" stroke="#424D51" stroke-linecap="round" stroke-linejoin="round"/>
<path d="M81.3 79.8996C81.3 79.8996 80.6 67.2996 79.9 61.5996C79.7 60.0996 79.3 58.3996 78.5 57.0996" stroke="#424D51" stroke-linecap="round" stroke-linejoin="round"/>
<path d="M75.6 80.9992C75.6 80.9992 74.8 67.1992 74.2 63.6992C74.1 62.8992 73.7 60.7992 72.5 59.6992" stroke="#424D51" stroke-linecap="round" stroke-linejoin="round"/>
<path fill-rule="evenodd" clip-rule="evenodd" d="M69.7 108.801C69.2 108.901 68.8 105.301 70.3 103.901C71.8 102.401 93.6 100.701 94.6 102.401C95.6 104.101 95.7 106.701 95.7 106.701C95.7 106.701 70.2 108.701 69.7 108.801Z" fill="#EFD9CE"/>
<path fill-rule="evenodd" clip-rule="evenodd" d="M117.899 239.499C134.899 247.899 146.799 239.399 148.899 226.499C151.199 212.699 138.599 207.299 133.299 202.799C124.499 195.399 111.799 177.999 106.199 169.399C104.399 166.599 102.099 129.799 101.099 121.199C100.199 113.299 100.599 104.399 94.6992 104.199C89.8992 104.099 67.2992 102.699 66.1992 109.899C64.2992 122.699 66.5992 171.399 69.8992 183.499C72.4992 192.999 84.3992 207.799 90.9992 214.799C99.0992 223.599 117.899 239.499 117.899 239.499Z" fill="#DEC0F1"/>
<path d="M92.9982 83.1645C90.8354 86.1666 88.2512 85.3841 86.5346 86.2226C82.3956 87.8521 82.3715 92.3804 83.8887 94.616" stroke="#424D51" stroke-linecap="round" stroke-linejoin="round"/>
<path d="M100.406 170.117H105.656L104.531 172.992" stroke="#424D51" stroke-linecap="round" stroke-linejoin="round"/>
<path fill-rule="evenodd" clip-rule="evenodd" d="M254.301 124.901C257.501 117.201 264.801 99.3008 267.801 87.1009C267.901 86.7009 269.601 80.6009 264.301 81.4009C264.301 81.4009 265.501 78.1009 262.901 76.8009C260.901 75.8009 259.501 76.8009 258.701 77.8009C258.701 77.8009 259.601 75.5009 257.301 74.7009C254.201 73.6009 252.201 77.0009 251.401 79.6009C251.401 79.7009 251.801 78.1009 249.601 77.2009C248.801 76.9009 247.101 77.3009 245.601 79.7009C243.001 83.9009 238.101 98.9009 238.101 98.9009C238.101 98.9009 237.001 96.0009 235.901 92.8009C235.601 91.9009 234.301 89.9008 232.201 90.4008C230.201 90.9008 229.801 92.1009 230.101 95.5009C230.401 99.1009 230.901 106.001 232.901 111.101C233.101 111.501 231.801 115.101 231.101 117.701C228.101 129.301 249.101 137.601 254.301 124.901Z" fill="#EFD9CE"/>
<path d="M238.023 98.6993C239.208 102.205 241.908 102.217 243.302 103.523C246.779 106.297 245.47 110.632 243.363 112.323" stroke="#424D51" stroke-linecap="round" stroke-linejoin="round"/>
<path d="M245.1 96.5008C245.1 96.5008 250.4 82.7008 251.7 79.3008" stroke="#424D51" stroke-linecap="round" stroke-linejoin="round"/>
<path d="M250.1 98.6996C250.1 98.6996 254.2 86.6996 256.4 81.4996C257 80.0996 257.9 78.5996 259 77.5996" stroke="#424D51" stroke-linecap="round" stroke-linejoin="round"/>
<path d="M255.199 101.3C255.199 101.3 259.799 88.2996 261.199 84.9996C261.499 84.2996 262.499 82.3996 263.899 81.5996" stroke="#424D51" stroke-linecap="round" stroke-linejoin="round"/>
<path fill-rule="evenodd" clip-rule="evenodd" d="M253.3 129.601C253.7 129.801 255.1 126.401 254.1 124.601C253.1 122.801 232.6 115.201 231.2 116.601C229.8 118.001 229 120.401 229 120.401C229 120.401 252.9 129.401 253.3 129.601Z" fill="#EFD9CE"/>
<path fill-rule="evenodd" clip-rule="evenodd" d="M171.4 242.3C152.8 245.8 143.2 234.9 144.7 222C146.3 208.1 159.9 206.3 166.2 203.5C176.7 198.7 194.1 184.8 201.9 178.1C204.4 175.9 216.6 141.1 219.9 133.1C222.9 125.7 224.9 117 230.7 118.5C235.4 119.7 257.5 124.5 256.6 131.7C254.9 144.5 239.5 190.7 233 201.5C227.9 210 212.4 220.9 204.2 225.9C193.8 232.1 171.4 242.3 171.4 242.3Z" fill="#DEC0F1"/>
<path d="M207.58 178.25H202.33L203.455 181.125" stroke="#424D51" stroke-linecap="round" stroke-linejoin="round"/>
<path fill-rule="evenodd" clip-rule="evenodd" d="M118.199 279.501C117.299 257.301 115.099 214.901 122.799 204.801C128.899 196.801 136.499 208.801 147.699 208.301C155.899 207.901 161.599 204.301 163.799 204.401C165.699 204.501 177.899 229.501 177.899 236.801C177.899 244.301 177.799 273.001 177.099 275.001C174.699 282.201 118.499 287.301 118.199 279.501Z" fill="#DEC0F1"/>
<path fill-rule="evenodd" clip-rule="evenodd" d="M138.2 331.5L172.5 315.2C172.5 315.2 167.9 304.7 162.4 294C162 293.1 159.5 286.2 159.5 286.2C159.5 286.2 157.2 271.1 156.1 271.2C154.9 271.3 117.9 273.3 117.8 274.5C116.3 288.2 121.8 301.8 123.1 304.7C124.4 307.6 138.2 331.5 138.2 331.5Z" fill="#FFB6A9"/>
<path fill-rule="evenodd" clip-rule="evenodd" d="M208.8 295.301L200.1 258.301C200.1 258.301 188.2 262.101 177.6 265.101C177.6 265.101 177.6 268.601 177.4 268.601C166.3 269.901 118.1 273.001 117.8 274.401C115 288.801 127 303.401 140 307.101C155.9 311.701 176.5 307.001 179.5 306.401C182.7 305.801 208.8 295.301 208.8 295.301Z" fill="#FFB6A9"/>
<mask id="mask0_12_5576" style="mask-type:alpha" maskUnits="userSpaceOnUse" x="117" y="258" width="92" height="74">
<path d="M208.801 295.301C208.801 295.301 182.7 305.8 179.5 306.4C178.331 306.634 174.495 307.487 169.307 308.173C171.263 312.38 172.5 315.2 172.5 315.2L138.2 331.5C138.2 331.5 124.4 307.601 123.1 304.7C122.034 302.323 118.149 292.759 117.606 281.844C117.275 279.395 117.316 276.895 117.801 274.4C118.111 273 166.302 269.9 177.4 268.601C177.6 268.601 177.601 265.101 177.601 265.101C188.201 262.101 200.101 258.301 200.101 258.301L208.801 295.301Z" fill="#FFB6A9"/>
</mask>
<g mask="url(#mask0_12_5576)">
<path fill-rule="evenodd" clip-rule="evenodd" d="M384.763 176.275C379.364 178.888 372.478 178.409 364.097 174.221C362.252 173.299 360.835 171.562 359.668 169.542C358.492 167.505 357.481 165.023 356.525 162.421C356.059 161.154 355.606 159.86 355.151 158.562C353.705 154.434 352.247 150.27 350.34 146.837C347.848 142.351 344.853 139.598 340.578 139.714C336.099 139.835 329.728 143.076 320.515 152.169C311.377 161.188 306.594 169.208 304.692 176.261C302.798 183.285 303.734 189.449 306.225 194.846C306.769 196.024 307.387 197.167 308.067 198.273C313.41 193.78 321.226 190.044 332.478 187.029C335.93 186.104 338.844 186.051 341.237 186.77C343.657 187.497 345.443 188.984 346.651 190.933C349.016 194.751 349.119 200.243 347.967 205.37C346.806 210.532 344.295 215.68 340.993 218.928C339.335 220.559 337.412 221.773 335.298 222.192C333.145 222.619 330.921 222.196 328.771 220.77C322.725 216.759 313.692 210.651 307.602 202.284C307.504 202.384 307.408 202.485 307.314 202.586C302.533 207.675 300.722 213.626 300.257 220.563C299.962 224.964 300.74 228.483 302.085 231.248C303.561 230.044 304.983 229.093 306.345 228.365C311.085 225.832 315.182 225.973 318.101 227.726C320.965 229.446 322.477 232.609 322.226 235.619C321.968 238.724 319.85 241.533 315.822 242.453C314.383 242.781 312.459 242.58 310.481 241.931C308.47 241.271 306.279 240.108 304.28 238.364C303.278 237.491 302.329 236.474 301.476 235.308C298.729 237.974 295.733 241.638 292.55 246.563C286.615 255.749 279.896 260.477 273.245 262.016C266.601 263.554 260.231 261.861 255.086 258.605C251.356 256.244 248.225 253.035 246.054 249.555C245.213 249.236 244.368 248.908 243.521 248.579C239.855 247.156 236.158 245.721 232.618 244.902C227.46 243.71 223.301 243.999 220.529 247.134C217.637 250.406 215.855 257.16 216.755 270.079C217.646 282.886 220.617 291.74 224.73 297.777C228.826 303.788 234.112 307.093 239.83 308.718C241.048 309.064 242.285 309.334 243.535 309.538C243.691 302.602 245.874 294.381 250.998 283.706C252.544 280.484 254.402 278.239 256.507 276.891C258.634 275.528 260.926 275.141 263.191 275.495C267.629 276.187 271.864 279.685 275.003 283.899C278.164 288.142 280.435 293.4 280.749 298.022C280.906 300.342 280.575 302.592 279.516 304.469C278.438 306.38 276.668 307.793 274.186 308.495C267.171 310.48 256.586 313.374 246.224 312.506L246.227 312.555C246.229 312.58 246.231 312.606 246.233 312.631C246.742 319.602 249.553 325.119 253.295 331.139C255.723 335.045 259.846 336.744 264.257 337.04C264.11 334.98 264.146 333.216 264.337 331.713C264.628 329.422 265.289 327.648 266.298 326.367C267.326 325.061 268.651 324.349 270.079 324.102C272.83 323.627 275.83 324.882 278.037 326.374C279.17 327.139 280.177 328.02 280.926 328.894C281.627 329.71 282.28 330.722 282.353 331.739C282.432 332.842 281.848 333.806 281.171 334.539C280.469 335.298 279.492 336.002 278.369 336.624C276.114 337.872 273.05 338.911 269.758 339.403C268.917 339.528 268.051 339.619 267.171 339.667C267.647 343.151 268.594 347.468 270.166 352.779C273.27 363.265 272.482 371.443 269.318 377.493C266.157 383.536 260.724 387.267 254.902 389.05C249.097 390.828 242.813 390.701 237.8 388.936C232.805 387.177 228.814 383.67 228.245 378.552C227.22 369.32 230.302 360.839 233.976 354.159C236.795 349.033 240.051 344.832 242.103 342.184L242.104 342.182L242.105 342.181C242.713 341.397 243.216 340.749 243.569 340.253C244.274 339.267 245.086 337.535 245.483 335.57C245.88 333.605 245.831 331.563 245.012 329.858C244.22 328.207 242.617 326.684 239.506 325.864C236.348 325.032 231.666 324.94 224.875 326.233C219.578 327.242 215.24 328.836 211.775 330.723C212.175 331.692 212.529 332.634 212.835 333.547C214.559 338.676 214.873 343.061 213.766 346.299C213.206 347.94 212.275 349.295 210.981 350.261C209.688 351.225 208.106 351.745 206.331 351.839C202.828 352.023 200.14 350.668 198.835 348.15C197.571 345.712 197.792 342.536 199.25 339.397C200.809 336.044 203.835 332.57 208.433 329.647C205.352 323.064 200.033 315.173 191.981 306.452C191.156 307.783 190.235 309.045 189.211 310.233C191.1 312.03 192.555 314.244 193.607 316.79C196.028 322.648 196.29 330.185 195.057 338.323C193.821 346.485 191.062 355.382 187.299 364.052C179.794 381.345 168.178 397.992 156.347 406.142C150.427 410.22 144.258 412.299 138.446 410.982C132.596 409.657 127.513 404.988 123.574 396.486C122.707 394.615 122.683 392.373 123.031 390.067C123.382 387.741 124.14 385.17 125.015 382.54C125.441 381.26 125.894 379.966 126.348 378.668L126.348 378.667C127.793 374.539 129.25 370.374 129.901 366.502C130.751 361.441 130.127 357.421 126.714 354.845C123.136 352.146 116.136 350.705 103.262 352.067C90.4953 353.416 81.7536 356.702 75.8678 361.029C70.0068 365.338 66.894 370.739 65.4747 376.511C65.1647 377.772 64.9352 379.05 64.7761 380.339C71.7554 380.16 80.1947 382.115 90.8708 386.776C94.1454 388.206 96.4563 389.982 97.8788 392.037C99.3169 394.115 99.7854 396.391 99.5132 398.668C98.9802 403.127 95.636 407.485 91.537 410.773C87.4103 414.084 82.2368 416.542 77.6297 417.021C75.3169 417.261 73.0565 417.011 71.142 416.02C69.1937 415.011 67.7188 413.293 66.9278 410.837C64.7032 403.931 61.4526 393.523 61.9109 383.184C61.7724 383.202 61.6347 383.221 61.4977 383.24C54.587 384.236 49.4592 387.758 44.769 392.89C41.793 396.147 40.2067 399.382 39.5333 402.383C41.4377 402.362 43.1428 402.506 44.6618 402.786C49.946 403.762 53.0607 406.428 54.2489 409.619C55.4146 412.75 54.6241 416.165 52.5502 418.362C50.4115 420.628 47.0039 421.503 43.2819 419.709C41.9524 419.068 40.574 417.711 39.433 415.97C38.2729 414.2 37.2852 411.924 36.8104 409.314C36.5724 408.006 36.4643 406.62 36.5254 405.176C32.7151 405.547 28.0884 406.542 22.5281 408.407C12.1599 411.884 3.95893 411.389 -2.20013 408.444C-8.35236 405.502 -12.276 400.205 -14.2664 394.451C-16.2511 388.714 -16.349 382.429 -14.7648 377.357C-13.186 372.302 -9.82362 368.188 -4.72969 367.436C4.45962 366.08 13.0451 368.856 19.8525 372.289C25.0765 374.923 29.3914 378.026 32.1115 379.982C32.9184 380.562 33.585 381.042 34.0932 381.378C35.104 382.047 36.8642 382.796 38.8423 383.123C40.8202 383.449 42.8587 383.327 44.5337 382.448C46.1555 381.596 47.6196 379.94 48.3273 376.802C49.0458 373.616 48.9708 368.934 47.4348 362.193C46.2367 356.936 44.4882 352.658 42.4786 349.262C41.5246 349.698 40.5961 350.084 39.6947 350.424C34.63 352.33 30.2598 352.8 26.9835 351.81C25.3242 351.309 23.9365 350.428 22.9251 349.169C21.9146 347.912 21.3382 346.349 21.1812 344.579C20.8715 341.085 22.1293 338.35 24.5996 336.955C26.9899 335.605 30.1718 335.711 33.3609 337.057C36.7677 338.494 40.3484 341.394 43.4338 345.884C49.9022 342.57 57.5981 336.971 66.0248 328.612C58.6387 324.394 53.1528 317.235 50.6813 306.28C47.5312 292.317 49.2953 283.375 53.8822 278.684C58.432 274.032 65.2498 274.04 71.2412 276.781C71.6307 275.494 72.2644 274.27 73.1775 273.15C79.0462 265.95 87.2566 262.208 94.5973 260.149C100.23 258.569 105.509 257.949 108.837 257.558L108.837 257.558C109.824 257.442 110.639 257.347 111.241 257.252C112.438 257.064 114.244 256.43 115.924 255.336C117.604 254.242 119.026 252.777 119.67 250.998C120.293 249.276 120.256 247.066 118.661 244.271C117.042 241.435 113.829 238.029 108.148 234.09C103.717 231.017 99.5399 229.039 95.7658 227.888C95.3551 228.853 94.9306 229.765 94.4941 230.623C92.0416 235.447 89.1329 238.742 86.0465 240.222C84.4835 240.971 82.8648 241.257 81.2689 241.01C79.6746 240.763 78.1953 239.999 76.8848 238.798C74.2993 236.428 73.3826 233.56 74.2652 230.864C75.1192 228.255 77.5396 226.187 80.8015 225.029C84.2859 223.792 88.8852 223.517 94.192 224.75C96.731 217.94 98.635 208.615 99.2162 196.76C90.9186 198.629 82.0394 197.045 72.8247 190.625C61.08 182.443 56.3497 174.652 56.5716 168.096C56.7965 161.45 62.0529 156.799 68.5153 154.851C75.0088 152.895 83.0835 153.512 89.6875 157.659C96.3491 161.842 101.373 169.525 101.864 181.392C102.036 185.557 102.067 189.506 101.972 193.238C108.902 190.801 115.394 185.78 121.3 179.235C134.474 164.637 144.367 142.867 149.431 127.227L149.455 127.152L149.488 127.081C155.122 114.889 161.084 107.235 167.178 103.307C173.363 99.3204 179.594 99.2337 185.42 101.966C191.159 104.657 196.437 110.044 201.017 116.883C205.611 123.742 209.576 132.171 212.647 141.109C217.181 154.305 219.814 168.758 219.564 181.055C221.592 181.881 223.624 182.783 225.647 183.752C241.669 191.422 257.349 203.391 265.816 215.811C266.742 217.17 267.587 218.541 268.337 219.917C273.908 218.789 279.045 218.532 282.312 218.368L282.312 218.368L282.313 218.368C283.305 218.318 284.125 218.277 284.732 218.223C285.939 218.115 287.782 217.604 289.532 216.625C291.281 215.646 292.798 214.279 293.559 212.547C294.296 210.87 294.408 208.663 293.003 205.768C291.577 202.829 288.599 199.217 283.194 194.906C278.978 191.544 274.943 189.291 271.254 187.89C270.78 188.825 270.296 189.707 269.803 190.534C267.033 195.183 263.911 198.277 260.732 199.546C259.123 200.189 257.488 200.366 255.913 200.013C254.338 199.66 252.913 198.799 251.686 197.513C249.265 194.975 248.542 192.053 249.603 189.422C250.63 186.876 253.183 184.974 256.515 184.037C260.074 183.035 264.682 183.068 269.894 184.654C272.883 178.029 275.406 168.852 276.779 157.062C268.375 158.372 259.621 156.198 250.857 149.177C239.685 140.228 235.487 132.138 236.147 125.61C236.815 118.994 242.371 114.705 248.949 113.195C255.559 111.677 263.574 112.833 269.886 117.412C276.253 122.031 280.753 130.032 280.448 141.906C280.342 146.073 280.108 150.015 279.764 153.733C286.842 151.764 293.655 147.189 299.986 141.053C314.106 127.369 325.433 106.309 331.531 91.0434L331.56 90.9704L331.598 90.9014C338.035 79.1138 344.495 71.8752 350.838 68.3633C357.275 64.7994 363.499 65.1296 369.129 68.2453C374.675 71.3146 379.581 77.042 383.693 84.1716C387.818 91.3226 391.211 99.9982 393.677 109.121C398.597 127.32 399.901 147.577 395.736 161.327C393.652 168.207 390.127 173.679 384.763 176.275ZM70.7748 279.466C70.6825 279.42 70.59 279.375 70.4974 279.33C64.9766 276.678 59.3206 276.876 55.7582 280.519C52.1334 284.225 50.1477 291.992 53.2409 305.702C55.6371 316.324 60.951 322.907 67.942 326.675C70.675 323.864 73.4792 320.766 76.3382 317.365C81.7609 310.915 83.7558 304.651 83.6011 299.097C78.6174 296.19 74.6066 291.825 72.4623 287.243C71.2737 284.703 70.6322 282.021 70.7748 279.466ZM83.2437 295.764C79.4809 293.169 76.502 289.685 74.8389 286.131C74.0166 284.374 73.5317 282.645 73.4093 281.016C77.6904 283.939 81.3166 288.511 82.8392 294.019C82.9969 294.59 83.1324 295.171 83.2437 295.764ZM86.1328 297.494C86.0004 296.061 85.7407 294.667 85.3683 293.32C83.5189 286.63 78.9232 281.218 73.624 278.038C73.905 276.856 74.4298 275.767 75.2113 274.808C80.6018 268.195 88.2295 264.66 95.3058 262.676C100.707 261.161 105.632 260.581 108.978 260.187C110.039 260.062 110.941 259.955 111.649 259.844C113.239 259.594 115.39 258.814 117.355 257.535C119.321 256.256 121.234 254.388 122.137 251.891C123.061 249.336 122.855 246.326 120.94 242.971C119.049 239.658 115.486 235.985 109.643 231.934C105.104 228.786 100.748 226.692 96.7338 225.442C99.4099 218.17 101.342 208.358 101.876 196.037C109.751 193.534 116.922 188.004 123.248 180.993C136.749 166.032 146.776 143.916 151.903 128.111C157.438 116.153 163.124 109.042 168.6 105.512C173.996 102.034 179.266 101.978 184.306 104.342C189.432 106.746 194.383 111.693 198.837 118.343C203.276 124.972 207.15 133.185 210.165 141.961C214.524 154.649 217.043 168.369 216.954 180.031C211.826 178.101 206.764 176.677 201.991 175.895C194.552 174.675 187.674 174.991 182.343 177.534C179.689 178.8 177.459 180.6 175.751 182.968C175.234 182.009 174.696 181.085 174.132 180.214C171.165 175.626 167.207 172.03 161.466 172.572C155.93 173.093 149.203 177.461 140.563 187.213C131.852 197.045 127.322 205.776 125.777 213.537C124.227 221.328 125.706 228.038 128.82 233.746C129.573 235.127 130.422 236.448 131.346 237.713C131.124 237.965 130.908 238.219 130.699 238.475C125.763 244.489 124.264 251.211 124.264 258.548C124.264 263.756 125.558 267.86 127.519 271.009C124.667 274.091 121.685 278.254 118.644 283.732C113.575 292.863 107.668 297.47 101.947 299.204C96.4221 300.879 90.8816 299.932 86.1328 297.494ZM86.2223 300.448C86.0394 306.3 83.7142 312.669 78.3466 319.054C75.664 322.244 73.0224 325.18 70.4346 327.871C77.195 330.747 85.3736 331.42 94.1493 330.573C109.935 329.049 127.293 322.642 140.916 315.955C137.116 311.187 137.608 304.632 140.568 298.997C143.721 292.993 149.819 287.664 157.405 285.857C165.057 284.034 174.059 285.832 182.87 293.796C185.963 296.591 188.802 299.336 191.399 302.019C194.515 295.366 195.481 287.216 194.949 278.416C193.762 258.789 185.159 236.477 177.548 221.906L177.511 221.837L177.483 221.763C172.734 209.208 171.207 199.511 172.232 192.262C172.586 189.759 173.246 187.549 174.177 185.621C173.47 184.215 172.727 182.873 171.929 181.639C169.142 177.329 165.97 174.783 161.713 175.184C157.251 175.604 151.112 179.264 142.527 188.953C134.013 198.562 129.777 206.885 128.351 214.049C126.931 221.184 128.277 227.271 131.123 232.489C131.745 233.629 132.438 234.728 133.19 235.786C138.221 230.946 145.769 226.696 156.795 222.935C160.177 221.781 163.081 221.533 165.517 222.09C167.98 222.654 169.862 224.018 171.197 225.882C173.812 229.534 174.282 235.006 173.475 240.199C172.662 245.427 170.502 250.732 167.424 254.193C165.879 255.931 164.041 257.271 161.959 257.831C159.841 258.4 157.593 258.127 155.352 256.848C149.051 253.251 139.63 247.76 132.994 239.819C132.904 239.926 132.815 240.032 132.727 240.139C128.298 245.537 126.888 251.595 126.888 258.548C126.888 262.96 127.9 266.418 129.427 269.087C130.819 267.787 132.174 266.743 133.485 265.926C138.044 263.081 142.141 262.948 145.171 264.502C148.144 266.026 149.864 269.081 149.815 272.102C149.765 275.217 147.84 278.162 143.882 279.348C142.469 279.772 140.536 279.7 138.519 279.185C136.468 278.661 134.204 277.647 132.093 276.041C131.035 275.236 130.02 274.285 129.091 273.179C126.528 276.022 123.784 279.878 120.938 285.006C115.63 294.567 109.242 299.734 102.709 301.715C96.9218 303.469 91.1797 302.675 86.2223 300.448ZM142.862 317.921C128.941 324.837 110.906 331.592 94.4014 333.185C85.0016 334.092 75.9777 333.338 68.4757 329.873C59.7696 338.608 51.7241 344.547 44.8433 348.11C46.9634 351.741 48.7659 356.225 49.9932 361.61C51.5729 368.543 51.726 373.658 50.887 377.379C50.0372 381.148 48.1581 383.509 45.7531 384.771C43.4014 386.005 40.7295 386.093 38.4154 385.712C36.1014 385.33 33.988 384.455 32.6456 383.567C32.0477 383.171 31.3105 382.641 30.4436 382.018L30.4428 382.018C27.7067 380.051 23.6797 377.157 18.6712 374.632C12.1088 371.323 4.09369 368.786 -4.3467 370.032C-8.06761 370.581 -10.8487 373.62 -12.2601 378.139C-13.666 382.64 -13.6006 388.35 -11.7866 393.594C-9.97825 398.821 -6.46765 403.494 -1.06808 406.077C4.32464 408.656 11.793 409.24 21.6937 405.919C27.6348 403.926 32.6441 402.865 36.8283 402.514C37.5055 398.867 39.3187 394.965 42.8321 391.12C47.7815 385.704 53.4231 381.753 61.1234 380.643C61.4505 380.596 61.7809 380.554 62.1148 380.517C62.2859 378.96 62.5511 377.412 62.9267 375.885C64.4792 369.571 67.9133 363.62 74.3137 358.915C80.6893 354.228 89.9236 350.838 102.987 349.457C115.943 348.087 123.855 349.401 128.294 352.751C132.897 356.224 133.393 361.548 132.488 366.936C131.797 371.052 130.231 375.523 128.771 379.694L128.77 379.697C128.33 380.954 127.899 382.184 127.505 383.369C126.638 385.973 125.941 388.366 125.625 390.458C125.307 392.569 125.406 394.2 125.954 395.383C129.703 403.473 134.265 407.344 139.026 408.423C143.824 409.51 149.232 407.857 154.858 403.981C166.121 396.223 177.484 380.076 184.892 363.007C188.587 354.495 191.268 345.818 192.463 337.93C193.661 330.017 193.344 323.025 191.182 317.792C190.271 315.588 189.029 313.683 187.409 312.141C182.991 316.416 176.991 319.503 169.113 320.986C156.209 323.415 147.676 321.862 142.862 317.921ZM185.328 310.5C181.322 314.274 175.877 317.043 168.628 318.407C156.923 320.61 149.615 319.322 145.482 316.592C147.507 315.545 149.428 314.502 151.228 313.479C163.381 308.386 172.375 306.972 178.798 308.061C181.353 308.494 183.517 309.325 185.328 310.5ZM187.173 308.577C184.985 307.065 182.35 306.001 179.237 305.474C172.088 304.262 162.523 305.891 150.14 311.09L150.068 311.12L149.999 311.159C147.927 312.338 145.694 313.543 143.329 314.748C140.04 311.055 140.105 305.523 142.891 300.217C145.724 294.823 151.228 290.026 158.013 288.409C164.731 286.809 172.867 288.291 181.111 295.742C184.407 298.721 187.402 301.635 190.114 304.467C189.261 305.921 188.285 307.295 187.173 308.577ZM256.489 256.388C254.179 254.926 252.131 253.111 250.442 251.12C252.361 251.738 254.216 252.217 255.925 252.414C258.172 252.672 260.36 252.465 262.116 251.238C268.79 246.575 271.964 240.865 272.267 234.632C272.462 230.614 271.459 226.47 269.561 222.351C274.614 221.386 279.137 221.158 282.277 221L282.28 221C283.346 220.946 284.252 220.9 284.965 220.837C286.568 220.694 288.766 220.06 290.813 218.915C292.86 217.769 294.893 216.034 295.962 213.603C297.054 211.116 297.05 208.098 295.364 204.623C293.699 201.191 290.389 197.288 284.83 192.855C280.512 189.411 276.306 187.03 272.384 185.514C275.54 178.438 278.124 168.777 279.481 156.519C287.506 154.548 295.03 149.51 301.812 142.938C316.283 128.913 327.766 107.518 333.939 92.0903C340.261 80.5293 346.41 73.8143 352.109 70.6589C357.726 67.5494 362.988 67.8461 367.858 70.5412C372.812 73.2827 377.421 78.55 381.42 85.4827C385.407 92.3939 388.722 100.848 391.144 109.806C396 127.769 397.189 147.477 393.225 160.566C391.244 167.105 388.049 171.77 383.62 173.913C379.226 176.04 373.245 175.859 365.27 171.874C364.103 171.291 363.008 170.078 361.94 168.229C360.882 166.397 359.934 164.092 358.988 161.516C358.557 160.343 358.126 159.113 357.686 157.855L357.685 157.853L357.685 157.853L357.684 157.851C356.225 153.681 354.66 149.211 352.634 145.563C349.98 140.787 346.271 136.935 340.507 137.091C334.948 137.242 327.945 141.15 318.672 150.302C309.323 159.529 304.219 167.938 302.159 175.578C300.091 183.248 301.118 190.042 303.843 195.945C304.502 197.373 305.26 198.749 306.098 200.073C305.86 200.31 305.627 200.548 305.401 200.789C300.075 206.46 298.129 213.067 297.639 220.387C297.29 225.584 298.307 229.765 300.053 233.038C297.001 235.922 293.747 239.876 290.347 245.139C284.679 253.91 278.477 258.112 272.653 259.46C266.822 260.809 261.163 259.346 256.489 256.388ZM269.646 234.505C269.824 230.835 268.855 226.925 266.927 222.914C260.171 224.521 253.015 227.536 247.608 233.33C245.042 236.08 244.764 240.191 246.48 244.603C246.846 245.546 247.3 246.49 247.834 247.421C248.388 247.629 248.932 247.828 249.465 248.017C251.996 248.916 254.276 249.583 256.225 249.807C258.181 250.032 259.61 249.787 260.613 249.087C266.731 244.812 269.389 239.801 269.646 234.505ZM245.69 231.54C251.394 225.427 258.804 222.236 265.669 220.52C265.059 219.447 264.384 218.369 263.648 217.289C255.52 205.366 240.266 193.659 224.514 186.118C222.828 185.311 221.139 184.553 219.455 183.849C219.263 187.124 218.849 190.218 218.192 193.06C216.573 200.064 213.422 205.76 208.243 208.708C203.031 211.676 196.129 211.659 187.486 208.041C185.584 207.244 184.054 205.606 182.755 203.668C181.444 201.715 180.27 199.306 179.142 196.774C178.593 195.541 178.054 194.28 177.513 193.015L177.513 193.015C176.916 191.617 176.317 190.215 175.7 188.842C175.317 189.998 175.024 191.258 174.83 192.63C173.896 199.237 175.252 208.427 179.91 220.761C187.596 235.493 196.351 258.142 197.568 278.257C198.138 287.684 197.06 296.675 193.329 304.048C201.746 313.061 207.394 321.314 210.707 328.318C214.412 326.33 218.958 324.689 224.384 323.655C231.369 322.325 236.486 322.355 240.174 323.327C243.91 324.311 246.202 326.274 247.378 328.722C248.527 331.117 248.519 333.79 248.055 336.089C247.591 338.388 246.64 340.469 245.705 341.778C245.288 342.361 244.733 343.079 244.08 343.922L244.078 343.924C242.015 346.588 238.978 350.509 236.275 355.424C232.733 361.863 229.911 369.783 230.853 378.262C231.269 382 234.206 384.889 238.672 386.461C243.12 388.027 248.828 388.166 254.134 386.541C259.423 384.921 264.219 381.58 266.993 376.277C269.763 370.98 270.614 363.537 267.65 353.524C266.013 347.993 265.012 343.426 264.526 339.678C259.385 339.428 254.176 337.526 251.067 332.525C247.265 326.409 244.172 320.446 243.616 312.822C243.6 312.615 243.587 312.408 243.576 312.199C242.072 311.973 240.581 311.659 239.112 311.242C232.858 309.464 227.034 305.819 222.561 299.254C218.106 292.715 215.049 283.365 214.137 270.261C213.232 257.268 214.909 249.529 218.564 245.396C222.339 241.126 227.816 241.099 233.209 242.346C236.781 243.172 240.61 244.634 244.228 246.036C244.161 245.875 244.096 245.715 244.034 245.554C242.115 240.618 242.177 235.305 245.69 231.54ZM277.069 154.352C277.452 150.45 277.712 146.28 277.825 141.839C278.11 130.729 273.936 123.591 268.345 119.536C262.7 115.44 255.474 114.388 249.537 115.752C243.567 117.123 239.27 120.805 238.757 125.874C238.236 131.032 241.528 138.341 252.497 147.129C260.995 153.936 269.255 155.768 277.069 154.352ZM268.738 187.047C264.108 185.708 260.145 185.741 257.226 186.562C254.377 187.364 252.659 188.858 252.037 190.403C251.448 191.862 251.698 193.724 253.585 195.701C254.511 196.673 255.493 197.23 256.486 197.453C257.478 197.675 258.572 197.584 259.759 197.11C262.173 196.145 264.917 193.609 267.549 189.191C267.95 188.517 268.347 187.802 268.738 187.047ZM303.435 233.537C304.216 234.644 305.091 235.589 306.005 236.387C307.728 237.89 309.608 238.883 311.3 239.438C313.024 240.004 314.433 240.079 315.238 239.895C318.189 239.221 319.451 237.329 319.611 235.401C319.78 233.379 318.75 231.177 316.75 229.975C314.805 228.807 311.715 228.47 307.582 230.679C306.29 231.37 304.903 232.307 303.435 233.537ZM309.529 200.474C315.263 208.494 324.019 214.469 330.221 218.583C331.835 219.654 333.361 219.901 334.787 219.618C336.251 219.328 337.735 218.453 339.153 217.058C342.003 214.254 344.324 209.609 345.407 204.795C346.497 199.946 346.256 195.279 344.42 192.315C343.527 190.873 342.249 189.814 340.483 189.283C338.69 188.744 336.295 188.723 333.158 189.563C321.922 192.574 314.461 196.245 309.529 200.474ZM177.121 185.669C178.66 183.04 180.832 181.162 183.473 179.902C188.12 177.685 194.385 177.306 201.566 178.484C206.405 179.277 211.596 180.767 216.882 182.812C216.724 186.277 216.316 189.526 215.636 192.469C214.097 199.125 211.221 203.994 206.945 206.428C202.703 208.844 196.723 209.064 188.499 205.62C187.297 205.117 186.123 203.98 184.934 202.207C183.755 200.45 182.656 198.213 181.539 195.706C181.03 194.564 180.518 193.365 179.994 192.139L179.994 192.138C179.084 190.007 178.14 187.796 177.121 185.669ZM99.2423 181.5C99.4259 185.939 99.4458 190.118 99.3248 194.037C91.6227 195.972 83.2586 194.696 74.3246 188.472C62.7921 180.438 59.0187 173.366 59.194 168.184C59.3664 163.092 63.4081 159.131 69.2723 157.364C75.1052 155.606 82.3855 156.172 88.2922 159.881C94.1412 163.554 98.7833 170.397 99.2423 181.5ZM81.6794 227.502C84.5375 226.487 88.4897 226.189 93.1985 227.215C92.859 227.995 92.5107 228.735 92.1551 229.434C89.8248 234.018 87.2569 236.732 84.9123 237.856C83.76 238.408 82.6746 238.572 81.6703 238.417C80.6644 238.261 79.6474 237.771 78.6578 236.863C76.6431 235.017 76.2694 233.176 76.7589 231.68C77.2769 230.098 78.8911 228.492 81.6794 227.502ZM133.681 273.953C132.716 273.218 131.78 272.333 130.927 271.281C132.31 269.955 133.63 268.928 134.874 268.152C138.849 265.672 141.955 265.801 143.974 266.837C146.05 267.902 147.224 270.03 147.192 272.059C147.16 273.994 146.028 275.966 143.129 276.835C142.337 277.072 140.927 277.092 139.169 276.643C137.444 276.202 135.502 275.337 133.681 273.953ZM156.653 254.569C150.19 250.879 141.054 245.503 134.796 237.885C139.434 233.335 146.633 229.173 157.642 225.418C160.717 224.369 163.107 224.231 164.932 224.648C166.73 225.06 168.076 226.032 169.063 227.41C171.093 230.244 171.646 234.885 170.882 239.796C170.124 244.672 168.119 249.462 165.463 252.45C164.141 253.936 162.719 254.909 161.278 255.297C159.874 255.674 158.335 255.529 156.653 254.569ZM201.63 340.503C202.908 337.753 205.464 334.724 209.496 332.084C209.815 332.872 210.098 333.639 210.348 334.383C211.986 339.257 212.124 342.991 211.283 345.451C210.87 346.66 210.227 347.55 209.412 348.157C208.596 348.766 207.534 349.148 206.193 349.219C203.464 349.362 201.888 348.339 201.164 346.942C200.398 345.464 200.383 343.187 201.63 340.503ZM269.371 336.807C268.549 336.93 267.719 337.015 266.889 337.057C266.736 335.063 266.767 333.407 266.94 332.044C267.193 330.055 267.736 328.782 268.36 327.989C268.964 327.221 269.699 326.831 270.526 326.688C272.285 326.384 274.574 327.2 276.569 328.548C277.537 329.202 278.36 329.933 278.935 330.603C279.56 331.33 279.726 331.794 279.735 331.926C279.739 331.97 279.717 332.246 279.244 332.757C278.796 333.242 278.076 333.787 277.098 334.328C275.15 335.406 272.392 336.356 269.371 336.807ZM273.471 305.97C266.286 308.004 256.004 310.768 246.153 309.868C246.247 303.385 248.261 295.471 253.364 284.841C254.769 281.912 256.346 280.11 257.922 279.1C259.475 278.105 261.112 277.826 262.787 278.087C266.231 278.625 269.93 281.482 272.899 285.467C275.847 289.424 277.86 294.211 278.131 298.199C278.266 300.184 277.964 301.88 277.231 303.18C276.516 304.447 275.335 305.443 273.471 305.97ZM32.341 339.474C35.1353 340.653 38.2539 343.099 41.0372 347.034C40.2606 347.38 39.5046 347.691 38.7702 347.968C33.9578 349.779 30.2313 350.051 27.7424 349.299C26.5192 348.929 25.6072 348.318 24.9706 347.526C24.3331 346.732 23.9134 345.684 23.7949 344.347C23.5536 341.624 24.5196 340.013 25.8897 339.24C27.3397 338.421 29.6148 338.324 32.341 339.474ZM39.3919 408.844C39.1747 407.651 39.0806 406.366 39.1609 405.014C41.0759 404.968 42.7438 405.1 44.1852 405.367C48.793 406.218 50.9981 408.408 51.7899 410.535C52.6042 412.722 52.0351 415.085 50.6422 416.561C49.3141 417.968 47.1477 418.659 44.421 417.345C43.677 416.987 42.6223 416.05 41.6277 414.532C40.652 413.043 39.8013 411.095 39.3919 408.844ZM69.4254 410.032C67.1435 402.949 64.0263 392.817 64.5461 382.971C71.0394 382.742 79.1608 384.526 89.8208 389.181C92.7979 390.481 94.6561 391.992 95.7213 393.53C96.7711 395.047 97.1091 396.673 96.9078 398.356C96.4941 401.818 93.7717 405.616 89.895 408.726C86.046 411.814 81.3346 413.998 77.3584 414.411C75.3796 414.617 73.6736 414.376 72.3485 413.69C71.0573 413.021 70.0192 411.876 69.4254 410.032Z" fill="white"/>
</g>
<path d="M169.3 308.2L161.9 292.6" stroke="#424D51" stroke-linecap="round" stroke-linejoin="round"/>
<path d="M177.4 268.699L177.6 275.699" stroke="#424D51" stroke-linecap="round" stroke-linejoin="round"/>
<path fill-rule="evenodd" clip-rule="evenodd" d="M140.5 210.301C139 216.501 157.2 224.301 161.6 216.101C163 210.801 163.4 203.301 163.8 200.501C164.4 195.401 164.9 192.701 158.2 190.301C148.9 186.901 149.2 197.901 149.2 197.901C149.2 197.901 142 206.201 140.5 210.301Z" fill="#EFD9CE"/>
<path fill-rule="evenodd" clip-rule="evenodd" d="M153.301 195.401C153.301 195.401 166.101 205.001 172.901 198.101C179.701 191.201 174.601 184.901 174.301 184.401C174.001 183.901 163.901 174.501 159.501 173.401C155.001 172.301 146.901 173.101 144.001 179.901C141.101 186.701 144.501 190.301 147.901 192.901C149.701 194.301 153.301 195.401 153.301 195.401Z" fill="#EFD9CE"/>
<path fill-rule="evenodd" clip-rule="evenodd" d="M148.901 190.101C148.901 190.101 153.001 187.201 153.201 181.601C153.201 181.501 165.801 175.501 161.501 172.801L152.801 166.801C152.801 166.801 150.201 165.101 147.701 168.301C145.801 170.801 137.701 181.201 137.701 181.201C137.701 181.201 135.501 184.201 138.601 186.501C141.701 188.801 146.301 192.201 146.301 192.201L148.901 190.101Z" fill="#F1D7AD"/>
<path fill-rule="evenodd" clip-rule="evenodd" d="M163.801 200.301C163.801 200.301 160.301 199.101 157.601 196.901C154.701 194.501 163.301 205.601 163.301 205.601L163.801 200.301Z" fill="#424D51"/>
<path d="M162.4 191.301C166 193.101 167.6 189.301 167.6 189.301" stroke="#424D51" stroke-width="0.729" stroke-linecap="round" stroke-linejoin="round"/>
<path d="M162.2 185.601C162.2 185.601 163.9 184.901 164.6 185.901C165.3 186.901 164.3 187.701 163.7 188.201" stroke="#424D51" stroke-width="0.729" stroke-linecap="round" stroke-linejoin="round"/>
<path d="M161.801 182.901C161.801 182.901 161.201 181.101 162.201 179.701C163.201 178.301 164.401 178.401 165.601 178.601" stroke="#424D51" stroke-width="0.729" stroke-linecap="round" stroke-linejoin="round"/>
<path d="M162.101 180.301C162.201 179.701 162.701 179.201 163.301 179.301C163.901 179.401 164.401 179.901 164.301 180.501C164.201 181.101 163.701 181.601 163.101 181.601C162.501 181.501 162.101 180.901 162.101 180.301Z" stroke="#424D51" stroke-width="0.729" stroke-linecap="round" stroke-linejoin="round"/>
<path d="M155.301 191.001C155.301 191.001 154.701 189.201 155.701 187.801C156.701 186.401 157.901 186.401 159.101 186.701" stroke="#424D51" stroke-width="0.729" stroke-linecap="round" stroke-linejoin="round"/>
<path d="M155.601 188.401C155.701 187.801 156.201 187.301 156.801 187.301C157.401 187.401 157.901 187.901 157.801 188.501C157.701 189.101 157.201 189.601 156.601 189.601C156.101 189.501 155.601 189.001 155.601 188.401Z" stroke="#424D51" stroke-width="0.729" stroke-linecap="round" stroke-linejoin="round"/>
<path fill-rule="evenodd" clip-rule="evenodd" d="M152.701 189.001C151.801 188.901 143.701 188.901 144.301 194.501C144.901 200.101 151.201 198.701 151.801 198.201C153.301 197.101 154.401 196.201 154.901 194.301C155.801 191.101 154.901 189.401 152.701 189.001Z" fill="#EFD9CE"/>
<path d="M150.7 193.001C150.3 193.301 149.6 194.101 149.4 194.901M147.9 193.401C147.9 193.401 149.1 192.701 150.8 193.001L147.9 193.401ZM152.3 193.401C151.7 193.101 151.2 193.001 150.7 192.901L152.3 193.401Z" stroke="#424D51" stroke-width="0.729" stroke-linecap="round" stroke-linejoin="round"/>
<path d="M377.555 281.259C378.317 273.048 367.189 260.665 349.115 259.622" stroke="#424D51" stroke-linecap="round" stroke-linejoin="round"/>
<path d="M387.418 278.068C386.317 272.145 379.811 263.504 369.668 259.944" stroke="#424D51" stroke-linecap="round" stroke-linejoin="round"/>
<path d="M198.501 465.065C196.742 465.065 193.894 452.499 192.689 446.216C192.689 444.069 193.318 440.121 195.831 441.504C198.972 443.231 200.229 451.557 200.7 455.64C201.172 459.724 200.7 465.065 198.501 465.065Z" fill="#ECECEC"/>
<path d="M205.57 461.217C205.57 457.631 207.324 448.572 208.319 444.724C209.305 440.446 211.539 441.504 212.167 443.232C212.795 444.96 211.774 452.892 210.989 456.033C210.203 459.175 209.497 464.28 208.319 464.673C207.14 465.065 205.57 464.358 205.57 461.217Z" fill="#ECECEC"/>
<path d="M214.602 463.259C213.785 461.814 216.827 455.85 218.45 453.049C220.06 450.065 222.377 449.358 223.712 451.478C225.047 453.599 218.921 461.845 218.057 463.259C217.193 464.673 215.623 465.065 214.602 463.259Z" fill="#ECECEC"/>
<path d="M322.373 408.727C321.405 412.599 300.996 439.985 290.913 453.194C270.948 468.168 252.649 447.598 248.412 430.961C246.175 422.175 244.782 403.887 248.412 388.157C252.042 372.427 261.648 378.553 262.932 385.283C263.477 388.141 264.293 406.408 264.444 415.231C266.864 407.466 273.731 389.669 281.838 380.594C291.972 369.251 298.789 378.691 296.812 385.283C295.723 388.913 285.569 410.492 280.628 420.827C288.997 415.079 305.556 402.616 312.09 399.954C320.257 396.627 323.583 403.887 322.373 408.727Z" fill="#ECECEC"/>
<path d="M314.657 472.702C281.102 472.702 268.526 473.005 262.022 470.282C245.465 463.35 247.267 448.46 258.574 436.914C270.326 424.914 283.802 426.419 288.037 434.89C301.498 421.126 337.322 401.664 367.141 413.261C399.519 425.853 387.106 445.729 377.728 452.132C393.325 459.039 388.575 472.702 370.2 472.702H314.657Z" fill="#F8F8F8"/>
</svg>
