<svg width="424" height="522" viewBox="0 0 424 522" fill="none" xmlns="http://www.w3.org/2000/svg">
<path d="M206.838 413.513C248.693 411.499 233.842 376.018 215.049 355.491C204.74 341.624 176.13 313.781 144.163 313.343C104.204 312.795 71.6353 359.596 56.3087 386.144C44.0474 407.382 69.7185 413.239 81.2134 413.513C103.474 412.327 155.658 415.976 206.838 413.513Z" fill="#F8F8F8"/>
<path d="M72.1811 420.636C81.2132 420.636 81.488 415.155 79.435 409.545C76.2886 403.113 68.7786 393.808 59.3161 393.807C54.9886 393.807 39.4756 407.355 40.2967 415.019C41.1177 422.682 62.9758 420.636 72.1811 420.636Z" fill="#E1E1E1"/>
<path d="M98.0412 422.681C105.267 421.258 103.971 416.705 102.42 414.607C98.0408 409.407 89.1468 402.975 83.2625 402.017C78.9912 401.322 67.6622 409.133 68.4832 416.797C69.3043 424.46 89.0095 424.46 98.0412 422.681Z" fill="#ECECEC"/>
<path d="M311.124 417.655C312.883 417.655 315.731 405.089 316.936 398.806C316.936 396.659 316.307 392.711 313.794 394.094C310.653 395.821 309.396 404.146 308.925 408.23C308.453 412.314 308.925 417.655 311.124 417.655Z" fill="#ECECEC"/>
<path d="M304.055 413.807C304.055 410.221 302.301 401.162 301.306 397.314C300.32 393.036 298.086 394.094 297.458 395.822C296.83 397.55 297.851 405.482 298.636 408.623C299.422 411.765 300.128 416.87 301.306 417.262C302.485 417.655 304.055 416.948 304.055 413.807Z" fill="#ECECEC"/>
<path d="M295.023 415.849C295.84 414.404 292.798 408.44 291.175 405.639C289.565 402.654 287.248 401.948 285.913 404.068C284.578 406.189 290.704 414.435 291.568 415.849C292.432 417.262 294.002 417.655 295.023 415.849Z" fill="#ECECEC"/>
<path d="M228.6 437.05L263.4 434.75C262.8 402.05 262.4 369.25 261.4 336.55C260.9 320.85 260.3 305.15 259.4 289.45C258.7 277.25 259.1 263.85 256.1 251.95C255.3 248.85 199.5 247.35 198.4 248.55C193.2 253.55 170.5 304.05 170.5 304.05C165.3 315.15 157.6 333.45 157.7 344.75C157.8 354.45 171.9 437.15 171.9 437.15L206.6 433.65C206.6 433.65 196.7 355.45 195.3 344.25C195.1 342.25 200.4 329.75 205.8 317.35L220.7 286.65C221.1 293.95 221.6 301.35 222 308.65C223.1 326.65 225.2 344.55 225.9 362.65C226.4 374.55 226.6 386.55 227.1 398.45C227.2 400.85 228.8 437.05 228.6 437.05Z" fill="#C7E7DA"/>
<path fill-rule="evenodd" clip-rule="evenodd" d="M205.999 423.65L169.799 427.05L172.299 440.15L208.099 437.85L205.999 423.65Z" fill="#B68674"/>
<path fill-rule="evenodd" clip-rule="evenodd" d="M227.4 425.449L263.6 424.449V437.749L228 438.249L227.4 425.449Z" fill="#B68674"/>
<path fill-rule="evenodd" clip-rule="evenodd" d="M205.5 435.149C205.5 435.149 209 435.349 209.4 438.249C209.6 440.149 208.6 441.249 207.5 441.949C207.5 441.949 209.1 442.949 210.5 445.449C211.9 447.949 214.1 452.749 212.8 455.849C212.2 457.249 176.7 455.749 176.7 455.749L139.4 456.249C139.4 456.249 140.9 448.849 149.5 446.649C157.2 444.649 158.9 444.549 162.7 444.149C165.1 443.849 167 442.849 168 440.949C169.5 438.049 170.3 436.549 174.2 435.649C177.1 434.949 200.4 434.349 205.5 435.149Z" fill="#80CAB3"/>
<path fill-rule="evenodd" clip-rule="evenodd" d="M212.799 456.05C213.899 454.85 206.399 443.95 198.299 443.15C190.799 442.45 185.499 448.95 180.599 450.15C177.399 450.95 172.399 450.95 168.099 450.95C166.199 450.95 142.199 451.05 142.199 451.05C142.199 451.05 136.499 455.25 139.099 457.45C140.599 458.75 211.799 457.15 212.799 456.05Z" fill="#957FEF"/>
<path fill-rule="evenodd" clip-rule="evenodd" d="M230.2 436.05C230.2 436.05 226.7 436.25 226.3 439.15C226.1 441.05 227.2 442.15 228.2 442.85C228.2 442.85 226.6 443.85 225.3 446.45C224 448.95 221.8 453.75 223.1 456.85C223.7 458.25 259.2 456.35 259.2 456.35L296.5 456.45C296.5 456.45 294.9 449.05 286.3 446.95C278.6 445.05 276.9 444.95 273.1 444.55C270.7 444.25 268.7 443.35 267.7 441.35C266.2 438.45 264.6 437.25 261.4 436.05C256.5 434.35 235.3 435.25 230.2 436.05Z" fill="#80CAB3"/>
<path fill-rule="evenodd" clip-rule="evenodd" d="M223.099 457.05C221.999 455.95 229.399 444.85 237.499 444.05C244.999 443.25 250.299 449.75 255.299 450.85C258.499 451.55 263.499 451.55 267.799 451.45C269.699 451.45 293.699 451.35 293.699 451.35C293.699 451.35 299.399 455.45 296.899 457.75C295.299 459.05 224.099 458.15 223.099 457.05Z" fill="#957FEF"/>
<path d="M212.2 189.45C203.1 183.45 197.4 173.55 177.2 180.75C166.4 184.65 154 187.95 136.6 195.15C136.6 195.15 105.6 205.05 107.1 228.85C108.1 245.15 163.7 291.05 170.1 294.45C170.1 294.45 170.2 294.45 170.2 294.55C172.8 296.75 175.8 298.75 179.1 300.25C180.7 300.95 186.2 301.65 187.3 297.45C187.3 297.45 191.1 298.25 193 296.95C194.5 295.95 194.4 294.85 194.4 294.85C194.4 294.85 196.7 294.95 198.2 293.45C200 291.85 199.4 291.05 199.4 291.05C199.4 291.05 202.6 291.15 203 288.55C203.3 286.05 200.7 284.75 192.8 280.95C189.1 279.15 184.3 274.85 184.3 274.85L187.2 268.65C187.2 268.65 178.8 267.15 174.3 267.55C174.2 267.55 174.1 267.45 173.9 267.45C167.3 261.95 144 229.85 144.2 227.55C144.2 227.55 168.1 219.85 181.2 214.65C200.3 209.85 217.6 196.85 212.2 189.45Z" fill="#D9A48A"/>
<path d="M142.1 271.049C150.2 279.049 163.4 290.849 172.9 296.549" stroke="#424D51" stroke-linecap="round" stroke-linejoin="round"/>
<path d="M188.299 277.75C187.199 276.85 184.599 274.45 182.799 272.75" stroke="#424D51" stroke-linecap="round" stroke-linejoin="round"/>
<path d="M182.1 283.949C182.1 283.949 193 291.849 199.6 291.449" stroke="#424D51" stroke-linecap="round" stroke-linejoin="round"/>
<path d="M178.6 288.85C178.6 288.85 189 295.15 195.1 295.25" stroke="#424D51" stroke-linecap="round" stroke-linejoin="round"/>
<path d="M175.699 293.65C175.699 293.65 183.099 297.85 187.299 298.25" stroke="#424D51" stroke-linecap="round" stroke-linejoin="round"/>
<path d="M134.5 217.449C134.5 217.449 142.9 225.649 144.2 227.549" stroke="#424D51" stroke-linecap="round" stroke-linejoin="round"/>
<path fill-rule="evenodd" clip-rule="evenodd" d="M259.099 81.4492C252.699 70.6492 258.799 68.4492 261.599 67.5492C264.199 66.7492 271.899 67.0492 273.299 66.9492C275.399 66.9492 277.499 66.9492 279.699 67.1492C283.699 67.5492 287.599 68.4492 291.099 70.5492C298.999 75.2492 303.099 85.7492 302.199 94.6492C301.499 100.649 298.699 106.249 294.399 110.449C289.599 115.149 283.399 116.849 276.799 117.449C274.699 117.649 269.499 118.149 262.899 117.349C255.799 111.149 260.199 87.2492 259.099 81.4492Z" fill="#957FEF"/>
<path fill-rule="evenodd" clip-rule="evenodd" d="M248.299 75.2492C248.799 74.5492 249.299 73.9492 249.899 73.3492C253.199 69.9492 257.799 67.9492 262.599 67.3492C268.999 66.6492 275.699 68.0492 280.599 72.3492C285.599 76.7492 288.499 83.2492 289.299 89.8492C290.499 99.7492 286.799 109.149 278.199 114.449C269.699 119.749 258.799 118.349 251.399 111.749C243.799 105.049 241.899 94.3492 244.199 84.8492C244.899 81.4492 246.299 78.0492 248.299 75.2492Z" fill="#BA79E2"/>
<path d="M239.499 202.849C243.899 209.249 250.299 210.549 264.799 203.949C272.499 201.049 287.099 188.849 297.799 179.849C302.299 176.049 306.199 172.749 308.599 171.049C316.499 165.249 318.799 158.749 317.399 148.649C314.999 131.849 281.499 95.0494 276.699 90.2494C273.999 87.2494 268.999 82.4494 260.099 81.4494C248.599 80.1494 242.999 92.1494 245.099 96.7494C247.199 101.349 250.199 103.549 257.599 105.549C260.799 106.449 263.299 107.349 264.399 107.749C270.199 114.349 288.299 145.349 287.199 147.349C285.999 149.449 279.999 153.249 274.599 156.649C272.699 157.849 270.899 158.949 269.499 159.949C267.899 161.049 265.899 162.249 263.699 163.549C249.699 172.149 227.699 185.749 239.499 202.849Z" fill="#D9A48A"/>
<path fill-rule="evenodd" clip-rule="evenodd" d="M222.1 66.7489C221.9 65.0489 228 63.9489 228.4 63.8489C231.9 63.4489 235.4 63.6489 238.9 64.0489C245.1 64.9489 251.4 66.9489 255.7 71.7489C260.3 76.9489 263.6 84.5489 263.2 91.4489C262.8 100.449 259.2 110.149 251.2 115.049C245.1 118.749 238.2 118.449 231.4 117.949C228 117.749 222.6 117.549 221.5 113.549C219.5 106.749 222.8 72.1489 222.1 66.7489Z" fill="#957FEF"/>
<path fill-rule="evenodd" clip-rule="evenodd" d="M210.2 79.0489C212.6 72.0489 217.4 66.2489 225.2 64.4489C241.4 60.6489 252.5 76.6489 251.9 91.2489C251.4 101.749 244.6 118.849 228.7 117.749C219.6 117.149 212.2 110.349 209.7 101.749C207.8 94.8489 207.7 86.3489 210.2 79.0489Z" fill="#BA79E2"/>
<path fill-rule="evenodd" clip-rule="evenodd" d="M222.1 91.0489C222.2 88.1489 223 85.3489 224.5 83.2489C227.9 78.5489 234.9 78.9489 237.7 84.0489C239.6 87.5489 239.5 91.9489 238.5 95.7489C237.1 101.349 230.3 104.649 225.5 100.549C223.1 98.3489 222 94.6489 222.1 91.0489Z" fill="#957FEF"/>
<path d="M292.625 147.412H287.375L288.5 150.287" stroke="#424D51" stroke-linecap="round" stroke-linejoin="round"/>
<path fill-rule="evenodd" clip-rule="evenodd" d="M290 186.849C282.9 177.149 276 167.449 268.8 157.949C262.2 163.449 255.2 168.549 247.1 171.549C239.1 174.449 230.5 175.049 222.1 175.049C207.6 175.049 193.9 175.149 179.6 178.349C178.3 178.649 165.9 182.749 165.6 182.149L177.1 218.049L199.8 213.549C199.2 226.749 198.4 246.049 198.5 248.549C198.7 252.449 256.2 253.149 256.2 253.149C256.2 253.149 258.3 222.449 259.2 207.249C259.5 207.149 259.8 207.049 260.1 206.949C269.2 203.449 283.8 192.149 290 186.849Z" fill="#BA79E2"/>
<path fill-rule="evenodd" clip-rule="evenodd" d="M219.5 176.049C216.7 180.749 241.9 186.149 244 179.349C244.1 173.849 244.3 170.649 244.8 160.749C245 155.549 239.4 155.849 236.4 155.549C230.8 154.949 228.5 160.749 228.5 160.749C228.5 160.749 221.2 173.149 219.5 176.049Z" fill="#D9A48A"/>
<path fill-rule="evenodd" clip-rule="evenodd" d="M229.2 156.25C228.9 158.05 228.6 165.95 234.2 170.15C238.7 173.45 244.2 172.95 244.2 172.95C244.2 172.95 245 162.95 245 161.95C244.9 161.05 229.5 154.85 229.2 156.25Z" fill="#424D51"/>
<path fill-rule="evenodd" clip-rule="evenodd" d="M227.5 150.049C227.5 150.049 227.2 166.049 236.7 167.549C246.2 169.049 248.4 161.249 248.6 160.749C248.8 160.149 250.6 146.549 248.9 142.249C247.2 137.949 241.8 131.849 234.6 133.449C227.4 135.049 226.5 139.949 226.3 144.149C226.2 146.449 227.5 150.049 227.5 150.049Z" fill="#D9A48A"/>
<path fill-rule="evenodd" clip-rule="evenodd" d="M229.5 147.05C229.1 145.85 224.2 140.45 220 144.15C217.2 146.65 218.2 149.35 219.7 150.95C221.5 152.95 224 153.65 226.8 152.65C229.5 151.65 229.6 149.95 229.8 149.35C230.2 148.45 229.8 147.85 229.5 147.05Z" fill="#D9A48A"/>
<path fill-rule="evenodd" clip-rule="evenodd" d="M246.299 147.15C246.699 145.95 251.599 140.45 255.799 144.25C258.599 146.75 257.599 149.45 256.099 151.05C254.299 153.05 251.799 153.75 248.999 152.75C246.299 151.85 246.199 150.05 245.999 149.45C245.699 148.55 245.999 147.95 246.299 147.15Z" fill="#D9A48A"/>
<path fill-rule="evenodd" clip-rule="evenodd" d="M234.699 154.049C234.799 154.049 238.099 155.849 239.899 156.449C240.499 156.649 238.799 158.649 236.799 157.949C234.699 157.249 234.099 153.849 234.699 154.049Z" fill="white"/>
<path d="M238.9 150.549C238.9 150.549 240.5 151.349 240.3 152.549C240 153.749 238.8 153.549 238 153.349" stroke="#424D51" stroke-width="0.729" stroke-linecap="round" stroke-linejoin="round"/>
<path d="M241.4 148.749C241.4 148.749 242.4 147.149 244.1 146.949C245.8 146.849 246.6 147.749 247.1 148.849" stroke="#424D51" stroke-width="0.729" stroke-linecap="round" stroke-linejoin="round"/>
<path d="M243.6 147.35C244.1 146.95 244.8 147.15 245.2 147.65C245.6 148.15 245.5 148.85 244.9 149.25C244.4 149.65 243.7 149.55 243.3 148.95C243 148.45 243.1 147.65 243.6 147.35Z" stroke="#424D51" stroke-width="0.729" stroke-linecap="round" stroke-linejoin="round"/>
<path d="M230.299 148.749C230.299 148.749 231.299 147.149 232.999 146.949C234.699 146.849 235.499 147.749 235.999 148.849" stroke="#424D51" stroke-width="0.729" stroke-linecap="round" stroke-linejoin="round"/>
<path d="M232.5 147.35C233 146.95 233.7 147.15 234.1 147.65C234.5 148.15 234.4 148.85 233.8 149.25C233.3 149.65 232.6 149.55 232.2 148.95C231.9 148.45 232 147.65 232.5 147.35Z" stroke="#424D51" stroke-width="0.729" stroke-linecap="round" stroke-linejoin="round"/>
<path d="M250.7 147.65C251.2 147.55 252.3 147.55 252.9 147.95M252.9 145.85C252.9 145.85 251.6 146.25 250.7 147.75L252.9 145.85ZM250 149.15C250.2 148.55 250.4 148.05 250.7 147.65L250 149.15Z" stroke="#424D51" stroke-width="0.729" stroke-linecap="round" stroke-linejoin="round"/>
<path d="M226.4 147.55C225.9 147.45 224.8 147.45 224.2 147.85M224.1 145.65C224.1 145.65 225.4 146.05 226.3 147.55L224.1 145.65ZM227.1 149.05C226.9 148.45 226.7 147.95 226.4 147.55L227.1 149.05Z" stroke="#424D51" stroke-width="0.729" stroke-linecap="round" stroke-linejoin="round"/>
<path fill-rule="evenodd" clip-rule="evenodd" d="M231.1 140.65C231.1 140.65 238.4 145.25 245.9 140.85C246 140.85 247.1 144.15 249.6 143.95C249.6 143.95 253.4 131.25 238.5 130.95C224.9 130.65 225.9 143.95 226.6 143.95C228.8 143.95 231.1 140.65 231.1 140.65Z" fill="#D6D6D6"/>
<path d="M200 212.85C200 212.85 202.3 207.85 204 202.25" stroke="#424D51" stroke-linecap="round" stroke-linejoin="round"/>
<path d="M259.4 206.849L259.6 198.449" stroke="#424D51" stroke-linecap="round" stroke-linejoin="round"/>
<path d="M313.729 76.6279C314.491 68.4167 303.363 56.0342 285.289 54.9911" stroke="#424D51" stroke-linecap="round" stroke-linejoin="round"/>
<path d="M323.592 73.4375C322.491 67.5145 315.985 58.8727 305.841 55.3134" stroke="#424D51" stroke-linecap="round" stroke-linejoin="round"/>
</svg>
