<svg width="424" height="522" viewBox="0 0 424 522" fill="none" xmlns="http://www.w3.org/2000/svg">
<path d="M389.53 133.462L81.3008 149.448C90.0374 142.634 104.968 129.005 114.194 126.909C125.727 124.288 130.707 130.185 140.404 130.185C147.874 130.185 156.917 115.507 167.925 107.382C176.731 100.882 188.456 101.659 190.727 104.367C194.308 108.636 199.77 110.789 206.584 104.367C219.136 92.5384 234.265 77.8449 248.389 70.6871C277.351 56.0105 303.178 75.7314 310.114 81.8266C327.412 97.0296 336.219 124.444 349.429 117.998C371.183 107.382 388.656 128.045 389.53 133.462Z" fill="#F8F8F8"/>
<path d="M83.3118 459.443C81.5526 459.443 78.7042 446.877 77.5 440.594C77.5 438.447 78.1283 434.499 80.6415 435.881C83.783 437.609 85.0396 445.934 85.5109 450.018C85.9821 454.102 85.5109 459.443 83.3118 459.443Z" fill="#ECECEC"/>
<path d="M90.3802 455.595C90.3802 452.009 92.1342 442.95 93.1291 439.102C94.1157 434.824 96.3491 435.881 96.9774 437.61C97.6057 439.338 96.5847 447.27 95.7993 450.411C95.014 453.553 94.3071 458.658 93.1291 459.05C91.951 459.443 90.3802 458.736 90.3802 455.595Z" fill="#ECECEC"/>
<path d="M99.4121 457.637C98.5953 456.192 101.637 450.228 103.26 447.427C104.87 444.442 107.187 443.735 108.522 445.856C109.858 447.977 103.732 456.223 102.868 457.637C102.004 459.05 100.433 459.443 99.4121 457.637Z" fill="#ECECEC"/>
<path d="M326.684 372.071C325.716 375.943 305.308 403.329 295.224 416.538C275.26 431.512 256.96 410.942 252.724 394.304C250.487 385.519 249.093 367.231 252.723 351.501C256.353 335.771 265.96 341.896 267.243 348.627C267.788 351.485 268.604 369.752 268.756 378.574C271.176 370.81 278.042 353.013 286.149 343.938C296.283 332.594 303.101 342.035 301.123 348.627C300.034 352.257 289.88 373.835 284.939 384.171C293.309 378.423 309.867 365.96 316.401 363.298C324.569 359.97 327.894 367.231 326.684 372.071Z" fill="#ECECEC"/>
<path d="M318.968 436.046C285.414 436.046 272.837 436.349 266.333 433.626C249.777 426.694 251.578 411.804 262.886 400.258C274.638 388.258 288.113 389.763 292.348 398.233C305.81 384.47 341.634 365.008 371.452 376.605C403.831 389.197 391.417 409.073 382.04 415.476C397.637 422.383 392.887 436.046 374.512 436.046H318.968Z" fill="#F8F8F8"/>
<path fill-rule="evenodd" clip-rule="evenodd" d="M242.6 119.199C242.6 119.199 249.1 109.599 239.2 101.499C233.1 96.4994 236.1 92.9994 235.3 89.3994C234.9 87.3994 232.8 90.5994 231.9 84.7994C230.1 72.5994 222.8 69.0994 213.3 73.0994C207.3 75.6994 206.6 80.9994 205.5 84.9994C204.2 89.5994 200.5 94.3994 195.7 95.6994C189.5 97.3994 175 104.599 183.4 118.499C185.1 121.199 191.1 119.499 195.3 119.199C199.4 118.899 220.3 118.999 220.3 118.999L242.6 119.199Z" fill="#89716E"/>
<path d="M198.1 140.1C196.8 141.3 195.7 142.4 195.2 143.1C190.3 149.4 184.4 159.3 178.5 169C171.7 180.2 165.1 191.1 160.7 195.8C154 202.9 144.6 207.9 136.5 212.9C116 225.4 94.2005 236 71.3005 243.5C67.9005 244.6 66.0005 240.8 67.8005 238C67.8005 238 65.3005 239.3 63.9005 236.8C62.7005 234.6 64.3005 233.1 65.2005 232.2C65.0005 232.3 63.3005 233 62.3005 231.4C61.3005 229.9 61.4005 228.3 63.4005 227.1C63.2005 227.2 60.9005 227.9 60.0005 225.4C59.5005 224 60.2005 222.3 62.5005 220.7C66.6005 218 77.1005 215.2 77.1005 215.2C77.1005 215.2 74.1005 214.2 70.9005 213.2C70.0005 212.9 67.9005 211.7 68.3005 209.6C68.7005 207.6 69.9005 207.2 73.3005 207.3C76.9005 207.5 83.9005 207.8 89.0005 209.6C91.9005 210.6 95.6005 206.8 97.7005 205.2C101.4 202.5 105.4 200 109.3 197.5C120.5 190 133.5 181.3 137.7 177.3C139.4 175.7 142.4 170.6 146.3 164.1C156.6 146.8 173.2 119 188.5 116.9C220.4 118.5 205.5 133 198.1 140.1Z" fill="#FDDCC4"/>
<path fill-rule="evenodd" clip-rule="evenodd" d="M82.9 239C82.9 239 85.8 245.1 82.5 246.2C79.2 247.4 77.5 240.8 77.5 240.8L82.9 239Z" fill="#9F78BA"/>
<path fill-rule="evenodd" clip-rule="evenodd" d="M68.6993 217.999C68.6993 217.999 65.8993 211.799 69.2993 210.799C72.5993 209.699 74.1993 216.299 74.1993 216.299L68.6993 217.999Z" fill="#9F78BA"/>
<path d="M77.8008 215.301C79.4008 214.601 80.9008 213.701 83.0008 213.301" stroke="#424D51" stroke-linecap="round" stroke-linejoin="round"/>
<path d="M77.5004 227.199C79.0004 224.899 77.6004 221.399 73.2004 222.599C70.5004 223.299 66.6004 224.499 63.4004 227.199" stroke="#424D51" stroke-linecap="round" stroke-linejoin="round"/>
<path d="M75.9004 222.2C77.4004 219.9 76.1004 216.4 71.6004 217.4C68.7004 218 64.6004 219.3 61.4004 222" stroke="#424D51" stroke-linecap="round" stroke-linejoin="round"/>
<path d="M78.5004 233.5C82.5004 231.4 79.8004 226.3 76.0004 227.4C72.6004 228.3 72.2004 228.7 69.6004 229.6C68.4004 230.1 66.3004 230.9 65.4004 232.1" stroke="#424D51" stroke-linecap="round" stroke-linejoin="round"/>
<path d="M79.8008 240.501C79.8008 240.501 81.7008 239.701 82.3008 238.601C83.9008 235.801 81.3008 232.501 77.9008 233.701C77.2008 234.001 68.5008 236.501 67.8008 238.001" stroke="#424D51" stroke-linecap="round" stroke-linejoin="round"/>
<path d="M230.101 140.1C231.401 141.3 232.501 142.4 233.001 143.1C237.901 149.4 243.801 159.3 249.701 169C256.501 180.2 263.101 191.1 267.501 195.8C274.001 202.6 283.001 207.6 291.001 212.5C300.201 218.1 309.501 223.6 319.201 228.2C331.401 234 344.001 239.3 356.901 243.5C360.301 244.6 362.201 240.8 360.401 238C360.401 238 362.901 239.3 364.301 236.8C365.401 234.6 363.901 233.1 363.001 232.2C363.201 232.3 364.901 233 365.901 231.4C366.901 229.9 366.801 228.3 364.801 227.1C365.001 227.2 367.301 227.9 368.301 225.4C368.801 224 368.101 222.3 365.801 220.7C361.701 218 351.201 215.2 351.201 215.2C351.201 215.2 354.201 214.2 357.401 213.2C358.301 212.9 360.401 211.7 360.001 209.6C359.601 207.6 358.401 207.2 355.001 207.3C351.401 207.5 344.401 207.8 339.301 209.6C336.601 210.6 332.601 206.6 330.501 205.2C326.701 202.6 322.801 200.1 319.001 197.5C307.801 190 294.801 181.3 290.601 177.3C288.901 175.7 285.901 170.6 282.001 164.1C271.701 146.8 255.101 119 239.801 116.9C207.801 118.5 222.701 133 230.101 140.1Z" fill="#FDDCC4"/>
<path fill-rule="evenodd" clip-rule="evenodd" d="M345.301 239C345.301 239 342.401 245.1 345.701 246.2C349.001 247.4 350.701 240.8 350.701 240.8L345.301 239Z" fill="#9F78BA"/>
<path fill-rule="evenodd" clip-rule="evenodd" d="M359.5 217.999C359.5 217.999 362.3 211.799 358.9 210.799C355.6 209.699 354 216.299 354 216.299L359.5 217.999Z" fill="#9F78BA"/>
<path d="M350.399 215.301C348.799 214.601 347.299 213.701 345.199 213.301" stroke="#424D51" stroke-linecap="round" stroke-linejoin="round"/>
<path d="M350.6 227.199C349.1 224.899 350.5 221.399 354.9 222.599C357.6 223.299 361.5 224.499 364.7 227.199" stroke="#424D51" stroke-linecap="round" stroke-linejoin="round"/>
<path d="M352.3 222.2C350.8 219.9 352.1 216.4 356.6 217.4C359.5 218 363.6 219.3 366.8 222" stroke="#424D51" stroke-linecap="round" stroke-linejoin="round"/>
<path d="M349.701 233.5C345.701 231.4 348.401 226.3 352.201 227.4C355.601 228.3 356.001 228.7 358.601 229.6C359.801 230.1 361.9 230.9 362.8 232.1" stroke="#424D51" stroke-linecap="round" stroke-linejoin="round"/>
<path d="M348.4 240.501C348.4 240.501 346.5 239.701 345.9 238.601C344.3 235.801 346.9 232.501 350.3 233.701C351 234.001 359.7 236.501 360.4 238.001" stroke="#424D51" stroke-linecap="round" stroke-linejoin="round"/>
<path fill-rule="evenodd" clip-rule="evenodd" d="M223.599 416.8L258.399 415.4C259.099 376.6 260.399 337.8 259.899 299C259.599 276 259.599 248.3 252.199 226.3C249.099 217.1 219.899 210.3 218.599 234.1C217.799 250.1 221.099 318.2 221.399 321.9C222.599 333.1 223.599 416.8 223.599 416.8Z" fill="#E5CDF4"/>
<path fill-rule="evenodd" clip-rule="evenodd" d="M222.699 382.9L259.699 382.1L258.499 418.3L222.899 420.5L222.699 382.9Z" fill="#DCBEF0"/>
<path fill-rule="evenodd" clip-rule="evenodd" d="M224.699 415.401C224.699 415.401 221.199 415.601 220.699 418.401C220.399 420.301 221.499 421.401 222.499 422.201C222.499 422.201 220.899 423.201 219.499 425.701C218.099 428.201 215.799 432.901 216.999 436.001C217.599 437.401 253.099 436.501 253.099 436.501L290.299 437.601C290.299 437.601 288.899 430.201 280.399 427.801C272.799 425.701 271.099 425.601 267.299 425.101C264.899 424.801 262.999 423.801 261.999 421.801C260.599 418.901 258.999 417.601 255.899 416.401C250.999 414.401 229.899 414.701 224.699 415.401Z" fill="#C5B0F0"/>
<path fill-rule="evenodd" clip-rule="evenodd" d="M217 436.301C215.9 435.101 223.6 424.301 231.7 423.601C239.2 423.001 244.4 429.601 249.3 430.901C252.5 431.701 257.5 431.801 261.8 431.901C263.7 431.901 287.7 432.501 287.7 432.501C287.7 432.501 293.3 436.801 290.7 439.001C289.2 440.201 218 437.301 217 436.301Z" fill="#9F78BA"/>
<path fill-rule="evenodd" clip-rule="evenodd" d="M253.4 427.801C251.3 428.101 249.5 426.701 249.2 424.701C248.9 422.701 250.4 420.801 252.4 420.601C254.5 420.301 256.4 421.701 256.6 423.701C256.9 425.601 255.5 427.501 253.4 427.801Z" fill="#DCBEF0"/>
<path fill-rule="evenodd" clip-rule="evenodd" d="M207.9 416.4L173 415.1C172.2 377.8 171.1 340.6 171 303.3C170.9 278.4 172 251.3 178.4 227.1C183.6 207.4 210.7 209.8 212 233.6C212.9 249.6 209.9 317.8 209.6 321.4C208.6 332.6 207.9 416.4 207.9 416.4Z" fill="#E5CDF4"/>
<path fill-rule="evenodd" clip-rule="evenodd" d="M208.6 382.5L171.6 381.9L172.9 418.1L208.5 420.2L208.6 382.5Z" fill="#DCBEF0"/>
<path fill-rule="evenodd" clip-rule="evenodd" d="M207.099 415.2C207.099 415.2 210.699 415.3 211.099 418.2C211.399 420.1 210.399 421.2 209.299 422C209.299 422 210.899 422.9 212.399 425.4C213.799 427.9 216.199 432.6 214.999 435.7C214.399 437.1 178.899 436.7 178.899 436.7L141.699 438.4C141.699 438.4 142.899 431 151.499 428.5C159.099 426.3 160.799 426.1 164.599 425.6C166.999 425.2 168.899 424.2 169.799 422.2C171.199 419.3 172.799 418 175.899 416.7C180.799 414.5 201.999 414.6 207.099 415.2Z" fill="#C5B0F0"/>
<path fill-rule="evenodd" clip-rule="evenodd" d="M215.101 435.901C216.101 434.701 208.301 424.001 200.201 423.501C192.701 423.001 187.601 429.701 182.701 431.001C179.501 431.901 174.601 432.001 170.301 432.201C168.401 432.301 144.401 433.201 144.401 433.201C144.401 433.201 138.901 437.601 141.501 439.701C143.001 440.901 214.201 437.001 215.101 435.901Z" fill="#9F78BA"/>
<path fill-rule="evenodd" clip-rule="evenodd" d="M178.6 428.001C180.7 428.201 182.6 426.801 182.8 424.801C183 422.801 181.6 420.901 179.5 420.701C177.4 420.501 175.6 421.901 175.3 423.901C175.1 425.901 176.5 427.701 178.6 428.001Z" fill="#DCBEF0"/>
<path fill-rule="evenodd" clip-rule="evenodd" d="M164.199 279.201C164.199 279.201 195.899 282.001 213.299 282.001C230.699 282.001 266.899 279.201 266.899 279.201C266.899 279.201 257.399 198.301 244.799 195.701C226.199 191.701 183.399 194.401 182.699 198.701C173.299 211.401 164.199 279.201 164.199 279.201Z" fill="#ECDDF6"/>
<mask id="mask0_12_5289" style="mask-type:alpha" maskUnits="userSpaceOnUse" x="164" y="193" width="103" height="90">
<path fill-rule="evenodd" clip-rule="evenodd" d="M164.199 279.201C164.199 279.201 195.899 282.001 213.299 282.001C230.699 282.001 266.899 279.201 266.899 279.201C266.899 279.201 257.399 198.301 244.799 195.701C226.199 191.701 183.399 194.401 182.699 198.701C173.299 211.401 164.199 279.201 164.199 279.201Z" fill="#ECDDF6"/>
</mask>
<g mask="url(#mask0_12_5289)">
<circle cx="223.521" cy="247.001" r="3" fill="white"/>
<circle cx="223.521" cy="195.001" r="3" fill="white"/>
<circle cx="223.521" cy="273.001" r="3" fill="white"/>
<circle cx="223.521" cy="221.001" r="3" fill="white"/>
<circle cx="177.021" cy="247.001" r="3" fill="white"/>
<circle cx="177.021" cy="195.001" r="3" fill="white"/>
<circle cx="177.021" cy="273.001" r="3" fill="white"/>
<circle cx="177.021" cy="221.001" r="3" fill="white"/>
<circle cx="217.521" cy="260.001" r="3" fill="white"/>
<circle cx="217.521" cy="208.001" r="3" fill="white"/>
<circle cx="217.521" cy="234.001" r="3" fill="white"/>
<circle cx="171.021" cy="260.001" r="3" fill="white"/>
<circle cx="171.021" cy="208.001" r="3" fill="white"/>
<circle cx="264.021" cy="260.001" r="3" fill="white"/>
<circle cx="264.021" cy="208.001" r="3" fill="white"/>
<circle cx="171.021" cy="234.001" r="3" fill="white"/>
<circle cx="264.021" cy="234.001" r="3" fill="white"/>
<circle cx="239.021" cy="247.001" r="3" fill="white"/>
<circle cx="239.021" cy="195.001" r="3" fill="white"/>
<circle cx="239.021" cy="273.001" r="3" fill="white"/>
<circle cx="239.021" cy="221.001" r="3" fill="white"/>
<circle cx="192.521" cy="247.001" r="3" fill="white"/>
<circle cx="192.521" cy="195.001" r="3" fill="white"/>
<circle cx="192.521" cy="273.001" r="3" fill="white"/>
<circle cx="192.521" cy="221.001" r="3" fill="white"/>
<circle cx="233.021" cy="260.001" r="3" fill="white"/>
<circle cx="233.021" cy="208.001" r="3" fill="white"/>
<circle cx="233.021" cy="234.001" r="3" fill="white"/>
<circle cx="186.521" cy="260.001" r="3" fill="white"/>
<circle cx="186.521" cy="208.001" r="3" fill="white"/>
<circle cx="186.521" cy="234.001" r="3" fill="white"/>
<circle cx="161.521" cy="247.001" r="3" fill="white"/>
<circle cx="161.521" cy="195.001" r="3" fill="white"/>
<circle cx="254.521" cy="247.001" r="3" fill="white"/>
<circle cx="254.521" cy="195.001" r="3" fill="white"/>
<circle cx="161.521" cy="273.001" r="3" fill="white"/>
<circle cx="161.521" cy="221.001" r="3" fill="white"/>
<circle cx="254.521" cy="273.001" r="3" fill="white"/>
<circle cx="254.521" cy="221.001" r="3" fill="white"/>
<circle cx="208.021" cy="247.001" r="3" fill="white"/>
<circle cx="208.021" cy="195.001" r="3" fill="white"/>
<circle cx="208.021" cy="273.001" r="3" fill="white"/>
<circle cx="208.021" cy="221.001" r="3" fill="white"/>
<circle cx="248.521" cy="260.001" r="3" fill="white"/>
<circle cx="248.521" cy="208.001" r="3" fill="white"/>
<circle cx="248.521" cy="234.001" r="3" fill="white"/>
<circle cx="202.021" cy="260.001" r="3" fill="white"/>
<circle cx="202.021" cy="208.001" r="3" fill="white"/>
<circle cx="202.021" cy="234.001" r="3" fill="white"/>
</g>
<path d="M181.234 167.362C181.146 184.273 182.6 199.2 182.6 199.2C182.1 203.1 247 200.9 246.8 197.3C246.246 188.011 246.298 186.215 246.513 178.76C246.595 175.931 246.7 172.288 246.804 167.112L252.5 175.9L279.6 157.7C273.5 146.4 256.1 120.5 244 117.5C242.239 117.064 240.488 116.83 238.787 116.752C231.765 115.784 220.307 116.58 201.927 118.957C197.704 117.163 190.977 115.799 184.1 117.5C172 120.5 154.6 146.4 148.5 157.7L175.7 175.9L181.234 167.362Z" fill="#E5CDF4"/>
<path d="M246.801 163.301L244.801 150.201" stroke="#424D51" stroke-linecap="round" stroke-linejoin="round"/>
<path d="M183.5 151.1L181.5 164.2" stroke="#424D51" stroke-linecap="round" stroke-linejoin="round"/>
<path fill-rule="evenodd" clip-rule="evenodd" d="M200.9 118.5C199.2 121.3 222.5 129.3 225.4 121.8C225.5 116.3 225.7 113.1 226.2 103.2C226.4 98.0001 220.8 98.3001 217.8 98.0001C212.2 97.4001 209.9 103.2 209.9 103.2C209.9 103.2 202.6 115.6 200.9 118.5Z" fill="#FDDCC4"/>
<path fill-rule="evenodd" clip-rule="evenodd" d="M210.6 98.6999C210.2 100.5 210 108.4 215.6 112.6C220.1 115.9 225.6 115.4 225.6 115.4C225.6 115.4 226.5 105.5 226.4 104.5C226.3 103.5 210.9 97.3999 210.6 98.6999Z" fill="#424D51"/>
<path fill-rule="evenodd" clip-rule="evenodd" d="M208.9 92.4999C208.9 92.4999 208.6 108.5 218.1 110C227.6 111.5 229.8 103.7 230 103.2C230.2 102.6 232 88.9999 230.3 84.6999C228.6 80.3999 223.2 74.2999 216 75.8999C208.8 77.4999 207.9 82.3999 207.7 86.5999C207.6 88.8999 208.9 92.4999 208.9 92.4999Z" fill="#FDDCC4"/>
<path fill-rule="evenodd" clip-rule="evenodd" d="M211 89.4998C210.6 88.2998 205.7 82.8999 201.5 86.5999C198.7 89.0999 199.7 91.7998 201.2 93.3998C203 95.3998 205.5 96.0998 208.3 95.0998C211 94.1998 211.1 92.3998 211.3 91.7998C211.6 90.8998 211.2 90.2998 211 89.4998Z" fill="#FDDCC4"/>
<path fill-rule="evenodd" clip-rule="evenodd" d="M227.699 89.6001C228.099 88.4001 232.999 82.9001 237.199 86.7001C239.999 89.2001 238.999 91.9001 237.499 93.5001C235.699 95.5001 233.199 96.2001 230.399 95.2001C227.699 94.3001 227.599 92.5001 227.399 91.9001C227.099 91.0001 227.399 90.4001 227.699 89.6001Z" fill="#FDDCC4"/>
<path fill-rule="evenodd" clip-rule="evenodd" d="M212.499 83.1998C212.499 83.1998 220.599 87.5998 227.999 83.1998C228.099 83.1998 228.699 86.9998 230.799 86.4998C230.799 86.4998 230.299 74.9998 218.599 75.3998C206.699 75.7998 207.099 86.2998 207.899 86.3998C210.099 86.6998 212.499 83.1998 212.499 83.1998Z" fill="#89716E"/>
<path d="M215.699 97C216.699 100.9 220.599 99.7 220.599 99.7" stroke="#424D51" stroke-width="0.729" stroke-linecap="round" stroke-linejoin="round"/>
<path d="M219.899 93.2002C219.899 93.2002 221.499 94.0002 221.299 95.2002C220.999 96.4002 219.699 96.2002 218.899 96.0002" stroke="#424D51" stroke-width="0.729" stroke-linecap="round" stroke-linejoin="round"/>
<path d="M222.399 91.3999C222.399 91.3999 223.399 89.7999 225.099 89.5999C226.799 89.4999 227.599 90.3999 228.099 91.4999" stroke="#424D51" stroke-width="0.729" stroke-linecap="round" stroke-linejoin="round"/>
<path d="M224.6 89.9999C225.1 89.5999 225.8 89.7999 226.2 90.2999C226.6 90.7999 226.5 91.4999 225.9 91.8999C225.4 92.2999 224.7 92.1999 224.3 91.5999C224 91.0999 224.1 90.3999 224.6 89.9999Z" stroke="#424D51" stroke-width="0.729" stroke-linecap="round" stroke-linejoin="round"/>
<path d="M211.3 91.3999C211.3 91.3999 212.3 89.7999 214 89.5999C215.7 89.4999 216.5 90.3999 217 91.4999" stroke="#424D51" stroke-width="0.729" stroke-linecap="round" stroke-linejoin="round"/>
<path d="M213.5 89.9999C214 89.5999 214.7 89.7999 215.1 90.2999C215.5 90.7999 215.4 91.4999 214.8 91.8999C214.3 92.2999 213.6 92.1999 213.2 91.5999C212.9 91.0999 213 90.3999 213.5 89.9999Z" stroke="#424D51" stroke-width="0.729" stroke-linecap="round" stroke-linejoin="round"/>
<path d="M231.599 90.3C232.099 90.2 233.199 90.2 233.799 90.6M233.899 88.5C233.899 88.5 232.599 88.9 231.699 90.4L233.899 88.5ZM230.899 91.8C231.099 91.2 231.299 90.7 231.599 90.3L230.899 91.8Z" stroke="#424D51" stroke-width="0.729" stroke-linecap="round" stroke-linejoin="round"/>
<path d="M207.4 90.1998C206.9 90.0998 205.8 90.0998 205.2 90.4998M205.1 88.2998C205.1 88.2998 206.4 88.6998 207.3 90.1998L205.1 88.2998ZM208.1 91.6998C207.9 91.0998 207.7 90.5998 207.4 90.1998L208.1 91.6998Z" stroke="#424D51" stroke-width="0.729" stroke-linecap="round" stroke-linejoin="round"/>
<path fill-rule="evenodd" clip-rule="evenodd" d="M207.899 64.6C206.399 66.8 206.199 70.6 209.399 72.8C212.699 75.1 217.099 75.2 219.599 70C221.099 66.9 219.199 63.1 215.499 61.9C212.999 61.1 210.099 61.4 207.899 64.6Z" fill="#89716E"/>
<path d="M68.7008 211C67.2008 202.5 59.0008 186.5 49.5008 198.2C34.2508 214 -0.299179 463.2 214.901 459.4C429.501 459.4 388.441 213.44 380.601 200.7C372.501 183.75 360.701 204.5 359.001 210.7" stroke="#424D51" stroke-linecap="round" stroke-linejoin="round"/>
<path d="M251.829 55.0176C251.216 46.7939 238.187 36.4305 220.191 38.4025" stroke="#424D51" stroke-linecap="round" stroke-linejoin="round"/>
<path d="M261.025 50.234C258.956 44.576 251.106 37.1341 240.512 35.3082" stroke="#424D51" stroke-linecap="round" stroke-linejoin="round"/>
</svg>
