<svg width="732" height="522" viewBox="0 0 732 522" fill="none" xmlns="http://www.w3.org/2000/svg">
<path d="M668.366 336.544L72.7997 346.906C69.5251 346.906 66.9286 344.144 67.1301 340.876L70.3717 172.019C70.5564 169.023 68.1766 166.492 65.1752 166.492C60.0778 166.492 58.0171 159.925 62.2008 157.013L163.971 86.1725C166.004 84.7575 168.719 84.8228 170.682 86.3339L272.155 164.468C275.958 167.397 273.887 173.481 269.087 173.481C266.31 173.481 264.059 175.732 264.059 178.509V278.45C264.059 281.588 266.602 284.131 269.739 284.131H302.678C304.061 284.131 305.397 283.626 306.435 282.711L409.238 192.067C411.449 190.118 414.782 190.183 416.915 192.217L511.667 282.561C512.723 283.569 514.127 284.131 515.587 284.131H556.551C559.689 284.131 562.232 281.588 562.232 278.45V193.195C562.232 190.67 560.184 188.622 557.659 188.622C553.23 188.622 551.387 182.956 554.969 180.351L616.862 135.338C618.979 133.798 621.874 133.904 623.873 135.595L684.339 186.759C688.378 190.177 685.961 196.775 680.67 196.775H679.727C676.59 196.775 674.047 199.319 674.047 202.456V330.864C674.047 334.001 671.503 336.544 668.366 336.544Z" fill="#F8F8F8"/>
<ellipse cx="251.269" cy="416.604" rx="23.0175" ry="5.40778" fill="#F8F8F8"/>
<ellipse cx="102.84" cy="374.741" rx="11.8561" ry="2.78549" fill="#F8F8F8"/>
<ellipse cx="382.654" cy="418.767" rx="23.0175" ry="5.40778" fill="#F8F8F8"/>
<ellipse cx="323.772" cy="413.356" rx="12.638" ry="2.96919" fill="#F8F8F8"/>
<ellipse cx="73.4759" cy="409.055" rx="12.638" ry="2.96919" fill="#F8F8F8"/>
<ellipse cx="448.991" cy="400.707" rx="6.31899" ry="1.48459" fill="#F8F8F8"/>
<ellipse cx="191.288" cy="439.327" rx="6.31899" ry="1.48459" fill="#F8F8F8"/>
<ellipse cx="157.17" cy="413.509" rx="4.82352" ry="1.13325" fill="#F8F8F8"/>
<path d="M138.881 343.061C138.881 340.631 140.85 338.662 143.28 338.662H450.912C453.341 338.662 455.311 340.631 455.311 343.061C455.311 345.49 453.341 347.459 450.912 347.459H423.809V450.332C423.809 452.761 421.839 454.73 419.41 454.73C416.981 454.73 415.011 452.761 415.011 450.332V347.459H161.295V450.332C161.295 452.761 159.326 454.73 156.896 454.73C154.467 454.73 152.498 452.761 152.498 450.332L152.498 347.459H143.28C140.85 347.459 138.881 345.49 138.881 343.061Z" fill="#E1E1E1"/>
<path d="M670.263 400.352C659.838 403.827 648.605 420.018 644.201 428.042H561.853C555.337 414.649 537.42 417.907 534.886 419.717C532.353 421.527 516.423 422.071 526.923 409.763C539.964 394.477 562.698 402.825 571.264 407.772C571.083 405.661 568.332 399.41 558.776 391.303C548.777 382.818 555.176 376.382 565.835 380.624C575.499 384.471 585.2 401.437 585.2 401.437C585.2 401.437 589.76 370.97 599.498 357.639C608.818 344.881 615.967 354.383 612.348 363.793C609.227 371.906 607.039 384.425 607.099 390.036C613.916 381.228 632.357 363.956 649.992 358.906C669.267 353.386 672.434 367.175 661.213 370.851C649.992 374.527 625.314 406.277 625.314 406.277C625.314 406.277 646.314 391.303 668.272 396.913C672.09 397.888 672.841 399.492 670.263 400.352Z" fill="#E1E1E1"/>
<path d="M105.655 352.727H38.453C26.0154 322.875 54.8854 326.127 62.1216 333.194C55.7534 324.847 55.7291 301.266 69.2692 295.921C93.2928 286.438 102.808 328.346 105.655 352.727Z" fill="#ECECEC"/>
<path d="M247.244 188.63C239.344 176.03 231.844 176.03 221.644 183.03C214.444 188.03 216.044 204.93 221.244 234.23C225.744 259.73 230.244 268.63 239.244 272.83C250.644 278.03 283.644 286.33 296.544 286.83C296.644 286.83 296.744 286.83 296.844 286.83C305.744 289.03 322.544 293.13 334.044 294.33C334.044 294.33 334.044 294.33 334.144 294.33C334.944 294.43 340.644 294.93 339.244 290.13C339.244 290.13 342.744 290.83 343.644 288.13C344.344 286.03 343.144 284.83 342.044 284.13C342.344 284.13 344.444 284.53 344.844 282.23C345.444 279.03 341.844 277.53 339.144 277.13C339.344 277.13 340.744 277.13 341.244 275.03C341.444 274.13 340.844 272.53 338.244 271.43C333.744 269.43 318.144 266.73 318.144 266.73C318.144 266.73 320.844 265.23 323.844 263.73C324.744 263.33 326.544 261.73 325.744 259.73C324.944 257.83 323.644 257.63 320.344 258.33H320.244C316.744 259.13 309.944 260.63 305.244 263.33C300.544 261.93 291.444 259.53 282.244 255.63C274.644 252.43 259.144 246.63 258.144 246.53C259.544 245.43 248.144 193.83 247.244 188.63Z" fill="#EFBEA9"/>
<path d="M245.545 243.631C245.545 243.631 256.945 246.231 259.145 247.131" stroke="#424D51" stroke-linecap="round" stroke-linejoin="round"/>
<path d="M212.544 312.632C213.544 299.632 214.036 293.81 214.036 293.81C214.036 293.81 219.244 357.132 222.444 384.532C224.044 397.632 226.344 413.732 226.844 426.932C226.944 429.332 227.944 429.132 228.044 431.532L262.744 435.232C262.244 425.032 261.544 414.832 260.944 404.632C259.744 384.532 258.344 364.332 256.644 344.332C254.644 320.332 251.144 296.732 246.044 273.232C244.744 267.332 243.444 261.432 241.744 255.632C240.944 252.732 240.144 248.132 237.844 245.932C236.644 244.732 180.244 246.532 179.444 249.632C176.244 262.032 176.644 276.032 175.944 288.732C173.744 325.132 172.844 361.532 172.044 397.932C171.744 409.432 171.544 420.932 171.244 432.432L206.044 434.932C205.944 434.932 211.344 327.132 212.544 312.632Z" fill="#EA7A79"/>
<path fill-rule="evenodd" clip-rule="evenodd" d="M224.545 403.931L262.045 402.031L263.245 438.131L226.845 441.031L224.545 403.931Z" fill="#FFDBD5"/>
<path fill-rule="evenodd" clip-rule="evenodd" d="M209.343 405.23L170.943 403.23L171.043 435.43L206.643 436.13L209.343 405.23Z" fill="#FFDBD5"/>
<path fill-rule="evenodd" clip-rule="evenodd" d="M229.045 433.13C229.045 433.13 225.545 433.33 225.045 436.23C224.745 438.13 225.845 439.23 226.945 440.03C226.945 440.03 225.345 441.03 223.945 443.53C222.545 446.03 220.345 450.83 221.545 453.93C222.145 455.33 257.645 454.03 257.645 454.03L294.945 454.73C294.945 454.73 293.445 447.33 284.945 445.03C277.345 443.03 275.545 442.93 271.745 442.43C269.445 442.13 267.445 441.13 266.445 439.23C264.945 436.33 263.345 435.03 260.245 433.83C255.345 431.73 234.245 432.33 229.045 433.13Z" fill="#FFB6A9"/>
<path fill-rule="evenodd" clip-rule="evenodd" d="M221.644 454.032C220.544 452.932 228.144 441.932 236.244 441.232C243.744 440.532 249.044 447.132 253.944 448.332C257.144 449.132 262.144 449.132 266.444 449.132C268.344 449.132 292.344 449.332 292.344 449.332C292.344 449.332 297.944 453.532 295.444 455.732C293.844 457.032 222.644 455.032 221.644 454.032Z" fill="#D9A48A"/>
<path fill-rule="evenodd" clip-rule="evenodd" d="M204.445 433.93C204.445 433.93 207.945 434.23 208.345 437.13C208.545 439.03 207.445 440.03 206.445 440.83C206.445 440.83 208.045 441.83 209.345 444.43C210.645 447.03 212.845 451.73 211.545 454.83C210.945 456.23 175.445 454.13 175.445 454.13L138.145 454.03C138.145 454.03 139.745 446.63 148.345 444.53C156.045 442.63 157.745 442.63 161.545 442.23C163.945 442.03 165.945 441.03 166.945 439.13C168.445 436.23 170.145 435.03 173.245 433.93C178.245 432.13 199.345 433.03 204.445 433.93Z" fill="#FFB6A9"/>
<path fill-rule="evenodd" clip-rule="evenodd" d="M211.545 455.03C212.645 453.93 205.345 442.83 197.245 441.93C189.745 441.13 184.345 447.53 179.445 448.63C176.245 449.33 171.245 449.23 166.945 449.23C165.045 449.23 141.045 448.93 141.045 448.93C141.045 448.93 135.345 453.03 137.845 455.33C139.245 456.63 210.545 456.03 211.545 455.03Z" fill="#D9A48A"/>
<path d="M198.945 189.531C189.345 184.431 182.845 174.931 163.345 184.031C152.845 188.931 140.945 193.231 124.245 202.031C124.245 202.031 94.3455 214.731 97.8455 238.231C100.345 254.331 159.845 295.031 166.545 297.831C166.545 297.831 166.645 297.831 166.645 297.931C169.445 299.931 172.545 301.631 176.045 302.831C177.745 303.431 183.245 303.631 183.945 299.331C183.945 299.331 187.745 299.831 189.545 298.331C190.945 297.231 190.745 296.131 190.745 296.131C190.745 296.131 193.045 296.031 194.445 294.431C196.045 292.631 195.345 291.931 195.345 291.931C195.345 291.931 198.545 291.731 198.645 289.131C198.745 286.631 196.045 285.531 187.745 282.531C183.845 281.131 177.045 275.631 177.045 275.631L176.645 270.031C176.645 270.031 172.445 270.031 168.045 270.931C167.945 270.931 167.845 270.931 167.645 270.831C160.545 265.931 134.445 236.031 134.445 233.831C134.445 233.831 157.545 224.031 170.145 217.631C188.945 210.931 204.945 196.431 198.945 189.531Z" fill="#EFBEA9"/>
<path d="M177.445 286.331C177.445 286.331 189.045 293.131 195.545 292.231" stroke="#424D51" stroke-linecap="round" stroke-linejoin="round"/>
<path d="M174.445 291.531C174.445 291.531 185.345 296.931 191.445 296.431" stroke="#424D51" stroke-linecap="round" stroke-linejoin="round"/>
<path d="M172.046 296.631C172.046 296.631 179.846 300.231 183.946 300.231" stroke="#424D51" stroke-linecap="round" stroke-linejoin="round"/>
<path d="M124.046 224.431C124.046 224.431 133.146 231.831 134.646 233.631" stroke="#424D51" stroke-linecap="round" stroke-linejoin="round"/>
<path d="M256.443 225.631C255.943 220.931 255.443 211.131 253.143 195.031C252.143 188.131 249.943 180.431 243.643 176.431C235.943 171.631 224.643 171.531 215.843 171.531C206.943 171.531 198.243 172.131 189.543 173.631C186.643 174.131 183.743 174.831 180.943 175.631C172.843 177.931 164.943 181.431 157.143 184.631C150.543 187.331 143.943 190.231 137.443 193.231L153.643 226.931C156.543 225.831 166.243 222.131 176.843 217.931C177.843 230.731 179.543 247.131 179.543 249.431C179.543 251.731 237.843 246.231 237.843 246.231C237.843 246.231 237.343 238.331 236.843 229.731L256.443 225.631Z" fill="#FFDBD5"/>
<path d="M177.443 216.131C177.443 216.131 179.043 210.931 180.143 205.131" stroke="#424D51" stroke-linecap="round" stroke-linejoin="round"/>
<path d="M236.346 216.031L234.846 200.131" stroke="#424D51" stroke-linecap="round" stroke-linejoin="round"/>
<path d="M217.244 171.23C212.844 171.13 205.044 171.53 194.744 172.33C177.944 174.63 191.244 184.63 204.944 186.83C210.044 187.63 220.644 188.13 224.144 181.43C226.444 177.93 227.144 172.03 217.244 171.23Z" fill="#EFBEA9"/>
<path fill-rule="evenodd" clip-rule="evenodd" d="M211.744 125.93C211.744 125.93 219.144 118.63 227.244 131.23C232.344 139.23 231.544 150.93 230.144 154.53C228.644 158.43 226.044 165.03 212.744 163.73C211.344 163.63 207.044 165.33 207.044 165.33C207.044 165.33 187.344 170.43 184.344 147.53C183.344 139.93 185.744 134.83 188.244 130.63C190.944 126.23 203.144 117.93 211.744 125.93Z" fill="#AF836B"/>
<path fill-rule="evenodd" clip-rule="evenodd" d="M194.444 175.231C193.144 178.231 219.444 178.531 219.144 175.431C218.544 169.931 218.344 166.731 217.544 156.931C217.144 151.831 211.644 152.731 208.644 152.831C202.944 152.931 201.444 159.031 201.444 159.031C201.444 159.031 195.744 172.331 194.444 175.231Z" fill="#EFBEA9"/>
<path fill-rule="evenodd" clip-rule="evenodd" d="M201.544 154.43C201.444 156.33 202.144 164.13 208.244 167.53C213.144 170.23 218.344 169.03 218.344 169.03C218.344 169.03 217.944 159.03 217.844 158.03C217.744 157.23 201.644 153.13 201.544 154.43Z" fill="#424D51"/>
<path fill-rule="evenodd" clip-rule="evenodd" d="M199.044 148.53C199.044 148.53 200.844 164.33 210.444 164.63C220.044 164.93 221.244 156.93 221.344 156.33C221.444 155.73 221.544 142.03 219.244 138.03C217.044 134.03 210.844 128.63 203.944 131.13C197.044 133.63 196.744 138.63 197.044 142.83C197.344 145.13 199.044 148.53 199.044 148.53Z" fill="#EFBEA9"/>
<path fill-rule="evenodd" clip-rule="evenodd" d="M200.744 145.33C200.244 144.23 194.644 139.43 190.944 143.63C188.544 146.43 189.844 149.03 191.444 150.33C193.444 152.03 196.044 152.43 198.644 151.13C201.244 149.83 201.144 148.13 201.244 147.53C201.444 146.63 201.044 146.13 200.744 145.33Z" fill="#EFBEA9"/>
<path fill-rule="evenodd" clip-rule="evenodd" d="M217.244 143.33C217.444 142.13 221.644 136.13 226.244 139.23C229.344 141.33 228.644 144.23 227.444 145.93C225.944 148.13 223.544 149.13 220.644 148.53C217.844 147.93 217.444 146.23 217.244 145.63C216.844 144.73 217.144 144.13 217.244 143.33Z" fill="#EFBEA9"/>
<path fill-rule="evenodd" clip-rule="evenodd" d="M201.444 138.83C201.444 138.83 210.044 142.13 216.844 136.83C216.844 136.83 217.944 140.43 219.944 139.73C219.944 139.73 219.444 127.43 207.744 129.23C195.144 131.23 196.644 142.53 197.244 142.43C199.444 142.23 201.444 138.83 201.444 138.83Z" fill="#AF836B"/>
<path d="M206.943 152.63C208.443 156.33 212.143 154.63 212.143 154.63" stroke="#424D51" stroke-width="0.729" stroke-linecap="round" stroke-linejoin="round"/>
<path d="M210.644 148.331C210.644 148.331 212.344 148.931 212.244 150.131C212.144 151.331 210.844 151.331 210.044 151.231" stroke="#424D51" stroke-width="0.729" stroke-linecap="round" stroke-linejoin="round"/>
<path d="M212.943 146.23C212.943 146.23 213.743 144.43 215.443 144.13C217.043 143.73 218.043 144.63 218.643 145.63" stroke="#424D51" stroke-width="0.729" stroke-linecap="round" stroke-linejoin="round"/>
<path d="M214.944 144.431C215.444 144.031 216.144 144.031 216.544 144.531C216.944 145.031 216.944 145.731 216.444 146.131C215.944 146.531 215.244 146.531 214.844 146.031C214.444 145.631 214.444 144.931 214.944 144.431Z" stroke="#424D51" stroke-width="0.729" stroke-linecap="round" stroke-linejoin="round"/>
<path d="M201.943 147.63C201.943 147.63 202.743 145.83 204.443 145.53C206.043 145.13 207.043 146.03 207.643 147.03" stroke="#424D51" stroke-width="0.729" stroke-linecap="round" stroke-linejoin="round"/>
<path d="M203.944 145.931C204.444 145.531 205.144 145.531 205.544 146.031C205.944 146.531 205.944 147.231 205.444 147.631C204.944 148.031 204.244 148.031 203.844 147.531C203.444 147.031 203.544 146.331 203.944 145.931Z" stroke="#424D51" stroke-width="0.729" stroke-linecap="round" stroke-linejoin="round"/>
<path d="M221.644 143.431C222.144 143.331 223.144 143.131 223.944 143.431M223.644 141.331C223.644 141.331 222.444 141.931 221.644 143.431L223.644 141.331ZM221.144 145.031C221.244 144.431 221.444 143.931 221.644 143.431L221.144 145.031Z" stroke="#424D51" stroke-width="0.729" stroke-linecap="round" stroke-linejoin="round"/>
<path d="M197.644 146.431C197.144 146.431 196.044 146.531 195.444 147.031M195.244 144.831C195.244 144.831 196.544 145.131 197.744 146.431L195.244 144.831ZM198.544 147.831C198.244 147.231 197.944 146.831 197.644 146.431L198.544 147.831Z" stroke="#424D51" stroke-width="0.729" stroke-linecap="round" stroke-linejoin="round"/>
<path fill-rule="evenodd" clip-rule="evenodd" d="M494.959 431.309L460.259 434.809C460.259 434.809 446.159 352.109 446.159 342.409C446.059 327.609 459.059 301.009 462.859 293.909C477.559 265.809 483.159 254.809 499.159 261.909C508.759 266.209 509.759 276.609 504.759 290.609C501.859 298.609 483.359 338.309 483.759 342.009C485.059 353.109 494.959 431.309 494.959 431.309Z" fill="#EFD9CE"/>
<path fill-rule="evenodd" clip-rule="evenodd" d="M492.36 398.609L454.26 402.009L460.56 437.709L496.96 435.509L492.36 398.609Z" fill="#CBE4FC"/>
<path fill-rule="evenodd" clip-rule="evenodd" d="M493.86 432.81C493.86 432.81 497.36 433.01 497.76 435.91C498.06 437.81 496.96 438.81 495.86 439.61C495.86 439.61 497.46 440.61 498.86 443.11C500.26 445.61 502.46 450.41 501.16 453.51C500.56 454.91 465.06 453.41 465.06 453.41L427.76 453.91C427.76 453.91 429.26 446.51 437.86 444.31C445.56 442.31 447.26 442.21 451.06 441.81C453.46 441.51 455.36 440.51 456.36 438.61C457.86 435.71 459.46 434.51 462.56 433.31C467.56 431.41 488.76 432.01 493.86 432.81Z" fill="#93BEFA"/>
<path fill-rule="evenodd" clip-rule="evenodd" d="M501.159 453.81C502.259 452.71 494.759 441.71 486.659 440.91C479.159 440.21 473.859 446.71 468.959 447.91C465.759 448.71 460.759 448.71 456.459 448.71C454.559 448.71 430.559 448.81 430.559 448.81C430.559 448.81 424.859 453.01 427.459 455.21C428.959 456.51 500.259 454.91 501.159 453.81Z" fill="#EFD9CE"/>
<path fill-rule="evenodd" clip-rule="evenodd" d="M464.959 444.71C467.059 445.01 468.959 443.71 469.259 441.71C469.559 439.71 468.159 437.81 466.059 437.51C463.959 437.21 462.059 438.51 461.759 440.51C461.459 442.51 462.959 444.41 464.959 444.71Z" fill="#CBE4FC"/>
<path fill-rule="evenodd" clip-rule="evenodd" d="M516.96 434.81L551.76 432.51C551.76 432.51 550.36 353.31 550.16 345.21C549.96 335.61 549.56 333.31 549.36 324.11C548.86 297.91 548.36 281.01 519.86 285.51C509.46 287.11 509.76 301.01 510.46 311.01C511.06 319.51 512.86 337.41 513.26 344.81C513.86 356.01 516.96 434.81 516.96 434.81Z" fill="#EFD9CE"/>
<path fill-rule="evenodd" clip-rule="evenodd" d="M515.26 400.911L552.26 399.211L551.96 435.511L516.36 436.011L515.26 400.911Z" fill="#CBE4FC"/>
<path fill-rule="evenodd" clip-rule="evenodd" d="M518.46 433.81C518.46 433.81 514.96 434.01 514.56 436.91C514.36 438.81 515.46 439.81 516.46 440.61C516.46 440.61 514.86 441.61 513.56 444.21C512.26 446.71 510.06 451.51 511.36 454.61C511.96 456.01 547.46 454.11 547.46 454.11L584.76 454.21C584.76 454.21 583.16 446.81 574.56 444.71C566.86 442.81 565.16 442.71 561.36 442.31C558.96 442.11 556.96 441.11 555.96 439.11C554.46 436.21 552.86 435.01 549.66 433.81C544.76 432.11 523.56 433.01 518.46 433.81Z" fill="#93BEFA"/>
<path fill-rule="evenodd" clip-rule="evenodd" d="M511.359 454.91C510.259 453.81 517.659 442.71 525.759 441.81C533.259 441.01 538.659 447.51 543.559 448.61C546.759 449.31 551.759 449.31 556.059 449.21C557.959 449.21 581.959 449.11 581.959 449.11C581.959 449.11 587.659 453.21 585.159 455.51C583.559 456.81 512.359 455.91 511.359 454.91Z" fill="#EFD9CE"/>
<path fill-rule="evenodd" clip-rule="evenodd" d="M547.46 445.411C545.36 445.711 543.46 444.411 543.16 442.411C542.86 440.411 544.26 438.511 546.26 438.211C548.36 437.911 550.26 439.211 550.56 441.211C550.86 443.211 549.46 445.111 547.46 445.411Z" fill="#CBE4FC"/>
<path fill-rule="evenodd" clip-rule="evenodd" d="M509.661 316.11L549.961 313.71C549.961 313.71 546.761 258.81 544.461 249.61C543.661 246.51 487.261 244.41 486.061 245.61C480.961 250.61 457.561 301.31 457.561 301.31L494.561 315.61L509.061 284.41L509.661 316.11Z" fill="#FFB6A9"/>
<mask id="mask0_12_3705" style="mask-type:alpha" maskUnits="userSpaceOnUse" x="457" y="245" width="93" height="72">
<path fill-rule="evenodd" clip-rule="evenodd" d="M509.661 316.11L549.961 313.71C549.961 313.71 546.761 258.81 544.461 249.61C543.661 246.51 487.261 244.41 486.061 245.61C480.961 250.61 457.561 301.31 457.561 301.31L494.561 315.61L509.061 284.41L509.661 316.11Z" fill="#FFB6A9"/>
</mask>
<g mask="url(#mask0_12_3705)">
<path fill-rule="evenodd" clip-rule="evenodd" d="M672.896 143.672C667.497 146.285 660.611 145.806 652.229 141.618C650.385 140.696 648.968 138.959 647.801 136.939C646.624 134.902 645.614 132.42 644.658 129.818C644.192 128.551 643.738 127.257 643.284 125.959C641.838 121.832 640.38 117.667 638.473 114.235C635.98 109.749 632.986 106.995 628.711 107.111C624.231 107.232 617.861 110.473 608.648 119.566C599.51 128.585 594.727 136.605 592.825 143.659C590.931 150.682 591.867 156.846 594.358 162.243C594.902 163.421 595.52 164.564 596.199 165.671C601.543 161.177 609.359 157.441 620.611 154.426C624.063 153.501 626.976 153.448 629.37 154.167C631.79 154.894 633.576 156.381 634.784 158.33C637.148 162.149 637.252 167.64 636.099 172.767C634.939 177.929 632.428 183.077 629.126 186.325C627.468 187.956 625.545 189.17 623.43 189.589C621.278 190.016 619.054 189.593 616.904 188.167C610.857 184.156 601.825 178.048 595.734 169.681C595.637 169.781 595.541 169.882 595.446 169.983C590.666 175.072 588.854 181.023 588.389 187.96C588.094 192.361 588.873 195.88 590.218 198.645C591.694 197.441 593.116 196.49 594.478 195.762C599.217 193.229 603.315 193.37 606.234 195.123C609.098 196.843 610.61 200.006 610.359 203.016C610.101 206.121 607.983 208.931 603.955 209.85C602.516 210.179 600.592 209.978 598.614 209.328C596.603 208.668 594.412 207.505 592.413 205.762C591.411 204.888 590.462 203.871 589.609 202.705C586.862 205.371 583.866 209.035 580.683 213.96C574.748 223.146 568.029 227.874 561.378 229.413C554.734 230.951 548.363 229.258 543.219 226.002C539.489 223.641 536.358 220.432 534.187 216.953C533.346 216.633 532.501 216.305 531.654 215.976C527.988 214.553 524.291 213.118 520.751 212.299C515.593 211.107 511.434 211.396 508.662 214.531C505.769 217.803 503.988 224.557 504.887 237.476C505.779 250.283 508.749 259.137 512.863 265.174C516.959 271.185 522.245 274.49 527.963 276.115C529.181 276.461 530.418 276.731 531.668 276.935C531.824 270 534.006 261.778 539.131 251.103C540.677 247.881 542.535 245.636 544.639 244.288C546.767 242.925 549.059 242.538 551.324 242.892C555.762 243.584 559.997 247.082 563.136 251.297C566.297 255.539 568.568 260.797 568.882 265.419C569.039 267.739 568.708 269.989 567.649 271.866C566.571 273.777 564.801 275.19 562.318 275.892C555.304 277.877 544.719 280.771 534.356 279.903L534.36 279.952C534.362 279.977 534.363 280.003 534.365 280.028C534.874 287 537.686 292.516 541.428 298.537C543.855 302.442 547.979 304.141 552.39 304.437C552.243 302.377 552.279 300.613 552.47 299.11C552.761 296.819 553.422 295.045 554.43 293.764C555.458 292.458 556.783 291.746 558.212 291.5C560.962 291.024 563.963 292.279 566.17 293.771C567.303 294.536 568.309 295.417 569.059 296.291C569.759 297.107 570.413 298.119 570.486 299.136C570.564 300.239 569.981 301.203 569.304 301.936C568.601 302.695 567.625 303.399 566.502 304.021C564.247 305.269 561.183 306.308 557.891 306.8C557.05 306.925 556.184 307.016 555.304 307.064C555.78 310.548 556.727 314.865 558.299 320.176C561.403 330.662 560.615 338.841 557.45 344.89C554.29 350.933 548.856 354.664 543.035 356.447C537.23 358.225 530.946 358.098 525.933 356.333C520.938 354.574 516.947 351.067 516.378 345.949C515.352 336.717 518.434 328.237 522.109 321.556C524.928 316.43 528.184 312.229 530.236 309.581L530.237 309.579L530.238 309.579C530.846 308.794 531.348 308.146 531.702 307.65C532.407 306.664 533.219 304.932 533.616 302.967C534.013 301.002 533.964 298.96 533.145 297.255C532.352 295.604 530.75 294.081 527.639 293.262C524.48 292.429 519.799 292.337 513.008 293.63C507.711 294.639 503.373 296.233 499.907 298.12C500.308 299.089 500.661 300.031 500.968 300.944C502.692 306.074 503.006 310.458 501.899 313.696C501.338 315.337 500.408 316.692 499.114 317.658C497.821 318.622 496.239 319.143 494.464 319.236C490.961 319.42 488.273 318.065 486.967 315.547C485.704 313.11 485.924 309.933 487.383 306.795C488.942 303.441 491.968 299.967 496.566 297.044C493.485 290.461 488.166 282.57 480.114 273.849C479.289 275.18 478.367 276.443 477.343 277.63C479.233 279.427 480.688 281.641 481.74 284.187C484.16 290.045 484.422 297.582 483.19 305.72C481.954 313.882 479.195 322.78 475.432 331.449C467.927 348.742 456.311 365.389 444.48 373.539C438.559 377.617 432.391 379.696 426.579 378.379C420.729 377.054 415.645 372.385 411.706 363.883C410.84 362.012 410.816 359.77 411.164 357.464C411.514 355.138 412.272 352.568 413.148 349.937C413.574 348.657 414.027 347.363 414.481 346.065L414.481 346.064C415.926 341.936 417.383 337.771 418.033 333.899C418.883 328.838 418.26 324.818 414.846 322.242C411.269 319.543 404.269 318.103 391.395 319.464C378.628 320.814 369.886 324.099 364.001 328.426C358.14 332.735 355.027 338.136 353.608 343.908C353.298 345.169 353.068 346.448 352.909 347.736C359.888 347.557 368.327 349.512 379.004 354.173C382.278 355.603 384.589 357.379 386.012 359.434C387.45 361.512 387.918 363.788 387.646 366.065C387.113 370.524 383.769 374.882 379.67 378.17C375.543 381.481 370.37 383.939 365.763 384.418C363.45 384.659 361.189 384.408 359.275 383.417C357.326 382.408 355.852 380.69 355.061 378.234C352.836 371.328 349.585 360.92 350.044 350.581C349.905 350.599 349.768 350.618 349.631 350.637C342.72 351.633 337.592 355.155 332.902 360.287C329.926 363.544 328.34 366.779 327.666 369.78C329.571 369.759 331.276 369.903 332.795 370.183C338.079 371.16 341.193 373.825 342.382 377.016C343.547 380.147 342.757 383.562 340.683 385.759C338.544 388.025 335.137 388.9 331.415 387.106C330.085 386.465 328.707 385.108 327.566 383.367C326.406 381.597 325.418 379.321 324.943 376.711C324.705 375.403 324.597 374.017 324.658 372.574C320.848 372.944 316.221 373.939 310.661 375.804C300.293 379.281 292.092 378.786 285.933 375.841C279.78 372.899 275.857 367.602 273.866 361.849C271.882 356.111 271.784 349.826 273.368 344.754C274.947 339.699 278.309 335.585 283.403 334.833C292.592 333.477 301.178 336.253 307.985 339.686C313.209 342.32 317.524 345.423 320.244 347.379C321.051 347.96 321.718 348.439 322.226 348.775C323.237 349.444 324.997 350.194 326.975 350.52C328.953 350.846 330.991 350.724 332.666 349.845C334.288 348.993 335.752 347.337 336.46 344.199C337.179 341.013 337.104 336.331 335.568 329.591C334.37 324.333 332.621 320.055 330.611 316.659C329.657 317.095 328.729 317.481 327.827 317.821C322.763 319.727 318.393 320.198 315.116 319.208C313.457 318.706 312.069 317.825 311.058 316.566C310.047 315.309 309.471 313.747 309.314 311.976C309.004 308.482 310.262 305.747 312.732 304.352C315.123 303.002 318.305 303.108 321.494 304.454C324.901 305.891 328.481 308.791 331.567 313.281C338.035 309.967 345.731 304.368 354.158 296.009C346.771 291.791 341.286 284.632 338.814 273.677C335.664 259.714 337.428 250.772 342.015 246.081C346.565 241.429 353.383 241.437 359.374 244.178C359.764 242.891 360.397 241.667 361.31 240.547C367.179 233.347 375.389 229.605 382.73 227.546C388.363 225.966 393.642 225.346 396.969 224.955L396.97 224.955C397.957 224.839 398.772 224.744 399.374 224.649C400.571 224.461 402.376 223.827 404.057 222.733C405.737 221.64 407.159 220.174 407.802 218.395C408.425 216.673 408.389 214.463 406.794 211.669C405.175 208.832 401.961 205.426 396.281 201.487C391.849 198.414 387.673 196.436 383.899 195.285C383.488 196.25 383.063 197.162 382.627 198.02C380.174 202.844 377.266 206.14 374.179 207.619C372.616 208.368 370.998 208.654 369.402 208.407C367.807 208.16 366.328 207.396 365.018 206.195C362.432 203.825 361.515 200.957 362.398 198.261C363.252 195.652 365.672 193.584 368.934 192.426C372.419 191.189 377.018 190.914 382.325 192.147C384.864 185.337 386.768 176.012 387.349 164.157C379.051 166.026 370.172 164.442 360.957 158.023C349.213 149.84 344.483 142.049 344.704 135.493C344.929 128.847 350.186 124.196 356.648 122.248C363.142 120.292 371.216 120.91 377.82 125.056C384.482 129.239 389.506 136.922 389.997 148.789C390.169 152.954 390.2 156.903 390.105 160.635C397.035 158.198 403.527 153.177 409.433 146.632C422.606 132.034 432.5 110.264 437.564 94.6243L437.588 94.5495L437.621 94.4781C443.255 82.2865 449.217 74.6321 455.311 70.7039C461.495 66.7174 467.727 66.6308 473.553 69.363C479.292 72.0545 484.569 77.4411 489.149 84.2796C493.743 91.1388 497.709 99.568 500.78 108.506C505.313 121.702 507.947 136.156 507.697 148.452C509.724 149.278 511.757 150.18 513.78 151.149C529.802 158.819 545.482 170.788 553.949 183.208C554.875 184.567 555.719 185.938 556.47 187.314C562.04 186.186 567.178 185.929 570.445 185.765L570.445 185.765L570.446 185.765C571.438 185.716 572.258 185.674 572.864 185.62C574.072 185.512 575.915 185.001 577.665 184.022C579.414 183.043 580.931 181.676 581.692 179.944C582.429 178.267 582.54 176.06 581.136 173.165C579.71 170.226 576.732 166.614 571.327 162.303C567.111 158.941 563.076 156.688 559.387 155.287C558.913 156.222 558.429 157.104 557.936 157.931C555.166 162.58 552.043 165.674 548.865 166.944C547.255 167.587 545.621 167.764 544.045 167.41C542.471 167.058 541.046 166.196 539.819 164.91C537.398 162.372 536.675 159.45 537.736 156.819C538.762 154.273 541.316 152.371 544.648 151.434C548.207 150.432 552.814 150.465 558.027 152.051C561.016 145.426 563.539 136.249 564.912 124.459C556.508 125.769 547.754 123.595 538.989 116.574C527.818 107.625 523.62 99.5347 524.279 93.0075C524.948 86.3915 530.504 82.1024 537.082 80.5916C543.692 79.0736 551.707 80.23 558.019 84.8088C564.386 89.4277 568.885 97.4295 568.581 109.303C568.475 113.47 568.241 117.412 567.897 121.13C574.975 119.161 581.787 114.586 588.118 108.45C602.238 94.7662 613.565 73.7064 619.664 58.4405L619.693 58.3675L619.731 58.2985C626.168 46.5108 632.628 39.2723 638.971 35.7604C645.408 32.1965 651.631 32.5267 657.262 35.6424C662.808 38.7117 667.713 44.4391 671.826 51.5687C675.951 58.7197 679.344 67.3953 681.81 76.5182C686.73 94.7168 688.034 114.974 683.869 128.724C681.785 135.604 678.26 141.076 672.896 143.672ZM358.908 246.863C358.815 246.817 358.723 246.772 358.63 246.727C353.109 244.076 347.453 244.273 343.891 247.916C340.266 251.622 338.281 259.389 341.374 273.099C343.77 283.721 349.084 290.305 356.075 294.072C358.808 291.261 361.612 288.163 364.471 284.762C369.894 278.312 371.889 272.048 371.734 266.494C366.75 263.587 362.739 259.222 360.595 254.64C359.407 252.1 358.765 249.418 358.908 246.863ZM371.377 263.161C367.614 260.566 364.635 257.082 362.972 253.528C362.149 251.771 361.665 250.042 361.542 248.413C365.823 251.336 369.449 255.908 370.972 261.416C371.13 261.987 371.265 262.569 371.377 263.161ZM374.266 264.891C374.133 263.458 373.874 262.064 373.501 260.717C371.652 254.027 367.056 248.615 361.757 245.435C362.038 244.253 362.563 243.164 363.344 242.205C368.735 235.592 376.362 232.057 383.439 230.073C388.839 228.558 393.765 227.978 397.111 227.584C398.171 227.459 399.073 227.353 399.782 227.241C401.372 226.991 403.522 226.212 405.488 224.932C407.454 223.653 409.367 221.785 410.27 219.288C411.194 216.734 410.988 213.723 409.073 210.368C407.182 207.055 403.619 203.383 397.776 199.331C393.237 196.183 388.881 194.089 384.867 192.839C387.543 185.567 389.475 175.756 390.009 163.434C397.884 160.931 405.055 155.401 411.381 148.39C424.882 133.429 434.909 111.313 440.036 95.5078C445.571 83.5499 451.257 76.4388 456.733 72.9094C462.129 69.4312 467.399 69.3753 472.439 71.7386C477.565 74.1428 482.516 79.0901 486.969 85.7398C491.409 92.3689 495.283 100.582 498.298 109.358C502.657 122.046 505.175 135.766 505.087 147.429C499.959 145.499 494.897 144.074 490.123 143.292C482.685 142.072 475.806 142.388 470.476 144.931C467.822 146.197 465.591 147.997 463.884 150.365C463.367 149.406 462.828 148.482 462.265 147.611C459.298 143.023 455.34 139.428 449.599 139.969C444.063 140.491 437.336 144.858 428.696 154.61C419.985 164.442 415.455 173.173 413.91 180.934C412.36 188.725 413.839 195.435 416.952 201.143C417.706 202.524 418.554 203.846 419.478 205.11C419.257 205.363 419.041 205.616 418.831 205.872C413.896 211.886 412.397 218.608 412.397 225.945C412.397 231.153 413.691 235.257 415.652 238.406C412.8 241.488 409.818 245.651 406.776 251.129C401.708 260.26 395.801 264.867 390.08 266.601C384.555 268.276 379.014 267.329 374.266 264.891ZM374.355 267.845C374.172 273.697 371.847 280.067 366.479 286.451C363.797 289.641 361.155 292.577 358.567 295.269C365.328 298.144 373.506 298.817 382.282 297.97C398.068 296.447 415.426 290.039 429.048 283.353C425.249 278.584 425.741 272.029 428.701 266.394C431.854 260.39 437.952 255.061 445.538 253.254C453.189 251.431 462.192 253.229 471.003 261.193C474.096 263.988 476.935 266.733 479.532 269.416C482.648 262.763 483.614 254.613 483.081 245.813C481.894 226.186 473.292 203.874 465.68 189.303L465.644 189.234L465.616 189.16C460.867 176.605 459.34 166.908 460.365 159.66C460.719 157.156 461.379 154.946 462.309 153.018C461.603 151.612 460.86 150.27 460.061 149.036C457.275 144.726 454.103 142.18 449.846 142.581C445.384 143.002 439.245 146.661 430.66 156.35C422.146 165.959 417.91 174.282 416.484 181.446C415.064 188.581 416.41 194.668 419.256 199.886C419.878 201.026 420.571 202.125 421.323 203.183C426.354 198.343 433.902 194.093 444.928 190.332C448.31 189.178 451.213 188.93 453.65 189.487C456.113 190.051 457.994 191.415 459.33 193.279C461.944 196.931 462.415 202.404 461.608 207.596C460.795 212.824 458.634 218.129 455.557 221.59C454.012 223.328 452.174 224.668 450.092 225.228C447.973 225.797 445.725 225.524 443.485 224.245C437.184 220.648 427.763 215.157 421.127 207.216C421.037 207.323 420.948 207.43 420.86 207.537C416.43 212.934 415.021 218.993 415.021 225.945C415.021 230.357 416.033 233.815 417.56 236.485C418.952 235.184 420.307 234.14 421.618 233.323C426.177 230.478 430.274 230.345 433.304 231.899C436.276 233.424 437.997 236.478 437.948 239.499C437.898 242.614 435.973 245.559 432.015 246.745C430.601 247.169 428.668 247.098 426.652 246.582C424.601 246.058 422.337 245.044 420.226 243.438C419.168 242.633 418.152 241.682 417.224 240.576C414.661 243.419 411.917 247.275 409.071 252.403C403.763 261.964 397.375 267.131 390.842 269.112C385.055 270.866 379.312 270.072 374.355 267.845ZM430.994 285.318C417.073 292.234 399.038 298.989 382.534 300.582C373.134 301.489 364.111 300.735 356.608 297.27C347.902 306.005 339.857 311.944 332.976 315.507C335.096 319.138 336.899 323.622 338.126 329.008C339.706 335.94 339.859 341.055 339.02 344.776C338.17 348.545 336.291 350.906 333.886 352.168C331.534 353.402 328.862 353.49 326.548 353.109C324.234 352.727 322.121 351.852 320.778 350.964C320.181 350.568 319.443 350.038 318.576 349.415L318.576 349.415C315.84 347.448 311.813 344.554 306.804 342.029C300.242 338.72 292.227 336.184 283.786 337.429C280.065 337.978 277.284 341.017 275.873 345.536C274.467 350.037 274.532 355.747 276.346 360.991C278.155 366.218 281.665 370.892 287.065 373.474C292.457 376.053 299.926 376.637 309.827 373.316C315.768 371.323 320.777 370.262 324.961 369.911C325.638 366.265 327.451 362.362 330.965 358.517C335.914 353.101 341.556 349.15 349.256 348.04C349.583 347.993 349.914 347.951 350.248 347.914C350.419 346.358 350.684 344.809 351.059 343.282C352.612 336.968 356.046 331.017 362.446 326.312C368.822 321.625 378.056 318.235 391.119 316.854C404.076 315.484 411.988 316.798 416.427 320.148C421.03 323.621 421.526 328.945 420.621 334.333C419.93 338.45 418.364 342.92 416.904 347.091L416.903 347.094C416.462 348.351 416.032 349.581 415.637 350.766C414.771 353.37 414.074 355.763 413.758 357.855C413.44 359.966 413.539 361.597 414.087 362.78C417.835 370.87 422.397 374.741 427.159 375.82C431.957 376.907 437.365 375.254 442.991 371.378C454.254 363.62 465.617 347.473 473.025 330.404C476.72 321.892 479.401 313.216 480.596 305.327C481.794 297.414 481.477 290.422 479.315 285.189C478.404 282.985 477.162 281.08 475.542 279.538C471.124 283.813 465.124 286.9 457.246 288.383C444.342 290.812 435.809 289.259 430.994 285.318ZM473.461 277.897C469.454 281.671 464.009 284.44 456.761 285.804C445.056 288.007 437.748 286.719 433.615 283.989C435.639 282.942 437.561 281.899 439.361 280.876C451.514 275.783 460.508 274.369 466.931 275.458C469.486 275.891 471.649 276.722 473.461 277.897ZM475.306 275.974C473.118 274.462 470.483 273.398 467.369 272.871C460.221 271.659 450.656 273.288 438.273 278.487L438.2 278.517L438.132 278.556C436.06 279.735 433.827 280.94 431.462 282.145C428.173 278.452 428.237 272.92 431.024 267.614C433.856 262.221 439.361 257.423 446.146 255.806C452.864 254.206 460.999 255.688 469.244 263.139C472.539 266.118 475.535 269.032 478.247 271.864C477.394 273.318 476.418 274.692 475.306 275.974ZM544.622 223.785C542.312 222.323 540.263 220.508 538.575 218.517C540.493 219.135 542.349 219.614 544.058 219.811C546.305 220.069 548.493 219.862 550.249 218.635C556.922 213.972 560.097 208.263 560.4 202.03C560.595 198.011 559.591 193.867 557.694 189.748C562.746 188.783 567.27 188.555 570.41 188.397L570.413 188.397C571.478 188.343 572.384 188.298 573.098 188.234C574.701 188.091 576.899 187.457 578.946 186.312C580.993 185.167 583.026 183.431 584.095 181C585.187 178.513 585.183 175.495 583.497 172.02C581.832 168.588 578.522 164.685 572.963 160.252C568.644 156.808 564.439 154.427 560.517 152.911C563.673 145.835 566.257 136.174 567.614 123.916C575.639 121.945 583.163 116.907 589.945 110.335C604.416 96.3099 615.899 74.9147 622.071 59.4874C628.394 47.9264 634.543 41.2114 640.242 38.056C645.858 34.9465 651.121 35.2431 655.991 37.9382C660.945 40.6798 665.554 45.9471 669.553 52.8798C673.54 59.791 676.855 68.2452 679.277 77.203C684.133 95.166 685.322 114.875 681.358 127.963C679.377 134.502 676.182 139.167 671.753 141.31C667.358 143.437 661.378 143.256 653.402 139.271C652.236 138.688 651.141 137.475 650.073 135.626C649.015 133.794 648.067 131.489 647.12 128.913C646.689 127.741 646.259 126.51 645.819 125.252L645.818 125.25L645.818 125.25L645.817 125.248C644.357 121.078 642.793 116.608 640.766 112.96C638.113 108.184 634.404 104.332 628.64 104.488C623.081 104.639 616.077 108.547 606.804 117.699C597.455 126.926 592.352 135.335 590.291 142.975C588.223 150.645 589.251 157.439 591.975 163.342C592.635 164.77 593.393 166.146 594.23 167.47C593.992 167.707 593.76 167.946 593.534 168.186C588.207 173.857 586.262 180.464 585.771 187.784C585.423 192.981 586.44 197.162 588.186 200.435C585.134 203.319 581.88 207.273 578.479 212.536C572.812 221.307 566.61 225.509 560.786 226.857C554.955 228.206 549.296 226.743 544.622 223.785ZM557.779 201.902C557.957 198.232 556.988 194.322 555.06 190.311C548.304 191.918 541.148 194.933 535.741 200.728C533.175 203.478 532.897 207.588 534.612 212C534.979 212.943 535.433 213.887 535.967 214.818C536.521 215.026 537.065 215.225 537.598 215.415C540.129 216.313 542.409 216.98 544.357 217.204C546.314 217.429 547.743 217.184 548.746 216.484C554.864 212.209 557.522 207.198 557.779 201.902ZM533.823 198.937C539.527 192.824 546.937 189.633 553.802 187.917C553.192 186.844 552.517 185.766 551.78 184.686C543.653 172.764 528.399 161.056 512.647 153.515C510.961 152.708 509.272 151.95 507.588 151.246C507.396 154.521 506.982 157.615 506.325 160.457C504.706 167.461 501.555 173.157 496.376 176.106C491.164 179.073 484.262 179.056 475.619 175.438C473.717 174.641 472.187 173.003 470.887 171.065C469.577 169.112 468.403 166.703 467.275 164.171C466.725 162.938 466.186 161.677 465.646 160.412L465.646 160.412C465.049 159.014 464.45 157.612 463.832 156.239C463.449 157.395 463.157 158.655 462.963 160.027C462.029 166.634 463.385 175.824 468.043 188.159C475.729 202.89 484.484 225.539 485.701 245.655C486.271 255.081 485.193 264.072 481.462 271.445C489.879 280.458 495.527 288.712 498.84 295.715C502.545 293.727 507.091 292.086 512.517 291.053C519.501 289.722 524.619 289.752 528.307 290.724C532.043 291.708 534.335 293.671 535.511 296.12C536.66 298.514 536.652 301.187 536.188 303.486C535.724 305.785 534.773 307.866 533.837 309.176C533.421 309.758 532.866 310.476 532.212 311.319L532.211 311.321C530.147 313.985 527.111 317.906 524.408 322.821C520.866 329.261 518.044 337.18 518.986 345.659C519.402 349.397 522.339 352.286 526.805 353.858C531.253 355.424 536.961 355.563 542.266 353.938C547.556 352.319 552.351 348.978 555.125 343.674C557.896 338.377 558.747 330.934 555.783 320.921C554.146 315.39 553.145 310.824 552.659 307.075C547.518 306.825 542.308 304.923 539.199 299.922C535.398 293.806 532.305 287.843 531.748 280.219C531.733 280.012 531.72 279.805 531.709 279.596C530.205 279.37 528.714 279.056 527.245 278.639C520.991 276.861 515.167 273.216 510.694 266.651C506.239 260.112 503.182 250.762 502.27 237.658C501.365 224.665 503.042 216.926 506.696 212.793C510.472 208.523 515.948 208.496 521.342 209.743C524.914 210.569 528.742 212.031 532.361 213.433C532.294 213.273 532.229 213.112 532.167 212.951C530.248 208.015 530.31 202.702 533.823 198.937ZM565.202 121.75C565.585 117.847 565.844 113.677 565.958 109.236C566.243 98.1266 562.069 90.9881 556.478 86.9327C550.833 82.8373 543.607 81.7854 537.669 83.149C531.7 84.5199 527.403 88.2022 526.89 93.2714C526.369 98.4295 529.661 105.739 540.63 114.526C549.128 121.333 557.388 123.165 565.202 121.75ZM556.871 154.444C552.241 153.105 548.278 153.138 545.358 153.96C542.51 154.761 540.792 156.256 540.169 157.8C539.581 159.259 539.831 161.121 541.717 163.098C542.644 164.07 543.626 164.627 544.619 164.85C545.611 165.072 546.705 164.981 547.892 164.507C550.306 163.542 553.05 161.006 555.681 156.588C556.083 155.914 556.48 155.2 556.871 154.444ZM591.568 200.934C592.348 202.041 593.223 202.987 594.138 203.784C595.861 205.288 597.741 206.28 599.433 206.835C601.157 207.401 602.566 207.476 603.371 207.292C606.322 206.618 607.584 204.727 607.744 202.799C607.913 200.776 606.883 198.574 604.883 197.372C602.937 196.204 599.848 195.867 595.715 198.076C594.422 198.767 593.036 199.704 591.568 200.934ZM597.662 167.871C603.396 175.891 612.152 181.866 618.354 185.98C619.968 187.051 621.494 187.298 622.92 187.016C624.384 186.725 625.868 185.85 627.286 184.455C630.136 181.651 632.457 177.006 633.539 172.192C634.63 167.343 634.388 162.676 632.553 159.712C631.66 158.271 630.382 157.211 628.615 156.68C626.823 156.141 624.428 156.12 621.29 156.961C610.055 159.971 602.594 163.642 597.662 167.871ZM465.253 153.066C466.793 150.438 468.964 148.559 471.606 147.299C476.253 145.082 482.517 144.703 489.699 145.881C494.538 146.674 499.729 148.164 505.014 150.209C504.857 153.674 504.449 156.923 503.769 159.866C502.23 166.522 499.353 171.391 495.078 173.825C490.836 176.241 484.856 176.461 476.632 173.017C475.43 172.514 474.256 171.377 473.067 169.604C471.888 167.847 470.789 165.61 469.672 163.103C469.163 161.961 468.651 160.762 468.127 159.536L468.127 159.535C467.217 157.404 466.272 155.193 465.253 153.066ZM387.375 148.897C387.559 153.336 387.579 157.515 387.458 161.434C379.756 163.369 371.391 162.094 362.457 155.87C350.925 147.835 347.152 140.763 347.327 135.581C347.499 130.489 351.541 126.528 357.405 124.761C363.238 123.003 370.518 123.57 376.425 127.278C382.274 130.951 386.916 137.794 387.375 148.897ZM369.812 194.899C372.67 193.884 376.622 193.586 381.331 194.612C380.992 195.392 380.644 196.132 380.288 196.831C377.958 201.415 375.39 204.129 373.045 205.253C371.893 205.805 370.807 205.969 369.803 205.814C368.797 205.658 367.78 205.168 366.791 204.261C364.776 202.414 364.402 200.573 364.892 199.077C365.41 197.495 367.024 195.889 369.812 194.899ZM421.814 241.35C420.849 240.615 419.913 239.73 419.06 238.678C420.443 237.352 421.763 236.325 423.006 235.549C426.982 233.069 430.088 233.198 432.107 234.234C434.183 235.299 435.357 237.427 435.324 239.456C435.293 241.391 434.161 243.363 431.261 244.232C430.47 244.469 429.06 244.489 427.301 244.04C425.577 243.599 423.634 242.734 421.814 241.35ZM444.786 221.966C438.323 218.276 429.187 212.9 422.929 205.282C427.567 200.732 434.766 196.57 445.775 192.815C448.85 191.766 451.24 191.628 453.065 192.045C454.863 192.457 456.209 193.429 457.196 194.807C459.226 197.642 459.779 202.282 459.015 207.193C458.257 212.069 456.252 216.859 453.596 219.847C452.274 221.333 450.852 222.306 449.411 222.694C448.007 223.071 446.468 222.926 444.786 221.966ZM489.763 307.9C491.041 305.15 493.597 302.121 497.629 299.481C497.947 300.269 498.231 301.036 498.481 301.78C500.119 306.654 500.257 310.388 499.416 312.848C499.003 314.057 498.359 314.947 497.545 315.555C496.729 316.163 495.666 316.545 494.326 316.616C491.596 316.759 490.021 315.736 489.297 314.339C488.531 312.861 488.516 310.584 489.763 307.9ZM557.503 304.204C556.682 304.327 555.852 304.412 555.022 304.454C554.869 302.46 554.9 300.804 555.073 299.441C555.326 297.452 555.869 296.18 556.493 295.387C557.097 294.618 557.832 294.228 558.659 294.085C560.418 293.781 562.707 294.597 564.701 295.945C565.67 296.599 566.493 297.33 567.068 298C567.692 298.728 567.859 299.191 567.868 299.323C567.872 299.367 567.85 299.643 567.377 300.155C566.929 300.639 566.209 301.184 565.231 301.725C563.283 302.804 560.525 303.753 557.503 304.204ZM561.604 273.367C554.419 275.401 544.137 278.165 534.286 277.265C534.38 270.783 536.394 262.868 541.496 252.238C542.902 249.31 544.478 247.507 546.054 246.497C547.608 245.503 549.244 245.223 550.92 245.484C554.364 246.022 558.063 248.879 561.032 252.864C563.98 256.821 565.993 261.608 566.264 265.596C566.399 267.581 566.097 269.278 565.364 270.577C564.649 271.844 563.467 272.84 561.604 273.367ZM320.474 306.872C323.268 308.05 326.387 310.497 329.17 314.431C328.393 314.778 327.637 315.088 326.903 315.365C322.091 317.177 318.364 317.448 315.875 316.696C314.652 316.326 313.74 315.715 313.103 314.923C312.466 314.129 312.046 313.081 311.928 311.744C311.686 309.021 312.652 307.41 314.022 306.637C315.473 305.818 317.748 305.721 320.474 306.872ZM327.525 376.242C327.308 375.048 327.213 373.763 327.294 372.411C329.209 372.366 330.877 372.498 332.318 372.764C336.926 373.615 339.131 375.805 339.923 377.932C340.737 380.119 340.168 382.482 338.775 383.958C337.447 385.365 335.281 386.056 332.554 384.742C331.81 384.384 330.755 383.447 329.76 381.929C328.785 380.44 327.934 378.492 327.525 376.242ZM357.558 377.43C355.276 370.346 352.159 360.214 352.679 350.369C359.172 350.139 367.294 351.923 377.954 356.578C380.931 357.878 382.789 359.389 383.854 360.928C384.904 362.444 385.242 364.07 385.041 365.753C384.627 369.215 381.904 373.013 378.028 376.124C374.179 379.212 369.467 381.395 365.491 381.808C363.512 382.014 361.806 381.773 360.481 381.087C359.19 380.418 358.152 379.273 357.558 377.43Z" fill="white"/>
</g>
<path fill-rule="evenodd" clip-rule="evenodd" d="M405.559 115.811C402.859 107.911 396.459 89.7107 394.159 77.3107C394.059 76.9107 392.759 70.8107 397.959 71.8107C397.959 71.8107 396.959 68.4107 399.559 67.3107C401.559 66.4107 402.959 67.5107 403.659 68.5107C403.659 68.6107 402.859 66.2107 405.259 65.5107C408.359 64.6107 410.259 68.0107 410.859 70.8107C410.859 70.9107 410.559 69.3107 412.759 68.5107C413.559 68.2107 415.259 68.7107 416.559 71.2107C418.859 75.5107 422.959 90.8107 422.959 90.8107C422.959 90.8107 424.259 87.9107 425.459 84.8107C425.859 83.9107 427.259 82.0107 429.259 82.6107C431.259 83.2107 431.559 84.5107 431.059 87.8107C430.559 91.3107 429.659 98.3107 427.359 103.211C427.159 103.611 428.159 107.311 428.759 109.911C431.459 121.711 410.059 128.711 405.559 115.811Z" fill="#EFD9CE"/>
<path d="M423.06 91.4102C421.86 94.9102 419.16 94.9102 417.76 96.2102C414.36 99.4102 415.56 103.31 417.66 105.01" stroke="#424D51" stroke-linecap="round" stroke-linejoin="round"/>
<path d="M416.36 87.9102C416.36 87.9102 411.86 73.8102 410.76 70.4102" stroke="#424D51" stroke-linecap="round" stroke-linejoin="round"/>
<path d="M411.261 89.9109C411.261 89.9109 407.861 77.7109 405.961 72.3109C405.461 70.9109 404.661 69.3109 403.561 68.2109" stroke="#424D51" stroke-linecap="round" stroke-linejoin="round"/>
<path d="M405.959 92.2094C405.959 92.2094 402.159 78.9094 400.859 75.6094C400.559 74.9094 399.759 72.9094 398.359 72.1094" stroke="#424D51" stroke-linecap="round" stroke-linejoin="round"/>
<path fill-rule="evenodd" clip-rule="evenodd" d="M406.26 120.51C405.86 120.71 404.76 117.61 405.86 115.91C406.96 114.11 427.76 107.31 429.16 108.81C430.46 110.21 431.16 112.71 431.16 112.71C431.16 112.71 406.66 120.41 406.26 120.51Z" fill="#EFD9CE"/>
<path fill-rule="evenodd" clip-rule="evenodd" d="M511.56 183.309C511.96 168.309 456.16 168.309 453.46 162.809C444.96 145.309 442.56 134.009 439.56 125.909C436.76 118.409 434.96 109.709 429.16 111.009C424.46 112.109 402.16 117.109 402.96 123.509C404.56 136.309 417.46 178.309 423.66 189.209C428.56 197.809 462.86 206.909 483.26 208.209C509.06 209.909 511.26 192.009 511.56 183.309Z" fill="#DEC0F1"/>
<path d="M450.488 167.263L454.26 163.611L451.452 162.328" stroke="#424D51" stroke-linecap="round" stroke-linejoin="round"/>
<path fill-rule="evenodd" clip-rule="evenodd" d="M488.359 199.01C488.359 199.01 486.359 242.51 486.559 246.41C486.759 250.21 544.259 251.01 544.259 251.01C544.259 251.01 547.759 198.91 547.759 196.81C547.759 196.31 549.359 175.61 540.459 173.31C530.759 170.81 499.459 171.51 494.859 173.61C490.159 175.81 488.359 199.01 488.359 199.01Z" fill="#DEC0F1"/>
<path d="M487.96 213.111L487.76 204.711" stroke="#424D51" stroke-linecap="round" stroke-linejoin="round"/>
<path d="M587.458 216.609C587.458 218.909 561.358 248.709 554.258 253.609C554.058 253.709 553.958 253.709 553.858 253.709C549.358 252.809 545.258 252.809 545.258 252.809L544.858 258.409C544.858 258.409 538.058 263.909 534.158 265.309C525.958 268.309 523.158 269.409 523.258 271.909C523.358 274.509 526.558 274.709 526.558 274.709C526.558 274.709 525.858 275.409 527.458 277.209C528.858 278.809 531.158 278.909 531.158 278.909C531.158 278.909 530.958 280.009 532.358 281.109C534.158 282.609 537.958 282.109 537.958 282.109C538.658 286.409 544.258 286.209 545.858 285.609C549.258 284.409 552.458 282.709 555.258 280.709C555.258 280.709 555.358 280.709 555.358 280.609C562.058 277.809 621.658 237.209 624.058 221.009L587.458 216.609Z" fill="#EFD9CE"/>
<path d="M526.458 275.309C533.058 276.209 544.558 269.409 544.558 269.409" stroke="#424D51" stroke-linecap="round" stroke-linejoin="round"/>
<path d="M530.559 279.509C536.659 280.009 547.559 274.609 547.559 274.609" stroke="#424D51" stroke-linecap="round" stroke-linejoin="round"/>
<path d="M538.158 283.209C542.258 283.209 550.058 279.609 550.058 279.609" stroke="#424D51" stroke-linecap="round" stroke-linejoin="round"/>
<path fill-rule="evenodd" clip-rule="evenodd" d="M577.659 266.009C578.059 266.309 575.759 268.609 573.759 268.409C571.659 268.209 556.359 252.609 557.059 250.709C557.759 248.809 559.659 247.209 559.659 247.209C559.659 247.209 577.259 265.709 577.659 266.009Z" fill="#EFD9CE"/>
<path fill-rule="evenodd" clip-rule="evenodd" d="M534.26 172.509C521.86 171.809 511.16 175.009 510.96 189.809C510.66 210.109 535.36 211.609 550.66 213.209C563.56 214.509 583.86 216.309 583.46 216.609C581.66 217.909 573.56 227.409 567.66 233.709C562.16 239.509 555.26 245.009 558.96 249.609C561.96 253.309 576.46 271.109 581.76 267.509C592.56 260.409 619.66 235.509 626.66 225.109C632.16 216.909 630.56 195.909 602.16 186.209C571.36 175.909 542.96 173.009 534.26 172.509Z" fill="#DEC0F1"/>
<path d="M593.46 206.609C593.46 206.609 585.06 214.809 583.66 216.709" stroke="#424D51" stroke-linecap="round" stroke-linejoin="round"/>
<path d="M546.66 213.009C546.66 213.009 544.36 208.009 542.66 202.409" stroke="#424D51" stroke-linecap="round" stroke-linejoin="round"/>
<path fill-rule="evenodd" clip-rule="evenodd" d="M497.325 174.432C496.608 180.654 521.476 180.466 522.034 173.99C521.34 168.531 520.993 165.329 519.932 155.502C519.397 150.297 513.841 151.404 510.894 151.592C505.255 151.809 503.903 157.956 503.903 157.956C503.903 157.956 498.61 171.391 497.325 174.432Z" fill="#EFD9CE"/>
<path fill-rule="evenodd" clip-rule="evenodd" d="M504.087 153.715C504.086 155.601 504.958 163.425 511.102 166.664C516.018 169.255 521.33 167.946 521.33 167.946C521.33 167.946 520.694 157.855 520.472 156.932C520.303 156.095 504.046 152.326 504.087 153.715Z" fill="#424D51"/>
<path fill-rule="evenodd" clip-rule="evenodd" d="M501.381 147.862C501.381 147.862 503.506 163.743 513.163 163.731C522.82 163.72 523.781 155.813 523.856 155.177C523.984 154.626 523.68 140.909 521.362 136.815C519.013 132.859 512.764 127.564 505.882 130.323C499 133.083 498.879 137.991 499.277 142.221C499.625 144.479 501.381 147.862 501.381 147.862Z" fill="#EFD9CE"/>
<path fill-rule="evenodd" clip-rule="evenodd" d="M502.953 144.524C502.403 143.453 496.747 138.73 493.117 143.115C490.783 145.985 492.147 148.552 493.8 149.878C495.886 151.523 498.483 151.907 501.049 150.543C503.616 149.178 503.448 147.397 503.576 146.846C503.8 145.881 503.344 145.34 502.953 144.524Z" fill="#EFD9CE"/>
<path fill-rule="evenodd" clip-rule="evenodd" d="M519.564 142.061C519.767 140.874 523.812 134.698 528.547 137.755C531.704 139.794 531.033 142.687 529.897 144.456C528.443 146.659 526.025 147.696 523.153 147.248C520.365 146.747 519.975 144.987 519.657 144.478C519.128 143.629 519.426 142.972 519.564 142.061Z" fill="#EFD9CE"/>
<path fill-rule="evenodd" clip-rule="evenodd" d="M503.509 138.048C503.509 138.048 512.156 141.142 518.871 135.658C518.956 135.605 520.372 139.199 522.366 138.428L521.508 127.413C521.508 127.413 520.907 124.371 516.815 124.801C513.613 125.148 500.552 126.693 500.552 126.693C500.552 126.693 496.874 127.219 497.368 131.036C497.862 134.852 498.756 141.955 499.371 141.807C501.735 141.629 503.509 138.048 503.509 138.048Z" fill="#F1D7AD"/>
<path fill-rule="evenodd" clip-rule="evenodd" d="M509.2 150.764C509.338 150.796 512.824 152.04 514.785 152.349C515.336 152.477 514.019 154.712 511.921 154.371C509.547 153.966 508.479 150.742 509.2 150.764Z" fill="white"/>
<path d="M512.819 146.739C512.819 146.739 514.578 147.292 514.513 148.511C514.395 149.645 513.144 149.718 512.286 149.664" stroke="#424D51" stroke-width="0.729" stroke-linecap="round" stroke-linejoin="round"/>
<path d="M514.993 144.557C514.993 144.557 515.769 142.777 517.391 142.354C519.013 141.932 519.903 142.792 520.623 143.757" stroke="#424D51" stroke-width="0.729" stroke-linecap="round" stroke-linejoin="round"/>
<path d="M516.989 142.842C517.446 142.44 518.166 142.462 518.654 142.865C519.056 143.321 519.119 143.989 518.631 144.529C518.174 144.932 517.507 144.995 516.967 144.507C516.511 143.965 516.533 143.245 516.989 142.842Z" stroke="#424D51" stroke-width="0.729" stroke-linecap="round" stroke-linejoin="round"/>
<path d="M504.01 146.22C504.01 146.22 504.786 144.44 506.408 144.018C508.03 143.595 508.92 144.455 509.693 145.505" stroke="#424D51" stroke-width="0.729" stroke-linecap="round" stroke-linejoin="round"/>
<path d="M506.005 144.506C506.461 144.104 507.182 144.126 507.669 144.529C508.072 144.986 508.134 145.653 507.646 146.194C507.19 146.596 506.522 146.659 505.982 146.171C505.58 145.714 505.602 144.994 506.005 144.506Z" stroke="#424D51" stroke-width="0.729" stroke-linecap="round" stroke-linejoin="round"/>
<path d="M523.973 142.139C524.45 141.959 525.511 141.77 526.22 142.152M525.873 139.894C525.873 139.894 524.632 140.55 523.92 142.054L525.873 139.894ZM523.537 143.707C523.612 143.072 523.793 142.605 523.973 142.139L523.537 143.707Z" stroke="#424D51" stroke-width="0.729" stroke-linecap="round" stroke-linejoin="round"/>
<path d="M499.92 145.708C499.475 145.75 498.361 145.855 497.736 146.363M497.441 144.19C497.441 144.19 498.766 144.424 499.92 145.708L497.441 144.19ZM500.851 147.013C500.619 146.451 500.216 145.995 499.92 145.708L500.851 147.013Z" stroke="#424D51" stroke-width="0.729" stroke-linecap="round" stroke-linejoin="round"/>
<path d="M391.86 247.61C391.66 240.51 389.36 225.41 386.76 219.71C380.66 206.21 367.16 198.41 352.66 197.81C344.06 197.41 335.46 196.01 326.86 195.91C315.76 195.71 301.76 198.11 294.36 207.21C286.56 216.91 283.46 231.21 281.76 243.21L310.46 249.61L308.36 273.11L366.56 275.21C366.56 275.21 367.86 259.31 368.76 247.61H391.86Z" fill="#BA79E2"/>
<path fill-rule="evenodd" clip-rule="evenodd" d="M366.659 274.91L384.259 303.61L310.159 320.21L308.359 273.01L366.659 274.91Z" fill="#C7E7DA"/>
<path fill-rule="evenodd" clip-rule="evenodd" d="M301.561 414.31L356.661 342.01C356.661 342.01 319.761 295.51 377.561 299.01C419.661 320.31 395.061 363.61 395.061 363.61L330.161 433.41L301.561 414.31Z" fill="#C7E7DA"/>
<path fill-rule="evenodd" clip-rule="evenodd" d="M313.359 396.609L338.759 426.109L328.759 435.309L300.859 414.409L313.359 396.609Z" fill="#B68674"/>
<path fill-rule="evenodd" clip-rule="evenodd" d="M315.359 411.21C315.359 411.21 311.759 406.61 309.459 404.91C307.759 403.71 305.959 404.11 304.859 405.11C303.359 406.51 303.859 408.61 303.859 408.61C303.859 408.61 300.359 407.61 297.459 408.41C294.659 409.21 290.259 411.21 290.359 412.51C290.459 413.81 320.059 451.31 320.059 451.31C320.059 451.31 351.459 452.21 351.559 451.81C351.659 451.51 350.959 448.91 345.959 445.51C341.559 442.51 331.759 441.71 329.159 441.31C326.559 440.91 329.559 440.21 329.959 435.61C330.359 429.81 326.159 426.11 325.059 424.31C323.959 422.51 315.359 411.21 315.359 411.21Z" fill="#80CAB3"/>
<path fill-rule="evenodd" clip-rule="evenodd" d="M306.659 414.809C302.159 411.509 295.259 411.409 291.459 411.809C289.759 412.009 289.859 413.109 289.859 413.109L316.259 450.109C316.259 450.109 318.559 455.109 325.959 455.709C334.059 456.309 352.159 456.209 352.159 456.209C352.159 456.209 353.559 456.309 352.659 454.209C352.159 453.009 351.459 450.209 349.759 449.709C348.159 449.109 327.059 450.309 323.959 448.209C322.159 447.009 313.359 435.009 313.059 432.309C312.559 425.409 311.159 418.109 306.659 414.809Z" fill="#957FEF"/>
<path d="M328.06 440.809C328.06 440.809 327.46 443.509 328.96 445.209" stroke="#424D51" stroke-linecap="round" stroke-linejoin="round"/>
<path fill-rule="evenodd" clip-rule="evenodd" d="M411.96 331.509L314.86 308.209L285.76 298.209C285.76 298.209 265.96 319.109 279.76 335.209C290.86 349.309 306.96 349.809 314.16 351.209C320.96 352.509 419.16 366.809 419.16 366.809L411.96 331.509Z" fill="#C7E7DA"/>
<path fill-rule="evenodd" clip-rule="evenodd" d="M400.561 326.609L405.361 366.409L420.861 368.309L414.661 330.909L400.561 326.609Z" fill="#B68674"/>
<path d="M345.76 356.309L395.56 363.409" stroke="#424D51" stroke-linecap="round" stroke-linejoin="round"/>
<path d="M344.561 316.309L395.661 327.009" stroke="#424D51" stroke-linecap="round" stroke-linejoin="round"/>
<path fill-rule="evenodd" clip-rule="evenodd" d="M410.459 334.71C410.459 334.71 410.059 331.21 412.859 330.31C414.659 329.71 415.959 330.61 416.859 331.51C416.859 331.51 417.559 329.81 419.859 328.01C422.159 326.21 426.459 323.21 429.659 324.01C431.159 324.31 435.659 359.61 435.659 359.61L442.459 396.21C442.459 396.21 434.959 396.01 431.259 387.91C427.959 380.71 427.659 379.01 426.559 375.31C425.859 373.01 424.559 371.21 422.459 370.61C419.359 369.61 417.859 368.21 416.159 365.41C413.459 360.81 410.559 339.91 410.459 334.71Z" fill="#80CAB3"/>
<path fill-rule="evenodd" clip-rule="evenodd" d="M429.86 323.91C428.56 323.01 419.06 332.31 419.56 340.41C420.06 347.91 427.46 352.01 429.46 356.71C430.76 359.81 431.56 364.61 432.36 368.91C432.66 370.81 436.86 394.41 436.86 394.41C436.86 394.41 441.96 399.31 443.66 396.41C444.76 394.71 431.06 324.71 429.86 323.91Z" fill="#957FEF"/>
<path fill-rule="evenodd" clip-rule="evenodd" d="M329.859 200.41C327.059 205.11 352.259 210.51 354.359 203.71C354.459 198.21 354.659 195.01 355.159 185.21C355.359 180.01 349.759 180.31 346.859 180.01C341.259 179.41 338.959 185.21 338.959 185.21C338.959 185.21 331.559 197.51 329.859 200.41Z" fill="#D9A48A"/>
<path fill-rule="evenodd" clip-rule="evenodd" d="M339.66 180.61C339.36 182.41 339.06 190.31 344.66 194.51C349.16 197.81 354.66 197.31 354.66 197.31C354.66 197.31 355.46 187.31 355.46 186.31C355.36 185.41 339.86 179.21 339.66 180.61Z" fill="#424D51"/>
<path fill-rule="evenodd" clip-rule="evenodd" d="M337.86 174.41C337.86 174.41 337.56 190.41 347.06 191.91C356.56 193.41 358.76 185.61 358.96 185.11C359.16 184.51 360.96 170.91 359.26 166.61C357.56 162.31 352.16 156.21 344.96 157.81C337.76 159.41 336.86 164.31 336.66 168.51C336.66 170.81 337.86 174.41 337.86 174.41Z" fill="#D9A48A"/>
<path fill-rule="evenodd" clip-rule="evenodd" d="M339.96 171.41C339.56 170.21 334.66 164.71 330.46 168.51C327.66 171.01 328.76 173.71 330.16 175.31C331.96 177.31 334.46 178.01 337.26 177.01C339.96 176.01 340.06 174.31 340.26 173.71C340.56 172.81 340.16 172.21 339.96 171.41Z" fill="#D9A48A"/>
<path fill-rule="evenodd" clip-rule="evenodd" d="M356.66 171.51C357.06 170.31 361.96 164.81 366.16 168.61C368.96 171.11 367.96 173.81 366.46 175.41C364.66 177.41 362.16 178.11 359.36 177.11C356.66 176.21 356.56 174.41 356.36 173.81C356.06 172.91 356.46 172.31 356.66 171.51Z" fill="#D9A48A"/>
<path fill-rule="evenodd" clip-rule="evenodd" d="M345.16 178.41C345.26 178.41 348.56 180.21 350.36 180.81C350.96 181.01 349.26 183.01 347.26 182.31C345.06 181.61 344.46 178.21 345.16 178.41Z" fill="white"/>
<path d="M349.359 174.91C349.359 174.91 350.959 175.71 350.659 176.91C350.359 178.11 349.159 177.91 348.359 177.71" stroke="#424D51" stroke-width="0.729" stroke-linecap="round" stroke-linejoin="round"/>
<path d="M351.859 173.11C351.859 173.11 352.859 171.51 354.559 171.31C356.259 171.11 357.059 172.11 357.559 173.21" stroke="#424D51" stroke-width="0.729" stroke-linecap="round" stroke-linejoin="round"/>
<path d="M354.06 171.71C354.56 171.31 355.26 171.51 355.66 172.01C356.06 172.51 355.96 173.21 355.36 173.61C354.86 174.01 354.16 173.91 353.76 173.31C353.46 172.81 353.56 172.01 354.06 171.71Z" stroke="#424D51" stroke-width="0.729" stroke-linecap="round" stroke-linejoin="round"/>
<path d="M340.76 173.11C340.76 173.11 341.76 171.51 343.46 171.31C345.16 171.11 345.96 172.11 346.46 173.21" stroke="#424D51" stroke-width="0.729" stroke-linecap="round" stroke-linejoin="round"/>
<path d="M342.96 171.71C343.46 171.31 344.16 171.51 344.56 172.01C344.96 172.51 344.86 173.21 344.26 173.61C343.76 174.01 343.06 173.91 342.66 173.31C342.36 172.81 342.46 172.01 342.96 171.71Z" stroke="#424D51" stroke-width="0.729" stroke-linecap="round" stroke-linejoin="round"/>
<path d="M361.059 172.009C361.559 171.909 362.659 171.909 363.259 172.309M363.359 170.209C363.359 170.209 362.059 170.609 361.159 172.109L363.359 170.209ZM360.359 173.509C360.559 172.909 360.759 172.409 361.059 172.009L360.359 173.509Z" stroke="#424D51" stroke-width="0.729" stroke-linecap="round" stroke-linejoin="round"/>
<path d="M336.76 171.91C336.26 171.81 335.16 171.81 334.56 172.21M334.56 170.01C334.56 170.01 335.86 170.41 336.76 171.91L334.56 170.01ZM337.46 173.41C337.26 172.81 337.06 172.31 336.76 171.91L337.46 173.41Z" stroke="#424D51" stroke-width="0.729" stroke-linecap="round" stroke-linejoin="round"/>
<path fill-rule="evenodd" clip-rule="evenodd" d="M341.46 165.01C341.46 165.01 348.76 169.61 356.26 165.21C356.36 165.21 357.46 168.51 359.86 168.31C359.86 168.31 363.66 155.61 348.76 155.31C335.16 155.01 336.16 168.31 336.86 168.31C339.16 168.31 341.46 165.01 341.46 165.01Z" fill="#D6D6D6"/>
<path d="M438.559 319.509C436.059 315.709 433.659 312.609 431.259 310.009C423.759 299.409 411.759 288.709 392.259 260.209C392.259 260.209 391.759 253.509 390.859 247.609H368.659C368.559 262.009 365.859 272.909 366.559 274.909C367.459 277.509 368.959 283.309 370.759 286.009C377.359 297.909 392.059 317.109 415.859 330.909C416.459 333.609 416.059 335.409 414.259 340.909C412.759 345.809 413.559 347.709 415.159 348.609C416.759 349.509 419.259 348.109 420.559 345.409C421.459 343.309 422.259 339.909 422.259 339.909C422.259 339.909 423.459 339.709 423.759 341.009C424.559 343.809 421.898 345.347 423.659 346.709C424.809 347.599 425.359 347.809 427.359 347.109C429.859 346.209 430.059 344.309 430.059 344.309C430.059 344.309 431.759 344.709 433.559 343.209C435.359 341.709 435.659 339.209 435.659 339.209C435.659 339.209 437.159 339.409 438.559 337.209C439.959 335.109 439.059 333.409 439.059 333.409C439.059 333.409 440.859 332.709 441.359 330.209C442.159 327.409 440.459 322.409 438.559 319.509Z" fill="#D9A48A"/>
<path d="M429.859 336.109C429.859 336.109 432.259 341.909 429.859 344.809" stroke="#424D51" stroke-linecap="round" stroke-linejoin="round"/>
<path d="M434.359 332.909C435.659 334.509 436.759 337.709 436.259 339.609" stroke="#424D51" stroke-linecap="round" stroke-linejoin="round"/>
<path d="M436.759 328.709C437.859 329.409 439.459 331.809 439.659 333.609" stroke="#424D51" stroke-linecap="round" stroke-linejoin="round"/>
<path d="M387.652 257.51L391.859 260.65L389.238 262.282" stroke="#424D51" stroke-linecap="round" stroke-linejoin="round"/>
<path d="M369.359 240.309C369.359 240.309 367.659 268.709 366.459 275.109" stroke="#424D51" stroke-linecap="round" stroke-linejoin="round"/>
<path d="M394.26 299.31C393.46 297.01 390.86 296.61 382.16 296.91C378.06 297.01 377.16 296.91 377.26 295.61C377.26 294.01 388.86 292.01 384.76 287.01C381.76 283.41 367.46 289.21 361.36 292.41C350.26 289.21 308.36 273.11 308.36 273.11C308.36 273.11 312.26 260.71 316.16 250.71L283.06 243.51C280.36 253.61 279.26 256.71 278.16 267.31C277.36 275.51 276.26 284.81 279.76 292.51C281.56 296.51 284.56 299.51 288.56 301.21C296.56 304.61 318.56 310.41 335.56 313.71C351.06 317.11 364.442 319.247 368.114 319.528C371.786 319.809 374.976 320.139 378.942 319.918C380.742 319.818 385.76 318.31 384.86 314.11C384.86 314.11 388.56 313.11 389.76 311.01C390.56 309.41 390.06 308.51 390.06 308.51C390.06 308.51 392.06 307.51 392.86 305.61C393.66 303.41 392.86 302.91 392.86 302.91C392.86 302.91 395.16 301.81 394.26 299.31Z" fill="#D9A48A"/>
<path d="M373.96 304.41C373.96 304.41 387.96 306.01 392.96 303.21C394.16 302.51 395.66 299.61 392.96 297.71C390.36 295.81 383.56 297.21 378.86 296.81C377.46 296.71 375.96 295.71 377.86 294.51C377.86 294.51 383.26 292.41 384.56 291.31C385.36 290.71 386.16 289.01 385.06 287.41C384.26 286.21 382.46 286.01 381.56 286.01C379.46 286.01 374.96 286.61 372.66 287.71" stroke="#424D51" stroke-linecap="round" stroke-linejoin="round"/>
<path d="M373.16 310.411C373.16 310.411 384.66 311.611 390.16 308.911C390.16 308.911 393.66 307.311 393.06 303.211" stroke="#424D51" stroke-linecap="round" stroke-linejoin="round"/>
<path d="M372.66 315.409C372.66 315.409 381.26 315.809 385.06 314.309" stroke="#424D51" stroke-linecap="round" stroke-linejoin="round"/>
<path d="M302.513 275.235L307.467 273.496L305.453 271.156" stroke="#424D51" stroke-linecap="round" stroke-linejoin="round"/>
<path d="M281.259 250.01C281.259 250.01 276.259 264.21 277.359 281.11" stroke="#424D51" stroke-linecap="round" stroke-linejoin="round"/>
<path d="M316.061 250.61C316.061 250.61 317.861 243.51 322.661 227.91" stroke="#424D51" stroke-linecap="round" stroke-linejoin="round"/>
</svg>
