<svg width="732" height="522" viewBox="0 0 732 522" fill="none" xmlns="http://www.w3.org/2000/svg">
<path d="M336.862 184.843L28.6328 200.829C37.3695 194.015 52.3004 180.386 61.5263 178.289C73.0587 175.668 78.0386 181.566 87.7363 181.566C95.2061 181.566 104.249 166.888 115.257 158.763C124.063 152.263 135.788 153.04 138.059 155.748C141.64 160.017 147.102 162.17 153.916 155.748C166.468 143.919 181.597 129.226 195.721 122.068C224.683 107.391 250.51 127.112 257.446 133.207C274.744 148.41 283.551 175.825 296.761 169.379C318.515 158.763 335.988 179.426 336.862 184.843Z" fill="#F8F8F8"/>
<path d="M444.301 156.036H667.348C667.348 155.599 664.307 152.838 652.146 145.29C638.432 136.778 631.877 142.014 629.343 144.373C627.31 146.266 625.674 146.967 613.093 140.048C597.367 131.399 584.818 127.895 571.681 134.02C565.784 136.769 557.659 121.567 551.762 115.539C547.907 111.599 523.802 82.0319 499.211 80.0249C458.113 76.6707 451.377 132.797 444.301 156.036Z" fill="#F8F8F8"/>
<path fill-rule="evenodd" clip-rule="evenodd" d="M128.075 470.479C127.82 468.132 129.643 466.076 132.003 466.048L331.511 463.647C333.676 463.621 335.427 461.877 335.462 459.712L336.135 417.735C336.171 415.512 338.011 413.745 340.233 413.8L567.938 419.415C569.925 419.464 571.575 420.965 571.811 422.939L579.974 491.208C580.256 493.559 578.444 495.639 576.077 495.682L135.356 503.833C133.286 503.871 131.529 502.323 131.305 500.265L128.075 470.479Z" fill="#C7E7DA"/>
<path fill-rule="evenodd" clip-rule="evenodd" d="M219.8 445.6L185 443.3C185.6 407.4 186.3 371.5 187.3 335.5C187.6 325.5 186.5 312.7 191.7 303.7C196.9 294.8 207.7 294.8 216.8 296.2C227.2 297.8 226.9 311.6 226.2 321.7C225.6 330.2 223.8 348.1 223.4 355.5C223 366.9 219.8 445.6 219.8 445.6Z" fill="#EFD9CE"/>
<path fill-rule="evenodd" clip-rule="evenodd" d="M221.6 411.8L184.6 410.1L184.9 446.4L220.5 446.9L221.6 411.8Z" fill="#CBE4FC"/>
<path fill-rule="evenodd" clip-rule="evenodd" d="M218.4 444.7C218.4 444.7 221.9 444.9 222.3 447.8C222.5 449.7 221.4 450.7 220.4 451.5C220.4 451.5 222 452.5 223.3 455.1C224.6 457.6 226.8 462.4 225.5 465.5C224.9 466.9 189.4 465 189.4 465L152.1 465.2C152.1 465.2 153.7 457.8 162.3 455.7C170 453.8 171.7 453.7 175.5 453.3C177.9 453.1 179.9 452.1 180.9 450.1C182.4 447.2 184 446 187.2 444.8C192.1 443 213.2 443.8 218.4 444.7Z" fill="#93BEFA"/>
<path fill-rule="evenodd" clip-rule="evenodd" d="M225.5 465.701C226.6 464.601 219.2 453.501 211.1 452.701C203.6 451.901 198.2 458.401 193.3 459.501C190.1 460.201 185.1 460.201 180.8 460.101C178.9 460.101 154.9 460.001 154.9 460.001C154.9 460.001 149.2 464.101 151.7 466.401C153.2 467.701 224.5 466.701 225.5 465.701Z" fill="#EFD9CE"/>
<path fill-rule="evenodd" clip-rule="evenodd" d="M189.401 456.3C191.501 456.6 193.401 455.3 193.701 453.3C194.001 451.3 192.601 449.4 190.601 449.1C188.501 448.7 186.601 450.1 186.301 452.1C185.901 454 187.301 455.9 189.401 456.3Z" fill="#CBE4FC"/>
<path fill-rule="evenodd" clip-rule="evenodd" d="M248.401 209.901C248.401 209.901 250.401 253.401 250.201 257.301C250.001 261.201 192.501 261.901 192.501 261.901C192.501 261.901 189.001 209.801 189.001 207.701C189.001 207.201 187.401 186.501 196.301 184.201C206.001 181.701 237.301 182.401 241.901 184.501C246.601 186.601 248.401 209.901 248.401 209.901Z" fill="#DEC0F1"/>
<path fill-rule="evenodd" clip-rule="evenodd" d="M241.899 442.1L276.599 445.6C276.599 445.6 290.699 362.9 290.699 353.2C290.799 338.4 277.799 311.8 273.999 304.7C259.299 276.7 253.699 265.6 237.699 272.7C228.099 277 227.099 287.4 232.099 301.4C234.999 309.4 253.499 349.1 253.099 352.7C251.799 363.9 241.899 442.1 241.899 442.1Z" fill="#EFD9CE"/>
<path fill-rule="evenodd" clip-rule="evenodd" d="M244.5 409.5L282.6 412.9L276.3 448.6L239.9 446.4L244.5 409.5Z" fill="#CBE4FC"/>
<path fill-rule="evenodd" clip-rule="evenodd" d="M242.6 444.7C242.6 444.7 239.1 445 238.8 447.9C238.6 449.8 239.7 450.8 240.8 451.6C240.8 451.6 239.3 452.7 238 455.2C236.7 457.8 234.6 462.6 236 465.6C236.6 467 272.1 464.2 272.1 464.2L309.4 463.4C309.4 463.4 307.7 456.1 299 454.1C291.3 452.4 289.6 452.4 285.8 452C283.4 451.8 281.4 450.9 280.3 449C278.7 446.2 277.1 445 273.9 443.9C268.8 442.3 247.7 443.7 242.6 444.7Z" fill="#93BEFA"/>
<path fill-rule="evenodd" clip-rule="evenodd" d="M236 465.9C234.9 464.8 242 453.6 250.1 452.5C257.6 451.5 263.1 457.9 268.1 458.9C271.3 459.6 276.3 459.4 280.6 459.2C282.5 459.1 306.5 458.4 306.5 458.4C306.5 458.4 312.3 462.4 309.8 464.7C308.3 466.1 237 466.9 236 465.9Z" fill="#EFD9CE"/>
<path fill-rule="evenodd" clip-rule="evenodd" d="M271.9 455.6C269.9 456 267.9 454.7 267.5 452.7C267.1 450.7 268.5 448.8 270.5 448.4C272.5 448 274.5 449.3 274.9 451.3C275.3 453.3 273.9 455.2 271.9 455.6Z" fill="#CBE4FC"/>
<path fill-rule="evenodd" clip-rule="evenodd" d="M227.2 327.001L186.9 324.601C186.9 324.601 190.1 269.701 192.4 260.501C193.2 257.401 249.6 255.301 250.8 256.501C255.9 261.501 279.3 312.201 279.3 312.201L242.3 326.501L227.8 295.301L227.2 327.001Z" fill="#FFB6A9"/>
<mask id="mask0_12_3325" style="mask-type:alpha" maskUnits="userSpaceOnUse" x="186" y="256" width="94" height="72">
<path fill-rule="evenodd" clip-rule="evenodd" d="M227.2 327.001L186.9 324.601C186.9 324.601 190.1 269.701 192.4 260.501C193.2 257.401 249.6 255.301 250.8 256.501C255.9 261.501 279.3 312.201 279.3 312.201L242.3 326.501L227.8 295.301L227.2 327.001Z" fill="#FFB6A9"/>
</mask>
<g mask="url(#mask0_12_3325)">
<path fill-rule="evenodd" clip-rule="evenodd" d="M500.351 177.152C494.952 179.765 488.066 179.286 479.684 175.098C477.84 174.176 476.423 172.439 475.256 170.419C474.079 168.382 473.069 165.9 472.113 163.298C471.647 162.031 471.194 160.737 470.739 159.439C469.293 155.311 467.835 151.147 465.928 147.714C463.436 143.228 460.441 140.475 456.166 140.591C451.686 140.712 445.316 143.953 436.103 153.046C426.965 162.065 422.182 170.085 420.28 177.138C418.386 184.162 419.322 190.326 421.813 195.723C422.357 196.901 422.975 198.044 423.655 199.15C428.998 194.657 436.814 190.921 448.066 187.906C451.518 186.981 454.432 186.928 456.825 187.647C459.245 188.374 461.031 189.861 462.239 191.81C464.603 195.628 464.707 201.12 463.554 206.247C462.394 211.409 459.883 216.557 456.581 219.805C454.923 221.436 453 222.65 450.885 223.069C448.733 223.496 446.509 223.073 444.359 221.647C438.312 217.636 429.28 211.528 423.189 203.161C423.092 203.261 422.996 203.362 422.902 203.463C418.121 208.552 416.309 214.503 415.845 221.44C415.55 225.841 416.328 229.36 417.673 232.125C419.149 230.921 420.571 229.97 421.933 229.242C426.672 226.709 430.77 226.85 433.689 228.603C436.553 230.323 438.065 233.485 437.814 236.496C437.556 239.601 435.438 242.41 431.41 243.33C429.971 243.658 428.047 243.457 426.069 242.808C424.058 242.148 421.867 240.985 419.868 239.241C418.866 238.368 417.917 237.351 417.064 236.185C414.317 238.851 411.321 242.515 408.138 247.44C402.203 256.625 395.484 261.354 388.833 262.893C382.189 264.431 375.818 262.738 370.674 259.482C366.944 257.121 363.813 253.912 361.642 250.432C360.801 250.113 359.956 249.785 359.109 249.456C355.443 248.033 351.746 246.598 348.206 245.779C343.048 244.587 338.889 244.876 336.117 248.011C333.224 251.283 331.443 258.037 332.342 270.955C333.234 283.763 336.204 292.617 340.318 298.654C344.414 304.665 349.7 307.969 355.418 309.595C356.636 309.941 357.873 310.211 359.123 310.415C359.279 303.479 361.462 295.258 366.586 284.583C368.132 281.361 369.99 279.116 372.094 277.767C374.222 276.405 376.514 276.018 378.779 276.372C383.217 277.064 387.452 280.562 390.591 284.776C393.752 289.019 396.023 294.277 396.337 298.899C396.494 301.219 396.163 303.468 395.104 305.346C394.026 307.257 392.256 308.67 389.773 309.372C382.759 311.357 372.174 314.251 361.812 313.383L361.815 313.432C361.817 313.457 361.819 313.483 361.82 313.508C362.33 320.479 365.141 325.996 368.883 332.016C371.311 335.922 375.434 337.621 379.845 337.916C379.698 335.857 379.734 334.093 379.925 332.59C380.216 330.299 380.877 328.525 381.886 327.244C382.913 325.938 384.238 325.226 385.667 324.979C388.417 324.504 391.418 325.759 393.625 327.25C394.758 328.016 395.764 328.897 396.514 329.771C397.215 330.587 397.868 331.599 397.941 332.616C398.019 333.719 397.436 334.683 396.759 335.416C396.056 336.175 395.08 336.879 393.957 337.501C391.702 338.749 388.638 339.788 385.346 340.28C384.505 340.405 383.639 340.496 382.759 340.544C383.235 344.028 384.182 348.345 385.754 353.656C388.858 364.142 388.07 372.32 384.906 378.37C381.745 384.413 376.311 388.144 370.49 389.927C364.685 391.705 358.401 391.578 353.388 389.813C348.393 388.054 344.402 384.546 343.833 379.429C342.808 370.197 345.89 361.716 349.564 355.036C352.383 349.91 355.639 345.709 357.691 343.061L357.692 343.059L357.693 343.058C358.301 342.274 358.803 341.626 359.157 341.13C359.862 340.144 360.674 338.412 361.071 336.447C361.468 334.482 361.419 332.44 360.6 330.735C359.807 329.084 358.205 327.561 355.094 326.741C351.935 325.909 347.254 325.817 340.463 327.11C335.166 328.119 330.828 329.713 327.362 331.6C327.763 332.569 328.116 333.511 328.423 334.424C330.147 339.553 330.461 343.938 329.354 347.176C328.793 348.817 327.863 350.172 326.569 351.138C325.276 352.102 323.694 352.622 321.919 352.716C318.416 352.9 315.728 351.545 314.422 349.027C313.159 346.589 313.379 343.413 314.838 340.274C316.397 336.921 319.423 333.447 324.021 330.524C320.94 323.941 315.621 316.05 307.569 307.329C306.744 308.66 305.823 309.922 304.799 311.11C306.688 312.907 308.143 315.121 309.195 317.667C311.615 323.525 311.878 331.062 310.645 339.2C309.409 347.362 306.65 356.259 302.887 364.929C295.382 382.222 283.766 398.869 271.935 407.019C266.014 411.097 259.846 413.176 254.034 411.859C248.184 410.534 243.101 405.865 239.162 397.363C238.295 395.492 238.271 393.25 238.619 390.944C238.969 388.617 239.728 386.047 240.603 383.417C241.029 382.137 241.482 380.843 241.936 379.545L241.936 379.544C243.381 375.416 244.838 371.251 245.488 367.379C246.339 362.318 245.715 358.298 242.302 355.722C238.724 353.023 231.724 351.582 218.85 352.944C206.083 354.293 197.341 357.579 191.456 361.906C185.595 366.215 182.482 371.616 181.063 377.388C180.753 378.649 180.523 379.927 180.364 381.216C187.343 381.037 195.783 382.992 206.459 387.653C209.733 389.083 212.044 390.859 213.467 392.914C214.905 394.992 215.373 397.268 215.101 399.545C214.568 404.004 211.224 408.362 207.125 411.65C202.998 414.961 197.825 417.419 193.218 417.898C190.905 418.138 188.644 417.888 186.73 416.897C184.782 415.888 183.307 414.169 182.516 411.714C180.291 404.808 177.041 394.4 177.499 384.061C177.36 384.079 177.223 384.097 177.086 384.117C170.175 385.113 165.047 388.635 160.357 393.767C157.381 397.024 155.795 400.259 155.121 403.26C157.026 403.239 158.731 403.383 160.25 403.663C165.534 404.639 168.649 407.305 169.837 410.496C171.003 413.627 170.212 417.042 168.138 419.239C165.999 421.505 162.592 422.38 158.87 420.586C157.54 419.945 156.162 418.588 155.021 416.847C153.861 415.077 152.873 412.801 152.398 410.191C152.16 408.883 152.052 407.497 152.113 406.053C148.303 406.424 143.676 407.419 138.116 409.284C127.748 412.761 119.547 412.266 113.388 409.321C107.236 406.379 103.312 401.082 101.322 395.328C99.3368 389.591 99.2389 383.306 100.823 378.234C102.402 373.179 105.764 369.064 110.858 368.313C120.048 366.957 128.633 369.733 135.44 373.166C140.664 375.8 144.979 378.903 147.699 380.859C148.506 381.439 149.173 381.919 149.681 382.255C150.692 382.924 152.452 383.673 154.43 384C156.408 384.326 158.447 384.204 160.122 383.325C161.743 382.473 163.207 380.817 163.915 377.679C164.634 374.493 164.559 369.811 163.023 363.07C161.825 357.813 160.076 353.535 158.067 350.139C157.112 350.574 156.184 350.961 155.283 351.301C150.218 353.207 145.848 353.677 142.571 352.687C140.912 352.186 139.524 351.305 138.513 350.046C137.503 348.788 136.926 347.226 136.769 345.455C136.459 341.962 137.717 339.227 140.187 337.832C142.578 336.482 145.76 336.588 148.949 337.934C152.356 339.371 155.936 342.271 159.022 346.761C165.49 343.447 173.186 337.848 181.613 329.489C174.227 325.271 168.741 318.112 166.269 307.157C163.119 293.194 164.883 284.252 169.47 279.561C174.02 274.909 180.838 274.917 186.829 277.658C187.219 276.371 187.852 275.147 188.765 274.027C194.634 266.827 202.845 263.085 210.185 261.026C215.818 259.446 221.097 258.826 224.425 258.435L224.425 258.435C225.412 258.319 226.227 258.224 226.829 258.129C228.026 257.941 229.831 257.307 231.512 256.213C233.192 255.119 234.614 253.654 235.258 251.875C235.88 250.153 235.844 247.943 234.249 245.148C232.63 242.312 229.417 238.906 223.736 234.967C219.304 231.894 215.128 229.916 211.354 228.765C210.943 229.73 210.518 230.642 210.082 231.5C207.63 236.324 204.721 239.619 201.634 241.099C200.071 241.848 198.453 242.134 196.857 241.887C195.262 241.64 193.783 240.876 192.473 239.675C189.887 237.305 188.97 234.437 189.853 231.741C190.707 229.132 193.128 227.064 196.389 225.906C199.874 224.669 204.473 224.394 209.78 225.627C212.319 218.817 214.223 209.492 214.804 197.637C206.507 199.506 197.627 197.922 188.413 191.502C176.668 183.32 171.938 175.529 172.16 168.973C172.384 162.327 177.641 157.676 184.103 155.728C190.597 153.772 198.671 154.389 205.275 158.536C211.937 162.719 216.961 170.402 217.452 182.269C217.624 186.434 217.655 190.383 217.56 194.115C224.49 191.677 230.982 186.657 236.888 180.112C250.062 165.514 259.955 143.744 265.019 128.104L265.043 128.029L265.076 127.958C270.71 115.766 276.672 108.112 282.766 104.184C288.951 100.197 295.182 100.111 301.008 102.843C306.747 105.534 312.024 110.921 316.605 117.76C321.198 124.619 325.164 133.048 328.235 141.986C332.769 155.182 335.402 169.635 335.152 181.932C337.18 182.758 339.212 183.66 341.235 184.629C357.257 192.298 372.937 204.268 381.404 216.688C382.33 218.047 383.174 219.418 383.925 220.794C389.495 219.666 394.633 219.409 397.9 219.245L397.9 219.245L397.901 219.245C398.893 219.195 399.713 219.154 400.32 219.1C401.527 218.992 403.37 218.48 405.12 217.502C406.869 216.523 408.386 215.156 409.147 213.424C409.884 211.747 409.995 209.539 408.591 206.645C407.165 203.706 404.187 200.094 398.782 195.783C394.566 192.421 390.531 190.168 386.842 188.767C386.368 189.702 385.884 190.584 385.391 191.411C382.621 196.06 379.498 199.154 376.32 200.423C374.71 201.066 373.076 201.243 371.5 200.89C369.926 200.537 368.501 199.676 367.274 198.39C364.853 195.852 364.13 192.93 365.191 190.299C366.217 187.753 368.771 185.851 372.103 184.914C375.662 183.912 380.27 183.945 385.482 185.531C388.471 178.906 390.994 169.729 392.367 157.939C383.963 159.249 375.209 157.075 366.445 150.054C355.273 141.105 351.075 133.015 351.734 126.487C352.403 119.871 357.959 115.582 364.537 114.072C371.147 112.553 379.162 113.71 385.474 118.289C391.841 122.908 396.34 130.909 396.036 142.783C395.93 146.95 395.696 150.892 395.352 154.61C402.43 152.641 409.242 148.066 415.574 141.93C429.693 128.246 441.021 107.186 447.119 91.9204L447.148 91.8474L447.186 91.7783C453.623 79.9907 460.083 72.7522 466.426 69.2403C472.863 65.6764 479.087 66.0066 484.717 69.1223C490.263 72.1915 495.168 77.919 499.281 85.0486C503.406 92.1996 506.799 100.875 509.265 109.998C514.185 128.197 515.489 148.454 511.324 162.204C509.24 169.084 505.715 174.556 500.351 177.152ZM186.363 280.343C186.27 280.297 186.178 280.252 186.085 280.207C180.564 277.555 174.908 277.753 171.346 281.396C167.721 285.102 165.736 292.869 168.829 306.579C171.225 317.201 176.539 323.784 183.53 327.552C186.263 324.741 189.067 321.642 191.926 318.242C197.349 311.792 199.344 305.528 199.189 299.974C194.205 297.067 190.194 292.702 188.05 288.12C186.862 285.58 186.22 282.897 186.363 280.343ZM198.832 296.641C195.069 294.046 192.09 290.562 190.427 287.008C189.604 285.251 189.12 283.522 188.997 281.892C193.278 284.816 196.905 289.388 198.427 294.896C198.585 295.467 198.72 296.048 198.832 296.641ZM201.721 298.371C201.588 296.938 201.329 295.544 200.956 294.197C199.107 287.507 194.511 282.095 189.212 278.915C189.493 277.733 190.018 276.644 190.799 275.685C196.19 269.072 203.817 265.537 210.894 263.553C216.295 262.038 221.22 261.458 224.566 261.064C225.627 260.939 226.529 260.832 227.237 260.721C228.827 260.471 230.978 259.691 232.943 258.412C234.909 257.133 236.822 255.265 237.725 252.768C238.649 250.213 238.443 247.203 236.528 243.848C234.637 240.535 231.074 236.862 225.231 232.811C220.692 229.663 216.336 227.569 212.322 226.319C214.998 219.047 216.93 209.235 217.464 196.914C225.339 194.411 232.51 188.881 238.836 181.87C252.337 166.908 262.364 144.793 267.491 128.988C273.026 117.03 278.712 109.919 284.188 106.389C289.584 102.911 294.854 102.855 299.894 105.218C305.02 107.623 309.971 112.57 314.424 119.22C318.864 125.849 322.738 134.062 325.753 142.838C330.112 155.526 332.63 169.246 332.542 180.908C327.414 178.978 322.352 177.554 317.579 176.771C310.14 175.552 303.262 175.867 297.931 178.411C295.277 179.677 293.046 181.477 291.339 183.845C290.822 182.886 290.283 181.962 289.72 181.091C286.753 176.503 282.795 172.907 277.054 173.449C271.518 173.97 264.791 178.338 256.151 188.09C247.44 197.922 242.91 206.653 241.365 214.414C239.815 222.205 241.294 228.915 244.408 234.623C245.161 236.004 246.009 237.325 246.933 238.59C246.712 238.842 246.496 239.096 246.287 239.352C241.351 245.366 239.852 252.088 239.852 259.425C239.852 264.633 241.146 268.737 243.107 271.886C240.255 274.968 237.273 279.13 234.231 284.609C229.163 293.74 223.256 298.347 217.535 300.081C212.01 301.756 206.47 300.809 201.721 298.371ZM201.81 301.324C201.627 307.177 199.302 313.546 193.935 319.931C191.252 323.121 188.61 326.057 186.023 328.748C192.783 331.624 200.961 332.297 209.737 331.45C225.523 329.926 242.881 323.519 256.503 316.832C252.704 312.064 253.196 305.509 256.156 299.874C259.309 293.87 265.407 288.541 272.993 286.734C280.644 284.911 289.647 286.709 298.458 294.673C301.551 297.468 304.39 300.213 306.987 302.895C310.103 296.243 311.069 288.093 310.536 279.293C309.35 259.666 300.747 237.354 293.136 222.783L293.099 222.714L293.071 222.64C288.322 210.085 286.795 200.388 287.82 193.139C288.174 190.635 288.834 188.426 289.764 186.498C289.058 185.092 288.315 183.75 287.517 182.516C284.73 178.206 281.558 175.66 277.301 176.061C272.839 176.481 266.7 180.141 258.115 189.83C249.601 199.439 245.365 207.762 243.939 214.926C242.519 222.061 243.865 228.148 246.711 233.366C247.333 234.506 248.026 235.605 248.778 236.663C253.809 231.823 261.357 227.572 272.383 223.811C275.765 222.658 278.669 222.41 281.105 222.967C283.568 223.531 285.449 224.895 286.785 226.759C289.399 230.411 289.87 235.883 289.063 241.076C288.25 246.304 286.09 251.608 283.012 255.07C281.467 256.808 279.629 258.148 277.547 258.708C275.428 259.277 273.18 259.004 270.94 257.725C264.639 254.127 255.218 248.637 248.582 240.696C248.492 240.803 248.403 240.909 248.315 241.016C243.885 246.414 242.476 252.472 242.476 259.425C242.476 263.837 243.488 267.295 245.015 269.964C246.407 268.664 247.762 267.62 249.073 266.802C253.632 263.958 257.729 263.825 260.759 265.379C263.732 266.903 265.452 269.958 265.403 272.979C265.353 276.094 263.428 279.038 259.47 280.225C258.057 280.649 256.124 280.577 254.107 280.062C252.056 279.538 249.792 278.524 247.681 276.918C246.623 276.113 245.607 275.162 244.679 274.056C242.116 276.899 239.372 280.755 236.526 285.883C231.218 295.444 224.83 300.611 218.297 302.592C212.51 304.346 206.768 303.552 201.81 301.324ZM258.449 318.798C244.529 325.714 226.493 332.469 209.989 334.062C200.59 334.969 191.566 334.214 184.064 330.75C175.358 339.485 167.312 345.424 160.431 348.987C162.551 352.618 164.354 357.102 165.581 362.487C167.161 369.42 167.314 374.535 166.475 378.256C165.625 382.024 163.746 384.386 161.341 385.648C158.989 386.882 156.317 386.97 154.003 386.589C151.689 386.207 149.576 385.332 148.233 384.444C147.636 384.048 146.898 383.518 146.031 382.895L146.031 382.895C143.295 380.928 139.268 378.034 134.259 375.509C127.697 372.2 119.682 369.663 111.241 370.909C107.52 371.458 104.739 374.497 103.328 379.016C101.922 383.517 101.987 389.226 103.801 394.471C105.61 399.698 109.12 404.371 114.52 406.954C119.913 409.533 127.381 410.117 137.282 406.796C143.223 404.803 148.232 403.742 152.416 403.391C153.093 399.744 154.907 395.841 158.42 391.997C163.369 386.581 169.011 382.63 176.711 381.52C177.038 381.473 177.369 381.431 177.703 381.394C177.874 379.837 178.139 378.289 178.515 376.762C180.067 370.448 183.501 364.497 189.902 359.792C196.277 355.105 205.511 351.715 218.574 350.334C231.531 348.964 239.443 350.278 243.882 353.628C248.485 357.101 248.981 362.425 248.076 367.813C247.385 371.929 245.819 376.4 244.359 380.571L244.358 380.574C243.918 381.831 243.487 383.061 243.093 384.246C242.226 386.85 241.529 389.243 241.213 391.335C240.895 393.446 240.994 395.077 241.542 396.26C245.29 404.35 249.853 408.221 254.614 409.3C259.412 410.387 264.82 408.734 270.446 404.858C281.709 397.1 293.072 380.953 300.48 363.884C304.175 355.372 306.856 346.695 308.051 338.807C309.249 330.894 308.932 323.902 306.77 318.669C305.859 316.465 304.617 314.56 302.997 313.018C298.579 317.293 292.579 320.38 284.701 321.863C271.797 324.292 263.264 322.739 258.449 318.798ZM300.916 311.377C296.909 315.151 291.464 317.92 284.216 319.284C272.511 321.487 265.203 320.199 261.07 317.469C263.094 316.422 265.016 315.379 266.816 314.356C278.969 309.263 287.963 307.849 294.386 308.938C296.941 309.371 299.104 310.201 300.916 311.377ZM302.761 309.454C300.573 307.942 297.938 306.878 294.824 306.351C287.676 305.139 278.111 306.768 265.728 311.967L265.655 311.997L265.587 312.036C263.515 313.215 261.282 314.42 258.917 315.625C255.628 311.932 255.692 306.399 258.479 301.094C261.311 295.7 266.816 290.902 273.601 289.286C280.319 287.686 288.454 289.168 296.699 296.619C299.995 299.598 302.99 302.512 305.702 305.344C304.849 306.798 303.873 308.172 302.761 309.454ZM372.077 257.265C369.767 255.803 367.719 253.988 366.03 251.997C367.948 252.615 369.804 253.094 371.513 253.291C373.76 253.549 375.948 253.342 377.704 252.115C384.377 247.452 387.552 241.742 387.855 235.509C388.05 231.491 387.046 227.347 385.149 223.227C390.201 222.263 394.725 222.035 397.865 221.877L397.868 221.877C398.933 221.823 399.84 221.777 400.553 221.714C402.156 221.57 404.354 220.937 406.401 219.792C408.448 218.646 410.481 216.911 411.55 214.48C412.642 211.993 412.638 208.975 410.952 205.5C409.287 202.068 405.977 198.165 400.418 193.732C396.099 190.288 391.894 187.907 387.972 186.391C391.128 179.315 393.712 169.654 395.069 157.396C403.094 155.425 410.618 150.387 417.4 143.815C431.871 129.79 443.354 108.395 449.526 92.9672C455.849 81.4063 461.998 74.6913 467.697 71.5359C473.314 68.4263 478.576 68.723 483.446 71.4181C488.4 74.1597 493.009 79.427 497.008 86.3596C500.995 93.2708 504.31 101.725 506.732 110.683C511.588 128.646 512.777 148.354 508.813 161.443C506.832 167.982 503.637 172.647 499.208 174.79C494.814 176.917 488.833 176.736 480.857 172.751C479.691 172.168 478.596 170.955 477.528 169.106C476.47 167.274 475.522 164.969 474.576 162.393C474.145 161.22 473.714 159.99 473.274 158.732L473.273 158.73L473.273 158.73L473.272 158.728C471.813 154.558 470.248 150.088 468.221 146.44C465.568 141.664 461.859 137.812 456.095 137.968C450.536 138.119 443.532 142.027 434.26 151.179C424.91 160.406 419.807 168.815 417.747 176.455C415.678 184.125 416.706 190.919 419.431 196.822C420.09 198.25 420.848 199.626 421.685 200.95C421.447 201.186 421.215 201.425 420.989 201.666C415.662 207.337 413.717 213.944 413.226 221.264C412.878 226.461 413.895 230.642 415.641 233.915C412.589 236.799 409.335 240.753 405.934 246.016C400.267 254.787 394.065 258.989 388.241 260.337C382.41 261.686 376.751 260.223 372.077 257.265ZM385.234 235.382C385.412 231.712 384.443 227.802 382.515 223.791C375.759 225.398 368.603 228.413 363.196 234.207C360.63 236.957 360.352 241.067 362.067 245.48C362.434 246.423 362.888 247.367 363.422 248.298C363.976 248.506 364.52 248.705 365.053 248.894C367.584 249.793 369.864 250.46 371.813 250.684C373.769 250.909 375.198 250.664 376.201 249.964C382.319 245.689 384.977 240.678 385.234 235.382ZM361.278 232.417C366.982 226.304 374.392 223.113 381.257 221.397C380.647 220.324 379.972 219.246 379.236 218.166C371.108 206.243 355.854 194.536 340.102 186.995C338.416 186.188 336.727 185.43 335.043 184.725C334.851 188.001 334.437 191.095 333.78 193.937C332.161 200.941 329.01 206.637 323.831 209.585C318.619 212.553 311.717 212.536 303.074 208.918C301.172 208.121 299.642 206.483 298.342 204.545C297.032 202.591 295.858 200.183 294.73 197.651C294.181 196.418 293.642 195.157 293.101 193.892L293.101 193.891C292.504 192.494 291.905 191.092 291.288 189.719C290.905 190.875 290.612 192.135 290.418 193.507C289.484 200.114 290.84 209.304 295.498 221.638C303.184 236.37 311.939 259.019 313.156 279.134C313.726 288.561 312.648 297.552 308.917 304.925C317.334 313.938 322.982 322.191 326.295 329.195C330 327.207 334.546 325.566 339.972 324.532C346.957 323.202 352.074 323.232 355.762 324.204C359.498 325.188 361.79 327.151 362.966 329.599C364.115 331.994 364.107 334.667 363.643 336.966C363.179 339.265 362.228 341.346 361.293 342.655C360.876 343.238 360.321 343.956 359.667 344.799L359.666 344.801C357.603 347.465 354.566 351.386 351.863 356.301C348.321 362.74 345.499 370.66 346.441 379.139C346.857 382.877 349.794 385.766 354.26 387.338C358.708 388.904 364.416 389.043 369.721 387.418C375.011 385.798 379.806 382.457 382.58 377.154C385.351 371.857 386.202 364.414 383.238 354.401C381.601 348.87 380.6 344.303 380.114 340.555C374.973 340.305 369.764 338.403 366.654 333.402C362.853 327.286 359.76 321.323 359.203 313.699C359.188 313.492 359.175 313.285 359.164 313.076C357.66 312.85 356.169 312.536 354.7 312.119C348.446 310.341 342.622 306.696 338.149 300.131C333.694 293.592 330.637 284.242 329.725 271.138C328.82 258.145 330.497 250.406 334.151 246.273C337.927 242.003 343.404 241.976 348.797 243.223C352.369 244.049 356.198 245.51 359.816 246.913C359.749 246.752 359.684 246.592 359.622 246.431C357.703 241.495 357.765 236.182 361.278 232.417ZM392.657 155.229C393.04 151.327 393.3 147.157 393.413 142.715C393.698 131.606 389.524 124.468 383.933 120.413C378.288 116.317 371.062 115.265 365.124 116.629C359.155 118 354.858 121.682 354.345 126.751C353.824 131.909 357.116 139.218 368.085 148.006C376.583 154.813 384.843 156.645 392.657 155.229ZM384.326 187.924C379.696 186.585 375.733 186.618 372.813 187.439C369.965 188.241 368.247 189.735 367.624 191.28C367.036 192.739 367.286 194.601 369.173 196.578C370.099 197.55 371.081 198.107 372.074 198.33C373.066 198.552 374.16 198.461 375.347 197.987C377.761 197.022 380.505 194.486 383.136 190.068C383.538 189.394 383.935 188.679 384.326 187.924ZM419.023 234.414C419.804 235.521 420.678 236.466 421.593 237.264C423.316 238.767 425.196 239.76 426.888 240.315C428.612 240.881 430.021 240.956 430.826 240.772C433.777 240.098 435.039 238.206 435.199 236.278C435.368 234.256 434.338 232.054 432.338 230.852C430.393 229.684 427.303 229.347 423.17 231.556C421.877 232.247 420.491 233.184 419.023 234.414ZM425.117 201.351C430.851 209.371 439.607 215.346 445.809 219.46C447.423 220.53 448.949 220.778 450.375 220.495C451.839 220.205 453.323 219.33 454.741 217.934C457.591 215.131 459.912 210.486 460.994 205.672C462.085 200.823 461.844 196.156 460.008 193.192C459.115 191.75 457.837 190.69 456.07 190.16C454.278 189.621 451.883 189.6 448.745 190.44C437.51 193.451 430.049 197.122 425.117 201.351ZM292.708 186.546C294.248 183.917 296.419 182.039 299.061 180.779C303.708 178.562 309.973 178.183 317.154 179.361C321.993 180.154 327.184 181.644 332.469 183.689C332.312 187.154 331.904 190.403 331.224 193.346C329.685 200.002 326.808 204.871 322.533 207.305C318.291 209.721 312.311 209.94 304.087 206.497C302.885 205.994 301.711 204.857 300.522 203.084C299.343 201.327 298.244 199.09 297.127 196.583C296.618 195.441 296.106 194.242 295.582 193.016L295.582 193.015C294.672 190.884 293.728 188.673 292.708 186.546ZM214.83 182.377C215.014 186.816 215.034 190.995 214.913 194.914C207.211 196.849 198.846 195.573 189.912 189.349C178.38 181.315 174.607 174.243 174.782 169.061C174.954 163.969 178.996 160.008 184.86 158.241C190.693 156.483 197.973 157.049 203.88 160.758C209.729 164.431 214.371 171.274 214.83 182.377ZM197.267 228.378C200.125 227.364 204.078 227.066 208.786 228.092C208.447 228.872 208.099 229.611 207.743 230.311C205.413 234.895 202.845 237.609 200.5 238.733C199.348 239.285 198.263 239.449 197.258 239.294C196.252 239.138 195.235 238.647 194.246 237.74C192.231 235.894 191.857 234.053 192.347 232.557C192.865 230.975 194.479 229.369 197.267 228.378ZM249.269 274.83C248.304 274.095 247.368 273.21 246.515 272.158C247.898 270.832 249.218 269.805 250.462 269.029C254.437 266.549 257.543 266.678 259.562 267.714C261.638 268.779 262.812 270.907 262.78 272.936C262.748 274.871 261.616 276.842 258.716 277.712C257.925 277.949 256.515 277.969 254.756 277.52C253.032 277.079 251.089 276.214 249.269 274.83ZM272.241 255.446C265.778 251.756 256.642 246.38 250.384 238.761C255.022 234.212 262.221 230.05 273.23 226.295C276.305 225.246 278.695 225.108 280.52 225.525C282.318 225.936 283.664 226.909 284.651 228.287C286.681 231.121 287.234 235.762 286.47 240.673C285.712 245.549 283.707 250.339 281.051 253.326C279.729 254.813 278.307 255.786 276.866 256.174C275.462 256.551 273.923 256.406 272.241 255.446ZM317.218 341.38C318.496 338.63 321.052 335.601 325.084 332.961C325.402 333.749 325.686 334.516 325.936 335.259C327.574 340.134 327.712 343.868 326.871 346.328C326.458 347.537 325.815 348.427 325 349.034C324.184 349.643 323.121 350.025 321.781 350.096C319.052 350.239 317.476 349.216 316.752 347.819C315.986 346.341 315.971 344.064 317.218 341.38ZM384.959 337.684C384.137 337.807 383.307 337.892 382.477 337.934C382.324 335.94 382.355 334.284 382.528 332.92C382.781 330.932 383.324 329.659 383.948 328.866C384.552 328.098 385.287 327.708 386.114 327.565C387.873 327.261 390.162 328.077 392.156 329.425C393.125 330.079 393.948 330.809 394.523 331.48C395.148 332.207 395.314 332.671 395.323 332.803C395.327 332.847 395.305 333.123 394.832 333.634C394.384 334.119 393.664 334.664 392.686 335.205C390.738 336.283 387.98 337.233 384.959 337.684ZM389.059 306.847C381.874 308.881 371.592 311.645 361.741 310.745C361.835 304.262 363.849 296.348 368.952 285.718C370.357 282.789 371.933 280.986 373.51 279.977C375.063 278.982 376.7 278.703 378.375 278.964C381.819 279.502 385.518 282.358 388.487 286.344C391.435 290.301 393.448 295.088 393.719 299.076C393.854 301.061 393.552 302.757 392.819 304.057C392.104 305.324 390.922 306.32 389.059 306.847ZM147.929 340.351C150.723 341.53 153.842 343.976 156.625 347.911C155.849 348.257 155.093 348.568 154.358 348.845C149.546 350.656 145.819 350.928 143.33 350.176C142.107 349.806 141.195 349.195 140.559 348.403C139.921 347.609 139.501 346.561 139.383 345.224C139.141 342.501 140.107 340.89 141.478 340.117C142.928 339.298 145.203 339.201 147.929 340.351ZM154.98 409.721C154.763 408.528 154.668 407.243 154.749 405.891C156.664 405.845 158.332 405.977 159.773 406.244C164.381 407.095 166.586 409.285 167.378 411.412C168.192 413.599 167.623 415.962 166.23 417.438C164.902 418.845 162.736 419.536 160.009 418.222C159.265 417.864 158.21 416.927 157.216 415.409C156.24 413.92 155.389 411.971 154.98 409.721ZM185.013 410.909C182.731 403.826 179.614 393.694 180.134 383.848C186.627 383.619 194.749 385.403 205.409 390.058C208.386 391.358 210.244 392.868 211.309 394.407C212.359 395.924 212.697 397.55 212.496 399.233C212.082 402.695 209.36 406.493 205.483 409.603C201.634 412.691 196.922 414.875 192.946 415.288C190.967 415.494 189.262 415.253 187.936 414.567C186.645 413.898 185.607 412.753 185.013 410.909Z" fill="white"/>
</g>
<path fill-rule="evenodd" clip-rule="evenodd" d="M309.9 94.2993C309.9 94.2993 309.3 90.0993 310.5 86.6993C312 82.0993 312.4 76.5993 312 74.3993C311.6 72.0993 309.7 69.9993 307.5 71.4993C305.3 72.9993 305.7 86.8993 306.4 88.8993C307.2 90.7993 309.9 94.2993 309.9 94.2993Z" fill="#EFD9CE"/>
<path fill-rule="evenodd" clip-rule="evenodd" d="M320.2 106.1C321.4 97.9 321.4 95.8 320.4 84.3C320.1 80.9 316.8 78.4 314.5 81.2C311.8 84.7 313.5 96.6 310.2 93C305 87.4 307.9 71.4 307.9 71.4C307.9 71.4 309.4 66.8 305.2 65.9C302.9 65.4 301.3 67.6 301.3 67.6C301.3 67.6 304.8 61.4 299.7 60.7C294.8 60.1 291.6 68.6 291.3 75.7C291 83.3 292.1 89.2 294.7 98.9C295.5 101.9 296.2 104.4 298 109.4C299.7 114.5 318.3 119.6 320.2 106.1Z" fill="#EFD9CE"/>
<path d="M299.7 82.4C299.7 82.4 299 74.1 301.4 68C301.6 67.5 301.8 67 302.1 66.5" stroke="#424D51" stroke-linecap="round" stroke-linejoin="round"/>
<path d="M312.7 88.9992C312.7 88.9992 312.6 93.6992 310.9 93.2992C308.6 92.6992 306.5 83.7992 306.8 77.8992C306.9 76.3992 307 73.4992 308 71.1992" stroke="#424D51" stroke-linecap="round" stroke-linejoin="round"/>
<path fill-rule="evenodd" clip-rule="evenodd" d="M320.9 114.6C321.4 114.7 321.8 111.5 320.4 110C319 108.5 297.2 105.8 296.2 107.5C295.2 109.2 295 111.8 295 111.8C295 111.8 320.5 114.5 320.9 114.6Z" fill="#EFD9CE"/>
<path fill-rule="evenodd" clip-rule="evenodd" d="M227.6 190.799C224.3 176.099 257.1 190.799 279.6 170.299C290.9 161.799 288.9 134.899 289.3 126.199C289.7 117.699 290.7 109.399 296.6 109.599C301.4 109.699 324.3 110.399 324.7 116.799C325.6 129.699 326.7 173.699 316.6 187.899C304.4 205.199 278.2 214.299 258.5 219.599C221.9 230.199 229.5 199.399 227.6 190.799Z" fill="#DEC0F1"/>
<path d="M190.301 227.8C190.301 227.8 190.901 222.4 190.701 216.4" stroke="#424D51" stroke-linecap="round" stroke-linejoin="round"/>
<path d="M248.4 222.201L247.9 213.801" stroke="#424D51" stroke-linecap="round" stroke-linejoin="round"/>
<path d="M192.6 288.501C192.6 288.501 175 288.701 160 281.601C145 274.501 167.8 258.301 167.8 258.301C167.8 258.301 188.7 267.701 190.8 266.601C197.3 263.401 197.5 286.201 192.6 288.501Z" fill="#EFD9CE"/>
<path fill-rule="evenodd" clip-rule="evenodd" d="M169.1 285.001C168.9 285.401 171.6 287.201 173.5 286.501C175.5 285.801 187.1 267.301 186.1 265.701C185.1 264.101 182.8 262.801 182.8 262.801C182.8 262.801 169.3 284.601 169.1 285.001Z" fill="#EFD9CE"/>
<path fill-rule="evenodd" clip-rule="evenodd" d="M178.999 185.335C190.899 182.035 217.999 179.235 221.399 193.735C226.599 210.235 189.499 223.135 172.399 230.035C163.999 233.235 152.399 237.635 152.899 237.835C159.599 243.335 164.499 247.035 175.099 251.735C186.499 256.535 186.599 259.635 183.899 264.935C181.699 269.235 171.399 289.635 165.399 287.335C153.299 282.635 126.799 274.035 112.499 255.435C105.399 244.835 102.399 227.635 128.199 212.235C155.999 195.435 170.599 187.635 178.999 185.335Z" fill="#DEC0F1"/>
<path d="M141 230.199C141 230.199 151 236.399 152.7 237.899" stroke="#424D51" stroke-linecap="round" stroke-linejoin="round"/>
<path fill-rule="evenodd" clip-rule="evenodd" d="M184.841 265.209C184.484 265.071 184.104 265.003 183.722 265.007L157.055 265.334C154.69 265.363 153.223 262.771 154.466 260.758L169.601 236.234C170.047 235.512 170.166 234.636 169.929 233.821L162.13 206.966C161.469 204.689 163.586 202.581 165.86 203.252L193.159 211.305C194.01 211.555 194.927 211.417 195.666 210.927L218.819 195.571C220.894 194.194 223.646 195.799 223.47 198.283L221.512 225.927C221.442 226.912 221.862 227.868 222.634 228.484L243.025 244.751C244.936 246.275 244.32 249.322 241.966 249.984L219.288 256.357C217.948 256.734 217.043 257.983 217.102 259.374L217.704 273.42C217.797 275.58 215.642 277.126 213.625 276.346L184.841 265.209Z" fill="#C7E7DA"/>
<path d="M219.899 273.6C219.899 273.6 221.699 271.7 221.499 269.4C221.299 267 219.899 266.1 219.899 266.1C219.899 266.1 221.199 264.6 220.199 262.2C219.399 260.2 217.399 259.7 217.399 259.7C217.399 259.7 215.899 262.2 213.199 263.6C211.899 264.3 209.299 264.5 209.299 264.5C209.299 264.5 213.499 260.5 214.299 258.3C215.499 255.5 214.699 252.7 212.999 252.2C211.199 251.5 210.099 252.6 206.199 256.1C204.199 257.8 201.799 258.6 199.499 259.8C196.899 261.1 194.399 262.7 191.899 264.1C189.799 265.3 188.099 265.8 186.299 265.8C186.299 265.8 184.599 283.2 188.799 286.6C189.299 287 189.699 287.3 190.199 287.6C193.199 289.4 202.899 289.7 207.399 288.9C210.799 288.3 215.699 286.1 217.299 283.8C218.799 281.7 218.099 280 218.099 280C218.099 280 219.999 279.5 220.499 277.1C220.999 274.5 219.899 273.6 219.899 273.6Z" fill="#EFD9CE"/>
<path d="M220.399 265.7C219.899 269.4 213.599 271.1 213.599 271.1Z" fill="#EFD9CE"/>
<path d="M220.399 265.7C219.899 269.4 213.599 271.1 213.599 271.1" stroke="#424D51" stroke-linecap="round" stroke-linejoin="round"/>
<path d="M220.499 273.6C219.499 275.2 216.299 276.6 214.299 276.7Z" fill="#EFD9CE"/>
<path d="M220.499 273.6C219.499 275.2 216.299 276.6 214.299 276.7" stroke="#424D51" stroke-linecap="round" stroke-linejoin="round"/>
<path d="M218.299 280C217.199 280.8 216.199 281.5 214.599 281.6Z" fill="#EFD9CE"/>
<path d="M218.299 280C217.199 280.8 216.199 281.5 214.599 281.6" stroke="#424D51" stroke-linecap="round" stroke-linejoin="round"/>
<path fill-rule="evenodd" clip-rule="evenodd" d="M204.899 185C203.599 191.2 228.399 193.3 229.499 186.9C229.299 181.4 229.299 178.2 229.299 168.3C229.199 163.1 223.599 163.7 220.699 163.6C215.099 163.3 213.099 169.2 213.099 169.2C213.099 169.2 206.399 182.1 204.899 185Z" fill="#EFD9CE"/>
<path fill-rule="evenodd" clip-rule="evenodd" d="M213.599 165.1C213.399 166.9 213.499 174.8 219.399 178.7C224.099 181.7 229.499 180.9 229.499 180.9C229.499 180.9 229.799 170.9 229.699 169.9C229.599 169 213.699 163.7 213.599 165.1Z" fill="#424D51"/>
<path fill-rule="evenodd" clip-rule="evenodd" d="M211.499 158.9C211.499 158.9 212.099 174.9 221.599 175.9C231.199 176.9 232.899 169 233.099 168.5C233.299 167.9 234.299 154.2 232.399 150C230.499 145.8 224.699 140 217.599 142C210.499 144 209.899 148.9 209.899 153.1C209.999 155.5 211.499 158.9 211.499 158.9Z" fill="#EFD9CE"/>
<path fill-rule="evenodd" clip-rule="evenodd" d="M213.399 155.9C212.899 154.7 207.699 149.5 203.799 153.5C201.099 156.2 202.299 158.8 203.899 160.3C205.799 162.2 208.299 162.8 211.099 161.6C213.699 160.6 213.699 158.8 213.899 158.1C214.099 157.2 213.699 156.7 213.399 155.9Z" fill="#EFD9CE"/>
<path fill-rule="evenodd" clip-rule="evenodd" d="M230.099 155.1C230.399 153.9 234.999 148.2 239.399 151.7C242.299 154 241.399 156.8 240.099 158.5C238.399 160.6 235.999 161.4 233.099 160.6C230.399 159.8 230.199 158.1 229.899 157.5C229.599 156.5 229.899 155.9 230.099 155.1Z" fill="#EFD9CE"/>
<path fill-rule="evenodd" clip-rule="evenodd" d="M214.599 149.4C214.599 149.4 222.899 153.3 230.099 148.5C230.199 148.5 231.299 152.2 233.399 151.6L233.599 140.6C233.599 140.6 233.199 137.5 229.199 137.5C225.999 137.6 212.899 137.8 212.899 137.8C212.899 137.8 209.199 138 209.299 141.8C209.399 145.7 209.699 152.8 210.299 152.8C212.399 152.8 214.599 149.4 214.599 149.4Z" fill="#F1D7AD"/>
<path d="M218.899 163C220.099 166.8 223.899 165.4 223.899 165.4" stroke="#424D51" stroke-width="0.729" stroke-linecap="round" stroke-linejoin="round"/>
<path d="M222.899 159C222.899 159 224.499 159.7 224.299 160.9C224.099 162.1 222.899 162 221.999 161.8" stroke="#424D51" stroke-width="0.729" stroke-linecap="round" stroke-linejoin="round"/>
<path d="M225.399 157C225.399 157 226.299 155.3 227.999 155.1C229.699 154.9 230.499 155.8 231.099 156.8" stroke="#424D51" stroke-width="0.729" stroke-linecap="round" stroke-linejoin="round"/>
<path d="M227.499 155.5C227.999 155.1 228.699 155.2 229.099 155.7C229.499 156.2 229.499 156.9 228.899 157.3C228.399 157.7 227.699 157.7 227.299 157.1C226.999 156.6 226.999 155.9 227.499 155.5Z" stroke="#424D51" stroke-width="0.729" stroke-linecap="round" stroke-linejoin="round"/>
<path d="M214.299 157.6C214.299 157.6 215.199 155.9 216.899 155.7C218.599 155.5 219.399 156.4 219.999 157.4" stroke="#424D51" stroke-width="0.729" stroke-linecap="round" stroke-linejoin="round"/>
<path d="M216.399 156.1C216.899 155.7 217.599 155.8 217.999 156.3C218.399 156.8 218.399 157.5 217.799 157.9C217.299 158.3 216.599 158.3 216.199 157.7C215.899 157.2 215.999 156.5 216.399 156.1Z" stroke="#424D51" stroke-width="0.729" stroke-linecap="round" stroke-linejoin="round"/>
<path d="M234.499 155.4C234.999 155.3 236.099 155.2 236.699 155.6M236.599 153.5C236.599 153.5 235.299 154 234.499 155.5L236.599 153.5ZM233.899 156.9C234.099 156.3 234.199 155.8 234.499 155.4L233.899 156.9Z" stroke="#424D51" stroke-width="0.729" stroke-linecap="round" stroke-linejoin="round"/>
<path d="M210.299 156.6C209.799 156.5 208.699 156.6 208.099 157M207.999 154.9C207.999 154.9 209.299 155.2 210.299 156.7L207.999 154.9ZM210.999 158.1C210.799 157.5 210.499 157 210.199 156.6L210.999 158.1Z" stroke="#424D51" stroke-width="0.729" stroke-linecap="round" stroke-linejoin="round"/>
<path fill-rule="evenodd" clip-rule="evenodd" d="M336 53.4003C336 53.4003 335.7 49.2003 333.9 46.0003C331.4 41.8003 329.9 36.6003 329.8 34.2003C329.7 31.9003 331.2 29.4003 333.5 30.4003C336 31.4003 338.5 45.1003 338.2 47.2003C337.9 49.4003 336 53.4003 336 53.4003Z" fill="#EFBEA9"/>
<path d="M406.4 127.6C421.9 127.9 435.7 128.2 435.6 136.8C435.6 137.3 435.6 137.9 435.5 138.4C435.5 147.6 435.5 164.1 411.1 162.9C390.7 161.9 363.3 158.3 347.7 144C336.5 133.5 331.7 92.8 329.5 74.2C329.2 71.6 329 69.4 328.7 67.8C328.7 67.7 328.7 67.7 328.7 67.7C328.6 67.5 328.5 67.2 328.4 67C325.6 59.2 325.1 57.2 323.6 45.7C323.2 42.3 325.9 39.2 328.8 41.5C330.4 42.8 331.3 45.9 332.2 48.5C333.3 51.8 334.1 54.5 335.5 52.1C339.4 45.5 333.3 30.5 333.3 30.5C333.3 30.5 330.8 26.3 334.8 24.5C336.9 23.6 339 25.3 339 25.3C339 25.3 334.3 19.9 339.1 18.2C343.8 16.6 348.7 24.2 350.4 31.2C352.2 38.6 352.4 44.6 351.9 54.6C351.8 57.7 351.6 60.2 350.9 65.6V65.7C353.2 74.3 365.5 117.4 374.2 123.2C382.3 127 394.8 127.4 406.4 127.6Z" fill="#EFBEA9"/>
<path d="M383.5 160.8C383.5 160.8 384.9 137.3 387.3 125.6C389.3 126 398.7 126 407.3 126.3C418 126.7 431.4 124.9 440.9 128.2C450.4 131.5 432.9 160.5 426.8 163.4C421.8 165.7 395.8 162.6 383.5 160.8Z" fill="#FFDBD5"/>
<path d="M343.5 39.5996C343.5 39.5996 342.5 31.3996 338.9 25.8996C338.6 25.4996 338.3 24.9996 337.9 24.5996" stroke="#424D51" stroke-linecap="round" stroke-linejoin="round"/>
<path d="M332.1 48.8004C332.1 48.8004 333.1 53.4004 334.8 52.6004C336.9 51.6004 337.1 42.5004 335.7 36.7004C335.3 35.3004 334.5 32.5004 333.1 30.4004" stroke="#424D51" stroke-linecap="round" stroke-linejoin="round"/>
<path d="M491.1 396.901L524.6 387.201C514.9 346.401 506.4 304.901 494.2 264.701C487.5 242.601 482 218.401 472 197.601C470.6 194.701 414.5 196.201 413.6 201.001C410.5 215.701 411.2 230.801 410.3 245.701C409.3 262.101 408.4 278.401 407.9 294.801C407 327.701 406 360.875 407.9 394.701L441.2 391.301C443.3 350.501 446.5 309.701 448.1 268.801C448.5 260.001 449.2 251.101 449.7 242.301C462 293.801 477.4 344.601 490.8 395.901C490.9 396.301 491 396.601 491.1 396.901Z" fill="#EA7A79"/>
<path fill-rule="evenodd" clip-rule="evenodd" d="M444.3 359.4L405.5 360.9L406.8 397.7L443.1 399.6L444.3 359.4Z" fill="#FFDBD5"/>
<path fill-rule="evenodd" clip-rule="evenodd" d="M482.1 364.2L519.3 360.1L528.4 399.6L491 400.6L482.1 364.2Z" fill="#FFDBD5"/>
<path fill-rule="evenodd" clip-rule="evenodd" d="M440.5 397.5C440.5 397.5 444 397.9 444.3 400.7C444.5 402.6 443.3 403.6 442.2 404.4C442.2 404.4 443.7 405.5 445 408C446.3 410.6 448.3 415.4 446.9 418.4C446.3 419.8 410.8 416.8 410.8 416.8L373.5 415.8C373.5 415.8 375.3 408.5 384 406.6C391.7 404.9 393.4 404.9 397.3 404.6C399.7 404.4 401.7 403.5 402.8 401.6C404.4 398.8 406.1 397.6 409.2 396.5C414.3 395 435.5 396.5 440.5 397.5Z" fill="#FFB6A9"/>
<path fill-rule="evenodd" clip-rule="evenodd" d="M447.001 419.461C448.101 418.361 441.101 407.061 433.001 405.961C425.501 404.961 420.001 411.261 415.001 412.161C411.701 412.761 406.801 412.561 402.501 412.461C400.601 412.361 376.601 411.561 376.601 411.561C376.601 411.561 370.801 415.461 373.201 417.861C374.701 419.161 446.001 420.461 447.001 419.461Z" fill="#D9A48A"/>
<path fill-rule="evenodd" clip-rule="evenodd" d="M494.001 398.401C494.001 398.401 490.501 398.701 490.101 401.501C489.901 403.401 491.001 404.401 492.001 405.201C492.001 405.201 490.401 406.201 489.101 408.801C487.801 411.401 485.601 416.101 486.901 419.201C487.501 420.601 523.001 418.601 523.001 418.601H560.301C560.301 418.601 558.701 411.201 550.101 409.101C542.401 407.201 540.701 407.201 536.901 406.801C534.501 406.601 532.501 405.601 531.501 403.601C530.001 400.701 528.401 399.501 525.201 398.401C520.301 396.601 499.201 397.501 494.001 398.401Z" fill="#FFB6A9"/>
<path fill-rule="evenodd" clip-rule="evenodd" d="M486.611 420.343C485.511 419.243 492.911 408.143 501.011 407.243C508.511 406.443 513.911 412.843 518.811 414.043C522.011 414.743 527.011 414.743 531.311 414.643C533.211 414.643 557.211 414.443 557.211 414.443C557.211 414.443 562.911 418.543 560.411 420.843C558.811 422.143 487.611 421.443 486.611 420.343Z" fill="#D9A48A"/>
<path fill-rule="evenodd" clip-rule="evenodd" d="M415.501 156.4C415.501 156.4 412.701 197.9 412.901 201.7C413.101 205.6 473.101 200.6 473.101 200.6C473.101 200.6 478.101 153.4 478.101 151.4C503.601 147.7 479.701 130.2 470.801 127.9C461.101 125.4 429.801 126.1 425.201 128.2C420.701 130.4 415.501 156.4 415.501 156.4Z" fill="#FFDBD5"/>
<path d="M415.199 164.799C415.199 164.799 417.399 159.799 419.199 154.199" stroke="#424D51" stroke-linecap="round" stroke-linejoin="round"/>
<path fill-rule="evenodd" clip-rule="evenodd" d="M484.41 118.896C483.084 118.21 481.465 118.601 480.64 119.844C474.108 129.7 448.472 171.299 462.5 197.601C471.5 214.601 486.9 212.801 495.2 210.201C518.239 202.87 535.262 160.733 539.222 150.125C539.742 148.732 539.122 147.196 537.802 146.513L484.41 118.896Z" fill="#89716E"/>
<path fill-rule="evenodd" clip-rule="evenodd" d="M461.779 216.707C460.59 216.11 459.144 216.37 458.065 217.147C456.264 218.444 453.192 220.061 449.574 219.5C442.829 218.345 439.149 220.403 437.299 222.196C436.18 223.28 436.739 224.948 438.125 225.661L487.029 250.835C488.57 251.628 490.435 250.931 490.72 249.222C491.288 245.805 491.054 240.309 485.074 236.8C479.947 233.787 478.681 229.83 478.433 227.376C478.297 226.033 477.638 224.679 476.432 224.073L461.779 216.707Z" fill="#89716E"/>
<path d="M500.7 201.7C503.4 201.1 505.9 200.2 508.2 198.9C514.3 195.7 517.9 190.6 521.7 185C523.1 183 525.1 180 526.6 177.4C526.6 177.4 536.2 200.3 525.9 216.3C512.4 237.2 479.9 228.4 467.7 222.7C464.5 221.3 461 219.6 457.2 217.1C454.3 215.2 450.7 211.3 450.1 208.5C449.5 206 450.9 204.7 450.9 204.7C450.9 204.7 449.4 203.5 449.8 201.1C450.2 198.5 451.6 198.1 451.6 198.1C451.6 198.1 450.7 195.7 451.8 193.6C452.9 191.5 454.6 191.2 454.6 191.2C454.6 191.2 454 189.3 455.9 187.5C457.4 186 458.9 186.3 458.9 186.3C458.9 186.3 459.9 189.2 461.8 191.5C462.7 192.6 465 193.9 465 193.9C465 193.9 462.8 188.5 462.9 186.2C462.9 183.2 464.7 180.9 466.5 181.1C468.4 181.2 469 182.6 471.2 187.4C472.3 189.8 474.5 191.6 476.1 193.7C476.8 194.6 477.6 195.7 478 196.8C479.1 199.5 478.9 201.6 482.3 202.2C488 203.2 494.7 203.2 500.7 201.7Z" fill="#EFBEA9"/>
<path d="M458.3 198.401C458.3 198.401 453.2 194.401 454.2 190.801" stroke="#424D51" stroke-linecap="round" stroke-linejoin="round"/>
<path d="M455.5 203.3C453.7 202.4 451.3 199.9 451 198" stroke="#424D51" stroke-linecap="round" stroke-linejoin="round"/>
<path d="M453.2 207.599C451.8 206.899 451.2 205.899 450.5 204.699" stroke="#424D51" stroke-linecap="round" stroke-linejoin="round"/>
<path d="M456.901 126.6C452.601 126 443.801 125.8 433.501 125.5C417.301 124.9 428.301 135.1 441.701 138.9C446.701 140.3 456.201 141.4 460.501 135.1C463.501 130.6 462.301 127.4 456.901 126.6Z" fill="#EFBEA9"/>
<path fill-rule="evenodd" clip-rule="evenodd" d="M455.734 83.0371C455.734 83.0371 463.466 77.1323 469.439 89.8049C473.212 97.7908 471.046 108.501 469.371 111.682C467.544 115.15 464.363 120.919 452.232 118.111C450.98 117.823 446.733 118.923 446.733 118.923C446.733 118.923 427.936 121.309 427.936 99.8211C427.936 92.6473 430.778 88.2821 433.587 84.6445C436.564 80.8546 448.797 74.5775 455.734 83.0371Z" fill="#AF836B"/>
<path fill-rule="evenodd" clip-rule="evenodd" d="M433.942 126.519C432.385 129.142 456.631 132.526 456.682 129.599C456.783 124.489 456.986 121.511 457.392 112.375C457.612 107.57 452.401 107.807 449.643 107.502C444.415 106.91 442.3 112.358 442.3 112.358C442.3 112.358 435.515 123.914 433.942 126.519Z" fill="#EFBEA9"/>
<path fill-rule="evenodd" clip-rule="evenodd" d="M442.976 108.145C442.655 109.854 442.384 117.18 447.629 121.038C451.791 124.117 456.799 123.677 456.799 123.677C456.799 123.677 457.662 114.355 457.612 113.475C457.544 112.612 443.213 106.927 442.976 108.145Z" fill="#424D51"/>
<path fill-rule="evenodd" clip-rule="evenodd" d="M441.353 102.392C441.353 102.392 441.082 117.231 449.931 118.635C458.779 120.039 460.793 112.815 460.979 112.29C461.165 111.766 462.84 99.127 461.267 95.134C459.693 91.1411 454.651 85.4731 448.002 86.9789C441.319 88.5016 440.49 93.0022 440.287 96.9275C440.168 99.0762 441.353 102.392 441.353 102.392Z" fill="#EFBEA9"/>
<path fill-rule="evenodd" clip-rule="evenodd" d="M443.264 99.6175C442.909 98.5178 438.375 93.442 434.449 96.9274C431.878 99.2284 432.825 101.8 434.145 103.221C435.82 105.049 438.172 105.708 440.71 104.829C443.231 103.966 443.332 102.325 443.535 101.783C443.84 100.92 443.518 100.362 443.264 99.6175Z" fill="#EFBEA9"/>
<path fill-rule="evenodd" clip-rule="evenodd" d="M458.83 99.7191C459.185 98.6194 463.72 93.5436 467.645 97.0289C470.217 99.33 469.269 101.902 467.95 103.323C466.275 105.15 463.923 105.81 461.385 104.93C458.864 104.05 458.746 102.426 458.559 101.885C458.255 101.022 458.576 100.464 458.83 99.7191Z" fill="#EFBEA9"/>
<path fill-rule="evenodd" clip-rule="evenodd" d="M444.703 93.7471C444.703 93.7471 452.215 97.8077 459.118 93.7132C459.169 93.6794 459.735 97.1965 461.663 96.7735C461.663 96.7735 462.62 85.372 451.606 85.6596C439.711 85.9811 439.77 96.6361 440.345 96.6361C442.46 96.6361 444.703 93.7471 444.703 93.7471Z" fill="#AF836B"/>
<path d="M448.203 107.07C449.134 110.666 452.729 109.566 452.729 109.566" stroke="#424D51" stroke-width="0.676772" stroke-linecap="round" stroke-linejoin="round"/>
<path d="M452.12 103.539C452.12 103.539 453.622 104.3 453.372 105.37C453.123 106.439 451.94 106.283 451.195 106.112" stroke="#424D51" stroke-width="0.676772" stroke-linecap="round" stroke-linejoin="round"/>
<path d="M454.464 101.877C454.464 101.877 455.422 100.357 456.987 100.222C458.553 100.087 459.286 100.98 459.794 101.995" stroke="#424D51" stroke-width="0.676772" stroke-linecap="round" stroke-linejoin="round"/>
<path fill-rule="evenodd" clip-rule="evenodd" d="M456.518 100.538C457.008 100.205 457.675 100.316 458.009 100.783C458.343 101.273 458.254 101.941 457.765 102.274C457.275 102.608 456.607 102.519 456.273 102.03C455.939 101.562 456.051 100.895 456.518 100.538Z" stroke="#424D51" stroke-width="0.676772" stroke-linecap="round" stroke-linejoin="round"/>
<path d="M444.163 101.878C444.163 101.878 445.121 100.358 446.686 100.222C448.251 100.087 448.985 100.98 449.493 101.996" stroke="#424D51" stroke-width="0.676772" stroke-linecap="round" stroke-linejoin="round"/>
<path fill-rule="evenodd" clip-rule="evenodd" d="M446.217 100.539C446.707 100.205 447.374 100.316 447.708 100.784C448.042 101.273 447.953 101.941 447.463 102.275C446.974 102.609 446.306 102.52 445.972 102.03C445.638 101.563 445.749 100.895 446.217 100.539Z" stroke="#424D51" stroke-width="0.676772" stroke-linecap="round" stroke-linejoin="round"/>
<path d="M464.959 98.6533C464.959 98.6533 463.764 99.0516 462.874 100.38M462.218 101.766C462.388 101.219 462.619 100.761 462.874 100.38M462.874 100.38C463.308 100.322 464.333 100.298 464.959 100.67" stroke="#424D51" stroke-width="0.676772" stroke-linecap="round" stroke-linejoin="round"/>
<path d="M438.243 98.5308C438.243 98.5308 439.438 98.9291 440.328 100.257M440.984 101.644C440.814 101.097 440.584 100.639 440.328 100.257M440.328 100.257C439.894 100.199 438.869 100.175 438.243 100.548" stroke="#424D51" stroke-width="0.676772" stroke-linecap="round" stroke-linejoin="round"/>
<path d="M598.843 442.819C597.985 473.369 611.462 481.121 618.308 481.178C638.814 486.87 664.656 456.339 677.646 438.016C690.635 419.693 677.932 416.747 668.894 421.155C658.669 426.142 644.454 435.862 637.236 442.699L647.789 424.262C653.052 414.529 662.639 394.104 658.883 390.262C654.187 385.46 644.753 391.199 638.124 402.024C632.914 410.533 620.241 432.088 615.998 443.021C616.497 428.883 618.167 406.112 617.855 398.522C617.136 381.034 601.494 385.719 601.398 397.827C600.904 400.095 599.701 412.269 598.843 442.819Z" fill="#ECECEC"/>
<path d="M89.899 488.698C86.9345 494.99 78.5805 496.159 74.774 495.958C71.9083 496.042 62.2261 494.152 59.649 491.042C55.263 485.748 63.6578 468.505 73.4884 461.851C80.3669 457.194 84.3027 461.573 85.8909 464.951C88.4621 470.245 92.8635 482.406 89.899 488.698Z" fill="#F8F8F8"/>
<path d="M685.759 497.22H536.263C538.259 491.611 545.259 481.111 556.228 475.742C568.738 469.619 576.596 475.037 579.218 478.465C594.343 469.692 646.675 447.308 672.388 452.753C692.958 457.109 689.691 485.019 685.759 497.22Z" fill="#F8F8F8"/>
<path d="M47.3517 495.031C43.2361 494.234 43.0283 491.838 43.4889 489.431C43.7056 488.298 44.4373 486.104 46.0235 483.581C48.9442 478.934 55.6263 478.588 58.3922 480.303C61.1581 482.017 64.4402 484.004 67.7592 486.526C71.908 489.679 71.7006 493.704 69.0907 495.031C66.1277 496.537 52.4962 496.026 47.3517 495.031Z" fill="#ECECEC"/>
<path d="M92.8929 502.734C91.2099 503.246 84.8257 492.054 81.844 486.394C81.2188 484.34 80.6703 480.38 83.4771 480.971C86.9856 481.709 90.6121 489.307 92.2522 493.077C93.8922 496.847 94.9967 502.093 92.8929 502.734Z" fill="#E1E1E1"/>
<path d="M98.5344 496.994C97.4903 493.564 96.5302 484.387 96.3612 480.415C96.0593 476.035 98.5039 476.397 99.6082 477.867C100.713 479.337 102.046 487.223 102.209 490.457C102.373 493.691 103.183 498.781 102.17 499.499C101.158 500.218 99.4492 499.999 98.5344 496.994Z" fill="#E1E1E1"/>
<path d="M107.769 496.317C106.567 495.173 107.741 488.582 108.478 485.429C109.149 482.105 111.16 480.754 113.054 482.394C114.949 484.034 111.49 493.707 111.075 495.311C110.661 496.915 109.272 497.748 107.769 496.317Z" fill="#E1E1E1"/>
</svg>
