<svg width="732" height="522" viewBox="0 0 732 522" fill="none" xmlns="http://www.w3.org/2000/svg">
<path d="M670.343 333.55L74.7762 343.911C71.5016 343.911 68.9052 341.15 69.1067 337.882L72.3483 169.025C72.5329 166.029 70.1531 163.498 67.1517 163.498C62.0543 163.498 59.9937 156.931 64.1773 154.019L165.948 83.1784C167.981 81.7634 170.696 81.8287 172.658 83.3398L274.131 161.474C277.935 164.403 275.864 170.487 271.064 170.487C268.287 170.487 266.035 172.738 266.035 175.515V275.456C266.035 278.593 268.579 281.137 271.716 281.137H304.655C306.038 281.137 307.374 280.632 308.411 279.717L411.215 189.073C413.425 187.124 416.759 187.189 418.892 189.222L513.644 279.567C514.7 280.575 516.104 281.137 517.563 281.137H558.528C561.665 281.137 564.208 278.593 564.208 275.456V190.201C564.208 187.675 562.161 185.628 559.635 185.628C555.206 185.628 553.364 179.962 556.946 177.357L618.839 132.343C620.956 130.804 623.851 130.91 625.849 132.601L686.315 183.765C690.355 187.183 687.938 193.781 682.646 193.781H681.703C678.566 193.781 676.023 196.324 676.023 199.462V327.87C676.023 331.007 673.48 333.55 670.343 333.55Z" fill="#F8F8F8"/>
<ellipse cx="251.269" cy="416.604" rx="23.0175" ry="5.40778" fill="#F8F8F8"/>
<ellipse cx="102.839" cy="374.741" rx="11.8561" ry="2.78549" fill="#F8F8F8"/>
<ellipse cx="382.654" cy="418.767" rx="23.0175" ry="5.40778" fill="#F8F8F8"/>
<ellipse cx="323.772" cy="413.356" rx="12.638" ry="2.96919" fill="#F8F8F8"/>
<ellipse cx="73.4759" cy="409.055" rx="12.638" ry="2.96919" fill="#F8F8F8"/>
<ellipse cx="448.991" cy="400.707" rx="6.31899" ry="1.48459" fill="#F8F8F8"/>
<ellipse cx="191.288" cy="439.327" rx="6.31899" ry="1.48459" fill="#F8F8F8"/>
<ellipse cx="157.171" cy="413.509" rx="4.82352" ry="1.13325" fill="#F8F8F8"/>
<path d="M105.655 352.727H38.453C26.0154 322.875 54.8854 326.127 62.1216 333.194C55.7534 324.847 55.7291 301.266 69.2692 295.921C93.2928 286.438 102.808 328.346 105.655 352.727Z" fill="#ECECEC"/>
<path d="M670.263 400.352C659.838 403.827 648.605 420.018 644.201 428.042H561.853C555.337 414.649 537.42 417.907 534.886 419.717C532.353 421.527 516.423 422.071 526.923 409.763C539.964 394.477 562.698 402.825 571.264 407.772C571.083 405.661 568.332 399.41 558.776 391.303C548.777 382.818 555.176 376.382 565.835 380.624C575.499 384.471 585.2 401.437 585.2 401.437C585.2 401.437 589.76 370.97 599.498 357.639C608.818 344.881 615.967 354.383 612.348 363.793C609.227 371.906 607.039 384.425 607.099 390.036C613.916 381.228 632.357 363.956 649.992 358.906C669.267 353.386 672.434 367.175 661.213 370.851C649.992 374.527 625.314 406.277 625.314 406.277C625.314 406.277 646.314 391.303 668.272 396.913C672.09 397.888 672.841 399.492 670.263 400.352Z" fill="#ECECEC"/>
<path fill-rule="evenodd" clip-rule="evenodd" d="M435.051 431.399L400.351 434.899C400.351 434.899 386.251 352.299 386.251 342.499C386.151 327.699 399.151 301.099 402.951 293.999C417.651 265.899 423.251 254.899 439.251 261.999C448.851 266.299 449.851 276.699 444.851 290.699C441.951 298.699 423.451 338.399 423.851 341.999C425.051 353.199 435.051 431.399 435.051 431.399Z" fill="#EFD9CE"/>
<path fill-rule="evenodd" clip-rule="evenodd" d="M432.45 398.799L394.35 402.199L400.65 437.899L437.05 435.699L432.45 398.799Z" fill="#CBE4FC"/>
<path fill-rule="evenodd" clip-rule="evenodd" d="M433.95 432.999C433.95 432.999 437.45 433.199 437.85 436.099C438.15 437.999 437.05 438.999 435.95 439.799C435.95 439.799 437.55 440.799 438.95 443.299C440.35 445.799 442.55 450.599 441.25 453.699C440.65 455.099 405.15 453.499 405.15 453.499L367.85 453.999C367.85 453.999 369.35 446.599 377.95 444.399C385.65 442.399 387.35 442.299 391.15 441.899C393.55 441.599 395.45 440.599 396.45 438.699C397.95 435.799 399.55 434.599 402.65 433.399C407.65 431.499 428.75 432.199 433.95 432.999Z" fill="#93BEFA"/>
<path fill-rule="evenodd" clip-rule="evenodd" d="M441.251 453.999C442.351 452.799 434.851 441.899 426.751 441.099C419.251 440.399 413.951 446.899 409.051 448.099C405.851 448.899 400.851 448.899 396.551 448.899C394.651 448.899 370.651 448.999 370.651 448.999C370.651 448.999 364.951 453.199 367.551 455.399C369.051 456.599 440.251 454.999 441.251 453.999Z" fill="#EFD9CE"/>
<path fill-rule="evenodd" clip-rule="evenodd" d="M405.051 444.899C407.151 445.199 409.051 443.899 409.351 441.899C409.651 439.899 408.251 437.999 406.151 437.699C404.051 437.399 402.151 438.699 401.851 440.699C401.551 442.599 402.951 444.499 405.051 444.899Z" fill="#CBE4FC"/>
<path fill-rule="evenodd" clip-rule="evenodd" d="M457.05 434.9L491.85 432.6C491.85 432.6 490.45 353.4 490.25 345.2C490.05 335.6 489.65 333.3 489.45 324.1C488.95 297.9 488.45 281 459.95 285.5C449.55 287.1 449.85 301 450.55 311C451.15 319.5 452.95 337.4 453.35 344.8C453.85 356.2 457.05 434.9 457.05 434.9Z" fill="#EFD9CE"/>
<path fill-rule="evenodd" clip-rule="evenodd" d="M455.35 401.1L492.35 399.4L492.05 435.7L456.45 436.2L455.35 401.1Z" fill="#CBE4FC"/>
<path fill-rule="evenodd" clip-rule="evenodd" d="M458.552 433.999C458.552 433.999 455.052 434.199 454.652 437.099C454.452 438.999 455.552 440.099 456.552 440.799C456.552 440.799 454.952 441.799 453.652 444.399C452.352 446.899 450.152 451.699 451.452 454.799C452.052 456.199 487.552 454.299 487.552 454.299L524.852 454.399C524.852 454.399 523.252 446.999 514.652 444.899C506.952 442.999 505.252 442.899 501.452 442.499C499.052 442.199 497.052 441.299 496.052 439.299C494.552 436.399 492.952 435.199 489.752 433.999C484.852 432.299 463.652 433.099 458.552 433.999Z" fill="#93BEFA"/>
<path fill-rule="evenodd" clip-rule="evenodd" d="M451.351 455C450.251 453.9 457.651 442.8 465.751 442C473.251 441.2 478.651 447.7 483.551 448.8C486.751 449.5 491.751 449.5 496.051 449.4C497.951 449.4 521.951 449.3 521.951 449.3C521.951 449.3 527.651 453.4 525.151 455.7C523.651 457 452.351 456.1 451.351 455Z" fill="#EFD9CE"/>
<path fill-rule="evenodd" clip-rule="evenodd" d="M487.551 445.6C485.451 445.9 483.551 444.6 483.251 442.6C482.951 440.6 484.351 438.7 486.351 438.4C488.451 438.1 490.351 439.4 490.651 441.4C490.951 443.3 489.551 445.2 487.551 445.6Z" fill="#CBE4FC"/>
<path fill-rule="evenodd" clip-rule="evenodd" d="M449.551 316.714L489.851 314.314C489.851 314.314 486.651 259.414 484.351 250.214C483.551 247.114 427.151 245.014 425.951 246.214C420.851 251.214 397.451 301.914 397.451 301.914L434.451 316.214L448.951 285.014L449.551 316.714Z" fill="#FFB6A9"/>
<mask id="mask0_12_3489" style="mask-type:alpha" maskUnits="userSpaceOnUse" x="397" y="245" width="93" height="72">
<path fill-rule="evenodd" clip-rule="evenodd" d="M449.551 316.714L489.851 314.314C489.851 314.314 486.651 259.414 484.351 250.214C483.551 247.114 427.151 245.014 425.951 246.214C420.851 251.214 397.451 301.914 397.451 301.914L434.451 316.214L448.951 285.014L449.551 316.714Z" fill="#FFB6A9"/>
</mask>
<g mask="url(#mask0_12_3489)">
<path fill-rule="evenodd" clip-rule="evenodd" d="M727.13 217.324C721.731 219.937 714.845 219.458 706.464 215.27C704.619 214.348 703.202 212.611 702.035 210.591C700.859 208.554 699.848 206.072 698.892 203.47C698.426 202.203 697.973 200.909 697.518 199.611C696.073 195.483 694.614 191.319 692.707 187.887C690.215 183.401 687.22 180.647 682.946 180.763C678.466 180.884 672.096 184.125 662.882 193.218C653.745 202.237 648.961 210.257 647.059 217.311C645.165 224.334 646.102 230.498 648.592 235.895C649.136 237.073 649.754 238.216 650.434 239.322C655.777 234.829 663.593 231.093 674.846 228.078C678.297 227.153 681.211 227.1 683.605 227.819C686.025 228.546 687.81 230.033 689.018 231.982C691.383 235.801 691.487 241.292 690.334 246.419C689.173 251.581 686.663 256.729 683.36 259.977C681.702 261.608 679.78 262.822 677.665 263.241C675.513 263.668 673.288 263.245 671.138 261.819C665.092 257.808 656.059 251.7 649.969 243.333C649.872 243.433 649.776 243.534 649.681 243.635C644.9 248.724 643.089 254.675 642.624 261.612C642.329 266.013 643.107 269.532 644.452 272.297C645.928 271.093 647.35 270.142 648.713 269.414C653.452 266.881 657.549 267.022 660.468 268.775C663.332 270.495 664.844 273.658 664.593 276.668C664.335 279.773 662.217 282.582 658.189 283.502C656.75 283.831 654.826 283.63 652.849 282.98C650.838 282.32 648.646 281.157 646.647 279.413C645.645 278.54 644.696 277.523 643.844 276.357C641.096 279.023 638.1 282.687 634.918 287.612C628.982 296.798 622.263 301.526 615.612 303.065C608.968 304.603 602.598 302.91 597.453 299.654C593.723 297.293 590.592 294.084 588.421 290.605C587.58 290.285 586.735 289.957 585.889 289.628C582.223 288.205 578.526 286.77 574.985 285.951C569.827 284.759 565.668 285.048 562.897 288.183C560.004 291.455 558.222 298.209 559.122 311.128C560.013 323.935 562.984 332.789 567.097 338.826C571.193 344.837 576.48 348.142 582.197 349.767C583.415 350.113 584.652 350.383 585.902 350.587C586.058 343.652 588.241 335.43 593.365 324.755C594.911 321.533 596.769 319.288 598.874 317.94C601.001 316.577 603.293 316.19 605.559 316.544C609.996 317.236 614.231 320.734 617.371 324.949C620.531 329.191 622.803 334.449 623.116 339.071C623.274 341.391 622.943 343.641 621.883 345.518C620.805 347.429 619.035 348.842 616.553 349.544C609.538 351.529 598.953 354.423 588.591 353.555L588.594 353.604C588.596 353.629 588.598 353.655 588.6 353.68C589.109 360.652 591.92 366.168 595.662 372.189C598.09 376.094 602.213 377.793 606.624 378.089C606.478 376.029 606.514 374.265 606.704 372.762C606.995 370.471 607.657 368.697 608.665 367.416C609.693 366.11 611.018 365.398 612.446 365.152C615.197 364.676 618.197 365.931 620.405 367.423C621.537 368.188 622.544 369.069 623.294 369.943C623.994 370.759 624.647 371.771 624.72 372.788C624.799 373.891 624.216 374.855 623.538 375.588C622.836 376.347 621.859 377.051 620.736 377.673C618.481 378.921 615.418 379.96 612.125 380.452C611.284 380.577 610.418 380.668 609.539 380.716C610.014 384.2 610.961 388.517 612.534 393.828C615.638 404.314 614.849 412.492 611.685 418.542C608.524 424.585 603.091 428.316 597.269 430.099C591.464 431.877 585.18 431.75 580.168 429.985C575.173 428.226 571.181 424.719 570.613 419.601C569.587 410.369 572.669 401.889 576.343 395.208C579.162 390.082 582.418 385.881 584.47 383.233L584.472 383.231L584.472 383.231C585.08 382.446 585.583 381.798 585.937 381.302C586.641 380.316 587.453 378.584 587.85 376.619C588.247 374.654 588.198 372.612 587.379 370.907C586.587 369.256 584.984 367.733 581.873 366.914C578.715 366.081 574.033 365.989 567.242 367.282C561.945 368.291 557.607 369.885 554.142 371.772C554.543 372.741 554.896 373.683 555.203 374.596C556.927 379.725 557.24 384.11 556.133 387.348C555.573 388.989 554.643 390.344 553.348 391.31C552.055 392.274 550.474 392.794 548.698 392.888C545.196 393.072 542.507 391.717 541.202 389.199C539.939 386.762 540.159 383.585 541.618 380.447C543.176 377.093 546.202 373.619 550.8 370.696C547.72 364.113 542.4 356.222 534.348 347.501C533.523 348.832 532.602 350.095 531.578 351.282C533.467 353.079 534.922 355.293 535.974 357.839C538.395 363.697 538.657 371.234 537.424 379.372C536.188 387.534 533.429 396.431 529.667 405.101C522.161 422.394 510.545 439.041 498.714 447.191C492.794 451.269 486.625 453.348 480.813 452.031C474.964 450.706 469.88 446.037 465.941 437.535C465.074 435.664 465.05 433.422 465.398 431.116C465.749 428.79 466.507 426.219 467.382 423.589C467.808 422.309 468.261 421.015 468.715 419.717L468.716 419.716C470.16 415.588 471.617 411.423 472.268 407.551C473.118 402.49 472.494 398.47 469.081 395.894C465.504 393.195 458.503 391.755 445.63 393.116C432.862 394.466 424.121 397.751 418.235 402.078C412.374 406.387 409.261 411.788 407.842 417.56C407.532 418.821 407.302 420.1 407.143 421.388C414.123 421.209 422.562 423.164 433.238 427.825C436.513 429.255 438.823 431.031 440.246 433.086C441.684 435.164 442.153 437.44 441.88 439.717C441.347 444.176 438.003 448.534 433.904 451.822C429.777 455.133 424.604 457.591 419.997 458.07C417.684 458.31 415.424 458.06 413.509 457.069C411.561 456.06 410.086 454.342 409.295 451.886C407.07 444.98 403.82 434.572 404.278 424.233C404.14 424.251 404.002 424.27 403.865 424.289C396.954 425.285 391.826 428.807 387.136 433.939C384.16 437.196 382.574 440.431 381.9 443.432C383.805 443.411 385.51 443.555 387.029 443.835C392.313 444.811 395.428 447.477 396.616 450.668C397.782 453.799 396.991 457.214 394.917 459.411C392.779 461.677 389.371 462.552 385.649 460.758C384.32 460.117 382.941 458.76 381.8 457.019C380.64 455.249 379.652 452.973 379.178 450.363C378.94 449.055 378.831 447.669 378.893 446.226C375.082 446.596 370.456 447.591 364.895 449.456C354.527 452.933 346.326 452.438 340.167 449.493C334.015 446.551 330.091 441.254 328.101 435.5C326.116 429.763 326.018 423.478 327.602 418.406C329.181 413.351 332.544 409.237 337.637 408.485C346.827 407.129 355.412 409.905 362.22 413.338C367.444 415.972 371.759 419.075 374.479 421.031C375.286 421.612 375.952 422.091 376.46 422.427C377.471 423.096 379.231 423.846 381.209 424.172C383.187 424.498 385.226 424.376 386.901 423.497C388.523 422.645 389.987 420.989 390.694 417.851C391.413 414.665 391.338 409.983 389.802 403.243C388.604 397.985 386.855 393.707 384.846 390.311C383.892 390.747 382.963 391.133 382.062 391.473C376.997 393.379 372.627 393.849 369.351 392.86C367.691 392.358 366.304 391.477 365.292 390.218C364.282 388.961 363.705 387.399 363.548 385.628C363.239 382.134 364.497 379.399 366.967 378.004C369.357 376.654 372.539 376.76 375.728 378.106C379.135 379.543 382.716 382.443 385.801 386.933C392.269 383.619 399.965 378.02 408.392 369.661C401.006 365.443 395.52 358.284 393.048 347.329C389.898 333.366 391.662 324.424 396.249 319.733C400.799 315.081 407.617 315.089 413.608 317.83C413.998 316.543 414.632 315.319 415.545 314.199C421.413 306.999 429.624 303.257 436.964 301.198C442.598 299.618 447.876 298.998 451.204 298.607L451.205 298.607C452.191 298.491 453.007 298.396 453.608 298.301C454.806 298.113 456.611 297.479 458.291 296.385C459.971 295.292 461.393 293.826 462.037 292.047C462.66 290.325 462.623 288.115 461.029 285.32C459.41 282.484 456.196 279.078 450.515 275.139C446.084 272.066 441.907 270.088 438.133 268.937C437.722 269.902 437.298 270.814 436.861 271.672C434.409 276.496 431.5 279.792 428.414 281.271C426.851 282.02 425.232 282.306 423.636 282.059C422.042 281.812 420.562 281.048 419.252 279.847C416.667 277.477 415.75 274.609 416.632 271.913C417.486 269.304 419.907 267.236 423.169 266.078C426.653 264.841 431.252 264.566 436.559 265.799C439.098 258.989 441.002 249.664 441.583 237.809C433.286 239.678 424.407 238.094 415.192 231.674C403.447 223.492 398.717 215.701 398.939 209.145C399.164 202.499 404.42 197.848 410.882 195.9C417.376 193.944 425.451 194.561 432.055 198.708C438.716 202.891 443.741 210.574 444.231 222.441C444.403 226.606 444.434 230.555 444.339 234.287C451.269 231.85 457.761 226.829 463.668 220.284C476.841 205.686 486.734 183.916 491.798 168.276L491.823 168.202L491.855 168.13C497.489 155.938 503.451 148.284 509.545 144.356C515.73 140.369 521.961 140.283 527.787 143.015C533.526 145.706 538.804 151.093 543.384 157.932C547.978 164.791 551.943 173.22 555.014 182.158C559.548 195.354 562.181 209.808 561.931 222.104C563.959 222.93 565.991 223.832 568.014 224.801C584.036 232.471 599.716 244.44 608.183 256.86C609.109 258.219 609.954 259.59 610.704 260.966C616.275 259.838 621.412 259.581 624.679 259.417L624.68 259.417L624.68 259.417C625.672 259.367 626.492 259.326 627.099 259.272C628.306 259.164 630.149 258.653 631.899 257.674C633.648 256.695 635.166 255.328 635.927 253.596C636.663 251.919 636.775 249.712 635.37 246.817C633.945 243.878 630.966 240.266 625.561 235.955C621.345 232.593 617.31 230.34 613.622 228.939C613.147 229.874 612.663 230.756 612.17 231.583C609.4 236.232 606.278 239.326 603.099 240.595C601.49 241.239 599.856 241.415 598.28 241.062C596.706 240.71 595.281 239.848 594.053 238.562C591.632 236.024 590.909 233.102 591.97 230.471C592.997 227.925 595.55 226.023 598.882 225.086C602.441 224.084 607.049 224.117 612.261 225.703C615.25 219.078 617.773 209.901 619.146 198.111C610.742 199.421 601.989 197.247 593.224 190.226C582.053 181.277 577.854 173.187 578.514 166.66C579.183 160.043 584.738 155.754 591.316 154.244C597.926 152.726 605.942 153.882 612.253 158.461C618.62 163.08 623.12 171.081 622.816 182.955C622.709 187.122 622.475 191.064 622.131 194.782C629.209 192.813 636.022 188.238 642.353 182.102C656.473 168.418 667.8 147.358 673.898 132.093L673.928 132.019L673.965 131.95C680.402 120.163 686.862 112.924 693.205 109.412C699.643 105.848 705.866 106.179 711.496 109.294C717.042 112.364 721.948 118.091 726.06 125.221C730.185 132.372 733.578 141.047 736.044 150.17C740.964 168.369 742.268 188.626 738.103 202.376C736.019 209.256 732.495 214.728 727.13 217.324ZM413.142 320.515C413.05 320.469 412.957 320.424 412.865 320.379C407.344 317.728 401.688 317.925 398.125 321.568C394.501 325.274 392.515 333.041 395.608 346.751C398.004 357.373 403.318 363.957 410.309 367.724C413.042 364.913 415.846 361.815 418.705 358.414C424.128 351.964 426.123 345.7 425.968 340.146C420.985 337.239 416.974 332.874 414.829 328.292C413.641 325.752 412.999 323.07 413.142 320.515ZM425.611 336.813C421.848 334.218 418.869 330.734 417.206 327.18C416.384 325.423 415.899 323.694 415.776 322.065C420.058 324.988 423.684 329.56 425.206 335.068C425.364 335.639 425.5 336.221 425.611 336.813ZM428.5 338.543C428.368 337.11 428.108 335.716 427.736 334.369C425.886 327.679 421.29 322.267 415.991 319.087C416.272 317.905 416.797 316.816 417.579 315.857C422.969 309.244 430.597 305.709 437.673 303.725C443.074 302.21 447.999 301.63 451.345 301.236C452.406 301.111 453.308 301.004 454.016 300.893C455.606 300.643 457.757 299.864 459.722 298.584C461.688 297.305 463.601 295.437 464.504 292.94C465.428 290.386 465.222 287.375 463.307 284.02C461.417 280.707 457.853 277.034 452.01 272.983C447.471 269.835 443.116 267.741 439.101 266.491C441.777 259.219 443.709 249.408 444.243 237.086C452.118 234.583 459.289 229.053 465.616 222.042C479.117 207.081 489.143 184.965 494.27 169.16C499.806 157.202 505.491 150.091 510.967 146.561C516.363 143.083 521.634 143.027 526.673 145.391C531.799 147.795 536.75 152.742 541.204 159.392C545.644 166.021 549.517 174.234 552.532 183.01C556.892 195.698 559.41 209.418 559.321 221.08C554.193 219.15 549.131 217.726 544.358 216.944C536.919 215.724 530.041 216.04 524.71 218.583C522.056 219.849 519.826 221.649 518.119 224.017C517.601 223.058 517.063 222.134 516.499 221.263C513.533 216.675 509.574 213.08 503.834 213.621C498.297 214.143 491.57 218.51 482.93 228.262C474.219 238.094 469.689 246.825 468.145 254.586C466.594 262.377 468.074 269.087 471.187 274.795C471.94 276.176 472.789 277.497 473.713 278.762C473.491 279.015 473.275 279.268 473.066 279.524C468.13 285.538 466.631 292.26 466.631 299.597C466.631 304.805 467.926 308.909 469.886 312.058C467.034 315.14 464.052 319.303 461.011 324.781C455.942 333.912 450.035 338.519 444.315 340.253C438.789 341.928 433.249 340.981 428.5 338.543ZM428.59 341.497C428.407 347.349 426.081 353.718 420.714 360.103C418.031 363.293 415.39 366.229 412.802 368.921C419.562 371.796 427.741 372.469 436.517 371.622C452.302 370.099 469.661 363.691 483.283 357.005C479.483 352.236 479.975 345.681 482.935 340.046C486.088 334.042 492.186 328.713 499.772 326.906C507.424 325.083 516.426 326.881 525.237 334.845C528.33 337.64 531.169 340.385 533.766 343.068C536.882 336.415 537.848 328.265 537.316 319.465C536.129 299.838 527.526 277.526 519.915 262.955L519.878 262.886L519.851 262.812C515.101 250.257 513.574 240.56 514.599 233.311C514.954 230.808 515.613 228.598 516.544 226.67C515.837 225.264 515.094 223.922 514.296 222.688C511.509 218.378 508.338 215.832 504.08 216.233C499.618 216.654 493.479 220.313 484.894 230.002C476.38 239.611 472.144 247.934 470.718 255.098C469.298 262.233 470.644 268.32 473.49 273.538C474.112 274.678 474.805 275.777 475.557 276.835C480.588 271.995 488.137 267.745 499.162 263.984C502.544 262.83 505.448 262.582 507.884 263.139C510.347 263.703 512.229 265.067 513.564 266.931C516.179 270.583 516.65 276.055 515.842 281.248C515.029 286.476 512.869 291.781 509.791 295.242C508.246 296.98 506.409 298.32 504.327 298.88C502.208 299.449 499.96 299.176 497.719 297.897C491.418 294.3 481.997 288.809 475.361 280.868C475.271 280.975 475.182 281.082 475.094 281.188C470.665 286.586 469.255 292.644 469.255 299.597C469.255 304.009 470.267 307.467 471.794 310.137C473.186 308.836 474.541 307.792 475.852 306.975C480.411 304.13 484.509 303.997 487.538 305.551C490.511 307.076 492.231 310.13 492.182 313.151C492.132 316.266 490.207 319.211 486.249 320.397C484.836 320.821 482.903 320.75 480.886 320.234C478.835 319.71 476.571 318.696 474.46 317.09C473.402 316.285 472.387 315.334 471.458 314.228C468.895 317.071 466.151 320.927 463.305 326.055C457.997 335.616 451.609 340.783 445.076 342.764C439.289 344.518 433.547 343.724 428.59 341.497ZM485.229 358.97C471.308 365.886 453.273 372.641 436.769 374.234C427.369 375.141 418.345 374.387 410.843 370.922C402.137 379.657 394.091 385.596 387.211 389.159C389.331 392.79 391.133 397.274 392.36 402.66C393.94 409.592 394.093 414.707 393.254 418.428C392.404 422.197 390.525 424.558 388.12 425.82C385.769 427.054 383.097 427.142 380.783 426.761C378.469 426.379 376.355 425.504 375.013 424.616C374.415 424.22 373.678 423.69 372.811 423.067L372.81 423.067C370.074 421.1 366.047 418.206 361.038 415.681C354.476 412.372 346.461 409.835 338.02 411.081C334.3 411.63 331.518 414.669 330.107 419.188C328.701 423.689 328.767 429.399 330.581 434.643C332.389 439.87 335.9 444.544 341.299 447.126C346.692 449.705 354.16 450.289 364.061 446.968C370.002 444.975 375.011 443.914 379.195 443.563C379.873 439.917 381.686 436.014 385.199 432.169C390.149 426.753 395.79 422.802 403.491 421.692C403.818 421.645 404.148 421.603 404.482 421.566C404.653 420.009 404.918 418.461 405.294 416.934C406.846 410.62 410.281 404.669 416.681 399.964C423.056 395.277 432.291 391.887 445.354 390.506C458.31 389.136 466.222 390.45 470.661 393.8C475.264 397.273 475.76 402.597 474.855 407.985C474.164 412.102 472.599 416.572 471.138 420.743L471.137 420.746C470.697 422.003 470.266 423.233 469.872 424.418C469.005 427.022 468.308 429.415 467.993 431.507C467.674 433.618 467.774 435.249 468.322 436.432C472.07 444.522 476.632 448.393 481.393 449.472C486.191 450.559 491.599 448.906 497.226 445.03C508.488 437.272 519.851 421.125 527.26 404.056C530.954 395.544 533.635 386.868 534.83 378.979C536.028 371.066 535.711 364.074 533.549 358.841C532.638 356.637 531.396 354.732 529.777 353.19C525.358 357.465 519.358 360.552 511.481 362.035C498.577 364.464 490.043 362.911 485.229 358.97ZM527.696 351.549C523.689 355.323 518.244 358.092 510.995 359.456C499.291 361.659 491.982 360.371 487.849 357.641C489.874 356.594 491.796 355.551 493.595 354.528C505.748 349.435 514.742 348.021 521.165 349.11C523.72 349.543 525.884 350.374 527.696 351.549ZM529.54 349.626C527.352 348.114 524.717 347.05 521.604 346.523C514.455 345.311 504.891 346.94 492.507 352.139L492.435 352.169L492.366 352.208C490.295 353.387 488.061 354.592 485.696 355.797C482.407 352.104 482.472 346.572 485.258 341.266C488.091 335.873 493.595 331.075 500.38 329.458C507.098 327.858 515.234 329.34 523.478 336.791C526.774 339.77 529.769 342.684 532.481 345.516C531.629 346.97 530.652 348.344 529.54 349.626ZM598.856 297.437C596.546 295.975 594.498 294.16 592.809 292.169C594.728 292.787 596.583 293.266 598.292 293.463C600.539 293.721 602.727 293.514 604.483 292.287C611.157 287.624 614.331 281.914 614.634 275.681C614.829 271.663 613.826 267.519 611.929 263.4C616.981 262.435 621.504 262.207 624.644 262.049L624.647 262.049C625.713 261.995 626.619 261.95 627.332 261.886C628.936 261.743 631.133 261.109 633.18 259.964C635.227 258.819 637.261 257.083 638.329 254.652C639.421 252.165 639.417 249.147 637.731 245.672C636.066 242.24 632.756 238.337 627.197 233.904C622.879 230.46 618.673 228.079 614.751 226.563C617.907 219.487 620.492 209.826 621.848 197.568C629.873 195.597 637.398 190.559 644.179 183.987C658.65 169.962 670.133 148.567 676.306 133.139C682.628 121.578 688.777 114.863 694.476 111.708C700.093 108.598 705.355 108.895 710.225 111.59C715.179 114.332 719.788 119.599 723.787 126.532C727.774 133.443 731.09 141.897 733.511 150.855C738.367 168.818 739.556 188.526 735.592 201.615C733.611 208.154 730.416 212.819 725.987 214.962C721.593 217.089 715.612 216.908 707.637 212.923C706.471 212.34 705.375 211.127 704.307 209.278C703.249 207.446 702.302 205.141 701.355 202.565C700.924 201.393 700.493 200.162 700.053 198.904L700.052 198.902L700.052 198.902L700.051 198.9C698.592 194.73 697.027 190.26 695.001 186.612C692.347 181.836 688.638 177.984 682.875 178.14C677.316 178.291 670.312 182.199 661.039 191.351C651.69 200.578 646.586 208.987 644.526 216.627C642.458 224.297 643.485 231.091 646.21 236.994C646.869 238.422 647.627 239.798 648.465 241.122C648.227 241.359 647.995 241.598 647.768 241.838C642.442 247.509 640.496 254.116 640.006 261.436C639.657 266.633 640.675 270.814 642.42 274.087C639.368 276.971 636.115 280.925 632.714 286.188C627.046 294.959 620.844 299.161 615.02 300.509C609.189 301.858 603.531 300.395 598.856 297.437ZM612.013 275.554C612.191 271.884 611.222 267.974 609.294 263.963C602.538 265.57 595.383 268.585 589.976 274.38C587.41 277.129 587.131 281.24 588.847 285.652C589.213 286.595 589.667 287.539 590.201 288.47C590.755 288.678 591.3 288.877 591.832 289.067C594.363 289.965 596.643 290.632 598.592 290.856C600.548 291.081 601.977 290.836 602.98 290.136C609.099 285.861 611.756 280.85 612.013 275.554ZM588.057 272.589C593.761 266.476 601.171 263.285 608.037 261.569C607.426 260.496 606.751 259.418 606.015 258.338C597.887 246.416 582.633 234.708 566.881 227.167C565.195 226.36 563.506 225.602 561.822 224.898C561.63 228.173 561.216 231.267 560.56 234.109C558.94 241.113 555.789 246.809 550.611 249.757C545.398 252.725 538.496 252.708 529.853 249.09C527.951 248.293 526.421 246.655 525.122 244.717C523.811 242.764 522.637 240.355 521.509 237.823C520.96 236.59 520.421 235.329 519.88 234.064L519.88 234.064C519.283 232.666 518.684 231.264 518.067 229.891C517.684 231.047 517.391 232.307 517.197 233.679C516.263 240.286 517.619 249.476 522.277 261.811C529.963 276.542 538.718 299.191 539.935 319.307C540.505 328.733 539.427 337.724 535.696 345.097C544.114 354.11 549.761 362.364 553.075 369.367C556.78 367.379 561.325 365.738 566.751 364.705C573.736 363.374 578.853 363.404 582.542 364.376C586.277 365.36 588.57 367.323 589.745 369.772C590.894 372.166 590.886 374.839 590.422 377.138C589.958 379.437 589.007 381.518 588.072 382.828C587.655 383.41 587.1 384.128 586.447 384.971L586.445 384.973C584.382 387.637 581.345 391.558 578.642 396.473C575.1 402.913 572.278 410.832 573.221 419.311C573.636 423.049 576.573 425.938 581.039 427.51C585.487 429.076 591.195 429.215 596.501 427.59C601.79 425.971 606.586 422.63 609.36 417.326C612.13 412.029 612.982 404.586 610.018 394.573C608.38 389.042 607.38 384.476 606.893 380.727C601.752 380.477 596.543 378.575 593.434 373.574C589.632 367.458 586.54 361.495 585.983 353.871C585.968 353.664 585.954 353.457 585.943 353.248C584.44 353.022 582.948 352.708 581.48 352.291C575.225 350.513 569.401 346.868 564.929 340.303C560.473 333.764 557.416 324.414 556.504 311.31C555.6 298.317 557.276 290.578 560.931 286.445C564.706 282.175 570.183 282.148 575.576 283.395C579.148 284.221 582.977 285.683 586.595 287.085C586.528 286.924 586.464 286.764 586.401 286.603C584.482 281.667 584.544 276.354 588.057 272.589ZM619.436 195.401C619.819 191.499 620.079 187.329 620.193 182.888C620.477 171.779 616.303 164.64 610.713 160.585C605.067 156.489 597.841 155.437 591.904 156.801C585.935 158.172 581.637 161.854 581.124 166.923C580.603 172.082 583.895 179.39 594.864 188.178C603.362 194.985 611.622 196.817 619.436 195.401ZM611.105 228.096C606.475 226.757 602.512 226.79 599.593 227.612C596.744 228.413 595.026 229.908 594.404 231.452C593.815 232.911 594.065 234.773 595.952 236.75C596.878 237.722 597.86 238.279 598.854 238.502C599.845 238.724 600.939 238.633 602.126 238.159C604.54 237.194 607.284 234.658 609.916 230.24C610.317 229.566 610.714 228.851 611.105 228.096ZM645.802 274.586C646.583 275.693 647.458 276.639 648.372 277.436C650.095 278.94 651.976 279.932 653.667 280.487C655.391 281.053 656.8 281.128 657.605 280.944C660.556 280.27 661.818 278.379 661.979 276.451C662.147 274.428 661.118 272.226 659.117 271.024C657.172 269.856 654.082 269.519 649.949 271.728C648.657 272.419 647.271 273.356 645.802 274.586ZM651.896 241.523C657.63 249.543 666.387 255.518 672.588 259.632C674.202 260.703 675.728 260.95 677.154 260.668C678.618 260.377 680.102 259.502 681.52 258.107C684.37 255.303 686.691 250.658 687.774 245.844C688.864 240.995 688.623 236.328 686.787 233.364C685.894 231.923 684.616 230.863 682.85 230.332C681.057 229.793 678.663 229.772 675.525 230.613C664.289 233.623 656.828 237.294 651.896 241.523ZM519.488 226.718C521.027 224.09 523.199 222.211 525.84 220.951C530.487 218.734 536.752 218.355 543.933 219.533C548.772 220.326 553.963 221.816 559.249 223.861C559.091 227.326 558.683 230.575 558.003 233.518C556.464 240.174 553.588 245.043 549.312 247.477C545.07 249.893 539.091 250.113 530.866 246.669C529.664 246.166 528.49 245.029 527.301 243.256C526.123 241.499 525.023 239.262 523.906 236.755C523.397 235.613 522.885 234.414 522.361 233.188L522.361 233.187C521.451 231.056 520.507 228.845 519.488 226.718ZM441.61 222.549C441.793 226.988 441.813 231.167 441.692 235.086C433.99 237.021 425.626 235.745 416.692 229.522C405.159 221.487 401.386 214.415 401.561 209.233C401.734 204.141 405.775 200.18 411.639 198.413C417.472 196.655 424.753 197.221 430.659 200.93C436.508 204.603 441.15 211.446 441.61 222.549ZM424.047 268.551C426.905 267.536 430.857 267.238 435.566 268.264C435.226 269.044 434.878 269.784 434.522 270.483C432.192 275.067 429.624 277.781 427.28 278.905C426.127 279.457 425.042 279.621 424.037 279.466C423.032 279.31 422.015 278.82 421.025 277.913C419.01 276.066 418.637 274.225 419.126 272.729C419.644 271.147 421.258 269.541 424.047 268.551ZM476.049 315.002C475.083 314.267 474.147 313.382 473.294 312.33C474.677 311.004 475.997 309.977 477.241 309.201C481.216 306.721 484.322 306.85 486.341 307.886C488.417 308.951 489.592 311.079 489.559 313.108C489.528 315.043 488.395 317.015 485.496 317.884C484.705 318.121 483.294 318.141 481.536 317.692C479.811 317.251 477.869 316.386 476.049 315.002ZM499.02 295.618C492.557 291.928 483.421 286.552 477.163 278.934C481.802 274.384 489 270.222 500.009 266.467C503.084 265.418 505.475 265.28 507.299 265.697C509.097 266.109 510.443 267.081 511.431 268.459C513.46 271.294 514.013 275.934 513.25 280.845C512.491 285.721 510.486 290.511 507.83 293.499C506.508 294.985 505.086 295.958 503.645 296.346C502.241 296.723 500.702 296.578 499.02 295.618ZM543.997 381.552C545.275 378.802 547.832 375.773 551.863 373.133C552.182 373.921 552.465 374.688 552.715 375.432C554.353 380.306 554.491 384.04 553.65 386.5C553.237 387.709 552.594 388.599 551.779 389.207C550.963 389.815 549.901 390.197 548.56 390.268C545.831 390.411 544.255 389.388 543.531 387.991C542.765 386.513 542.75 384.236 543.997 381.552ZM611.738 377.856C610.916 377.979 610.086 378.064 609.256 378.106C609.103 376.112 609.134 374.456 609.307 373.093C609.56 371.104 610.103 369.832 610.727 369.039C611.331 368.27 612.067 367.88 612.893 367.737C614.652 367.433 616.941 368.249 618.936 369.597C619.905 370.251 620.727 370.982 621.302 371.652C621.927 372.38 622.093 372.843 622.103 372.975C622.106 373.019 622.084 373.295 621.611 373.807C621.163 374.291 620.443 374.836 619.465 375.377C617.518 376.456 614.759 377.405 611.738 377.856ZM615.838 347.019C608.653 349.053 598.371 351.817 588.521 350.917C588.614 344.434 590.628 336.52 595.731 325.89C597.137 322.961 598.713 321.159 600.289 320.149C601.842 319.154 603.479 318.875 605.154 319.136C608.599 319.674 612.297 322.531 615.266 326.516C618.214 330.473 620.228 335.26 620.498 339.248C620.633 341.233 620.331 342.93 619.598 344.229C618.884 345.496 617.702 346.492 615.838 347.019ZM374.708 380.523C377.502 381.702 380.621 384.148 383.404 388.083C382.628 388.43 381.872 388.74 381.137 389.017C376.325 390.829 372.598 391.1 370.11 390.348C368.886 389.978 367.974 389.367 367.338 388.575C366.7 387.781 366.281 386.733 366.162 385.396C365.921 382.673 366.887 381.062 368.257 380.289C369.707 379.47 371.982 379.373 374.708 380.523ZM381.759 449.894C381.542 448.7 381.448 447.415 381.528 446.063C383.443 446.018 385.111 446.149 386.552 446.416C391.16 447.267 393.365 449.457 394.157 451.584C394.971 453.771 394.402 456.134 393.009 457.61C391.681 459.017 389.515 459.708 386.788 458.394C386.044 458.036 384.99 457.099 383.995 455.581C383.019 454.092 382.169 452.144 381.759 449.894ZM411.793 451.081C409.511 443.998 406.393 433.866 406.913 424.02C413.407 423.791 421.528 425.575 432.188 430.23C435.165 431.53 437.023 433.041 438.089 434.58C439.138 436.096 439.476 437.722 439.275 439.405C438.861 442.867 436.139 446.665 432.262 449.776C428.413 452.864 423.702 455.047 419.726 455.46C417.747 455.666 416.041 455.425 414.716 454.739C413.424 454.07 412.386 452.925 411.793 451.081Z" fill="white"/>
</g>
<path fill-rule="evenodd" clip-rule="evenodd" d="M345.651 116C342.951 108.1 336.551 89.9002 334.251 77.5002C334.151 77.1002 332.851 71.0002 338.051 72.0002C338.051 72.0002 337.051 68.6002 339.651 67.5002C341.651 66.6002 343.051 67.7002 343.751 68.7002C343.751 68.8002 342.951 66.4002 345.351 65.7002C348.451 64.8002 350.251 68.2002 350.951 71.0002C350.951 71.1002 350.651 69.4002 352.851 68.7002C353.651 68.4002 355.351 68.9002 356.651 71.4002C358.951 75.7002 363.051 91.0002 363.051 91.0002C363.051 91.0002 364.351 88.1002 365.551 85.0002C365.951 84.1002 367.351 82.2002 369.351 82.8002C371.351 83.4002 371.651 84.7002 371.151 88.0002C370.651 91.5002 369.751 98.5002 367.451 103.4C367.251 103.8 368.251 107.5 368.851 110.1C371.451 121.8 350.151 128.9 345.651 116Z" fill="#EFD9CE"/>
<path d="M363.151 91.5996C361.951 95.0996 359.251 95.0996 357.851 96.3996C354.451 99.5996 355.651 103.5 357.751 105.2" stroke="#424D51" stroke-linecap="round" stroke-linejoin="round"/>
<path d="M356.45 88.0996C356.45 88.0996 351.95 73.9996 350.85 70.5996" stroke="#424D51" stroke-linecap="round" stroke-linejoin="round"/>
<path d="M351.251 89.9988C351.251 89.9988 347.851 77.7988 345.951 72.3988C345.451 70.9988 344.651 69.3988 343.551 68.2988" stroke="#424D51" stroke-linecap="round" stroke-linejoin="round"/>
<path fill-rule="evenodd" clip-rule="evenodd" d="M346.25 120.7C345.85 120.9 344.75 117.8 345.85 116.1C346.95 114.3 367.75 107.5 369.15 109C370.45 110.4 371.15 112.9 371.15 112.9C371.15 112.9 346.75 120.5 346.25 120.7Z" fill="#EFD9CE"/>
<path fill-rule="evenodd" clip-rule="evenodd" d="M462.851 175.599C445.751 170.599 396.151 168.499 393.451 162.899C384.951 145.399 382.551 134.099 379.551 125.999C376.751 118.499 374.951 109.799 369.151 111.099C364.451 112.199 342.151 117.199 342.951 123.599C344.551 136.399 357.451 178.399 363.651 189.299C368.551 197.899 402.851 206.999 423.251 208.299C449.151 209.999 462.651 184.399 462.851 175.599Z" fill="#DEC0F1"/>
<path d="M389.628 167.362L393.4 163.711L390.592 162.428" stroke="#424D51" stroke-linecap="round" stroke-linejoin="round"/>
<path d="M345.95 92.2996C345.95 92.2996 342.15 78.9996 340.85 75.6996C340.55 74.9996 339.75 72.9996 338.35 72.0996" stroke="#424D51" stroke-linecap="round" stroke-linejoin="round"/>
<path fill-rule="evenodd" clip-rule="evenodd" d="M428.451 199.199C428.451 199.199 426.451 242.699 426.651 246.599C426.851 250.499 484.351 251.199 484.351 251.199C484.351 251.199 487.851 199.099 487.851 196.999C487.851 196.499 489.451 175.799 480.551 173.499C470.851 170.999 439.551 171.699 434.951 173.799C430.251 175.899 428.451 199.199 428.451 199.199Z" fill="#DEC0F1"/>
<path d="M428.05 213.3L427.85 204.9" stroke="#424D51" stroke-linecap="round" stroke-linejoin="round"/>
<path d="M527.451 217.4C527.451 219.6 501.351 249.5 494.251 254.4C494.051 254.5 493.951 254.5 493.851 254.5C489.451 253.6 485.251 253.6 485.251 253.6L484.851 259.2C484.851 259.2 478.051 264.7 474.151 266.1C465.851 269.1 463.151 270.2 463.251 272.7C463.351 275.3 466.551 275.5 466.551 275.5C466.551 275.5 465.851 276.2 467.451 278C468.851 279.6 471.151 279.7 471.151 279.7C471.151 279.7 470.951 280.8 472.351 281.9C474.151 283.4 477.951 282.9 477.951 282.9C478.651 287.2 484.151 287 485.851 286.4C489.351 285.2 492.451 283.5 495.251 281.5C495.251 281.4 495.351 281.4 495.351 281.4C502.051 278.6 561.551 237.9 564.051 221.8L527.451 217.4Z" fill="#EFD9CE"/>
<path d="M466.351 275.8C472.851 276.7 484.451 269.9 484.451 269.9" stroke="#424D51" stroke-linecap="round" stroke-linejoin="round"/>
<path d="M470.451 280C476.551 280.5 487.451 275.1 487.451 275.1" stroke="#424D51" stroke-linecap="round" stroke-linejoin="round"/>
<path d="M477.951 283.8C482.051 283.8 489.851 280.2 489.851 280.2" stroke="#424D51" stroke-linecap="round" stroke-linejoin="round"/>
<path d="M527.25 217.2C528.75 215.4 537.85 208 537.85 208" stroke="#424D51" stroke-linecap="round" stroke-linejoin="round"/>
<path fill-rule="evenodd" clip-rule="evenodd" d="M517.651 266.099C518.051 266.399 515.751 268.699 513.751 268.499C511.651 268.299 496.351 252.699 497.051 250.799C497.751 248.999 499.651 247.299 499.651 247.299C499.651 247.299 517.351 265.799 517.651 266.099Z" fill="#EFD9CE"/>
<path fill-rule="evenodd" clip-rule="evenodd" d="M474.25 172.699C461.85 171.999 451.15 175.199 450.95 189.999C450.65 210.299 475.35 211.799 490.65 213.399C503.55 214.799 523.85 216.499 523.45 216.799C521.65 218.099 513.55 227.599 507.65 233.899C502.15 239.699 495.25 245.199 498.95 249.799C501.95 253.499 516.45 271.299 521.75 267.699C532.55 260.599 559.65 235.699 566.65 225.299C572.15 217.099 570.55 196.099 542.15 186.399C511.45 175.999 483.05 173.199 474.25 172.699Z" fill="#DEC0F1"/>
<path d="M533.55 206.699C533.55 206.699 525.15 214.899 523.75 216.799" stroke="#424D51" stroke-linecap="round" stroke-linejoin="round"/>
<path d="M486.75 213.2C486.75 213.2 484.45 208.2 482.75 202.6" stroke="#424D51" stroke-linecap="round" stroke-linejoin="round"/>
<path fill-rule="evenodd" clip-rule="evenodd" d="M469.952 176.899C470.752 183.099 445.852 183.199 445.252 176.799C445.952 171.299 446.152 168.099 447.052 158.299C447.552 153.099 453.052 154.199 456.052 154.299C461.752 154.499 463.152 160.599 463.152 160.599C463.152 160.599 468.652 173.899 469.952 176.899Z" fill="#EFD9CE"/>
<path fill-rule="evenodd" clip-rule="evenodd" d="M444.068 159.197C444.527 161.044 447.661 168.238 455.051 169.507C460.896 170.521 466.07 167.556 466.07 167.556C466.07 167.556 462.565 158.069 461.989 157.305C461.487 156.413 443.653 157.86 444.068 159.197Z" fill="#424D51"/>
<path fill-rule="evenodd" clip-rule="evenodd" d="M465.552 150.299C465.552 150.299 463.652 166.199 453.952 166.299C444.352 166.499 443.252 158.499 443.152 157.899C443.052 157.299 443.152 143.599 445.452 139.599C447.752 135.599 453.952 130.299 460.852 132.899C467.752 135.499 467.952 140.499 467.552 144.699C467.352 146.999 465.552 150.299 465.552 150.299Z" fill="#EFD9CE"/>
<path fill-rule="evenodd" clip-rule="evenodd" d="M463.952 147.099C464.452 145.999 470.052 141.199 473.752 145.499C476.152 148.299 474.752 150.899 473.152 152.299C471.052 153.999 468.452 154.299 465.952 152.999C463.352 151.699 463.552 149.899 463.352 149.299C463.152 148.399 463.552 147.899 463.952 147.099Z" fill="#EFD9CE"/>
<path fill-rule="evenodd" clip-rule="evenodd" d="M447.352 144.899C447.152 143.699 443.052 137.599 438.352 140.699C435.252 142.799 435.852 145.699 437.052 147.399C438.552 149.599 440.952 150.699 443.852 150.099C446.652 149.599 447.052 147.799 447.352 147.299C447.752 146.299 447.452 145.699 447.352 144.899Z" fill="#EFD9CE"/>
<path fill-rule="evenodd" clip-rule="evenodd" d="M463.351 140.6C463.351 140.6 454.751 143.8 447.951 138.4C447.951 138.4 446.451 142 444.451 141.2L445.251 130.2C445.251 130.2 445.851 127.1 449.951 127.5C453.051 127.8 466.251 129.2 466.251 129.2C466.251 129.2 469.951 129.7 469.451 133.5C468.951 137.3 468.151 144.4 467.551 144.3C465.151 144.1 463.351 140.6 463.351 140.6Z" fill="#F1D7AD"/>
<path d="M457.852 153.799C456.352 157.499 452.652 155.799 452.652 155.799" stroke="#424D51" stroke-width="0.729" stroke-linecap="round" stroke-linejoin="round"/>
<path d="M454.253 149.4C454.253 149.4 452.553 150 452.653 151.2C452.753 152.4 454.053 152.4 454.853 152.3" stroke="#424D51" stroke-width="0.729" stroke-linecap="round" stroke-linejoin="round"/>
<path d="M451.852 147.899C451.852 147.899 451.052 146.499 449.352 146.099C448.252 145.799 446.852 146.199 446.152 147.199" stroke="#424D51" stroke-width="0.729" stroke-linecap="round" stroke-linejoin="round"/>
<path d="M462.852 149.501C462.852 149.501 462.052 148.101 460.352 147.701C459.052 147.401 457.852 147.801 457.152 148.801" stroke="#424D51" stroke-width="0.729" stroke-linecap="round" stroke-linejoin="round"/>
<path d="M442.952 144.899C442.452 144.799 441.452 144.599 440.652 144.899M440.952 142.799C440.952 142.799 442.152 143.399 442.952 144.999L440.952 142.799ZM443.452 146.499C443.352 145.899 443.152 145.399 442.952 144.899L443.452 146.499Z" stroke="#424D51" stroke-width="0.729" stroke-linecap="round" stroke-linejoin="round"/>
<path d="M467.051 148.2C467.551 148.2 468.651 148.3 469.251 148.8M469.451 146.6C469.451 146.6 468.151 146.8 466.951 148.1L469.451 146.6ZM466.051 149.5C466.351 148.9 466.651 148.5 466.951 148.1L466.051 149.5Z" stroke="#424D51" stroke-width="0.729" stroke-linecap="round" stroke-linejoin="round"/>
<path fill-rule="evenodd" clip-rule="evenodd" d="M270.25 431.399L235.55 434.899C235.55 434.899 221.45 352.199 221.45 342.499C221.35 327.699 234.35 301.099 238.05 293.999C252.75 265.999 258.35 254.899 274.35 261.999C283.95 266.299 284.95 276.699 279.95 290.699C277.05 298.699 258.55 338.399 258.95 341.999C260.35 353.199 270.25 431.399 270.25 431.399Z" fill="#E5CDF4"/>
<path fill-rule="evenodd" clip-rule="evenodd" d="M267.649 398.799L229.549 402.199L235.849 437.899L272.249 435.699L267.649 398.799Z" fill="#DCBEF0"/>
<path fill-rule="evenodd" clip-rule="evenodd" d="M269.149 432.999C269.149 432.999 272.749 433.199 273.049 436.099C273.249 437.999 272.249 439.099 271.149 439.799C271.149 439.799 272.749 440.799 274.049 443.299C275.349 445.799 277.649 450.599 276.349 453.699C275.749 455.099 240.249 453.599 240.249 453.599L202.949 454.099C202.949 454.099 204.449 446.699 213.049 444.499C220.749 442.499 222.449 442.399 226.249 441.999C228.649 441.699 230.549 440.699 231.649 438.799C233.149 435.899 234.749 434.699 237.849 433.499C242.949 431.599 264.049 432.199 269.149 432.999Z" fill="#C5B0F0"/>
<path fill-rule="evenodd" clip-rule="evenodd" d="M276.549 453.999C277.649 452.799 270.149 441.899 262.049 441.099C254.549 440.399 249.249 446.899 244.349 448.099C241.149 448.899 236.149 448.899 231.849 448.899C229.949 448.899 205.949 448.999 205.949 448.999C205.949 448.999 200.249 453.199 202.849 455.399C204.349 456.699 275.549 454.999 276.549 453.999Z" fill="#9F78BA"/>
<path fill-rule="evenodd" clip-rule="evenodd" d="M240.35 444.899C242.45 445.199 244.35 443.899 244.65 441.899C244.95 439.899 243.55 437.999 241.45 437.699C239.35 437.399 237.45 438.699 237.15 440.699C236.85 442.699 238.25 444.599 240.35 444.899Z" fill="#DCBEF0"/>
<path fill-rule="evenodd" clip-rule="evenodd" d="M292.349 434.999L327.149 432.699C327.149 432.699 325.749 353.499 325.549 345.299C325.349 335.699 324.949 333.399 324.749 324.199C324.249 297.999 323.749 281.099 295.249 285.599C284.849 287.199 285.149 301.099 285.849 311.099C286.449 319.599 288.249 337.499 288.649 344.899C289.149 356.199 292.349 434.999 292.349 434.999Z" fill="#E5CDF4"/>
<path fill-rule="evenodd" clip-rule="evenodd" d="M290.65 401.098L327.65 399.398L327.35 435.698L291.75 436.198L290.65 401.098Z" fill="#DCBEF0"/>
<path fill-rule="evenodd" clip-rule="evenodd" d="M293.849 433.999C293.849 433.999 290.249 434.199 289.949 437.099C289.749 438.999 290.849 440.099 291.849 440.799C291.849 440.799 290.249 441.799 288.949 444.399C287.649 446.899 285.349 451.699 286.749 454.799C287.349 456.199 322.849 454.299 322.849 454.299L360.149 454.399C360.149 454.399 358.549 446.999 349.949 444.899C342.249 442.999 340.549 442.899 336.749 442.499C334.349 442.199 332.349 441.299 331.349 439.299C329.849 436.399 328.249 435.199 325.049 433.999C320.049 432.299 298.949 433.199 293.849 433.999Z" fill="#C5B0F0"/>
<path fill-rule="evenodd" clip-rule="evenodd" d="M286.65 455C285.55 453.9 292.95 442.8 301.05 442C308.55 441.2 313.95 447.7 318.85 448.8C322.05 449.5 327.05 449.5 331.35 449.5C333.25 449.5 357.25 449.4 357.25 449.4C357.25 449.4 362.95 453.5 360.45 455.8C358.95 457 287.65 456.1 286.65 455Z" fill="#9F78BA"/>
<path fill-rule="evenodd" clip-rule="evenodd" d="M322.85 445.598C320.75 445.898 318.85 444.598 318.55 442.598C318.25 440.598 319.65 438.698 321.65 438.398C323.75 438.098 325.65 439.398 325.95 441.398C326.25 443.398 324.85 445.298 322.85 445.598Z" fill="#DCBEF0"/>
<path d="M241.449 159.399C249.249 161.399 257.149 163.299 265.049 164.999C269.349 165.899 273.949 166.899 277.049 169.999C281.249 174.099 281.649 181.099 278.849 186.199C276.049 191.299 270.649 194.599 264.949 195.899C259.249 197.199 253.349 196.699 247.649 195.799C235.149 193.699 223.049 189.199 212.049 182.899C206.849 179.899 200.049 176.299 196.049 171.799C192.049 167.299 190.549 159.699 188.449 153.999C178.349 126.499 169.949 98.3994 163.249 69.8994C162.949 68.3994 162.549 66.7994 163.149 65.3994C163.749 63.9994 165.549 62.9994 166.749 63.7994C166.049 62.2994 166.549 60.2994 167.949 59.4994C169.349 58.6994 171.349 58.9994 172.349 60.2994C171.749 58.3994 174.649 56.8994 176.449 57.7994C178.249 58.6994 179.049 60.7994 179.749 62.6994C179.549 61.0994 181.749 60.1994 183.149 60.7994C184.549 61.4994 185.349 63.0994 185.949 64.5994C188.349 70.4994 190.249 76.5994 191.749 82.7994C193.049 81.2994 193.149 79.0994 193.949 77.2994C194.749 75.4994 196.849 73.7994 198.549 74.7994C199.649 75.3994 199.949 76.8994 200.049 78.1994C200.349 84.8994 195.949 91.1994 196.749 97.7994C197.049 100.299 198.049 102.599 199.049 104.799C204.949 118.699 210.849 132.499 216.749 146.299C217.749 148.699 218.949 151.299 220.949 152.899C222.549 154.199 224.549 154.799 226.549 155.399C231.549 156.799 236.449 158.199 241.449 159.399Z" fill="#FDDCC4"/>
<path d="M226.75 190.7L237.6 157.75C244.1 159.05 254.95 162.4 269.25 164C289.95 165.2 299.15 167.8 302.45 170.6C307.75 175.4 283.55 202.4 268.55 201.6C256.55 201.1 235.75 194.1 226.75 190.7Z" fill="#E5CDF4"/>
<path d="M191.249 83.2988C190.049 86.7988 187.349 86.7988 185.949 88.0988C182.549 91.2988 183.749 95.1988 185.849 96.8988" stroke="#424D51" stroke-linecap="round" stroke-linejoin="round"/>
<path d="M185.25 79.6992C185.25 79.6992 180.75 65.5992 179.65 62.1992" stroke="#424D51" stroke-linecap="round" stroke-linejoin="round"/>
<path d="M180.149 81.7C180.149 81.7 176.749 69.5 174.849 64.1C174.349 62.7 173.549 61.1 172.449 60" stroke="#424D51" stroke-linecap="round" stroke-linejoin="round"/>
<path d="M174.85 83.9988C174.85 83.9988 171.05 70.6988 169.75 67.3988C169.45 66.6988 168.65 64.6988 167.25 63.7988" stroke="#424D51" stroke-linecap="round" stroke-linejoin="round"/>
<path d="M217.677 157.755L221.449 154.104L218.641 152.82" stroke="#424D51" stroke-linecap="round" stroke-linejoin="round"/>
<path fill-rule="evenodd" clip-rule="evenodd" d="M321.725 170.123C321.725 170.123 328.85 156.398 318.95 148.298C312.85 143.298 315.85 139.798 315.05 136.198C314.65 134.198 312.55 137.398 311.65 131.598C309.85 119.398 302.55 115.898 293.05 119.898C287.05 122.498 286.35 127.798 285.25 131.798C283.95 136.398 280.25 141.198 275.45 142.498C269.25 144.198 254.75 151.398 263.15 165.298C264.85 167.998 270.95 166.298 275.05 165.998C279.15 165.698 300.05 165.798 300.05 165.798L321.725 170.123Z" fill="#89716E"/>
<path fill-rule="evenodd" clip-rule="evenodd" d="M226.549 309.099C226.549 309.099 257.249 317.199 274.449 320.099C291.649 322.999 327.749 326.399 327.749 326.399C327.749 326.399 330.649 247.699 318.649 242.999C300.949 235.999 263.049 234.699 261.549 238.799C250.349 249.799 226.549 309.099 226.549 309.099Z" fill="#ECDDF6"/>
<mask id="mask1_12_3489" style="mask-type:alpha" maskUnits="userSpaceOnUse" x="226" y="236" width="103" height="91">
<path fill-rule="evenodd" clip-rule="evenodd" d="M226.549 309.099C226.549 309.099 257.249 317.199 274.449 320.099C291.649 322.999 327.749 326.399 327.749 326.399C327.749 326.399 330.649 247.699 318.649 242.999C300.949 235.999 263.049 234.699 261.549 238.799C250.349 249.799 226.549 309.099 226.549 309.099Z" fill="#ECDDF6"/>
</mask>
<g mask="url(#mask1_12_3489)">
<circle cx="309.5" cy="286.855" r="3" fill="white"/>
<circle cx="309.5" cy="234.855" r="3" fill="white"/>
<circle cx="309.5" cy="312.855" r="3" fill="white"/>
<circle cx="309.5" cy="260.855" r="3" fill="white"/>
<circle cx="263" cy="286.855" r="3" fill="white"/>
<circle cx="263" cy="234.855" r="3" fill="white"/>
<circle cx="263" cy="312.855" r="3" fill="white"/>
<circle cx="263" cy="260.855" r="3" fill="white"/>
<circle cx="303.5" cy="299.855" r="3" fill="white"/>
<circle cx="303.5" cy="247.855" r="3" fill="white"/>
<circle cx="303.5" cy="325.855" r="3" fill="white"/>
<circle cx="303.5" cy="273.855" r="3" fill="white"/>
<circle cx="257" cy="299.855" r="3" fill="white"/>
<circle cx="257" cy="247.855" r="3" fill="white"/>
<circle cx="257" cy="325.855" r="3" fill="white"/>
<circle cx="257" cy="273.855" r="3" fill="white"/>
<circle cx="232" cy="286.855" r="3" fill="white"/>
<circle cx="232" cy="234.855" r="3" fill="white"/>
<circle cx="325" cy="286.855" r="3" fill="white"/>
<circle cx="325" cy="234.855" r="3" fill="white"/>
<circle cx="232" cy="312.855" r="3" fill="white"/>
<circle cx="232" cy="260.855" r="3" fill="white"/>
<circle cx="325" cy="312.855" r="3" fill="white"/>
<circle cx="325" cy="260.855" r="3" fill="white"/>
<circle cx="278.5" cy="286.855" r="3" fill="white"/>
<circle cx="278.5" cy="234.855" r="3" fill="white"/>
<circle cx="278.5" cy="312.855" r="3" fill="white"/>
<circle cx="278.5" cy="260.855" r="3" fill="white"/>
<circle cx="226" cy="299.855" r="3" fill="white"/>
<circle cx="226" cy="247.855" r="3" fill="white"/>
<circle cx="319" cy="299.855" r="3" fill="white"/>
<circle cx="319" cy="247.855" r="3" fill="white"/>
<circle cx="226" cy="325.855" r="3" fill="white"/>
<circle cx="226" cy="273.855" r="3" fill="white"/>
<circle cx="319" cy="325.855" r="3" fill="white"/>
<circle cx="319" cy="273.855" r="3" fill="white"/>
<circle cx="272.5" cy="299.855" r="3" fill="white"/>
<circle cx="272.5" cy="247.855" r="3" fill="white"/>
<circle cx="272.5" cy="325.855" r="3" fill="white"/>
<circle cx="272.5" cy="273.855" r="3" fill="white"/>
<circle cx="247.5" cy="286.855" r="3" fill="white"/>
<circle cx="247.5" cy="234.855" r="3" fill="white"/>
<circle cx="247.5" cy="312.855" r="3" fill="white"/>
<circle cx="247.5" cy="260.855" r="3" fill="white"/>
<circle cx="294" cy="286.855" r="3" fill="white"/>
<circle cx="294" cy="234.855" r="3" fill="white"/>
<circle cx="294" cy="312.855" r="3" fill="white"/>
<circle cx="294" cy="260.855" r="3" fill="white"/>
<circle cx="241.5" cy="299.855" r="3" fill="white"/>
<circle cx="241.5" cy="247.855" r="3" fill="white"/>
<circle cx="241.5" cy="325.855" r="3" fill="white"/>
<circle cx="241.5" cy="273.855" r="3" fill="white"/>
<circle cx="288" cy="299.855" r="3" fill="white"/>
<circle cx="288" cy="247.855" r="3" fill="white"/>
<circle cx="288" cy="325.855" r="3" fill="white"/>
<circle cx="288" cy="273.855" r="3" fill="white"/>
</g>
<path fill-rule="evenodd" clip-rule="evenodd" d="M263.75 191.799C263.75 191.799 261.75 235.299 261.95 239.199C262.15 242.999 319.65 243.799 319.65 243.799C319.65 243.799 323.15 191.699 323.15 189.599C323.15 189.099 324.75 168.399 315.85 166.099C306.15 163.599 274.85 164.299 270.25 166.399C265.55 168.599 263.75 191.799 263.75 191.799Z" fill="#E5CDF4"/>
<path d="M263.35 206L263.15 197.6" stroke="#424D51" stroke-linecap="round" stroke-linejoin="round"/>
<path d="M332.149 209.6C344.749 216 367.849 225.8 367.849 225.8C367.849 228 341.749 257.9 334.649 262.8C334.449 262.9 334.349 262.9 334.249 262.9C329.849 262 325.649 262 325.649 262L325.249 267.6C325.249 267.6 318.449 273.1 314.549 274.5C306.249 277.5 303.549 278.6 303.649 281.1C303.749 283.7 306.949 283.9 306.949 283.9C306.949 283.9 306.249 284.6 307.849 286.4C309.249 288 311.549 288.1 311.549 288.1C311.549 288.1 311.349 289.2 312.749 290.3C314.549 291.8 318.349 291.3 318.349 291.3C319.049 295.6 324.549 295.4 326.249 294.8C329.749 293.6 332.849 291.9 335.649 289.9C335.649 289.8 335.749 289.8 335.749 289.8C342.449 287 401.949 246.3 404.449 230.2C407.949 206.7 378.049 194 378.049 194C361.349 185.2 349.449 180.9 338.949 176C319.449 166.9 312.949 176.4 303.349 181.5C297.349 188.4 313.349 202.9 332.149 209.6Z" fill="#FDDCC4"/>
<path d="M306.75 284.201C313.25 285.101 324.85 278.301 324.85 278.301" stroke="#424D51" stroke-linecap="round" stroke-linejoin="round"/>
<path d="M310.85 288.4C316.95 288.9 327.85 283.5 327.85 283.5" stroke="#424D51" stroke-linecap="round" stroke-linejoin="round"/>
<path d="M318.35 292.2C322.45 292.2 330.25 288.6 330.25 288.6" stroke="#424D51" stroke-linecap="round" stroke-linejoin="round"/>
<path d="M367.648 225.6C369.148 223.8 378.248 216.4 378.248 216.4" stroke="#424D51" stroke-linecap="round" stroke-linejoin="round"/>
<path d="M368.35 185.998L352.25 219.798C347.85 218.198 327.85 210.598 312.75 204.598C293.95 197.098 295.65 187.198 296.65 181.898C297.65 176.598 303.206 165.573 314.006 165.873C322.606 165.973 356.05 180.198 368.35 185.998Z" fill="#E5CDF4"/>
<path fill-rule="evenodd" clip-rule="evenodd" d="M280.65 165.299C278.95 168.099 302.35 176.099 305.15 168.599C305.25 163.099 305.45 159.899 305.95 149.999C306.15 144.799 300.55 145.099 297.65 144.799C292.05 144.199 289.75 149.999 289.75 149.999C289.75 149.999 282.35 162.499 280.65 165.299Z" fill="#FDDCC4"/>
<path fill-rule="evenodd" clip-rule="evenodd" d="M290.45 145.499C290.15 147.299 289.85 155.199 295.45 159.399C299.95 162.699 305.45 162.199 305.45 162.199C305.45 162.199 306.35 152.299 306.25 151.299C306.05 150.299 290.65 144.199 290.45 145.499Z" fill="#424D51"/>
<path fill-rule="evenodd" clip-rule="evenodd" d="M288.65 139.299C288.65 139.299 288.35 155.299 297.85 156.799C307.35 158.299 309.55 150.499 309.75 149.999C309.95 149.399 311.75 135.799 310.05 131.499C308.35 127.199 302.95 121.099 295.75 122.699C288.55 124.299 287.65 129.199 287.45 133.399C287.35 135.699 288.65 139.299 288.65 139.299Z" fill="#FDDCC4"/>
<path fill-rule="evenodd" clip-rule="evenodd" d="M290.75 136.299C290.35 135.099 285.45 129.699 281.25 133.399C278.45 135.899 279.45 138.599 280.95 140.199C282.75 142.199 285.25 142.899 288.05 141.899C290.75 140.999 290.85 139.199 291.05 138.599C291.35 137.699 290.95 137.099 290.75 136.299Z" fill="#FDDCC4"/>
<path fill-rule="evenodd" clip-rule="evenodd" d="M307.45 136.399C307.85 135.199 312.75 129.699 316.95 133.499C319.75 135.999 318.75 138.699 317.25 140.299C315.45 142.299 312.95 142.999 310.15 141.999C307.45 141.099 307.35 139.299 307.05 138.699C306.85 137.799 307.25 137.199 307.45 136.399Z" fill="#FDDCC4"/>
<path fill-rule="evenodd" clip-rule="evenodd" d="M292.249 129.999C292.249 129.999 300.349 134.399 307.749 129.999C307.849 129.999 308.449 133.799 310.549 133.299C310.549 133.299 310.049 121.799 298.349 122.199C286.449 122.599 286.849 133.099 287.649 133.199C289.849 133.499 292.249 129.999 292.249 129.999Z" fill="#89716E"/>
<path fill-rule="evenodd" clip-rule="evenodd" d="M295.45 143.499C295.55 143.499 298.85 145.299 300.65 145.899C301.25 146.099 299.55 148.099 297.55 147.399C295.45 146.699 294.85 143.299 295.45 143.499Z" fill="white"/>
<path d="M299.65 139.999C299.65 139.999 301.25 140.799 301.05 141.999C300.75 143.199 299.55 142.999 298.75 142.799" stroke="#424D51" stroke-width="0.729" stroke-linecap="round" stroke-linejoin="round"/>
<path d="M302.149 138.299C302.149 138.299 303.149 136.699 304.849 136.499C306.549 136.299 307.349 137.299 307.849 138.399" stroke="#424D51" stroke-width="0.729" stroke-linecap="round" stroke-linejoin="round"/>
<path d="M304.35 136.799C304.85 136.399 305.55 136.599 305.95 137.099C306.35 137.599 306.25 138.299 305.65 138.699C305.15 139.099 304.45 138.999 304.05 138.399C303.75 137.899 303.85 137.199 304.35 136.799Z" stroke="#424D51" stroke-width="0.729" stroke-linecap="round" stroke-linejoin="round"/>
<path d="M291.05 138.299C291.05 138.299 292.05 136.699 293.75 136.499C295.45 136.299 296.25 137.299 296.75 138.399" stroke="#424D51" stroke-width="0.729" stroke-linecap="round" stroke-linejoin="round"/>
<path d="M293.35 136.799C293.85 136.399 294.55 136.599 294.95 137.099C295.35 137.599 295.25 138.299 294.65 138.699C294.15 139.099 293.45 138.999 293.05 138.399C292.65 137.899 292.85 137.199 293.35 136.799Z" stroke="#424D51" stroke-width="0.729" stroke-linecap="round" stroke-linejoin="round"/>
<path d="M311.45 137.199C311.95 137.099 313.05 137.099 313.65 137.499M313.65 135.299C313.65 135.299 312.35 135.699 311.45 137.199L313.65 135.299ZM310.75 138.699C310.95 138.099 311.15 137.599 311.45 137.199L310.75 138.699Z" stroke="#424D51" stroke-width="0.729" stroke-linecap="round" stroke-linejoin="round"/>
<path d="M287.15 136.999C286.65 136.899 285.55 136.899 284.95 137.299M284.85 135.199C284.85 135.199 286.15 135.599 287.05 137.099L284.85 135.199ZM287.85 138.499C287.65 137.899 287.45 137.399 287.15 136.999L287.85 138.499Z" stroke="#424D51" stroke-width="0.729" stroke-linecap="round" stroke-linejoin="round"/>
<path fill-rule="evenodd" clip-rule="evenodd" d="M287.649 111.399C286.149 113.599 285.949 117.399 289.149 119.599C292.449 121.899 296.849 121.999 299.349 116.799C300.849 113.699 298.949 109.899 295.249 108.699C292.749 107.899 289.849 108.199 287.649 111.399Z" fill="#89716E"/>
<path d="M322.049 205.799C322.049 205.799 319.749 200.799 318.049 195.199" stroke="#424D51" stroke-linecap="round" stroke-linejoin="round"/>
</svg>
