<svg width="424" height="522" viewBox="0 0 424 522" fill="none" xmlns="http://www.w3.org/2000/svg">
<path d="M288.6 427.174C287.741 457.724 301.219 465.476 308.065 465.534C328.57 471.226 354.413 440.695 367.403 422.371C380.392 404.048 367.689 401.102 358.651 405.51C348.426 410.497 334.211 420.218 326.993 427.054L337.546 408.617C342.809 398.885 352.396 378.459 348.639 374.618C343.944 369.815 334.51 375.554 327.881 386.38C322.671 394.889 309.998 416.444 305.755 427.376C306.254 413.239 307.923 390.468 307.612 382.877C306.893 365.389 291.251 370.075 291.155 382.182C290.661 384.451 289.458 396.624 288.6 427.174Z" fill="#ECECEC"/>
<path d="M375.516 481.575H226.02C228.016 475.966 235.016 465.466 245.985 460.098C258.494 453.975 266.353 459.392 268.974 462.82C284.099 454.048 336.432 431.663 362.144 437.108C382.714 441.464 379.448 469.375 375.516 481.575Z" fill="#F8F8F8"/>
<path fill-rule="evenodd" clip-rule="evenodd" d="M210.715 467.332L176.015 470.832C176.015 470.832 161.915 388.132 161.915 378.432C161.815 363.632 174.815 337.032 178.515 329.932C193.215 301.832 198.815 290.832 214.815 297.932C224.415 302.232 225.415 312.632 220.415 326.632C217.515 334.632 199.015 374.332 199.415 378.032C200.815 389.132 210.715 467.332 210.715 467.332Z" fill="#EFD9CE"/>
<path fill-rule="evenodd" clip-rule="evenodd" d="M208.114 434.732L170.014 438.132L176.314 473.832L212.714 471.632L208.114 434.732Z" fill="#CBE4FC"/>
<path fill-rule="evenodd" clip-rule="evenodd" d="M209.713 468.932C209.713 468.932 213.213 469.132 213.613 472.032C213.913 473.932 212.813 475.032 211.713 475.732C211.713 475.732 213.313 476.732 214.713 479.232C216.113 481.732 218.313 486.532 217.013 489.632C216.413 491.032 180.913 489.532 180.913 489.532L143.613 490.032C143.613 490.032 145.113 482.632 153.713 480.432C161.413 478.432 163.113 478.332 166.913 477.932C169.313 477.632 171.213 476.632 172.213 474.732C173.713 471.832 175.313 470.632 178.413 469.432C183.413 467.432 204.513 468.132 209.713 468.932Z" fill="#93BEFA"/>
<path fill-rule="evenodd" clip-rule="evenodd" d="M217.014 489.933C218.114 488.833 210.614 477.833 202.514 477.033C195.014 476.333 189.714 482.833 184.814 484.033C181.614 484.833 176.614 484.833 172.314 484.833C170.414 484.833 146.414 484.933 146.414 484.933C146.414 484.933 140.714 489.133 143.314 491.333C144.714 492.633 216.014 490.933 217.014 489.933Z" fill="#EFD9CE"/>
<path fill-rule="evenodd" clip-rule="evenodd" d="M180.815 480.833C182.915 481.133 184.815 479.833 185.115 477.833C185.415 475.833 184.015 473.933 181.915 473.633C179.815 473.333 177.915 474.633 177.615 476.633C177.315 478.633 178.715 480.533 180.815 480.833Z" fill="#CBE4FC"/>
<path fill-rule="evenodd" clip-rule="evenodd" d="M232.814 470.933L267.614 468.633C267.014 437.533 266.714 406.333 265.714 375.233C265.614 370.233 265.314 365.233 265.214 360.233C264.714 334.033 264.314 317.133 235.714 321.633C225.314 323.233 225.614 337.133 226.314 347.133C229.214 386.233 230.914 425.233 232.514 464.333C232.614 466.533 232.714 468.733 232.814 470.933Z" fill="#EFD9CE"/>
<path fill-rule="evenodd" clip-rule="evenodd" d="M231.113 437.032L268.113 435.332L267.813 471.632L232.213 472.132L231.113 437.032Z" fill="#CBE4FC"/>
<path fill-rule="evenodd" clip-rule="evenodd" d="M234.314 469.933C234.314 469.933 230.814 470.133 230.414 473.033C230.214 474.933 231.314 476.033 232.314 476.733C232.314 476.733 230.714 477.733 229.414 480.333C228.114 482.833 225.814 487.633 227.214 490.733C227.814 492.133 263.314 490.233 263.314 490.233L300.614 490.333C300.614 490.333 299.014 482.933 290.414 480.833C282.714 478.933 281.014 478.833 277.214 478.433C274.814 478.133 272.814 477.233 271.814 475.233C270.314 472.333 268.714 471.133 265.514 469.933C260.514 468.233 239.414 469.133 234.314 469.933Z" fill="#93BEFA"/>
<path fill-rule="evenodd" clip-rule="evenodd" d="M227.113 490.933C226.013 489.833 233.413 478.733 241.513 477.933C249.013 477.133 254.413 483.633 259.313 484.733C262.513 485.433 267.513 485.433 271.813 485.333C273.713 485.333 297.713 485.233 297.713 485.233C297.713 485.233 303.413 489.333 300.913 491.633C299.413 492.933 228.113 492.033 227.113 490.933Z" fill="#EFD9CE"/>
<path fill-rule="evenodd" clip-rule="evenodd" d="M263.313 481.532C261.213 481.832 259.313 480.532 259.013 478.532C258.713 476.532 260.113 474.632 262.113 474.332C264.213 474.032 266.113 475.332 266.413 477.332C266.713 479.332 265.313 481.232 263.313 481.532Z" fill="#CBE4FC"/>
<path fill-rule="evenodd" clip-rule="evenodd" d="M358.514 194.432C362.214 186.932 370.814 169.632 374.614 157.732C374.714 157.332 376.814 151.432 371.614 151.732C371.614 151.732 373.014 148.532 370.614 147.032C368.714 145.932 367.314 146.832 366.414 147.732C366.314 147.732 367.514 145.532 365.214 144.532C362.214 143.232 360.014 146.432 359.014 149.032C359.014 149.132 359.514 147.532 357.414 146.532C356.614 146.132 354.914 146.432 353.314 148.732C350.414 152.732 344.514 167.332 344.514 167.332C344.514 167.332 343.614 164.332 342.714 161.032C342.514 160.132 341.314 158.032 339.214 158.332C337.214 158.632 336.714 159.932 336.814 163.332C336.814 166.932 336.914 173.932 338.514 179.032C338.614 179.432 337.114 182.932 336.314 185.532C332.214 197.032 352.414 206.732 358.514 194.432Z" fill="#EFD9CE"/>
<path d="M351.314 165.432C351.314 165.432 357.614 152.032 359.114 148.732" stroke="#424D51" stroke-linecap="round" stroke-linejoin="round"/>
<path d="M356.213 167.932C356.213 167.932 361.113 156.232 363.713 151.132C364.413 149.832 365.313 148.332 366.613 147.332" stroke="#424D51" stroke-linecap="round" stroke-linejoin="round"/>
<path d="M361.113 170.932C361.113 170.932 366.613 158.232 368.213 155.032C368.613 154.332 369.713 152.532 371.113 151.832" stroke="#424D51" stroke-linecap="round" stroke-linejoin="round"/>
<path fill-rule="evenodd" clip-rule="evenodd" d="M357.313 199.032C357.713 199.232 359.213 196.332 358.313 194.532C357.413 192.632 337.613 183.332 336.113 184.532C334.613 185.732 333.613 188.232 333.613 188.232C333.613 188.232 356.913 198.832 357.313 199.032Z" fill="#EFD9CE"/>
<path fill-rule="evenodd" clip-rule="evenodd" d="M244.114 239.932C228.914 233.232 226.414 219.732 232.714 214.332C243.714 204.832 259.014 209.032 267.714 211.432C282.614 215.432 307.914 229.532 306.714 230.932C305.214 232.532 319.614 207.832 323.714 200.132C327.414 193.032 330.314 184.632 335.914 186.732C340.414 188.332 361.914 196.232 360.314 202.432C357.114 214.932 342.514 248.732 334.914 258.732C329.014 266.632 318.914 272.432 298.814 263.632C269.514 250.832 269.114 251.032 244.114 239.932Z" fill="#DEC0F1"/>
<path d="M305.814 232.932C305.814 232.932 310.814 222.332 312.114 220.432" stroke="#424D51" stroke-linecap="round" stroke-linejoin="round"/>
<path d="M344.641 167.932C345.47 171.538 348.155 171.82 349.412 173.258C352.459 176.796 350.859 180.549 348.594 182.021" stroke="#424D51" stroke-linecap="round" stroke-linejoin="round"/>
<path fill-rule="evenodd" clip-rule="evenodd" d="M225.414 352.233L265.714 349.833C265.714 349.833 262.514 294.933 260.214 285.733C259.414 282.633 203.014 280.533 201.814 281.733C196.714 286.733 173.314 337.333 173.314 337.333L210.314 351.633L224.814 320.433L225.414 352.233Z" fill="#FFB6A9"/>
<mask id="mask0_12_4565" style="mask-type:alpha" maskUnits="userSpaceOnUse" x="173" y="281" width="93" height="72">
<path fill-rule="evenodd" clip-rule="evenodd" d="M225.414 352.233L265.714 349.833C265.714 349.833 262.514 294.933 260.214 285.733C259.414 282.633 203.014 280.533 201.814 281.733C196.714 286.733 173.314 337.333 173.314 337.333L210.314 351.633L224.814 320.433L225.414 352.233Z" fill="#FFB6A9"/>
</mask>
<g mask="url(#mask0_12_4565)">
<path fill-rule="evenodd" clip-rule="evenodd" d="M405.351 194.152C399.952 196.765 393.066 196.286 384.684 192.098C382.84 191.176 381.423 189.439 380.256 187.419C379.079 185.382 378.069 182.9 377.113 180.298C376.647 179.031 376.194 177.737 375.739 176.439C374.293 172.311 372.835 168.147 370.928 164.714C368.436 160.228 365.441 157.475 361.166 157.591C356.686 157.712 350.316 160.953 341.103 170.046C331.965 179.065 327.182 187.085 325.28 194.138C323.386 201.162 324.322 207.326 326.813 212.723C327.357 213.901 327.975 215.044 328.655 216.15C333.998 211.657 341.814 207.921 353.066 204.906C356.518 203.981 359.432 203.928 361.825 204.647C364.245 205.374 366.031 206.861 367.239 208.81C369.603 212.628 369.707 218.12 368.554 223.247C367.394 228.409 364.883 233.557 361.581 236.805C359.923 238.436 358 239.65 355.885 240.069C353.733 240.496 351.509 240.073 349.359 238.647C343.312 234.636 334.28 228.528 328.189 220.161C328.092 220.261 327.996 220.362 327.902 220.463C323.121 225.552 321.309 231.503 320.845 238.44C320.55 242.841 321.328 246.36 322.673 249.125C324.149 247.921 325.571 246.97 326.933 246.242C331.672 243.709 335.77 243.85 338.689 245.603C341.553 247.323 343.065 250.485 342.814 253.496C342.556 256.601 340.438 259.41 336.41 260.33C334.971 260.658 333.047 260.457 331.069 259.808C329.058 259.148 326.867 257.985 324.868 256.241C323.866 255.368 322.917 254.351 322.064 253.185C319.317 255.851 316.321 259.515 313.138 264.44C307.203 273.625 300.484 278.354 293.833 279.893C287.189 281.431 280.818 279.738 275.674 276.482C271.944 274.121 268.813 270.912 266.642 267.432C265.801 267.113 264.956 266.785 264.109 266.456C260.443 265.033 256.746 263.598 253.206 262.779C248.048 261.587 243.889 261.876 241.117 265.011C238.224 268.283 236.443 275.037 237.342 287.955C238.234 300.763 241.204 309.617 245.318 315.654C249.414 321.665 254.7 324.969 260.418 326.595C261.636 326.941 262.873 327.211 264.123 327.415C264.279 320.479 266.462 312.258 271.586 301.583C273.132 298.361 274.99 296.116 277.094 294.767C279.222 293.405 281.514 293.018 283.779 293.372C288.217 294.064 292.452 297.562 295.591 301.776C298.752 306.019 301.023 311.277 301.337 315.899C301.494 318.219 301.163 320.468 300.104 322.346C299.026 324.257 297.256 325.67 294.773 326.372C287.759 328.357 277.174 331.251 266.812 330.383L266.815 330.432C266.817 330.457 266.819 330.483 266.82 330.508C267.33 337.479 270.141 342.996 273.883 349.016C276.311 352.922 280.434 354.621 284.845 354.916C284.698 352.857 284.734 351.093 284.925 349.59C285.216 347.299 285.877 345.525 286.886 344.244C287.913 342.938 289.238 342.226 290.667 341.979C293.417 341.504 296.418 342.759 298.625 344.25C299.758 345.016 300.764 345.897 301.514 346.771C302.215 347.587 302.868 348.599 302.941 349.616C303.019 350.719 302.436 351.683 301.759 352.416C301.056 353.175 300.08 353.879 298.957 354.501C296.702 355.749 293.638 356.788 290.346 357.28C289.505 357.405 288.639 357.496 287.759 357.544C288.235 361.028 289.182 365.345 290.754 370.656C293.858 381.142 293.07 389.32 289.906 395.37C286.745 401.413 281.311 405.144 275.49 406.927C269.685 408.705 263.401 408.578 258.388 406.813C253.393 405.054 249.402 401.546 248.833 396.429C247.808 387.197 250.89 378.716 254.564 372.036C257.383 366.91 260.639 362.709 262.691 360.061L262.692 360.059L262.693 360.058C263.301 359.274 263.803 358.626 264.157 358.13C264.862 357.144 265.674 355.412 266.071 353.447C266.468 351.482 266.419 349.44 265.6 347.735C264.807 346.084 263.205 344.561 260.094 343.741C256.935 342.909 252.254 342.817 245.463 344.11C240.166 345.119 235.828 346.713 232.362 348.6C232.763 349.569 233.116 350.511 233.423 351.424C235.147 356.553 235.461 360.938 234.354 364.176C233.793 365.817 232.863 367.172 231.569 368.138C230.276 369.102 228.694 369.622 226.919 369.716C223.416 369.9 220.728 368.545 219.422 366.027C218.159 363.589 218.379 360.413 219.838 357.274C221.397 353.921 224.423 350.447 229.021 347.524C225.94 340.941 220.621 333.05 212.569 324.329C211.744 325.66 210.823 326.922 209.799 328.11C211.688 329.907 213.143 332.121 214.195 334.667C216.615 340.525 216.878 348.062 215.645 356.2C214.409 364.362 211.65 373.259 207.887 381.929C200.382 399.222 188.766 415.869 176.935 424.019C171.014 428.097 164.846 430.176 159.034 428.859C153.184 427.534 148.101 422.865 144.162 414.363C143.295 412.492 143.271 410.25 143.619 407.944C143.969 405.617 144.728 403.047 145.603 400.417C146.029 399.137 146.482 397.843 146.936 396.545L146.936 396.544C148.381 392.416 149.838 388.251 150.488 384.379C151.339 379.318 150.715 375.298 147.302 372.722C143.724 370.023 136.724 368.582 123.85 369.944C111.083 371.293 102.341 374.579 96.4557 378.906C90.5947 383.215 87.4819 388.616 86.0626 394.388C85.7526 395.649 85.5231 396.927 85.364 398.216C92.3433 398.037 100.783 399.992 111.459 404.653C114.733 406.083 117.044 407.859 118.467 409.914C119.905 411.992 120.373 414.268 120.101 416.545C119.568 421.004 116.224 425.362 112.125 428.65C107.998 431.961 102.825 434.419 98.2176 434.898C95.9048 435.138 93.6444 434.888 91.7299 433.897C89.7816 432.888 88.3067 431.169 87.5157 428.714C85.2911 421.808 82.0405 411.4 82.4988 401.061C82.3603 401.079 82.2226 401.097 82.0856 401.117C75.1749 402.113 70.0471 405.635 65.3569 410.767C62.3809 414.024 60.7946 417.259 60.1212 420.26C62.0256 420.239 63.7307 420.383 65.2497 420.663C70.5339 421.639 73.6486 424.305 74.8368 427.496C76.0025 430.627 75.2119 434.042 73.1381 436.239C70.9993 438.505 67.5918 439.38 63.8698 437.586C62.5403 436.945 61.1619 435.588 60.0209 433.847C58.8608 432.077 57.8731 429.801 57.3983 427.191C57.1603 425.883 57.0522 424.497 57.1133 423.053C53.303 423.424 48.6763 424.419 43.116 426.284C32.7478 429.761 24.5468 429.266 18.3878 426.321C12.2355 423.379 8.3119 418.082 6.32152 412.328C4.33678 406.591 4.2389 400.306 5.82313 395.234C7.40184 390.179 10.7643 386.064 15.8582 385.313C25.0475 383.957 33.633 386.733 40.4404 390.166C45.6644 392.8 49.9793 395.903 52.6993 397.859C53.5063 398.439 54.1728 398.919 54.6811 399.255C55.6919 399.924 57.4521 400.673 59.4302 401C61.408 401.326 63.4465 401.204 65.1216 400.325C66.7434 399.473 68.2075 397.817 68.9152 394.679C69.6337 391.493 69.5587 386.811 68.0227 380.07C66.8246 374.813 65.0761 370.535 63.0665 367.139C62.1125 367.574 61.184 367.961 60.2825 368.301C55.2178 370.207 50.8477 370.677 47.5714 369.687C45.9121 369.186 44.5244 368.305 43.513 367.046C42.5025 365.788 41.9261 364.226 41.7691 362.455C41.4594 358.962 42.7172 356.227 45.1875 354.832C47.5778 353.482 50.7597 353.588 53.9488 354.934C57.3556 356.371 60.9362 359.271 64.0217 363.761C70.4901 360.447 78.186 354.848 86.6127 346.489C79.2266 342.271 73.7406 335.112 71.2691 324.157C68.1191 310.194 69.8832 301.252 74.4701 296.561C79.0199 291.909 85.8377 291.917 91.8291 294.658C92.2186 293.371 92.8523 292.147 93.7654 291.027C99.6341 283.827 107.845 280.085 115.185 278.026C120.818 276.446 126.097 275.826 129.425 275.435L129.425 275.435C130.412 275.319 131.227 275.224 131.829 275.129C133.026 274.941 134.831 274.307 136.512 273.213C138.192 272.119 139.614 270.654 140.258 268.875C140.88 267.153 140.844 264.943 139.249 262.148C137.63 259.312 134.417 255.906 128.736 251.967C124.304 248.894 120.128 246.916 116.354 245.765C115.943 246.73 115.518 247.642 115.082 248.5C112.63 253.324 109.721 256.619 106.634 258.099C105.071 258.848 103.453 259.134 101.857 258.887C100.262 258.64 98.7832 257.876 97.4726 256.675C94.8872 254.305 93.9705 251.437 94.8531 248.741C95.7071 246.132 98.1275 244.064 101.389 242.906C104.874 241.669 109.473 241.394 114.78 242.627C117.319 235.817 119.223 226.492 119.804 214.637C111.507 216.506 102.627 214.922 93.4126 208.502C81.6679 200.32 76.9376 192.529 77.1595 185.973C77.3844 179.327 82.6408 174.676 89.1032 172.728C95.5967 170.772 103.671 171.389 110.275 175.536C116.937 179.719 121.961 187.402 122.452 199.269C122.624 203.434 122.655 207.383 122.56 211.115C129.49 208.677 135.982 203.657 141.888 197.112C155.062 182.514 164.955 160.744 170.019 145.104L170.043 145.029L170.076 144.958C175.71 132.766 181.672 125.112 187.766 121.184C193.951 117.197 200.182 117.111 206.008 119.843C211.747 122.534 217.024 127.921 221.605 134.76C226.198 141.619 230.164 150.048 233.235 158.986C237.769 172.182 240.402 186.635 240.152 198.932C242.18 199.758 244.212 200.66 246.235 201.629C262.257 209.298 277.937 221.268 286.404 233.688C287.33 235.047 288.174 236.418 288.925 237.794C294.495 236.666 299.633 236.409 302.9 236.245L302.9 236.245L302.901 236.245C303.893 236.195 304.713 236.154 305.32 236.1C306.527 235.992 308.37 235.48 310.12 234.502C311.869 233.523 313.386 232.156 314.147 230.424C314.884 228.747 314.995 226.539 313.591 223.645C312.165 220.706 309.187 217.094 303.782 212.783C299.566 209.421 295.531 207.168 291.842 205.767C291.368 206.702 290.884 207.584 290.391 208.411C287.621 213.06 284.498 216.154 281.32 217.423C279.71 218.066 278.076 218.243 276.5 217.89C274.926 217.537 273.501 216.676 272.274 215.39C269.853 212.852 269.13 209.93 270.191 207.299C271.217 204.753 273.771 202.851 277.103 201.914C280.662 200.912 285.27 200.945 290.482 202.531C293.471 195.906 295.994 186.729 297.367 174.939C288.963 176.249 280.209 174.075 271.445 167.054C260.273 158.105 256.075 150.015 256.734 143.487C257.403 136.871 262.959 132.582 269.537 131.072C276.147 129.553 284.162 130.71 290.474 135.289C296.841 139.908 301.34 147.909 301.036 159.783C300.93 163.95 300.696 167.892 300.352 171.61C307.43 169.641 314.242 165.066 320.574 158.93C334.693 145.246 346.021 124.186 352.119 108.92L352.148 108.847L352.186 108.778C358.623 96.9907 365.083 89.7522 371.426 86.2403C377.863 82.6764 384.087 83.0066 389.717 86.1223C395.263 89.1915 400.168 94.919 404.281 102.049C408.406 109.2 411.799 117.875 414.265 126.998C419.185 145.197 420.489 165.454 416.324 179.204C414.24 186.084 410.715 191.556 405.351 194.152ZM91.3627 297.343C91.2704 297.297 91.1779 297.252 91.0853 297.207C85.5644 294.555 79.9085 294.753 76.3461 298.396C72.7213 302.102 70.7356 309.869 73.8288 323.579C76.225 334.201 81.5389 340.784 88.5298 344.552C91.2629 341.741 94.0671 338.642 96.9261 335.242C102.349 328.792 104.344 322.528 104.189 316.974C99.2053 314.067 95.1945 309.702 93.0502 305.12C91.8616 302.58 91.2201 299.897 91.3627 297.343ZM103.832 313.641C100.069 311.046 97.0899 307.562 95.4268 304.008C94.6045 302.251 94.1196 300.522 93.9972 298.892C98.2782 301.816 101.905 306.388 103.427 311.896C103.585 312.467 103.72 313.048 103.832 313.641ZM106.721 315.371C106.588 313.938 106.329 312.544 105.956 311.197C104.107 304.507 99.511 299.095 94.2119 295.915C94.4929 294.733 95.0177 293.644 95.7992 292.685C101.19 286.072 108.817 282.537 115.894 280.553C121.295 279.038 126.22 278.458 129.566 278.064C130.627 277.939 131.529 277.832 132.237 277.721C133.827 277.471 135.978 276.691 137.943 275.412C139.909 274.133 141.822 272.265 142.725 269.768C143.649 267.213 143.443 264.203 141.528 260.848C139.637 257.535 136.074 253.862 130.231 249.811C125.692 246.663 121.336 244.569 117.322 243.319C119.998 236.047 121.93 226.235 122.464 213.914C130.339 211.411 137.51 205.881 143.836 198.87C157.337 183.908 167.364 161.793 172.491 145.988C178.026 134.03 183.712 126.919 189.188 123.389C194.584 119.911 199.854 119.855 204.894 122.218C210.02 124.623 214.971 129.57 219.424 136.22C223.864 142.849 227.738 151.062 230.753 159.838C235.112 172.526 237.63 186.246 237.542 197.908C232.414 195.978 227.352 194.554 222.579 193.771C215.14 192.552 208.262 192.867 202.931 195.411C200.277 196.677 198.046 198.477 196.339 200.845C195.822 199.886 195.283 198.962 194.72 198.091C191.753 193.503 187.795 189.907 182.054 190.449C176.518 190.97 169.791 195.338 161.151 205.09C152.44 214.922 147.91 223.653 146.365 231.414C144.815 239.205 146.294 245.915 149.408 251.623C150.161 253.004 151.009 254.325 151.933 255.59C151.712 255.842 151.496 256.096 151.287 256.352C146.351 262.366 144.852 269.088 144.852 276.425C144.852 281.633 146.146 285.737 148.107 288.886C145.255 291.968 142.273 296.13 139.231 301.609C134.163 310.74 128.256 315.347 122.535 317.081C117.01 318.756 111.47 317.809 106.721 315.371ZM106.81 318.324C106.627 324.177 104.302 330.546 98.9345 336.931C96.2519 340.121 93.6103 343.057 91.0225 345.748C97.7829 348.624 105.961 349.297 114.737 348.45C130.523 346.926 147.881 340.519 161.503 333.832C157.704 329.064 158.196 322.509 161.156 316.874C164.309 310.87 170.407 305.541 177.993 303.734C185.644 301.911 194.647 303.709 203.458 311.673C206.551 314.468 209.39 317.213 211.987 319.895C215.103 313.243 216.069 305.093 215.536 296.293C214.35 276.666 205.747 254.354 198.136 239.783L198.099 239.714L198.071 239.64C193.322 227.085 191.795 217.388 192.82 210.139C193.174 207.635 193.834 205.426 194.764 203.498C194.058 202.092 193.315 200.75 192.517 199.516C189.73 195.206 186.558 192.66 182.301 193.061C177.839 193.481 171.7 197.141 163.115 206.83C154.601 216.439 150.365 224.762 148.939 231.926C147.519 239.061 148.865 245.148 151.711 250.366C152.333 251.506 153.026 252.605 153.778 253.663C158.809 248.823 166.357 244.572 177.383 240.811C180.765 239.658 183.669 239.41 186.105 239.967C188.568 240.531 190.449 241.895 191.785 243.759C194.399 247.411 194.87 252.883 194.063 258.076C193.25 263.304 191.09 268.608 188.012 272.07C186.467 273.808 184.629 275.148 182.547 275.708C180.428 276.277 178.18 276.004 175.94 274.725C169.639 271.127 160.218 265.637 153.582 257.696C153.492 257.803 153.403 257.909 153.315 258.016C148.885 263.414 147.476 269.472 147.476 276.425C147.476 280.837 148.488 284.295 150.015 286.964C151.407 285.664 152.762 284.62 154.073 283.802C158.632 280.958 162.729 280.825 165.759 282.379C168.732 283.903 170.452 286.958 170.403 289.979C170.353 293.094 168.428 296.038 164.47 297.225C163.057 297.649 161.124 297.577 159.107 297.062C157.056 296.538 154.792 295.524 152.681 293.918C151.623 293.113 150.607 292.162 149.679 291.056C147.116 293.899 144.372 297.755 141.526 302.883C136.218 312.444 129.83 317.611 123.297 319.592C117.51 321.346 111.768 320.552 106.81 318.324ZM163.449 335.798C149.529 342.714 131.493 349.469 114.989 351.062C105.59 351.969 96.5656 351.214 89.0636 347.75C80.3575 356.485 72.312 362.424 65.4312 365.987C67.5513 369.618 69.3538 374.102 70.581 379.487C72.1608 386.42 72.3139 391.535 71.4749 395.256C70.6251 399.024 68.746 401.386 66.341 402.648C63.9893 403.882 61.3174 403.97 59.0033 403.589C56.6893 403.207 54.5759 402.332 53.2335 401.444C52.6356 401.048 51.8984 400.518 51.0315 399.895L51.0307 399.895C48.2946 397.928 44.2676 395.034 39.259 392.509C32.6967 389.2 24.6816 386.663 16.2412 387.909C12.5203 388.458 9.73917 391.497 8.32776 396.016C6.92187 400.517 6.98724 406.226 8.80127 411.471C10.6096 416.698 14.1202 421.371 19.5198 423.954C24.9125 426.533 32.3809 427.117 42.2816 423.796C48.2227 421.803 53.232 420.742 57.4162 420.391C58.0934 416.744 59.9066 412.841 63.42 408.997C68.3694 403.581 74.011 399.63 81.7113 398.52C82.0384 398.473 82.3688 398.431 82.7027 398.394C82.8738 396.837 83.139 395.289 83.5145 393.762C85.0671 387.448 88.5012 381.497 94.9015 376.792C101.277 372.105 110.511 368.715 123.574 367.334C136.531 365.964 144.443 367.278 148.882 370.628C153.485 374.101 153.981 379.425 153.076 384.813C152.385 388.929 150.819 393.4 149.359 397.571L149.358 397.574C148.918 398.831 148.487 400.061 148.093 401.246C147.226 403.85 146.529 406.243 146.213 408.335C145.895 410.446 145.994 412.077 146.542 413.26C150.29 421.35 154.853 425.221 159.614 426.3C164.412 427.387 169.82 425.734 175.446 421.858C186.709 414.1 198.072 397.953 205.48 380.884C209.175 372.372 211.856 363.695 213.051 355.807C214.249 347.894 213.932 340.902 211.77 335.669C210.859 333.465 209.617 331.56 207.997 330.018C203.579 334.293 197.579 337.38 189.701 338.863C176.797 341.292 168.264 339.739 163.449 335.798ZM205.916 328.377C201.909 332.151 196.464 334.92 189.216 336.284C177.511 338.487 170.203 337.199 166.07 334.469C168.094 333.422 170.016 332.379 171.816 331.356C183.969 326.263 192.963 324.849 199.386 325.938C201.941 326.371 204.104 327.201 205.916 328.377ZM207.761 326.454C205.573 324.942 202.938 323.878 199.824 323.351C192.676 322.139 183.111 323.768 170.728 328.967L170.655 328.997L170.587 329.036C168.515 330.215 166.282 331.42 163.917 332.625C160.628 328.932 160.692 323.399 163.479 318.094C166.311 312.7 171.816 307.902 178.601 306.286C185.319 304.686 193.454 306.168 201.699 313.619C204.995 316.598 207.99 319.512 210.702 322.344C209.849 323.798 208.873 325.172 207.761 326.454ZM277.077 274.265C274.767 272.803 272.719 270.988 271.03 268.997C272.948 269.615 274.804 270.094 276.513 270.291C278.76 270.549 280.948 270.342 282.704 269.115C289.377 264.452 292.552 258.742 292.855 252.509C293.05 248.491 292.046 244.347 290.149 240.227C295.201 239.263 299.725 239.035 302.865 238.877L302.868 238.877C303.933 238.823 304.84 238.777 305.553 238.714C307.156 238.57 309.354 237.937 311.401 236.792C313.448 235.646 315.481 233.911 316.55 231.48C317.642 228.993 317.638 225.975 315.952 222.5C314.287 219.068 310.977 215.165 305.418 210.732C301.099 207.288 296.894 204.907 292.972 203.391C296.128 196.315 298.712 186.654 300.069 174.396C308.094 172.425 315.618 167.387 322.4 160.815C336.871 146.79 348.354 125.395 354.526 109.967C360.849 98.4063 366.998 91.6913 372.697 88.5359C378.314 85.4263 383.576 85.723 388.446 88.4181C393.4 91.1597 398.009 96.427 402.008 103.36C405.995 110.271 409.31 118.725 411.732 127.683C416.588 145.646 417.777 165.354 413.813 178.443C411.832 184.982 408.637 189.647 404.208 191.79C399.814 193.917 393.833 193.736 385.857 189.751C384.691 189.168 383.596 187.955 382.528 186.106C381.47 184.274 380.522 181.969 379.576 179.393C379.145 178.22 378.714 176.99 378.274 175.732L378.273 175.73L378.273 175.73L378.272 175.728C376.813 171.558 375.248 167.088 373.221 163.44C370.568 158.664 366.859 154.812 361.095 154.968C355.536 155.119 348.532 159.027 339.26 168.179C329.91 177.406 324.807 185.815 322.747 193.455C320.678 201.125 321.706 207.919 324.431 213.822C325.09 215.25 325.848 216.626 326.685 217.95C326.447 218.186 326.215 218.425 325.989 218.666C320.662 224.337 318.717 230.944 318.226 238.264C317.878 243.461 318.895 247.642 320.641 250.915C317.589 253.799 314.335 257.753 310.934 263.016C305.267 271.787 299.065 275.989 293.241 277.337C287.41 278.686 281.751 277.223 277.077 274.265ZM290.234 252.382C290.412 248.712 289.443 244.802 287.515 240.791C280.759 242.398 273.603 245.413 268.196 251.207C265.63 253.957 265.352 258.067 267.067 262.48C267.434 263.423 267.888 264.367 268.422 265.298C268.976 265.506 269.52 265.705 270.053 265.894C272.584 266.793 274.864 267.46 276.813 267.684C278.769 267.909 280.198 267.664 281.201 266.964C287.319 262.689 289.977 257.678 290.234 252.382ZM266.278 249.417C271.982 243.304 279.392 240.113 286.257 238.397C285.647 237.324 284.972 236.246 284.236 235.166C276.108 223.243 260.854 211.536 245.102 203.995C243.416 203.188 241.727 202.43 240.043 201.725C239.851 205.001 239.437 208.095 238.78 210.937C237.161 217.941 234.01 223.637 228.831 226.585C223.619 229.553 216.717 229.536 208.074 225.918C206.172 225.121 204.642 223.483 203.342 221.545C202.032 219.591 200.858 217.183 199.73 214.651C199.181 213.418 198.642 212.157 198.101 210.892L198.101 210.891C197.504 209.494 196.905 208.092 196.288 206.719C195.905 207.875 195.612 209.135 195.418 210.507C194.484 217.114 195.84 226.304 200.498 238.638C208.184 253.37 216.939 276.019 218.156 296.134C218.726 305.561 217.648 314.552 213.917 321.925C222.334 330.938 227.982 339.191 231.295 346.195C235 344.207 239.546 342.566 244.972 341.532C251.957 340.202 257.074 340.232 260.762 341.204C264.498 342.188 266.79 344.151 267.966 346.599C269.115 348.994 269.107 351.667 268.643 353.966C268.179 356.265 267.228 358.346 266.293 359.655C265.876 360.238 265.321 360.956 264.667 361.799L264.666 361.801C262.603 364.465 259.566 368.386 256.863 373.301C253.321 379.74 250.499 387.66 251.441 396.139C251.857 399.877 254.794 402.766 259.26 404.338C263.708 405.904 269.416 406.043 274.721 404.418C280.011 402.798 284.806 399.457 287.58 394.154C290.351 388.857 291.202 381.414 288.238 371.401C286.601 365.87 285.6 361.303 285.114 357.555C279.973 357.305 274.764 355.403 271.654 350.402C267.853 344.286 264.76 338.323 264.203 330.699C264.188 330.492 264.175 330.285 264.164 330.076C262.66 329.85 261.169 329.536 259.7 329.119C253.446 327.341 247.622 323.696 243.149 317.131C238.694 310.592 235.637 301.242 234.725 288.138C233.82 275.145 235.497 267.406 239.151 263.273C242.927 259.003 248.404 258.976 253.797 260.223C257.369 261.049 261.198 262.51 264.816 263.913C264.749 263.752 264.684 263.592 264.622 263.431C262.703 258.495 262.765 253.182 266.278 249.417ZM297.657 172.229C298.04 168.327 298.3 164.157 298.413 159.715C298.698 148.606 294.524 141.468 288.933 137.413C283.288 133.317 276.062 132.265 270.124 133.629C264.155 135 259.858 138.682 259.345 143.751C258.824 148.909 262.116 156.218 273.085 165.006C281.583 171.813 289.843 173.645 297.657 172.229ZM289.326 204.924C284.696 203.585 280.733 203.618 277.813 204.439C274.965 205.241 273.247 206.735 272.624 208.28C272.036 209.739 272.286 211.601 274.173 213.578C275.099 214.55 276.081 215.107 277.074 215.33C278.066 215.552 279.16 215.461 280.347 214.987C282.761 214.022 285.505 211.486 288.136 207.068C288.538 206.394 288.935 205.679 289.326 204.924ZM324.023 251.414C324.804 252.521 325.678 253.466 326.593 254.264C328.316 255.767 330.196 256.76 331.888 257.315C333.612 257.881 335.021 257.956 335.826 257.772C338.777 257.098 340.039 255.206 340.199 253.278C340.368 251.256 339.338 249.054 337.338 247.852C335.393 246.684 332.303 246.347 328.17 248.556C326.877 249.247 325.491 250.184 324.023 251.414ZM330.117 218.351C335.851 226.371 344.607 232.346 350.809 236.46C352.423 237.53 353.949 237.778 355.375 237.495C356.839 237.205 358.323 236.33 359.741 234.934C362.591 232.131 364.912 227.486 365.994 222.672C367.085 217.823 366.844 213.156 365.008 210.192C364.115 208.75 362.837 207.69 361.07 207.16C359.278 206.621 356.883 206.6 353.745 207.44C342.51 210.451 335.049 214.122 330.117 218.351ZM197.708 203.546C199.248 200.917 201.419 199.039 204.061 197.779C208.708 195.562 214.973 195.183 222.154 196.361C226.993 197.154 232.184 198.644 237.469 200.689C237.312 204.154 236.904 207.403 236.224 210.346C234.685 217.002 231.808 221.871 227.533 224.305C223.291 226.721 217.311 226.94 209.087 223.497C207.885 222.994 206.711 221.857 205.522 220.084C204.343 218.327 203.244 216.09 202.127 213.583C201.618 212.441 201.106 211.242 200.582 210.016L200.582 210.015C199.672 207.884 198.728 205.673 197.708 203.546ZM119.83 199.377C120.014 203.816 120.034 207.995 119.913 211.914C112.211 213.849 103.846 212.573 94.9125 206.349C83.38 198.315 79.6066 191.243 79.7819 186.061C79.9543 180.969 83.996 177.008 89.8602 175.241C95.6931 173.483 102.973 174.049 108.88 177.758C114.729 181.431 119.371 188.274 119.83 199.377ZM102.267 245.378C105.125 244.364 109.078 244.066 113.786 245.092C113.447 245.872 113.099 246.611 112.743 247.311C110.413 251.895 107.845 254.609 105.5 255.733C104.348 256.285 103.263 256.449 102.258 256.294C101.252 256.138 100.235 255.647 99.2457 254.74C97.231 252.894 96.8572 251.053 97.3468 249.557C97.8648 247.975 99.479 246.369 102.267 245.378ZM154.269 291.83C153.304 291.095 152.368 290.21 151.515 289.158C152.898 287.832 154.218 286.805 155.462 286.029C159.437 283.549 162.543 283.678 164.562 284.714C166.638 285.779 167.812 287.907 167.78 289.936C167.748 291.871 166.616 293.842 163.716 294.712C162.925 294.949 161.515 294.969 159.756 294.52C158.032 294.079 156.089 293.214 154.269 291.83ZM177.241 272.446C170.778 268.756 161.642 263.38 155.384 255.761C160.022 251.212 167.221 247.05 178.23 243.295C181.305 242.246 183.695 242.108 185.52 242.525C187.318 242.936 188.664 243.909 189.651 245.287C191.681 248.121 192.234 252.762 191.47 257.673C190.712 262.549 188.707 267.339 186.051 270.326C184.729 271.813 183.307 272.786 181.866 273.174C180.462 273.551 178.923 273.406 177.241 272.446ZM222.218 358.38C223.496 355.63 226.052 352.601 230.084 349.961C230.402 350.749 230.686 351.516 230.936 352.259C232.574 357.134 232.712 360.868 231.871 363.328C231.458 364.537 230.815 365.427 230 366.034C229.184 366.643 228.121 367.025 226.781 367.096C224.052 367.239 222.476 366.216 221.752 364.819C220.986 363.341 220.971 361.064 222.218 358.38ZM289.959 354.684C289.137 354.807 288.307 354.892 287.477 354.934C287.324 352.94 287.355 351.284 287.528 349.92C287.781 347.932 288.324 346.659 288.948 345.866C289.552 345.098 290.287 344.708 291.114 344.565C292.873 344.261 295.162 345.077 297.156 346.425C298.125 347.079 298.948 347.809 299.523 348.48C300.148 349.207 300.314 349.671 300.323 349.803C300.327 349.847 300.305 350.123 299.832 350.634C299.384 351.119 298.664 351.664 297.686 352.205C295.738 353.283 292.98 354.233 289.959 354.684ZM294.059 323.847C286.874 325.881 276.592 328.645 266.741 327.745C266.835 321.262 268.849 313.348 273.952 302.718C275.357 299.789 276.933 297.986 278.51 296.977C280.063 295.982 281.7 295.703 283.375 295.964C286.819 296.502 290.518 299.358 293.487 303.344C296.435 307.301 298.448 312.088 298.719 316.076C298.854 318.061 298.552 319.757 297.819 321.057C297.104 322.324 295.922 323.32 294.059 323.847ZM52.9289 357.351C55.7232 358.53 58.8418 360.976 61.6251 364.911C60.8485 365.257 60.0925 365.568 59.3581 365.845C54.5457 367.656 50.8192 367.928 48.3303 367.176C47.107 366.806 46.195 366.195 45.5585 365.403C44.921 364.609 44.5013 363.561 44.3828 362.224C44.1415 359.501 45.1074 357.89 46.4776 357.117C47.9276 356.298 50.2027 356.201 52.9289 357.351ZM59.9798 426.721C59.7626 425.528 59.6685 424.243 59.7488 422.891C61.6637 422.845 63.3317 422.977 64.7731 423.244C69.3809 424.095 71.586 426.285 72.3778 428.412C73.1921 430.599 72.623 432.962 71.23 434.438C69.902 435.845 67.7356 436.536 65.0089 435.222C64.2649 434.864 63.2102 433.927 62.2156 432.409C61.2399 430.92 60.3892 428.971 59.9798 426.721ZM90.0133 427.909C87.7314 420.826 84.6142 410.694 85.134 400.848C91.6273 400.619 99.7487 402.403 110.409 407.058C113.386 408.358 115.244 409.868 116.309 411.407C117.359 412.924 117.697 414.55 117.496 416.233C117.082 419.695 114.36 423.493 110.483 426.603C106.634 429.691 101.922 431.875 97.9463 432.288C95.9675 432.494 94.2615 432.253 92.9364 431.567C91.6452 430.898 90.6071 429.753 90.0133 427.909Z" fill="white"/>
</g>
<path fill-rule="evenodd" clip-rule="evenodd" d="M204.214 235.132C204.214 235.132 202.214 278.632 202.414 282.532C202.614 286.332 260.014 287.132 260.014 287.132C260.014 287.132 262.014 242.532 262.014 240.432C262.014 239.932 260.214 207.132 246.014 208.232C236.014 209.032 219.514 207.532 208.414 213.532C203.814 215.932 204.214 235.132 204.214 235.132Z" fill="#DEC0F1"/>
<path fill-rule="evenodd" clip-rule="evenodd" d="M101.213 266.333C94.013 262.233 77.213 252.633 67.313 244.833C67.013 244.533 61.913 240.833 66.513 238.233C66.513 238.233 63.513 236.333 64.813 233.733C65.813 231.733 67.413 231.633 68.713 231.933C68.813 231.933 66.613 230.733 67.913 228.633C69.713 225.933 73.313 227.333 75.613 228.933C75.713 228.933 74.413 227.933 75.613 225.933C76.013 225.133 77.613 224.433 80.313 225.433C84.913 227.133 98.013 236.033 98.013 236.033C98.013 236.033 97.113 233.033 96.013 229.833C95.713 228.933 95.513 226.533 97.413 225.633C99.313 224.733 100.313 225.533 102.213 228.433C104.213 231.433 108.013 237.233 109.613 242.433C109.713 242.833 112.913 244.933 115.013 246.633C124.513 253.733 113.013 273.033 101.213 266.333Z" fill="#EFD9CE"/>
<path d="M91.0145 238.133C91.0145 238.133 78.3145 230.533 75.3145 228.633" stroke="#424D51" stroke-linecap="round" stroke-linejoin="round"/>
<path d="M88.4145 242.932C88.4145 242.932 77.8145 236.032 72.8145 233.232C71.5145 232.532 69.9145 231.832 68.3145 231.732" stroke="#424D51" stroke-linecap="round" stroke-linejoin="round"/>
<path d="M85.9141 248.133C85.9141 248.133 74.3141 240.633 71.1141 238.933C70.4141 238.533 68.5141 237.633 66.9141 237.933" stroke="#424D51" stroke-linecap="round" stroke-linejoin="round"/>
<path fill-rule="evenodd" clip-rule="evenodd" d="M101.714 266.632C101.514 267.032 98.7141 265.432 98.4141 263.432C98.1141 261.432 109.314 242.632 111.214 242.832C113.214 243.032 115.314 244.532 115.314 244.532C115.314 244.532 101.914 266.232 101.714 266.632Z" fill="#EFD9CE"/>
<path fill-rule="evenodd" clip-rule="evenodd" d="M215.914 237.333C224.814 223.233 245.614 207.333 214.714 208.833C199.414 208.833 193.814 215.733 187.814 222.633C177.614 234.233 159.714 264.533 161.514 264.933C163.714 265.433 137.914 252.933 130.214 248.833C123.214 245.033 116.114 239.733 112.614 244.433C109.814 248.333 96.3145 266.733 101.114 271.133C110.714 279.733 144.314 297.133 156.214 301.333C165.614 304.633 177.014 302.033 188.814 283.633C205.914 256.533 201.414 260.433 215.914 237.333Z" fill="#DEC0F1"/>
<path d="M163.214 266.832C163.214 266.832 153.214 260.832 151.014 259.932" stroke="#424D51" stroke-linecap="round" stroke-linejoin="round"/>
<path d="M98.0587 235.963C99.4091 239.408 97.3508 241.155 97.1249 243.052C96.6041 247.692 100.043 249.889 102.744 249.825" stroke="#424D51" stroke-linecap="round" stroke-linejoin="round"/>
<path d="M203.113 260.632L210.613 238.432" stroke="#424D51" stroke-linecap="round" stroke-linejoin="round"/>
<path d="M261.813 247.433L260.713 234.033" stroke="#424D51" stroke-linecap="round" stroke-linejoin="round"/>
<path fill-rule="evenodd" clip-rule="evenodd" d="M222.712 211.733C221.112 217.833 245.712 221.333 247.212 215.033C247.312 209.533 247.512 206.333 248.012 196.433C248.212 191.233 242.612 191.533 239.712 191.233C234.112 190.633 231.812 196.433 231.812 196.433C231.812 196.433 224.412 208.933 222.712 211.733Z" fill="#EFD9CE"/>
<path fill-rule="evenodd" clip-rule="evenodd" d="M232.413 192.233C232.013 194.033 231.813 201.933 237.413 206.133C241.913 209.433 247.413 208.933 247.413 208.933C247.413 208.933 248.313 198.933 248.213 197.933C248.113 197.033 232.713 190.933 232.413 192.233Z" fill="#424D51"/>
<path fill-rule="evenodd" clip-rule="evenodd" d="M230.712 186.033C230.712 186.033 230.412 202.033 239.912 203.533C249.412 205.033 251.612 197.233 251.812 196.733C252.012 196.133 253.812 182.533 252.112 178.233C250.412 173.933 245.012 167.833 237.812 169.433C230.612 171.033 229.712 175.933 229.512 180.133C229.412 182.433 230.712 186.033 230.712 186.033Z" fill="#EFD9CE"/>
<path fill-rule="evenodd" clip-rule="evenodd" d="M232.712 183.033C232.312 181.833 227.412 176.333 223.212 180.133C220.412 182.633 221.412 185.333 222.912 186.933C224.712 188.933 227.212 189.633 230.012 188.633C232.712 187.733 232.812 185.933 233.112 185.333C233.312 184.433 233.012 183.833 232.712 183.033Z" fill="#EFD9CE"/>
<path fill-rule="evenodd" clip-rule="evenodd" d="M249.513 183.133C249.913 181.933 254.813 176.533 259.013 180.233C261.813 182.733 260.813 185.433 259.313 187.033C257.513 189.033 255.013 189.733 252.213 188.733C249.513 187.833 249.413 186.033 249.213 185.433C248.913 184.533 249.213 183.933 249.513 183.133Z" fill="#EFD9CE"/>
<path fill-rule="evenodd" clip-rule="evenodd" d="M234.313 176.733C234.313 176.733 242.413 181.133 249.813 176.733C249.913 176.733 250.813 180.533 252.913 180.033L253.713 169.033C253.713 169.033 253.513 165.933 249.513 165.733C246.313 165.633 233.113 165.133 233.113 165.133C233.113 165.133 229.413 165.133 229.313 168.933C229.213 172.733 229.113 179.933 229.713 179.933C232.013 179.933 234.313 176.733 234.313 176.733Z" fill="#F1D7AD"/>
<path d="M237.913 190.533C238.913 194.433 242.813 193.233 242.813 193.233" stroke="#424D51" stroke-width="0.729" stroke-linecap="round" stroke-linejoin="round"/>
<path d="M242.112 186.733C242.112 186.733 243.712 187.533 243.412 188.733C243.112 189.933 241.912 189.733 241.112 189.533" stroke="#424D51" stroke-width="0.729" stroke-linecap="round" stroke-linejoin="round"/>
<path d="M244.612 184.933C244.612 184.933 245.612 183.333 247.312 183.133C249.012 182.933 249.812 183.933 250.312 185.033" stroke="#424D51" stroke-width="0.729" stroke-linecap="round" stroke-linejoin="round"/>
<path d="M246.813 183.433C247.313 183.033 248.012 183.233 248.412 183.733C248.812 184.233 248.713 184.933 248.113 185.333C247.613 185.733 246.912 185.633 246.512 185.033C246.212 184.533 246.313 183.833 246.813 183.433Z" stroke="#424D51" stroke-width="0.729" stroke-linecap="round" stroke-linejoin="round"/>
<path d="M233.513 184.933C233.513 184.933 234.513 183.333 236.213 183.133C237.913 182.933 238.713 183.933 239.213 185.033" stroke="#424D51" stroke-width="0.729" stroke-linecap="round" stroke-linejoin="round"/>
<path d="M235.713 183.433C236.213 183.033 236.913 183.233 237.313 183.733C237.713 184.233 237.613 184.933 237.013 185.333C236.413 185.733 235.813 185.633 235.413 185.033C235.113 184.533 235.213 183.833 235.713 183.433Z" stroke="#424D51" stroke-width="0.729" stroke-linecap="round" stroke-linejoin="round"/>
<path d="M253.812 183.833C254.312 183.733 255.412 183.733 256.012 184.133M256.112 181.933C256.112 181.933 254.812 182.333 253.912 183.833L256.112 181.933ZM253.112 185.333C253.312 184.733 253.512 184.233 253.812 183.833L253.112 185.333Z" stroke="#424D51" stroke-width="0.729" stroke-linecap="round" stroke-linejoin="round"/>
<path d="M229.613 183.733C229.113 183.633 228.012 183.633 227.412 184.033M227.312 181.833C227.312 181.833 228.612 182.233 229.512 183.733L227.312 181.833ZM230.312 185.233C230.112 184.633 229.913 184.133 229.613 183.733L230.312 185.233Z" stroke="#424D51" stroke-width="0.729" stroke-linecap="round" stroke-linejoin="round"/>
<path d="M131.051 138.714C131.051 133.328 135.418 128.961 140.804 128.961H197.256C202.643 128.961 207.01 133.328 207.01 138.714C207.01 144.101 202.643 148.468 197.256 148.468H140.804C135.418 148.468 131.051 144.101 131.051 138.714Z" fill="#F8F8F8"/>
<circle cx="196.389" cy="138.715" r="3.75" fill="#ECECEC"/>
<path d="M48.8848 119.207C48.8848 113.82 53.2515 109.453 58.6382 109.453H114.203C119.59 109.453 123.957 113.82 123.957 119.207C123.957 124.593 119.59 128.96 114.203 128.96H58.6382C53.2515 128.96 48.8848 124.593 48.8848 119.207Z" fill="#F8F8F8"/>
<path d="M114.203 163.246C114.203 157.859 118.57 153.492 123.957 153.492H185.729C191.115 153.492 195.482 157.859 195.482 163.246C195.482 168.632 191.115 172.999 185.729 172.999H123.957C118.57 172.999 114.203 168.632 114.203 163.246Z" fill="#F8F8F8"/>
<path d="M56.8652 144.625C56.8652 139.238 61.232 134.871 66.6187 134.871H104.45C109.837 134.871 114.204 139.238 114.204 144.625C114.204 150.011 109.837 154.378 104.45 154.378H66.6187C61.232 154.378 56.8652 150.011 56.8652 144.625Z" fill="#F8F8F8"/>
<circle cx="123.957" cy="163.246" r="3.75" fill="#ECECEC"/>
<circle cx="67.3652" cy="144.625" r="3.75" fill="#ECECEC"/>
<circle cx="58.9902" cy="119.207" r="3.75" fill="#ECECEC"/>
<circle cx="137.207" cy="163.246" r="3.75" fill="#ECECEC"/>
<circle cx="150.457" cy="163.246" r="3.75" fill="#ECECEC"/>
<path d="M290.154 90.8296C290.154 85.443 294.521 81.0762 299.908 81.0762H356.36C361.746 81.0762 366.113 85.443 366.113 90.8296C366.113 96.2163 361.746 100.583 356.36 100.583H299.908C294.521 100.583 290.154 96.2163 290.154 90.8296Z" fill="#F8F8F8"/>
<circle cx="356.213" cy="90.8301" r="3.75" fill="#ECECEC"/>
<path d="M125.678 65.4117C125.678 60.025 130.045 55.6582 135.431 55.6582H282.26C287.647 55.6582 292.014 60.025 292.014 65.4117C292.014 70.7984 287.647 75.1651 282.26 75.1651H135.431C130.045 75.1651 125.678 70.7984 125.678 65.4117Z" fill="#F8F8F8"/>
<path d="M273.307 115.361C273.307 109.974 277.673 105.607 283.06 105.607H344.832C350.219 105.607 354.586 109.974 354.586 115.361C354.586 120.748 350.219 125.114 344.832 125.114H283.06C277.673 125.114 273.307 120.748 273.307 115.361Z" fill="#F8F8F8"/>
<path d="M133.658 90.8296C133.658 85.443 138.025 81.0762 143.412 81.0762H248.014C253.4 81.0762 257.767 85.443 257.767 90.8296C257.767 96.2163 253.4 100.583 248.014 100.583H143.412C138.025 100.583 133.658 96.2163 133.658 90.8296Z" fill="#F8F8F8"/>
<circle cx="283.061" cy="115.361" r="3.75" fill="#ECECEC"/>
<circle cx="144.158" cy="90.8301" r="3.75" fill="#ECECEC"/>
<circle cx="135.783" cy="65.4121" r="3.75" fill="#ECECEC"/>
<circle cx="296.311" cy="115.361" r="3.75" fill="#ECECEC"/>
<circle cx="309.561" cy="115.361" r="3.75" fill="#ECECEC"/>
<path d="M130.307 473.832H63.1053C50.6677 443.98 79.5378 447.232 86.774 454.299C80.4057 445.952 80.3815 422.371 93.9215 417.026C117.945 407.544 127.46 449.452 130.307 473.832Z" fill="#F8F8F8"/>
</svg>
