<svg width="424" height="522" viewBox="0 0 424 522" fill="none" xmlns="http://www.w3.org/2000/svg">
<path d="M383.815 434.469C373.391 437.944 362.158 454.136 357.754 462.159H275.405C268.89 448.766 250.973 452.024 248.439 453.834C245.905 455.644 229.975 456.188 240.476 443.88C253.517 428.595 276.25 436.942 284.817 441.889C284.636 439.778 281.885 433.528 272.329 425.42C262.329 416.935 268.728 410.5 279.387 414.742C289.052 418.588 298.753 435.555 298.753 435.555C298.753 435.555 303.313 405.087 313.051 391.757C322.371 378.998 329.52 388.5 325.9 397.91C322.78 406.023 320.591 418.542 320.652 424.153C327.469 415.345 345.91 398.074 363.545 393.023C382.82 387.503 385.987 401.292 374.766 404.968C363.545 408.645 338.867 440.395 338.867 440.395C338.867 440.395 359.867 425.42 381.825 431.03C385.643 432.006 386.394 433.609 383.815 434.469Z" fill="#F8F8F8"/>
<path d="M127.838 481.635H60.6366C48.199 451.783 77.069 455.035 84.3052 462.102C77.937 453.755 77.9127 430.174 91.4528 424.829C115.476 415.347 124.992 457.254 127.838 481.635Z" fill="#ECECEC"/>
<path d="M230.615 104.998C230.615 99.6109 234.982 95.2441 240.369 95.2441H296.821C302.207 95.2441 306.574 99.6109 306.574 104.998C306.574 110.384 302.207 114.751 296.821 114.751H240.369C234.982 114.751 230.615 110.384 230.615 104.998Z" fill="#F8F8F8"/>
<circle cx="293.529" cy="104.998" r="5.84961" fill="#ECECEC"/>
<path d="M148.449 85.4898C148.449 80.1031 152.816 75.7363 158.203 75.7363H213.768C219.155 75.7363 223.521 80.1031 223.521 85.4898C223.521 90.8765 219.155 95.2433 213.768 95.2433H158.203C152.816 95.2433 148.449 90.8765 148.449 85.4898Z" fill="#F8F8F8"/>
<path d="M213.768 129.529C213.768 124.142 218.134 119.775 223.521 119.775H285.293C290.68 119.775 295.047 124.142 295.047 129.529C295.047 134.916 290.68 139.282 285.293 139.282H223.521C218.134 139.282 213.768 134.916 213.768 129.529Z" fill="#F8F8F8"/>
<path d="M156.43 110.908C156.43 105.521 160.796 101.154 166.183 101.154H204.015C209.402 101.154 213.768 105.521 213.768 110.908C213.768 116.294 209.402 120.661 204.015 120.661H166.183C160.796 120.661 156.43 116.294 156.43 110.908Z" fill="#F8F8F8"/>
<circle cx="223.521" cy="129.529" r="3.75" fill="#ECECEC"/>
<circle cx="166.93" cy="110.908" r="3.75" fill="#ECECEC"/>
<circle cx="158.555" cy="85.4902" r="3.75" fill="#ECECEC"/>
<circle cx="236.771" cy="129.529" r="3.75" fill="#ECECEC"/>
<circle cx="250.021" cy="129.529" r="3.75" fill="#ECECEC"/>
<path d="M305.084 28.7451C302.104 23.5833 297.789 19.3192 292.592 16.4007C287.395 13.4821 281.508 12.0167 275.55 12.1585C269.591 12.3002 263.781 14.0438 258.728 17.2062C253.676 20.3686 249.569 24.833 246.837 30.1306C244.106 35.4283 242.852 41.3636 243.206 47.3134C243.56 53.2632 245.51 59.0078 248.85 63.944C252.191 68.8802 256.799 72.8258 262.191 75.3665C266.372 77.3368 270.905 78.4057 275.497 78.5223C277.705 78.5784 279.322 76.6001 279.112 74.401L276.583 47.8999C276.435 46.3411 277.209 44.8388 278.565 44.0558L305.084 28.7451Z" fill="#F8F8F8"/>
<path d="M281.965 73.9111C282.389 76.0793 284.5 77.5172 286.602 76.8365C290.555 75.5562 294.244 73.5413 297.47 70.8855C301.729 67.3796 305.047 62.8676 307.124 57.7574C309.201 52.6471 309.971 47.0998 309.366 41.6169C308.761 36.134 306.798 30.8884 303.656 26.3544L278.523 43.7709C277.218 44.6753 276.571 46.2662 276.875 47.8248L281.965 73.9111Z" fill="#ECECEC"/>
<path fill-rule="evenodd" clip-rule="evenodd" d="M197.831 236.335C195.831 228.235 189.331 225.235 181.131 226.035C169.131 227.235 125.931 237.135 101.131 255.935C83.6308 269.135 92.5308 281.535 98.4308 289.435C105.931 299.435 140.531 326.235 151.431 334.735C158.131 340.935 171.831 351.935 181.431 358.535C181.831 358.835 186.831 362.435 188.031 357.235C188.031 357.235 190.731 359.535 192.831 357.535C194.431 356.035 194.031 354.435 193.331 353.235C193.531 353.435 195.231 354.735 196.731 352.935C198.831 350.435 196.331 347.335 194.131 345.735C194.331 345.835 195.531 346.435 196.931 344.835C197.531 344.135 197.731 342.435 196.031 340.235C193.031 336.335 180.631 326.535 180.631 326.535C180.631 326.535 183.831 326.435 187.131 326.635C188.131 326.635 190.431 326.135 190.731 324.035C190.931 322.035 189.931 321.235 186.631 320.235C186.531 320.235 186.531 320.235 186.431 320.135C182.931 319.135 176.331 317.335 171.031 317.435C160.831 307.135 135.731 278.535 133.831 277.135C134.931 276.735 140.031 275.035 146.931 272.835C157.331 269.535 171.731 264.935 183.031 261.035C191.031 256.835 201.131 249.435 197.831 236.335ZM133.831 277.135C133.731 277.035 133.831 277.035 133.831 277.135V277.135Z" fill="#D9A48A"/>
<path d="M180.131 326.335C178.231 325.035 175.931 323.635 174.631 323.135" stroke="#424D51" stroke-linecap="round" stroke-linejoin="round"/>
<path d="M180.631 333.934C180.631 333.934 191.731 343.734 194.431 346.034" stroke="#424D51" stroke-linecap="round" stroke-linejoin="round"/>
<path d="M176.83 337.834C176.83 337.834 186.63 345.834 190.83 349.734C191.93 350.734 193.03 352.134 193.63 353.534" stroke="#424D51" stroke-linecap="round" stroke-linejoin="round"/>
<path d="M172.631 341.734C172.631 341.734 183.331 350.534 185.831 353.034C186.431 353.634 187.831 355.134 188.131 356.734" stroke="#424D51" stroke-linecap="round" stroke-linejoin="round"/>
<path d="M126.73 270.035C126.73 270.035 135.03 278.335 136.33 280.235" stroke="#424D51" stroke-linecap="round" stroke-linejoin="round"/>
<path d="M222.329 476.835L257.029 480.335C257.029 480.335 271.129 397.635 271.129 387.935C271.329 368.735 259.529 349.635 251.829 332.335C248.029 323.835 244.129 315.235 240.029 306.835C237.629 302.035 235.229 294.835 231.129 291.135C229.929 290.035 173.529 292.035 172.729 295.135C169.129 309.735 169.829 326.235 169.029 341.135C166.629 386.735 166.329 432.335 165.529 477.935L200.329 480.235C202.229 432.935 204.029 385.935 208.429 338.735L212.429 338.235C216.729 347.135 221.229 356.035 225.229 365.135C227.529 370.435 234.529 381.335 233.629 387.435C232.229 398.635 222.329 476.835 222.329 476.835Z" fill="#C7E7DA"/>
<path fill-rule="evenodd" clip-rule="evenodd" d="M221.93 468.434L259.63 469.534L256.63 483.334L220.23 481.134L221.93 468.434Z" fill="#B68674"/>
<path fill-rule="evenodd" clip-rule="evenodd" d="M201.53 470.234H164.83L165.23 481.134L200.83 481.634L201.53 470.234Z" fill="#B68674"/>
<path d="M198.33 338.534C198.33 338.534 210.63 339.834 227.33 335.334" stroke="#424D51" stroke-linecap="round" stroke-linejoin="round"/>
<path fill-rule="evenodd" clip-rule="evenodd" d="M223.43 478.434C223.43 478.434 219.93 478.634 219.53 481.534C219.33 483.434 220.33 484.534 221.43 485.234C221.43 485.234 219.83 486.234 218.43 488.734C217.03 491.234 214.83 496.034 216.13 499.134C216.73 500.534 252.23 499.034 252.23 499.034L289.53 499.534C289.53 499.534 288.03 492.134 279.43 489.934C271.73 487.934 270.03 487.834 266.23 487.434C263.83 487.134 261.93 486.134 260.83 484.234C259.33 481.334 257.73 480.134 254.63 478.934C249.63 476.934 228.53 477.634 223.43 478.434Z" fill="#80CAB3"/>
<path fill-rule="evenodd" clip-rule="evenodd" d="M216.03 499.333C214.93 498.133 222.43 487.233 230.53 486.433C238.03 485.733 243.33 492.233 248.23 493.433C251.43 494.233 256.43 494.233 260.73 494.233C262.63 494.233 286.63 494.333 286.63 494.333C286.63 494.333 292.33 498.533 289.73 500.733C288.33 502.033 217.03 500.433 216.03 499.333Z" fill="#957FEF"/>
<path fill-rule="evenodd" clip-rule="evenodd" d="M198.829 479.434C198.829 479.434 202.329 479.734 202.729 482.534C202.929 484.434 201.829 485.534 200.829 486.234C200.829 486.234 202.429 487.234 203.729 489.834C205.029 492.434 207.229 497.134 205.929 500.234C205.329 501.634 169.829 499.734 169.829 499.734L132.529 499.834C132.529 499.834 134.129 492.434 142.729 490.334C150.429 488.434 152.129 488.334 155.929 487.934C158.329 487.634 160.329 486.734 161.329 484.734C162.829 481.834 164.429 480.634 167.629 479.434C172.529 477.634 193.629 478.534 198.829 479.434Z" fill="#80CAB3"/>
<path fill-rule="evenodd" clip-rule="evenodd" d="M205.93 500.435C207.03 499.335 199.63 488.235 191.53 487.435C184.03 486.635 178.63 493.135 173.73 494.235C170.53 494.935 165.63 494.935 161.23 494.935C159.33 494.935 135.33 494.835 135.33 494.835C135.33 494.835 129.63 498.935 132.13 501.235C133.63 502.435 204.93 501.435 205.93 500.435Z" fill="#957FEF"/>
<path d="M308.83 139.334C308.93 139.134 308.93 139.434 308.83 139.334C309.03 152.234 301.93 200.434 297.33 212.034C293.73 221.234 290.13 225.134 280.83 231.434C278.23 232.834 263.93 241.434 246.73 249.434C233.53 255.534 220.43 261.634 214.13 264.634C199.53 271.634 194.53 260.034 194.93 249.134C195.33 237.534 205.93 226.634 214.13 222.834C231.03 215.134 265.63 200.834 266.93 200.834C267.13 199.534 269.43 190.334 272.73 179.534C277.13 164.734 282.73 142.634 283.73 138.034C280.83 133.534 279.03 126.934 278.03 123.434C278.03 123.334 278.03 123.334 278.03 123.234C277.13 119.934 277.23 118.634 279.03 117.834C280.93 116.934 282.63 118.634 283.13 119.534C284.83 122.434 286.43 125.134 286.43 125.134C286.43 125.134 288.33 109.434 290.03 104.834C291.03 102.234 292.43 101.434 294.13 101.834C295.33 102.134 296.23 102.834 295.73 105.834C295.13 109.934 294.43 114.534 294.03 117.334C293.83 118.434 293.73 119.234 293.73 119.534C293.93 118.234 294.53 117.134 297.23 117.434C299.03 117.634 299.23 119.034 299.23 119.234V119.334C299.83 118.234 300.93 117.634 303.03 118.034C305.13 118.334 305.33 120.734 305.33 120.734C309.93 119.134 309.53 125.634 309.53 126.534V126.634C309.43 133.434 309.23 136.534 308.83 139.334Z" fill="#D9A48A"/>
<path d="M286.829 125.635C286.729 127.935 286.729 130.635 286.929 131.935" stroke="#424D51" stroke-linecap="round" stroke-linejoin="round"/>
<path d="M294.129 118.734C293.929 119.234 293.529 120.834 293.529 121.634" stroke="#424D51" stroke-linecap="round" stroke-linejoin="round"/>
<path d="M299.529 119.234C299.329 119.834 299.029 121.434 299.029 122.134" stroke="#424D51" stroke-linecap="round" stroke-linejoin="round"/>
<path d="M305.53 120.734C305.33 121.234 304.93 122.934 304.93 123.634" stroke="#424D51" stroke-linecap="round" stroke-linejoin="round"/>
<path d="M266.33 240.235L248.43 207.035C241.421 209.699 229.057 214.671 221.014 218.716C213.438 221.781 205.864 221.9 199.222 222.005C195.389 222.066 191.865 222.121 188.83 222.735C180.24 223.84 175.541 225.027 169.58 226.223C160.239 228.097 152.599 231.24 146.811 233.177C144.94 233.803 143.247 234.37 141.73 234.835L154.83 271.135C154.83 271.135 162.075 269.432 171.083 267.009C171.65 280.055 172.33 295.235 172.33 295.235L231.33 291.535C231.33 291.535 233.123 267.815 233.56 256.39C239.764 254.186 257.445 244.95 266.33 240.235Z" fill="#BA79E2"/>
<path fill-rule="evenodd" clip-rule="evenodd" d="M189.73 225.235C190.33 234.835 211.73 229.235 211.43 225.635C210.93 220.835 210.83 218.035 210.23 209.435C209.93 204.935 205.03 205.735 202.43 205.735C197.43 205.735 196.03 211.135 196.03 211.135C196.03 211.135 190.93 222.635 189.73 225.235Z" fill="#D9A48A"/>
<path fill-rule="evenodd" clip-rule="evenodd" d="M194.13 201.835C194.13 201.835 195.43 215.735 203.93 216.135C212.43 216.435 213.53 209.535 213.63 209.035C213.73 208.535 213.93 196.535 212.03 192.935C210.13 189.335 204.83 184.635 198.73 186.735C192.63 188.935 192.33 193.235 192.53 196.935C192.63 198.835 194.13 201.835 194.13 201.835Z" fill="#D9A48A"/>
<path fill-rule="evenodd" clip-rule="evenodd" d="M195.629 199.035C195.129 198.035 190.429 193.735 187.029 197.435C184.829 199.835 186.029 202.235 187.429 203.335C189.229 204.835 191.529 205.235 193.729 204.135C196.029 203.035 195.929 201.535 196.029 200.935C196.229 200.235 195.929 199.735 195.629 199.035Z" fill="#D9A48A"/>
<path fill-rule="evenodd" clip-rule="evenodd" d="M210.13 197.435C210.33 196.335 214.03 191.135 218.13 193.935C220.83 195.835 220.23 198.335 219.13 199.835C217.73 201.735 215.63 202.635 213.13 202.035C210.63 201.435 210.43 199.935 210.13 199.435C209.73 198.735 210.03 198.235 210.13 197.435Z" fill="#D9A48A"/>
<path fill-rule="evenodd" clip-rule="evenodd" d="M196.892 207.409C199.792 211.909 208.13 212.834 210.93 206.034C212.53 202.234 210.442 194.637 212.642 194.237C212.642 194.237 214.63 183.034 201.73 184.234C189.93 185.334 192.064 196.619 192.564 196.519C194.564 196.219 194.092 202.909 196.892 207.409Z" fill="#D6D6D6"/>
</svg>
