<svg width="424" height="522" viewBox="0 0 424 522" fill="none" xmlns="http://www.w3.org/2000/svg">
<path d="M206.838 413.513C248.693 411.499 233.842 376.018 215.049 355.491C204.74 341.624 176.13 313.781 144.163 313.343C104.205 312.795 71.6356 359.596 56.3089 386.144C44.0477 407.382 69.7187 413.239 81.2137 413.513C103.474 412.327 155.658 415.976 206.838 413.513Z" fill="#F8F8F8"/>
<path d="M72.1813 420.636C81.2135 420.636 81.4883 415.155 79.4353 409.545C76.2888 403.113 68.7788 393.808 59.3163 393.807C54.9889 393.807 39.4758 407.355 40.2969 415.019C41.118 422.682 62.976 420.636 72.1813 420.636Z" fill="#E1E1E1"/>
<path d="M98.0412 422.681C105.267 421.258 103.971 416.705 102.42 414.607C98.0408 409.407 89.1468 402.975 83.2625 402.017C78.9912 401.322 67.6622 409.133 68.4832 416.797C69.3043 424.46 89.0095 424.46 98.0412 422.681Z" fill="#ECECEC"/>
<path d="M311.124 417.655C312.883 417.655 315.731 405.089 316.936 398.806C316.936 396.659 316.307 392.711 313.794 394.094C310.653 395.821 309.396 404.146 308.925 408.23C308.453 412.314 308.925 417.655 311.124 417.655Z" fill="#ECECEC"/>
<path d="M304.055 413.807C304.055 410.221 302.301 401.162 301.306 397.314C300.32 393.036 298.086 394.094 297.458 395.822C296.83 397.55 297.851 405.482 298.636 408.623C299.422 411.765 300.128 416.87 301.306 417.262C302.485 417.655 304.055 416.948 304.055 413.807Z" fill="#ECECEC"/>
<path d="M295.023 415.849C295.84 414.404 292.798 408.44 291.175 405.639C289.565 402.654 287.248 401.948 285.913 404.068C284.578 406.189 290.704 414.435 291.568 415.849C292.432 417.262 294.002 417.655 295.023 415.849Z" fill="#ECECEC"/>
<path d="M246.991 444.805L281.596 435.654C271.896 394.854 262.291 352.805 250.091 312.605C243.391 290.505 237.891 266.305 227.891 245.505C226.491 242.605 170.391 244.105 169.491 248.905C166.391 263.605 167.091 278.705 166.191 293.605C165.191 310.005 164.291 326.305 163.791 342.705C162.891 375.605 162.721 402.904 162.721 435.105L198.221 438.154C200.321 397.354 202.391 357.605 203.991 316.705C204.391 307.905 205.091 299.005 205.591 290.205C217.891 341.705 233.291 392.505 246.691 443.805C246.791 444.205 246.891 444.505 246.991 444.805Z" fill="#C7E7DA"/>
<path fill-rule="evenodd" clip-rule="evenodd" d="M199.033 434.779L162.158 433.467V446.904L198.283 447.654L199.033 434.779Z" fill="#B68674"/>
<path fill-rule="evenodd" clip-rule="evenodd" d="M244.158 436.529L281.971 434.717L284.971 448.504H246.967L244.158 436.529Z" fill="#B68674"/>
<path fill-rule="evenodd" clip-rule="evenodd" d="M196.391 445.404C196.391 445.404 199.891 445.804 200.191 448.604C200.391 450.504 199.191 451.504 198.091 452.304C198.091 452.304 199.591 453.404 200.891 455.904C202.191 458.504 204.191 463.304 202.791 466.304C202.191 467.704 166.691 464.704 166.691 464.704L129.391 463.704C129.391 463.704 131.191 456.404 139.891 454.504C147.591 452.804 149.291 452.804 153.191 452.504C155.591 452.304 157.591 451.404 158.691 449.504C160.291 446.704 161.991 445.504 165.091 444.404C170.191 442.904 191.391 444.404 196.391 445.404Z" fill="#80CAB3"/>
<path fill-rule="evenodd" clip-rule="evenodd" d="M202.892 467.365C203.992 466.265 196.992 454.965 188.892 453.865C181.392 452.865 175.892 459.165 170.892 460.065C167.592 460.665 162.692 460.465 158.392 460.365C156.492 460.265 132.492 459.465 132.492 459.465C132.492 459.465 126.692 463.365 129.092 465.765C130.592 467.065 201.892 468.365 202.892 467.365Z" fill="#957FEF"/>
<path fill-rule="evenodd" clip-rule="evenodd" d="M249.891 446.305C249.891 446.305 246.391 446.605 245.991 449.405C245.791 451.305 246.891 452.305 247.891 453.105C247.891 453.105 246.291 454.105 244.991 456.705C243.691 459.305 241.491 464.005 242.791 467.105C243.391 468.505 278.891 466.505 278.891 466.505H316.191C316.191 466.505 314.591 459.105 305.991 457.005C298.291 455.105 296.591 455.105 292.791 454.705C290.391 454.505 288.391 453.505 287.391 451.505C285.891 448.605 284.291 447.405 281.091 446.305C276.191 444.505 255.091 445.405 249.891 446.305Z" fill="#80CAB3"/>
<path fill-rule="evenodd" clip-rule="evenodd" d="M242.502 468.247C241.402 467.147 248.802 456.047 256.902 455.147C264.402 454.347 269.802 460.747 274.702 461.947C277.902 462.647 282.902 462.647 287.202 462.547C289.102 462.547 313.102 462.347 313.102 462.347C313.102 462.347 318.802 466.447 316.302 468.747C314.702 470.047 243.502 469.347 242.502 468.247Z" fill="#957FEF"/>
<path d="M91.8939 90.1482C91.7939 90.2482 91.7939 89.9482 91.8939 90.1482C91.6939 103.048 98.7939 151.248 103.394 162.848C106.994 172.048 110.594 175.948 119.894 182.248C122.494 183.648 136.794 192.248 153.994 200.248C167.194 206.348 180.294 212.448 186.594 215.448C201.194 222.448 206.194 210.848 205.794 199.948C205.394 188.348 194.794 177.448 186.594 173.648C169.694 165.948 135.094 151.648 133.794 151.648C133.594 150.348 131.294 141.148 127.994 130.348C123.594 115.548 117.994 93.4482 116.994 88.8482C119.894 84.3482 121.694 77.7482 122.694 74.2482C122.694 74.1482 122.694 74.1482 122.694 74.0482C123.594 70.7482 123.494 69.4482 121.694 68.6482C119.794 67.7482 118.094 69.4482 117.594 70.3482C115.894 73.2482 114.294 75.9482 114.294 75.9482C114.294 75.9482 112.394 60.2482 110.694 55.6482C109.694 53.0482 108.294 52.2482 106.594 52.6482C105.394 52.9482 104.494 53.6482 104.994 56.6482C105.594 60.7482 106.294 65.3482 106.694 68.1482C106.894 69.2482 106.994 70.0482 106.994 70.3482C106.794 69.0482 106.194 67.9482 103.494 68.2482C101.694 68.4482 101.494 69.8482 101.494 70.0482V70.1482C100.894 69.0482 99.7939 68.4482 97.6939 68.8482C95.5939 69.1482 95.3939 71.5482 95.3939 71.5482C90.7939 69.9482 91.1939 76.4482 91.1939 77.3482V77.4482C91.2939 84.2482 91.4939 87.3482 91.8939 90.1482Z" fill="#D9A48A"/>
<path d="M103.05 80.6674C103.05 80.6674 105.933 82.9422 107.427 79.5091C108.524 77.0728 107.641 71.5357 106.814 69.6854" stroke="#424D51" stroke-linecap="round" stroke-linejoin="round"/>
<path d="M97.5289 81.5552C97.5289 81.5552 102.105 83.9271 102.864 79.2292C103.246 76.7478 102.046 70.7215 101.44 69.5926" stroke="#424D51" stroke-linecap="round" stroke-linejoin="round"/>
<path d="M90.8105 75.0231C90.8105 75.0231 91.0346 78.6334 92.1228 81.6301C92.618 82.9682 93.9598 83.3476 95.3467 83.0127C99.7235 81.8544 96.6163 72.4666 95.689 71.4354" stroke="#424D51" stroke-linecap="round" stroke-linejoin="round"/>
<path d="M114.028 76.3164C112.828 79.8164 110.477 79.4701 108.728 81.1164C105.328 84.3164 106.528 88.2164 108.628 89.9164" stroke="#424D51" stroke-linecap="round" stroke-linejoin="round"/>
<path d="M134.394 191.05L152.294 157.85C159.303 160.513 171.668 165.486 179.711 169.53C187.287 172.595 194.86 172.715 201.503 172.82C205.336 172.88 208.859 172.936 211.894 173.55C220.485 174.654 225.183 175.841 231.144 177.037C240.485 178.911 248.126 182.054 253.914 183.992C255.785 184.618 257.477 185.184 258.994 185.65L245.894 221.95C245.894 221.95 238.649 220.246 229.642 217.824C229.075 230.869 228.394 246.05 228.394 246.05L169.721 250.904C169.721 250.904 167.601 218.63 167.165 207.205C160.96 205 143.279 195.764 134.394 191.05Z" fill="#BA79E2"/>
<path d="M166.928 210.039C166.928 210.039 167.366 204.594 167.23 198.713" stroke="#424D51" stroke-linecap="round" stroke-linejoin="round"/>
<path fill-rule="evenodd" clip-rule="evenodd" d="M240.3 166.8C238.975 166.114 237.356 166.505 236.531 167.749C229.998 177.604 204.362 219.203 218.39 245.505C227.39 262.505 242.79 260.705 251.09 258.105C274.13 250.774 291.153 208.637 295.113 198.029C295.633 196.637 295.013 195.1 293.693 194.417L240.3 166.8Z" fill="#C5B0F0"/>
<path fill-rule="evenodd" clip-rule="evenodd" d="M217.669 264.611C216.481 264.014 215.035 264.274 213.955 265.052C212.155 266.348 209.082 267.965 205.465 267.404C198.72 266.249 195.039 268.307 193.19 270.1C192.071 271.185 192.63 272.852 194.015 273.565L242.92 298.739C244.461 299.532 246.326 298.835 246.61 297.126C247.179 293.709 246.945 288.214 240.965 284.704C235.837 281.691 234.571 277.734 234.323 275.281C234.188 273.937 233.529 272.584 232.322 271.977L217.669 264.611Z" fill="#C5B0F0"/>
<path d="M256.591 249.605C259.291 249.005 261.791 248.105 264.091 246.805C270.191 243.605 273.791 238.505 277.591 232.905C278.991 230.905 280.991 227.905 282.491 225.305C282.491 225.305 292.091 248.205 281.791 264.205C268.291 285.105 235.791 276.305 223.591 270.605C220.391 269.205 216.891 267.505 213.091 265.005C210.191 263.105 206.591 259.205 205.991 256.405C205.391 253.905 206.791 252.605 206.791 252.605C206.791 252.605 205.291 251.405 205.691 249.005C206.091 246.405 207.491 246.005 207.491 246.005C207.491 246.005 206.591 243.605 207.691 241.505C208.791 239.405 210.491 239.105 210.491 239.105C210.491 239.105 209.891 237.205 211.791 235.405C213.291 233.905 214.791 234.205 214.791 234.205C214.791 234.205 215.791 237.105 217.691 239.405C218.591 240.505 220.891 241.805 220.891 241.805C220.891 241.805 218.691 236.405 218.791 234.105C218.791 231.105 220.591 228.805 222.391 229.005C224.291 229.105 224.891 230.505 227.091 235.305C228.191 237.705 230.391 239.505 231.991 241.605C232.691 242.505 233.491 243.605 233.891 244.705C234.991 247.405 234.791 249.505 238.191 250.105C243.891 251.105 250.591 251.105 256.591 249.605Z" fill="#D9A48A"/>
<path d="M214.191 246.305C214.191 246.305 209.091 242.305 210.091 238.705" stroke="#424D51" stroke-linecap="round" stroke-linejoin="round"/>
<path d="M211.391 251.204C209.591 250.304 207.191 247.804 206.891 245.904" stroke="#424D51" stroke-linecap="round" stroke-linejoin="round"/>
<path d="M209.091 255.504C207.691 254.804 207.091 253.804 206.391 252.604" stroke="#424D51" stroke-linecap="round" stroke-linejoin="round"/>
<path fill-rule="evenodd" clip-rule="evenodd" d="M185.447 174.704C182.647 179.404 207.847 184.804 209.947 178.004C210.047 172.504 210.247 169.304 210.747 159.404C210.947 154.204 205.347 154.504 202.347 154.204C196.747 153.604 194.447 159.404 194.447 159.404C194.447 159.404 187.147 171.804 185.447 174.704Z" fill="#D9A48A"/>
<path fill-rule="evenodd" clip-rule="evenodd" d="M195.147 154.904C194.847 156.704 194.547 164.604 200.147 168.804C204.647 172.104 210.147 171.604 210.147 171.604C210.147 171.604 210.947 161.604 210.947 160.604C210.847 159.704 195.447 153.504 195.147 154.904Z" fill="#424D51"/>
<path fill-rule="evenodd" clip-rule="evenodd" d="M193.448 148.703C193.448 148.703 193.148 164.703 202.648 166.203C212.148 167.703 214.348 159.903 214.548 159.403C214.748 158.803 216.548 145.203 214.848 140.903C213.148 136.603 207.748 130.503 200.548 132.103C193.348 133.703 192.448 138.603 192.248 142.803C192.148 145.103 193.448 148.703 193.448 148.703Z" fill="#D9A48A"/>
<path fill-rule="evenodd" clip-rule="evenodd" d="M195.447 145.704C195.047 144.504 190.147 139.104 185.947 142.804C183.147 145.304 184.147 148.004 185.647 149.604C187.447 151.604 189.947 152.304 192.747 151.304C195.447 150.304 195.547 148.604 195.747 148.004C196.147 147.104 195.747 146.504 195.447 145.704Z" fill="#D9A48A"/>
<path fill-rule="evenodd" clip-rule="evenodd" d="M212.247 145.805C212.647 144.605 217.547 139.105 221.747 142.905C224.547 145.405 223.547 148.105 222.047 149.705C220.247 151.705 217.747 152.405 214.947 151.405C212.247 150.505 212.147 148.705 211.947 148.105C211.647 147.205 211.947 146.605 212.247 145.805Z" fill="#D9A48A"/>
<path fill-rule="evenodd" clip-rule="evenodd" d="M200.646 152.704C200.746 152.704 204.046 154.504 205.846 155.104C206.446 155.304 204.746 157.304 202.746 156.604C200.646 155.904 200.046 152.504 200.646 152.704Z" fill="white"/>
<path d="M204.847 149.203C204.847 149.203 206.447 150.003 206.247 151.203C205.947 152.403 204.747 152.203 203.947 152.003" stroke="#424D51" stroke-width="0.729" stroke-linecap="round" stroke-linejoin="round"/>
<path d="M207.348 147.403C207.348 147.403 208.348 145.803 210.048 145.603C211.748 145.503 212.548 146.403 213.048 147.503" stroke="#424D51" stroke-width="0.729" stroke-linecap="round" stroke-linejoin="round"/>
<path d="M209.547 146.004C210.047 145.604 210.747 145.804 211.147 146.304C211.547 146.804 211.447 147.504 210.847 147.904C210.347 148.304 209.647 148.204 209.247 147.604C208.947 147.104 209.047 146.304 209.547 146.004Z" stroke="#424D51" stroke-width="0.729" stroke-linecap="round" stroke-linejoin="round"/>
<path d="M196.246 147.403C196.246 147.403 197.246 145.803 198.946 145.603C200.646 145.503 201.446 146.403 201.946 147.503" stroke="#424D51" stroke-width="0.729" stroke-linecap="round" stroke-linejoin="round"/>
<path d="M198.447 146.004C198.947 145.604 199.647 145.804 200.047 146.304C200.447 146.804 200.347 147.504 199.747 147.904C199.247 148.304 198.547 148.204 198.147 147.604C197.847 147.104 197.947 146.304 198.447 146.004Z" stroke="#424D51" stroke-width="0.729" stroke-linecap="round" stroke-linejoin="round"/>
<path d="M216.647 146.304C217.147 146.204 218.247 146.204 218.847 146.604M218.847 144.504C218.847 144.504 217.547 144.904 216.647 146.404L218.847 144.504ZM215.947 147.804C216.147 147.204 216.347 146.704 216.647 146.304L215.947 147.804Z" stroke="#424D51" stroke-width="0.729" stroke-linecap="round" stroke-linejoin="round"/>
<path d="M192.347 146.205C191.847 146.105 190.747 146.105 190.147 146.505M190.047 144.305C190.047 144.305 191.347 144.705 192.247 146.205L190.047 144.305ZM193.047 147.705C192.847 147.105 192.647 146.605 192.347 146.205L193.047 147.705Z" stroke="#424D51" stroke-width="0.729" stroke-linecap="round" stroke-linejoin="round"/>
<path fill-rule="evenodd" clip-rule="evenodd" d="M197.047 139.305C197.047 139.305 204.347 143.905 211.847 139.505C211.947 139.505 213.047 142.805 215.547 142.605C215.547 142.605 219.347 129.905 204.447 129.605C190.847 129.305 191.847 142.605 192.547 142.605C194.747 142.605 197.047 139.305 197.047 139.305Z" fill="#D6D6D6"/>
</svg>
