<svg width="424" height="424" viewBox="0 0 424 424" fill="none" xmlns="http://www.w3.org/2000/svg">
<path d="M375 161.299C384.4 160.999 397 160.299 405.9 158.799H406C406.8 158.699 412.5 157.699 409.8 153.299C409.8 153.299 413.3 153.099 413.5 150.199C413.6 147.999 412.2 147.099 410.9 146.799C411.2 146.799 413.3 146.499 413.1 144.299C412.8 141.099 409 140.499 406.2 140.899C406.3 140.899 407.7 140.499 407.6 138.299C407.6 137.399 406.5 135.999 403.8 135.599C398.9 134.899 383.2 136.399 383.2 136.399C383.2 136.399 385.4 134.199 387.9 131.899C388.6 131.199 389.9 129.199 388.7 127.499C387.5 125.899 386.2 125.999 383.2 127.599L383.1 127.699C380.8 128.899 378.6 130.199 376.4 131.499C373.6 133.299 371.7 136.399 368.2 136.599C364.7 136.899 360.9 136.099 357.4 135.999C340 135.499 322.8 136.499 305.4 137.099C287.1 137.699 268.8 137.199 250.6 135.599C241.2 134.799 231.5 134.699 222.1 135.399C196.8 137.299 204.4 170.099 220.7 170.699C228.1 170.999 238.2 171.399 248.4 171.899C265 172.599 281.7 171.599 287.6 171.699C306.7 172.199 368.4 162.599 375 161.299Z" fill="#EFBEA9"/>
<path d="M265.801 135.7L267.801 173.2H239.801C235.501 173.2 216.801 171.8 206.401 165.2C196.001 158.7 205.101 139.7 213.101 135.7C219.501 132.5 250.501 134.4 265.801 135.7Z" fill="#FFDBD5"/>
<path d="M382.702 136.6C381.002 136.6 379.202 136.5 377.102 137" stroke="#424D51" stroke-linecap="round" stroke-linejoin="round"/>
<path d="M388.301 141.699C388.301 141.699 403.101 140.999 406.701 140.799" stroke="#424D51" stroke-linecap="round" stroke-linejoin="round"/>
<path d="M388.201 147.2C388.201 147.2 400.801 146.1 406.501 146.1C408.001 146.1 409.801 146.2 411.101 146.9" stroke="#424D51" stroke-linecap="round" stroke-linejoin="round"/>
<path d="M387.9 152.999C387.9 152.999 401.7 151.899 405.3 151.999C406.1 151.999 408.2 152.099 409.5 153.099" stroke="#424D51" stroke-linecap="round" stroke-linejoin="round"/>
<path fill-rule="evenodd" clip-rule="evenodd" d="M183.102 214C183.102 214 175.102 137.9 195.602 135.2C242.902 127.9 246.702 165.3 242.902 183.9C240.102 197.8 239.402 215.7 239.402 215.7C239.402 215.7 187.002 228.3 183.102 214Z" fill="#FFDBD5"/>
<path d="M229.9 139.4C236.1 144.8 243 155.8 244 172" stroke="#424D51" stroke-linecap="round" stroke-linejoin="round"/>
<path d="M276.401 252.1C276.401 252.1 203.201 256 191.101 247.3C181.901 240.7 175.001 225.8 183.501 212.6C185.101 210.1 283.101 213.8 283.101 213.8C297.301 214.2 310.101 214.7 317.601 215.4C334.101 217 335.901 237.5 335.901 247.1C335.901 255.3 335.601 334.5 335.601 334.5L300.801 336.1C300.801 336.1 300.201 264.2 299.001 253C298.901 251.8 289.501 251.9 276.401 252.1Z" fill="#EA7A79"/>
<path fill-rule="evenodd" clip-rule="evenodd" d="M299.801 302.099L336.801 301.199L335.701 337.399L300.101 339.699L299.801 302.099Z" fill="#FFDBD5"/>
<path fill-rule="evenodd" clip-rule="evenodd" d="M302.6 337.4C302.6 337.4 299.1 337.7 298.8 340.6C298.6 342.5 299.7 343.5 300.8 344.3C300.8 344.3 299.3 345.3 298 347.9C296.7 350.5 294.6 355.3 296 358.3C296.6 359.7 332.1 357 332.1 357L369.4 356.3C369.4 356.3 367.7 349 359 347C351.3 345.3 349.6 345.2 345.8 344.9C343.4 344.7 341.4 343.8 340.4 341.9C338.8 339.1 337.2 337.9 334 336.8C328.8 335.1 307.7 336.5 302.6 337.4Z" fill="#FFB6A9"/>
<path fill-rule="evenodd" clip-rule="evenodd" d="M295.9 358.599C294.8 357.499 301.9 346.299 310 345.299C317.5 344.299 323 350.699 328 351.699C331.2 352.399 336.2 352.199 340.5 352.099C342.4 352.099 366.4 351.399 366.4 351.399C366.4 351.399 372.2 355.399 369.7 357.699C368.2 358.999 296.9 359.599 295.9 358.599Z" fill="#D9A48A"/>
<path d="M164.8 265.199C167.4 256.799 170.1 248.399 173.3 240.299C173.9 238.799 173.9 236.999 173.9 234.799C174 229.299 174.1 221.699 182.6 212.199C183.7 210.999 226.6 210.699 225.7 221.199C225.5 224.199 203.3 279.199 203 279.899C197.5 294.199 192 308.399 187.9 318.099C181.5 333.299 163.5 333.099 154 331.799C145.9 330.699 67.5 319.399 67.5 319.399L70.8 284.699C70.8 284.699 142.1 293.999 153.4 294.499C155.5 294.599 158.2 284.699 158.7 283.299C160.9 277.299 162.9 271.199 164.8 265.199Z" fill="#EA7A79"/>
<path fill-rule="evenodd" clip-rule="evenodd" d="M104.502 288.299L100.302 325.099L64.6016 318.999L69.8016 283.699L104.502 288.299Z" fill="#FFDBD5"/>
<path d="M214.602 252.599L223.102 232.699" stroke="#424D51" stroke-linecap="round" stroke-linejoin="round"/>
<path fill-rule="evenodd" clip-rule="evenodd" d="M70.4012 286.6C70.4012 286.6 70.6012 283.1 67.8012 282.3C66.0012 281.8 64.8012 282.8 63.9012 283.8C63.9012 283.8 63.1012 282.1 60.7012 280.4C58.3012 278.7 53.9012 276 50.7012 276.9C49.2012 277.3 46.6012 312.8 46.6012 312.8L41.7012 349.7C41.7012 349.7 49.2012 349.1 52.4012 340.8C55.3012 333.4 55.5012 331.7 56.4012 328C57.0012 325.7 58.2012 323.8 60.2012 323.1C63.2012 322 64.7012 320.5 66.2012 317.5C68.8012 312.9 70.6012 291.8 70.4012 286.6Z" fill="#FFB6A9"/>
<path fill-rule="evenodd" clip-rule="evenodd" d="M50.4008 276.9C51.7008 276 61.7008 284.7 61.5008 292.8C61.3008 300.3 54.2008 304.8 52.5008 309.6C51.4008 312.7 50.8008 317.6 50.3008 321.9C50.1008 323.8 47.1008 347.6 47.1008 347.6C47.1008 347.6 42.3008 352.7 40.4008 349.9C39.3008 348.3 49.3008 277.7 50.4008 276.9Z" fill="#D9A48A"/>
<path fill-rule="evenodd" clip-rule="evenodd" d="M217.7 105.998C217.7 105.998 231.7 103.398 229 94.9983C225.9 85.0983 217.6 85.0983 214.2 85.7983C211.8 86.3983 210.6 87.5983 210.6 87.5983C210.6 87.5983 207.4 85.9983 201.4 87.2983C195.4 88.5983 189.3 93.4983 186.7 102.098C184.8 108.298 183.3 115.498 190.1 122.398C194.6 126.998 205.3 128.098 207.5 121.298C209.6 114.498 217.7 105.998 217.7 105.998Z" fill="#AF836B"/>
<path fill-rule="evenodd" clip-rule="evenodd" d="M221.5 131.299C222.1 127.499 222.6 123.599 222.8 121.399C222.8 121.099 222.9 120.799 222.9 120.599C222.9 120.499 222.9 120.299 222.9 120.199C223.5 115.299 223.8 112.699 217.3 110.299C208 106.899 208.8 117.299 208.8 117.299C208.8 117.299 203.8 122.899 200.6 127.499C199.3 128.899 198.1 130.199 197 131.299C195.8 132.499 194.9 133.399 194.5 133.999C193.7 135.099 194.7 135.099 196.9 135.099C200.8 135.099 208.5 134.999 216.8 141.299C223.5 146.399 228.6 146.499 225.2 139.299C223.6 135.899 222.6 134.499 222 133.699C221.4 132.799 221.3 132.599 221.4 131.299C221.5 131.399 221.5 131.399 221.5 131.299Z" fill="#EFBEA9"/>
<path fill-rule="evenodd" clip-rule="evenodd" d="M212.5 115.099C212.5 115.099 225.3 124.699 232.1 117.799C238.9 110.999 233.8 104.599 233.5 104.199C233.2 103.699 223.1 94.2986 218.7 93.1986C214.2 92.0986 206.1 92.8986 203.2 99.6986C200.3 106.499 203.7 110.099 207.1 112.699C208.8 113.999 212.5 115.099 212.5 115.099Z" fill="#EFBEA9"/>
<path fill-rule="evenodd" clip-rule="evenodd" d="M204.801 111.398C205.601 111.598 212.401 107.498 212.601 101.798C212.601 101.698 227.401 95.4985 219.101 90.7985C219.101 90.7985 211.701 87.2985 204.101 96.1985C197.701 103.798 204.301 111.198 204.801 111.398Z" fill="#AF836B"/>
<path fill-rule="evenodd" clip-rule="evenodd" d="M210.201 108.698C209.301 108.698 201.201 108.598 201.801 114.198C202.401 119.798 208.701 118.398 209.301 117.898C210.801 116.798 211.901 115.898 212.401 113.998C213.301 110.798 211.901 108.798 210.201 108.698Z" fill="#EFBEA9"/>
<path fill-rule="evenodd" clip-rule="evenodd" d="M221.101 111.198C221.201 111.098 224.701 109.798 226.401 108.798C226.901 108.498 227.401 111.098 225.601 112.198C223.501 113.298 220.501 111.498 221.101 111.198Z" fill="white"/>
<path d="M221.2 105.699C221.2 105.699 222.9 104.999 223.6 105.999C224.3 106.999 223.3 107.799 222.7 108.299" stroke="#424D51" stroke-width="0.729" stroke-linecap="round" stroke-linejoin="round"/>
<path d="M220.7 102.999C220.7 102.999 220.1 101.099 221.1 99.7986C222.1 98.3986 223.3 98.4986 224.5 98.7986" stroke="#424D51" stroke-width="0.729" stroke-linecap="round" stroke-linejoin="round"/>
<path d="M221.1 100.398C221.2 99.7983 221.7 99.2983 222.3 99.2983C222.9 99.3983 223.4 99.8983 223.3 100.498C223.2 101.098 222.7 101.598 222.1 101.498C221.5 101.598 221 100.998 221.1 100.398Z" stroke="#424D51" stroke-width="0.729" stroke-linecap="round" stroke-linejoin="round"/>
<path d="M214.2 111.099C214.2 111.099 213.6 109.299 214.6 107.899C215.6 106.499 216.8 106.599 218 106.799" stroke="#424D51" stroke-width="0.729" stroke-linecap="round" stroke-linejoin="round"/>
<path d="M214.6 108.499C214.7 107.899 215.2 107.399 215.8 107.499C216.4 107.599 216.9 108.099 216.8 108.699C216.7 109.299 216.2 109.799 215.6 109.799C215 109.599 214.5 109.099 214.6 108.499Z" stroke="#424D51" stroke-width="0.729" stroke-linecap="round" stroke-linejoin="round"/>
<path fill-rule="evenodd" clip-rule="evenodd" d="M222.901 119.998C222.901 119.998 219.401 118.798 216.701 116.598C213.801 114.198 222.301 125.198 222.301 125.198L222.901 119.998Z" fill="#424D51"/>
<path d="M208.6 112.599C208.2 112.899 207.5 113.699 207.3 114.499M205.7 112.999C205.7 112.999 206.9 112.299 208.6 112.599L205.7 112.999ZM210.2 113.099C209.6 112.799 209.1 112.699 208.6 112.599L210.2 113.099Z" stroke="#424D51" stroke-width="0.729" stroke-linecap="round" stroke-linejoin="round"/>
<path d="M199.701 135.399C225.101 137.299 217.801 168.899 201.501 169.499C194.001 169.799 183.201 170.199 172.901 170.599C139.601 171.999 106.201 170.499 73.4008 165.099C67.5008 164.199 61.3008 162.399 55.4008 162.399C53.6008 162.399 52.0008 162.499 51.8008 162.599C47.6008 165.999 41.1008 168.599 37.8008 169.999C34.7008 171.299 33.3008 171.299 32.3008 169.599C31.2008 167.799 32.7008 165.899 33.5008 165.299C36.2008 163.299 38.7008 161.399 38.7008 161.399C38.7008 161.399 22.9008 161.199 18.1008 160.099C15.4008 159.399 14.5008 157.899 14.6008 156.999C14.7008 154.799 16.2008 154.599 16.3008 154.599C13.5008 154.699 9.70076 153.699 9.80076 150.499C9.90076 148.299 11.9008 148.199 12.2008 148.199H12.3008C11.1008 147.699 9.80076 146.699 10.1008 144.499C10.5008 141.599 14.1008 141.799 14.1008 141.799C11.9008 137.199 17.7008 136.799 18.5008 136.799C18.5008 136.799 18.5008 136.799 18.6008 136.799C30.1008 135.999 47.3008 137.299 56.5008 138.099C58.9008 137.999 63.5008 137.699 69.3008 137.299C86.9008 136.199 110.201 135.899 127.901 135.899C133.601 135.899 140.401 135.899 151.201 135.299C166.001 134.599 185.101 134.299 199.701 135.399Z" fill="#EFBEA9"/>
<path d="M159.802 172.3L158.102 133.7C166.202 133.7 176.502 133.6 192.902 134.3C214.702 135.1 216.302 140.9 217.302 144.8C217.802 146.9 223.902 166.3 205.302 170C186.002 173.8 176.202 172.7 159.802 172.3Z" fill="#FFDBD5"/>
<path d="M34.1008 155.7C34.1008 155.7 19.3008 154.8 15.8008 154.6" stroke="#424D51" stroke-linecap="round" stroke-linejoin="round"/>
<path d="M34.7004 150.299C34.7004 150.299 22.1004 149.999 16.4004 149.499C14.9004 149.299 13.2004 148.999 11.9004 148.199" stroke="#424D51" stroke-linecap="round" stroke-linejoin="round"/>
<path d="M35.6016 144.499C35.6016 144.499 21.8016 144.099 18.2016 143.699C17.4016 143.599 15.3016 143.299 14.1016 142.199" stroke="#424D51" stroke-linecap="round" stroke-linejoin="round"/>
<path d="M181.701 172.8C181.701 172.8 200.301 172 205.701 169.9C209.901 168.3 215.601 165 216.801 157.4" stroke="#424D51" stroke-linecap="round" stroke-linejoin="round"/>
<path d="M38.7241 161.805C41.7847 159.726 41.0739 157.121 41.9595 155.429C43.7027 151.336 48.2299 151.437 50.4228 153.015" stroke="#424D51" stroke-linecap="round" stroke-linejoin="round"/>
</svg>
