<svg width="424" height="424" viewBox="0 0 424 424" fill="none" xmlns="http://www.w3.org/2000/svg">
<path d="M259.688 378.611C261.447 378.611 264.296 366.045 265.5 359.762C265.5 357.615 264.872 353.668 262.358 355.05C259.217 356.778 257.96 365.103 257.489 369.187C257.018 373.271 257.489 378.611 259.688 378.611Z" fill="#ECECEC"/>
<path d="M252.62 374.763C252.62 371.178 250.866 362.119 249.871 358.27C248.884 353.992 246.651 355.05 246.023 356.778C245.394 358.506 246.415 366.438 247.201 369.58C247.986 372.721 248.693 377.826 249.871 378.219C251.049 378.611 252.62 377.905 252.62 374.763Z" fill="#ECECEC"/>
<path d="M243.588 376.805C244.405 375.36 241.363 369.396 239.74 366.595C238.13 363.611 235.813 362.904 234.478 365.024C233.142 367.145 239.268 375.391 240.132 376.805C240.996 378.219 242.567 378.611 243.588 376.805Z" fill="#ECECEC"/>
<path d="M123.254 305.11C124.222 308.982 144.63 336.368 154.714 349.577C174.678 364.551 192.978 343.981 197.214 327.343C199.451 318.558 200.845 300.27 197.215 284.54C193.585 268.81 183.978 274.935 182.695 281.666C182.15 284.524 181.333 302.791 181.182 311.613C178.762 303.849 171.896 286.052 163.789 276.977C153.655 265.634 146.837 275.074 148.815 281.666C149.904 285.296 160.058 306.874 164.999 317.21C156.629 311.462 140.071 298.999 133.537 296.337C125.369 293.009 122.044 300.27 123.254 305.11Z" fill="#ECECEC"/>
<path d="M130.97 369.085C164.524 369.085 177.101 369.388 183.605 366.665C200.161 359.733 198.36 344.843 187.052 333.297C175.3 321.297 161.825 322.802 157.59 331.272C144.128 317.509 108.304 298.047 78.4859 309.644C46.1073 322.236 58.5209 342.112 67.8984 348.515C52.3013 355.422 57.0513 369.085 75.4263 369.085H130.97Z" fill="#F8F8F8"/>
<path fill-rule="evenodd" clip-rule="evenodd" d="M330.4 216.999C338.6 218.199 357.8 220.899 370.3 220.899C370.7 220.899 377 220.999 375 216.099C375 216.099 378.5 216.499 379.1 213.599C379.6 211.399 378.3 210.399 377.1 209.799C377 209.799 379.5 210.099 379.7 207.699C380 204.499 376.3 203.299 373.5 203.199C373.4 203.199 375.1 203.199 375.4 200.899C375.5 199.999 374.7 198.499 372 197.599C367.3 196.099 351.6 194.999 351.6 194.999C351.6 194.999 354.2 193.199 357 191.399C357.8 190.899 359.4 189.099 358.4 187.199C357.5 185.399 356.1 185.299 352.9 186.399C349.5 187.499 342.9 189.799 338.5 192.899C338.1 193.099 334.3 192.799 331.7 192.799C319.8 192.699 316.9 214.999 330.4 216.999Z" fill="#EFD9CE"/>
<path d="M351.56 195.062C348.279 196.772 348.683 199.442 347.607 201.021C345.401 204.883 340.916 204.258 338.921 202.436" stroke="#424D51" stroke-linecap="round" stroke-linejoin="round"/>
<path d="M355.8 201.1C355.8 201.1 370.5 202.9 374 203.3" stroke="#424D51" stroke-linecap="round" stroke-linejoin="round"/>
<path d="M354.9 206.5C354.9 206.5 367.5 207.5 373.2 208.4C374.7 208.6 376.4 209.1 377.7 209.9" stroke="#424D51" stroke-linecap="round" stroke-linejoin="round"/>
<path d="M353.599 212.1C353.599 212.1 367.399 213.3 370.899 213.9C371.699 214 373.799 214.5 374.899 215.7" stroke="#424D51" stroke-linecap="round" stroke-linejoin="round"/>
<path fill-rule="evenodd" clip-rule="evenodd" d="M325.699 217.201C325.599 217.701 328.799 218.101 330.299 216.701C331.799 215.301 334.499 193.601 332.899 192.501C331.199 191.401 328.699 191.301 328.699 191.301C328.699 191.301 325.799 216.801 325.699 217.201Z" fill="#EFD9CE"/>
<path fill-rule="evenodd" clip-rule="evenodd" d="M268.599 124.4C272.999 110.1 289.249 96.3001 300.699 130C305.399 146.7 281.399 184.6 281.399 184.6L326.199 188.1C326.199 188.1 331.299 188.3 330.799 192.3C330.199 197.1 331.499 219.7 324.299 220.6C311.399 222.1 282.699 219.7 270.699 216C261.199 213.1 250.699 204.4 248.799 194.4C244.699 172.5 260.299 151.7 268.599 124.4Z" fill="#DEC0F1"/>
<path fill-rule="evenodd" clip-rule="evenodd" d="M80.6987 207.2L74.1987 241.5C74.1987 241.5 158.499 259.8 166.499 261.7C175.799 263.9 183.999 257.8 188.199 252.2C202.899 233 223.099 202 223.099 202C223.099 202 232.299 187.1 211.399 178.5C200.799 174.1 188.999 180.6 180.799 191.7C173.799 201.3 164.499 224 160.899 223.5C149.799 222 80.6987 207.2 80.6987 207.2Z" fill="#EFD9CE"/>
<path fill-rule="evenodd" clip-rule="evenodd" d="M113.9 214.001L106.3 250.201L71.3003 240.901L79.7003 206.301L113.9 214.001Z" fill="#CBE4FC"/>
<path fill-rule="evenodd" clip-rule="evenodd" d="M83.3987 208.5C83.3987 208.5 84.0987 205 81.3987 203.9C79.6987 203.1 78.2987 203.9 77.2987 204.8C77.2987 204.8 76.6987 203 74.5987 201C72.4987 199 68.4987 195.6 65.1987 196.1C63.6987 196.3 55.8987 231 55.8987 231L45.6987 266.9C45.6987 266.9 53.1987 267.4 57.5987 259.7C61.4987 252.8 61.9987 251.2 63.3987 247.6C64.2987 245.4 65.7987 243.7 67.8987 243.3C71.0987 242.6 72.6987 241.4 74.6987 238.7C77.9987 234.3 82.8987 213.7 83.3987 208.5Z" fill="#93BEFA"/>
<path fill-rule="evenodd" clip-rule="evenodd" d="M65.0993 195.999C66.4993 195.299 75.0993 205.399 73.7993 213.399C72.5993 220.799 64.8993 224.199 62.3993 228.699C60.7993 231.599 59.5993 236.399 58.3993 240.499C57.8993 242.399 51.4993 265.499 51.4993 265.499C51.4993 265.499 45.9993 269.899 44.4993 266.799C43.6993 264.999 63.7993 196.699 65.0993 195.999Z" fill="#EFD9CE"/>
<path fill-rule="evenodd" clip-rule="evenodd" d="M64.4987 233.301C64.6987 231.201 66.4987 229.701 68.5987 229.901C70.5987 230.101 72.0987 232.001 71.7987 234.001C71.5987 236.101 69.7987 237.601 67.6987 237.401C65.6987 237.201 64.1987 235.401 64.4987 233.301Z" fill="#CBE4FC"/>
<path fill-rule="evenodd" clip-rule="evenodd" d="M277.699 335.999L312.599 335.199C312.599 335.199 314.699 255.999 314.899 247.899C315.099 238.299 313.399 232.999 306.399 227.099C287.899 211.399 275.699 199.599 275.699 199.599C275.699 199.599 257.699 190.499 248.599 208.999C245.399 215.599 248.299 223.899 254.699 230.499C262.999 239.099 277.799 247.899 277.999 251.499C278.799 262.699 277.699 335.999 277.699 335.999Z" fill="#EFD9CE"/>
<path fill-rule="evenodd" clip-rule="evenodd" d="M277.5 302.1L314.5 302L312.6 338.2L277 337.1L277.5 302.1Z" fill="#CBE4FC"/>
<path fill-rule="evenodd" clip-rule="evenodd" d="M279.799 336.099C279.799 336.099 276.199 336.299 275.799 339.199C275.499 341.099 276.599 342.199 277.699 342.999C277.699 342.999 276.099 343.999 274.799 346.499C273.399 348.999 271.199 353.799 272.499 356.899C273.099 358.299 308.599 356.799 308.599 356.799L345.899 357.399C345.899 357.399 344.399 349.999 335.799 347.799C328.099 345.799 326.399 345.699 322.599 345.299C320.199 344.999 318.299 343.999 317.299 342.099C315.799 339.199 314.199 337.999 311.099 336.799C306.099 334.699 284.999 335.299 279.799 336.099Z" fill="#93BEFA"/>
<path fill-rule="evenodd" clip-rule="evenodd" d="M272.4 357.099C271.3 355.999 278.8 344.999 286.9 344.199C294.4 343.499 299.7 349.999 304.6 351.199C307.8 351.999 312.8 351.999 317.1 351.999C319 351.999 343 352.199 343 352.199C343 352.199 348.6 356.399 346.1 358.599C344.7 359.899 273.4 358.099 272.4 357.099Z" fill="#EFD9CE"/>
<path fill-rule="evenodd" clip-rule="evenodd" d="M308.699 347.999C306.599 348.299 304.699 346.999 304.399 344.899C304.099 342.899 305.499 340.999 307.599 340.699C309.699 340.399 311.599 341.699 311.899 343.799C312.199 345.799 310.699 347.699 308.699 347.999Z" fill="#CBE4FC"/>
<path fill-rule="evenodd" clip-rule="evenodd" d="M209.1 160.1C219.3 138.8 239.3 111.5 247.4 102.8C254.1 95.6 262 90 271.9 95.3C279.1 99.2 288.3 106 293.6 115.6C300.8 128.8 290.2 145 286.5 151.3C282.7 157.7 265.4 185.6 263.8 187C257.9 191.9 205.7 167.1 209.1 160.1Z" fill="#DEC0F1"/>
<path fill-rule="evenodd" clip-rule="evenodd" d="M259.8 236.701L286.9 208.801C286.9 208.801 271.1 195.701 263.3 189.701C263.3 189.701 265.6 184.901 265.4 184.701C257.5 179.601 211.1 158.501 209.7 158.701C203.2 159.601 169.9 204.901 169.9 204.901C169.9 204.901 208.2 228.301 208 226.901C207.8 225.501 221.4 207.601 221.5 206.701C221.6 206.501 259.8 236.701 259.8 236.701Z" fill="#FFB6A9"/>
<path d="M263.199 189.699L260.099 198.199" stroke="#424D51" stroke-linecap="round" stroke-linejoin="round"/>
<path d="M268.125 180.425C268.125 180.425 283.05 160.626 289.75 144.926" stroke="#424D51" stroke-linecap="round" stroke-linejoin="round"/>
<path fill-rule="evenodd" clip-rule="evenodd" d="M228.799 152.201C236.699 154.601 255.199 160.301 267.699 162.201C268.099 162.301 274.299 163.401 273.099 158.201C273.099 158.201 276.499 159.101 277.599 156.401C278.399 154.301 277.299 153.101 276.199 152.301C276.099 152.301 278.499 153.001 279.099 150.601C279.899 147.501 276.399 145.701 273.599 145.201C273.499 145.201 275.199 145.401 275.799 143.201C275.999 142.401 275.499 140.701 272.999 139.501C268.599 137.301 253.199 133.801 253.199 133.801C253.199 133.801 255.999 132.401 259.099 131.001C259.999 130.601 261.899 129.101 261.199 127.101C260.499 125.101 259.199 124.901 255.899 125.501C252.399 126.101 245.499 127.301 240.599 129.701C240.199 129.901 236.499 129.001 233.799 128.601C221.999 126.601 215.699 148.201 228.799 152.201Z" fill="#EFD9CE"/>
<path d="M252.899 133.8C250.799 133.4 250.199 133.2 246.599 132.9" stroke="#424D51" stroke-linecap="round" stroke-linejoin="round"/>
<path d="M256.199 140.4C256.199 140.4 270.499 144.4 273.899 145.4" stroke="#424D51" stroke-linecap="round" stroke-linejoin="round"/>
<path d="M254.5 145.6C254.5 145.6 266.8 148.6 272.3 150.3C273.7 150.7 275.4 151.5 276.5 152.5" stroke="#424D51" stroke-linecap="round" stroke-linejoin="round"/>
<path d="M252.4 151C252.4 151 265.8 154.4 269.2 155.5C270 155.8 272 156.5 272.8 157.9" stroke="#424D51" stroke-linecap="round" stroke-linejoin="round"/>
<path fill-rule="evenodd" clip-rule="evenodd" d="M223.999 151.699C223.799 152.099 226.899 153.099 228.599 151.999C230.299 150.799 236.399 129.799 234.899 128.499C233.399 127.199 230.899 126.699 230.899 126.699C230.899 126.699 224.199 151.299 223.999 151.699Z" fill="#EFD9CE"/>
<path fill-rule="evenodd" clip-rule="evenodd" d="M219.899 85.4007C243.799 84.7007 262.249 85.4006 276.624 98.4254C285.424 117.625 263.899 120.001 248.099 123.201C237.099 122.801 229.099 123.201 229.099 123.201C229.099 123.201 234.399 123.001 232.999 128.001C231.699 132.601 229.499 155.201 222.199 155.001C209.299 154.501 181.199 147.701 169.999 142.201C161.099 137.901 155.399 130.301 155.099 120.001C154.499 97.7007 173.299 86.9007 219.899 85.4007Z" fill="#DEC0F1"/>
<path d="M185.199 108.801C185.199 108.801 208.099 111.601 228.299 122.001C230.299 123.001 233.699 124.801 233.199 127.101" stroke="#424D51" stroke-linecap="round" stroke-linejoin="round"/>
<path d="M234.3 123.8C234.3 123.8 246.7 124.6 255.6 121.9" stroke="#424D51" stroke-linecap="round" stroke-linejoin="round"/>
<path d="M226.3 152.6C226.3 152.6 224.9 156.7 212.3 154" stroke="#424D51" stroke-linecap="round" stroke-linejoin="round"/>
<path fill-rule="evenodd" clip-rule="evenodd" d="M267.199 104.1C263.299 109 284.499 122 288.399 116.8C290.699 111.8 292.099 108.9 296.399 100C298.699 95.3002 293.399 93.3002 290.799 91.9002C285.899 89.1002 281.499 93.6002 281.499 93.6002C281.499 93.6002 269.899 102.2 267.199 104.1Z" fill="#EFD9CE"/>
<path fill-rule="evenodd" clip-rule="evenodd" d="M283.9 90.0993C282.9 91.6993 279.5 98.7993 283 104.799C285.8 109.599 291 111.299 291 111.299C291 111.299 295.8 102.399 296.1 101.499C296.4 100.699 284.6 88.8993 283.9 90.0993Z" fill="#424D51"/>
<path fill-rule="evenodd" clip-rule="evenodd" d="M284.7 83.7008C284.7 83.7008 278.1 98.3008 286.3 103.401C294.5 108.501 299.5 102.301 299.9 101.801C300.3 101.401 307.3 89.6008 307.5 84.9008C307.6 80.3008 305.1 72.5008 297.8 71.2008C290.5 69.9008 287.8 74.0008 285.9 77.8008C285 79.9008 284.7 83.7008 284.7 83.7008Z" fill="#EFD9CE"/>
<path fill-rule="evenodd" clip-rule="evenodd" d="M287.8 81.7C287.9 80.5 285.6 73.5 280.2 75.3C276.7 76.5 276.5 79.4 277.2 81.4C278.1 83.9 280.1 85.6 283 85.8C285.9 86 286.7 84.4 287.1 84C287.8 83.3 287.7 82.6 287.8 81.7Z" fill="#EFD9CE"/>
<path fill-rule="evenodd" clip-rule="evenodd" d="M303.199 88.4001C303.999 87.5001 310.699 84.4001 313.099 89.5001C314.699 92.9001 312.599 95.0001 310.699 95.9001C308.299 97.0001 305.699 96.6001 303.499 94.7001C301.399 92.8001 301.999 91.1001 301.999 90.5001C301.999 89.5001 302.599 89.1001 303.199 88.4001Z" fill="#EFD9CE"/>
<path fill-rule="evenodd" clip-rule="evenodd" d="M291.699 76.5C291.699 76.5 297.399 83.7 305.999 82.6C306.099 82.6 305.399 86.4 307.499 86.8L312.599 77C312.599 77 313.699 74.1 309.999 72.3C307.099 70.9 295.199 65.3 295.199 65.3C295.199 65.3 291.799 63.8 290.199 67.3C288.599 70.8 285.599 77.3 286.199 77.5C288.299 78.6 291.699 76.5 291.699 76.5Z" fill="#F1D7AD"/>
<path fill-rule="evenodd" clip-rule="evenodd" d="M289.799 90.3009C289.899 90.4009 292.199 93.3009 293.699 94.6009C294.099 95.0009 291.799 96.2009 290.199 94.8009C288.399 93.2009 289.199 89.9009 289.799 90.3009Z" fill="white"/>
<path d="M295 88.8008C295 88.8008 296.2 90.2008 295.5 91.2008C294.8 92.1008 293.7 91.5008 293 91.0008" stroke="#424D51" stroke-width="0.729" stroke-linecap="round" stroke-linejoin="round"/>
<path d="M298 88.0995C298 88.0995 299.6 86.9995 301.2 87.4995C302.8 87.9995 303.1 89.1995 303.2 90.3995" stroke="#424D51" stroke-width="0.729" stroke-linecap="round" stroke-linejoin="round"/>
<path d="M300.6 87.7009C301.2 87.6009 301.8 88.0009 302 88.6009C302.1 89.2009 301.8 89.8009 301.1 90.0009C300.5 90.1009 299.9 89.8009 299.7 89.1009C299.6 88.4009 300 87.8009 300.6 87.7009Z" stroke="#424D51" stroke-width="0.729" stroke-linecap="round" stroke-linejoin="round"/>
<path d="M287.8 83.6991C287.8 83.6991 289.4 82.5991 291 83.0991C292.6 83.5991 292.9 84.7991 293 86.0991" stroke="#424D51" stroke-width="0.729" stroke-linecap="round" stroke-linejoin="round"/>
<path d="M290.399 83.3005C290.999 83.2005 291.599 83.6005 291.799 84.2005C291.899 84.8005 291.599 85.4005 290.899 85.6005C290.299 85.7005 289.699 85.4005 289.499 84.7005C289.399 84.1005 289.799 83.5005 290.399 83.3005Z" stroke="#424D51" stroke-width="0.729" stroke-linecap="round" stroke-linejoin="round"/>
<path d="M306.899 90.7998C307.399 90.8998 308.399 91.2998 308.799 91.9998M309.699 89.8998C309.699 89.8998 308.299 89.7998 306.899 90.6998L309.699 89.8998ZM305.699 91.8998C306.099 91.3998 306.499 91.0998 306.899 90.7998L305.699 91.8998Z" stroke="#424D51" stroke-width="0.729" stroke-linecap="round" stroke-linejoin="round"/>
<path d="M284.6 81.1C284.2 80.9 283.2 80.4 282.4 80.5M283.3 78.5C283.3 78.5 284.3 79.4 284.6 81.1L283.3 78.5ZM284.7 82.7C284.8 82.1 284.7 81.5 284.6 81.1L284.7 82.7Z" stroke="#424D51" stroke-width="0.729" stroke-linecap="round" stroke-linejoin="round"/>
<path d="M83.1092 184.962C79.2445 177.677 63.1493 173.422 47.4618 182.459" stroke="#424D51" stroke-linecap="round" stroke-linejoin="round"/>
<path d="M89.6084 176.887C85.4403 172.537 75.2617 168.876 64.827 171.461" stroke="#424D51" stroke-linecap="round" stroke-linejoin="round"/>
<mask id="mask0_12_4399" style="mask-type:alpha" maskUnits="userSpaceOnUse" x="169" y="158" width="118" height="79">
<path fill-rule="evenodd" clip-rule="evenodd" d="M259.8 236.701L286.9 208.801C286.9 208.801 271.1 195.701 263.3 189.701C263.3 189.701 265.6 184.901 265.4 184.701C257.5 179.601 211.1 158.501 209.7 158.701C203.2 159.601 169.9 204.901 169.9 204.901C169.9 204.901 208.2 228.301 208 226.901C207.8 225.501 221.4 207.601 221.5 206.701C221.6 206.501 259.8 236.701 259.8 236.701Z" fill="#FFB6A9"/>
</mask>
<g mask="url(#mask0_12_4399)">
<path fill-rule="evenodd" clip-rule="evenodd" d="M405.35 145.152C399.951 147.765 393.066 147.286 384.684 143.098C382.839 142.176 381.423 140.439 380.256 138.419C379.079 136.382 378.069 133.9 377.112 131.298C376.647 130.031 376.193 128.737 375.738 127.439C374.293 123.311 372.834 119.147 370.927 115.714C368.435 111.228 365.441 108.475 361.166 108.591C356.686 108.712 350.316 111.953 341.102 121.046C331.965 130.065 327.181 138.085 325.279 145.138C323.386 152.162 324.322 158.326 326.813 163.723C327.357 164.901 327.975 166.044 328.654 167.15C333.998 162.657 341.813 158.921 353.066 155.906C356.517 154.981 359.431 154.928 361.825 155.647C364.245 156.374 366.031 157.861 367.238 159.81C369.603 163.628 369.707 169.12 368.554 174.247C367.393 179.409 364.883 184.557 361.58 187.805C359.923 189.436 358 190.65 355.885 191.069C353.733 191.496 351.508 191.073 349.358 189.647C343.312 185.636 334.279 179.528 328.189 171.161C328.092 171.261 327.996 171.362 327.901 171.463C323.121 176.552 321.309 182.503 320.844 189.44C320.549 193.841 321.327 197.36 322.673 200.125C324.148 198.921 325.57 197.97 326.933 197.242C331.672 194.709 335.769 194.85 338.688 196.603C341.552 198.323 343.064 201.485 342.814 204.496C342.555 207.601 340.437 210.41 336.409 211.33C334.971 211.658 333.047 211.457 331.069 210.808C329.058 210.148 326.866 208.985 324.867 207.241C323.866 206.368 322.916 205.351 322.064 204.185C319.316 206.851 316.321 210.515 313.138 215.44C307.203 224.625 300.484 229.354 293.832 230.893C287.188 232.431 280.818 230.738 275.673 227.482C271.943 225.121 268.812 221.912 266.641 218.432C265.8 218.113 264.955 217.785 264.109 217.456C260.443 216.033 256.746 214.598 253.205 213.779C248.047 212.587 243.888 212.876 241.117 216.011C238.224 219.283 236.443 226.037 237.342 238.955C238.234 251.763 241.204 260.617 245.317 266.654C249.413 272.665 254.7 275.969 260.417 277.595C261.635 277.941 262.873 278.211 264.122 278.415C264.279 271.479 266.461 263.258 271.585 252.583C273.132 249.361 274.989 247.116 277.094 245.767C279.222 244.405 281.513 244.018 283.779 244.372C288.216 245.064 292.451 248.562 295.591 252.776C298.752 257.019 301.023 262.277 301.336 266.899C301.494 269.219 301.163 271.468 300.104 273.346C299.026 275.257 297.255 276.67 294.773 277.372C287.759 279.357 277.174 282.251 266.811 281.383L266.814 281.432C266.816 281.457 266.818 281.483 266.82 281.508C267.329 288.479 270.14 293.996 273.882 300.016C276.31 303.922 280.434 305.621 284.845 305.916C284.698 303.857 284.734 302.093 284.925 300.59C285.215 298.299 285.877 296.525 286.885 295.244C287.913 293.938 289.238 293.226 290.666 292.979C293.417 292.504 296.417 293.759 298.625 295.25C299.757 296.016 300.764 296.897 301.514 297.771C302.214 298.587 302.868 299.599 302.94 300.616C303.019 301.719 302.436 302.683 301.758 303.416C301.056 304.175 300.08 304.879 298.956 305.501C296.702 306.749 293.638 307.788 290.346 308.28C289.504 308.405 288.638 308.496 287.759 308.544C288.234 312.028 289.182 316.345 290.754 321.656C293.858 332.142 293.069 340.32 289.905 346.37C286.744 352.413 281.311 356.144 275.489 357.927C269.684 359.705 263.4 359.578 258.388 357.813C253.393 356.054 249.401 352.546 248.833 347.429C247.807 338.197 250.889 329.716 254.563 323.036C257.382 317.91 260.638 313.709 262.691 311.061L262.692 311.059L262.693 311.058C263.301 310.274 263.803 309.626 264.157 309.13C264.861 308.144 265.674 306.412 266.07 304.447C266.467 302.482 266.418 300.44 265.6 298.735C264.807 297.084 263.204 295.561 260.093 294.741C256.935 293.909 252.253 293.817 245.462 295.11C240.165 296.119 235.827 297.713 232.362 299.6C232.763 300.569 233.116 301.511 233.423 302.424C235.147 307.553 235.46 311.938 234.353 315.176C233.793 316.817 232.863 318.172 231.569 319.138C230.275 320.102 228.694 320.622 226.918 320.716C223.416 320.9 220.727 319.545 219.422 317.027C218.159 314.589 218.379 311.413 219.838 308.274C221.396 304.921 224.422 301.447 229.02 298.524C225.94 291.941 220.62 284.05 212.568 275.329C211.744 276.66 210.822 277.922 209.798 279.11C211.687 280.907 213.142 283.121 214.194 285.667C216.615 291.525 216.877 299.062 215.645 307.2C214.409 315.362 211.649 324.259 207.887 332.929C200.381 350.222 188.766 366.869 176.934 375.019C171.014 379.097 164.846 381.176 159.033 379.859C153.184 378.534 148.1 373.865 144.161 365.363C143.294 363.492 143.27 361.25 143.618 358.944C143.969 356.617 144.727 354.047 145.602 351.417C146.028 350.137 146.481 348.843 146.935 347.545L146.936 347.544C148.38 343.416 149.837 339.251 150.488 335.379C151.338 330.318 150.715 326.298 147.301 323.722C143.724 321.023 136.723 319.582 123.85 320.944C111.083 322.293 102.341 325.579 96.4552 329.906C90.5942 334.215 87.4814 339.616 86.0621 345.388C85.7521 346.649 85.5227 347.927 85.3635 349.216C92.3428 349.037 100.782 350.992 111.458 355.653C114.733 357.083 117.044 358.859 118.466 360.914C119.904 362.992 120.373 365.268 120.101 367.545C119.568 372.004 116.223 376.362 112.124 379.65C107.998 382.961 102.824 385.419 98.2171 385.898C95.9043 386.138 93.6439 385.888 91.7294 384.897C89.7811 383.888 88.3062 382.169 87.5152 379.714C85.2906 372.808 82.04 362.4 82.4983 352.061C82.3598 352.079 82.2221 352.097 82.0851 352.117C75.1744 353.113 70.0466 356.635 65.3564 361.767C62.3804 365.024 60.7941 368.259 60.1207 371.26C62.0251 371.239 63.7302 371.383 65.2492 371.663C70.5334 372.639 73.6481 375.305 74.8363 378.496C76.002 381.627 75.2115 385.042 73.1376 387.239C70.9989 389.505 67.5913 390.38 63.8693 388.586C62.5398 387.945 61.1614 386.588 60.0204 384.847C58.8603 383.077 57.8726 380.801 57.3978 378.191C57.1598 376.883 57.0517 375.497 57.1128 374.053C53.3026 374.424 48.6758 375.419 43.1155 377.284C32.7473 380.761 24.5463 380.266 18.3873 377.321C12.235 374.379 8.31141 369.082 6.32103 363.328C4.33629 357.591 4.23841 351.306 5.82264 346.234C7.40136 341.179 10.7638 337.064 15.8577 336.313C25.047 334.957 33.6325 337.733 40.4399 341.166C45.6639 343.8 49.9788 346.903 52.6989 348.859C53.5058 349.439 54.1724 349.919 54.6806 350.255C55.6914 350.924 57.4516 351.673 59.4297 352C61.4076 352.326 63.4461 352.204 65.1211 351.325C66.7429 350.473 68.207 348.817 68.9147 345.679C69.6332 342.493 69.5582 337.811 68.0222 331.07C66.8241 325.813 65.0756 321.535 63.0661 318.139C62.112 318.574 61.1835 318.961 60.2821 319.301C55.2174 321.207 50.8472 321.677 47.5709 320.687C45.9116 320.186 44.5239 319.305 43.5125 318.046C42.502 316.788 41.9256 315.226 41.7686 313.455C41.4589 309.962 42.7167 307.227 45.187 305.832C47.5773 304.482 50.7592 304.588 53.9483 305.934C57.3551 307.371 60.9358 310.271 64.0212 314.761C70.4896 311.447 78.1855 305.848 86.6122 297.489C79.2261 293.271 73.7402 286.112 71.2687 275.157C68.1186 261.194 69.8827 252.252 74.4696 247.561C79.0194 242.909 85.8372 242.917 91.8286 245.658C92.2181 244.371 92.8518 243.147 93.7649 242.027C99.6336 234.827 107.844 231.085 115.185 229.026C120.818 227.446 126.096 226.826 129.424 226.435L129.425 226.435C130.412 226.319 131.227 226.224 131.829 226.129C133.026 225.941 134.831 225.307 136.511 224.213C138.191 223.119 139.614 221.654 140.257 219.875C140.88 218.153 140.844 215.943 139.249 213.148C137.63 210.312 134.416 206.906 128.735 202.967C124.304 199.894 120.127 197.916 116.353 196.765C115.943 197.73 115.518 198.642 115.082 199.5C112.629 204.324 109.72 207.619 106.634 209.099C105.071 209.848 103.452 210.134 101.856 209.887C100.262 209.64 98.7827 208.876 97.4722 207.675C94.8867 205.305 93.97 202.437 94.8526 199.741C95.7066 197.132 98.1271 195.064 101.389 193.906C104.873 192.669 109.473 192.394 114.779 193.627C117.318 186.817 119.222 177.492 119.804 165.637C111.506 167.506 102.627 165.922 93.4121 159.502C81.6674 151.32 76.9371 143.529 77.159 136.973C77.3839 130.327 82.6403 125.676 89.1027 123.728C95.5962 121.772 103.671 122.389 110.275 126.536C116.937 130.719 121.961 138.402 122.451 150.269C122.624 154.434 122.654 158.383 122.56 162.115C129.49 159.677 135.981 154.657 141.888 148.112C155.061 133.514 164.954 111.744 170.019 96.1042L170.043 96.0294L170.076 95.958C175.71 83.7663 181.671 76.1119 187.766 72.1837C193.95 68.1973 200.181 68.1106 206.007 70.8428C211.746 73.5343 217.024 78.9209 221.604 85.7595C226.198 92.6187 230.163 101.048 233.234 109.986C237.768 123.182 240.401 137.635 240.151 149.932C242.179 150.758 244.211 151.66 246.234 152.629C262.257 160.298 277.936 172.268 286.403 184.688C287.33 186.047 288.174 187.418 288.924 188.794C294.495 187.666 299.632 187.409 302.899 187.245L302.9 187.245L302.9 187.245C303.893 187.195 304.712 187.154 305.319 187.1C306.526 186.992 308.37 186.48 310.119 185.502C311.869 184.523 313.386 183.156 314.147 181.424C314.884 179.747 314.995 177.539 313.591 174.645C312.165 171.706 309.186 168.094 303.781 163.783C299.566 160.421 295.531 158.168 291.842 156.767C291.368 157.702 290.883 158.584 290.39 159.411C287.621 164.06 284.498 167.154 281.32 168.423C279.71 169.066 278.076 169.243 276.5 168.89C274.926 168.537 273.501 167.676 272.274 166.39C269.852 163.852 269.13 160.93 270.19 158.299C271.217 155.753 273.77 153.851 277.102 152.914C280.662 151.912 285.269 151.945 290.481 153.531C293.47 146.906 295.994 137.729 297.366 125.939C288.962 127.249 280.209 125.075 271.444 118.054C260.273 109.105 256.074 101.015 256.734 94.4874C257.403 87.8714 262.959 83.5822 269.537 82.0715C276.146 80.5535 284.162 81.7098 290.474 86.2887C296.841 90.9075 301.34 98.9093 301.036 110.783C300.929 114.95 300.695 118.892 300.351 122.61C307.429 120.641 314.242 116.066 320.573 109.93C334.693 96.246 346.02 75.1863 352.119 59.9204L352.148 59.8474L352.185 59.7783C358.622 47.9907 365.082 40.7522 371.426 37.2403C377.863 33.6764 384.086 34.0066 389.716 37.1223C395.262 40.1915 400.168 45.919 404.28 53.0486C408.405 60.1996 411.798 68.8751 414.264 77.9981C419.184 96.1967 420.488 116.454 416.323 130.204C414.24 137.084 410.715 142.556 405.35 145.152ZM91.3622 248.343C91.2699 248.297 91.1774 248.252 91.0848 248.207C85.564 245.555 79.908 245.753 76.3456 249.396C72.7208 253.102 70.7351 260.869 73.8283 274.579C76.2245 285.201 81.5384 291.784 88.5294 295.552C91.2624 292.741 94.0666 289.642 96.9256 286.242C102.348 279.792 104.343 273.528 104.189 267.974C99.2048 265.067 95.194 260.702 93.0497 256.12C91.8611 253.58 91.2196 250.897 91.3622 248.343ZM103.831 264.641C100.068 262.046 97.0894 258.562 95.4263 255.008C94.604 253.251 94.1191 251.522 93.9967 249.892C98.2778 252.816 101.904 257.388 103.427 262.896C103.584 263.467 103.72 264.048 103.831 264.641ZM106.72 266.371C106.588 264.938 106.328 263.544 105.956 262.197C104.106 255.507 99.5106 250.095 94.2114 246.915C94.4924 245.733 95.0172 244.644 95.7987 243.685C101.189 237.072 108.817 233.537 115.893 231.553C121.294 230.038 126.219 229.458 129.565 229.064C130.626 228.939 131.528 228.832 132.236 228.721C133.826 228.471 135.977 227.691 137.943 226.412C139.908 225.133 141.821 223.265 142.725 220.768C143.648 218.213 143.443 215.203 141.528 211.848C139.637 208.535 136.073 204.862 130.23 200.811C125.691 197.663 121.336 195.569 117.321 194.319C119.997 187.047 121.93 177.235 122.464 164.914C130.339 162.411 137.509 156.881 143.836 149.87C157.337 134.908 167.364 112.793 172.49 96.9877C178.026 85.0298 183.712 77.9187 189.187 74.3892C194.583 70.911 199.854 70.8551 204.893 73.2185C210.019 75.6226 214.97 80.5699 219.424 87.2196C223.864 93.8488 227.737 102.062 230.753 110.838C235.112 123.526 237.63 137.246 237.542 148.908C232.413 146.978 227.351 145.554 222.578 144.771C215.139 143.552 208.261 143.867 202.93 146.411C200.276 147.677 198.046 149.477 196.339 151.845C195.821 150.886 195.283 149.962 194.719 149.091C191.753 144.503 187.794 140.907 182.054 141.449C176.517 141.97 169.791 146.338 161.15 156.09C152.439 165.922 147.909 174.653 146.365 182.414C144.814 190.205 146.294 196.915 149.407 202.623C150.16 204.004 151.009 205.325 151.933 206.59C151.711 206.842 151.496 207.096 151.286 207.352C146.351 213.366 144.851 220.088 144.851 227.425C144.851 232.633 146.146 236.737 148.106 239.886C145.254 242.968 142.272 247.13 139.231 252.609C134.163 261.74 128.255 266.347 122.535 268.081C117.009 269.756 111.469 268.809 106.72 266.371ZM106.81 269.324C106.627 275.177 104.302 281.546 98.934 287.931C96.2514 291.121 93.6098 294.057 91.022 296.748C97.7824 299.624 105.961 300.297 114.737 299.45C130.522 297.926 147.881 291.519 161.503 284.832C157.704 280.064 158.196 273.509 161.155 267.874C164.309 261.87 170.407 256.541 177.992 254.734C185.644 252.911 194.646 254.709 203.458 262.673C206.55 265.468 209.389 268.213 211.986 270.895C215.102 264.243 216.068 256.093 215.536 247.293C214.349 227.666 205.747 205.354 198.135 190.783L198.099 190.714L198.071 190.64C193.321 178.085 191.794 168.388 192.82 161.139C193.174 158.635 193.833 156.426 194.764 154.498C194.057 153.092 193.315 151.75 192.516 150.516C189.73 146.206 186.558 143.66 182.3 144.061C177.838 144.481 171.699 148.141 163.114 157.83C154.601 167.439 150.364 175.762 148.938 182.926C147.518 190.061 148.865 196.148 151.711 201.366C152.332 202.506 153.025 203.605 153.777 204.663C158.808 199.823 166.357 195.572 177.382 191.811C180.764 190.658 183.668 190.41 186.105 190.967C188.568 191.531 190.449 192.895 191.784 194.759C194.399 198.411 194.87 203.883 194.063 209.076C193.25 214.304 191.089 219.608 188.011 223.07C186.466 224.808 184.629 226.148 182.547 226.708C180.428 227.277 178.18 227.004 175.94 225.725C169.639 222.127 160.218 216.637 153.581 208.696C153.491 208.803 153.402 208.909 153.314 209.016C148.885 214.414 147.475 220.472 147.475 227.425C147.475 231.837 148.487 235.295 150.014 237.964C151.406 236.664 152.762 235.62 154.072 234.802C158.631 231.958 162.729 231.825 165.759 233.379C168.731 234.903 170.451 237.958 170.403 240.979C170.352 244.094 168.427 247.038 164.47 248.225C163.056 248.649 161.123 248.577 159.106 248.062C157.056 247.538 154.791 246.524 152.68 244.918C151.622 244.113 150.607 243.162 149.678 242.056C147.116 244.899 144.371 248.755 141.525 253.883C136.217 263.444 129.83 268.611 123.296 270.592C117.509 272.346 111.767 271.552 106.81 269.324ZM163.449 286.798C149.528 293.714 131.493 300.469 114.989 302.062C105.589 302.969 96.5651 302.214 89.0631 298.75C80.357 307.485 72.3115 313.424 65.4307 316.987C67.5508 320.618 69.3533 325.102 70.5806 330.487C72.1603 337.42 72.3134 342.535 71.4744 346.256C70.6246 350.024 68.7455 352.386 66.3405 353.648C63.9888 354.882 61.3169 354.97 59.0028 354.589C56.6888 354.207 54.5754 353.332 53.233 352.444C52.6352 352.048 51.8979 351.518 51.031 350.895L51.0302 350.895C48.2941 348.928 44.2671 346.034 39.2586 343.509C32.6962 340.2 24.6811 337.663 16.2407 338.909C12.5198 339.458 9.73868 342.497 8.32727 347.016C6.92139 351.517 6.98676 357.226 8.80078 362.471C10.6092 367.698 14.1197 372.371 19.5193 374.954C24.912 377.533 32.3804 378.117 42.2811 374.796C48.2222 372.803 53.2315 371.742 57.4157 371.391C58.0929 367.744 59.9061 363.841 63.4195 359.997C68.3689 354.581 74.0105 350.63 81.7108 349.52C82.0379 349.473 82.3683 349.431 82.7022 349.394C82.8733 347.837 83.1385 346.289 83.5141 344.762C85.0666 338.448 88.5007 332.497 94.9011 327.792C101.277 323.105 110.511 319.715 123.574 318.334C136.53 316.964 144.443 318.278 148.882 321.628C153.484 325.101 153.981 330.425 153.076 335.813C152.384 339.929 150.819 344.4 149.358 348.571L149.357 348.574C148.917 349.831 148.486 351.061 148.092 352.246C147.225 354.85 146.528 357.243 146.213 359.335C145.894 361.446 145.994 363.077 146.542 364.26C150.29 372.35 154.852 376.221 159.613 377.3C164.412 378.387 169.819 376.734 175.446 372.858C186.708 365.1 198.071 348.953 205.48 331.884C209.174 323.372 211.856 314.695 213.05 306.807C214.249 298.894 213.931 291.902 211.769 286.669C210.858 284.465 209.617 282.56 207.997 281.018C203.579 285.293 197.579 288.38 189.701 289.863C176.797 292.292 168.263 290.739 163.449 286.798ZM205.916 279.377C201.909 283.151 196.464 285.92 189.216 287.284C177.511 289.487 170.203 288.199 166.07 285.469C168.094 284.422 170.016 283.379 171.815 282.356C183.968 277.263 192.963 275.849 199.386 276.938C201.94 277.371 204.104 278.201 205.916 279.377ZM207.761 277.454C205.572 275.942 202.937 274.878 199.824 274.351C192.675 273.139 183.111 274.768 170.728 279.967L170.655 279.997L170.587 280.036C168.515 281.215 166.281 282.42 163.916 283.625C160.627 279.932 160.692 274.399 163.478 269.094C166.311 263.7 171.816 258.902 178.6 257.286C185.319 255.686 193.454 257.168 201.698 264.619C204.994 267.598 207.99 270.512 210.701 273.344C209.849 274.798 208.872 276.172 207.761 277.454ZM277.077 225.265C274.767 223.803 272.718 221.988 271.03 219.997C272.948 220.615 274.803 221.094 276.512 221.291C278.759 221.549 280.947 221.342 282.703 220.115C289.377 215.452 292.552 209.742 292.854 203.509C293.049 199.491 292.046 195.347 290.149 191.227C295.201 190.263 299.724 190.035 302.865 189.877L302.868 189.877C303.933 189.823 304.839 189.777 305.553 189.714C307.156 189.57 309.354 188.937 311.4 187.792C313.447 186.646 315.481 184.911 316.549 182.48C317.642 179.993 317.638 176.975 315.951 173.5C314.286 170.068 310.976 166.165 305.417 161.732C301.099 158.288 296.893 155.907 292.971 154.391C296.128 147.315 298.712 137.654 300.069 125.396C308.093 123.425 315.618 118.387 322.399 111.815C336.87 97.7897 348.354 76.3945 354.526 60.9672C360.849 49.4063 366.997 42.6913 372.696 39.5359C378.313 36.4263 383.576 36.723 388.446 39.4181C393.4 42.1597 398.009 47.427 402.008 54.3596C405.994 61.2708 409.31 69.725 411.731 78.6828C416.587 96.6458 417.777 116.354 413.812 129.443C411.832 135.982 408.636 140.647 404.207 142.79C399.813 144.917 393.832 144.736 385.857 140.751C384.691 140.168 383.596 138.955 382.528 137.106C381.469 135.274 380.522 132.969 379.575 130.393C379.144 129.22 378.713 127.99 378.273 126.732L378.273 126.73L378.272 126.73L378.272 126.728C376.812 122.558 375.247 118.088 373.221 114.44C370.568 109.664 366.859 105.812 361.095 105.968C355.536 106.119 348.532 110.027 339.259 119.179C329.91 128.406 324.806 136.815 322.746 144.455C320.678 152.125 321.706 158.919 324.43 164.822C325.089 166.25 325.848 167.626 326.685 168.95C326.447 169.186 326.215 169.425 325.989 169.666C320.662 175.337 318.717 181.944 318.226 189.264C317.878 194.461 318.895 198.642 320.64 201.915C317.588 204.799 314.335 208.753 310.934 214.016C305.266 222.787 299.064 226.989 293.241 228.337C287.41 229.686 281.751 228.223 277.077 225.265ZM290.233 203.382C290.412 199.712 289.442 195.802 287.514 191.791C280.758 193.398 273.603 196.413 268.196 202.207C265.63 204.957 265.351 209.067 267.067 213.48C267.434 214.423 267.888 215.367 268.421 216.298C268.975 216.506 269.52 216.705 270.052 216.894C272.584 217.793 274.864 218.46 276.812 218.684C278.768 218.909 280.198 218.664 281.201 217.964C287.319 213.689 289.976 208.678 290.233 203.382ZM266.277 200.417C271.982 194.304 279.392 191.113 286.257 189.397C285.647 188.324 284.971 187.246 284.235 186.166C276.108 174.243 260.854 162.536 245.101 154.995C243.415 154.188 241.726 153.43 240.042 152.725C239.851 156.001 239.437 159.095 238.78 161.937C237.161 168.941 234.01 174.637 228.831 177.585C223.619 180.553 216.716 180.536 208.073 176.918C206.171 176.121 204.641 174.483 203.342 172.545C202.032 170.591 200.858 168.183 199.729 165.651C199.18 164.418 198.641 163.157 198.101 161.892L198.1 161.891C197.503 160.494 196.904 159.092 196.287 157.719C195.904 158.875 195.612 160.135 195.418 161.507C194.483 168.114 195.84 177.304 200.497 189.638C208.183 204.37 216.939 227.019 218.155 247.134C218.725 256.561 217.647 265.552 213.916 272.925C222.334 281.938 227.981 290.191 231.295 297.195C235 295.207 239.545 293.566 244.971 292.532C251.956 291.202 257.073 291.232 260.762 292.204C264.498 293.188 266.79 295.151 267.965 297.599C269.115 299.994 269.107 302.667 268.642 304.966C268.178 307.265 267.228 309.346 266.292 310.655C265.876 311.238 265.32 311.956 264.667 312.799L264.665 312.801C262.602 315.465 259.565 319.386 256.862 324.301C253.32 330.74 250.499 338.66 251.441 347.139C251.856 350.877 254.794 353.766 259.259 355.338C263.707 356.904 269.415 357.043 274.721 355.418C280.01 353.798 284.806 350.457 287.58 345.154C290.35 339.857 291.202 332.414 288.238 322.401C286.601 316.87 285.6 312.303 285.113 308.555C279.972 308.305 274.763 306.403 271.654 301.402C267.853 295.286 264.76 289.323 264.203 281.699C264.188 281.492 264.175 281.285 264.163 281.076C262.66 280.85 261.168 280.536 259.7 280.119C253.446 278.341 247.622 274.696 243.149 268.131C238.693 261.592 235.637 252.242 234.724 239.138C233.82 226.145 235.497 218.406 239.151 214.273C242.926 210.003 248.403 209.976 253.796 211.223C257.368 212.049 261.197 213.51 264.815 214.913C264.749 214.752 264.684 214.592 264.621 214.431C262.703 209.495 262.764 204.182 266.277 200.417ZM297.657 123.229C298.04 119.327 298.299 115.157 298.413 110.715C298.697 99.6064 294.523 92.468 288.933 88.4126C283.287 84.3172 276.061 83.2653 270.124 84.6289C264.155 85.9997 259.857 89.6821 259.345 94.7513C258.823 99.9094 262.115 107.218 273.085 116.006C281.582 122.813 289.842 124.645 297.657 123.229ZM289.325 155.924C284.696 154.585 280.732 154.618 277.813 155.439C274.965 156.241 273.247 157.735 272.624 159.28C272.036 160.739 272.285 162.601 274.172 164.578C275.099 165.55 276.081 166.107 277.074 166.33C278.066 166.552 279.159 166.461 280.346 165.987C282.761 165.022 285.504 162.486 288.136 158.068C288.538 157.394 288.934 156.679 289.325 155.924ZM324.022 202.414C324.803 203.521 325.678 204.466 326.592 205.264C328.316 206.767 330.196 207.76 331.887 208.315C333.611 208.881 335.02 208.956 335.825 208.772C338.776 208.098 340.038 206.206 340.199 204.278C340.367 202.256 339.338 200.054 337.337 198.852C335.392 197.684 332.302 197.347 328.17 199.556C326.877 200.247 325.491 201.184 324.022 202.414ZM330.116 169.351C335.85 177.371 344.607 183.346 350.809 187.46C352.423 188.53 353.948 188.778 355.375 188.495C356.838 188.205 358.322 187.33 359.741 185.934C362.591 183.131 364.911 178.486 365.994 173.672C367.084 168.823 366.843 164.156 365.007 161.192C364.115 159.75 362.836 158.69 361.07 158.16C359.277 157.621 356.883 157.6 353.745 158.44C342.509 161.451 335.048 165.122 330.116 169.351ZM197.708 154.546C199.247 151.917 201.419 150.039 204.06 148.779C208.708 146.562 214.972 146.183 222.153 147.361C226.992 148.154 232.184 149.644 237.469 151.689C237.311 155.154 236.904 158.403 236.223 161.346C234.684 168.002 231.808 172.871 227.532 175.305C223.29 177.721 217.311 177.94 209.087 174.497C207.884 173.994 206.71 172.857 205.521 171.084C204.343 169.327 203.243 167.09 202.126 164.583C201.618 163.441 201.105 162.242 200.582 161.016L200.581 161.015C199.671 158.884 198.727 156.673 197.708 154.546ZM119.83 150.377C120.013 154.816 120.033 158.995 119.912 162.914C112.21 164.849 103.846 163.573 94.912 157.349C83.3795 149.315 79.6061 142.243 79.7814 137.061C79.9538 131.969 83.9955 128.008 89.8597 126.241C95.6926 124.483 102.973 125.049 108.88 128.758C114.729 132.431 119.371 139.274 119.83 150.377ZM102.267 196.378C105.125 195.364 109.077 195.066 113.786 196.092C113.446 196.872 113.098 197.611 112.743 198.311C110.412 202.895 107.844 205.609 105.5 206.733C104.347 207.285 103.262 207.449 102.258 207.294C101.252 207.138 100.235 206.647 99.2452 205.74C97.2305 203.894 96.8568 202.053 97.3463 200.557C97.8643 198.975 99.4785 197.369 102.267 196.378ZM154.269 242.83C153.303 242.095 152.367 241.21 151.514 240.158C152.897 238.832 154.217 237.805 155.461 237.029C159.437 234.549 162.542 234.678 164.561 235.714C166.638 236.779 167.812 238.907 167.779 240.936C167.748 242.871 166.615 244.842 163.716 245.712C162.925 245.949 161.514 245.969 159.756 245.52C158.031 245.079 156.089 244.214 154.269 242.83ZM177.24 223.446C170.777 219.756 161.641 214.38 155.383 206.761C160.022 202.212 167.221 198.05 178.23 194.295C181.304 193.246 183.695 193.108 185.519 193.525C187.317 193.936 188.664 194.909 189.651 196.287C191.681 199.121 192.233 203.762 191.47 208.673C190.712 213.549 188.707 218.339 186.05 221.326C184.728 222.813 183.307 223.786 181.866 224.174C180.461 224.551 178.922 224.406 177.24 223.446ZM222.217 309.38C223.496 306.63 226.052 303.601 230.084 300.961C230.402 301.749 230.686 302.516 230.936 303.259C232.574 308.134 232.711 311.868 231.87 314.328C231.457 315.537 230.814 316.427 229.999 317.034C229.184 317.643 228.121 318.025 226.78 318.096C224.051 318.239 222.476 317.216 221.752 315.819C220.985 314.341 220.97 312.064 222.217 309.38ZM289.958 305.684C289.137 305.807 288.306 305.892 287.477 305.934C287.323 303.94 287.355 302.284 287.528 300.92C287.78 298.932 288.323 297.659 288.947 296.866C289.552 296.098 290.287 295.708 291.113 295.565C292.873 295.261 295.161 296.077 297.156 297.425C298.125 298.079 298.948 298.809 299.522 299.48C300.147 300.207 300.313 300.671 300.323 300.803C300.326 300.847 300.305 301.123 299.832 301.634C299.383 302.119 298.663 302.664 297.685 303.205C295.738 304.283 292.98 305.233 289.958 305.684ZM294.058 274.847C286.874 276.881 276.591 279.645 266.741 278.745C266.834 272.262 268.849 264.348 273.951 253.718C275.357 250.789 276.933 248.986 278.509 247.977C280.062 246.982 281.699 246.703 283.374 246.964C286.819 247.502 290.517 250.358 293.487 254.344C296.435 258.301 298.448 263.088 298.718 267.076C298.853 269.061 298.551 270.757 297.818 272.057C297.104 273.324 295.922 274.32 294.058 274.847ZM52.9284 308.351C55.7227 309.53 58.8413 311.976 61.6246 315.911C60.848 316.257 60.092 316.568 59.3576 316.845C54.5452 318.656 50.8187 318.928 48.3298 318.176C47.1066 317.806 46.1946 317.195 45.558 316.403C44.9205 315.609 44.5008 314.561 44.3823 313.224C44.141 310.501 45.107 308.89 46.4771 308.117C47.9271 307.298 50.2022 307.201 52.9284 308.351ZM59.9793 377.721C59.7621 376.528 59.668 375.243 59.7483 373.891C61.6633 373.845 63.3312 373.977 64.7726 374.244C69.3804 375.095 71.5855 377.285 72.3773 379.412C73.1916 381.599 72.6225 383.962 71.2296 385.438C69.9015 386.845 67.7351 387.536 65.0084 386.222C64.2644 385.864 63.2097 384.927 62.2151 383.409C61.2394 381.92 60.3887 379.971 59.9793 377.721ZM90.0128 378.909C87.7309 371.826 84.6137 361.694 85.1336 351.848C91.6268 351.619 99.7482 353.403 110.408 358.058C113.385 359.358 115.244 360.868 116.309 362.407C117.358 363.924 117.696 365.55 117.495 367.233C117.081 370.695 114.359 374.493 110.482 377.603C106.633 380.691 101.922 382.875 97.9458 383.288C95.967 383.494 94.261 383.253 92.9359 382.567C91.6447 381.898 90.6066 380.753 90.0128 378.909Z" fill="white"/>
</g>
</svg>
