<svg width="424" height="424" viewBox="0 0 424 424" fill="none" xmlns="http://www.w3.org/2000/svg">
<path d="M379.597 321.834C369.172 325.309 357.939 341.501 353.535 349.524H271.187C264.671 336.131 246.754 339.39 244.22 341.2C241.687 343.009 225.757 343.553 236.257 331.245C249.298 315.96 272.032 324.308 280.598 329.255C280.417 327.143 277.666 320.893 268.11 312.785C258.111 304.3 264.51 297.865 275.169 302.107C284.833 305.953 294.534 322.92 294.534 322.92C294.534 322.92 299.094 292.452 308.832 279.122C318.152 266.363 325.301 275.865 321.682 285.275C318.561 293.388 316.373 305.908 316.433 311.518C323.25 302.71 341.691 285.439 359.326 280.388C378.601 274.869 381.768 288.658 370.547 292.334C359.326 296.01 334.648 327.76 334.648 327.76C334.648 327.76 355.648 312.785 377.606 318.395C381.424 319.371 382.175 320.975 379.597 321.834Z" fill="#ECECEC"/>
<path d="M136.842 379.291H69.6405C57.2029 349.439 86.0729 352.691 93.3091 359.758C86.9409 351.411 86.9166 327.83 100.457 322.485C124.48 313.003 133.996 354.911 136.842 379.291Z" fill="#F8F8F8"/>
<path fill-rule="evenodd" clip-rule="evenodd" d="M124.584 240.05C124.584 240.05 202.781 231.391 214.386 231.5C228.81 231.608 234.016 230.201 242.91 230.634C251.694 231.067 258.31 247.842 257.768 255.959C257.226 264.184 250.176 269.595 239.439 269.92C231.847 270.137 234.341 270.028 229.461 270.57C224.58 271.111 127.512 276.414 115.908 277.821C104.845 279.228 99.097 242.322 124.584 240.05Z" fill="#C7E7DA"/>
<path d="M138.142 237.561L127.513 238.968L121.006 277.821L133.153 277.388L138.142 237.561Z" fill="#B68674"/>
<path fill-rule="evenodd" clip-rule="evenodd" d="M129.14 241.781C129.14 241.781 129.465 237.993 126.537 237.019C124.585 236.478 123.283 237.452 122.199 238.426C122.199 238.426 121.44 236.586 118.945 234.638C116.451 232.798 111.787 229.552 108.208 230.417C106.581 230.85 102.243 269.054 102.243 269.054L95.4102 308.774C95.4102 308.774 103.544 308.449 107.449 299.574C110.811 291.674 111.245 289.942 112.329 285.938C112.98 283.449 114.39 281.501 116.668 280.743C120.03 279.661 121.656 278.146 123.392 275.007C126.212 270.137 129.14 247.301 129.14 241.781Z" fill="#80CAB3"/>
<path fill-rule="evenodd" clip-rule="evenodd" d="M107.882 230.418C109.292 229.444 119.812 239.293 119.27 248.168C118.836 256.285 110.919 260.938 108.858 265.917C107.557 269.272 106.689 274.575 105.93 279.121C105.604 281.177 101.483 306.827 101.483 306.827C101.483 306.827 96.0603 312.13 94.1081 309.099C92.8066 307.151 106.581 231.284 107.882 230.418Z" fill="#957FEF"/>
<path fill-rule="evenodd" clip-rule="evenodd" d="M304.405 162.883C304.405 162.883 310.478 179.117 320.673 176.845C330.868 174.572 330 165.914 330 165.264C330 164.615 326.421 150.221 323.059 146.541C319.589 142.861 311.78 138.857 305.164 143.294C298.548 147.732 299.524 153.035 301.043 157.364C301.802 159.745 304.405 162.883 304.405 162.883Z" fill="#D9A48A"/>
<path fill-rule="evenodd" clip-rule="evenodd" d="M299.633 154.983C300.284 155.74 308.852 155.849 312.431 150.87C312.431 150.762 327.723 153.576 325.228 147.732C325.228 147.732 320.239 137.125 307.984 140.805C297.681 143.944 299.307 154.55 299.633 154.983Z" fill="#D6D6D6"/>
<path fill-rule="evenodd" clip-rule="evenodd" d="M281.846 169.593C279.894 171 295.512 190.373 298.114 188.1C302.561 184.096 308.743 176.412 310.695 174.031C314.274 169.701 316.335 167.645 311.671 161.476C305.164 152.926 298.982 163.1 298.982 163.1C298.982 163.1 285.642 166.779 281.846 169.593Z" fill="#D9A48A"/>
<path fill-rule="evenodd" clip-rule="evenodd" d="M307.441 157.147C306.682 156.498 299.307 151.736 296.487 157.147C293.668 162.559 300.283 165.048 301.151 164.94C303.103 164.831 304.73 164.723 306.248 163.208C309.068 160.827 309.285 158.771 307.441 157.147Z" fill="#D9A48A"/>
<path d="M314.817 164.831C317.094 168.511 320.673 166.13 320.673 166.13" stroke="#424D51" stroke-width="0.729" stroke-linecap="round" stroke-linejoin="round"/>
<path d="M318.07 159.636C318.07 159.636 320.023 159.961 320.023 161.26C320.131 162.559 318.721 162.775 317.854 162.775" stroke="#424D51" stroke-width="0.729" stroke-linecap="round" stroke-linejoin="round"/>
<path d="M319.263 156.823C319.263 156.823 319.805 154.766 321.541 154.117C323.276 153.467 324.361 154.225 325.228 155.199" stroke="#424D51" stroke-width="0.729" stroke-linecap="round" stroke-linejoin="round"/>
<path d="M321.107 154.658C321.541 154.117 322.3 154.009 322.842 154.442C323.385 154.874 323.493 155.632 323.059 156.173C322.625 156.714 321.866 156.823 321.324 156.39C320.782 156.065 320.782 155.199 321.107 154.658Z" stroke="#424D51" stroke-width="0.729" stroke-linecap="round" stroke-linejoin="round"/>
<path d="M308.635 160.394C308.635 160.394 309.177 158.338 310.912 157.688C312.648 157.039 313.732 157.796 314.6 158.77" stroke="#424D51" stroke-width="0.729" stroke-linecap="round" stroke-linejoin="round"/>
<path d="M310.478 158.23C310.912 157.689 311.671 157.58 312.214 158.013C312.756 158.446 312.864 159.204 312.431 159.745C311.997 160.286 311.238 160.394 310.695 159.961C310.153 159.529 310.045 158.771 310.478 158.23Z" stroke="#424D51" stroke-width="0.729" stroke-linecap="round" stroke-linejoin="round"/>
<path d="M303.32 159.528C302.778 159.637 301.585 159.853 301.043 160.502M300.5 158.23C300.5 158.23 301.91 158.338 303.32 159.528L300.5 158.23ZM304.513 160.935C304.188 160.394 303.754 159.961 303.32 159.528L304.513 160.935Z" stroke="#424D51" stroke-width="0.729" stroke-linecap="round" stroke-linejoin="round"/>
<path fill-rule="evenodd" clip-rule="evenodd" d="M311.129 173.489C311.129 173.489 308.635 170.351 307.442 166.779C306.249 162.883 307.442 177.927 307.442 177.927L311.129 173.489Z" fill="#424D51"/>
<path fill-rule="evenodd" clip-rule="evenodd" d="M171.871 146.002C171.871 146.002 212.434 122.625 223.822 115.914C235.86 108.988 243.127 116.672 246.272 120.135C246.597 120.568 246.923 120.893 247.248 121.109L248.116 121.867C262.54 135.72 276.857 149.357 289.221 164.941C308.851 189.725 276.531 207.691 258.202 186.37C248.224 174.79 229.028 148.599 229.028 148.599C229.028 148.599 194.647 164.292 186.296 168.296C185.971 168.405 185.537 168.621 185.211 168.837C185.103 168.946 184.886 168.946 184.778 169.054C182.5 170.136 179.355 171.651 179.355 171.651C179.355 171.651 180.548 173.058 181.199 174.682C182.717 178.253 181.524 181.175 180.548 183.448C179.572 185.721 177.511 188.102 174.691 187.02C171.98 185.937 172.305 182.474 172.956 181.284C174.149 179.227 172.305 175.872 169.702 176.63C165.689 177.604 165.147 182.907 169.594 183.556C173.932 184.314 173.281 188.318 171.654 189.833C170.028 191.349 166.557 191.457 162.87 189.184C158.748 186.803 158.64 181.067 158.64 181.067C158.64 181.067 148.662 186.37 145.733 187.885C143.131 189.184 141.395 188.859 140.202 186.911C138.684 184.314 141.287 182.041 141.287 182.041C138.142 183.123 136.949 181.716 136.406 180.526C134.996 177.279 137.816 175.439 137.816 175.439C137.599 175.439 137.491 175.548 137.274 175.548C136.189 175.764 134.563 176.197 133.153 173.816C131.2 170.461 136.949 166.781 143.347 162.669C144.215 162.127 144.974 161.586 145.842 161.153C151.482 157.149 166.015 149.14 171.871 146.002Z" fill="#D9A48A"/>
<path d="M172.631 168.296C174.692 167.647 178.379 169.054 179.464 171.218" stroke="#424D51" stroke-linecap="round" stroke-linejoin="round"/>
<path d="M160.051 176.953C160.051 176.953 158.641 179.009 158.641 180.958" stroke="#424D51" stroke-linecap="round" stroke-linejoin="round"/>
<path d="M157.555 172.625L140.311 182.474" stroke="#424D51" stroke-linecap="round" stroke-linejoin="round"/>
<path d="M153.977 165.807L136.949 175.547" stroke="#424D51" stroke-linecap="round" stroke-linejoin="round"/>
<path d="M261.998 134.529L233.365 155.309C235.968 159.53 242.367 168.621 243.885 170.244C245.838 172.409 294.101 177.712 294.101 171.543C293.884 166.673 272.626 144.811 261.998 134.529Z" fill="#BA79E2"/>
<path fill-rule="evenodd" clip-rule="evenodd" d="M210.157 179.226C210.157 179.226 277.833 145.675 296.813 172.083C317.636 200.979 279.351 217.213 276.315 218.079C266.228 221.218 248.225 224.14 248.225 224.14C248.225 224.14 200.07 191.672 210.157 179.226Z" fill="#BA79E2"/>
<path fill-rule="evenodd" clip-rule="evenodd" d="M182.066 305.581L204.3 334.045C204.3 334.045 281.412 284.91 288.895 280.04C296.379 275.278 312.756 259.91 292.691 243.026C272.519 226.143 211.892 177.549 211.892 177.549C211.892 177.549 185.754 188.155 194.756 208.61C201.697 224.519 228.702 241.944 236.62 248.005C244.429 254.174 248.333 257.529 248.333 257.529L182.066 305.581Z" fill="#C7E7DA"/>
<path d="M190.949 298.436L182.814 304.604L204.18 334.583L214.05 328.414L190.949 298.436Z" fill="#B68674"/>
<path fill-rule="evenodd" clip-rule="evenodd" d="M189.333 310.344C189.333 310.344 185.428 305.365 182.934 303.526C181.09 302.227 179.138 302.66 177.945 303.742C176.318 305.257 176.86 307.53 176.86 307.53C176.86 307.53 173.064 306.448 169.919 307.313C166.882 308.179 162.11 310.344 162.219 311.751C162.327 313.158 194.43 353.851 194.43 353.851C194.43 353.851 228.485 354.717 228.594 354.392C228.702 354.068 227.943 351.254 222.52 347.574C217.748 344.327 207.119 343.461 204.299 343.028C201.48 342.595 204.733 341.838 205.167 336.859C205.601 330.582 201.046 326.578 199.853 324.63C198.66 322.573 189.333 310.344 189.333 310.344Z" fill="#80CAB3"/>
<path fill-rule="evenodd" clip-rule="evenodd" d="M179.898 314.132C175.017 310.56 167.534 310.452 163.412 310.885C161.569 311.101 161.677 312.292 161.677 312.292L190.309 352.336C190.309 352.336 192.804 357.855 200.83 358.397C209.614 359.046 229.245 358.938 229.245 358.938C229.245 358.938 230.763 359.046 229.787 356.773C229.245 355.474 228.486 352.444 226.642 351.903C224.907 351.362 202.023 352.552 198.66 350.279C196.708 348.981 187.164 335.994 186.839 333.071C186.296 325.712 184.778 317.811 179.898 314.132Z" fill="#957FEF"/>
<path d="M203.107 342.379C203.107 342.379 202.456 345.301 204.083 347.141" stroke="#424D51" stroke-linecap="round" stroke-linejoin="round"/>
<path d="M230.438 270.409L248.116 257.421L212.977 229.932" stroke="#424D51" stroke-linecap="round" stroke-linejoin="round"/>
<path d="M255.58 164C255.58 164 278.33 159.377 290.088 165.699" stroke="#424D51" stroke-linecap="round" stroke-linejoin="round"/>
<path d="M283.83 176C275.479 174.485 264.705 180.624 259.705 192.249C255.258 205.453 249.309 237.668 249.309 247.841C249.309 256.499 249.959 264.833 250.827 286.37C250.827 286.37 251.912 332.042 252.345 340.7C252.345 341.674 252.454 342.756 252.454 343.731C252.779 351.306 253.105 358.125 257.009 358.016C259.829 358.016 260.263 356.393 260.588 355.311C260.588 355.094 260.696 354.878 260.805 354.77C260.805 354.77 260.913 358.125 264.492 358.558C265.902 358.774 267.746 358.341 268.288 355.094C268.288 355.094 268.939 358.449 271.976 358.449C274.253 358.449 275.446 357.151 275.555 354.229C275.772 350.874 276.097 339.618 276.097 339.618C276.097 339.618 281.086 342.432 285.316 340.051C289.112 337.886 290.847 334.964 290.305 332.691C289.763 330.419 286.617 327.929 283.798 331.393C280.978 334.856 276.748 331.717 277.832 327.821C278.592 325.224 282.279 325.332 283.581 327.28C284.231 328.362 287.16 330.419 289.437 328.579C291.823 326.739 290.739 323.709 289.329 321.652C287.81 319.596 285.858 317.107 282.062 316.674C280.435 316.457 278.592 316.782 278.592 316.782C278.592 316.782 280.327 294.487 280.544 291.89C282.062 271.543 282.93 251.738 283.472 249.248C284.557 245.027 291.715 219.919 291.715 219.919C292.366 217.538 293.342 214.94 294.318 212.126C299.741 196.758 297.361 178.455 283.83 176Z" fill="#D9A48A"/>
<path d="M291.282 223.817L253.322 215.483C255.274 208.124 259.07 194.163 260.806 187.885C262.649 181.5 268.723 176.522 272.627 173.599C276.098 171.11 290.74 169.92 297.138 180.634C302.344 189.184 295.078 212.561 291.282 223.817Z" fill="#BA79E2"/>
<path d="M253.646 215.482C253.646 215.482 257.75 183.037 270.783 175.113C276.727 171.499 282.83 170.876 288.83 173.625M293.33 177.874C297.08 181.499 297.98 190.999 297.08 195.999" stroke="#424D51" stroke-linecap="round" stroke-linejoin="round"/>
<path d="M272.193 321.113C272.627 319.056 275.664 316.567 278.158 316.675" stroke="#424D51" stroke-linecap="round" stroke-linejoin="round"/>
<path d="M273.387 336.156C273.387 336.156 274.471 338.321 276.207 339.403" stroke="#424D51" stroke-linecap="round" stroke-linejoin="round"/>
<path d="M268.505 336.156L268.396 355.854" stroke="#424D51" stroke-linecap="round" stroke-linejoin="round"/>
<path d="M260.697 335.939V355.529" stroke="#424D51" stroke-linecap="round" stroke-linejoin="round"/>
<path d="M110.375 209.662C102.627 206.84 87.8231 214.456 82.2222 231.672" stroke="#424D51" stroke-linecap="round" stroke-linejoin="round"/>
<path d="M109.795 199.313C103.787 198.873 93.7755 202.969 87.7558 211.876" stroke="#424D51" stroke-linecap="round" stroke-linejoin="round"/>
</svg>
