<svg width="424" height="424" viewBox="0 0 424 424" fill="none" xmlns="http://www.w3.org/2000/svg">
<path d="M25.4414 127.4H248.488C248.488 126.963 245.448 124.202 233.286 116.653C219.572 108.141 213.017 113.377 210.484 115.736C208.45 117.629 206.814 118.331 194.234 111.411C178.508 102.762 165.959 99.2581 152.822 105.383C146.925 108.133 138.799 92.9308 132.902 86.9025C129.048 82.9624 104.942 53.3951 80.3513 51.3881C39.254 48.034 32.5181 104.16 25.4414 127.4Z" fill="#F8F8F8"/>
<path d="M396.821 91.4121H253.453C270.941 75.8965 301.191 68.6465 304.691 75.8965C309.261 85.3621 336.259 60.9764 354.691 59.3958C376.12 57.5584 391.029 70.3127 396.821 91.4121Z" fill="#F8F8F8"/>
<path fill-rule="evenodd" clip-rule="evenodd" d="M177.199 264.2C177.199 264.2 172.999 178.7 182.899 176.8C191.699 175.2 240.999 176.5 246.499 175.9C250.199 175.5 247.699 244.9 247.199 259C246.599 277.6 181.199 278.5 177.199 264.2Z" fill="#DEC0F1"/>
<path fill-rule="evenodd" clip-rule="evenodd" d="M84.7998 213.2C84.7998 213.2 82.0998 197.2 93.6998 187.9C105.3 178.7 113.3 179.6 120.2 178.8C128.8 177.8 182.6 173 205.2 176.2C230.6 179.8 208 232 208 232L177.9 231.8L177.1 219.1C177.1 219.2 87.8998 221.9 84.7998 213.2Z" fill="#DEC0F1"/>
<path fill-rule="evenodd" clip-rule="evenodd" d="M163.299 229.801C171.599 230.101 190.899 230.901 203.399 229.501C203.799 229.501 210.099 228.901 207.599 224.301C207.599 224.301 211.199 224.301 211.499 221.401C211.699 219.201 210.299 218.201 209.099 217.801C208.999 217.801 211.499 217.901 211.499 215.401C211.399 212.201 207.599 211.401 204.799 211.501C204.699 211.501 206.399 211.301 206.399 209.001C206.399 208.101 205.499 206.701 202.699 206.101C197.899 205.101 182.099 205.601 182.099 205.601C182.099 205.601 184.499 203.501 187.099 201.401C187.899 200.801 189.299 198.901 188.099 197.101C186.999 195.401 185.699 195.501 182.599 196.901C179.399 198.401 172.999 201.301 168.899 204.901C168.599 205.201 164.699 205.301 162.099 205.501C150.199 206.801 149.699 229.301 163.299 229.801Z" fill="#EFD9CE"/>
<path d="M181.6 206.001C179.9 205.901 178.1 205.701 176 206.101" stroke="#424D51" stroke-linecap="round" stroke-linejoin="round"/>
<path d="M186.9 211.4C186.9 211.4 201.7 211.7 205.3 211.7" stroke="#424D51" stroke-linecap="round" stroke-linejoin="round"/>
<path d="M186.5 216.899C186.5 216.899 199.1 216.599 204.9 216.899C206.4 216.999 208.1 217.299 209.5 217.999" stroke="#424D51" stroke-linecap="round" stroke-linejoin="round"/>
<path d="M185.9 222.6C185.9 222.6 199.7 222.4 203.3 222.7C204.1 222.8 206.2 223 207.4 224.1" stroke="#424D51" stroke-linecap="round" stroke-linejoin="round"/>
<path fill-rule="evenodd" clip-rule="evenodd" d="M156.5 230.301C156.4 230.801 159.7 231.101 161.1 229.601C162.5 228.101 164.1 206.301 162.4 205.301C160.7 204.301 158.1 204.301 158.1 204.301C158.1 204.301 156.6 229.801 156.5 230.301Z" fill="#EFD9CE"/>
<path fill-rule="evenodd" clip-rule="evenodd" d="M114.801 198.001C117.001 198.501 137.801 198.901 146.501 199.601C153.101 200.201 160.801 199.501 160.501 205.201C160.301 210.001 161.601 234.001 155.601 233.801C148.901 233.601 111.401 234.001 103.101 232.201C95.4009 230.501 83.2009 221.201 84.6009 208.601C85.8009 197.401 109.101 196.701 114.801 198.001Z" fill="#DEC0F1"/>
<path d="M106.199 197.801C106.199 197.801 153.999 200.101 154.999 200.301C155.999 200.501 160.699 200.501 160.499 204.301" stroke="#424D51" stroke-linecap="round" stroke-linejoin="round"/>
<path fill-rule="evenodd" clip-rule="evenodd" d="M338.799 213.601C338.799 213.601 341.599 197.601 329.899 188.301C318.299 179.101 310.299 180.001 303.399 179.201C294.799 178.201 240.999 173.401 218.399 176.601C208.249 180.8 215.599 232.501 215.599 232.501L245.699 232.301L246.499 219.601C246.499 219.601 335.699 222.301 338.799 213.601Z" fill="#DEC0F1"/>
<path fill-rule="evenodd" clip-rule="evenodd" d="M260.299 230.2C251.999 230.5 232.699 231.3 220.199 229.9C219.799 229.9 213.499 229.3 215.999 224.7C215.999 224.7 212.499 224.7 212.099 221.8C211.899 219.6 213.299 218.7 214.499 218.2C214.599 218.2 212.099 218.3 212.099 215.8C212.199 212.6 215.999 211.8 218.799 212C218.899 212 217.199 211.8 217.199 209.5C217.199 208.6 218.099 207.2 220.899 206.6C225.699 205.6 241.499 206.1 241.499 206.1C241.499 206.1 239.099 204 236.499 202C235.699 201.4 234.299 199.5 235.499 197.7C236.599 196 237.899 196.1 240.999 197.5C244.199 199 250.599 201.9 254.699 205.5C254.999 205.8 258.899 205.9 261.499 206.1C273.399 207.2 273.899 229.6 260.299 230.2Z" fill="#EFD9CE"/>
<path d="M242 206.399C243.7 206.299 245.5 206.099 247.6 206.499" stroke="#424D51" stroke-linecap="round" stroke-linejoin="round"/>
<path d="M236.701 211.801C236.701 211.801 221.901 212.101 218.301 212.101" stroke="#424D51" stroke-linecap="round" stroke-linejoin="round"/>
<path d="M237.1 217.299C237.1 217.299 224.5 216.999 218.7 217.299C217.2 217.399 215.4 217.699 214.1 218.399" stroke="#424D51" stroke-linecap="round" stroke-linejoin="round"/>
<path d="M237.699 223.001C237.699 223.001 223.899 222.801 220.299 223.101C219.499 223.101 217.399 223.401 216.199 224.501" stroke="#424D51" stroke-linecap="round" stroke-linejoin="round"/>
<path fill-rule="evenodd" clip-rule="evenodd" d="M267.101 230.6C267.201 231.1 263.901 231.4 262.501 229.9C261.101 228.4 259.501 206.6 261.201 205.6C262.901 204.6 265.501 204.6 265.501 204.6C265.501 204.6 267.001 230.2 267.101 230.6Z" fill="#EFD9CE"/>
<path fill-rule="evenodd" clip-rule="evenodd" d="M308.8 198.401C306.6 198.901 285.8 199.301 277.1 200.001C270.5 200.501 262.8 199.901 263.1 205.601C263.3 210.401 262 234.401 268 234.201C274.7 234.001 312.2 234.401 320.5 232.601C328.2 230.901 340.4 221.601 339 209.001C337.8 197.701 314.5 197.101 308.8 198.401Z" fill="#DEC0F1"/>
<path d="M317.4 198.199C317.4 198.199 269.6 200.499 268.6 200.699C267.6 200.899 262.9 200.899 263.1 204.699" stroke="#424D51" stroke-linecap="round" stroke-linejoin="round"/>
<path fill-rule="evenodd" clip-rule="evenodd" d="M277.4 266.3L282.4 255.5L277.4 266.3Z" fill="white"/>
<path fill-rule="evenodd" clip-rule="evenodd" d="M144.801 265.599L139.801 254.699L144.801 265.599Z" fill="white"/>
<path fill-rule="evenodd" clip-rule="evenodd" d="M261.499 298L296.199 310.8C296.199 310.8 317.799 268.5 321.499 261.2C325.799 252.6 326.399 246.3 322.699 237.9C305.199 197.5 265.499 233.7 251.099 243.1C236.699 252.5 254.399 278.3 264.699 276.2C270.099 275.1 277.199 267.1 275.499 270.3C269.899 280.7 261.499 298 261.499 298Z" fill="#EFD9CE"/>
<path fill-rule="evenodd" clip-rule="evenodd" d="M263.4 293.199L297.8 309.099L280.6 340.999C280.6 340.999 244.9 351.399 245.1 338.799C245.3 324.199 263.4 293.199 263.4 293.199Z" fill="#CBE4FC"/>
<path d="M277.4 266.3L282.4 255.5" stroke="#424D51" stroke-linecap="round" stroke-linejoin="round"/>
<path fill-rule="evenodd" clip-rule="evenodd" d="M246.901 337.2C246.901 337.2 243.301 337.5 243.001 340.4C242.801 342.3 243.901 343.3 245.001 344.1C245.001 344.1 243.401 345.1 242.101 347.7C240.801 350.3 238.701 355.1 240.001 358.1C240.601 359.5 276.101 357.2 276.101 357.2L313.401 356.9C313.401 356.9 311.801 349.5 303.101 347.5C295.401 345.7 293.701 345.6 289.901 345.3C287.501 345.1 285.501 344.1 284.501 342.2C283.001 339.3 281.301 338.1 278.201 337C273.101 335.2 252.001 336.3 246.901 337.2Z" fill="#93BEFA"/>
<path fill-rule="evenodd" clip-rule="evenodd" d="M239.899 358.3C238.799 357.2 246.099 346.1 254.199 345.1C261.699 344.2 267.099 350.6 272.099 351.7C275.299 352.4 280.299 352.3 284.599 352.2C286.499 352.2 310.499 351.8 310.499 351.8C310.499 351.8 316.299 355.9 313.699 358.2C312.199 359.5 240.899 359.3 239.899 358.3Z" fill="#EFD9CE"/>
<path fill-rule="evenodd" clip-rule="evenodd" d="M275.899 348.501C273.899 348.901 271.9 347.601 271.6 345.601C271.2 343.601 272.599 341.701 274.699 341.301C276.699 340.901 278.7 342.201 279.1 344.201C279.4 346.201 277.999 348.101 275.899 348.501Z" fill="#CBE4FC"/>
<path fill-rule="evenodd" clip-rule="evenodd" d="M160.601 297.301L125.901 310.101C125.901 310.101 104.301 267.801 100.601 260.501C96.3008 251.901 95.7008 245.601 99.4008 237.201C116.901 196.801 156.601 233.001 171.001 242.401C185.401 251.801 167.701 277.501 157.401 275.501C152.001 274.401 144.901 266.401 146.601 269.601C152.201 280.001 160.601 297.301 160.601 297.301Z" fill="#EFD9CE"/>
<path fill-rule="evenodd" clip-rule="evenodd" d="M158.701 292.5L124.301 308.4L141.501 340.3C141.501 340.3 177.101 350.7 177.001 338.1C176.901 323.5 158.701 292.5 158.701 292.5Z" fill="#CBE4FC"/>
<path d="M144.801 265.599L139.801 254.699" stroke="#424D51" stroke-linecap="round" stroke-linejoin="round"/>
<path fill-rule="evenodd" clip-rule="evenodd" d="M175.301 336.501C175.301 336.501 178.901 336.801 179.201 339.701C179.401 341.601 178.301 342.601 177.201 343.401C177.201 343.401 178.801 344.401 180.101 347.001C181.401 349.501 183.501 354.401 182.201 357.401C181.601 358.801 146.101 356.501 146.101 356.501L108.801 356.201C108.801 356.201 110.401 348.801 119.101 346.801C126.801 345.001 128.501 344.901 132.301 344.601C134.701 344.401 136.701 343.401 137.701 341.501C139.201 338.601 140.901 337.401 144.001 336.301C149.001 334.501 170.201 335.601 175.301 336.501Z" fill="#93BEFA"/>
<path fill-rule="evenodd" clip-rule="evenodd" d="M182.201 357.601C183.301 356.501 176.001 345.401 167.901 344.401C160.401 343.501 155.001 349.901 150.001 351.001C146.801 351.701 141.801 351.601 137.501 351.501C135.601 351.501 111.601 351.101 111.601 351.101C111.601 351.101 105.801 355.201 108.401 357.501C109.901 358.801 181.201 358.601 182.201 357.601Z" fill="#EFD9CE"/>
<path fill-rule="evenodd" clip-rule="evenodd" d="M146.2 347.8C148.3 348.2 150.2 346.8 150.6 344.9C151 342.9 149.6 341 147.5 340.6C145.4 340.2 143.5 341.6 143.1 343.5C142.8 345.5 144.1 347.4 146.2 347.8Z" fill="#CBE4FC"/>
<path d="M148.801 274.3L144.801 265.6L162.701 236.5C162.701 236.5 183.762 248.911 193.181 255.421C202.118 255.475 217.455 255.663 228.563 256.3C237.849 249.841 259.301 237.2 259.301 237.2L277.201 266.3L273.301 275C273.301 275 247.301 296 230.001 299.2C227.357 299.696 224.463 299.841 221.626 299.686C214.703 300.076 205.293 299.838 198.786 299.131C196.469 299.171 194.152 299.003 192.001 298.6C174.801 295.3 148.801 274.3 148.801 274.3Z" fill="#FFB6A9"/>
<path fill-rule="evenodd" clip-rule="evenodd" d="M201.8 179.7C200.2 185.8 224.8 189.3 226.3 183C226.4 177.5 226.6 174.3 227.1 164.4C227.3 159.2 221.7 159.5 218.7 159.2C213.1 158.6 210.8 164.4 210.8 164.4C210.8 164.4 203.4 176.9 201.8 179.7Z" fill="#EFD9CE"/>
<path fill-rule="evenodd" clip-rule="evenodd" d="M211.5 160.2C211.2 162 210.9 169.9 216.5 174.1C221 177.4 226.5 176.9 226.5 176.9C226.5 176.9 227.4 166.9 227.3 165.9C227.2 165 211.8 158.9 211.5 160.2Z" fill="#424D51"/>
<path fill-rule="evenodd" clip-rule="evenodd" d="M209.8 153.999C209.8 153.999 209.5 169.999 219 171.499C228.5 172.999 230.7 165.199 230.9 164.699C231.1 164.099 232.9 150.499 231.2 146.199C229.5 141.899 224.1 135.799 216.9 137.399C209.7 138.999 208.8 143.899 208.6 148.099C208.5 150.399 209.8 153.999 209.8 153.999Z" fill="#EFD9CE"/>
<path fill-rule="evenodd" clip-rule="evenodd" d="M211.8 151C211.4 149.8 206.5 144.3 202.3 148.1C199.5 150.6 200.5 153.3 202 154.9C203.8 156.9 206.3 157.6 209.1 156.6C211.8 155.7 211.9 153.9 212.2 153.3C212.4 152.4 212.1 151.8 211.8 151Z" fill="#EFD9CE"/>
<path fill-rule="evenodd" clip-rule="evenodd" d="M228.6 151.099C229 149.899 233.9 144.499 238.1 148.199C240.9 150.699 239.9 153.399 238.4 154.999C236.6 156.999 234.1 157.699 231.3 156.699C228.6 155.799 228.5 153.999 228.3 153.399C228 152.499 228.3 151.899 228.6 151.099Z" fill="#EFD9CE"/>
<path fill-rule="evenodd" clip-rule="evenodd" d="M213.4 144.7C213.4 144.7 221.5 149.1 228.9 144.7C229 144.7 229.9 148.5 232 148L232.8 137C232.8 137 232.6 133.9 228.6 133.7C225.4 133.6 212.3 133.1 212.3 133.1C212.3 133.1 208.6 133.1 208.5 136.9C208.4 140.8 208.3 147.9 208.9 147.9C211 147.9 213.4 144.7 213.4 144.7Z" fill="#F1D7AD"/>
<path d="M217 158.5C218 162.4 221.9 161.2 221.9 161.2" stroke="#424D51" stroke-width="0.729" stroke-linecap="round" stroke-linejoin="round"/>
<path d="M221.2 154.6C221.2 154.6 222.8 155.4 222.6 156.6C222.3 157.7 221.1 157.6 220.3 157.4" stroke="#424D51" stroke-width="0.729" stroke-linecap="round" stroke-linejoin="round"/>
<path d="M223.7 152.899C223.7 152.899 224.7 151.299 226.4 151.099C228.1 150.999 228.9 151.899 229.4 152.999" stroke="#424D51" stroke-width="0.729" stroke-linecap="round" stroke-linejoin="round"/>
<path d="M225.9 151.4C226.4 151 227.1 151.2 227.5 151.7C227.9 152.2 227.8 152.9 227.2 153.3C226.7 153.7 226 153.6 225.6 153C225.3 152.5 225.4 151.8 225.9 151.4Z" stroke="#424D51" stroke-width="0.729" stroke-linecap="round" stroke-linejoin="round"/>
<path d="M212.6 152.899C212.6 152.899 213.6 151.299 215.3 151.099C217 150.999 217.8 151.899 218.3 152.999" stroke="#424D51" stroke-width="0.729" stroke-linecap="round" stroke-linejoin="round"/>
<path d="M214.8 151.4C215.3 151 216 151.2 216.4 151.7C216.8 152.2 216.7 152.9 216.1 153.3C215.6 153.7 214.9 153.6 214.5 153C214.2 152.5 214.3 151.8 214.8 151.4Z" stroke="#424D51" stroke-width="0.729" stroke-linecap="round" stroke-linejoin="round"/>
<path d="M232.9 151.799C233.4 151.699 234.5 151.699 235.1 152.099M235.2 149.899C235.2 149.899 233.9 150.299 233 151.799L235.2 149.899ZM232.2 153.299C232.4 152.699 232.6 152.199 232.9 151.799L232.2 153.299Z" stroke="#424D51" stroke-width="0.729" stroke-linecap="round" stroke-linejoin="round"/>
<path d="M208.7 151.6C208.2 151.5 207.1 151.5 206.5 151.9M206.4 149.8C206.4 149.8 207.7 150.2 208.6 151.7L206.4 149.8ZM209.4 153.1C209.2 152.5 209 152 208.7 151.6L209.4 153.1Z" stroke="#424D51" stroke-width="0.729" stroke-linecap="round" stroke-linejoin="round"/>
<mask id="mask0_12_5694" style="mask-type:alpha" maskUnits="userSpaceOnUse" x="144" y="236" width="134" height="64">
<path d="M148.801 274.3L144.801 265.6L162.701 236.5C162.701 236.5 183.762 248.911 193.181 255.421C202.118 255.475 217.455 255.663 228.563 256.3C237.849 249.841 259.301 237.2 259.301 237.2L277.201 266.3L273.301 275C273.301 275 247.301 296 230.001 299.2C227.357 299.696 224.463 299.841 221.626 299.686C214.703 300.076 205.293 299.838 198.786 299.131C196.469 299.171 194.152 299.003 192.001 298.6C174.801 295.3 148.801 274.3 148.801 274.3Z" fill="#FFB6A9"/>
</mask>
<g mask="url(#mask0_12_5694)">
<path fill-rule="evenodd" clip-rule="evenodd" d="M404.946 139.54C399.547 142.153 392.661 141.675 384.279 137.486C382.435 136.564 381.018 134.827 379.851 132.807C378.674 130.77 377.664 128.288 376.707 125.686C376.242 124.42 375.788 123.125 375.334 121.827C373.888 117.7 372.429 113.536 370.522 110.103C368.03 105.617 365.036 102.864 360.761 102.979C356.281 103.101 349.911 106.341 340.697 115.435C331.56 124.453 326.776 132.474 324.875 139.527C322.981 146.55 323.917 152.714 326.408 158.111C326.952 159.29 327.57 160.432 328.249 161.539C333.593 157.045 341.408 153.309 352.661 150.294C356.112 149.369 359.026 149.316 361.42 150.035C363.84 150.762 365.626 152.249 366.833 154.199C369.198 158.017 369.302 163.509 368.149 168.636C366.989 173.797 364.478 178.946 361.176 182.194C359.518 183.824 357.595 185.038 355.48 185.458C353.328 185.884 351.103 185.461 348.953 184.035C342.907 180.024 333.874 173.916 327.784 165.549C327.687 165.65 327.591 165.75 327.496 165.851C322.716 170.94 320.904 176.891 320.439 183.828C320.144 188.23 320.922 191.748 322.268 194.514C323.743 193.309 325.166 192.358 326.528 191.63C331.267 189.097 335.364 189.238 338.283 190.991C341.147 192.711 342.66 195.874 342.409 198.884C342.15 201.989 340.033 204.799 336.005 205.718C334.566 206.047 332.642 205.846 330.664 205.196C328.653 204.536 326.462 203.373 324.463 201.63C323.461 200.756 322.511 199.74 321.659 198.573C318.912 201.239 315.916 204.903 312.733 209.829C306.798 219.014 300.079 223.742 293.427 225.281C286.784 226.819 280.413 225.126 275.269 221.87C271.538 219.51 268.408 216.3 266.236 212.821C265.396 212.501 264.551 212.173 263.704 211.844C260.038 210.421 256.341 208.986 252.8 208.168C247.643 206.975 243.484 207.265 240.712 210.399C237.819 213.671 236.038 220.425 236.937 233.344C237.829 246.151 240.799 255.005 244.912 261.042C249.008 267.054 254.295 270.358 260.012 271.983C261.23 272.329 262.468 272.599 263.718 272.803C263.874 265.868 266.056 257.647 271.181 246.971C272.727 243.75 274.584 241.504 276.689 240.156C278.817 238.793 281.108 238.406 283.374 238.76C287.812 239.452 292.046 242.951 295.186 247.165C298.347 251.407 300.618 256.666 300.932 261.287C301.089 263.607 300.758 265.857 299.699 267.735C298.621 269.646 296.851 271.058 294.368 271.76C287.354 273.746 276.769 276.639 266.406 275.771L266.41 275.82C266.411 275.845 266.413 275.871 266.415 275.896C266.924 282.868 269.735 288.385 273.478 294.405C275.905 298.31 280.029 300.009 284.44 300.305C284.293 298.245 284.329 296.481 284.52 294.978C284.811 292.687 285.472 290.913 286.48 289.632C287.508 288.326 288.833 287.614 290.262 287.368C293.012 286.893 296.012 288.147 298.22 289.639C299.352 290.404 300.359 291.285 301.109 292.159C301.809 292.975 302.463 293.988 302.535 295.004C302.614 296.107 302.031 297.072 301.353 297.804C300.651 298.564 299.675 299.267 298.552 299.889C296.297 301.137 293.233 302.176 289.941 302.668C289.1 302.793 288.234 302.884 287.354 302.933C287.829 306.416 288.777 310.733 290.349 316.045C293.453 326.531 292.664 334.709 289.5 340.758C286.34 346.801 280.906 350.533 275.085 352.316C269.28 354.093 262.995 353.966 257.983 352.201C252.988 350.442 248.997 346.935 248.428 341.817C247.402 332.585 250.484 324.105 254.158 317.425C256.978 312.298 260.233 308.097 262.286 305.449L262.287 305.448L262.288 305.447C262.896 304.662 263.398 304.014 263.752 303.519C264.456 302.532 265.269 300.8 265.666 298.835C266.062 296.87 266.013 294.829 265.195 293.123C264.402 291.472 262.8 289.949 259.688 289.13C256.53 288.298 251.849 288.205 245.058 289.498C239.761 290.507 235.423 292.101 231.957 293.988C232.358 294.957 232.711 295.899 233.018 296.812C234.742 301.942 235.055 306.326 233.949 309.565C233.388 311.205 232.458 312.56 231.164 313.526C229.871 314.491 228.289 315.011 226.514 315.104C223.011 315.288 220.323 313.933 219.017 311.415C217.754 308.978 217.974 305.802 219.433 302.663C220.991 299.31 224.018 295.835 228.615 292.913C225.535 286.33 220.216 278.438 212.163 269.717C211.339 271.048 210.417 272.311 209.393 273.498C211.283 275.295 212.738 277.51 213.789 280.055C216.21 285.913 216.472 293.45 215.24 301.588C214.004 309.75 211.245 318.648 207.482 327.317C199.977 344.61 188.361 361.257 176.529 369.407C170.609 373.485 164.441 375.564 158.629 374.247C152.779 372.922 147.695 368.253 143.756 359.751C142.889 357.88 142.866 355.639 143.213 353.332C143.564 351.006 144.322 348.436 145.198 345.806C145.624 344.525 146.077 343.231 146.531 341.933L146.531 341.932C147.975 337.804 149.433 333.64 150.083 329.767C150.933 324.706 150.31 320.686 146.896 318.11C143.319 315.411 136.319 313.971 123.445 315.332C110.678 316.682 101.936 319.967 96.0504 324.294C90.1894 328.603 87.0766 334.004 85.6573 339.777C85.3473 341.037 85.1179 342.316 84.9587 343.604C91.938 343.425 100.377 345.38 111.053 350.042C114.328 351.471 116.639 353.247 118.061 355.302C119.5 357.38 119.968 359.656 119.696 361.933C119.163 366.392 115.819 370.75 111.72 374.038C107.593 377.349 102.419 379.807 97.8123 380.286C95.4995 380.527 93.2391 380.276 91.3246 379.285C89.3763 378.276 87.9015 376.558 87.1105 374.102C84.8858 367.196 81.6353 356.788 82.0935 346.449C81.955 346.467 81.8173 346.486 81.6804 346.506C74.7696 347.502 69.6419 351.023 64.9516 356.155C61.9756 359.412 60.3893 362.648 59.7159 365.648C61.6204 365.627 63.3254 365.771 64.8444 366.052C70.1286 367.028 73.2433 369.693 74.4315 372.884C75.5972 376.015 74.8067 379.43 72.7329 381.627C70.5941 383.893 67.1865 384.768 63.4646 382.974C62.135 382.334 60.7566 380.977 59.6156 379.235C58.4555 377.465 57.4678 375.189 56.993 372.579C56.7551 371.272 56.6469 369.885 56.708 368.442C52.8978 368.812 48.271 369.807 42.7108 371.672C32.3425 375.15 24.1415 374.654 17.9825 371.709C11.8303 368.767 7.90662 363.471 5.91625 357.717C3.93151 351.979 3.83363 345.694 5.41786 340.622C6.99657 335.567 10.359 331.453 15.4529 330.701C24.6422 329.345 33.2277 332.122 40.0351 335.554C45.2591 338.188 49.574 341.291 52.2941 343.247C53.101 343.828 53.7676 344.307 54.2759 344.643C55.2866 345.312 57.0468 346.062 59.0249 346.388C61.0028 346.714 63.0413 346.592 64.7163 345.713C66.3381 344.862 67.8022 343.205 68.5099 340.067C69.2284 336.881 69.1534 332.199 67.6174 325.459C66.4193 320.201 64.6708 315.923 62.6613 312.527C61.7072 312.963 60.7787 313.349 59.8773 313.689C54.8126 315.595 50.4424 316.066 47.1661 315.076C45.5068 314.574 44.1191 313.693 43.1077 312.434C42.0972 311.177 41.5208 309.615 41.3638 307.844C41.0541 304.35 42.3119 301.615 44.7822 300.22C47.1725 298.87 50.3544 298.977 53.5436 300.322C56.9503 301.759 60.531 304.659 63.6164 309.149C70.0848 305.835 77.7807 300.236 86.2075 291.877C78.8213 287.659 73.3354 280.5 70.8639 269.545C67.7138 255.582 69.4779 246.64 74.0649 241.949C78.6146 237.297 85.4325 237.305 91.4238 240.046C91.8134 238.759 92.447 237.536 93.3601 236.415C99.2288 229.215 107.439 225.473 114.78 223.414C120.413 221.835 125.692 221.215 129.019 220.824L129.02 220.824C130.007 220.708 130.822 220.612 131.424 220.517C132.621 220.329 134.426 219.695 136.106 218.601C137.786 217.508 139.209 216.042 139.852 214.264C140.475 212.541 140.439 210.331 138.844 207.537C137.225 204.7 134.011 201.295 128.33 197.355C123.899 194.282 119.722 192.304 115.948 191.153C115.538 192.118 115.113 193.03 114.677 193.888C112.224 198.712 109.316 202.008 106.229 203.487C104.666 204.236 103.047 204.522 101.452 204.275C99.8572 204.029 98.3779 203.264 97.0674 202.063C94.4819 199.693 93.5652 196.825 94.4478 194.129C95.3018 191.52 97.7223 189.452 100.984 188.294C104.468 187.057 109.068 186.782 114.375 188.015C116.914 181.205 118.818 171.88 119.399 160.025C111.101 161.894 102.222 160.31 93.0073 153.891C81.2626 145.709 76.5323 137.917 76.7542 131.361C76.9791 124.715 82.2355 120.064 88.6979 118.117C95.1915 116.16 103.266 116.778 109.87 120.924C116.532 125.107 121.556 132.79 122.047 144.657C122.219 148.822 122.249 152.771 122.155 156.504C129.085 154.066 135.576 149.045 141.483 142.5C154.656 127.902 164.55 106.132 169.614 90.4925L169.638 90.4177L169.671 90.3463C175.305 78.1546 181.267 70.5003 187.361 66.5721C193.545 62.5856 199.777 62.4989 205.602 65.2311C211.341 67.9226 216.619 73.3092 221.199 80.1478C225.793 87.007 229.759 95.4362 232.829 104.374C237.363 117.57 239.996 132.024 239.746 144.32C241.774 145.147 243.807 146.048 245.83 147.017C261.852 154.687 277.531 166.656 285.998 179.076C286.925 180.435 287.769 181.806 288.52 183.183C294.09 182.054 299.227 181.797 302.495 181.633L302.495 181.633L302.496 181.633C303.488 181.584 304.307 181.543 304.914 181.488C306.121 181.381 307.965 180.869 309.714 179.89C311.464 178.911 312.981 177.544 313.742 175.812C314.479 174.135 314.59 171.928 313.186 169.033C311.76 166.095 308.781 162.482 303.377 158.171C299.161 154.809 295.126 152.556 291.437 151.155C290.963 152.09 290.478 152.972 289.985 153.799C287.216 158.449 284.093 161.542 280.915 162.812C279.305 163.455 277.671 163.632 276.095 163.279C274.521 162.926 273.096 162.064 271.869 160.778C269.448 158.24 268.725 155.318 269.786 152.687C270.812 150.141 273.366 148.239 276.697 147.302C280.257 146.3 284.864 146.334 290.077 147.919C293.065 141.294 295.589 132.117 296.961 120.327C288.557 121.638 279.804 119.463 271.039 112.442C259.868 103.493 255.669 95.4028 256.329 88.8757C256.998 82.2597 262.554 77.9705 269.132 76.4598C275.742 74.9418 283.757 76.0981 290.069 80.677C296.436 85.2958 300.935 93.2977 300.631 105.171C300.524 109.338 300.291 113.281 299.947 116.998C307.024 115.029 313.837 110.454 320.168 104.319C334.288 90.6343 345.615 69.5746 351.714 54.3087L351.743 54.2357L351.781 54.1667C358.217 42.379 364.678 35.1405 371.021 31.6286C377.458 28.0647 383.681 28.3949 389.311 31.5106C394.858 34.5798 399.763 40.3073 403.876 47.4369C408.001 54.5879 411.393 63.2634 413.86 72.3864C418.779 90.585 420.083 110.842 415.919 124.592C413.835 131.472 410.31 136.945 404.946 139.54ZM90.9574 242.731C90.8651 242.685 90.7726 242.64 90.68 242.595C85.1592 239.944 79.5032 240.141 75.9408 243.784C72.316 247.491 70.3303 255.257 73.4235 268.968C75.8197 279.589 81.1336 286.173 88.1246 289.94C90.8576 287.129 93.6618 284.031 96.5209 280.63C101.943 274.181 103.938 267.916 103.784 262.363C98.8001 259.455 94.7892 255.09 92.6449 250.508C91.4563 247.968 90.8148 245.286 90.9574 242.731ZM103.426 259.029C99.6636 256.434 96.6846 252.95 95.0215 249.396C94.1992 247.639 93.7143 245.91 93.5919 244.281C97.873 247.204 101.499 251.777 103.022 257.285C103.18 257.855 103.315 258.437 103.426 259.029ZM106.315 260.759C106.183 259.327 105.923 257.933 105.551 256.585C103.702 249.895 99.1058 244.483 93.8066 241.303C94.0876 240.121 94.6124 239.032 95.394 238.073C100.784 231.46 108.412 227.925 115.488 225.941C120.889 224.426 125.814 223.846 129.161 223.452C130.221 223.327 131.123 223.221 131.832 223.109C133.422 222.859 135.572 222.08 137.538 220.8C139.503 219.521 141.416 217.654 142.32 215.156C143.244 212.602 143.038 209.591 141.123 206.236C139.232 202.923 135.668 199.251 129.826 195.199C125.286 192.051 120.931 189.957 116.916 188.707C119.593 181.436 121.525 171.624 122.059 159.303C129.934 156.799 137.104 151.269 143.431 144.258C156.932 129.297 166.959 107.182 172.086 91.376C177.621 79.4181 183.307 72.307 188.782 68.7775C194.178 65.2993 199.449 65.2434 204.488 67.6068C209.615 70.0109 214.565 74.9582 219.019 81.608C223.459 88.2371 227.333 96.4506 230.348 105.226C234.707 117.914 237.225 131.634 237.137 143.297C232.008 141.367 226.946 139.942 222.173 139.16C214.735 137.94 207.856 138.256 202.526 140.799C199.872 142.065 197.641 143.865 195.934 146.233C195.416 145.274 194.878 144.35 194.315 143.479C191.348 138.891 187.39 135.296 181.649 135.837C176.113 136.359 169.386 140.726 160.746 150.478C152.035 160.31 147.505 169.042 145.96 176.802C144.409 184.593 145.889 191.303 149.002 197.011C149.755 198.392 150.604 199.714 151.528 200.978C151.306 201.231 151.091 201.485 150.881 201.74C145.946 207.754 144.447 214.476 144.447 221.813C144.447 227.021 145.741 231.126 147.701 234.275C144.849 237.356 141.867 241.519 138.826 246.998C133.758 256.128 127.851 260.735 122.13 262.469C116.605 264.144 111.064 263.197 106.315 260.759ZM106.405 263.713C106.222 269.565 103.897 275.935 98.5293 282.319C95.8466 285.51 93.205 288.445 90.6173 291.137C97.3776 294.012 105.556 294.686 114.332 293.838C130.118 292.315 147.476 285.908 161.098 279.221C157.299 274.453 157.791 267.898 160.751 262.262C163.904 256.258 170.002 250.929 177.587 249.122C185.239 247.299 194.241 249.097 203.053 257.061C206.145 259.856 208.985 262.601 211.582 265.284C214.697 258.631 215.663 250.482 215.131 241.681C213.944 222.054 205.342 199.742 197.73 185.172L197.694 185.102L197.666 185.028C192.916 172.473 191.39 162.776 192.415 155.528C192.769 153.024 193.428 150.814 194.359 148.886C193.652 147.48 192.91 146.139 192.111 144.904C189.325 140.595 186.153 138.048 181.895 138.449C177.434 138.87 171.294 142.529 162.71 152.218C154.196 161.827 149.959 170.15 148.533 177.315C147.114 184.449 148.46 190.536 151.306 195.755C151.928 196.894 152.621 197.993 153.373 199.052C158.404 194.211 165.952 189.961 176.978 186.2C180.359 185.046 183.263 184.798 185.7 185.356C188.163 185.919 190.044 187.283 191.379 189.148C193.994 192.799 194.465 198.272 193.658 203.464C192.845 208.692 190.684 213.997 187.606 217.458C186.061 219.196 184.224 220.536 182.142 221.096C180.023 221.666 177.775 221.392 175.535 220.113C169.234 216.516 159.813 211.025 153.177 203.084C153.086 203.191 152.997 203.298 152.91 203.405C148.48 208.802 147.071 214.861 147.071 221.813C147.071 226.225 148.082 229.683 149.61 232.353C151.001 231.053 152.357 230.008 153.667 229.191C158.227 226.347 162.324 226.213 165.354 227.767C168.326 229.292 170.047 232.346 169.998 235.367C169.948 238.482 168.022 241.427 164.065 242.614C162.651 243.038 160.718 242.966 158.701 242.45C156.651 241.926 154.386 240.912 152.275 239.306C151.217 238.501 150.202 237.551 149.274 236.444C146.711 239.288 143.967 243.144 141.12 248.271C135.813 257.833 129.425 263 122.891 264.98C117.104 266.735 111.362 265.94 106.405 263.713ZM163.044 281.186C149.123 288.102 131.088 294.857 114.584 296.45C105.184 297.358 96.1603 296.603 88.6583 293.138C79.9522 301.873 71.9067 307.813 65.026 311.375C67.146 315.006 68.9485 319.49 70.1758 324.876C71.7555 331.808 71.9086 336.923 71.0696 340.644C70.2198 344.413 68.3407 346.774 65.9358 348.036C63.584 349.271 60.9121 349.358 58.598 348.977C56.284 348.595 54.1706 347.72 52.8282 346.832C52.2304 346.436 51.4931 345.907 50.6262 345.283L50.6255 345.283C47.8893 343.316 43.8623 340.422 38.8538 337.897C32.2914 334.588 24.2763 332.052 15.8359 333.297C12.115 333.846 9.3339 336.885 7.92248 341.404C6.5166 345.906 6.58197 351.615 8.396 356.859C10.2044 362.087 13.715 366.76 19.1145 369.342C24.5073 371.921 31.9756 372.505 41.8764 369.184C47.8174 367.192 52.8267 366.13 57.0109 365.78C57.6881 362.133 59.5013 358.23 63.0147 354.385C67.9641 348.969 73.6057 345.018 81.306 343.908C81.6331 343.861 81.9635 343.819 82.2974 343.783C82.4685 342.226 82.7337 340.677 83.1093 339.15C84.6618 332.836 88.0959 326.885 94.4963 322.18C100.872 317.493 110.106 314.104 123.169 312.722C136.126 311.353 144.038 312.666 148.477 316.016C153.079 319.489 153.576 324.813 152.671 330.202C151.979 334.318 150.414 338.788 148.954 342.959L148.953 342.962C148.512 344.219 148.082 345.449 147.687 346.634C146.821 349.238 146.123 351.631 145.808 353.723C145.49 355.834 145.589 357.465 146.137 358.648C149.885 366.738 154.447 370.61 159.208 371.688C164.007 372.775 169.414 371.122 175.041 367.246C186.304 359.488 197.667 343.342 205.075 326.272C208.769 317.76 211.451 309.084 212.646 301.195C213.844 293.282 213.527 286.29 211.364 281.057C210.454 278.853 209.212 276.948 207.592 275.406C203.174 279.681 197.174 282.768 189.296 284.251C176.392 286.68 167.858 285.128 163.044 281.186ZM205.511 273.765C201.504 277.539 196.059 280.308 188.811 281.672C177.106 283.876 169.798 282.587 165.665 279.858C167.689 278.81 169.611 277.767 171.411 276.744C183.564 271.651 192.558 270.238 198.981 271.326C201.536 271.759 203.699 272.59 205.511 273.765ZM207.356 271.843C205.168 270.33 202.532 269.267 199.419 268.739C192.271 267.528 182.706 269.156 170.323 274.355L170.25 274.386L170.182 274.424C168.11 275.603 165.876 276.808 163.512 278.014C160.222 274.32 160.287 268.788 163.074 263.482C165.906 258.089 171.411 253.291 178.195 251.674C184.914 250.074 193.049 251.556 201.293 259.008C204.589 261.987 207.585 264.9 210.296 267.732C209.444 269.186 208.468 270.561 207.356 271.843ZM276.672 219.653C274.362 218.191 272.313 216.376 270.625 214.385C272.543 215.003 274.398 215.482 276.108 215.679C278.355 215.937 280.542 215.73 282.299 214.503C288.972 209.84 292.147 204.131 292.449 197.898C292.645 193.879 291.641 189.736 289.744 185.616C294.796 184.651 299.319 184.423 302.46 184.265L302.463 184.265C303.528 184.211 304.434 184.166 305.148 184.102C306.751 183.959 308.949 183.325 310.996 182.18C313.042 181.035 315.076 179.3 316.144 176.868C317.237 174.381 317.233 171.364 315.547 167.888C313.882 164.456 310.571 160.553 305.013 156.12C300.694 152.676 296.489 150.295 292.567 148.779C295.723 141.703 298.307 132.042 299.664 119.785C307.689 117.813 315.213 112.775 321.994 106.203C336.466 92.1781 347.949 70.7828 354.121 55.3555C360.444 43.7946 366.592 37.0796 372.292 33.9242C377.908 30.8146 383.171 31.1113 388.041 33.8064C392.995 36.548 397.604 41.8153 401.603 48.7479C405.589 55.6591 408.905 64.1133 411.327 73.0712C416.183 91.0342 417.372 110.743 413.407 123.831C411.427 130.37 408.231 135.035 403.803 137.179C399.408 139.305 393.428 139.124 385.452 135.139C384.286 134.556 383.191 133.343 382.123 131.494C381.065 129.663 380.117 127.357 379.17 124.781C378.739 123.609 378.308 122.378 377.868 121.12L377.868 121.119L377.868 121.118L377.867 121.116C376.407 116.946 374.843 112.476 372.816 108.828C370.163 104.052 366.454 100.2 360.69 100.356C355.131 100.507 348.127 104.415 338.854 113.567C329.505 122.794 324.401 131.203 322.341 138.844C320.273 146.513 321.301 153.307 324.025 159.21C324.684 160.639 325.443 162.014 326.28 163.338C326.042 163.575 325.81 163.814 325.584 164.055C320.257 169.725 318.312 176.332 317.821 183.652C317.473 188.849 318.49 193.031 320.235 196.304C317.184 199.187 313.93 203.141 310.529 208.405C304.862 217.176 298.66 221.377 292.836 222.725C287.005 224.074 281.346 222.611 276.672 219.653ZM289.829 197.77C290.007 194.101 289.038 190.19 287.109 186.179C280.354 187.786 273.198 190.801 267.791 196.596C265.225 199.346 264.947 203.456 266.662 207.868C267.029 208.811 267.483 209.756 268.017 210.686C268.571 210.894 269.115 211.094 269.648 211.283C272.179 212.181 274.459 212.848 276.407 213.072C278.364 213.297 279.793 213.053 280.796 212.352C286.914 208.077 289.571 203.067 289.829 197.77ZM265.873 194.806C271.577 188.692 278.987 185.501 285.852 183.785C285.242 182.712 284.567 181.634 283.83 180.554C275.703 168.632 260.449 156.924 244.697 149.384C243.011 148.576 241.321 147.818 239.637 147.114C239.446 150.39 239.032 153.483 238.375 156.325C236.756 163.329 233.605 169.025 228.426 171.974C223.214 174.942 216.312 174.925 207.669 171.306C205.766 170.51 204.237 168.871 202.937 166.933C201.627 164.98 200.453 162.571 199.325 160.039C198.775 158.806 198.236 157.545 197.696 156.28L197.696 156.28C197.098 154.882 196.499 153.48 195.882 152.107C195.499 153.263 195.207 154.524 195.013 155.895C194.078 162.502 195.435 171.692 200.093 184.027C207.779 198.758 216.534 221.407 217.75 241.523C218.32 250.949 217.243 259.94 213.512 267.313C221.929 276.327 227.577 284.58 230.89 291.584C234.595 289.595 239.14 287.954 244.567 286.921C251.551 285.59 256.669 285.621 260.357 286.592C264.093 287.577 266.385 289.539 267.56 291.988C268.71 294.382 268.702 297.055 268.238 299.354C267.773 301.653 266.823 303.734 265.887 305.044C265.471 305.627 264.915 306.344 264.262 307.187L264.26 307.19C262.197 309.853 259.161 313.774 256.457 318.689C252.916 325.129 250.094 333.048 251.036 341.527C251.451 345.266 254.389 348.154 258.854 349.726C263.303 351.292 269.01 351.432 274.316 349.807C279.605 348.187 284.401 344.846 287.175 339.542C289.946 334.245 290.797 326.803 287.833 316.789C286.196 311.258 285.195 306.692 284.709 302.943C279.567 302.694 274.358 300.792 271.249 295.79C267.448 289.675 264.355 283.712 263.798 276.087C263.783 275.881 263.77 275.673 263.758 275.464C262.255 275.238 260.763 274.924 259.295 274.507C253.041 272.729 247.217 269.084 242.744 262.519C238.288 255.98 235.232 246.63 234.32 233.526C233.415 220.533 235.092 212.794 238.746 208.661C242.522 204.391 247.998 204.364 253.392 205.611C256.963 206.437 260.792 207.899 264.411 209.301C264.344 209.141 264.279 208.98 264.217 208.819C262.298 203.884 262.36 198.57 265.873 194.806ZM297.252 117.618C297.635 113.716 297.894 109.545 298.008 105.104C298.293 93.9947 294.118 86.8563 288.528 82.8009C282.883 78.7055 275.657 77.6536 269.719 79.0172C263.75 80.3881 259.452 84.0704 258.94 89.1396C258.418 94.2977 261.71 101.607 272.68 110.394C281.178 117.202 289.438 119.033 297.252 117.618ZM288.921 150.313C284.291 148.973 280.328 149.006 277.408 149.828C274.56 150.629 272.842 152.124 272.219 153.668C271.631 155.127 271.881 156.989 273.767 158.967C274.694 159.938 275.676 160.496 276.669 160.718C277.661 160.94 278.755 160.849 279.941 160.375C282.356 159.41 285.099 156.874 287.731 152.456C288.133 151.782 288.53 151.068 288.921 150.313ZM323.618 196.802C324.398 197.909 325.273 198.855 326.187 199.652C327.911 201.156 329.791 202.148 331.482 202.703C333.207 203.269 334.615 203.344 335.421 203.16C338.371 202.486 339.633 200.595 339.794 198.667C339.962 196.644 338.933 194.442 336.933 193.241C334.987 192.072 331.897 191.736 327.765 193.944C326.472 194.635 325.086 195.572 323.618 196.802ZM329.711 163.74C335.446 171.759 344.202 177.735 350.404 181.848C352.018 182.919 353.544 183.166 354.97 182.884C356.434 182.594 357.917 181.718 359.336 180.323C362.186 177.52 364.507 172.874 365.589 168.06C366.679 163.211 366.438 158.544 364.603 155.58C363.71 154.139 362.432 153.079 360.665 152.548C358.873 152.01 356.478 151.988 353.34 152.829C342.105 155.839 334.644 159.51 329.711 163.74ZM197.303 148.935C198.842 146.306 201.014 144.427 203.655 143.167C208.303 140.95 214.567 140.572 221.749 141.749C226.588 142.543 231.779 144.032 237.064 146.077C236.907 149.542 236.499 152.791 235.818 155.734C234.28 162.391 231.403 167.259 227.128 169.693C222.885 172.109 216.906 172.329 208.682 168.886C207.479 168.382 206.306 167.245 205.116 165.472C203.938 163.715 202.838 161.478 201.721 158.971C201.213 157.83 200.7 156.63 200.177 155.404L200.177 155.403C199.267 153.272 198.322 151.061 197.303 148.935ZM119.425 144.765C119.608 149.204 119.628 153.383 119.507 157.302C111.805 159.237 103.441 157.962 94.5072 151.738C82.9747 143.703 79.2013 136.631 79.3767 131.45C79.549 126.357 83.5907 122.396 89.4549 120.629C95.2879 118.871 102.568 119.438 108.475 123.146C114.324 126.819 118.966 133.662 119.425 144.765ZM101.862 190.767C104.72 189.752 108.672 189.454 113.381 190.481C113.042 191.26 112.693 192 112.338 192.699C110.007 197.283 107.439 199.997 105.095 201.121C103.943 201.673 102.857 201.838 101.853 201.682C100.847 201.527 99.83 201.036 98.8404 200.129C96.8257 198.282 96.452 196.441 96.9415 194.946C97.4596 193.363 99.0737 191.757 101.862 190.767ZM153.864 237.218C152.898 236.483 151.962 235.598 151.109 234.546C152.492 233.221 153.813 232.193 155.056 231.417C159.032 228.937 162.137 229.066 164.156 230.102C166.233 231.167 167.407 233.295 167.374 235.324C167.343 237.259 166.21 239.231 163.311 240.1C162.52 240.338 161.109 240.357 159.351 239.908C157.627 239.467 155.684 238.603 153.864 237.218ZM176.836 217.834C170.373 214.144 161.236 208.768 154.979 201.15C159.617 196.6 166.816 192.439 177.825 188.683C180.899 187.634 183.29 187.496 185.115 187.913C186.913 188.325 188.259 189.297 189.246 190.675C191.276 193.51 191.829 198.15 191.065 203.061C190.307 207.937 188.302 212.727 185.646 215.715C184.324 217.202 182.902 218.175 181.461 218.562C180.057 218.939 178.518 218.794 176.836 217.834ZM221.812 303.769C223.091 301.018 225.647 297.989 229.679 295.349C229.997 296.137 230.281 296.904 230.531 297.648C232.169 302.522 232.306 306.256 231.466 308.716C231.052 309.925 230.409 310.815 229.595 311.423C228.779 312.031 227.716 312.413 226.376 312.484C223.646 312.627 222.071 311.604 221.347 310.207C220.581 308.729 220.565 306.452 221.812 303.769ZM289.553 300.073C288.732 300.195 287.902 300.28 287.072 300.322C286.919 298.328 286.95 296.672 287.123 295.309C287.375 293.32 287.918 292.048 288.542 291.255C289.147 290.487 289.882 290.096 290.708 289.953C292.468 289.649 294.756 290.465 296.751 291.813C297.72 292.468 298.543 293.198 299.118 293.868C299.742 294.596 299.909 295.059 299.918 295.191C299.921 295.235 299.9 295.511 299.427 296.023C298.979 296.508 298.259 297.052 297.281 297.593C295.333 298.672 292.575 299.621 289.553 300.073ZM293.654 269.236C286.469 271.269 276.186 274.033 266.336 273.133C266.429 266.651 268.444 258.736 273.546 248.106C274.952 245.178 276.528 243.375 278.104 242.365C279.657 241.371 281.294 241.091 282.97 241.353C286.414 241.89 290.113 244.747 293.082 248.732C296.03 252.689 298.043 257.476 298.314 261.465C298.448 263.449 298.147 265.146 297.413 266.445C296.699 267.712 295.517 268.708 293.654 269.236ZM52.5236 302.74C55.3179 303.919 58.4365 306.365 61.2198 310.299C60.4432 310.646 59.6873 310.957 58.9529 311.233C54.1404 313.045 50.4139 313.316 47.9251 312.564C46.7018 312.194 45.7898 311.583 45.1532 310.791C44.5158 309.998 44.096 308.949 43.9775 307.612C43.7362 304.89 44.7022 303.279 46.0723 302.505C47.5223 301.686 49.7974 301.59 52.5236 302.74ZM59.5746 372.11C59.3574 370.916 59.2632 369.631 59.3435 368.279C61.2585 368.234 62.9264 368.366 64.3678 368.632C68.9756 369.483 71.1807 371.674 71.9725 373.8C72.7868 375.987 72.2178 378.35 70.8248 379.826C69.4967 381.233 67.3303 381.924 64.6037 380.61C63.8596 380.252 62.8049 379.315 61.8103 377.797C60.8346 376.308 59.9839 374.36 59.5746 372.11ZM89.608 373.298C87.3261 366.214 84.2089 356.082 84.7288 346.237C91.222 346.007 99.3434 347.792 110.003 352.446C112.981 353.746 114.839 355.257 115.904 356.796C116.954 358.312 117.292 359.938 117.09 361.622C116.677 365.083 113.954 368.882 110.078 371.992C106.229 375.08 101.517 377.263 97.541 377.676C95.5622 377.882 93.8562 377.641 92.5312 376.955C91.2399 376.286 90.2018 375.141 89.608 373.298Z" fill="white"/>
</g>
</svg>
