<svg width="424" height="424" viewBox="0 0 424 424" fill="none" xmlns="http://www.w3.org/2000/svg">
<path d="M276.187 185.036C281.788 235.148 229.966 309.352 170.741 294.005C111.516 278.658 106.279 258.626 91.3077 205.7C85.7065 155.588 124.094 134.909 185.247 115.862C246.401 96.8158 270.586 134.924 276.187 185.036Z" fill="#F8F8F8"/>
<path d="M318.63 277.509C326.22 296.251 314.247 330.513 289.719 331.001C265.19 331.49 260.999 324.323 249.487 305.51C241.897 286.768 254.479 274.627 276.027 260.65C297.576 246.674 311.04 258.768 318.63 277.509Z" fill="#F8F8F8"/>
<path fill-rule="evenodd" clip-rule="evenodd" d="M259.831 202.19C259.831 202.19 266.331 192.59 256.431 184.49C250.331 179.49 253.331 175.99 252.531 172.39C252.131 170.39 250.031 173.59 249.131 167.79C247.331 155.59 240.031 152.09 230.531 156.09C224.531 158.69 223.831 163.99 222.731 167.99C221.431 172.59 217.731 177.39 212.931 178.69C206.731 180.39 192.231 187.59 200.631 201.49C202.331 204.19 208.831 213.09 212.931 212.79C217.031 212.49 237.431 201.99 237.431 201.99L259.831 202.19Z" fill="#89716E"/>
<path fill-rule="evenodd" clip-rule="evenodd" d="M269.831 233.291C270.131 239.191 274.031 260.991 274.031 260.991L212.131 260.291C212.131 260.291 195.531 230.391 195.431 228.391C195.431 227.891 178.531 204.491 199.731 201.091C209.831 199.491 255.631 200.191 262.431 201.891C267.331 203.291 269.431 226.091 269.831 233.291Z" fill="#E5CDF4"/>
<path fill-rule="evenodd" clip-rule="evenodd" d="M263.831 239.891C263.231 230.691 263.431 227.491 263.331 216.391C263.231 202.791 256.131 204.491 256.131 204.091C256.231 199.391 280.731 206.291 280.731 206.291C280.731 206.291 280.931 198.191 280.931 192.291C280.931 186.891 303.831 181.891 305.131 188.191C307.731 200.891 309.331 242.291 308.631 255.991C308.331 263.691 307.531 272.691 302.731 276.891C301.331 278.091 299.631 278.891 297.531 279.191C275.131 282.291 265.131 260.091 263.831 239.891Z" fill="#FDDCC4"/>
<path fill-rule="evenodd" clip-rule="evenodd" d="M305.13 190.49C305.23 182.19 305.33 181.79 303.83 169.29C303.73 167.99 302.83 162.89 298.23 165.49C298.23 165.49 298.43 162.19 295.53 161.99C293.33 161.79 292.53 163.09 292.13 164.29C292.13 164.29 291.93 162.59 289.83 162.79C287.13 162.99 286.43 164.79 286.73 167.59C286.73 167.69 286.53 157.49 286.33 151.69C286.23 148.69 285.33 148.09 284.03 148.09C282.23 148.09 280.93 149.09 280.43 151.79C279.53 156.59 280.53 172.39 280.53 172.39C280.53 172.39 278.43 170.09 276.23 167.49C275.63 166.69 273.63 165.39 271.93 166.59C270.23 167.79 270.33 169.09 271.83 172.09C273.43 175.29 276.43 181.59 280.13 185.59C280.43 185.89 280.63 189.69 280.93 192.39C282.43 204.19 304.93 204.09 305.13 190.49Z" fill="#FDDCC4"/>
<path d="M280.73 172.791C281.63 173.991 283.13 176.791 286.23 177.491C290.73 178.491 292.03 184.691 287.73 187.091" stroke="#424D51" stroke-linecap="round" stroke-linejoin="round"/>
<path d="M286.53 165.591C286.53 165.591 286.23 174.091 287.83 176.491C288.73 177.891 292.43 178.591 292.33 173.691C292.23 168.791 292.23 164.391 292.23 164.391" stroke="#424D51" stroke-linecap="round" stroke-linejoin="round"/>
<path d="M292.33 173.691C292.33 173.691 292.43 176.891 295.43 176.391C297.33 176.091 297.73 174.291 297.93 172.791C298.13 170.791 298.23 165.291 298.23 165.291" stroke="#424D51" stroke-linecap="round" stroke-linejoin="round"/>
<path d="M297.93 172.49C297.93 172.49 297.83 176.59 300.73 176.59C302.63 176.59 303.93 175.79 304.03 173.29" stroke="#424D51" stroke-linecap="round" stroke-linejoin="round"/>
<path fill-rule="evenodd" clip-rule="evenodd" d="M261.331 240.39C261.931 242.19 277.931 241.09 277.931 241.09L280.531 206.29C280.531 206.29 265.631 199.99 256.331 201.99C250.031 203.39 252.431 207.19 252.931 209.89C253.431 212.59 260.831 238.59 261.331 240.39Z" fill="#E5CDF4"/>
<path d="M277.83 262.25C275.83 249.5 277.43 243.489 277.83 241.189" stroke="#424D51" stroke-linecap="round" stroke-linejoin="round"/>
<path d="M264.031 240.991C261.931 231.791 261.431 219.891 262.931 213.891" stroke="#424D51" stroke-linecap="round" stroke-linejoin="round"/>
<path fill-rule="evenodd" clip-rule="evenodd" d="M218.13 201.49C216.43 204.29 239.83 212.29 242.63 204.79C242.73 199.29 242.93 196.09 243.43 186.19C243.63 180.99 238.03 181.29 235.13 180.99C229.53 180.39 227.23 186.19 227.23 186.19C227.23 186.19 219.83 198.69 218.13 201.49Z" fill="#FDDCC4"/>
<path fill-rule="evenodd" clip-rule="evenodd" d="M227.93 181.69C227.63 183.49 227.33 191.39 232.93 195.59C237.43 198.89 242.93 198.29 242.93 198.29C242.93 198.29 243.73 188.39 243.73 187.39C243.53 186.49 228.13 180.39 227.93 181.69Z" fill="#424D51"/>
<path fill-rule="evenodd" clip-rule="evenodd" d="M226.13 175.49C226.13 175.49 225.83 191.49 235.33 192.99C244.83 194.49 247.03 186.69 247.23 186.19C247.43 185.59 249.23 171.99 247.53 167.69C245.83 163.39 240.43 157.29 233.23 158.89C226.03 160.49 225.13 165.39 224.93 169.59C224.83 171.89 226.13 175.49 226.13 175.49Z" fill="#FDDCC4"/>
<path fill-rule="evenodd" clip-rule="evenodd" d="M228.23 172.49C227.83 171.29 222.93 165.89 218.73 169.59C215.93 172.09 216.93 174.79 218.43 176.39C220.23 178.39 222.73 179.09 225.53 178.09C228.23 177.19 228.33 175.39 228.53 174.79C228.83 173.89 228.43 173.29 228.23 172.49Z" fill="#FDDCC4"/>
<path fill-rule="evenodd" clip-rule="evenodd" d="M244.93 172.59C245.33 171.39 250.23 165.99 254.43 169.69C257.23 172.19 256.23 174.89 254.73 176.49C252.93 178.49 250.43 179.19 247.63 178.19C244.93 177.29 244.83 175.49 244.63 174.89C244.33 173.99 244.73 173.39 244.93 172.59Z" fill="#FDDCC4"/>
<path fill-rule="evenodd" clip-rule="evenodd" d="M229.73 166.19C229.73 166.19 237.83 170.59 245.23 166.19C245.23 166.19 245.93 169.99 248.03 169.49C248.03 169.49 247.53 157.99 235.83 158.39C223.93 158.79 224.33 169.29 225.13 169.39C227.33 169.69 229.73 166.19 229.73 166.19Z" fill="#89716E"/>
<path fill-rule="evenodd" clip-rule="evenodd" d="M232.93 179.69C233.03 179.79 236.33 181.49 238.13 182.09C238.73 182.29 237.03 184.29 235.03 183.59C232.93 182.89 232.33 179.49 232.93 179.69Z" fill="white"/>
<path d="M237.13 176.19C237.13 176.19 238.73 176.99 238.43 178.19C238.13 179.39 236.93 179.19 236.13 178.99" stroke="#424D51" stroke-width="0.729" stroke-linecap="round" stroke-linejoin="round"/>
<path d="M239.63 174.39C239.63 174.39 240.63 172.79 242.33 172.59C244.03 172.49 244.83 173.39 245.33 174.49" stroke="#424D51" stroke-width="0.729" stroke-linecap="round" stroke-linejoin="round"/>
<path d="M241.83 172.99C242.33 172.59 243.03 172.79 243.43 173.29C243.83 173.79 243.73 174.49 243.13 174.89C242.63 175.29 241.93 175.19 241.53 174.59C241.23 174.09 241.33 173.39 241.83 172.99Z" stroke="#424D51" stroke-width="0.729" stroke-linecap="round" stroke-linejoin="round"/>
<path d="M228.53 174.39C228.53 174.39 229.53 172.79 231.23 172.59C232.93 172.49 233.73 173.39 234.23 174.49" stroke="#424D51" stroke-width="0.729" stroke-linecap="round" stroke-linejoin="round"/>
<path d="M230.83 172.99C231.33 172.59 232.03 172.79 232.43 173.29C232.83 173.79 232.73 174.49 232.13 174.89C231.63 175.29 230.93 175.19 230.53 174.59C230.13 174.09 230.23 173.39 230.83 172.99Z" stroke="#424D51" stroke-width="0.729" stroke-linecap="round" stroke-linejoin="round"/>
<path d="M248.93 173.39C249.43 173.29 250.53 173.29 251.13 173.69M251.13 171.49C251.13 171.49 249.83 171.89 248.93 173.39L251.13 171.49ZM248.23 174.89C248.43 174.29 248.63 173.79 248.93 173.39L248.23 174.89Z" stroke="#424D51" stroke-width="0.729" stroke-linecap="round" stroke-linejoin="round"/>
<path d="M224.63 173.19C224.13 173.09 223.03 173.09 222.43 173.49M222.33 171.39C222.33 171.39 223.63 171.79 224.53 173.29L222.33 171.39ZM225.33 174.69C225.13 174.09 224.93 173.59 224.63 173.19L225.33 174.69Z" stroke="#424D51" stroke-width="0.729" stroke-linecap="round" stroke-linejoin="round"/>
<path fill-rule="evenodd" clip-rule="evenodd" d="M225.13 147.59C223.63 149.79 223.43 153.59 226.63 155.79C229.93 158.09 234.33 158.09 236.83 152.99C238.33 149.89 236.43 146.09 232.73 144.89C230.23 144.09 227.33 144.39 225.13 147.59Z" fill="#89716E"/>
<path fill-rule="evenodd" clip-rule="evenodd" d="M186.331 242.791C185.831 245.991 182.931 260.991 198.131 261.391C209.131 261.691 223.931 261.791 223.931 261.791C223.931 261.791 222.931 261.891 222.431 262.291C221.631 262.991 221.031 265.491 223.431 266.091C223.431 266.091 235.531 269.191 237.731 258.791C238.531 255.091 237.431 252.791 237.431 252.791C237.431 252.791 238.231 251.991 238.631 250.891C239.431 248.291 237.931 246.791 237.931 246.791C237.931 246.791 239.431 246.391 239.531 244.691C239.631 242.691 238.231 241.191 238.231 241.191C238.231 241.191 239.631 236.691 234.131 235.491C229.331 234.391 220.731 234.591 219.131 234.491C210.831 234.091 187.631 235.191 186.331 242.791Z" fill="#FDDCC4"/>
<path d="M222.031 245.09C222.031 245.09 234.631 241.79 238.631 247.89" stroke="#424D51" stroke-linecap="round" stroke-linejoin="round"/>
<path d="M222.631 250.09C222.631 250.09 234.031 247.09 237.331 252.69" stroke="#424D51" stroke-linecap="round" stroke-linejoin="round"/>
<path d="M221.73 261.991C221.73 261.991 225.93 261.191 230.33 260.791" stroke="#424D51" stroke-linecap="round" stroke-linejoin="round"/>
<path fill-rule="evenodd" clip-rule="evenodd" d="M173.931 201.891C186.731 200.791 165.831 232.991 165.831 232.991C165.831 232.991 179.131 233.391 189.631 233.091C200.131 232.791 225.931 233.791 226.831 237.991C227.231 239.791 206.631 244.091 206.531 249.091C206.431 256.891 212.131 260.591 208.231 261.191C195.431 263.391 148.031 262.991 135.831 260.191C126.131 257.991 108.331 247.491 117.131 227.391C128.631 201.391 163.331 202.791 173.931 201.891Z" fill="#FDDCC4"/>
<path fill-rule="evenodd" clip-rule="evenodd" d="M164.43 201.389L166.23 233.089C166.23 233.089 200.83 234.889 206.63 231.189C213.13 227.089 213.23 222.489 213.33 214.489C213.43 206.489 207.13 201.589 202.13 200.889C193.23 199.589 168.13 201.089 164.43 201.389Z" fill="#E5CDF4"/>
<path d="M238.63 241.89C235.53 238.29 225.53 239.59 221.83 240.79" stroke="#424D51" stroke-linecap="round" stroke-linejoin="round"/>
<path d="M155.23 232.59C155.23 232.59 161.93 232.89 166.33 233.09" stroke="#424D51" stroke-linecap="round" stroke-linejoin="round"/>
<path d="M202.83 201.59C202.83 201.59 207.93 202.29 211.23 208.29" stroke="#424D51" stroke-linecap="round" stroke-linejoin="round"/>
<path fill-rule="evenodd" clip-rule="evenodd" d="M207.03 236.891L206.83 261.691L212.63 261.791L213.23 237.091L207.03 236.891Z" fill="#DCBEF0"/>
<path fill-rule="evenodd" clip-rule="evenodd" d="M210.53 227.689C215.33 227.689 219.33 230.789 219.33 234.689C219.33 238.489 215.43 241.589 210.53 241.589C205.73 241.589 201.73 238.489 201.73 234.689C201.73 230.789 205.63 227.689 210.53 227.689Z" fill="#9F78BA"/>
<path d="M210.23 234.303H215.48" stroke="white" stroke-linecap="round" stroke-linejoin="round"/>
<path d="M210.23 234.303L210.918 236.89" stroke="white" stroke-linecap="round" stroke-linejoin="round"/>
</svg>
