<svg width="424" height="424" viewBox="0 0 424 424" fill="none" xmlns="http://www.w3.org/2000/svg">
<path d="M127.838 378.614H60.6366C48.199 348.762 77.069 352.014 84.3052 359.08C77.937 350.734 77.9127 327.152 91.4528 321.808C115.476 312.325 124.992 354.233 127.838 378.614Z" fill="#F8F8F8"/>
<path d="M389.095 321.834C378.67 325.309 367.437 341.501 363.033 349.524H280.685C274.169 336.131 256.252 339.39 253.718 341.2C251.185 343.009 235.255 343.553 245.755 331.245C258.796 315.96 281.53 324.308 290.096 329.255C289.915 327.143 287.164 320.893 277.608 312.785C267.609 304.3 274.008 297.865 284.667 302.107C294.331 305.953 304.032 322.92 304.032 322.92C304.032 322.92 308.592 292.452 318.33 279.122C327.65 266.363 334.799 275.865 331.18 285.275C328.059 293.388 325.871 305.908 325.931 311.518C332.748 302.71 351.189 285.439 368.824 280.388C388.099 274.869 391.266 288.658 380.045 292.334C368.824 296.01 344.146 327.76 344.146 327.76C344.146 327.76 365.146 312.785 387.104 318.395C390.922 319.371 391.673 320.975 389.095 321.834Z" fill="#ECECEC"/>
<path d="M184.039 240.566C183.439 231.166 182.439 222.066 181.939 212.366L166.939 244.166H166.839C161.639 256.266 156.639 268.166 156.939 270.066C158.439 281.266 168.739 359.366 168.739 359.366L134.039 363.066C134.039 363.066 119.539 280.466 119.439 270.766C119.339 259.866 126.239 242.566 131.339 231.366C131.339 231.366 153.839 178.766 158.939 173.766C160.139 172.566 216.539 174.366 217.339 177.466C220.039 188.166 219.839 200.066 220.539 211.066C221.639 227.766 222.439 244.466 223.039 261.166C223.939 286.266 224.339 311.366 224.939 336.466C225.139 344.466 225.339 352.366 225.539 360.366L190.739 362.866C190.039 348.166 189.439 333.566 188.739 318.866C188.139 305.466 187.339 292.066 186.539 278.766C185.739 265.966 184.039 253.166 184.039 240.566Z" fill="#EA7A79"/>
<path fill-rule="evenodd" clip-rule="evenodd" d="M165.938 326.766L127.838 330.366L134.338 366.066L170.738 363.666L165.938 326.766Z" fill="#FFDBD5"/>
<path fill-rule="evenodd" clip-rule="evenodd" d="M188.838 328.964L225.838 327.064L225.738 363.364L190.138 364.064L188.838 328.964Z" fill="#FFDBD5"/>
<path fill-rule="evenodd" clip-rule="evenodd" d="M167.638 360.965C167.638 360.965 171.138 361.165 171.638 364.065C171.938 365.965 170.838 367.065 169.738 367.865C169.738 367.865 171.338 368.865 172.738 371.365C174.138 373.865 176.338 378.665 175.138 381.765C174.538 383.165 139.038 381.765 139.038 381.765L101.738 382.465C101.738 382.465 103.138 375.065 111.738 372.765C119.338 370.765 121.138 370.665 124.938 370.165C127.238 369.865 129.238 368.865 130.238 366.865C131.738 363.965 133.338 362.765 136.438 361.465C141.338 359.665 162.538 360.165 167.638 360.965Z" fill="#FFB6A9"/>
<path fill-rule="evenodd" clip-rule="evenodd" d="M175.138 381.866C176.238 380.766 168.638 369.766 160.538 369.066C153.038 368.366 147.738 374.966 142.838 376.166C139.638 376.966 134.638 376.966 130.338 376.966C128.438 376.966 104.438 377.166 104.438 377.166C104.438 377.166 98.838 381.366 101.338 383.566C102.838 384.966 174.138 382.966 175.138 381.866Z" fill="#D9A48A"/>
<path fill-rule="evenodd" clip-rule="evenodd" d="M192.239 361.865C192.239 361.865 188.639 362.165 188.339 365.065C188.139 366.965 189.239 367.965 190.339 368.765C190.339 368.765 188.739 369.765 187.439 372.365C186.139 374.965 183.939 379.665 185.239 382.765C185.839 384.165 221.339 382.065 221.339 382.065L258.639 381.965C258.639 381.965 257.039 374.565 248.439 372.465C240.739 370.565 239.039 370.565 235.239 370.165C232.839 369.965 230.839 368.965 229.839 367.065C228.339 364.165 226.639 362.965 223.539 361.865C218.539 359.965 197.339 360.965 192.239 361.865Z" fill="#FFB6A9"/>
<path fill-rule="evenodd" clip-rule="evenodd" d="M185.237 382.864C184.137 381.764 191.437 370.664 199.537 369.764C207.037 368.964 212.437 375.364 217.337 376.464C220.537 377.164 225.537 377.064 229.837 377.064C231.737 377.064 255.737 376.764 255.737 376.764C255.737 376.764 261.437 380.864 258.937 383.164C257.537 384.464 186.237 383.864 185.237 382.864Z" fill="#D9A48A"/>
<path fill-rule="evenodd" clip-rule="evenodd" d="M160.938 127.166C160.938 127.166 159.138 170.766 159.338 174.566C159.538 178.366 217.038 178.766 217.038 178.766C217.038 178.766 219.638 142.466 219.638 140.466C219.638 139.966 225.538 142.066 232.038 140.966C238.538 139.866 252.738 113.166 252.038 111.266C249.538 104.766 208.938 100.866 200.938 100.966C193.638 101.066 171.838 99.5656 167.238 101.766C162.538 103.866 160.938 127.166 160.938 127.166Z" fill="#FFDBD5"/>
<path d="M219.639 140.365L219.839 131.965" stroke="#424D51" stroke-linecap="round" stroke-linejoin="round"/>
<path d="M183.386 113.104C174.572 106.742 170.417 100.953 146.205 103.625C135.135 107.046 125.424 108.853 107.679 115.292C107.679 115.292 76.3251 123.792 76.5848 147.549C76.8639 163.84 130.252 212.28 136.507 215.969C136.507 215.969 136.606 215.982 136.592 216.081C139.093 218.445 141.932 220.552 145.236 222.218C146.838 223.045 152.259 223.994 153.539 219.829C153.539 219.829 157.236 220.843 159.224 219.603C160.761 218.705 160.713 217.588 160.713 217.588C160.713 217.588 163.005 217.802 164.61 216.408C166.441 214.844 165.843 214.055 165.843 214.055C165.843 214.055 169.04 214.293 169.494 211.731C169.934 209.268 167.41 207.81 159.597 203.705C155.924 201.786 149.939 195.409 149.939 195.409L150.307 189.807C150.307 189.807 146.146 189.234 141.665 189.525C141.565 189.511 141.466 189.498 141.282 189.371C134.917 183.548 113.143 150.366 113.443 148.186C113.443 148.186 137.664 141.631 151.02 137.011C170.558 132.939 188.388 120.759 183.386 113.104Z" fill="#EFBEA9"/>
<path d="M148.875 206.064C148.875 206.064 159.438 214.383 166 214.379" stroke="#424D51" stroke-linecap="round" stroke-linejoin="round"/>
<path d="M145.193 210.806C145.193 210.806 155.254 217.643 161.365 217.98" stroke="#424D51" stroke-linecap="round" stroke-linejoin="round"/>
<path d="M142.12 215.531C142.12 215.531 149.355 220.162 153.417 220.721" stroke="#424D51" stroke-linecap="round" stroke-linejoin="round"/>
<path d="M104.424 137.455C104.424 137.455 112.429 146.027 113.669 148.015" stroke="#424D51" stroke-linecap="round" stroke-linejoin="round"/>
<path d="M119.455 109.375L132.956 143.875C137.656 143.375 153.705 140.25 174.339 138.265C194.439 135.665 195.239 125.665 195.539 120.265C195.839 114.865 193.739 103.065 183.239 100.665C174.939 98.6654 150.33 100.665 119.455 109.375Z" fill="#FFDBD5"/>
<path d="M160.939 141.264C160.939 141.264 163.139 136.264 164.939 130.564" stroke="#424D51" stroke-linecap="round" stroke-linejoin="round"/>
<path d="M206.637 100.866C202.337 100.266 193.537 100.066 183.237 99.7656C167.037 99.1656 178.037 109.366 191.437 113.166C196.437 114.566 205.937 115.666 210.237 109.366C213.137 104.866 212.037 101.666 206.637 100.866Z" fill="#EFBEA9"/>
<path fill-rule="evenodd" clip-rule="evenodd" d="M204.83 57.2657C204.83 57.2657 212.562 51.3608 218.534 64.0334C222.307 72.0193 220.142 82.7292 218.467 85.91C216.639 89.3785 213.459 95.148 201.327 92.3394C200.075 92.0517 195.829 93.1515 195.829 93.1515C195.829 93.1515 177.031 95.5371 177.031 74.0496C177.031 66.8758 179.874 62.5106 182.682 58.873C185.66 55.0831 197.893 48.806 204.83 57.2657Z" fill="#AF836B"/>
<path fill-rule="evenodd" clip-rule="evenodd" d="M183.038 100.748C181.481 103.371 205.726 106.754 205.777 103.827C205.879 98.7177 206.082 95.7399 206.488 86.6035C206.708 81.7984 201.497 82.0353 198.739 81.7307C193.511 81.1386 191.396 86.5866 191.396 86.5866C191.396 86.5866 184.611 98.1425 183.038 100.748Z" fill="#EFBEA9"/>
<path fill-rule="evenodd" clip-rule="evenodd" d="M192.072 82.3737C191.751 84.0826 191.48 91.4086 196.725 95.2662C200.887 98.3455 205.895 97.9056 205.895 97.9056C205.895 97.9056 206.758 88.5831 206.707 87.7033C206.64 86.8404 192.309 81.1555 192.072 82.3737Z" fill="#424D51"/>
<path fill-rule="evenodd" clip-rule="evenodd" d="M190.448 76.621C190.448 76.621 190.178 91.4593 199.026 92.8636C207.875 94.2679 209.889 87.0433 210.075 86.5188C210.261 85.9943 211.936 73.3556 210.362 69.3626C208.789 65.3697 203.747 59.7017 197.098 61.2075C190.414 62.7303 189.585 67.2308 189.382 71.1561C189.264 73.3049 190.448 76.621 190.448 76.621Z" fill="#EFBEA9"/>
<path fill-rule="evenodd" clip-rule="evenodd" d="M192.36 73.8462C192.005 72.7464 187.47 67.6706 183.545 71.156C180.973 73.457 181.921 76.0288 183.241 77.45C184.916 79.2773 187.267 79.9371 189.805 79.0573C192.326 78.1944 192.428 76.5533 192.631 76.0119C192.935 75.149 192.614 74.5906 192.36 73.8462Z" fill="#EFBEA9"/>
<path fill-rule="evenodd" clip-rule="evenodd" d="M207.926 73.9479C208.281 72.8481 212.816 67.7723 216.741 71.2577C219.313 73.5587 218.365 76.1305 217.045 77.5517C215.37 79.379 213.019 80.0388 210.481 79.159C207.96 78.2792 207.841 76.655 207.655 76.1135C207.351 75.2507 207.672 74.6923 207.926 73.9479Z" fill="#EFBEA9"/>
<path fill-rule="evenodd" clip-rule="evenodd" d="M193.798 67.9754C193.798 67.9754 201.31 72.036 208.214 67.9416C208.264 67.9077 208.83 71.4248 210.759 71.0019C210.759 71.0019 211.716 59.6004 200.701 59.888C188.807 60.2094 188.866 70.8644 189.441 70.8644C191.556 70.8644 193.798 67.9754 193.798 67.9754Z" fill="#AF836B"/>
<path d="M197.299 81.2994C198.229 84.8948 201.825 83.795 201.825 83.795" stroke="#424D51" stroke-width="0.676772" stroke-linecap="round" stroke-linejoin="round"/>
<path d="M201.216 77.7676C201.216 77.7676 202.717 78.529 202.468 79.5986C202.219 80.6683 201.036 80.5122 200.291 80.3413" stroke="#424D51" stroke-width="0.676772" stroke-linecap="round" stroke-linejoin="round"/>
<path d="M203.56 76.1066C203.56 76.1066 204.518 74.5863 206.083 74.4511C207.648 74.3159 208.382 75.2091 208.89 76.2242" stroke="#424D51" stroke-width="0.676772" stroke-linecap="round" stroke-linejoin="round"/>
<path fill-rule="evenodd" clip-rule="evenodd" d="M205.614 74.7674C206.103 74.4335 206.771 74.5448 207.105 75.0122C207.439 75.5018 207.35 76.1695 206.86 76.5033C206.371 76.8372 205.703 76.7482 205.369 76.2585C205.035 75.7911 205.146 75.1235 205.614 74.7674Z" stroke="#424D51" stroke-width="0.676772" stroke-linecap="round" stroke-linejoin="round"/>
<path d="M193.259 76.107C193.259 76.107 194.217 74.5867 195.782 74.4515C197.347 74.3164 198.081 75.2095 198.588 76.2246" stroke="#424D51" stroke-width="0.676772" stroke-linecap="round" stroke-linejoin="round"/>
<path fill-rule="evenodd" clip-rule="evenodd" d="M195.313 74.7678C195.802 74.4339 196.47 74.5452 196.804 75.0126C197.138 75.5022 197.049 76.1699 196.559 76.5038C196.069 76.8376 195.402 76.7486 195.068 76.259C194.734 75.7916 194.845 75.1239 195.313 74.7678Z" stroke="#424D51" stroke-width="0.676772" stroke-linecap="round" stroke-linejoin="round"/>
<path d="M214.055 72.8818C214.055 72.8818 212.86 73.2802 211.97 74.6085M211.314 75.995C211.484 75.4478 211.714 74.9898 211.97 74.6085M211.97 74.6085C212.404 74.5501 213.429 74.5265 214.055 74.8987" stroke="#424D51" stroke-width="0.676772" stroke-linecap="round" stroke-linejoin="round"/>
<path d="M187.339 72.759C187.339 72.759 188.534 73.1574 189.424 74.4857M190.08 75.8722C189.91 75.325 189.679 74.867 189.424 74.4857M189.424 74.4857C188.99 74.4273 187.965 74.4037 187.339 74.7759" stroke="#424D51" stroke-width="0.676772" stroke-linecap="round" stroke-linejoin="round"/>
<path fill-rule="evenodd" clip-rule="evenodd" d="M277.239 361.664L312.039 360.364C312.239 332.664 312.539 304.964 312.639 277.364C312.639 262.864 313.539 248.164 312.239 233.764C311.539 225.764 309.539 217.064 301.439 213.664C296.139 211.464 289.839 211.764 284.239 212.464C273.839 213.864 273.739 227.664 274.139 237.664C274.539 246.164 275.839 264.164 275.939 271.564C276.239 282.864 277.239 361.664 277.239 361.664Z" fill="#E5CDF4"/>
<path fill-rule="evenodd" clip-rule="evenodd" d="M276.439 327.764L313.439 327.064L312.139 363.264L276.539 362.764L276.439 327.764Z" fill="#DCBEF0"/>
<path fill-rule="evenodd" clip-rule="evenodd" d="M279.339 361.765C279.339 361.765 275.839 362.065 275.439 364.865C275.239 366.765 276.339 367.865 277.339 368.565C277.339 368.565 275.739 369.565 274.439 372.165C273.139 374.765 270.939 379.565 272.239 382.565C272.839 383.965 308.339 381.865 308.339 381.865L345.639 381.765C345.639 381.765 344.039 374.365 335.439 372.365C327.739 370.465 326.039 370.465 322.239 370.065C319.839 369.865 317.839 368.865 316.839 366.965C315.339 364.065 313.639 362.865 310.539 361.765C305.639 359.865 284.439 360.865 279.339 361.765Z" fill="#C5B0F0"/>
<path fill-rule="evenodd" clip-rule="evenodd" d="M272.339 382.864C271.239 381.764 278.539 370.664 286.639 369.764C294.139 368.964 299.539 375.364 304.439 376.464C307.639 377.164 312.639 377.064 316.939 377.064C318.839 377.064 342.839 376.764 342.839 376.764C342.839 376.764 348.539 380.864 346.039 383.164C344.539 384.464 273.339 383.864 272.339 382.864Z" fill="#9F78BA"/>
<path fill-rule="evenodd" clip-rule="evenodd" d="M308.439 373.165C306.339 373.565 304.439 372.165 304.139 370.165C303.839 368.165 305.139 366.265 307.239 365.965C309.339 365.565 311.239 366.965 311.539 368.965C311.839 370.965 310.439 372.865 308.439 373.165Z" fill="#DCBEF0"/>
<path fill-rule="evenodd" clip-rule="evenodd" d="M250.839 362.165L285.639 360.765C285.839 341.965 285.939 323.065 286.139 304.265C286.339 286.065 286.439 267.965 286.339 249.765C286.239 240.465 287.239 229.165 282.539 220.665C277.639 211.865 266.739 211.665 257.839 212.865C247.339 214.265 247.339 228.065 247.739 238.065C248.139 246.565 249.439 264.565 249.539 271.965C249.839 283.365 250.839 362.165 250.839 362.165Z" fill="#E5CDF4"/>
<path fill-rule="evenodd" clip-rule="evenodd" d="M250.037 328.364L287.037 327.664L285.737 363.864L250.137 363.364L250.037 328.364Z" fill="#DCBEF0"/>
<path fill-rule="evenodd" clip-rule="evenodd" d="M252.938 362.264C252.938 362.264 249.438 362.564 249.038 365.464C248.838 367.364 249.938 368.364 250.938 369.164C250.938 369.164 249.338 370.164 248.038 372.764C246.738 375.364 244.538 380.064 245.838 383.164C246.438 384.564 281.938 382.464 281.938 382.464L319.238 382.364C319.238 382.364 317.638 374.964 309.038 372.964C301.338 371.064 299.638 371.064 295.838 370.664C293.438 370.464 291.438 369.464 290.438 367.564C288.938 364.664 287.238 363.464 284.138 362.364C279.238 360.464 258.038 361.464 252.938 362.264Z" fill="#C5B0F0"/>
<path fill-rule="evenodd" clip-rule="evenodd" d="M245.938 383.364C244.838 382.264 252.138 371.164 260.238 370.264C267.738 369.464 273.138 375.864 278.138 376.964C281.338 377.664 286.338 377.564 290.638 377.564C292.538 377.564 316.538 377.264 316.538 377.264C316.538 377.264 322.238 381.364 319.738 383.664C318.138 384.964 246.938 384.364 245.938 383.364Z" fill="#9F78BA"/>
<path fill-rule="evenodd" clip-rule="evenodd" d="M281.939 373.765C279.839 374.165 277.939 372.765 277.639 370.765C277.339 368.765 278.639 366.865 280.739 366.565C282.839 366.165 284.739 367.565 285.039 369.565C285.439 371.465 284.039 373.365 281.939 373.765Z" fill="#DCBEF0"/>
<path d="M319.638 383.465C322.238 381.565 318.138 376.165 309.238 373.165C299.238 369.765 292.438 371.965 291.238 368.965C289.438 364.365 285.838 362.365 285.838 362.365L287.638 241.465" stroke="#424D51" stroke-linecap="round" stroke-linejoin="round"/>
<path fill-rule="evenodd" clip-rule="evenodd" d="M296.838 96.8639C296.838 96.8639 303.338 87.2639 293.438 79.1639C287.338 74.1639 290.338 70.6639 289.538 67.0639C289.138 65.0639 287.038 68.2639 286.138 62.3639C284.338 50.1639 277.038 46.6639 267.538 50.6639C261.538 53.2639 260.838 58.5639 259.738 62.5639C258.438 67.1639 254.738 71.9639 249.938 73.2639C243.738 74.9639 229.238 82.1639 237.638 96.0639C239.338 98.7639 245.838 107.664 249.938 107.364C254.038 107.164 274.438 96.5639 274.438 96.5639L296.838 96.8639Z" fill="#89716E"/>
<path fill-rule="evenodd" clip-rule="evenodd" d="M290.038 96.9655C279.238 92.7655 264.138 94.6655 264.238 109.166C264.238 111.766 264.138 115.266 264.038 119.266C263.538 137.066 262.738 165.466 271.338 177.966C286.438 199.866 305.338 191.566 312.038 184.166C322.038 173.066 334.338 139.666 337.738 125.766C337.738 125.566 337.838 125.366 337.838 125.166C338.738 122.966 339.438 120.766 340.138 118.566C340.538 117.266 340.938 115.866 341.438 114.566C341.438 114.466 341.538 114.466 341.738 114.466C342.338 114.366 343.938 114.066 345.338 109.066C346.238 105.866 346.438 103.466 343.638 102.566C342.038 102.066 340.738 103.066 340.738 103.066C340.738 103.066 340.738 100.766 338.738 99.7655C337.338 99.1655 335.838 99.4655 335.838 99.4655C335.838 99.4655 334.938 98.2655 333.838 97.9655C332.738 97.6655 331.438 98.1655 331.438 98.1655C331.438 98.1655 330.538 96.6655 327.638 96.8655C323.538 97.2655 322.938 99.9655 322.938 99.9655C322.938 99.9655 321.438 97.3655 319.138 98.3655C316.838 99.3655 317.138 102.166 317.438 105.466C317.638 107.166 317.838 109.065 317.638 110.865C317.538 111.865 316.938 113.365 316.338 114.865C316.138 115.465 315.838 116.066 315.638 116.666C311.938 122.866 306.138 136.466 306.138 136.466C306.138 136.466 309.738 104.566 290.038 96.9655Z" fill="#FDDCC4"/>
<path d="M321.939 99.2656C324.039 100.966 323.339 105.566 324.139 108.066C324.839 110.466 327.939 111.866 326.439 117.766" stroke="#424D51" stroke-linecap="round" stroke-linejoin="round"/>
<path d="M330.739 97.8652C330.739 97.8652 339.339 107.165 338.039 110.965C336.939 114.165 331.539 112.865 328.139 105.465" stroke="#424D51" stroke-linecap="round" stroke-linejoin="round"/>
<path d="M340.639 103.365C340.639 103.365 338.239 109.865 338.339 112.265C338.439 114.365 341.839 116.265 343.439 113.065" stroke="#424D51" stroke-linecap="round" stroke-linejoin="round"/>
<path d="M327.037 109.666C327.037 109.666 328.937 108.766 329.437 108.266" stroke="#424D51" stroke-linecap="round" stroke-linejoin="round"/>
<path d="M336.037 99.5645C336.037 99.5645 337.437 101.664 336.637 105.564" stroke="#424D51" stroke-linecap="round" stroke-linejoin="round"/>
<path fill-rule="evenodd" clip-rule="evenodd" d="M252.938 182.165L304.538 178.465C304.538 178.465 316.038 112.465 298.038 99.6654C288.338 92.7654 275.938 93.5654 261.738 96.4654C255.438 97.7654 245.238 98.3654 245.238 107.065C245.438 114.665 252.938 182.165 252.938 182.165Z" fill="#E5CDF4"/>
<path d="M304.738 174.966C304.738 174.966 307.238 147.666 305.238 129.766" stroke="#424D51" stroke-linecap="round" stroke-linejoin="round"/>
<path fill-rule="evenodd" clip-rule="evenodd" d="M239.338 243.264C269.038 246.964 313.238 236.864 316.338 234.764C317.238 234.464 309.338 169.864 304.538 170.564C288.238 173.064 254.738 172.564 251.238 175.364C246.338 179.564 244.938 196.164 244.438 199.264C243.238 207.164 239.338 243.264 239.338 243.264Z" fill="#ECDDF6"/>
<mask id="mask0_12_6110" style="mask-type:alpha" maskUnits="userSpaceOnUse" x="239" y="170" width="78" height="75">
<path fill-rule="evenodd" clip-rule="evenodd" d="M239.338 243.264C269.038 246.964 313.238 236.864 316.338 234.764C317.238 234.464 309.338 169.864 304.538 170.564C288.238 173.064 254.738 172.564 251.238 175.364C246.338 179.564 244.938 196.164 244.438 199.264C243.238 207.164 239.338 243.264 239.338 243.264Z" fill="#ECDDF6"/>
</mask>
<g mask="url(#mask0_12_6110)">
<circle cx="270.578" cy="217.865" r="3" fill="white"/>
<circle cx="270.578" cy="243.865" r="3" fill="white"/>
<circle cx="270.578" cy="191.865" r="3" fill="white"/>
<circle cx="317.078" cy="217.865" r="3" fill="white"/>
<circle cx="317.078" cy="243.865" r="3" fill="white"/>
<circle cx="317.078" cy="191.865" r="3" fill="white"/>
<circle cx="264.578" cy="230.865" r="3" fill="white"/>
<circle cx="264.578" cy="178.865" r="3" fill="white"/>
<circle cx="264.578" cy="204.865" r="3" fill="white"/>
<circle cx="311.078" cy="230.865" r="3" fill="white"/>
<circle cx="311.078" cy="178.865" r="3" fill="white"/>
<circle cx="311.078" cy="204.865" r="3" fill="white"/>
<circle cx="286.078" cy="217.865" r="3" fill="white"/>
<circle cx="286.078" cy="243.865" r="3" fill="white"/>
<circle cx="286.078" cy="191.865" r="3" fill="white"/>
<circle cx="239.578" cy="217.865" r="3" fill="white"/>
<circle cx="239.578" cy="243.865" r="3" fill="white"/>
<circle cx="239.578" cy="191.865" r="3" fill="white"/>
<circle cx="280.078" cy="230.865" r="3" fill="white"/>
<circle cx="280.078" cy="178.865" r="3" fill="white"/>
<circle cx="280.078" cy="204.865" r="3" fill="white"/>
<circle cx="301.578" cy="217.865" r="3" fill="white"/>
<circle cx="301.578" cy="243.865" r="3" fill="white"/>
<circle cx="301.578" cy="191.865" r="3" fill="white"/>
<circle cx="255.078" cy="217.865" r="3" fill="white"/>
<circle cx="255.078" cy="243.865" r="3" fill="white"/>
<circle cx="255.078" cy="191.865" r="3" fill="white"/>
<circle cx="295.578" cy="230.865" r="3" fill="white"/>
<circle cx="295.578" cy="178.865" r="3" fill="white"/>
<circle cx="295.578" cy="204.865" r="3" fill="white"/>
<circle cx="249.078" cy="230.865" r="3" fill="white"/>
<circle cx="249.078" cy="178.865" r="3" fill="white"/>
<circle cx="249.078" cy="204.865" r="3" fill="white"/>
</g>
<path fill-rule="evenodd" clip-rule="evenodd" d="M287.089 123.157C287.089 123.157 284.789 120.957 285.789 116.757C286.489 113.657 292.489 96.8567 294.989 89.0567C295.889 86.2567 298.389 84.3567 301.189 84.0567L316.089 82.6567C318.589 82.4567 320.489 84.7567 319.789 87.0567L308.789 122.057L287.089 123.157Z" fill="#424D51"/>
<path d="M302.338 136.265C298.938 148.765 280.938 179.765 273.238 189.665C267.138 197.465 243.438 201.765 235.738 178.665C228.938 158.565 223.738 137.165 227.238 121.865C230.738 106.665 241.538 99.2655 253.238 99.3655C260.238 99.3655 258.738 112.465 257.638 121.865C257.138 125.865 256.838 129.165 257.138 130.665C259.238 139.565 260.038 157.665 260.038 157.665L280.938 123.265C279.438 118.165 279.538 111.365 279.538 107.665C279.538 107.565 279.538 107.465 279.538 107.465C279.638 104.065 280.038 102.865 282.138 102.565C284.238 102.265 285.338 104.365 285.638 105.365C286.438 108.665 287.438 112.165 287.438 112.165C287.438 112.165 296.938 94.6655 302.038 97.8655C303.338 98.6655 303.638 101.665 301.138 105.365C298.438 109.365 296.038 113.465 296.438 113.165C298.138 111.865 302.038 110.665 304.938 111.165C309.538 111.965 308.438 116.665 308.438 116.665C308.438 116.665 311.838 117.665 311.638 121.265C311.538 122.565 310.738 124.865 310.738 124.865C310.738 124.865 311.738 126.465 310.838 129.365C310.338 131.065 308.638 136.165 306.438 135.965C303.238 135.665 304.238 131.865 304.738 130.365C304.638 130.565 304.738 130.465 304.738 130.365C304.038 132.865 303.238 134.365 302.338 136.265Z" fill="#FDDCC4"/>
<path d="M226.538 148.666L259.738 142.466C259.738 131.966 262.638 107.266 262.638 99.9662C262.638 96.0662 251.738 95.3662 246.638 95.9662C242.438 96.4662 237.538 99.2661 234.538 101.766C223.838 110.766 224.038 135.266 226.538 148.666Z" fill="#E5CDF4"/>
<path d="M287.437 111.664C286.337 114.264 285.637 117.064 285.537 118.364" stroke="#424D51" stroke-linecap="round" stroke-linejoin="round"/>
<path d="M301.037 118.266C301.037 118.266 303.037 117.266 305.537 117.066C308.037 116.866 310.137 117.266 311.137 119.166" stroke="#424D51" stroke-linecap="round" stroke-linejoin="round"/>
<path d="M304.839 123.265C304.839 123.265 306.639 122.465 308.939 123.065C310.939 123.665 311.439 125.565 311.439 127.265C311.539 129.365 311.239 133.965 308.939 135.465C306.639 136.965 303.339 135.865 304.839 130.665" stroke="#424D51" stroke-linecap="round" stroke-linejoin="round"/>
<path d="M259.238 118.965C260.538 126.965 259.538 140.565 259.538 140.565" stroke="#424D51" stroke-linecap="round" stroke-linejoin="round"/>
<path d="M256.585 162.868L259.238 158.338L256.189 157.856" stroke="#424D51" stroke-linecap="round" stroke-linejoin="round"/>
<path fill-rule="evenodd" clip-rule="evenodd" d="M255.238 96.1661C253.538 98.9661 276.838 106.966 279.738 99.4661C279.838 93.9661 280.038 90.7661 280.538 80.8661C280.738 75.6661 275.138 75.9661 272.238 75.6661C266.638 75.0661 264.338 80.8661 264.338 80.8661C264.338 80.8661 256.938 93.3661 255.238 96.1661Z" fill="#FDDCC4"/>
<path fill-rule="evenodd" clip-rule="evenodd" d="M264.938 76.3659C264.538 78.1659 264.338 86.0659 269.938 90.2659C274.438 93.5659 279.938 93.0659 279.938 93.0659C279.938 93.0659 280.738 83.1659 280.738 82.1659C280.638 81.1659 265.138 75.0659 264.938 76.3659Z" fill="#424D51"/>
<path fill-rule="evenodd" clip-rule="evenodd" d="M263.138 70.1659C263.138 70.1659 262.838 86.1659 272.338 87.6659C281.838 89.1659 284.038 81.3659 284.238 80.8659C284.438 80.2659 286.238 66.6659 284.538 62.3659C282.838 58.0659 277.438 51.9659 270.238 53.5659C263.038 55.1659 262.138 60.0659 261.938 64.2659C261.938 66.5659 263.138 70.1659 263.138 70.1659Z" fill="#FDDCC4"/>
<path fill-rule="evenodd" clip-rule="evenodd" d="M265.238 67.1659C264.838 65.9659 259.938 60.5659 255.738 64.2659C252.938 66.7659 253.938 69.4659 255.438 71.0659C257.238 73.0659 259.738 73.7659 262.538 72.7659C265.238 71.8659 265.338 70.0659 265.638 69.4659C265.838 68.5659 265.438 67.9659 265.238 67.1659Z" fill="#FDDCC4"/>
<path fill-rule="evenodd" clip-rule="evenodd" d="M281.938 67.2661C282.338 66.0661 287.238 60.5661 291.438 64.3661C294.238 66.8661 293.238 69.5661 291.738 71.1661C289.938 73.1661 287.438 73.8661 284.638 72.8661C281.938 71.9661 281.838 70.1661 281.638 69.5661C281.338 68.6661 281.738 68.0661 281.938 67.2661Z" fill="#FDDCC4"/>
<path fill-rule="evenodd" clip-rule="evenodd" d="M266.738 60.8659C266.738 60.8659 274.838 65.2659 282.238 60.8659C282.338 60.8659 282.938 64.6659 285.038 64.1659C285.038 64.1659 284.638 52.6659 272.838 53.0659C260.938 53.4659 261.338 63.9659 262.138 64.0659C264.338 64.3659 266.738 60.8659 266.738 60.8659Z" fill="#89716E"/>
<path fill-rule="evenodd" clip-rule="evenodd" d="M269.938 74.3659C270.038 74.4659 273.338 76.1659 275.138 76.7659C275.738 76.9659 274.038 78.9659 272.038 78.2659C269.938 77.5659 269.338 74.1659 269.938 74.3659Z" fill="white"/>
<path d="M274.138 70.8662C274.138 70.8662 275.738 71.6662 275.438 72.8662C275.138 74.0662 273.938 73.8662 273.138 73.6662" stroke="#424D51" stroke-width="0.729" stroke-linecap="round" stroke-linejoin="round"/>
<path d="M276.738 69.0659C276.738 69.0659 277.738 67.4659 279.438 67.2659C281.138 67.0659 281.938 68.0659 282.438 69.1659" stroke="#424D51" stroke-width="0.729" stroke-linecap="round" stroke-linejoin="round"/>
<path d="M278.938 67.6659C279.438 67.2659 280.138 67.4659 280.538 67.9659C280.838 68.4659 280.838 69.1659 280.238 69.5659C279.738 69.9659 279.038 69.8659 278.638 69.2659C278.338 68.7659 278.438 68.0659 278.938 67.6659Z" stroke="#424D51" stroke-width="0.729" stroke-linecap="round" stroke-linejoin="round"/>
<path d="M265.638 69.0659C265.638 69.0659 266.638 67.4659 268.338 67.2659C270.038 67.0659 270.838 68.0659 271.338 69.1659" stroke="#424D51" stroke-width="0.729" stroke-linecap="round" stroke-linejoin="round"/>
<path d="M267.838 67.6659C268.338 67.2659 269.038 67.4659 269.438 67.9659C269.838 68.4659 269.738 69.1659 269.138 69.5659C268.638 69.9659 267.938 69.8659 267.538 69.2659C267.238 68.7659 267.338 68.0659 267.838 67.6659Z" stroke="#424D51" stroke-width="0.729" stroke-linecap="round" stroke-linejoin="round"/>
<path d="M285.938 67.966C286.438 67.866 287.538 67.866 288.138 68.266M288.138 66.166C288.138 66.166 286.838 66.566 285.938 68.066L288.138 66.166ZM285.238 69.466C285.438 68.866 285.638 68.366 285.938 67.966L285.238 69.466Z" stroke="#424D51" stroke-width="0.729" stroke-linecap="round" stroke-linejoin="round"/>
<path d="M261.638 67.8659C261.138 67.7659 260.038 67.7659 259.438 68.1659M259.438 66.0659C259.438 66.0659 260.738 66.4659 261.638 67.9659L259.438 66.0659ZM262.338 69.3659C262.138 68.7659 261.938 68.2659 261.638 67.8659L262.338 69.3659Z" stroke="#424D51" stroke-width="0.729" stroke-linecap="round" stroke-linejoin="round"/>
<path fill-rule="evenodd" clip-rule="evenodd" d="M262.138 42.266C260.638 44.466 260.438 48.266 263.638 50.466C266.938 52.766 271.338 52.866 273.838 47.666C275.338 44.566 273.438 40.766 269.738 39.566C267.238 38.766 264.338 39.066 262.138 42.266Z" fill="#89716E"/>
</svg>
