<svg width="424" height="424" viewBox="0 0 424 424" fill="none" xmlns="http://www.w3.org/2000/svg">
<path d="M383.815 312.545C373.391 316.02 362.158 332.212 357.754 340.235H275.405C268.89 326.842 250.973 330.101 248.439 331.911C245.905 333.72 229.975 334.264 240.476 321.956C253.517 306.671 276.25 315.019 284.817 319.966C284.636 317.854 281.885 311.604 272.329 303.496C262.329 295.011 268.728 288.576 279.387 292.818C289.052 296.664 298.753 313.631 298.753 313.631C298.753 313.631 303.313 283.163 313.051 269.833C322.371 257.074 329.52 266.576 325.9 275.986C322.78 284.099 320.591 296.619 320.652 302.229C327.469 293.421 345.91 276.15 363.545 271.099C382.82 265.58 385.987 279.369 374.766 283.045C363.545 286.721 338.867 318.471 338.867 318.471C338.867 318.471 359.867 303.496 381.825 309.106C385.643 310.082 386.394 311.686 383.815 312.545Z" fill="#ECECEC"/>
<path d="M111.632 196.3C111.632 196.3 111.532 196.3 111.632 196.3C109.632 195.8 107.632 195.4 105.432 195.1C99.1315 193.9 91.9315 192.6 84.1315 189.2C83.7315 189 79.6315 186 83.4315 182.3C83.4315 182.3 80.0315 181.2 80.6315 178.4C81.0315 176.2 82.6315 175.7 83.9315 175.7C83.6315 175.6 81.7315 174.9 82.4315 172.7C83.3315 169.9 85.3315 169.3 86.8315 169.7C86.7315 169.6 85.4315 168.9 86.0315 166.9C86.3315 166.1 87.6315 165 90.4315 165.2C95.3315 165.7 101.232 167.7 101.232 167.7C101.232 167.7 101.732 165.7 103.032 164C106.232 159.5 109.132 159.9 111.932 161.8C116.532 164.8 115.932 171.6 115.932 171.6C115.932 171.6 119.832 173.2 122.232 174.2C122.532 174.3 122.932 174.5 123.232 174.7C123.232 174.7 123.232 174.8 123.332 174.8C131.832 185 120.232 196.8 111.632 196.3Z" fill="#EFD9CE"/>
<path fill-rule="evenodd" clip-rule="evenodd" d="M114.93 197.601C114.83 198.101 111.73 197.301 110.83 195.501C109.93 193.601 115.53 172.501 117.43 172.101C119.33 171.701 121.83 172.601 121.83 172.601C121.83 172.601 114.93 197.201 114.93 197.601Z" fill="#EFD9CE"/>
<path fill-rule="evenodd" clip-rule="evenodd" d="M188.83 111.4C187.83 112.5 186.93 113.7 186.13 114.9C185.23 116.3 184.43 117.7 183.83 119.2C180.63 126.5 180.53 134.7 179.93 142.6C179.33 151.7 179.33 160.8 178.83 169.8C178.73 171.2 178.83 181.2 176.03 180.9C156.73 178.5 145.93 174.4 137.53 172.5C129.73 170.8 121.43 167.6 119.43 173.2C117.83 177.7 109.93 199.2 115.73 202C127.33 207.7 192.63 225.2 204.93 222.5C222.13 218.6 232.33 141.9 229.63 118.1C228.73 109.9 224.33 102.6 215.63 101.3C205.73 99.6996 195.43 104 188.83 111.4Z" fill="#DEC0F1"/>
<path d="M87.6478 124.852C97.3642 122.445 107.192 128.37 109.6 138.087C112.007 147.803 106.081 157.631 96.365 160.039C86.6486 162.446 76.8205 156.52 74.4133 146.804C72.0061 137.088 77.9314 127.26 87.6478 124.852ZM88.8286 129.618C81.7448 131.373 77.4253 138.539 79.1803 145.623C80.9354 152.707 88.1003 157.027 95.184 155.272C102.268 153.517 106.587 146.352 104.833 139.268C103.078 132.184 95.9124 127.863 88.8286 129.618Z" fill="#DEC0F1"/>
<rect x="93.3066" y="157.776" width="4.84889" height="42.642" rx="2.42444" transform="rotate(-13.9146 93.3066 157.776)" fill="#DEC0F1"/>
<path d="M99.068 186.875C99.068 190.977 94.6513 191 92.3805 190.5C92.2555 190.688 91.268 190.725 88.318 189.375C85.368 188.025 90.1305 173.021 92.8805 165.688C96.2805 166.138 99.4222 167.5 100.568 168.125C106.318 156.275 109.672 163.396 110.631 168.438C109.339 170.167 106.131 173.688 103.631 173.938C101.386 174.162 100.485 172.658 100.249 171.639L100.568 173.5C101.755 174.938 100.172 176.875 98.6305 178C101.131 180.5 99.068 183.625 97.7555 184.688C98.6305 185.5 99.068 185.875 99.068 186.875Z" fill="#EFD9CE"/>
<path d="M100.53 168C98.6301 172 102.83 174.7 105.33 173.5C107.83 172.3 110.43 168.5 110.43 168.5" stroke="#424D51" stroke-linecap="round" stroke-linejoin="round"/>
<path d="M99.1301 177.6C99.1301 177.6 102.73 175.1 99.3301 172.2C96.9301 170.1 89.2301 169.3 86.8301 169.6" stroke="#424D51" stroke-linecap="round" stroke-linejoin="round"/>
<path d="M98.2301 184.201C98.2301 184.201 102.53 179.801 97.4301 177.301C94.7301 176.001 85.3301 175.301 83.8301 175.601" stroke="#424D51" stroke-linecap="round" stroke-linejoin="round"/>
<path d="M88.4305 189.6C88.4305 189.6 92.6305 190.6 96.4305 190.4C98.1305 190.3 99.0305 188.9 99.1305 187.2C99.3305 181.8 84.7305 182 83.2305 182.7" stroke="#424D51" stroke-linecap="round" stroke-linejoin="round"/>
<path d="M183.006 182.117L177.975 180.619L178.233 183.696" stroke="#424D51" stroke-linecap="round" stroke-linejoin="round"/>
<path fill-rule="evenodd" clip-rule="evenodd" d="M222.531 345.7L187.831 349.2C187.831 349.2 173.731 266.5 173.731 256.8C173.631 242 186.631 215.4 190.431 208.3C205.131 180.2 210.731 169.2 226.731 176.3C236.331 180.6 237.331 190.9 232.331 205C229.431 213 210.931 252.7 211.331 256.4C212.631 267.5 222.531 345.7 222.531 345.7Z" fill="#EFD9CE"/>
<path fill-rule="evenodd" clip-rule="evenodd" d="M219.93 313.1L181.83 316.5L188.13 352.2L224.53 350L219.93 313.1Z" fill="#CBE4FC"/>
<path fill-rule="evenodd" clip-rule="evenodd" d="M221.43 347.299C221.43 347.299 224.93 347.499 225.33 350.399C225.63 352.299 224.53 353.299 223.43 354.099C223.43 354.099 225.03 355.099 226.43 357.599C227.83 360.099 230.03 364.899 228.73 367.999C228.13 369.399 192.63 367.899 192.63 367.899L155.33 368.399C155.33 368.399 156.83 360.999 165.43 358.799C173.13 356.799 174.83 356.699 178.63 356.299C181.03 355.999 182.93 354.999 183.93 353.099C185.43 350.199 187.03 348.999 190.13 347.799C195.13 345.799 216.33 346.499 221.43 347.299Z" fill="#93BEFA"/>
<path fill-rule="evenodd" clip-rule="evenodd" d="M228.831 368.3C229.931 367.2 222.431 356.2 214.331 355.4C206.831 354.7 201.531 361.2 196.631 362.4C193.431 363.2 188.431 363.2 184.131 363.2C182.231 363.2 158.231 363.3 158.231 363.3C158.231 363.3 152.531 367.5 155.131 369.7C156.531 370.9 227.831 369.3 228.831 368.3Z" fill="#EFD9CE"/>
<path fill-rule="evenodd" clip-rule="evenodd" d="M192.53 359.2C194.63 359.5 196.53 358.2 196.83 356.2C197.13 354.2 195.73 352.3 193.63 352C191.53 351.7 189.63 353 189.33 355C189.13 357 190.53 358.9 192.53 359.2Z" fill="#CBE4FC"/>
<path fill-rule="evenodd" clip-rule="evenodd" d="M244.531 349.3L279.331 347C279.331 347 277.931 267.8 277.731 259.6C277.531 250 277.131 247.7 276.931 238.5C276.431 212.3 275.931 195.4 247.431 199.9C237.031 201.5 237.331 215.4 238.031 225.4C238.631 233.9 240.431 251.8 240.831 259.2C241.431 270.5 244.531 349.3 244.531 349.3Z" fill="#EFD9CE"/>
<path fill-rule="evenodd" clip-rule="evenodd" d="M242.83 315.399L279.83 313.699L279.53 349.999L243.93 350.499L242.83 315.399Z" fill="#CBE4FC"/>
<path fill-rule="evenodd" clip-rule="evenodd" d="M246.03 348.3C246.03 348.3 242.53 348.5 242.13 351.4C241.93 353.3 243.03 354.4 244.03 355.1C244.03 355.1 242.43 356.1 241.13 358.7C239.83 361.2 237.63 366 238.93 369.1C239.53 370.5 275.03 368.6 275.03 368.6L312.33 368.7C312.33 368.7 310.73 361.3 302.13 359.2C294.43 357.3 292.73 357.2 288.93 356.8C286.53 356.6 284.53 355.6 283.53 353.6C282.03 350.7 280.43 349.5 277.23 348.3C272.33 346.6 251.13 347.5 246.03 348.3Z" fill="#93BEFA"/>
<path fill-rule="evenodd" clip-rule="evenodd" d="M238.931 369.301C237.831 368.201 245.231 357.101 253.331 356.201C260.831 355.401 266.231 361.901 271.131 363.001C274.331 363.701 279.331 363.701 283.631 363.701C285.531 363.701 309.531 363.601 309.531 363.601C309.531 363.601 315.231 367.701 312.731 370.001C311.131 371.301 239.931 370.401 238.931 369.301Z" fill="#EFD9CE"/>
<path fill-rule="evenodd" clip-rule="evenodd" d="M275.03 359.899C272.93 360.199 271.03 358.899 270.73 356.899C270.43 354.899 271.83 352.999 273.83 352.699C275.83 352.399 277.83 353.699 278.13 355.699C278.53 357.699 277.13 359.599 275.03 359.899Z" fill="#CBE4FC"/>
<path fill-rule="evenodd" clip-rule="evenodd" d="M237.231 230.6L277.531 228.2C277.531 228.2 274.331 173.3 272.031 164.1C271.231 161 214.831 158.9 213.631 160.1C208.531 165.1 185.131 215.8 185.131 215.8L222.131 230.1L236.631 198.9L237.231 230.6Z" fill="#FFB6A9"/>
<mask id="mask0_12_2777" style="mask-type:alpha" maskUnits="userSpaceOnUse" x="185" y="159" width="93" height="72">
<path fill-rule="evenodd" clip-rule="evenodd" d="M237.231 230.6L277.531 228.2C277.531 228.2 274.331 173.3 272.031 164.1C271.231 161 214.831 158.9 213.631 160.1C208.531 165.1 185.131 215.8 185.131 215.8L222.131 230.1L236.631 198.9L237.231 230.6Z" fill="#FFB6A9"/>
</mask>
<g mask="url(#mask0_12_2777)">
<path fill-rule="evenodd" clip-rule="evenodd" d="M405.351 145.152C399.952 147.765 393.066 147.286 384.684 143.098C382.84 142.176 381.423 140.439 380.256 138.419C379.079 136.382 378.069 133.9 377.113 131.298C376.647 130.031 376.194 128.737 375.739 127.439C374.293 123.311 372.835 119.147 370.928 115.714C368.436 111.228 365.441 108.475 361.166 108.591C356.686 108.712 350.316 111.953 341.103 121.046C331.965 130.065 327.182 138.085 325.28 145.138C323.386 152.162 324.322 158.326 326.813 163.723C327.357 164.901 327.975 166.044 328.655 167.15C333.998 162.657 341.814 158.921 353.066 155.906C356.518 154.981 359.432 154.928 361.825 155.647C364.245 156.374 366.031 157.861 367.239 159.81C369.603 163.628 369.707 169.12 368.554 174.247C367.394 179.409 364.883 184.557 361.581 187.805C359.923 189.436 358 190.65 355.885 191.069C353.733 191.496 351.509 191.073 349.359 189.647C343.312 185.636 334.28 179.528 328.189 171.161C328.092 171.261 327.996 171.362 327.902 171.463C323.121 176.552 321.309 182.503 320.845 189.44C320.55 193.841 321.328 197.36 322.673 200.125C324.149 198.921 325.571 197.97 326.933 197.242C331.672 194.709 335.77 194.85 338.689 196.603C341.553 198.323 343.065 201.485 342.814 204.496C342.556 207.601 340.438 210.41 336.41 211.33C334.971 211.658 333.047 211.457 331.069 210.808C329.058 210.148 326.867 208.985 324.868 207.241C323.866 206.368 322.917 205.351 322.064 204.185C319.317 206.851 316.321 210.515 313.138 215.44C307.203 224.625 300.484 229.354 293.833 230.893C287.189 232.431 280.819 230.738 275.674 227.482C271.944 225.121 268.813 221.912 266.642 218.432C265.801 218.113 264.956 217.785 264.109 217.456C260.443 216.033 256.746 214.598 253.206 213.779C248.048 212.587 243.889 212.876 241.117 216.011C238.224 219.283 236.443 226.037 237.342 238.955C238.234 251.763 241.204 260.617 245.318 266.654C249.414 272.665 254.7 275.969 260.418 277.595C261.636 277.941 262.873 278.211 264.123 278.415C264.279 271.479 266.462 263.258 271.586 252.583C273.132 249.361 274.99 247.115 277.094 245.767C279.222 244.405 281.514 244.018 283.779 244.372C288.217 245.064 292.452 248.562 295.591 252.776C298.752 257.019 301.023 262.277 301.337 266.899C301.494 269.219 301.163 271.468 300.104 273.346C299.026 275.257 297.256 276.67 294.773 277.372C287.759 279.357 277.174 282.251 266.812 281.383L266.815 281.432C266.817 281.457 266.819 281.483 266.82 281.508C267.33 288.479 270.141 293.996 273.883 300.016C276.311 303.922 280.434 305.621 284.845 305.916C284.698 303.857 284.734 302.093 284.925 300.59C285.216 298.299 285.877 296.525 286.886 295.244C287.913 293.938 289.238 293.226 290.667 292.979C293.417 292.504 296.418 293.759 298.625 295.25C299.758 296.016 300.764 296.897 301.514 297.771C302.215 298.587 302.868 299.599 302.941 300.616C303.019 301.719 302.436 302.683 301.759 303.416C301.056 304.175 300.08 304.879 298.957 305.501C296.702 306.749 293.638 307.788 290.346 308.28C289.505 308.405 288.639 308.496 287.759 308.544C288.235 312.028 289.182 316.345 290.754 321.656C293.858 332.142 293.07 340.32 289.906 346.37C286.745 352.413 281.311 356.144 275.49 357.927C269.685 359.705 263.401 359.578 258.388 357.813C253.393 356.054 249.402 352.546 248.833 347.429C247.808 338.197 250.89 329.716 254.564 323.036C257.383 317.91 260.639 313.709 262.691 311.061L262.692 311.059L262.693 311.058C263.301 310.274 263.803 309.626 264.157 309.13C264.862 308.144 265.674 306.412 266.071 304.447C266.468 302.482 266.419 300.44 265.6 298.735C264.807 297.084 263.205 295.561 260.094 294.741C256.935 293.909 252.254 293.817 245.463 295.11C240.166 296.119 235.828 297.713 232.362 299.6C232.763 300.569 233.116 301.511 233.423 302.424C235.147 307.553 235.461 311.938 234.354 315.176C233.793 316.817 232.863 318.172 231.569 319.138C230.276 320.102 228.694 320.622 226.919 320.716C223.416 320.9 220.728 319.545 219.422 317.027C218.159 314.589 218.379 311.413 219.838 308.274C221.397 304.921 224.423 301.447 229.021 298.524C225.94 291.941 220.621 284.05 212.569 275.329C211.744 276.66 210.823 277.922 209.799 279.11C211.688 280.907 213.143 283.121 214.195 285.667C216.615 291.525 216.878 299.062 215.645 307.2C214.409 315.362 211.65 324.259 207.887 332.929C200.382 350.222 188.766 366.869 176.935 375.019C171.014 379.097 164.846 381.176 159.034 379.859C153.184 378.534 148.101 373.865 144.162 365.363C143.295 363.492 143.271 361.25 143.619 358.944C143.969 356.618 144.728 354.047 145.603 351.417C146.029 350.137 146.482 348.843 146.936 347.545L146.936 347.544C148.381 343.416 149.838 339.251 150.488 335.379C151.339 330.318 150.715 326.298 147.302 323.722C143.724 321.023 136.724 319.582 123.85 320.944C111.083 322.293 102.341 325.579 96.4557 329.906C90.5947 334.215 87.4819 339.616 86.0626 345.388C85.7526 346.649 85.5231 347.927 85.364 349.216C92.3433 349.037 100.783 350.992 111.459 355.653C114.733 357.083 117.044 358.859 118.467 360.914C119.905 362.992 120.373 365.268 120.101 367.545C119.568 372.004 116.224 376.362 112.125 379.65C107.998 382.961 102.825 385.419 98.2176 385.898C95.9048 386.138 93.6444 385.888 91.7299 384.897C89.7816 383.888 88.3067 382.169 87.5157 379.714C85.2911 372.808 82.0405 362.4 82.4988 352.061C82.3603 352.079 82.2226 352.097 82.0856 352.117C75.1749 353.113 70.0471 356.635 65.3569 361.767C62.3809 365.024 60.7946 368.259 60.1212 371.26C62.0256 371.239 63.7307 371.383 65.2497 371.663C70.5339 372.639 73.6486 375.305 74.8368 378.496C76.0025 381.627 75.2119 385.042 73.1381 387.239C70.9993 389.505 67.5918 390.38 63.8698 388.586C62.5403 387.945 61.1619 386.588 60.0209 384.847C58.8608 383.077 57.8731 380.801 57.3983 378.191C57.1603 376.883 57.0522 375.497 57.1133 374.053C53.303 374.424 48.6763 375.419 43.116 377.284C32.7478 380.761 24.5468 380.266 18.3878 377.321C12.2355 374.379 8.3119 369.082 6.32152 363.328C4.33678 357.591 4.2389 351.306 5.82313 346.234C7.40184 341.179 10.7643 337.064 15.8582 336.313C25.0475 334.957 33.633 337.733 40.4404 341.166C45.6644 343.8 49.9793 346.903 52.6993 348.859C53.5063 349.439 54.1728 349.919 54.6811 350.255C55.6919 350.924 57.4521 351.673 59.4302 352C61.408 352.326 63.4465 352.204 65.1216 351.325C66.7434 350.473 68.2075 348.817 68.9152 345.679C69.6337 342.493 69.5587 337.811 68.0227 331.07C66.8246 325.813 65.0761 321.535 63.0665 318.139C62.1125 318.574 61.184 318.961 60.2825 319.301C55.2178 321.207 50.8477 321.677 47.5714 320.687C45.9121 320.186 44.5244 319.305 43.513 318.046C42.5025 316.788 41.9261 315.226 41.7691 313.455C41.4594 309.962 42.7172 307.227 45.1875 305.832C47.5778 304.482 50.7597 304.588 53.9488 305.934C57.3556 307.371 60.9362 310.271 64.0217 314.761C70.4901 311.447 78.186 305.848 86.6127 297.489C79.2266 293.271 73.7406 286.112 71.2691 275.157C68.1191 261.194 69.8832 252.252 74.4701 247.561C79.0199 242.909 85.8377 242.917 91.8291 245.658C92.2186 244.371 92.8523 243.147 93.7654 242.027C99.6341 234.827 107.845 231.085 115.185 229.026C120.818 227.446 126.097 226.826 129.425 226.435C130.411 226.319 131.227 226.224 131.829 226.129C133.026 225.941 134.831 225.307 136.512 224.213C138.192 223.119 139.614 221.654 140.258 219.875C140.88 218.153 140.844 215.943 139.249 213.148C137.63 210.312 134.417 206.906 128.736 202.967C124.304 199.894 120.128 197.916 116.354 196.765C115.943 197.73 115.518 198.642 115.082 199.5C112.629 204.324 109.721 207.619 106.634 209.099C105.071 209.848 103.453 210.134 101.857 209.887C100.262 209.64 98.7832 208.876 97.4726 207.675C94.8872 205.305 93.9705 202.437 94.8531 199.741C95.7071 197.132 98.1275 195.064 101.389 193.906C104.874 192.669 109.473 192.394 114.78 193.627C117.319 186.817 119.223 177.492 119.804 165.637C111.507 167.506 102.627 165.922 93.4126 159.502C81.6679 151.32 76.9376 143.529 77.1595 136.973C77.3844 130.327 82.6408 125.676 89.1032 123.728C95.5967 121.772 103.671 122.389 110.275 126.536C116.937 130.719 121.961 138.402 122.452 150.269C122.624 154.434 122.655 158.383 122.56 162.115C129.49 159.677 135.982 154.657 141.888 148.112C155.062 133.514 164.955 111.744 170.019 96.1042L170.043 96.0294L170.076 95.958C175.71 83.7663 181.672 76.1119 187.766 72.1838C193.951 68.1973 200.182 68.1106 206.008 70.8428C211.747 73.5343 217.024 78.9209 221.605 85.7595C226.198 92.6187 230.164 101.048 233.235 109.986C237.769 123.182 240.402 137.635 240.152 149.932C242.18 150.758 244.212 151.66 246.235 152.629C262.257 160.298 277.937 172.268 286.404 184.688C287.33 186.047 288.174 187.418 288.925 188.794C294.495 187.666 299.633 187.409 302.9 187.245C303.892 187.195 304.713 187.154 305.32 187.1C306.527 186.992 308.37 186.48 310.12 185.502C311.869 184.523 313.386 183.156 314.147 181.424C314.884 179.747 314.995 177.539 313.591 174.645C312.165 171.706 309.187 168.094 303.782 163.783C299.566 160.421 295.531 158.168 291.842 156.767C291.368 157.702 290.884 158.584 290.391 159.411C287.621 164.06 284.498 167.154 281.32 168.423C279.71 169.066 278.076 169.243 276.5 168.89C274.926 168.537 273.501 167.676 272.274 166.39C269.853 163.852 269.13 160.929 270.191 158.299C271.217 155.753 273.771 153.851 277.103 152.914C280.662 151.912 285.27 151.945 290.482 153.531C293.471 146.906 295.994 137.729 297.367 125.939C288.963 127.249 280.209 125.075 271.445 118.054C260.273 109.105 256.075 101.015 256.734 94.4874C257.403 87.8714 262.959 83.5822 269.537 82.0715C276.147 80.5535 284.162 81.7098 290.474 86.2887C296.841 90.9075 301.34 98.9094 301.036 110.783C300.93 114.95 300.696 118.892 300.352 122.61C307.43 120.641 314.242 116.066 320.574 109.93C334.693 96.246 346.021 75.1863 352.119 59.9204L352.148 59.8474L352.186 59.7783C358.623 47.9907 365.083 40.7522 371.426 37.2403C377.863 33.6764 384.087 34.0066 389.717 37.1223C395.263 40.1915 400.168 45.919 404.281 53.0486C408.406 60.1996 411.799 68.8751 414.265 77.9981C419.185 96.1967 420.489 116.454 416.324 130.204C414.24 137.084 410.715 142.556 405.351 145.152ZM91.3627 248.343C91.2704 248.297 91.1779 248.251 91.0853 248.207C85.5644 245.555 79.9085 245.753 76.3461 249.396C72.7213 253.102 70.7356 260.869 73.8288 274.579C76.225 285.201 81.5389 291.784 88.5298 295.552C91.2629 292.74 94.0671 289.642 96.9261 286.242C102.349 279.792 104.344 273.528 104.189 267.974C99.2053 265.067 95.1945 260.702 93.0502 256.12C91.8616 253.58 91.2201 250.897 91.3627 248.343ZM103.832 264.641C100.069 262.046 97.0899 258.562 95.4268 255.008C94.6045 253.251 94.1196 251.522 93.9972 249.892C98.2782 252.816 101.905 257.388 103.427 262.896C103.585 263.467 103.72 264.048 103.832 264.641ZM106.721 266.371C106.588 264.938 106.329 263.544 105.956 262.197C104.107 255.507 99.511 250.095 94.2119 246.915C94.4929 245.733 95.0177 244.644 95.7992 243.685C101.19 237.072 108.817 233.537 115.894 231.553C121.295 230.038 126.22 229.458 129.566 229.064C130.627 228.939 131.529 228.832 132.237 228.721C133.827 228.471 135.978 227.691 137.943 226.412C139.909 225.133 141.822 223.265 142.725 220.768C143.649 218.213 143.443 215.203 141.528 211.848C139.637 208.535 136.074 204.862 130.231 200.811C125.692 197.663 121.336 195.569 117.322 194.319C119.998 187.047 121.93 177.235 122.464 164.914C130.339 162.411 137.51 156.881 143.836 149.87C157.337 134.908 167.364 112.793 172.491 96.9877C178.026 85.0298 183.712 77.9187 189.188 74.3892C194.584 70.911 199.854 70.8551 204.894 73.2185C210.02 75.6226 214.971 80.5699 219.424 87.2196C223.864 93.8488 227.738 102.062 230.753 110.838C235.112 123.526 237.63 137.246 237.542 148.908C232.414 146.978 227.352 145.554 222.579 144.771C215.14 143.552 208.262 143.867 202.931 146.411C200.277 147.677 198.046 149.477 196.339 151.845C195.822 150.886 195.283 149.962 194.72 149.091C191.753 144.503 187.795 140.907 182.054 141.449C176.518 141.97 169.791 146.338 161.151 156.09C152.44 165.922 147.91 174.653 146.365 182.414C144.815 190.205 146.294 196.915 149.408 202.623C150.161 204.004 151.009 205.325 151.933 206.59C151.712 206.842 151.496 207.096 151.287 207.352C146.351 213.366 144.852 220.088 144.852 227.425C144.852 232.633 146.146 236.737 148.107 239.886C145.255 242.968 142.273 247.13 139.231 252.609C134.163 261.74 128.256 266.347 122.535 268.081C117.01 269.756 111.47 268.809 106.721 266.371ZM106.81 269.324C106.627 275.177 104.302 281.546 98.9345 287.931C96.2519 291.121 93.6103 294.057 91.0225 296.748C97.7829 299.624 105.961 300.297 114.737 299.45C130.523 297.926 147.881 291.519 161.503 284.832C157.704 280.064 158.196 273.509 161.156 267.874C164.309 261.87 170.407 256.541 177.993 254.734C185.644 252.911 194.647 254.709 203.458 262.673C206.551 265.468 209.39 268.213 211.987 270.895C215.103 264.243 216.069 256.093 215.536 247.293C214.35 227.666 205.747 205.354 198.136 190.783L198.099 190.714L198.071 190.64C193.322 178.085 191.795 168.388 192.82 161.139C193.174 158.635 193.834 156.426 194.764 154.498C194.058 153.092 193.315 151.75 192.517 150.516C189.73 146.206 186.558 143.66 182.301 144.061C177.839 144.481 171.7 148.141 163.115 157.83C154.601 167.439 150.365 175.762 148.939 182.926C147.519 190.061 148.865 196.148 151.711 201.366C152.333 202.506 153.026 203.605 153.778 204.663C158.809 199.823 166.357 195.572 177.383 191.811C180.765 190.658 183.669 190.41 186.105 190.967C188.568 191.531 190.449 192.895 191.785 194.759C194.399 198.411 194.87 203.883 194.063 209.076C193.25 214.304 191.09 219.608 188.012 223.07C186.467 224.808 184.629 226.148 182.547 226.708C180.428 227.277 178.18 227.004 175.94 225.725C169.639 222.127 160.218 216.637 153.582 208.696C153.492 208.803 153.403 208.909 153.315 209.016C148.885 214.414 147.476 220.472 147.476 227.425C147.476 231.837 148.488 235.295 150.015 237.964C151.407 236.664 152.762 235.62 154.073 234.802C158.632 231.958 162.729 231.825 165.759 233.379C168.732 234.903 170.452 237.958 170.403 240.979C170.353 244.094 168.428 247.038 164.47 248.225C163.057 248.649 161.124 248.577 159.107 248.062C157.056 247.538 154.792 246.524 152.681 244.918C151.623 244.113 150.607 243.162 149.679 242.056C147.116 244.899 144.372 248.755 141.526 253.883C136.218 263.444 129.83 268.611 123.297 270.592C117.51 272.346 111.768 271.552 106.81 269.324ZM163.449 286.798C149.529 293.714 131.493 300.469 114.989 302.062C105.59 302.969 96.5656 302.214 89.0636 298.75C80.3575 307.485 72.312 313.424 65.4312 316.987C67.5513 320.618 69.3538 325.102 70.581 330.487C72.1608 337.42 72.3139 342.535 71.4749 346.256C70.6251 350.024 68.746 352.386 66.341 353.648C63.9893 354.882 61.3174 354.97 59.0033 354.589C56.6893 354.207 54.5759 353.332 53.2335 352.444C52.6356 352.048 51.8984 351.518 51.0315 350.895C48.2954 348.929 44.2676 346.034 39.259 343.509C32.6967 340.2 24.6816 337.663 16.2412 338.909C12.5203 339.458 9.73917 342.497 8.32776 347.016C6.92187 351.517 6.98724 357.226 8.80127 362.471C10.6096 367.698 14.1202 372.371 19.5198 374.954C24.9125 377.533 32.3809 378.117 42.2816 374.796C48.2227 372.803 53.232 371.742 57.4162 371.391C58.0934 367.744 59.9066 363.841 63.42 359.997C68.3694 354.581 74.011 350.63 81.7113 349.52C82.0384 349.473 82.3688 349.431 82.7027 349.394C82.8738 347.837 83.139 346.289 83.5145 344.762C85.0671 338.448 88.5012 332.497 94.9015 327.792C101.277 323.105 110.511 319.715 123.574 318.334C136.531 316.964 144.443 318.278 148.882 321.628C153.485 325.101 153.981 330.425 153.076 335.813C152.385 339.929 150.819 344.4 149.359 348.571L149.358 348.574C148.918 349.831 148.487 351.061 148.093 352.246C147.226 354.85 146.529 357.243 146.213 359.335C145.895 361.446 145.994 363.077 146.542 364.26C150.29 372.35 154.853 376.221 159.614 377.3C164.412 378.387 169.82 376.734 175.446 372.858C186.709 365.1 198.072 348.953 205.48 331.884C209.175 323.372 211.856 314.695 213.051 306.807C214.249 298.894 213.932 291.902 211.77 286.669C210.859 284.465 209.617 282.56 207.997 281.018C203.579 285.293 197.579 288.38 189.701 289.863C176.797 292.292 168.264 290.739 163.449 286.798ZM205.916 279.377C201.909 283.151 196.464 285.92 189.216 287.284C177.511 289.487 170.203 288.199 166.07 285.469C168.094 284.422 170.016 283.379 171.816 282.356C183.969 277.263 192.963 275.849 199.386 276.938C201.941 277.371 204.104 278.201 205.916 279.377ZM207.761 277.454C205.573 275.942 202.938 274.878 199.824 274.351C192.676 273.139 183.111 274.768 170.728 279.967L170.655 279.997L170.587 280.036C168.515 281.215 166.282 282.42 163.917 283.625C160.628 279.932 160.692 274.399 163.479 269.094C166.311 263.7 171.816 258.902 178.601 257.286C185.319 255.686 193.454 257.168 201.699 264.619C204.995 267.598 207.99 270.512 210.702 273.344C209.849 274.798 208.873 276.172 207.761 277.454ZM277.077 225.265C274.767 223.803 272.719 221.988 271.03 219.997C272.948 220.615 274.804 221.094 276.513 221.291C278.76 221.549 280.948 221.342 282.704 220.115C289.377 215.452 292.552 209.742 292.855 203.509C293.05 199.491 292.046 195.347 290.149 191.227C295.201 190.263 299.725 190.035 302.865 189.877L302.868 189.877C303.933 189.823 304.84 189.777 305.553 189.714C307.156 189.57 309.354 188.937 311.401 187.792C313.448 186.646 315.481 184.911 316.55 182.48C317.642 179.993 317.638 176.975 315.952 173.5C314.287 170.068 310.977 166.165 305.418 161.732C301.099 158.288 296.894 155.907 292.972 154.391C296.128 147.315 298.712 137.654 300.069 125.396C308.094 123.425 315.618 118.387 322.4 111.815C336.871 97.7897 348.354 76.3945 354.526 60.9672C360.849 49.4063 366.998 42.6913 372.697 39.5359C378.314 36.4263 383.576 36.723 388.446 39.4181C393.4 42.1597 398.009 47.427 402.008 54.3596C405.995 61.2708 409.31 69.725 411.732 78.6828C416.588 96.6458 417.777 116.354 413.813 129.443C411.832 135.982 408.637 140.647 404.208 142.79C399.814 144.917 393.833 144.736 385.857 140.751C384.691 140.168 383.596 138.955 382.528 137.106C381.47 135.274 380.522 132.969 379.576 130.393C379.144 129.22 378.714 127.99 378.274 126.732L378.273 126.73L378.272 126.728C376.813 122.558 375.248 118.088 373.221 114.44C370.568 109.664 366.859 105.812 361.095 105.968C355.536 106.119 348.532 110.027 339.26 119.179C329.91 128.406 324.807 136.815 322.747 144.455C320.678 152.125 321.706 158.919 324.431 164.822C325.09 166.25 325.848 167.626 326.685 168.95C326.447 169.186 326.215 169.425 325.989 169.666C320.662 175.337 318.717 181.944 318.227 189.264C317.878 194.461 318.895 198.642 320.641 201.915C317.589 204.799 314.335 208.753 310.934 214.016C305.267 222.787 299.065 226.989 293.241 228.337C287.41 229.686 281.751 228.223 277.077 225.265ZM290.234 203.382C290.412 199.712 289.443 195.802 287.515 191.791C280.759 193.398 273.603 196.413 268.196 202.207C265.63 204.957 265.352 209.067 267.067 213.48C267.434 214.423 267.888 215.367 268.422 216.298C268.976 216.506 269.52 216.705 270.053 216.894C272.584 217.793 274.864 218.46 276.812 218.684C278.769 218.909 280.198 218.664 281.201 217.964C287.319 213.689 289.977 208.678 290.234 203.382ZM266.278 200.417C271.982 194.304 279.392 191.113 286.257 189.397C285.647 188.324 284.972 187.246 284.236 186.166C276.108 174.243 260.854 162.536 245.102 154.995C243.416 154.188 241.727 153.43 240.043 152.725C239.851 156.001 239.437 159.095 238.78 161.937C237.161 168.941 234.01 174.637 228.831 177.585C223.619 180.553 216.717 180.536 208.074 176.918C206.172 176.121 204.642 174.483 203.342 172.545C202.032 170.591 200.858 168.183 199.73 165.651C199.181 164.418 198.642 163.157 198.101 161.892C197.504 160.494 196.905 159.092 196.288 157.719C195.905 158.875 195.612 160.135 195.418 161.507C194.484 168.114 195.84 177.304 200.498 189.638C208.184 204.37 216.939 227.019 218.156 247.134C218.726 256.561 217.648 265.552 213.917 272.925C222.334 281.938 227.982 290.191 231.295 297.195C235 295.207 239.546 293.566 244.972 292.532C251.957 291.202 257.074 291.232 260.762 292.204C264.498 293.188 266.79 295.151 267.966 297.599C269.115 299.994 269.107 302.667 268.643 304.966C268.179 307.265 267.228 309.346 266.293 310.655C265.876 311.238 265.321 311.956 264.667 312.799L264.666 312.801C262.603 315.465 259.566 319.386 256.863 324.301C253.321 330.74 250.499 338.66 251.441 347.139C251.857 350.877 254.794 353.766 259.26 355.338C263.708 356.904 269.416 357.043 274.721 355.418C280.011 353.798 284.806 350.457 287.58 345.154C290.351 339.857 291.202 332.414 288.238 322.401C286.601 316.87 285.6 312.303 285.114 308.555C279.973 308.305 274.764 306.403 271.654 301.402C267.853 295.286 264.76 289.323 264.203 281.699C264.188 281.492 264.175 281.285 264.164 281.076C262.66 280.85 261.169 280.536 259.7 280.119C253.446 278.341 247.622 274.696 243.149 268.131C238.694 261.592 235.637 252.242 234.725 239.138C233.82 226.145 235.497 218.406 239.151 214.273C242.927 210.003 248.404 209.976 253.797 211.223C257.369 212.049 261.198 213.51 264.816 214.913C264.749 214.752 264.684 214.592 264.622 214.431C262.703 209.495 262.765 204.182 266.278 200.417ZM297.657 123.229C298.04 119.327 298.3 115.157 298.413 110.715C298.698 99.6064 294.524 92.468 288.933 88.4126C283.288 84.3172 276.062 83.2653 270.124 84.6289C264.155 85.9997 259.858 89.6821 259.345 94.7513C258.824 99.9094 262.116 107.218 273.085 116.006C281.583 122.813 289.843 124.645 297.657 123.229ZM289.326 155.924C284.696 154.585 280.733 154.618 277.813 155.439C274.965 156.241 273.247 157.735 272.624 159.28C272.036 160.739 272.286 162.601 274.173 164.578C275.099 165.55 276.081 166.107 277.074 166.33C278.066 166.552 279.16 166.461 280.347 165.987C282.761 165.022 285.505 162.486 288.136 158.068C288.538 157.394 288.935 156.679 289.326 155.924ZM324.023 202.414C324.804 203.521 325.678 204.466 326.593 205.264C328.316 206.767 330.196 207.76 331.888 208.315C333.612 208.881 335.021 208.956 335.826 208.772C338.777 208.098 340.039 206.206 340.199 204.278C340.368 202.256 339.338 200.054 337.338 198.852C335.393 197.684 332.303 197.347 328.17 199.556C326.877 200.247 325.491 201.184 324.023 202.414ZM330.117 169.351C335.851 177.371 344.607 183.346 350.809 187.46C352.423 188.53 353.949 188.778 355.375 188.495C356.839 188.205 358.323 187.33 359.741 185.934C362.591 183.131 364.912 178.486 365.994 173.672C367.085 168.823 366.844 164.156 365.008 161.192C364.115 159.75 362.837 158.69 361.07 158.16C359.278 157.621 356.883 157.6 353.745 158.44C342.51 161.451 335.049 165.122 330.117 169.351ZM197.708 154.546C199.248 151.917 201.419 150.039 204.061 148.779C208.708 146.562 214.973 146.183 222.154 147.361C226.993 148.154 232.184 149.644 237.469 151.689C237.312 155.154 236.904 158.403 236.224 161.346C234.685 168.002 231.808 172.871 227.533 175.305C223.291 177.721 217.311 177.94 209.087 174.497C207.885 173.994 206.711 172.857 205.522 171.084C204.343 169.327 203.244 167.09 202.127 164.583C201.618 163.441 201.106 162.242 200.582 161.016C199.672 158.885 198.728 156.673 197.708 154.546ZM119.83 150.377C120.014 154.816 120.034 158.995 119.913 162.914C112.211 164.849 103.846 163.573 94.9125 157.349C83.38 149.315 79.6066 142.243 79.7819 137.061C79.9543 131.969 83.996 128.008 89.8602 126.241C95.6931 124.483 102.973 125.049 108.88 128.758C114.729 132.431 119.371 139.274 119.83 150.377ZM102.267 196.378C105.125 195.364 109.078 195.066 113.786 196.092C113.447 196.872 113.099 197.611 112.743 198.311C110.413 202.895 107.845 205.609 105.5 206.733C104.348 207.285 103.263 207.449 102.258 207.294C101.252 207.138 100.235 206.647 99.2457 205.74C97.231 203.894 96.8572 202.053 97.3468 200.557C97.8648 198.975 99.479 197.369 102.267 196.378ZM154.269 242.829C153.304 242.095 152.368 241.21 151.515 240.158C152.898 238.832 154.218 237.805 155.462 237.029C159.437 234.549 162.543 234.678 164.562 235.714C166.638 236.779 167.812 238.907 167.78 240.936C167.748 242.871 166.616 244.842 163.716 245.712C162.925 245.949 161.515 245.969 159.756 245.52C158.032 245.079 156.09 244.214 154.269 242.829ZM177.241 223.446C170.778 219.756 161.642 214.38 155.384 206.761C160.022 202.212 167.221 198.05 178.23 194.295C181.305 193.246 183.695 193.108 185.52 193.525C187.318 193.936 188.664 194.909 189.651 196.287C191.681 199.121 192.234 203.762 191.47 208.673C190.712 213.549 188.707 218.339 186.051 221.326C184.729 222.813 183.307 223.786 181.866 224.174C180.462 224.551 178.923 224.406 177.241 223.446ZM222.218 309.38C223.496 306.63 226.052 303.601 230.084 300.961C230.402 301.749 230.686 302.516 230.936 303.259C232.574 308.134 232.712 311.868 231.871 314.328C231.458 315.537 230.815 316.427 230 317.034C229.184 317.643 228.121 318.025 226.781 318.096C224.052 318.239 222.476 317.216 221.752 315.819C220.986 314.341 220.971 312.064 222.218 309.38ZM289.959 305.684C289.137 305.807 288.307 305.892 287.477 305.934C287.324 303.94 287.355 302.284 287.528 300.92C287.781 298.932 288.324 297.659 288.948 296.866C289.552 296.098 290.287 295.708 291.114 295.565C292.873 295.261 295.162 296.077 297.156 297.425C298.125 298.079 298.948 298.809 299.523 299.48C300.148 300.207 300.314 300.671 300.323 300.803C300.327 300.847 300.305 301.123 299.832 301.634C299.384 302.119 298.664 302.664 297.686 303.205C295.738 304.283 292.98 305.233 289.959 305.684ZM294.059 274.847C286.874 276.881 276.592 279.645 266.741 278.745C266.835 272.262 268.849 264.348 273.952 253.718C275.357 250.789 276.933 248.987 278.51 247.977C280.063 246.982 281.7 246.703 283.375 246.964C286.819 247.502 290.518 250.358 293.487 254.344C296.435 258.301 298.448 263.088 298.719 267.076C298.854 269.061 298.552 270.757 297.819 272.057C297.104 273.324 295.922 274.32 294.059 274.847ZM52.9289 308.351C55.7232 309.53 58.8418 311.976 61.6251 315.911C60.8485 316.257 60.0925 316.568 59.3581 316.845C54.5457 318.656 50.8192 318.928 48.3303 318.176C47.107 317.806 46.195 317.195 45.5585 316.403C44.921 315.609 44.5013 314.561 44.3828 313.224C44.1415 310.501 45.1074 308.89 46.4776 308.117C47.9276 307.298 50.2027 307.201 52.9289 308.351ZM59.9798 377.721C59.7626 376.528 59.6685 375.243 59.7488 373.891C61.6637 373.845 63.3317 373.977 64.7731 374.244C69.3809 375.095 71.586 377.285 72.3778 379.412C73.1921 381.599 72.623 383.962 71.23 385.438C69.902 386.845 67.7356 387.536 65.0089 386.222C64.2649 385.864 63.2102 384.927 62.2156 383.409C61.2399 381.92 60.3892 379.971 59.9798 377.721ZM90.0133 378.909C87.7314 371.826 84.6142 361.694 85.134 351.848C91.6273 351.619 99.7487 353.403 110.409 358.058C113.386 359.358 115.244 360.868 116.309 362.407C117.359 363.924 117.697 365.55 117.496 367.233C117.082 370.695 114.36 374.493 110.483 377.603C106.634 380.691 101.922 382.875 97.9463 383.288C95.9675 383.494 94.2615 383.253 92.9364 382.567C91.6452 381.898 90.6071 380.753 90.0133 378.909Z" fill="white"/>
</g>
<path fill-rule="evenodd" clip-rule="evenodd" d="M201.931 133.7C201.931 133.7 211.031 157.5 212.631 161C214.331 164.5 266.531 166 271.731 163.6C273.331 162.8 262.031 122.4 255.631 108.5C255.431 108.1 292.131 79.3003 239.731 89.7003C228.831 91.8003 199.231 102.2 195.831 106C192.531 109.8 201.931 133.7 201.931 133.7Z" fill="#DEC0F1"/>
<path d="M212.831 160.2L203.531 139.1" stroke="#424D51" stroke-linecap="round" stroke-linejoin="round"/>
<path fill-rule="evenodd" clip-rule="evenodd" d="M209.131 106.5C210.231 112.7 234.031 105.5 232.731 99.1999C230.531 94.1999 229.331 91.1999 225.631 82.0999C223.631 77.2999 218.631 79.8999 215.831 80.8999C210.431 82.6999 210.831 88.9999 210.831 88.9999C210.831 88.9999 209.431 103.3 209.131 106.5Z" fill="#EFD9CE"/>
<path fill-rule="evenodd" clip-rule="evenodd" d="M209.731 84.7997C210.231 86.5997 213.231 93.8997 220.131 95.2997C225.631 96.3997 230.331 93.6997 230.331 93.6997C230.331 93.6997 226.831 84.1997 226.431 83.3997C226.031 82.4997 209.431 83.4997 209.731 84.7997Z" fill="#424D51"/>
<path fill-rule="evenodd" clip-rule="evenodd" d="M205.531 79.8996C205.531 79.8996 212.031 94.4996 221.331 91.8996C230.631 89.1996 229.331 81.2996 229.231 80.6996C229.131 80.0996 225.031 66.9996 221.731 63.7996C218.431 60.5996 210.931 57.3996 205.031 61.8996C199.231 66.3996 200.431 71.1996 202.031 75.0996C202.931 77.1996 205.531 79.8996 205.531 79.8996Z" fill="#EFD9CE"/>
<path fill-rule="evenodd" clip-rule="evenodd" d="M206.131 76.2997C205.331 75.3997 198.531 72.4997 196.331 77.6997C194.831 81.0997 196.931 83.1997 198.931 83.9997C201.431 84.9997 204.031 84.5997 206.031 82.5997C208.131 80.5997 207.431 78.9997 207.431 78.2997C207.331 77.2997 206.731 76.8997 206.131 76.2997Z" fill="#EFD9CE"/>
<path fill-rule="evenodd" clip-rule="evenodd" d="M221.43 69.2994C221.23 68.0994 223.43 61.0994 228.83 62.6994C232.43 63.7994 232.63 66.6994 232.03 68.6994C231.23 71.2994 229.23 72.9994 226.33 73.2994C223.43 73.5994 222.63 71.9994 222.23 71.5994C221.43 70.8994 221.53 70.1994 221.43 69.2994Z" fill="#EFD9CE"/>
<path fill-rule="evenodd" clip-rule="evenodd" d="M204.931 69.8997C204.931 69.8997 214.131 70.4997 219.031 63.2997C219.031 63.1997 221.531 66.2997 223.231 64.9997L219.231 54.6997C219.231 54.6997 217.731 51.8997 214.031 53.4997C211.131 54.6997 198.931 59.8997 198.931 59.8997C198.931 59.8997 195.531 61.3997 197.131 64.8997C198.731 68.3997 201.531 74.9997 202.131 74.6997C204.131 73.7997 204.931 69.8997 204.931 69.8997Z" fill="#F1D7AD"/>
<path d="M213.932 80.9004C216.432 84.0004 219.532 81.3004 219.532 81.3004" stroke="#424D51" stroke-width="0.729" stroke-linecap="round" stroke-linejoin="round"/>
<path d="M216.23 75.6992C216.23 75.6992 218.03 75.7992 218.33 76.8992C218.53 78.0992 217.33 78.3992 216.53 78.5992" stroke="#424D51" stroke-width="0.729" stroke-linecap="round" stroke-linejoin="round"/>
<path d="M217.73 73.0002C217.73 73.0002 217.93 71.1002 219.43 70.2002C220.93 69.4002 222.03 69.9002 222.93 70.7002" stroke="#424D51" stroke-width="0.729" stroke-linecap="round" stroke-linejoin="round"/>
<path d="M219.131 70.7011C219.431 70.2011 220.131 70.0011 220.731 70.3011C221.231 70.6011 221.531 71.3011 221.131 71.9011C220.831 72.5011 220.131 72.7011 219.531 72.3011C219.031 72.0011 218.831 71.3011 219.131 70.7011Z" stroke="#424D51" stroke-width="0.729" stroke-linecap="round" stroke-linejoin="round"/>
<path d="M207.631 77.5998C207.631 77.5998 207.831 75.6998 209.331 74.7998C210.831 73.8998 211.931 74.4998 212.831 75.1998" stroke="#424D51" stroke-width="0.729" stroke-linecap="round" stroke-linejoin="round"/>
<path d="M209.03 75.4011C209.33 74.8011 210.03 74.6011 210.63 75.0011C211.13 75.3011 211.43 76.0011 211.03 76.6011C210.63 77.2011 210.03 77.4011 209.43 77.0011C208.93 76.7011 208.73 76.0011 209.03 75.4011Z" stroke="#424D51" stroke-width="0.729" stroke-linecap="round" stroke-linejoin="round"/>
<path d="M225.632 68.1C226.032 67.9 227.032 67.4 227.832 67.4M226.932 65.5C226.932 65.5 225.932 66.4 225.632 68.1L226.932 65.5ZM225.632 69.7C225.532 69.1 225.532 68.5 225.632 68.1V69.7Z" stroke="#424D51" stroke-width="0.729" stroke-linecap="round" stroke-linejoin="round"/>
<path d="M203.53 78.2001C203.03 78.3001 202.03 78.8001 201.63 79.4001M200.73 77.5001C200.73 77.5001 202.03 77.4001 203.53 78.2001L200.73 77.5001ZM204.83 79.3001C204.43 78.8001 204.03 78.5001 203.53 78.2001L204.83 79.3001Z" stroke="#424D51" stroke-width="0.729" stroke-linecap="round" stroke-linejoin="round"/>
<path d="M314.83 132C314.83 134.2 288.73 164.1 281.63 169C281.43 169.1 281.33 169.1 281.23 169.1C276.83 168.2 272.63 168.2 272.63 168.2L272.23 173.8C272.23 173.8 265.43 179.3 261.53 180.7C253.23 183.7 250.53 184.8 250.63 187.3C250.73 189.9 253.93 190.1 253.93 190.1C253.93 190.1 253.23 190.8 254.83 192.6C256.23 194.2 258.53 194.3 258.53 194.3C258.53 194.3 258.33 195.4 259.73 196.5C261.53 198 265.33 197.5 265.33 197.5C266.03 201.8 271.53 201.6 273.23 201C276.73 199.8 279.83 198.1 282.63 196.1C282.63 196 282.73 196 282.73 196C289.43 193.2 348.93 152.5 351.43 136.4L314.83 132Z" fill="#EFD9CE"/>
<path d="M253.729 190.4C260.229 191.3 271.829 184.5 271.829 184.5" stroke="#424D51" stroke-linecap="round" stroke-linejoin="round"/>
<path d="M257.83 194.6C263.93 195.1 274.83 189.7 274.83 189.7" stroke="#424D51" stroke-linecap="round" stroke-linejoin="round"/>
<path d="M265.33 198.4C269.43 198.4 277.23 194.8 277.23 194.8" stroke="#424D51" stroke-linecap="round" stroke-linejoin="round"/>
<path fill-rule="evenodd" clip-rule="evenodd" d="M305.031 180.7C305.431 181 303.131 183.3 301.131 183.1C299.031 182.9 283.731 167.3 284.431 165.4C285.131 163.6 287.031 161.9 287.031 161.9C287.031 161.9 304.731 180.4 305.031 180.7Z" fill="#EFD9CE"/>
<path fill-rule="evenodd" clip-rule="evenodd" d="M261.631 87.3002C249.231 86.6002 238.531 89.8002 238.331 104.6C238.031 124.9 262.731 126.4 278.031 128C290.931 129.4 311.231 131.1 310.831 131.4C309.031 132.7 300.931 142.2 295.031 148.5C289.531 154.3 282.631 159.8 286.331 164.4C289.331 168.1 303.831 185.9 309.131 182.3C319.931 175.2 347.031 150.3 354.031 139.9C359.531 131.7 357.931 110.7 329.531 101C298.831 90.6002 270.431 87.8002 261.631 87.3002Z" fill="#DEC0F1"/>
<path d="M320.931 121.301C320.931 121.301 312.531 129.501 311.131 131.401" stroke="#424D51" stroke-linecap="round" stroke-linejoin="round"/>
<path d="M262.431 126.7C262.431 126.7 258.431 123 254.631 118.5" stroke="#424D51" stroke-linecap="round" stroke-linejoin="round"/>
<path d="M127.838 379.59H60.6366C48.199 349.738 77.069 352.99 84.3052 360.057C77.937 351.71 77.9127 328.129 91.4528 322.784C115.476 313.302 124.992 355.209 127.838 379.59Z" fill="#F8F8F8"/>
</svg>
