<svg width="424" height="424" viewBox="0 0 424 424" fill="none" xmlns="http://www.w3.org/2000/svg">
<path fill-rule="evenodd" clip-rule="evenodd" d="M103.699 249.265L114.999 282.265C114.999 282.265 196.199 260.665 203.599 257.265C219.499 250.065 211.699 213.265 189.599 221.665C179.199 225.665 103.699 249.265 103.699 249.265Z" fill="#E5CDF4"/>
<path fill-rule="evenodd" clip-rule="evenodd" d="M136 238.764L147.3 273.964L112.2 283.164L102.4 248.864L136 238.764Z" fill="#DCBEF0"/>
<path fill-rule="evenodd" clip-rule="evenodd" d="M104.2 251.264C104.2 251.264 102.9 247.964 100.1 248.464C98.2999 248.764 97.4999 250.164 97.0999 251.364C97.0999 251.364 95.6999 250.164 92.8999 249.564C90.0999 249.064 84.8999 248.364 82.2999 250.464C81.0999 251.464 93.2999 284.864 93.2999 284.864L104.1 320.564C104.1 320.564 110.7 316.964 110.2 308.064C109.8 300.164 109.3 298.464 108.6 294.764C108.1 292.464 108.5 290.264 110.1 288.664C112.4 286.364 113.1 284.464 113.3 281.164C113.6 275.864 106.6 255.964 104.2 251.264Z" fill="#C5B0F0"/>
<path fill-rule="evenodd" clip-rule="evenodd" d="M82.0004 250.565C82.8004 249.165 95.5004 253.065 98.7004 260.565C101.7 267.465 97.0004 274.465 97.4004 279.565C97.6004 282.865 99.2004 287.565 100.4 291.665C101 293.465 108.1 316.465 108.1 316.465C108.1 316.465 105.8 323.165 102.9 321.365C101.3 320.265 81.3004 251.865 82.0004 250.565Z" fill="#9F78BA"/>
<path fill-rule="evenodd" clip-rule="evenodd" d="M101.601 282.364C100.701 280.464 101.401 278.264 103.201 277.364C105.001 276.464 107.201 277.264 108.201 279.064C109.101 280.964 108.401 283.164 106.601 284.064C104.801 285.064 102.601 284.264 101.601 282.364Z" fill="#DCBEF0"/>
<path fill-rule="evenodd" clip-rule="evenodd" d="M160.401 324.564L194.101 333.564C194.101 333.564 220.201 253.764 222.701 245.964C225.601 236.864 231.001 224.564 225.101 217.564C212.701 202.764 130.901 175.164 130.901 175.164C130.901 175.164 106.101 177.564 108.401 198.164C110.201 214.164 144.601 222.764 154.401 225.864C167.101 229.864 186.201 234.264 185.401 237.764C183.101 248.764 160.401 324.564 160.401 324.564Z" fill="#E5CDF4"/>
<path fill-rule="evenodd" clip-rule="evenodd" d="M169.7 291.965L205.3 302.165L193.4 336.465L159.5 325.565L169.7 291.965Z" fill="#DCBEF0"/>
<path fill-rule="evenodd" clip-rule="evenodd" d="M162.4 325.263C162.4 325.263 158.9 324.463 157.8 327.163C157 328.863 157.8 330.263 158.6 331.263C158.6 331.263 156.8 331.763 154.8 333.863C152.8 335.863 149.3 339.863 149.7 343.163C149.9 344.663 184.4 353.163 184.4 353.163L220 364.063C220 364.063 220.6 356.563 213 351.963C206.2 347.863 204.6 347.363 201.1 345.863C198.9 344.963 197.3 343.463 196.9 341.263C196.3 338.063 195.1 336.463 192.4 334.463C188.1 331.163 167.6 325.963 162.4 325.263Z" fill="#C5B0F0"/>
<path fill-rule="evenodd" clip-rule="evenodd" d="M149.501 343.264C148.801 341.864 159.001 333.464 167.001 334.964C174.401 336.364 177.701 344.064 182.101 346.564C185.001 348.164 189.701 349.564 193.901 350.764C195.701 351.264 218.701 358.164 218.701 358.164C218.701 358.164 223.001 363.764 219.901 365.164C218.101 366.064 150.201 344.564 149.501 343.264Z" fill="#9F78BA"/>
<path fill-rule="evenodd" clip-rule="evenodd" d="M186.799 344.764C184.699 344.464 183.299 342.664 183.499 340.664C183.699 338.664 185.599 337.264 187.699 337.464C189.799 337.764 191.199 339.564 190.999 341.564C190.799 343.564 188.899 344.964 186.799 344.764Z" fill="#DCBEF0"/>
<path d="M178.1 264.464C178.1 264.464 186.3 238.464 185.7 236.664C185.1 234.864 166.1 229.764 166.1 229.764" stroke="#424D51" stroke-linecap="round" stroke-linejoin="round"/>
<path fill-rule="evenodd" clip-rule="evenodd" d="M150.3 105.164C157.7 95.2639 141.8 92.1639 142.8 82.8639C143.4 77.5639 131.1 65.7639 127.7 66.5639C125.3 67.1639 122.6 65.1639 122.6 65.1639C122.6 65.1639 120.5 65.0639 114.5 66.3639C108.5 67.6639 110.6 77.2639 104.7 79.2639C89.6996 84.4639 85.7996 102.364 93.8996 106.564C102 110.764 86.5996 122.864 99.9996 135.264C108.3 141.364 118.9 137.564 131.9 132.864C139.9 129.964 142.9 127.964 146.9 124.764C156 118.964 146.9 109.664 150.3 105.164Z" fill="#89716E"/>
<path d="M202.601 153.564C199.501 148.264 201.301 141.364 206.701 138.364L294.901 87.4638C300.201 84.3638 307.101 86.2638 310.101 91.5638L340.701 144.564C343.801 149.864 341.901 156.764 336.601 159.764L248.401 210.664C243.101 213.764 236.201 211.864 233.201 206.564L202.601 153.564Z" fill="#DCBEF0"/>
<path d="M238.578 179.19C239.797 181.279 242.572 182.073 244.661 180.855L269.072 166.774C271.161 165.555 271.955 162.78 270.736 160.691L270.243 159.944C269.025 157.855 266.25 157.061 264.161 158.28L239.75 172.361C237.661 173.58 236.867 176.355 238.085 178.444L238.578 179.19Z" fill="#ECDDF6"/>
<path d="M225.435 156.358C226.653 158.448 229.428 159.241 231.517 158.023L299.042 119.066C301.132 117.847 301.925 115.073 300.707 112.983L300.214 112.237C298.995 110.148 296.22 109.354 294.131 110.573L226.606 149.529C224.517 150.748 223.723 153.523 224.942 155.612L225.435 156.358Z" fill="#ECDDF6"/>
<path d="M297.973 131.636C303.521 128.433 310.615 130.334 313.818 135.882C317.021 141.43 315.12 148.524 309.572 151.727C304.024 154.93 296.93 153.029 293.727 147.481C290.524 141.933 292.425 134.839 297.973 131.636Z" fill="#ECDDF6"/>
<path d="M201.3 146.564C208.4 143.564 260 107.564 260 107.564C260 107.564 261.2 110.664 264.5 109.964C271 108.564 265.4 96.8635 262.2 93.9635C257.6 89.8635 248.8 92.5635 246.8 97.5635C245.9 99.8635 241.1 100.964 239.1 101.764C223.2 108.364 206.5 113.264 189.9 117.664C188.5 118.064 185.4 119.364 183.9 118.764C179.7 117.064 154.9 109.964 144.6 107.264C143.1 106.864 141.9 106.564 141.2 106.364C124.1 101.764 113.6 103.164 108 117.564C105.2 124.764 112.1 131.864 120.8 135.064C127.8 137.664 141.5 140.564 154.1 143.264C164.1 145.364 172.1 147.764 178.3 148.964C187.2 150.564 192.3 150.364 201.3 146.564Z" fill="#FDDCC4"/>
<path d="M166.199 112.365L159.799 145.065L125.799 140.265L113.199 110.765L124.399 101.465L166.199 112.365Z" fill="#E5CDF4"/>
<path d="M260 106.964C259.1 105.364 258.1 104.264 256.5 102.564" stroke="#424D51" stroke-linecap="round" stroke-linejoin="round"/>
<path fill-rule="evenodd" clip-rule="evenodd" d="M104.001 171.864C104.001 171.864 92.8008 113.064 108.101 107.464C143.201 94.5639 151.401 125.364 151.901 142.664C152.101 150.064 151.101 184.764 151.101 184.764C151.101 184.764 111.201 184.764 104.001 171.864Z" fill="#E5CDF4"/>
<path d="M152.001 145.465C153.001 137.565 154.501 131.465 146.301 118.965" stroke="#424D51" stroke-linecap="round" stroke-linejoin="round"/>
<path fill-rule="evenodd" clip-rule="evenodd" d="M160.7 239.864L183.4 193.464C183.4 193.464 136.5 174.564 133.5 174.764C132.4 174.864 103 167.064 103.1 170.164C103.3 177.064 94.3004 195.364 113.7 210.164C147.2 225.764 160.7 239.864 160.7 239.864Z" fill="#ECDDF6"/>
<mask id="mask0_12_4894" style="mask-type:alpha" maskUnits="userSpaceOnUse" x="101" y="169" width="83" height="71">
<path fill-rule="evenodd" clip-rule="evenodd" d="M160.7 239.864L183.4 193.464C183.4 193.464 136.5 174.564 133.5 174.764C132.4 174.864 103 167.064 103.1 170.164C103.3 177.064 94.3004 195.364 113.7 210.164C147.2 225.764 160.7 239.864 160.7 239.864Z" fill="#ECDDF6"/>
</mask>
<g mask="url(#mask0_12_4894)">
<circle cx="173.91" cy="210.668" r="3" fill="white"/>
<circle cx="173.91" cy="236.668" r="3" fill="white"/>
<circle cx="173.91" cy="184.668" r="3" fill="white"/>
<circle cx="127.41" cy="210.668" r="3" fill="white"/>
<circle cx="127.41" cy="236.668" r="3" fill="white"/>
<circle cx="127.41" cy="184.668" r="3" fill="white"/>
<circle cx="167.91" cy="223.668" r="3" fill="white"/>
<circle cx="167.91" cy="171.668" r="3" fill="white"/>
<circle cx="167.91" cy="197.668" r="3" fill="white"/>
<circle cx="121.41" cy="223.668" r="3" fill="white"/>
<circle cx="121.41" cy="171.668" r="3" fill="white"/>
<circle cx="121.41" cy="197.668" r="3" fill="white"/>
<circle cx="142.91" cy="210.668" r="3" fill="white"/>
<circle cx="142.91" cy="236.668" r="3" fill="white"/>
<circle cx="142.91" cy="184.668" r="3" fill="white"/>
<circle cx="183.41" cy="223.668" r="3" fill="white"/>
<circle cx="183.41" cy="171.668" r="3" fill="white"/>
<circle cx="183.41" cy="197.668" r="3" fill="white"/>
<circle cx="136.91" cy="223.668" r="3" fill="white"/>
<circle cx="136.91" cy="171.668" r="3" fill="white"/>
<circle cx="136.91" cy="197.668" r="3" fill="white"/>
<circle cx="111.91" cy="210.668" r="3" fill="white"/>
<circle cx="111.91" cy="236.668" r="3" fill="white"/>
<circle cx="111.91" cy="184.668" r="3" fill="white"/>
<circle cx="158.41" cy="210.668" r="3" fill="white"/>
<circle cx="158.41" cy="236.668" r="3" fill="white"/>
<circle cx="158.41" cy="184.668" r="3" fill="white"/>
<circle cx="105.91" cy="223.668" r="3" fill="white"/>
<circle cx="105.91" cy="171.668" r="3" fill="white"/>
<circle cx="105.91" cy="197.668" r="3" fill="white"/>
<circle cx="152.41" cy="223.668" r="3" fill="white"/>
<circle cx="152.41" cy="171.668" r="3" fill="white"/>
<circle cx="152.41" cy="197.668" r="3" fill="white"/>
</g>
<path d="M114.4 110.163C107.6 113.963 102.3 120.363 106.6 134.563C108.7 141.663 112.6 149.263 116.6 156.363C116.6 156.363 123.9 171.663 129.8 180.763C136.2 190.563 207.3 210.663 213.9 212.163H214C217.3 213.163 220.8 213.763 224.5 213.763C226.3 213.763 231.6 212.163 230.9 207.863C230.9 207.863 234.7 207.063 235.9 205.063C236.8 203.563 236.3 202.563 236.3 202.563C236.3 202.563 238.4 201.663 239.2 199.763C240.2 197.563 239.3 197.063 239.3 197.063C239.3 197.063 242.3 195.763 241.5 193.263C240.8 190.863 237.9 190.663 229.1 190.463C225 190.363 223.7 189.763 223.7 189.763C223.7 189.763 219 181.563 218.9 181.463C218.7 181.163 213.2 183.063 212.7 183.263C211.1 183.763 209.5 184.363 208 185.063C207.3 185.363 206.8 185.763 206.1 185.763C202.4 185.563 198.7 183.163 195.3 181.763C191.4 180.063 187.5 178.363 183.6 176.563C177.9 173.963 172.2 171.363 166.6 168.763C164.1 167.563 161.6 166.363 159.1 165.263C157.8 164.663 153.9 162.963 153.9 161.063C153 159.163 152.2 157.263 151.5 155.263C149.4 150.063 147.5 144.663 145.6 139.363C144.2 135.363 142.8 131.363 141.1 127.563C134.7 114.163 125.4 105.663 114.4 110.163Z" fill="#FDDCC4"/>
<path d="M175.916 200.457C186.416 204.657 202.816 210.657 213.716 212.157" stroke="#424D51" stroke-linecap="round" stroke-linejoin="round"/>
<path d="M146.101 139.664L114.501 152.564C113.801 151.364 111.101 146.064 108.801 139.664C105.901 131.664 103.401 126.964 105.901 119.364C107.601 114.364 110.201 109.764 120.201 108.264C132.701 106.464 142.901 128.164 146.101 139.664Z" fill="#E5CDF4"/>
<path d="M223.699 189.564C222.299 189.264 218.999 188.064 216.699 187.164" stroke="#424D51" stroke-linecap="round" stroke-linejoin="round"/>
<path d="M220.5 197.764C220.5 197.764 233.7 200.564 239.6 197.564" stroke="#424D51" stroke-linecap="round" stroke-linejoin="round"/>
<path d="M219.301 203.664C219.301 203.664 231.401 205.264 237.001 202.764" stroke="#424D51" stroke-linecap="round" stroke-linejoin="round"/>
<path d="M218.6 209.263C218.6 209.263 227.1 210.163 231 208.863" stroke="#424D51" stroke-linecap="round" stroke-linejoin="round"/>
<path d="M112.099 110.465C112.099 110.465 103.999 115.665 105.199 127.565C107.099 139.865 114.599 152.465 114.599 152.465" stroke="#424D51" stroke-linecap="round" stroke-linejoin="round"/>
<path d="M131.6 113.164C131.6 113.164 138.3 117.564 145.9 139.464" stroke="#424D51" stroke-linecap="round" stroke-linejoin="round"/>
<path fill-rule="evenodd" clip-rule="evenodd" d="M108.9 107.163C108.1 109.163 131.6 110.263 132.4 107.163C133.8 101.863 134.8 92.7631 135.1 89.9631C135.7 84.8631 136.2 82.1631 129.5 79.7631C120.2 76.3631 120.5 87.3631 120.5 87.3631C120.5 87.3631 115.9 96.7631 108.9 107.163Z" fill="#FDDCC4"/>
<path fill-rule="evenodd" clip-rule="evenodd" d="M124.7 84.4629C124.7 84.4629 137.5 94.0629 144.3 87.1629C151.1 80.2629 146 73.9629 145.7 73.5629C145.4 73.0629 135.4 63.6629 130.9 62.5629C126.4 61.4629 118.3 62.2629 115.4 69.0629C112.5 75.8629 116 79.4629 119.3 82.0629C121 83.3629 124.7 84.4629 124.7 84.4629Z" fill="#FDDCC4"/>
<path fill-rule="evenodd" clip-rule="evenodd" d="M120 81.8627C120.8 82.0627 124.6 76.7628 124.8 71.1628C124.8 71.0628 139.6 64.3627 131.3 60.1627C131.3 60.1627 123.9 56.6628 116.3 65.5627C109.9 73.1627 116.6 81.8627 120 81.8627Z" fill="#89716E"/>
<path fill-rule="evenodd" clip-rule="evenodd" d="M124.1 78.4631C123.2 78.3631 115.1 78.3631 115.7 83.9631C116.3 89.5631 122.6 88.1631 123.2 87.6631C124.7 86.6631 125.8 85.6631 126.3 83.7631C127.2 80.5631 126.3 78.8631 124.1 78.4631Z" fill="#FDDCC4"/>
<path fill-rule="evenodd" clip-rule="evenodd" d="M135.2 89.3628C135.2 89.3628 131.6 88.1628 128.9 85.9628C126 83.5628 134.6 94.6628 134.6 94.6628L135.2 89.3628Z" fill="#424D51"/>
<path fill-rule="evenodd" clip-rule="evenodd" d="M105 63.3627C103.5 65.5627 103.4 69.3627 106.5 71.5627C109.8 73.8627 114.2 73.8627 116.7 68.7627C118.2 65.6627 116.3 61.8627 112.6 60.6627C110.1 59.9627 107.2 60.1627 105 63.3627Z" fill="#89716E"/>
<path fill-rule="evenodd" clip-rule="evenodd" d="M133.5 80.5631C133.6 80.4631 137.1 79.1631 138.7 78.1631C139.2 77.8631 139.7 80.4631 137.9 81.4631C135.9 82.6631 132.9 80.8631 133.5 80.5631Z" fill="white"/>
<path d="M133.5 75.0629C133.5 75.0629 135.2 74.3629 135.9 75.3629C136.6 76.2629 135.7 77.1629 135 77.6629" stroke="#424D51" stroke-width="0.729" stroke-linecap="round" stroke-linejoin="round"/>
<path d="M133.1 72.3627C133.1 72.3627 132.5 70.4627 133.5 69.1627C134.5 67.7627 135.7 67.7627 136.9 68.0627" stroke="#424D51" stroke-width="0.729" stroke-linecap="round" stroke-linejoin="round"/>
<path d="M133.4 69.7631C133.5 69.1631 134 68.6631 134.6 68.6631C135.2 68.7631 135.7 69.2631 135.7 69.8631C135.6 70.4631 135.1 70.9631 134.5 70.9631C133.9 70.9631 133.4 70.3631 133.4 69.7631Z" stroke="#424D51" stroke-width="0.729" stroke-linecap="round" stroke-linejoin="round"/>
<path d="M126.6 80.4628C126.6 80.4628 126 78.6628 127 77.2628C128 75.8628 129.2 75.9628 130.4 76.1628" stroke="#424D51" stroke-width="0.729" stroke-linecap="round" stroke-linejoin="round"/>
<path d="M126.9 77.7631C127 77.1631 127.5 76.6631 128.1 76.6631C128.7 76.7631 129.2 77.2631 129.2 77.8631C129.1 78.4631 128.6 78.9631 128 78.9631C127.4 78.9631 126.9 78.4631 126.9 77.7631Z" stroke="#424D51" stroke-width="0.729" stroke-linecap="round" stroke-linejoin="round"/>
<path d="M122.1 82.3628C121.7 82.6628 121 83.4628 120.8 84.2628M119.2 82.8628C119.2 82.8628 120.4 82.1628 122.1 82.4628L119.2 82.8628ZM123.7 82.8628C123.1 82.5628 122.6 82.4628 122.1 82.3628L123.7 82.8628Z" stroke="#424D51" stroke-width="0.729" stroke-linecap="round" stroke-linejoin="round"/>
<path d="M287.379 330.499C286.521 361.048 299.998 368.801 306.844 368.858C327.35 374.55 353.192 344.019 366.182 325.696C379.171 307.372 366.468 304.426 357.43 308.834C347.205 313.821 332.991 323.542 325.772 330.379L336.325 311.941C341.588 302.209 351.175 281.784 347.419 277.942C342.723 273.14 333.289 278.878 326.661 289.704C321.45 298.213 308.777 319.768 304.535 330.7C305.033 316.563 306.703 293.792 306.391 286.201C305.672 268.713 290.03 273.399 289.934 285.507C289.44 287.775 288.237 299.949 287.379 330.499Z" fill="#ECECEC"/>
<path d="M374.295 384.9H224.799C226.795 379.291 233.795 368.791 244.764 363.422C257.274 357.299 265.132 362.716 267.754 366.145C282.879 357.372 335.211 334.987 360.924 340.432C381.494 344.788 378.227 372.699 374.295 384.9Z" fill="#F8F8F8"/>
</svg>
