<svg width="424" height="424" viewBox="0 0 424 424" fill="none" xmlns="http://www.w3.org/2000/svg">
<path d="M252.032 165.45C267.948 213.296 232.719 296.667 171.596 293.993C110.474 291.319 101.18 272.818 75.5118 224.171C59.5953 176.325 92.8333 148.103 148.677 116.737C204.523 85.3694 236.115 117.604 252.032 165.45Z" fill="#F8F8F8"/>
<path d="M315.891 243.29C327.218 260.04 322.645 296.044 298.756 301.631C274.868 307.218 269.275 301.081 254.097 285.079C242.77 268.33 252.547 253.834 270.711 235.675C288.875 217.517 304.564 226.541 315.891 243.29Z" fill="#F8F8F8"/>
<path d="M234.099 247.464C233.899 246.664 234.299 245.964 235.099 245.564C250.899 238.764 261.999 222.964 261.999 204.664C261.999 180.064 241.999 160.064 217.399 160.064C192.799 160.064 172.799 180.064 172.799 204.664C172.799 222.664 183.499 238.264 198.899 245.264C199.599 245.564 199.999 246.364 199.799 247.064L189.499 296.164C189.099 298.164 190.599 300.064 192.599 300.064H241.899C243.999 300.064 245.499 298.164 244.999 296.164L234.099 247.464Z" fill="#424D51"/>
<mask id="mask0_12_6071" style="mask-type:alpha" maskUnits="userSpaceOnUse" x="172" y="160" width="90" height="141">
<path d="M234.099 247.464C233.899 246.664 234.299 245.964 235.099 245.564C250.899 238.764 261.999 222.964 261.999 204.664C261.999 180.064 241.999 160.064 217.399 160.064C192.799 160.064 172.799 180.064 172.799 204.664C172.799 222.664 183.499 238.264 198.899 245.264C199.599 245.564 199.999 246.364 199.799 247.064L189.499 296.164C189.099 298.164 190.599 300.064 192.599 300.064H241.899C243.999 300.064 245.499 298.164 244.999 296.164L234.099 247.464Z" fill="#424D51"/>
</mask>
<g mask="url(#mask0_12_6071)">
<path fill-rule="evenodd" clip-rule="evenodd" d="M232 299.764C214.8 272.864 205.7 249.464 209.1 226.764C209.4 222.264 207.7 215.464 212.9 217.464C222.9 221.164 227.7 215.764 238 211.464C246.1 208.064 249.263 205.352 255.7 204.564C262.137 203.777 266.562 205.627 266.262 209.027C267.062 231.427 238 244.464 238 244.464C238 244.464 251.8 299.464 249.8 299.864C243.8 300.964 233.1 301.364 232 299.764Z" fill="#BA79E2"/>
</g>
<path fill-rule="evenodd" clip-rule="evenodd" d="M220.1 219.365C221.8 229.565 249 223.665 244.1 213.565C242.2 208.365 241.3 205.365 238.1 195.965C236.4 191.065 231.3 193.365 228.4 194.065C222.9 195.465 222.9 201.765 222.9 201.765C222.9 201.765 220.7 216.165 220.1 219.365Z" fill="#D9A48A"/>
<path fill-rule="evenodd" clip-rule="evenodd" d="M222.1 197.465C222.4 199.365 225 206.765 231.8 208.565C237.2 210.065 242.1 207.665 242.1 207.665C242.1 207.665 239.3 197.965 238.9 197.165C238.4 196.265 221.8 196.165 222.1 197.465Z" fill="#424D51"/>
<path fill-rule="evenodd" clip-rule="evenodd" d="M218.2 192.265C218.2 192.265 223.7 207.265 233.1 205.265C242.5 203.165 241.7 195.165 241.7 194.565C241.7 193.965 238.5 180.565 235.3 177.165C232.2 173.765 224.9 170.065 218.8 174.165C212.7 178.265 213.6 183.165 214.9 187.165C215.7 189.365 218.2 192.265 218.2 192.265Z" fill="#D9A48A"/>
<path fill-rule="evenodd" clip-rule="evenodd" d="M219 188.765C218.2 187.765 211.7 184.465 209.1 189.465C207.4 192.765 209.4 194.965 211.2 195.865C213.6 197.065 216.2 196.765 218.4 194.965C220.6 193.065 220.1 191.465 220.1 190.865C220.1 189.865 219.6 189.365 219 188.765Z" fill="#D9A48A"/>
<path fill-rule="evenodd" clip-rule="evenodd" d="M234.7 182.764C234.6 181.564 237.2 174.664 242.5 176.664C246 177.964 246 180.964 245.3 182.864C244.3 185.364 242.2 186.964 239.3 187.064C236.4 187.164 235.7 185.564 235.3 185.064C234.6 184.364 234.8 183.664 234.7 182.764Z" fill="#D9A48A"/>
<path fill-rule="evenodd" clip-rule="evenodd" d="M226.399 193.465C226.499 193.465 230.199 193.965 232.199 193.865C232.799 193.865 231.999 196.365 229.899 196.465C227.499 196.465 225.699 193.465 226.399 193.465Z" fill="white"/>
<path d="M229.1 188.664C229.1 188.664 230.9 188.864 231.1 190.064C231.3 191.264 230 191.564 229.2 191.664" stroke="#424D51" stroke-width="0.729" stroke-linecap="round" stroke-linejoin="round"/>
<path d="M230.799 186.065C230.799 186.065 231.199 184.165 232.699 183.465C234.199 182.665 235.299 183.365 236.199 184.165" stroke="#424D51" stroke-width="0.729" stroke-linecap="round" stroke-linejoin="round"/>
<path d="M232.3 183.964C232.7 183.464 233.4 183.264 233.9 183.664C234.4 184.064 234.6 184.764 234.2 185.264C233.8 185.764 233.1 185.964 232.6 185.564C232.1 185.164 232 184.464 232.3 183.964Z" stroke="#424D51" stroke-width="0.729" stroke-linecap="round" stroke-linejoin="round"/>
<path d="M220.398 190.065C220.398 190.065 220.798 188.165 222.298 187.465C223.798 186.765 224.898 187.365 225.798 188.165" stroke="#424D51" stroke-width="0.729" stroke-linecap="round" stroke-linejoin="round"/>
<path d="M222 187.964C222.4 187.464 223.1 187.264 223.6 187.664C224.1 188.064 224.3 188.764 223.9 189.264C223.5 189.764 222.8 189.964 222.3 189.564C221.8 189.164 221.6 188.464 222 187.964Z" stroke="#424D51" stroke-width="0.729" stroke-linecap="round" stroke-linejoin="round"/>
<path d="M238.999 181.764C239.399 181.564 240.399 181.164 241.199 181.264M240.399 179.164C240.399 179.164 239.299 180.064 238.999 181.664L240.399 179.164ZM238.899 183.364C238.799 182.764 238.899 182.164 238.999 181.664L238.899 183.364Z" stroke="#424D51" stroke-width="0.729" stroke-linecap="round" stroke-linejoin="round"/>
<path d="M216.3 190.366C215.8 190.466 214.8 190.866 214.3 191.466M213.5 189.466C213.5 189.466 214.9 189.366 216.3 190.366L213.5 189.466ZM217.5 191.566C217.1 191.066 216.7 190.666 216.3 190.466L217.5 191.566Z" stroke="#424D51" stroke-width="0.729" stroke-linecap="round" stroke-linejoin="round"/>
<path fill-rule="evenodd" clip-rule="evenodd" d="M218.199 182.265C218.199 182.265 226.699 183.865 231.999 177.065C231.999 176.965 234.299 179.765 236.499 178.665C236.499 178.665 235.499 165.465 221.499 170.465C208.699 175.065 214.499 187.165 215.099 186.865C217.199 186.165 218.199 182.265 218.199 182.265Z" fill="#D6D6D6"/>
<path d="M248.299 283.664C247.099 284.264 246.399 284.164 238.399 285.364C234.899 285.864 233.599 281.764 235.899 279.364C235.899 279.364 233.199 280.264 232.299 277.564C231.499 275.264 233.299 273.964 234.399 273.264C234.199 273.364 232.399 273.664 231.699 272.064C230.899 270.364 231.399 268.864 233.499 267.964C233.299 267.964 230.899 268.364 230.399 265.764C230.099 264.264 231.099 262.764 233.599 261.564C238.099 259.564 243.699 259.564 243.699 259.564C244.999 259.564 246.399 259.964 247.099 261.164C247.999 262.564 247.499 264.164 246.599 265.464C246.499 265.564 247.499 266.264 247.599 266.264C248.299 266.964 248.399 267.964 248.299 268.864C248.199 269.464 247.699 269.964 247.699 270.564C247.699 270.964 248.599 271.464 248.899 271.764C249.599 272.664 249.699 273.964 249.299 274.964C249.199 275.264 248.099 276.764 248.299 276.864C253.199 279.564 250.199 283.164 248.299 283.664Z" fill="#D9A48A"/>
<path d="M245.998 265.365C240.398 265.365 236.998 265.765 233.398 268.065" stroke="#424D51" stroke-linecap="round" stroke-linejoin="round"/>
<path d="M245.298 259.664C242.398 259.764 235.898 260.364 232.398 262.564" stroke="#424D51" stroke-linecap="round" stroke-linejoin="round"/>
<path d="M247.4 270.465C245.1 270.665 241.8 270.865 239.1 271.465C237.8 271.665 235.7 272.165 234.5 273.265" stroke="#424D51" stroke-linecap="round" stroke-linejoin="round"/>
<path d="M247.598 276.766C244.498 276.766 236.798 278.066 235.898 279.366" stroke="#424D51" stroke-linecap="round" stroke-linejoin="round"/>
<path fill-rule="evenodd" clip-rule="evenodd" d="M227.699 239.165C227.099 252.265 223.199 258.265 205.399 251.865C205.399 251.865 182.799 242.565 171.299 235.465C169.799 234.565 168.099 233.565 166.199 232.465C157.799 227.565 146.599 221.065 143.599 213.565C138.899 201.865 129.448 153.965 127.899 133.965C125.899 125.465 121.799 107.265 120.799 95.1651C120.799 95.1651 120.799 95.1651 120.799 95.0651C120.699 94.3651 120.199 88.4651 125.099 90.0651C125.099 90.0651 124.399 86.5651 127.199 85.7651C129.299 85.1651 130.499 86.2651 131.199 87.3651C131.199 87.3651 131.199 87.3651 131.199 87.2651C131.199 86.9651 130.899 84.8651 133.099 84.4651C136.299 83.8651 137.799 87.5651 138.099 90.2651C138.099 90.0651 138.199 88.6651 140.299 88.2651C141.099 88.0651 142.799 88.7651 143.799 91.3651C145.699 95.8651 148.099 111.465 148.099 111.465C148.099 111.465 149.699 108.765 151.199 105.765C151.699 104.865 153.299 103.165 155.199 103.965C157.099 104.765 157.299 106.065 156.399 109.365C155.599 112.865 153.899 119.665 151.199 124.265C151.099 124.465 151.299 126.165 151.499 127.965C151.599 128.765 151.699 129.665 151.799 130.465C153.699 138.965 168.999 192.665 171.199 195.265C175.299 200.165 185.299 205.065 194.599 209.565C200.299 212.365 205.699 214.965 209.299 217.365C210.399 218.065 211.699 218.765 213.099 219.565C219.599 223.065 228.299 227.665 227.699 239.165Z" fill="#D9A48A"/>
<path d="M188.499 205.865L170.299 235.565C179.499 240.665 199.899 251.365 207.799 254.065C217.699 257.365 222.799 255.965 225.999 253.265C229.199 250.565 230.299 236.865 228.199 230.565C226.499 225.565 219.699 220.865 216.499 219.065L188.499 205.865Z" fill="#BA79E2"/>
<path d="M141.698 107.965C141.698 107.965 138.598 93.4648 137.898 89.9648" stroke="#424D51" stroke-linecap="round" stroke-linejoin="round"/>
<path d="M136.4 109.364C136.4 109.364 134.3 96.8645 132.9 91.3645C132.5 89.9645 131.9 88.2645 131 87.0645" stroke="#424D51" stroke-linecap="round" stroke-linejoin="round"/>
<path d="M130.898 111.064C130.898 111.064 128.498 97.4641 127.598 93.9641C127.298 93.2641 126.698 91.1641 125.398 90.1641" stroke="#424D51" stroke-linecap="round" stroke-linejoin="round"/>
<path d="M148.018 111.501C146.614 114.924 143.919 114.766 142.445 115.981C138.863 118.976 139.832 122.94 141.829 124.76" stroke="#424D51" stroke-linecap="round" stroke-linejoin="round"/>
</svg>
