<svg width="424" height="424" viewBox="0 0 424 424" fill="none" xmlns="http://www.w3.org/2000/svg">
<path d="M147.5 186.6C149.5 180.2 151.4 173.9 153.2 167.4C156.6 155.8 160 144.2 163 132.5C166.1 120.4 178 120.2 188.3 120.3C204.2 120.5 220 121.3 235.9 123.1C264.9 126.4 255.8 157.1 230 155.2C215.9 154.2 188 151.2 188 151.2C183.3 162.5 178.5 173.8 174 185.1C172.8 188 171.6 190.8 170.7 193.8C170.3 195.1 168.8 198.8 169.3 200.1C171.5 205 172.3 211.9 172.7 215.5V215.6C173.1 219 172.8 220.2 170.8 220.8C168.8 221.4 167.4 219.4 167 218.5C165.8 215.4 164.6 212.5 164.6 212.5C164.6 212.5 160.3 227.7 157.9 232C156.5 234.4 154.8 234.9 154 234.6C151.9 233.9 152.1 232.4 152.1 232.3C151.4 235 149.5 238.4 146.4 237.5C144.2 236.8 144.8 234.8 144.8 234.5C144 235.5 142.7 236.6 140.6 235.6C138 234.4 139 231.1 139 231.1C134 232 135.1 226.3 135.3 225.6C135.3 225.6 135.3 225.6 135.3 225.5C137.3 215.6 140.7 206 144.1 196.5C145.3 193.2 146.4 189.9 147.5 186.6Z" fill="#EFBEA9"/>
<path d="M200.699 153.6L205.299 120.1L235.899 122.5L263.399 138.3L217.899 155.1L200.699 153.6Z" fill="#FFDBD5"/>
<path d="M164.377 211.927C163.143 208.439 160.443 208.465 159.03 207.179C155.514 204.454 156.761 200.101 158.844 198.38" stroke="#424D51" stroke-linecap="round" stroke-linejoin="round"/>
<path d="M157.701 215.4C157.701 215.4 153.001 229.4 151.801 232.8" stroke="#424D51" stroke-linecap="round" stroke-linejoin="round"/>
<path d="M152.6 213.301C152.6 213.301 149 225.401 147 230.801C146.5 232.201 145.7 233.801 144.6 234.801" stroke="#424D51" stroke-linecap="round" stroke-linejoin="round"/>
<path d="M147.4 211C147.4 211 143.4 224.2 142.1 227.6C141.8 228.3 140.9 230.3 139.6 231.1" stroke="#424D51" stroke-linecap="round" stroke-linejoin="round"/>
<path fill-rule="evenodd" clip-rule="evenodd" d="M208.199 191.699C208.199 191.699 213.699 121.899 243.699 121.699C271.699 125.699 269.599 154.599 267.399 161.699C265.099 168.799 256.499 197.199 256.499 197.199C256.499 197.199 212.199 205.999 208.199 191.699Z" fill="#FFDBD5"/>
<path d="M181.301 239.699C181.301 239.699 205.101 202.799 207.301 200.599C207.701 200.199 208.201 199.599 208.801 198.799C211.801 195.099 217.401 188.199 225.201 189.799C230.101 190.799 236.301 192.099 242.101 193.399C247.701 194.599 252.901 195.699 256.301 196.399C258.301 196.799 256.301 203.499 254.501 208.599C254.601 208.699 254.701 208.799 254.701 208.799C254.701 208.799 254.501 208.999 254.301 209.399C253.901 210.499 253.501 211.499 253.201 212.299C252.901 212.999 252.801 213.499 252.701 213.799C252.001 215.999 213.301 264.299 213.301 264.299C207.101 272.499 201.501 279.899 197.801 284.799C192.201 291.999 185.801 297.499 176.001 295.299C168.001 293.499 79.8008 265.699 79.8008 265.699L95.1008 234.599C95.1008 234.599 159.301 252.199 170.101 255.399C171.201 255.699 174.601 250.399 178.701 243.899C179.501 242.599 180.401 241.199 181.301 239.699Z" fill="#EA7A79"/>
<path fill-rule="evenodd" clip-rule="evenodd" d="M121 241.399L108.9 276.699L74.5 265.199L85 231.199L121 241.399Z" fill="#FFDBD5"/>
<path fill-rule="evenodd" clip-rule="evenodd" d="M93.8996 237.399C93.8996 237.399 95.4996 234.299 93.2996 232.399C91.7996 231.199 90.2996 231.599 89.0996 232.099C89.0996 232.099 89.0996 230.199 87.5996 227.699C86.0996 225.199 83.1996 220.899 79.8996 220.399C78.3996 220.199 61.2996 251.399 61.2996 251.399L41.5996 282.999C41.5996 282.999 48.6996 285.499 54.9996 279.299C60.6996 273.799 61.5996 272.299 63.9996 269.299C65.4996 267.399 67.2996 266.199 69.4996 266.399C72.6996 266.599 74.5996 265.899 77.2996 263.799C81.5996 260.699 91.9996 242.199 93.8996 237.399Z" fill="#FFB6A9"/>
<path fill-rule="evenodd" clip-rule="evenodd" d="M79.7992 220.3C81.2992 220 86.7992 232.1 83.2992 239.4C80.0992 246.2 71.6992 247.3 68.1992 251C65.8992 253.4 63.2992 257.6 61.0992 261.3C60.0992 262.9 47.5992 283.4 47.5992 283.4C47.5992 283.4 41.0992 286.1 40.4992 282.7C40.0992 280.7 78.3992 220.6 79.7992 220.3Z" fill="#D9A48A"/>
<path d="M291.5 235.5C284 229 276.5 222.4 269 215.8C263.4 210.8 257.7 205.7 252 200.8C250.2 199.3 245.4 193.7 242.8 193.7C242.6 193.7 241.8 193.5 240.5 193.1C232.8 191.1 209.5 186.7 208.1 187.3C207.8 188.8 207.4 190.3 206.9 191.7C205.5 196.5 204.1 201.1 206.2 209.6C209.4 222.9 225.1 232.1 235.2 239.8C244.4 246.7 253.6 253.7 262.8 260.6C267 263.8 271.2 266.9 275.4 270C277.6 271.6 283.2 274.8 283.5 278C284.6 289.2 285.2 362.5 285.2 362.5L320 360.9C320 360.9 320.3 281.7 320.3 273.5C320.3 263.9 318.7 259.4 311.4 252.9C304.8 247 298.2 241.3 291.5 235.5Z" fill="#EA7A79"/>
<path d="M233.75 238.6C228 235.183 215 225.75 209 215.35" stroke="#424D51" stroke-linecap="round" stroke-linejoin="round"/>
<path fill-rule="evenodd" clip-rule="evenodd" d="M284.199 328.599L321.199 327.699L320.099 363.899L284.499 363.699L284.199 328.599Z" fill="#FFDBD5"/>
<path d="M255.999 204.599L249.199 198.699L255.999 204.599Z" stroke="#424D51" stroke-linecap="round" stroke-linejoin="round"/>
<path fill-rule="evenodd" clip-rule="evenodd" d="M287.301 362.6C287.301 362.6 283.801 362.9 283.401 365.8C283.201 367.7 284.301 368.7 285.401 369.5C285.401 369.5 283.801 370.5 282.501 373.1C281.201 375.7 279.001 380.5 280.401 383.5C281.001 384.9 316.501 382.6 316.501 382.6L353.801 382.3C353.801 382.3 352.201 374.9 343.501 372.9C335.801 371.1 334.101 371 330.301 370.7C327.901 370.5 325.901 369.5 324.901 367.6C323.401 364.7 321.701 363.5 318.601 362.4C313.601 360.6 292.401 361.7 287.301 362.6Z" fill="#FFB6A9"/>
<path fill-rule="evenodd" clip-rule="evenodd" d="M280.399 383.7C279.299 382.6 286.599 371.5 294.699 370.5C302.199 369.6 307.599 376.001 312.599 377.101C315.799 377.801 320.799 377.701 325.099 377.601C326.999 377.601 350.999 377.2 350.999 377.2C350.999 377.2 356.799 381.301 354.199 383.601C352.699 384.901 281.399 384.7 280.399 383.7Z" fill="#D9A48A"/>
<path fill-rule="evenodd" clip-rule="evenodd" d="M253.999 97.2997C253.999 97.2997 267.999 94.6997 265.299 86.2997C262.199 76.3997 253.899 76.3997 250.499 77.1997C248.099 77.6997 246.899 78.9997 246.899 78.9997C246.899 78.9997 243.699 77.3997 237.699 78.6997C231.699 79.9997 225.599 84.8997 222.999 93.4997C221.099 99.6997 219.599 106.9 226.399 113.8C230.899 118.4 241.599 119.5 243.799 112.7C245.899 105.8 253.999 97.2997 253.999 97.2997Z" fill="#AF836B"/>
<path fill-rule="evenodd" clip-rule="evenodd" d="M256.899 127.6C257.999 122.7 258.799 115.9 259.099 112.8C259.099 112.5 259.199 112.2 259.199 112C259.199 111.9 259.199 111.7 259.199 111.6C259.799 106.7 260.099 104.1 253.599 101.7C244.299 98.3001 245.099 108.7 245.099 108.7C245.099 108.7 240.099 114.3 236.899 118.9C234.099 122.1 228.299 130.6 230.599 130.3C231.899 130.1 233.099 129.8 234.399 129.6C239.799 128.5 245.199 127.4 253.699 130.6C261.499 133.5 260.999 132 259.799 130.4C259.299 129.6 258.299 128.6 256.899 127.6Z" fill="#EFBEA9"/>
<path fill-rule="evenodd" clip-rule="evenodd" d="M248.799 106.4C248.799 106.4 261.599 116 268.399 109.1C275.199 102.2 270.199 95.8998 269.799 95.3998C269.499 94.8998 259.499 85.4998 254.999 84.3998C250.499 83.2998 242.399 84.0998 239.499 90.8998C236.599 97.6998 239.999 101.2 243.399 103.9C245.099 105.3 248.799 106.4 248.799 106.4Z" fill="#EFBEA9"/>
<path fill-rule="evenodd" clip-rule="evenodd" d="M241.099 102.7C241.899 102.9 248.699 98.7999 248.899 93.1999C248.899 93.0999 263.699 86.9999 255.399 82.1999C255.399 82.1999 247.999 78.6999 240.399 87.5999C233.999 95.0999 240.599 102.5 241.099 102.7Z" fill="#AF836B"/>
<path fill-rule="evenodd" clip-rule="evenodd" d="M246.499 100C245.599 100 237.499 99.9001 238.099 105.5C238.699 111.1 244.999 109.7 245.599 109.2C247.099 108.1 248.199 107.2 248.699 105.3C249.599 102.1 248.199 100.1 246.499 100Z" fill="#EFBEA9"/>
<path d="M257.599 102.7C261.199 104.5 262.799 100.7 262.799 100.7" stroke="#424D51" stroke-width="0.729" stroke-linecap="round" stroke-linejoin="round"/>
<path d="M257.499 97.0001C257.499 97.0001 259.199 96.3001 259.899 97.2001C260.599 98.2001 259.599 99.0001 258.999 99.5001" stroke="#424D51" stroke-width="0.729" stroke-linecap="round" stroke-linejoin="round"/>
<path d="M256.999 94.2997C256.999 94.2997 256.399 92.3997 257.399 91.0997C258.399 89.6997 259.599 89.6997 260.799 89.9997" stroke="#424D51" stroke-width="0.729" stroke-linecap="round" stroke-linejoin="round"/>
<path d="M257.399 91.6998C257.499 91.0998 257.999 90.5998 258.599 90.6998C259.199 90.7998 259.699 91.2998 259.599 91.8998C259.499 92.4998 258.999 92.9998 258.399 92.8998C257.799 92.8998 257.299 92.2998 257.399 91.6998Z" stroke="#424D51" stroke-width="0.729" stroke-linecap="round" stroke-linejoin="round"/>
<path d="M250.499 102.4C250.499 102.4 249.899 100.5 250.899 99.1998C251.899 97.7998 253.099 97.7998 254.299 98.0998" stroke="#424D51" stroke-width="0.729" stroke-linecap="round" stroke-linejoin="round"/>
<path d="M250.899 99.6998C250.999 99.0998 251.499 98.5998 252.099 98.6998C252.699 98.7998 253.199 99.2998 253.099 99.8998C252.999 100.5 252.499 101 251.899 101C251.299 100.9 250.799 100.4 250.899 99.6998Z" stroke="#424D51" stroke-width="0.729" stroke-linecap="round" stroke-linejoin="round"/>
<path fill-rule="evenodd" clip-rule="evenodd" d="M259.199 111.3C259.199 111.3 255.699 110.1 252.999 107.9C250.099 105.5 258.599 116.5 258.599 116.5L259.199 111.3Z" fill="#424D51"/>
<path d="M244.899 103.9C244.499 104.2 243.799 105 243.599 105.8M241.999 104.3C241.999 104.3 243.199 103.6 244.899 103.9L241.999 104.3ZM246.499 104.4C245.899 104.1 245.399 104 244.899 103.9L246.499 104.4Z" stroke="#424D51" stroke-width="0.729" stroke-linecap="round" stroke-linejoin="round"/>
<path fill-rule="evenodd" clip-rule="evenodd" d="M231.601 133.9C225.801 139.1 223.301 149.7 229.301 159.6C235.901 170.6 244.001 182.4 249.401 189.1C249.801 189.6 250.301 190.2 250.701 190.8C255.201 196.4 261.101 203.8 268.601 208.1C277.201 213 316.901 199.3 335.001 193.4C349.401 188.6 364.301 185.7 378.301 179.8C378.301 179.8 378.301 179.8 378.401 179.8C379.101 179.5 384.401 177.2 380.801 173.6C380.801 173.6 384.201 172.6 383.701 169.7C383.301 167.5 381.701 167 380.401 166.9C380.701 166.8 382.701 166.1 382.001 163.9C381.001 160.8 377.101 161.2 374.501 162.2C374.601 162.1 375.901 161.4 375.301 159.3C375.101 158.4 373.701 157.4 370.901 157.6C366.001 158 351.101 163.2 351.101 163.2C351.101 163.2 352.801 160.5 354.701 157.8C355.201 157 356.001 154.7 354.401 153.4C352.801 152.1 351.601 152.6 349.101 154.8C346.401 157.2 341.201 161.8 338.401 166.4C329.901 168.2 285.201 178.3 284.001 176.4C283.301 175.2 281.501 172.5 279.501 169.5C276.901 165.6 273.901 161 271.901 157.7C271.101 156.4 270.201 154.9 269.301 153.4C261.101 139.7 248.801 118.8 231.601 133.9Z" fill="#EFBEA9"/>
<path d="M274.5 161.099L244.2 181.699C242.7 179.299 238.2 172.699 232.6 165.299C225.7 155.999 225.2 150.299 226.2 142.799C227.2 135.299 232.8 131.899 236 130.299C240.3 128.199 245.6 127.999 250.4 129.699C256.7 132.099 268.5 151.099 274.5 161.099Z" fill="#FFDBD5"/>
<path d="M350.4 163.801C348.7 164.201 347 164.601 345.1 165.501" stroke="#424D51" stroke-linecap="round" stroke-linejoin="round"/>
<path d="M357 167.5C357 167.5 371.2 163.4 374.7 162.4" stroke="#424D51" stroke-linecap="round" stroke-linejoin="round"/>
<path d="M358.301 172.799C358.301 172.799 370.301 168.899 375.901 167.499C377.301 167.099 379.101 166.899 380.601 167.199" stroke="#424D51" stroke-linecap="round" stroke-linejoin="round"/>
<path d="M359.301 178.499C359.301 178.499 372.501 174.299 376.001 173.499C376.801 173.299 378.901 172.899 380.301 173.599" stroke="#424D51" stroke-linecap="round" stroke-linejoin="round"/>
<path d="M230.5 135.4C230.5 135.4 223.4 141.9 226.6 153.4C229.8 164.9 257.2 198.6 257.2 198.6" stroke="#424D51" stroke-linecap="round" stroke-linejoin="round"/>
<path d="M254.1 133.9C254.1 133.9 261.7 138.9 272.4 159.2" stroke="#424D51" stroke-linecap="round" stroke-linejoin="round"/>
<path d="M215.301 154.8C215.301 154.8 217.201 143.7 226.501 131" stroke="#424D51" stroke-linecap="round" stroke-linejoin="round"/>
<path d="M84.5842 197.288C77.2578 193.503 61.6059 199.175 53.8611 215.539" stroke="#424D51" stroke-linecap="round" stroke-linejoin="round"/>
<path d="M85.325 186.949C79.4214 185.748 68.9705 188.538 61.8671 196.607" stroke="#424D51" stroke-linecap="round" stroke-linejoin="round"/>
<path d="M108.733 384.764H41.5311C29.0935 354.912 57.9635 358.164 65.1997 365.231C58.8315 356.884 58.8073 333.303 72.3473 327.958C96.3709 318.475 105.886 360.383 108.733 384.764Z" fill="#F8F8F8"/>
<path d="M237.063 355.25C226.639 358.725 215.406 374.917 211.002 382.94H128.653C122.138 369.547 104.221 372.806 101.687 374.616C99.1534 376.425 83.2235 376.969 93.7239 364.661C106.765 349.376 129.499 357.724 138.065 362.671C137.884 360.559 135.133 354.309 125.577 346.201C115.577 337.717 121.976 331.281 132.636 335.523C142.3 339.369 152.001 356.336 152.001 356.336C152.001 356.336 156.561 325.868 166.299 312.538C175.619 299.779 182.768 309.281 179.148 318.691C176.028 326.804 173.839 339.324 173.9 344.934C180.717 336.126 199.158 318.855 216.793 313.805C236.068 308.285 239.235 322.074 228.014 325.75C216.793 329.426 192.115 361.176 192.115 361.176C192.115 361.176 213.115 346.201 235.073 351.811C238.891 352.787 239.642 354.391 237.063 355.25Z" fill="#ECECEC"/>
</svg>
