<svg width="424" height="424" viewBox="0 0 424 424" fill="none" xmlns="http://www.w3.org/2000/svg">
<path d="M73.2688 375.454C71.5096 375.454 68.6613 362.888 67.457 356.605C67.457 354.458 68.0853 350.51 70.5985 351.892C73.7401 353.62 74.9967 361.945 75.4679 366.029C75.9391 370.113 75.4679 375.454 73.2688 375.454Z" fill="#ECECEC"/>
<path d="M80.3373 371.606C80.3373 368.02 82.0913 358.961 83.0861 355.113C84.0727 350.835 86.3061 351.892 86.9344 353.62C87.5627 355.349 86.5418 363.281 85.7564 366.422C84.971 369.564 84.2642 374.669 83.0861 375.061C81.908 375.454 80.3373 374.747 80.3373 371.606Z" fill="#ECECEC"/>
<path d="M89.3691 373.648C88.5523 372.203 91.5944 366.239 93.2175 363.438C94.8271 360.453 97.1444 359.746 98.4795 361.867C99.8147 363.987 93.6887 372.234 92.8248 373.648C91.9609 375.061 90.3901 375.454 89.3691 373.648Z" fill="#ECECEC"/>
<path d="M197.14 319.115C196.173 322.987 175.764 350.374 165.681 363.583C145.716 378.557 127.416 357.987 123.18 341.349C120.943 332.563 119.549 314.276 123.179 298.546C126.809 282.816 136.416 288.941 137.699 295.672C138.244 298.529 139.061 316.796 139.212 325.619C141.632 317.855 148.499 300.058 156.606 290.983C166.739 279.639 173.557 289.08 171.579 295.672C170.49 299.302 160.336 320.88 155.396 331.216C163.765 325.468 180.324 313.005 186.858 310.343C195.025 307.015 198.35 314.275 197.14 319.115Z" fill="#ECECEC"/>
<path d="M189.424 383.091C155.87 383.091 143.293 383.394 136.789 380.671C120.233 373.739 122.034 358.849 133.342 347.303C145.094 335.303 158.569 336.808 162.804 345.278C176.266 331.515 212.09 312.053 241.908 323.65C274.287 336.242 261.873 356.118 252.496 362.521C268.093 369.428 263.343 383.091 244.968 383.091H189.424Z" fill="#F8F8F8"/>
<path fill-rule="evenodd" clip-rule="evenodd" d="M273.4 361.9L238.1 362.4C238.1 362.4 232.6 284.5 230.9 276.5C227.7 260.8 228.8 230.7 230.2 224C235.1 200.9 268.7 209.1 269.3 231.6C269.7 247 270.5 264 270.9 272.2C271.7 285 273.4 361.9 273.4 361.9Z" fill="#E5CDF4"/>
<path fill-rule="evenodd" clip-rule="evenodd" d="M273.7 321.199L235.4 322.899L236.1 365.099L274 363.499L273.7 321.199Z" fill="#DCBEF0"/>
<path fill-rule="evenodd" clip-rule="evenodd" d="M265.4 341.1L238.1 362.5C238.1 362.5 190.5 276.9 187.1 269.4C182.9 260.2 187.6 250.2 192 242.2C203.3 221.7 230.1 176.1 230.1 176.1C230.1 176.1 265.9 178.5 261.2 198.6C257.5 214.2 252 222.6 242.2 238.7C234.2 251.9 229.2 260.3 230.2 262C237.8 274.8 265.4 341.1 265.4 341.1Z" fill="#E5CDF4"/>
<path fill-rule="evenodd" clip-rule="evenodd" d="M257.801 321.301L221.701 335.301L236.101 365.101L274.001 363.501L257.801 321.301Z" fill="#DCBEF0"/>
<path d="M273.3 361C264.7 337.3 233.3 268.1 231.9 264.7C230.8 262.2 229.7 261 230.9 259" stroke="#424D51" stroke-linecap="round" stroke-linejoin="round"/>
<path d="M230.799 259C230.799 259 234.499 251.6 244.599 233.5" stroke="#424D51" stroke-linecap="round" stroke-linejoin="round"/>
<path fill-rule="evenodd" clip-rule="evenodd" d="M270.199 359.9C270.199 359.9 273.699 360 274.199 362.9C274.499 364.8 273.399 365.9 272.399 366.7C272.399 366.7 273.999 367.6 275.499 370.1C276.999 372.6 279.299 377.3 278.099 380.4C277.599 381.8 241.999 381.4 241.999 381.4L204.799 383.1C204.799 383.1 206.099 375.7 214.599 373.2C222.199 371 223.899 370.9 227.699 370.3C229.999 369.9 231.999 368.9 232.899 366.9C234.299 364 235.899 362.7 238.999 361.4C243.899 359.2 265.099 359.2 270.199 359.9Z" fill="#C5B0F0"/>
<path fill-rule="evenodd" clip-rule="evenodd" d="M278.2 380.6C279.2 379.4 271.4 368.7 263.3 368.2C255.8 367.7 250.7 374.4 245.8 375.7C242.6 376.6 237.7 376.7 233.4 376.8C231.5 376.9 207.5 377.7 207.5 377.7C207.5 377.7 202 382.1 204.6 384.2C206.1 385.5 277.3 381.7 278.2 380.6Z" fill="#9F78BA"/>
<path fill-rule="evenodd" clip-rule="evenodd" d="M241.699 372.6C243.799 372.8 245.599 371.4 245.899 369.4C246.099 367.4 244.699 365.6 242.599 365.3C240.499 365.1 238.699 366.5 238.399 368.5C238.199 370.5 239.699 372.4 241.699 372.6Z" fill="#DCBEF0"/>
<path fill-rule="evenodd" clip-rule="evenodd" d="M233 85.3006C225.6 75.4006 241.5 72.3006 240.5 63.0006C239.9 57.7006 252.2 45.9006 255.6 46.7006C258 47.2006 260.7 45.3006 260.7 45.3006C260.7 45.3006 262.8 45.2006 268.8 46.5006C274.8 47.8006 272.7 57.4006 278.6 59.4006C293.6 64.6006 297.5 82.5006 289.4 86.7006C281.3 90.9006 296.7 103.001 283.3 115.401C275 121.501 264.4 117.701 251.4 113.001C243.4 110.101 240.4 108.101 236.4 104.901C227.2 99.0006 236.3 89.8006 233 85.3006Z" fill="#89716E"/>
<path fill-rule="evenodd" clip-rule="evenodd" d="M277.7 88.2998C278.5 90.2998 255 91.2998 254.2 88.2998C252.8 82.9998 251.8 73.8998 251.5 71.0998C250.9 65.9998 250.4 63.2998 257.1 60.8998C266.5 57.4998 266.1 68.4998 266.1 68.4998C266.1 68.4998 270.7 77.7998 277.7 88.2998Z" fill="#FDDCC4"/>
<path fill-rule="evenodd" clip-rule="evenodd" d="M262 65.4998C262 65.4998 249.2 75.0998 242.4 68.1998C235.6 61.2998 240.7 54.9998 241 54.4998C241.3 53.9998 251.3 44.5998 255.8 43.3998C260.3 42.2998 268.4 43.0998 271.3 49.8998C274.2 56.6998 270.8 60.2998 267.4 62.8998C265.6 64.4998 262 65.4998 262 65.4998Z" fill="#FDDCC4"/>
<path fill-rule="evenodd" clip-rule="evenodd" d="M266.6 62.8999C265.8 63.0999 262.1 57.7999 261.8 52.1999C261.8 52.0999 247 45.4999 255.3 41.1999C255.3 41.1999 262.7 37.6999 270.3 46.5999C276.7 54.1999 270 62.8999 266.6 62.8999Z" fill="#89716E"/>
<path fill-rule="evenodd" clip-rule="evenodd" d="M262.5 59.5C263.4 59.3 271.5 59.4 270.9 65C270.3 70.6 264 69.2 263.3 68.7C261.8 67.6 260.7 66.7 260.2 64.8C259.5 61.6 260.3 59.9 262.5 59.5Z" fill="#FDDCC4"/>
<path fill-rule="evenodd" clip-rule="evenodd" d="M251.344 70.4065C251.344 70.4065 255.1 69.2002 257.8 67.0002C260.7 64.6002 252.031 75.7656 252.031 75.7656L251.344 70.4065Z" fill="#424D51"/>
<path fill-rule="evenodd" clip-rule="evenodd" d="M281.6 44.5001C283.1 46.7001 283.3 50.5001 280.1 52.7001C276.8 55.0001 272.4 55.1001 269.9 49.9001C268.4 46.8001 270.3 43.0001 274 41.8001C276.5 41.0001 279.4 41.2001 281.6 44.5001Z" fill="#89716E"/>
<path fill-rule="evenodd" clip-rule="evenodd" d="M253.1 61.6002C253 61.5002 249.5 60.2002 247.9 59.2002C247.4 58.9002 246.9 61.5002 248.7 62.6002C250.8 63.7002 253.7 61.9002 253.1 61.6002Z" fill="white"/>
<path d="M253.1 56.1C253.1 56.1 251.4 55.4 250.7 56.4C250 57.3 250.9 58.2 251.6 58.7" stroke="#424D51" stroke-width="0.729" stroke-linecap="round" stroke-linejoin="round"/>
<path d="M253.5 53.3998C253.5 53.3998 254.1 51.4998 253.1 50.1998C252.1 48.7998 250.9 48.7998 249.7 49.0998" stroke="#424D51" stroke-width="0.729" stroke-linecap="round" stroke-linejoin="round"/>
<path d="M253.2 50.7999C253.1 50.1999 252.6 49.6999 252 49.7999C251.4 49.8999 250.9 50.3999 250.9 50.9999C251 51.5999 251.5 52.0999 252.1 51.9999C252.8 51.9999 253.2 51.3999 253.2 50.7999Z" stroke="#424D51" stroke-width="0.729" stroke-linecap="round" stroke-linejoin="round"/>
<path d="M260 61.4999C260 61.4999 260.6 59.5999 259.6 58.2999C258.6 56.8999 257.4 56.8999 256.2 57.1999" stroke="#424D51" stroke-width="0.729" stroke-linecap="round" stroke-linejoin="round"/>
<path d="M259.7 58.8998C259.6 58.2998 259.1 57.7998 258.5 57.7998C257.9 57.8998 257.4 58.3998 257.4 58.9998C257.5 59.5998 258 60.0998 258.6 60.0998C259.2 59.9998 259.7 59.4998 259.7 58.8998Z" stroke="#424D51" stroke-width="0.729" stroke-linecap="round" stroke-linejoin="round"/>
<path d="M264.5 63.5C264.9 63.8 265.6 64.6 265.8 65.4M267.4 63.9C267.4 63.9 266.2 63.2 264.5 63.5L267.4 63.9ZM263 64C263.6 63.7 264.1 63.6 264.6 63.5L263 64Z" stroke="#424D51" stroke-width="0.729" stroke-linecap="round" stroke-linejoin="round"/>
<path fill-rule="evenodd" clip-rule="evenodd" d="M272.201 160.301C270.401 150.301 287.501 95.3006 275.701 85.5006C253.301 67.1006 237.001 104.401 235.501 111.701C233.901 119.001 239.301 161.301 239.301 161.301C239.301 161.301 274.001 170.401 272.201 160.301Z" fill="#E5CDF4"/>
<path fill-rule="evenodd" clip-rule="evenodd" d="M277.3 230.299C277.3 230.299 265.2 234.799 241.7 233.199C225 232.099 199.9 223.599 199.9 223.599C199.9 223.599 231.9 169.399 233 167.399C234.7 164.399 237.9 157.599 239 157.499C249.2 156.899 271.2 156.099 272.1 156.899C279.1 167.399 279.3 186.599 271.1 196.399C270 208.599 277.3 230.299 277.3 230.299Z" fill="#ECDDF6"/>
<path fill-rule="evenodd" clip-rule="evenodd" d="M152.698 102.066C139.797 97.6684 138.351 104.081 137.808 107.006C137.343 109.714 138.902 117.262 139.015 118.662C139.35 120.735 139.685 122.808 140.256 124.945C141.335 128.822 142.947 132.512 145.815 135.594C152.245 142.557 164.449 144.738 174.094 142.267C180.582 140.509 186.295 136.749 190.228 131.757C194.632 126.183 195.512 119.76 195.119 113.138C195.004 111.03 194.724 105.807 192.791 99.4342C184.838 93.5276 159.253 102.121 152.698 102.066Z" fill="#EA7A79"/>
<path fill-rule="evenodd" clip-rule="evenodd" d="M144.154 92.5066C143.464 93.1246 142.884 93.7249 142.32 94.4239C139.107 98.2862 137.641 103.183 137.747 108.028C137.998 114.47 140.607 120.836 146.119 124.908C151.756 129.062 159.369 130.769 166.756 130.385C177.836 129.81 187.585 124.486 192.042 115.053C196.515 105.72 193.236 95.2087 184.796 89.077C176.213 82.7657 164.141 82.7925 154.059 86.7522C150.431 88.0478 146.915 90.0344 144.154 92.5066Z" fill="#FFB6A9"/>
<path d="M273.099 84.9999C279.299 89.6999 280.299 96.0999 273.099 110.4C269.899 118 256.999 132 247.599 142.3C243.599 146.7 240.199 150.4 238.399 152.7C232.299 160.3 225.599 162.4 215.599 160.5C198.899 157.4 163.599 122.3 158.999 117.4C156.099 114.6 151.499 109.4 150.899 100.4C150.099 88.8999 162.299 83.7999 166.799 86.0999C171.299 88.3999 173.299 91.4999 175.099 98.8999C175.899 102.1 176.599 104.7 176.999 105.8C183.299 111.9 213.499 131.3 215.599 130.3C217.699 129.2 221.799 123.3 225.399 118.1C226.699 116.3 227.899 114.5 228.899 113.1C229.999 111.5 231.299 109.6 232.799 107.5C241.999 93.8999 256.499 72.3999 273.099 84.9999Z" fill="#FDDCC4"/>
<path d="M255.001 134.8L227.201 112.6C232.001 105.3 246.188 88.4252 252.188 83.1252C258.288 77.8252 269.601 80.3001 273.901 83.5001C278.101 86.6001 280.801 94.6001 276.201 105.8C272.501 114.7 260.501 128.8 255.001 134.8Z" fill="#E5CDF4"/>
<path d="M273.6 108.199C270.1 119.599 254.6 134.999 254.6 134.999" stroke="#424D51" stroke-linecap="round" stroke-linejoin="round"/>
<path fill-rule="evenodd" clip-rule="evenodd" d="M132.814 68.9906C131.104 69.0644 130.992 75.2618 130.957 75.6726C131.12 79.1916 131.876 82.6148 132.83 86.0061C134.708 91.9831 137.687 97.8832 143.112 101.362C148.979 105.073 157.009 107.118 163.756 105.622C172.577 103.791 181.578 98.6893 185.139 90.0098C187.818 83.3975 186.421 76.6338 184.842 70.0008C184.102 66.6763 183.043 61.3774 178.919 60.9298C171.887 60.0406 138.257 68.8199 132.814 68.9906Z" fill="#EA7A79"/>
<path fill-rule="evenodd" clip-rule="evenodd" d="M143.057 55.2801C136.53 58.7664 131.57 64.4305 131.038 72.4178C129.872 89.0166 147.439 97.421 161.756 94.4988C172.041 92.3296 187.837 82.8879 184.214 67.3672C182.169 58.4796 174.275 52.2596 165.387 51.164C158.272 50.3895 149.865 51.6472 143.057 55.2801Z" fill="#FFB6A9"/>
<path fill-rule="evenodd" clip-rule="evenodd" d="M156.803 65.1127C153.956 65.6742 151.319 66.9108 149.486 68.7267C145.388 72.8331 146.9 79.6796 152.382 81.6299C156.14 82.947 160.468 82.1461 164.06 80.5525C169.364 78.2768 171.537 71.0373 166.723 66.9531C164.169 64.9349 160.341 64.4395 156.803 65.1127Z" fill="#EA7A79"/>
<path d="M198.554 54.4014C199.315 46.1902 188.187 33.8077 170.113 32.7646" stroke="#424D51" stroke-linecap="round" stroke-linejoin="round"/>
<path d="M208.416 51.211C207.315 45.288 200.809 36.6462 190.666 33.0869" stroke="#424D51" stroke-linecap="round" stroke-linejoin="round"/>
<mask id="mask0_12_4697" style="mask-type:alpha" maskUnits="userSpaceOnUse" x="199" y="156" width="79" height="78">
<path fill-rule="evenodd" clip-rule="evenodd" d="M277.3 230.299C277.3 230.299 265.2 234.799 241.7 233.199C225 232.099 199.9 223.599 199.9 223.599C199.9 223.599 231.9 169.399 233 167.399C234.7 164.399 237.9 157.599 239 157.499C249.2 156.899 271.2 156.099 272.1 156.899C279.1 167.399 279.3 186.599 271.1 196.399C270 208.599 277.3 230.299 277.3 230.299Z" fill="#ECDDF6"/>
</mask>
<g mask="url(#mask0_12_4697)">
<circle cx="247.855" cy="205.994" r="3" fill="white"/>
<circle cx="247.855" cy="153.994" r="3" fill="white"/>
<circle cx="247.855" cy="231.994" r="3" fill="white"/>
<circle cx="247.855" cy="179.994" r="3" fill="white"/>
<circle cx="201.355" cy="205.994" r="3" fill="white"/>
<circle cx="201.355" cy="153.994" r="3" fill="white"/>
<circle cx="201.355" cy="231.994" r="3" fill="white"/>
<circle cx="201.355" cy="179.994" r="3" fill="white"/>
<circle cx="241.855" cy="218.994" r="3" fill="white"/>
<circle cx="241.855" cy="166.994" r="3" fill="white"/>
<circle cx="241.855" cy="192.994" r="3" fill="white"/>
<circle cx="263.355" cy="205.994" r="3" fill="white"/>
<circle cx="263.355" cy="153.994" r="3" fill="white"/>
<circle cx="263.355" cy="231.994" r="3" fill="white"/>
<circle cx="263.355" cy="179.994" r="3" fill="white"/>
<circle cx="216.855" cy="205.994" r="3" fill="white"/>
<circle cx="216.855" cy="153.994" r="3" fill="white"/>
<circle cx="216.855" cy="231.994" r="3" fill="white"/>
<circle cx="216.855" cy="179.994" r="3" fill="white"/>
<circle cx="257.355" cy="218.994" r="3" fill="white"/>
<circle cx="257.355" cy="166.994" r="3" fill="white"/>
<circle cx="257.355" cy="192.994" r="3" fill="white"/>
<circle cx="210.855" cy="218.994" r="3" fill="white"/>
<circle cx="210.855" cy="166.994" r="3" fill="white"/>
<circle cx="210.855" cy="192.994" r="3" fill="white"/>
<circle cx="278.855" cy="205.994" r="3" fill="white"/>
<circle cx="278.855" cy="153.994" r="3" fill="white"/>
<circle cx="278.855" cy="231.994" r="3" fill="white"/>
<circle cx="278.855" cy="179.994" r="3" fill="white"/>
<circle cx="232.355" cy="205.994" r="3" fill="white"/>
<circle cx="232.355" cy="153.994" r="3" fill="white"/>
<circle cx="232.355" cy="231.994" r="3" fill="white"/>
<circle cx="232.355" cy="179.994" r="3" fill="white"/>
<circle cx="272.855" cy="218.994" r="3" fill="white"/>
<circle cx="272.855" cy="166.994" r="3" fill="white"/>
<circle cx="272.855" cy="192.994" r="3" fill="white"/>
<circle cx="226.355" cy="218.994" r="3" fill="white"/>
<circle cx="226.355" cy="166.994" r="3" fill="white"/>
<circle cx="226.355" cy="192.994" r="3" fill="white"/>
</g>
</svg>
