<svg width="424" height="424" viewBox="0 0 424 424" fill="none" xmlns="http://www.w3.org/2000/svg">
<path fill-rule="evenodd" clip-rule="evenodd" d="M175.201 134.8L210.801 122.4C210.801 122.4 204.601 206.7 204.301 214.9C204.001 224.5 203.401 285.2 203.501 297.1C203.501 304.5 167.801 311.1 165.701 305.7C163.601 300.3 165.201 236 165.601 232.4C167.101 221.3 175.201 134.8 175.201 134.8Z" fill="#EFD9CE"/>
<path fill-rule="evenodd" clip-rule="evenodd" d="M171.301 170.9L208.001 166.3L210.501 124L174.901 135.4L171.301 170.9Z" fill="#CBE4FC"/>
<path d="M172 174.5C172 174.5 199.8 226.4 203.8 242.2" stroke="#424D51" stroke-linecap="round" stroke-linejoin="round"/>
<path fill-rule="evenodd" clip-rule="evenodd" d="M179.2 138.2C179.2 138.2 175.8 139.2 174.4 136.6C173.5 134.9 174.2 133.5 175 132.4C175 132.4 173.2 132 171.1 130C169 128.1 165.3 124.3 165.5 121C165.6 119.5 199.7 109.2 199.7 109.2L234.7 96.5C234.7 96.5 235.7 104 228.3 108.9C221.7 113.3 220.1 113.9 216.7 115.6C214.6 116.6 213 118.2 212.7 120.4C212.2 123.6 211.1 125.3 208.6 127.5C204.5 131 184.3 137.3 179.2 138.2Z" fill="#93BEFA"/>
<path fill-rule="evenodd" clip-rule="evenodd" d="M165.399 120.901C164.799 122.301 175.499 130.201 183.399 128.301C190.699 126.501 193.599 118.601 197.899 115.901C200.699 114.101 205.299 112.501 209.399 111.101C211.199 110.501 233.799 102.501 233.799 102.501C233.799 102.501 237.799 96.7007 234.599 95.4007C232.699 94.5007 165.999 119.501 165.399 120.901Z" fill="#EFD9CE"/>
<path fill-rule="evenodd" clip-rule="evenodd" d="M202.5 117.5C200.5 117.9 199.1 119.8 199.5 121.8C199.9 123.8 201.8 125.1 203.9 124.7C205.9 124.3 207.3 122.4 207 120.4C206.5 118.5 204.6 117.1 202.5 117.5Z" fill="#CBE4FC"/>
<path fill-rule="evenodd" clip-rule="evenodd" d="M265.5 268.4C267 274.6 248.8 282.4 244.4 274.2C243 268.9 242.6 261.4 242.2 258.6C241.6 253.5 241.1 250.8 247.8 248.4C257.2 245 256.8 256 256.8 256C256.8 256 263.9 264.3 265.5 268.4Z" fill="#EFD9CE"/>
<path fill-rule="evenodd" clip-rule="evenodd" d="M252.6 253.501C252.6 253.501 239.8 263.101 233 256.201C226.2 249.301 231.3 243.001 231.6 242.601C232 242.101 242 232.701 246.4 231.601C250.9 230.501 259 231.301 261.9 238.101C264.8 244.901 261.4 248.501 258 251.101C256.2 252.401 252.6 253.501 252.6 253.501Z" fill="#EFD9CE"/>
<path fill-rule="evenodd" clip-rule="evenodd" d="M257 248.101C257 248.101 252.9 245.201 252.7 239.601C252.7 239.501 240.1 233.501 244.4 230.801L253.1 224.801C253.1 224.801 255.7 223.101 258.2 226.301C260.1 228.801 268.2 239.201 268.2 239.201C268.2 239.201 270.4 242.201 267.3 244.501C264.2 246.801 259.6 250.201 259.6 250.201L257 248.101Z" fill="#F1D7AD"/>
<path fill-rule="evenodd" clip-rule="evenodd" d="M242.199 258.3C242.199 258.3 245.699 257.1 248.399 254.9C251.299 252.5 242.699 263.6 242.699 263.6L242.199 258.3Z" fill="#424D51"/>
<path d="M243.6 249.4C240 251.2 238.4 247.4 238.4 247.4" stroke="#424D51" stroke-width="0.729" stroke-linecap="round" stroke-linejoin="round"/>
<path d="M243.7 243.699C243.7 243.699 242 242.999 241.3 243.999C240.6 244.999 241.6 245.799 242.2 246.299" stroke="#424D51" stroke-width="0.729" stroke-linecap="round" stroke-linejoin="round"/>
<path d="M244.2 240.999C244.2 240.999 244.8 239.199 243.8 237.799C242.8 236.399 241.6 236.499 240.4 236.699" stroke="#424D51" stroke-width="0.729" stroke-linecap="round" stroke-linejoin="round"/>
<path d="M243.8 238.4C243.7 237.8 243.2 237.3 242.6 237.4C242 237.5 241.5 238 241.5 238.6C241.6 239.2 242.1 239.7 242.7 239.7C243.4 239.6 243.9 239 243.8 238.4Z" stroke="#424D51" stroke-width="0.729" stroke-linecap="round" stroke-linejoin="round"/>
<path d="M250.601 249.001C250.601 249.001 251.201 247.101 250.201 245.801C249.201 244.401 248.001 244.401 246.801 244.701" stroke="#424D51" stroke-width="0.729" stroke-linecap="round" stroke-linejoin="round"/>
<path d="M250.301 246.4C250.201 245.8 249.701 245.3 249.101 245.4C248.501 245.5 248.001 246 248.101 246.6C248.201 247.2 248.701 247.7 249.301 247.6C249.901 247.6 250.301 247.1 250.301 246.4Z" stroke="#424D51" stroke-width="0.729" stroke-linecap="round" stroke-linejoin="round"/>
<path fill-rule="evenodd" clip-rule="evenodd" d="M253.2 247.099C254.1 246.899 262.2 246.999 261.6 252.599C261 258.199 254.7 256.799 254.1 256.299C252.6 255.199 251.5 254.299 251 252.399C250.1 249.199 251 247.499 253.2 247.099Z" fill="#EFD9CE"/>
<path d="M255.2 251C255.6 251.3 256.3 252.1 256.5 252.9M258.1 251.4C258.1 251.4 256.9 250.8 255.2 251L258.1 251.4ZM253.6 251.5C254.2 251.2 254.7 251.1 255.2 251L253.6 251.5Z" stroke="#424D51" stroke-width="0.729" stroke-linecap="round" stroke-linejoin="round"/>
<path fill-rule="evenodd" clip-rule="evenodd" d="M164.6 303.4L204.3 296.6C204.3 296.6 209.7 324.5 211.3 335.3C211.3 335.3 245.7 348.6 245.2 352.5C244.3 360.7 236 374.7 225.8 379.1C212.3 385 192.3 382 183.4 371.9C164 350 164.6 303.4 164.6 303.4Z" fill="#FFB6A9"/>
<path fill-rule="evenodd" clip-rule="evenodd" d="M123.5 155.201L155.5 141.301C155.5 141.301 195.2 225.001 198.8 232.401C203 241.001 205 241.901 208.1 260.501C212 283.401 216 294.701 214 309.001C213 316.301 178.9 319.201 177.6 310.101C174.8 291.601 169.7 257.101 168.5 253.701C164.6 243.201 123.5 155.201 123.5 155.201Z" fill="#EFD9CE"/>
<path fill-rule="evenodd" clip-rule="evenodd" d="M137.5 186.1L171.1 170.7L147.2 122.6L121.4 150.9L137.5 186.1Z" fill="#CBE4FC"/>
<path fill-rule="evenodd" clip-rule="evenodd" d="M126.2 152.3C126.2 152.3 123.6 154.7 121.2 153C119.7 151.9 119.7 150.4 119.8 149C119.8 149 118 149.4 115.2 148.7C112.4 147.9 107.5 146.2 106.1 143.2C105.5 141.8 131.3 117.3 131.3 117.3L156.8 90.0996C156.8 90.0996 161.1 96.2996 156.7 104C152.8 110.9 151.7 112.2 149.4 115.2C148 117.1 147.3 119.2 148 121.3C149.1 124.4 148.8 126.4 147.5 129.5C145.5 134.4 130.3 149.1 126.2 152.3Z" fill="#93BEFA"/>
<path fill-rule="evenodd" clip-rule="evenodd" d="M106 143C106.1 144.6 119.2 146.8 125.4 141.5C131.1 136.6 130.1 128.3 132.7 123.9C134.4 121 137.8 117.5 140.8 114.4C142.1 113 158.7 95.6996 158.7 95.6996C158.7 95.6996 159.6 88.6996 156.2 88.9996C154.2 89.0996 105.9 141.6 106 143Z" fill="#EFD9CE"/>
<path fill-rule="evenodd" clip-rule="evenodd" d="M137.7 123.199C136 124.499 135.7 126.799 136.9 128.399C138.1 129.999 140.5 130.299 142.1 128.999C143.7 127.699 144.1 125.399 142.9 123.799C141.7 122.299 139.4 121.999 137.7 123.199Z" fill="#CBE4FC"/>
<path fill-rule="evenodd" clip-rule="evenodd" d="M259.1 354.301L276.4 293.701C276.4 293.701 267.7 260.501 255.8 264.601C243.9 268.701 233.2 283.901 229.5 293.201C226.9 299.901 212.8 329.501 216.2 336.701C219.7 343.901 259.1 354.301 259.1 354.301Z" fill="#DEC0F1"/>
<path fill-rule="evenodd" clip-rule="evenodd" d="M176.4 308.4L215.7 299.4C215.7 299.4 222.6 326.9 224.8 337.6C224.8 337.6 259.9 349 259.6 352.9C259.1 361.1 251.6 375.5 241.6 380.5C228.5 387.1 208.3 385.3 198.8 375.6C178.4 354.9 176.4 308.4 176.4 308.4Z" fill="#FFB6A9"/>
<mask id="mask0_12_5451" style="mask-type:alpha" maskUnits="userSpaceOnUse" x="164" y="296" width="96" height="89">
<path d="M204.3 296.6C204.301 296.607 204.69 298.625 205.292 301.783L215.7 299.4C215.7 299.4 222.601 326.901 224.801 337.601C224.937 337.645 259.9 349.008 259.601 352.9C259.101 361.1 251.601 375.5 241.601 380.5C232.353 385.159 219.567 385.632 209.505 382.095C199.332 381.917 189.094 378.362 183.399 371.899C164 349.999 164.6 303.399 164.6 303.399L204.3 296.6Z" fill="#FFB6A9"/>
</mask>
<g mask="url(#mask0_12_5451)">
<path fill-rule="evenodd" clip-rule="evenodd" d="M409.254 216.641C403.855 219.254 396.969 218.775 388.588 214.587C386.743 213.665 385.326 211.928 384.159 209.907C382.983 207.871 381.972 205.389 381.016 202.787C380.55 201.52 380.097 200.226 379.642 198.928C378.197 194.8 376.738 190.636 374.831 187.203C372.339 182.717 369.345 179.964 365.07 180.08C360.59 180.201 354.22 183.442 345.006 192.535C335.869 201.554 331.085 209.574 329.183 216.627C327.289 223.651 328.226 229.814 330.716 235.211C331.26 236.39 331.878 237.533 332.558 238.639C337.901 234.146 345.717 230.41 356.97 227.395C360.421 226.47 363.335 226.417 365.729 227.136C368.149 227.863 369.934 229.35 371.142 231.299C373.507 235.117 373.611 240.609 372.458 245.736C371.297 250.898 368.787 256.046 365.484 259.294C363.826 260.925 361.904 262.139 359.789 262.558C357.637 262.985 355.412 262.561 353.262 261.135C347.216 257.125 338.183 251.017 332.093 242.65C331.996 242.75 331.9 242.851 331.805 242.952C327.024 248.041 325.213 253.992 324.748 260.929C324.453 265.33 325.231 268.849 326.576 271.614C328.052 270.41 329.474 269.459 330.837 268.731C335.576 266.198 339.673 266.339 342.592 268.092C345.456 269.812 346.968 272.974 346.718 275.985C346.459 279.09 344.341 281.899 340.313 282.819C338.874 283.147 336.95 282.946 334.973 282.297C332.962 281.637 330.77 280.474 328.771 278.73C327.769 277.856 326.82 276.84 325.968 275.674C323.22 278.34 320.225 282.003 317.042 286.929C311.106 296.114 304.387 300.843 297.736 302.382C291.092 303.92 284.722 302.227 279.577 298.971C275.847 296.61 272.716 293.401 270.545 289.921C269.704 289.602 268.859 289.274 268.013 288.945C264.347 287.522 260.65 286.087 257.109 285.268C251.951 284.075 247.792 284.365 245.021 287.5C242.128 290.772 240.346 297.526 241.246 310.444C242.137 323.252 245.108 332.105 249.221 338.142C253.317 344.154 258.604 347.458 264.321 349.084C265.539 349.43 266.776 349.7 268.026 349.903C268.182 342.968 270.365 334.747 275.489 324.071C277.035 320.85 278.893 318.604 280.998 317.256C283.126 315.894 285.417 315.507 287.683 315.861C292.12 316.553 296.355 320.051 299.495 324.265C302.655 328.508 304.927 333.766 305.24 338.387C305.398 340.707 305.067 342.957 304.007 344.835C302.929 346.746 301.159 348.158 298.677 348.861C291.662 350.846 281.078 353.74 270.715 352.872L270.718 352.92C270.72 352.946 270.722 352.971 270.724 352.997C271.233 359.968 274.044 365.485 277.786 371.505C280.214 375.41 284.337 377.109 288.748 377.405C288.602 375.346 288.638 373.582 288.828 372.079C289.119 369.788 289.781 368.014 290.789 366.733C291.817 365.426 293.142 364.715 294.57 364.468C297.321 363.993 300.321 365.248 302.529 366.739C303.661 367.504 304.668 368.386 305.418 369.26C306.118 370.076 306.771 371.088 306.844 372.104C306.923 373.208 306.34 374.172 305.662 374.905C304.96 375.664 303.983 376.368 302.86 376.99C300.605 378.238 297.542 379.277 294.249 379.768C293.408 379.894 292.542 379.985 291.663 380.033C292.138 383.517 293.085 387.834 294.658 393.145C297.762 403.631 296.973 411.809 293.809 417.859C290.648 423.902 285.215 427.633 279.393 429.416C273.588 431.194 267.304 431.067 262.292 429.302C257.297 427.543 253.305 424.035 252.737 418.918C251.711 409.686 254.793 401.205 258.467 394.525C261.286 389.399 264.542 385.198 266.594 382.55L266.596 382.548L266.596 382.547C267.204 381.763 267.707 381.115 268.061 380.619C268.765 379.633 269.577 377.901 269.974 375.936C270.371 373.971 270.322 371.929 269.503 370.224C268.711 368.572 267.108 367.05 263.997 366.23C260.839 365.398 256.157 365.305 249.366 366.599C244.069 367.608 239.731 369.202 236.266 371.089C236.667 372.058 237.02 372.999 237.327 373.913C239.051 379.042 239.364 383.426 238.257 386.665C237.697 388.305 236.767 389.661 235.472 390.626C234.179 391.591 232.598 392.111 230.822 392.205C227.32 392.389 224.631 391.034 223.326 388.515C222.063 386.078 222.283 382.902 223.742 379.763C225.3 376.41 228.326 372.936 232.924 370.013C229.844 363.43 224.524 355.539 216.472 346.818C215.648 348.149 214.726 349.411 213.702 350.599C215.591 352.396 217.046 354.61 218.098 357.156C220.519 363.014 220.781 370.551 219.549 378.689C218.312 386.851 215.553 395.748 211.791 404.417C204.285 421.711 192.669 438.358 180.838 446.508C174.918 450.586 168.749 452.665 162.937 451.348C157.088 450.023 152.004 445.354 148.065 436.852C147.198 434.981 147.174 432.739 147.522 430.432C147.873 428.106 148.631 425.536 149.506 422.906C149.932 421.626 150.385 420.332 150.839 419.034L150.84 419.033C152.284 414.905 153.741 410.74 154.392 406.867C155.242 401.807 154.618 397.787 151.205 395.211C147.628 392.512 140.627 391.071 127.754 392.432C114.986 393.782 106.245 397.068 100.359 401.395C94.498 405.703 91.3852 411.105 89.9659 416.877C89.6559 418.138 89.4265 419.416 89.2673 420.705C96.2466 420.526 104.686 422.48 115.362 427.142C118.637 428.572 120.947 430.348 122.37 432.403C123.808 434.481 124.277 436.757 124.004 439.034C123.471 443.493 120.127 447.85 116.028 451.139C111.901 454.45 106.728 456.908 102.121 457.387C99.8081 457.627 97.5477 457.377 95.6332 456.386C93.6849 455.377 92.2101 453.658 91.419 451.203C89.1944 444.297 85.9438 433.889 86.4021 423.55C86.2636 423.568 86.1259 423.586 85.989 423.606C79.0782 424.602 73.9505 428.124 69.2602 433.256C66.2842 436.512 64.6979 439.748 64.0245 442.749C65.929 442.728 67.634 442.872 69.153 443.152C74.4372 444.128 77.5519 446.794 78.7401 449.985C79.9058 453.116 79.1153 456.531 77.0415 458.728C74.9027 460.994 71.4951 461.868 67.7732 460.075C66.4436 459.434 65.0652 458.077 63.9242 456.336C62.7641 454.566 61.7764 452.29 61.3016 449.68C61.0637 448.372 60.9555 446.986 61.0166 445.542C57.2064 445.913 52.5796 446.908 47.0194 448.773C36.6511 452.25 28.4501 451.755 22.2911 448.81C16.1389 445.868 12.2152 440.571 10.2248 434.817C8.2401 429.08 8.14222 422.795 9.72645 417.722C11.3052 412.668 14.6676 408.553 19.7615 407.802C28.9508 406.446 37.5363 409.222 44.3437 412.655C49.5677 415.289 53.8826 418.392 56.6027 420.348C57.4096 420.928 58.0762 421.408 58.5845 421.744C59.5952 422.413 61.3554 423.162 63.3335 423.488C65.3114 423.815 67.3499 423.693 69.0249 422.813C70.6467 421.962 72.1108 420.306 72.8185 417.168C73.537 413.981 73.462 409.3 71.926 402.559C70.7279 397.302 68.9794 393.024 66.9699 389.628C66.0158 390.063 65.0873 390.45 64.1859 390.789C59.1212 392.696 54.751 393.166 51.4747 392.176C49.8154 391.675 48.4277 390.794 47.4163 389.535C46.4058 388.277 45.8294 386.715 45.6724 384.944C45.3627 381.451 46.6205 378.715 49.0908 377.321C51.4811 375.971 54.663 376.077 57.8521 377.423C61.2589 378.86 64.8396 381.76 67.925 386.25C74.3934 382.936 82.0893 377.337 90.5161 368.978C83.1299 364.76 77.644 357.601 75.1725 346.646C72.0224 332.683 73.7865 323.74 78.3734 319.05C82.9232 314.398 89.741 314.406 95.7324 317.147C96.122 315.86 96.7556 314.636 97.6687 313.516C103.537 306.316 111.748 302.574 119.088 300.515C124.722 298.935 130 298.315 133.328 297.924C134.315 297.808 135.131 297.712 135.732 297.618C136.93 297.429 138.735 296.795 140.415 295.702C142.095 294.608 143.517 293.143 144.161 291.364C144.784 289.642 144.747 287.431 143.153 284.637C141.534 281.801 138.32 278.395 132.639 274.456C128.208 271.383 124.031 269.405 120.257 268.254C119.846 269.219 119.422 270.13 118.985 270.989C116.533 275.813 113.624 279.108 110.538 280.588C108.975 281.337 107.356 281.623 105.76 281.376C104.166 281.129 102.687 280.365 101.376 279.163C98.7905 276.793 97.8738 273.926 98.7564 271.23C99.6104 268.621 102.031 266.553 105.293 265.395C108.777 264.157 113.376 263.882 118.683 265.116C121.222 258.306 123.126 248.981 123.707 237.125C115.41 238.995 106.531 237.411 97.3159 230.991C85.5712 222.809 80.8409 215.018 81.0628 208.461C81.2877 201.815 86.5441 197.164 93.0065 195.217C99.5 193.261 107.575 193.878 114.179 198.025C120.84 202.207 125.865 209.891 126.355 221.758C126.527 225.923 126.558 229.872 126.463 233.604C133.394 231.166 139.885 226.146 145.792 219.601C158.965 205.003 168.858 183.233 173.922 167.593L173.947 167.518L173.98 167.447C179.613 155.255 185.575 147.601 191.669 143.673C197.854 139.686 204.085 139.6 209.911 142.332C215.65 145.023 220.928 150.41 225.508 157.248C230.102 164.108 234.067 172.537 237.138 181.474C241.672 194.67 244.305 209.124 244.055 221.42C246.083 222.247 248.115 223.149 250.138 224.117C266.16 231.787 281.84 243.756 290.307 256.177C291.233 257.536 292.078 258.906 292.828 260.283C298.399 259.155 303.536 258.898 306.803 258.734C307.795 258.684 308.616 258.643 309.223 258.589C310.43 258.481 312.273 257.969 314.023 256.991C315.772 256.012 317.29 254.645 318.051 252.913C318.787 251.236 318.899 249.028 317.494 246.134C316.069 243.195 313.09 239.583 307.685 235.272C303.469 231.91 299.434 229.656 295.746 228.256C295.271 229.191 294.787 230.072 294.294 230.9C291.524 235.549 288.402 238.643 285.223 239.912C283.614 240.555 281.98 240.732 280.404 240.379C278.83 240.026 277.405 239.165 276.177 237.879C273.756 235.341 273.033 232.418 274.094 229.787C275.121 227.242 277.674 225.34 281.006 224.402C284.565 223.401 289.173 223.434 294.385 225.02C297.374 218.394 299.897 209.218 301.27 197.428C292.866 198.738 284.113 196.564 275.348 189.543C264.177 180.593 259.978 172.503 260.638 165.976C261.307 159.36 266.862 155.071 273.44 153.56C280.05 152.042 288.066 153.199 294.377 157.778C300.744 162.396 305.244 170.398 304.94 182.272C304.833 186.439 304.599 190.381 304.255 194.099C311.333 192.13 318.146 187.555 324.477 181.419C338.597 167.735 349.924 146.675 356.022 131.409L356.052 131.336L356.089 131.267C362.526 119.48 368.986 112.241 375.329 108.729C381.767 105.165 387.99 105.495 393.62 108.611C399.166 111.68 404.072 117.408 408.184 124.537C412.309 131.688 415.702 140.364 418.168 149.487C423.088 167.686 424.392 187.943 420.227 201.693C418.143 208.573 414.619 214.045 409.254 216.641ZM95.266 319.832C95.1737 319.786 95.0812 319.74 94.9886 319.696C89.4678 317.044 83.8118 317.242 80.2494 320.885C76.6246 324.591 74.6389 332.358 77.7321 346.068C80.1283 356.689 85.4422 363.273 92.4332 367.041C95.1662 364.229 97.9704 361.131 100.829 357.731C106.252 351.281 108.247 345.017 108.092 339.463C103.109 336.556 99.0978 332.191 96.9535 327.609C95.7649 325.069 95.1234 322.386 95.266 319.832ZM107.735 336.129C103.972 333.534 100.993 330.051 99.3301 326.497C98.5078 324.74 98.0229 323.011 97.9005 321.381C102.182 324.305 105.808 328.877 107.33 334.385C107.488 334.956 107.624 335.537 107.735 336.129ZM110.624 337.86C110.492 336.427 110.232 335.033 109.86 333.686C108.01 326.996 103.414 321.583 98.1152 318.404C98.3962 317.222 98.921 316.133 99.7025 315.174C105.093 308.561 112.721 305.026 119.797 303.041C125.198 301.527 130.123 300.947 133.469 300.552C134.53 300.428 135.432 300.321 136.14 300.21C137.73 299.96 139.881 299.18 141.846 297.901C143.812 296.622 145.725 294.754 146.628 292.257C147.552 289.702 147.346 286.692 145.431 283.337C143.541 280.024 139.977 276.351 134.134 272.3C129.595 269.152 125.24 267.058 121.225 265.808C123.901 258.536 125.833 248.724 126.367 236.403C134.243 233.9 141.413 228.369 147.74 221.359C161.241 206.397 171.267 184.282 176.394 168.477C181.93 156.519 187.615 149.408 193.091 145.878C198.487 142.4 203.758 142.344 208.797 144.707C213.923 147.112 218.874 152.059 223.328 158.709C227.768 165.338 231.641 173.551 234.656 182.327C239.016 195.015 241.534 208.735 241.445 220.397C236.317 218.467 231.255 217.043 226.482 216.26C219.043 215.041 212.165 215.356 206.834 217.9C204.18 219.166 201.95 220.966 200.243 223.334C199.725 222.375 199.187 221.451 198.623 220.58C195.657 215.992 191.698 212.396 185.958 212.937C180.421 213.459 173.694 217.827 165.054 227.579C156.343 237.411 151.813 246.142 150.269 253.903C148.718 261.694 150.198 268.403 153.311 274.112C154.064 275.492 154.913 276.814 155.837 278.079C155.615 278.331 155.399 278.585 155.19 278.841C150.254 284.855 148.755 291.577 148.755 298.914C148.755 304.122 150.05 308.226 152.01 311.375C149.158 314.457 146.176 318.619 143.135 324.098C138.066 333.229 132.159 337.835 126.439 339.57C120.913 341.245 115.373 340.298 110.624 337.86ZM110.714 340.813C110.531 346.666 108.205 353.035 102.838 359.419C100.155 362.61 97.5136 365.546 94.9259 368.237C101.686 371.113 109.865 371.786 118.641 370.939C134.426 369.415 151.785 363.008 165.407 356.321C161.607 351.553 162.1 344.998 165.059 339.363C168.212 333.358 174.31 328.03 181.896 326.223C189.548 324.4 198.55 326.197 207.361 334.162C210.454 336.957 213.293 339.702 215.89 342.384C219.006 335.731 219.972 327.582 219.44 318.782C218.253 299.155 209.65 276.843 202.039 262.272L202.003 262.202L201.975 262.129C197.225 249.574 195.698 239.877 196.723 232.628C197.078 230.124 197.737 227.914 198.668 225.987C197.961 224.581 197.218 223.239 196.42 222.004C193.633 217.695 190.462 215.148 186.204 215.55C181.742 215.97 175.603 219.63 167.018 229.319C158.504 238.928 154.268 247.251 152.842 254.415C151.422 261.55 152.768 267.637 155.614 272.855C156.236 273.995 156.929 275.093 157.681 276.152C162.712 271.312 170.261 267.061 181.286 263.3C184.668 262.147 187.572 261.899 190.008 262.456C192.471 263.02 194.353 264.384 195.688 266.248C198.303 269.9 198.774 275.372 197.966 280.565C197.154 285.793 194.993 291.097 191.915 294.559C190.37 296.297 188.533 297.637 186.451 298.196C184.332 298.766 182.084 298.493 179.843 297.213C173.542 293.616 164.121 288.126 157.485 280.185C157.395 280.292 157.306 280.398 157.218 280.505C152.789 285.903 151.379 291.961 151.379 298.914C151.379 303.325 152.391 306.784 153.918 309.453C155.31 308.153 156.665 307.109 157.976 306.291C162.535 303.447 166.633 303.314 169.662 304.868C172.635 306.392 174.355 309.447 174.306 312.467C174.256 315.583 172.331 318.527 168.373 319.714C166.96 320.138 165.027 320.066 163.01 319.551C160.959 319.026 158.695 318.013 156.584 316.407C155.526 315.602 154.511 314.651 153.582 313.544C151.019 316.388 148.275 320.244 145.429 325.372C140.121 334.933 133.733 340.1 127.2 342.081C121.413 343.835 115.671 343.041 110.714 340.813ZM167.353 358.287C153.432 365.203 135.397 371.958 118.893 373.551C109.493 374.458 100.469 373.703 92.9669 370.239C84.2608 378.974 76.2153 384.913 69.3346 388.475C71.4546 392.107 73.2571 396.591 74.4844 401.976C76.0641 408.909 76.2172 414.024 75.3782 417.745C74.5284 421.513 72.6493 423.874 70.2444 425.137C67.8926 426.371 65.2207 426.459 62.9066 426.077C60.5926 425.696 58.4792 424.82 57.1368 423.932C56.539 423.537 55.8017 423.007 54.9348 422.384C52.1987 420.418 48.1709 417.523 43.1624 414.997C36.6 411.689 28.5849 409.152 20.1445 410.398C16.4236 410.947 13.6425 413.986 12.2311 418.505C10.8252 423.006 10.8906 428.715 12.7046 433.959C14.513 439.187 18.0236 443.86 23.4231 446.443C28.8158 449.021 36.2842 449.606 46.1849 446.285C52.126 444.292 57.1353 443.231 61.3195 442.88C61.9967 439.233 63.8099 435.33 67.3233 431.486C72.2727 426.07 77.9143 422.119 85.6146 421.009C85.9417 420.962 86.2721 420.92 86.606 420.883C86.7771 419.326 87.0423 417.778 87.4179 416.251C88.9704 409.937 92.4045 403.986 98.8049 399.281C105.181 394.594 114.415 391.204 127.478 389.823C140.434 388.453 148.346 389.767 152.785 393.117C157.388 396.59 157.884 401.914 156.979 407.302C156.288 411.418 154.723 415.889 153.262 420.059L153.261 420.062C152.821 421.32 152.39 422.55 151.996 423.735C151.129 426.339 150.432 428.732 150.117 430.824C149.798 432.935 149.898 434.566 150.446 435.749C154.194 443.839 158.756 447.71 163.517 448.789C168.316 449.876 173.723 448.223 179.35 444.347C190.612 436.589 201.975 420.442 209.384 403.373C213.078 394.861 215.76 386.184 216.954 378.296C218.152 370.383 217.835 363.391 215.673 358.158C214.762 355.954 213.52 354.049 211.901 352.507C207.482 356.782 201.482 359.869 193.605 361.352C180.701 363.781 172.167 362.228 167.353 358.287ZM209.82 350.865C205.813 354.64 200.368 357.409 193.119 358.773C181.415 360.976 174.106 359.688 169.973 356.958C171.998 355.911 173.92 354.867 175.719 353.845C187.872 348.752 196.866 347.338 203.289 348.427C205.844 348.86 208.008 349.69 209.82 350.865ZM211.664 348.943C209.476 347.431 206.841 346.367 203.728 345.84C196.579 344.628 187.015 346.257 174.631 351.456L174.559 351.486L174.49 351.525C172.419 352.704 170.185 353.909 167.82 355.114C164.531 351.421 164.596 345.888 167.382 340.583C170.215 335.189 175.719 330.391 182.504 328.775C189.222 327.175 197.358 328.657 205.602 336.108C208.898 339.087 211.893 342.001 214.605 344.833C213.753 346.287 212.776 347.661 211.664 348.943ZM280.98 296.754C278.67 295.292 276.622 293.477 274.933 291.486C276.852 292.104 278.707 292.583 280.416 292.779C282.663 293.038 284.851 292.831 286.607 291.604C293.281 286.941 296.455 281.231 296.758 274.998C296.953 270.979 295.95 266.836 294.053 262.716C299.105 261.752 303.628 261.524 306.768 261.366L306.771 261.366C307.837 261.312 308.743 261.266 309.456 261.203C311.06 261.059 313.258 260.426 315.304 259.28C317.351 258.135 319.385 256.4 320.453 253.968C321.545 251.482 321.542 248.464 319.855 244.988C318.19 241.557 314.88 237.654 309.321 233.221C305.003 229.776 300.797 227.396 296.875 225.88C300.032 218.804 302.616 209.143 303.972 196.885C311.997 194.914 319.522 189.876 326.303 183.303C340.774 169.279 352.257 147.883 358.43 132.456C364.752 120.895 370.901 114.18 376.6 111.025C382.217 107.915 387.479 108.212 392.349 110.907C397.303 113.649 401.912 118.916 405.911 125.849C409.898 132.76 413.214 141.214 415.635 150.172C420.491 168.135 421.68 187.843 417.716 200.932C415.735 207.471 412.54 212.136 408.111 214.279C403.717 216.406 397.736 216.225 389.761 212.24C388.595 211.657 387.499 210.444 386.431 208.595C385.373 206.763 384.426 204.458 383.479 201.882C383.048 200.709 382.617 199.479 382.177 198.221L382.176 198.219L382.175 198.217C380.716 194.047 379.151 189.577 377.125 185.929C374.471 181.153 370.762 177.301 364.999 177.457C359.44 177.607 352.436 181.516 343.163 190.668C333.814 199.895 328.71 208.304 326.65 215.944C324.582 223.614 325.609 230.407 328.334 236.311C328.993 237.739 329.751 239.115 330.589 240.438C330.351 240.675 330.119 240.914 329.892 241.155C324.566 246.826 322.62 253.433 322.13 260.753C321.782 265.95 322.799 270.131 324.544 273.404C321.492 276.288 318.239 280.242 314.838 285.505C309.17 294.276 302.968 298.478 297.144 299.826C291.313 301.175 285.655 299.712 280.98 296.754ZM294.137 274.871C294.315 271.201 293.346 267.29 291.418 263.28C284.662 264.887 277.507 267.902 272.1 273.696C269.534 276.446 269.255 280.556 270.971 284.969C271.337 285.912 271.792 286.856 272.325 287.787C272.879 287.994 273.424 288.194 273.956 288.383C276.487 289.282 278.767 289.949 280.716 290.173C282.672 290.398 284.101 290.153 285.104 289.453C291.223 285.178 293.88 280.167 294.137 274.871ZM270.181 271.906C275.885 265.793 283.295 262.602 290.161 260.885C289.55 259.813 288.875 258.735 288.139 257.655C280.011 245.732 264.757 234.025 249.005 226.484C247.319 225.677 245.63 224.919 243.946 224.214C243.754 227.49 243.34 230.584 242.684 233.425C241.064 240.43 237.913 246.125 232.735 249.074C227.522 252.042 220.62 252.025 211.977 248.407C210.075 247.61 208.545 245.971 207.246 244.034C205.936 242.08 204.761 239.672 203.633 237.14C203.084 235.907 202.545 234.645 202.004 233.381C201.407 231.983 200.808 230.581 200.191 229.208C199.808 230.364 199.515 231.624 199.322 232.996C198.387 239.603 199.743 248.793 204.401 261.127C212.087 275.859 220.842 298.508 222.059 318.623C222.629 328.05 221.551 337.041 217.82 344.414C226.238 353.427 231.885 361.68 235.199 368.684C238.904 366.696 243.449 365.055 248.875 364.021C255.86 362.691 260.977 362.721 264.666 363.693C268.401 364.677 270.694 366.64 271.869 369.088C273.018 371.483 273.01 374.156 272.546 376.455C272.082 378.754 271.131 380.835 270.196 382.144C269.779 382.727 269.224 383.445 268.571 384.288L268.569 384.29C266.506 386.954 263.469 390.875 260.766 395.79C257.224 402.229 254.402 410.148 255.345 418.628C255.76 422.366 258.697 425.254 263.163 426.827C267.611 428.393 273.319 428.532 278.625 426.907C283.914 425.287 288.71 421.946 291.484 416.643C294.254 411.346 295.106 403.903 292.142 393.89C290.504 388.359 289.504 383.792 289.017 380.044C283.876 379.794 278.667 377.892 275.558 372.891C271.756 366.775 268.664 360.812 268.107 353.188C268.092 352.981 268.078 352.773 268.067 352.564C266.564 352.339 265.072 352.025 263.604 351.607C257.349 349.83 251.525 346.185 247.053 339.62C242.597 333.08 239.54 323.731 238.628 310.627C237.724 297.634 239.401 289.895 243.055 285.762C246.83 281.492 252.307 281.464 257.7 282.712C261.272 283.538 265.101 284.999 268.719 286.402C268.652 286.241 268.588 286.081 268.525 285.92C266.606 280.984 266.668 275.671 270.181 271.906ZM301.56 194.718C301.943 190.816 302.203 186.646 302.317 182.204C302.601 171.095 298.427 163.957 292.837 159.901C287.191 155.806 279.965 154.754 274.028 156.118C268.059 157.489 263.761 161.171 263.248 166.24C262.727 171.398 266.019 178.707 276.988 187.495C285.486 194.302 293.746 196.134 301.56 194.718ZM293.229 227.413C288.6 226.074 284.636 226.107 281.717 226.928C278.868 227.73 277.15 229.224 276.528 230.769C275.939 232.228 276.189 234.09 278.076 236.067C279.002 237.038 279.984 237.596 280.978 237.819C281.969 238.041 283.063 237.95 284.25 237.476C286.664 236.511 289.408 233.975 292.04 229.557C292.441 228.883 292.838 228.168 293.229 227.413ZM327.926 273.903C328.707 275.01 329.582 275.955 330.496 276.753C332.219 278.256 334.1 279.249 335.791 279.804C337.515 280.37 338.924 280.445 339.729 280.261C342.68 279.587 343.942 277.695 344.103 275.767C344.271 273.745 343.242 271.543 341.241 270.341C339.296 269.173 336.206 268.836 332.073 271.045C330.781 271.736 329.395 272.673 327.926 273.903ZM334.02 240.84C339.754 248.86 348.511 254.835 354.712 258.949C356.326 260.019 357.852 260.267 359.278 259.984C360.742 259.694 362.226 258.818 363.644 257.423C366.494 254.62 368.815 249.975 369.898 245.161C370.988 240.312 370.747 235.645 368.911 232.681C368.018 231.239 366.74 230.179 364.974 229.649C363.181 229.11 360.787 229.088 357.649 229.929C346.413 232.94 338.952 236.611 334.02 240.84ZM201.612 226.035C203.151 223.406 205.323 221.528 207.964 220.268C212.612 218.051 218.876 217.672 226.057 218.85C230.896 219.643 236.088 221.133 241.373 223.178C241.215 226.643 240.807 229.891 240.127 232.834C238.588 239.491 235.712 244.36 231.436 246.794C227.194 249.21 221.215 249.429 212.99 245.986C211.788 245.483 210.614 244.346 209.425 242.572C208.247 240.815 207.147 238.579 206.03 236.072C205.521 234.93 205.009 233.731 204.485 232.504C203.575 230.374 202.631 228.162 201.612 226.035ZM123.734 221.866C123.917 226.305 123.937 230.483 123.816 234.402C116.114 236.338 107.75 235.062 98.8158 228.838C87.2833 220.804 83.5099 213.732 83.6853 208.55C83.8576 203.458 87.8993 199.497 93.7635 197.73C99.5965 195.972 106.877 196.538 112.783 200.247C118.632 203.919 123.275 210.763 123.734 221.866ZM106.171 267.867C109.029 266.853 112.981 266.554 117.69 267.581C117.35 268.361 117.002 269.1 116.646 269.8C114.316 274.384 111.748 277.098 109.404 278.222C108.251 278.774 107.166 278.938 106.161 278.783C105.156 278.627 104.139 278.136 103.149 277.229C101.134 275.382 100.761 273.542 101.25 272.046C101.768 270.464 103.382 268.857 106.171 267.867ZM158.173 314.318C157.207 313.584 156.271 312.699 155.418 311.646C156.801 310.321 158.121 309.293 159.365 308.518C163.34 306.037 166.446 306.167 168.465 307.202C170.541 308.267 171.716 310.396 171.683 312.425C171.652 314.359 170.519 316.331 167.62 317.201C166.829 317.438 165.418 317.458 163.66 317.008C161.935 316.568 159.993 315.703 158.173 314.318ZM181.144 294.935C174.681 291.245 165.545 285.869 159.287 278.25C163.926 273.701 171.124 269.539 182.133 265.784C185.208 264.735 187.599 264.597 189.423 265.014C191.221 265.425 192.567 266.397 193.555 267.776C195.584 270.61 196.137 275.251 195.374 280.162C194.615 285.038 192.61 289.828 189.954 292.815C188.632 294.302 187.21 295.275 185.769 295.663C184.365 296.04 182.826 295.895 181.144 294.935ZM226.121 380.869C227.399 378.119 229.956 375.09 233.987 372.449C234.306 373.238 234.589 374.005 234.839 374.748C236.477 379.623 236.615 383.356 235.774 385.817C235.361 387.026 234.718 387.916 233.903 388.523C233.087 389.132 232.025 389.514 230.684 389.584C227.955 389.728 226.379 388.705 225.655 387.308C224.889 385.83 224.874 383.552 226.121 380.869ZM293.862 377.173C293.04 377.296 292.21 377.381 291.38 377.423C291.227 375.429 291.258 373.773 291.431 372.409C291.684 370.421 292.227 369.148 292.851 368.355C293.455 367.587 294.191 367.197 295.017 367.054C296.776 366.75 299.065 367.566 301.06 368.914C302.029 369.568 302.851 370.298 303.426 370.968C304.051 371.696 304.217 372.16 304.227 372.291C304.23 372.336 304.208 372.612 303.736 373.123C303.287 373.608 302.567 374.153 301.589 374.694C299.642 375.772 296.884 376.722 293.862 377.173ZM297.962 346.336C290.777 348.37 280.495 351.134 270.645 350.234C270.738 343.751 272.752 335.837 277.855 325.207C279.261 322.278 280.837 320.475 282.413 319.466C283.966 318.471 285.603 318.192 287.278 318.453C290.723 318.991 294.421 321.847 297.39 325.833C300.339 329.79 302.352 334.577 302.622 338.565C302.757 340.55 302.455 342.246 301.722 343.546C301.008 344.812 299.826 345.809 297.962 346.336ZM56.8322 379.84C59.6265 381.019 62.7451 383.465 65.5284 387.4C64.7518 387.746 63.9959 388.057 63.2614 388.334C58.449 390.145 54.7225 390.417 52.2336 389.665C51.0104 389.295 50.0984 388.684 49.4618 387.892C48.8243 387.098 48.4046 386.05 48.2861 384.713C48.0448 381.99 49.0108 380.379 50.3809 379.606C51.8309 378.787 54.106 378.69 56.8322 379.84ZM63.8831 449.21C63.666 448.017 63.5718 446.732 63.6521 445.38C65.5671 445.334 67.235 445.466 68.6764 445.732C73.2842 446.584 75.4893 448.774 76.2811 450.901C77.0954 453.087 76.5263 455.451 75.1334 456.927C73.8053 458.334 71.6389 459.025 68.9122 457.711C68.1682 457.352 67.1135 456.416 66.1189 454.898C65.1432 453.409 64.2925 451.46 63.8831 449.21ZM93.9166 450.398C91.6347 443.315 88.5175 433.182 89.0374 423.337C95.5306 423.108 103.652 424.892 114.312 429.547C117.289 430.847 119.147 432.357 120.213 433.896C121.262 435.413 121.6 437.039 121.399 438.722C120.985 442.184 118.263 445.982 114.386 449.092C110.537 452.18 105.826 454.364 101.85 454.777C99.8708 454.983 98.1648 454.742 96.8397 454.056C95.5485 453.387 94.5104 452.242 93.9166 450.398Z" fill="white"/>
</g>
<path d="M165.199 245.9L172.899 262.9C172.899 262.9 177.699 337.6 185.899 356.4C189.999 369 196.599 375 199.299 376.5" stroke="#424D51" stroke-linecap="round" stroke-linejoin="round"/>
<path fill-rule="evenodd" clip-rule="evenodd" d="M305.899 364.301C305.899 364.301 309.099 370.301 305.399 375.201C301.799 379.901 272.599 378.301 269.599 378.001C265.299 377.601 260.999 377.801 257.999 377.501C256.199 377.301 251.999 374.401 256.999 372.201C261.999 370.001 280.799 365.801 282.999 365.001C284.199 364.701 305.899 364.301 305.899 364.301Z" fill="#EFD9CE"/>
<path fill-rule="evenodd" clip-rule="evenodd" d="M307.8 361C308.3 361 308.2 364.8 306.6 366.1C305 367.4 283.1 366.2 282.4 364.4C281.6 362.6 281.8 360 281.8 360C281.8 360 307.4 361 307.8 361Z" fill="#EFD9CE"/>
<path fill-rule="evenodd" clip-rule="evenodd" d="M246.401 299.5C266.301 307.7 276.301 308.2 279.201 310.7C281.701 312.9 278.401 336.1 278.301 344.7C278.201 352.7 276.701 361.5 282.501 362.3C287.301 363 309.501 367.2 311.501 360.2C315.001 347.7 319.101 299.5 315.301 289.4C311.501 279.3 293.401 273.5 285.301 270.2C274.101 265.7 230.101 292.8 246.401 299.5Z" fill="#DEC0F1"/>
<path d="M282.212 370.562C282.212 370.562 272.112 372.363 270.312 372.763C266.212 373.563 264.512 378.163 270.912 378.163" stroke="#424D51" stroke-linecap="round" stroke-linejoin="round"/>
<path d="M264.212 377.662C261.812 378.062 258.412 374.762 263.012 372.662C267.112 370.762 274.012 369.662 274.012 369.662" stroke="#424D51" stroke-linecap="round" stroke-linejoin="round"/>
<path fill-rule="evenodd" clip-rule="evenodd" d="M325.8 370.199C325.8 370.199 329.1 376.199 325.3 381.099C321.7 385.799 292.5 384.199 289.5 383.899C285.1 383.499 280.9 383.699 277.9 383.399C276.1 383.199 271.9 380.299 276.9 378.099C281.9 375.899 300.7 371.699 302.9 370.899C304 370.599 325.8 370.199 325.8 370.199Z" fill="#EFD9CE"/>
<path fill-rule="evenodd" clip-rule="evenodd" d="M327.7 366.901C328.2 366.901 328.2 370.601 326.6 371.801C325 373.101 303 372.001 302.2 370.201C301.4 368.401 301.6 365.801 301.6 365.801C301.6 365.801 327.2 367.001 327.7 366.901Z" fill="#EFD9CE"/>
<path fill-rule="evenodd" clip-rule="evenodd" d="M277.4 265.199C253.1 256.699 244.9 272.699 245.4 280.199C246 289.599 249.1 294.299 265.5 300.999C285.4 309.199 296.2 310.899 299.1 313.499C301.6 315.699 298.4 342.199 298.3 350.799C298.2 358.799 296.7 367.599 302.5 368.399C307.3 369.099 329.5 373.299 331.5 366.299C335 353.799 339.1 305.599 335.3 295.499C331.5 285.399 313.4 279.599 305.3 276.299C294 271.599 277.4 265.199 277.4 265.199Z" fill="#DEC0F1"/>
<path d="M303.88 376.338C303.88 376.338 293.78 378.138 291.98 378.538C287.88 379.338 286.18 383.938 292.58 383.938" stroke="#424D51" stroke-linecap="round" stroke-linejoin="round"/>
<path d="M284.319 383.438C282.019 383.838 278.619 380.537 283.119 378.438C287.219 376.538 294.119 375.438 294.119 375.438" stroke="#424D51" stroke-linecap="round" stroke-linejoin="round"/>
<path d="M278 383.3C273.9 383.1 272.6 379 278.6 376.9C285.7 374.5 303.1 371 303.1 371" stroke="#424D51" stroke-linecap="round" stroke-linejoin="round"/>
<path d="M299.4 366.1C299.4 366.1 297.9 362.3 297.7 358.7C297 345 300.2 332 299.7 314.3C299.6 311.5 268 302.9 257.6 296.5C250.7 292.7 247.1 288.7 245.9 283.6" stroke="#424D51" stroke-linecap="round" stroke-linejoin="round"/>
<path d="M272 308.7L273.4 303.6" stroke="#424D51" stroke-linecap="round" stroke-linejoin="round"/>
<path d="M258.221 94.7315C258.983 86.5203 247.855 74.1377 229.781 73.0947" stroke="#424D51" stroke-linecap="round" stroke-linejoin="round"/>
<path d="M268.084 91.5411C266.983 85.6181 260.478 76.9762 250.334 73.417" stroke="#424D51" stroke-linecap="round" stroke-linejoin="round"/>
<path d="M80.6203 156.394C75.4048 150.006 77.7252 133.521 92.1389 122.566" stroke="#424D51" stroke-linecap="round" stroke-linejoin="round"/>
<path d="M70.6565 159.252C68.2637 153.723 68.8373 142.922 75.2666 134.306" stroke="#424D51" stroke-linecap="round" stroke-linejoin="round"/>
<path d="M71.0351 378.17C56.3048 375.315 58.6346 362.2 61.6408 356C68.53 342.973 83.2103 315.567 86.8177 310.156C91.327 303.392 100.345 291.179 116.316 293.434C132.286 295.689 135.104 320.114 139.989 348.672C143.897 371.519 139.989 376.668 135.104 378.17C116.316 381.553 85.7653 381.026 71.0351 378.17Z" fill="#F8F8F8"/>
<path d="M123.08 384.183C97.3777 383.281 112.371 371.657 123.08 365.958C126.788 363.985 129.957 360.735 140.177 357.127C152.954 352.618 156.711 365.958 158.402 374.225C160.093 382.492 155.209 385.31 123.08 384.183Z" fill="#ECECEC"/>
<path d="M112.648 219.224L103.535 232.189L104.85 238.107C108.577 234.506 116.123 226.176 116.499 221.667C116.875 217.158 113.963 217.252 112.648 219.224Z" fill="#ECECEC"/>
<path d="M89.527 222.523L101.309 233.121L101.351 239.183C96.9132 236.507 87.6944 230.077 86.3194 225.766C84.9444 221.455 87.8039 220.895 89.527 222.523Z" fill="#ECECEC"/>
<path d="M116.375 234.629L105.299 246.562L106.897 252.01C111.427 248.695 120.6 241.028 121.057 236.877C121.514 232.726 117.905 232.659 116.375 234.629Z" fill="#ECECEC"/>
<path d="M90.3321 240.277L103.797 249.43L103.458 255.098C98.3016 252.88 87.6457 247.459 86.272 243.516C84.8983 239.573 88.4005 238.699 90.3321 240.277Z" fill="#ECECEC"/>
<path d="M119.709 257.035L108.633 268.968L110.231 274.416C114.761 271.101 123.934 263.434 124.391 259.283C124.847 255.132 121.239 255.065 119.709 257.035Z" fill="#ECECEC"/>
<path d="M93.0203 263.021L106.485 272.174L106.146 277.841C100.99 275.623 90.3339 270.203 88.9602 266.259C87.5865 262.316 91.0888 261.443 93.0203 263.021Z" fill="#ECECEC"/>
<path d="M97.7141 212.461C97.1128 214.866 104.227 273.586 107.86 302.646H112.932C110.49 274.651 105.079 217.421 102.974 212.461C100.344 206.261 98.4656 209.455 97.7141 212.461Z" fill="#ECECEC"/>
<path d="M76.4201 292.397L72.9026 307.848L76.3633 312.826C78.4463 308.081 82.2719 297.512 80.9102 293.197C79.5484 288.882 76.8893 290.073 76.4201 292.397Z" fill="#ECECEC"/>
<path d="M56.2723 304.214L71.1919 309.553L73.5294 315.147C68.4084 314.353 57.4399 311.898 54.5333 308.43C51.6266 304.962 54.0606 303.36 56.2723 304.214Z" fill="#ECECEC"/>
<path d="M85.7109 305.232L79.9854 320.474L83.53 324.909C86.4647 320.125 92.0464 309.552 90.8955 305.538C89.7447 301.524 86.3795 302.829 85.7109 305.232Z" fill="#ECECEC"/>
<path d="M63.7523 320.335L79.6822 323.7L81.5167 329.073C75.9047 328.975 63.9891 327.999 61.223 324.871C58.4569 321.743 61.3667 319.607 63.7523 320.335Z" fill="#ECECEC"/>
<path d="M97.2864 324.705L91.5608 339.947L95.1054 344.382C98.0402 339.597 103.622 329.025 102.471 325.011C101.32 320.997 97.9549 322.302 97.2864 324.705Z" fill="#ECECEC"/>
<path d="M74.857 340.363L90.787 343.728L92.6215 349.101C87.0094 349.004 75.0939 348.027 72.3278 344.899C69.5617 341.771 72.4714 339.635 74.857 340.363Z" fill="#ECECEC"/>
<path d="M60.034 291.803C60.3894 294.256 89.2341 345.896 103.612 371.409L108.306 369.486C95.4326 344.507 68.7292 293.601 64.9016 289.808C60.117 285.068 59.5898 288.736 60.034 291.803Z" fill="#ECECEC"/>
<path d="M363.261 381.137C361.502 381.137 358.653 368.571 357.449 362.288C357.449 360.141 358.078 356.194 360.591 357.576C363.732 359.304 364.989 367.629 365.46 371.713C365.931 375.797 365.46 381.137 363.261 381.137Z" fill="#ECECEC"/>
<path d="M370.329 377.289C370.329 373.704 372.083 364.645 373.078 360.796C374.065 356.518 376.298 357.576 376.927 359.304C377.555 361.032 376.534 368.964 375.749 372.106C374.963 375.247 374.256 380.352 373.078 380.745C371.9 381.138 370.329 380.431 370.329 377.289Z" fill="#ECECEC"/>
<path d="M379.361 379.331C378.545 377.886 381.587 371.923 383.21 369.121C384.819 366.137 387.137 365.43 388.472 367.551C389.807 369.671 383.681 377.918 382.817 379.331C381.953 380.745 380.382 381.137 379.361 379.331Z" fill="#ECECEC"/>
</svg>
