<svg width="424" height="424" viewBox="0 0 424 424" fill="none" xmlns="http://www.w3.org/2000/svg">
<path d="M132.166 384.535H64.9647C52.5271 354.684 81.3971 357.935 88.6333 365.002C82.2651 356.656 82.2408 333.074 95.7809 327.73C119.805 318.247 129.32 360.155 132.166 384.535Z" fill="#F8F8F8"/>
<path d="M369.184 355C358.76 358.475 347.527 374.667 343.123 382.69H260.775C254.259 369.297 236.342 372.556 233.808 374.366C231.275 376.175 215.345 376.719 225.845 364.411C238.886 349.126 261.62 357.474 270.186 362.421C270.005 360.309 267.254 354.059 257.698 345.951C247.698 337.467 254.097 331.031 264.757 335.273C274.421 339.119 284.122 356.086 284.122 356.086C284.122 356.086 288.682 325.618 298.42 312.288C307.74 299.529 314.889 309.031 311.269 318.441C308.149 326.554 305.961 339.074 306.021 344.684C312.838 335.876 331.279 318.605 348.914 313.555C368.189 308.035 371.356 321.824 360.135 325.5C348.914 329.176 324.236 360.926 324.236 360.926C324.236 360.926 345.236 345.951 367.194 351.561C371.012 352.537 371.763 354.141 369.184 355Z" fill="#ECECEC"/>
<path d="M196.601 91.8C196.701 91 196.901 90.2 197.001 89.4C197.401 87.6 197.701 86 197.501 85.7C195.101 80.9 193.801 74.1 193.201 70.6V70.5C192.601 67.2 192.801 65.9 194.801 65.2C196.801 64.5 198.301 66.4 198.701 67.3C200.101 70.4 201.501 73.2 201.501 73.2C201.501 73.2 204.901 57.8 207.101 53.3C208.301 50.8 210.001 50.2 210.801 50.5C212.901 51.1 212.801 52.6 212.801 52.7C213.301 50 215.001 46.5 218.201 47.2C220.401 47.7 220.001 49.8 219.901 50.1C220.601 49 221.901 47.9 224.001 48.7C226.701 49.7 225.801 53.2 225.801 53.2C230.801 52 229.901 57.8 229.801 58.5C229.801 58.5 229.801 58.5 229.801 58.6C228.301 69 224.201 83.7 221.501 92.9C220.601 97 219.601 102.8 218.401 109.1C215.401 125.6 211.601 146.3 207.601 154.4C203.201 163.3 195.801 171.9 185.501 172.1C170.501 172.4 157.601 164.1 143.001 154.8C135.801 150.2 128.101 145.3 119.701 141.1C106.301 134.4 104.901 113.3 130.501 110.4C147.801 108.5 180.401 139.3 180.401 139.3L196.601 91.8Z" fill="#EFBEA9"/>
<path d="M168.901 128.4L149.601 160C130.801 151 97.5006 129.4 115.101 115.1C132.701 100.8 158.301 118 168.901 128.4Z" fill="#FFDBD5"/>
<path d="M208.301 69.8992C208.301 69.8992 212.201 55.5992 213.201 52.1992" stroke="#424D51" stroke-linecap="round" stroke-linejoin="round"/>
<path d="M213.5 71.6992C213.5 71.6992 216.4 59.3992 218.1 53.8992C218.5 52.4992 219.3 50.7992 220.3 49.6992" stroke="#424D51" stroke-linecap="round" stroke-linejoin="round"/>
<path d="M218.801 73.7008C218.801 73.7008 222.101 60.3008 223.201 56.9008C223.401 56.1008 224.201 54.1008 225.501 53.3008" stroke="#424D51" stroke-linecap="round" stroke-linejoin="round"/>
<path d="M201.8 73.7011C203.546 76.9631 206.211 76.5296 207.802 77.5879C211.688 79.751 211.113 84.2426 209.313 86.2577" stroke="#424D51" stroke-linecap="round" stroke-linejoin="round"/>
<path fill-rule="evenodd" clip-rule="evenodd" d="M145.3 205.5C126 191.9 102.3 167.8 94.9997 158.3C88.9997 150.5 84.6997 141.8 91.5997 132.9C96.6997 126.4 104.9 118.4 115.2 114.8C129.4 109.8 143.7 123 149.2 127.7C154.9 132.5 179.6 154.1 180.7 156C184.7 162.6 151.6 210 145.3 205.5Z" fill="#FFDBD5"/>
<path d="M74.4996 174.4C74.1996 177 73.7996 179.8 73.3996 182.6C67.1996 228.9 72.7996 247.4 94.9996 250.4C105.2 251.8 113.6 247.4 119.3 239.3C126.5 229.1 136.1 197.5 141.9 184.1C145.8 176.3 153.2 159.6 157 148.1C157 148.1 157 148.1 157 148C157.2 147.2 159 141.8 153.9 142.1C153.9 142.1 155.3 138.9 152.9 137.4C151 136.3 149.6 137.2 148.7 138.1C148.8 137.8 149.6 135.9 147.5 135C144.5 133.7 142.3 136.9 141.3 139.5C141.3 139.3 141.6 137.9 139.7 137C138.9 136.6 137.2 136.9 135.6 139.2C132.7 143.2 126.7 157.8 126.7 157.8C126.7 157.8 125.8 154.8 124.9 151.5C124.7 150.6 123.5 148.5 121.4 148.8C119.4 149.1 118.9 150.4 118.9 153.8V153.9C118.9 157.5 119 164.4 120.6 169.6C120.7 169.9 120.1 171.4 119.4 173.2C119.4 173.3 119.3 173.5 119.2 173.6C118 175.9 104.7 199.6 104.7 199.6C104.7 199.6 112.8 171.8 115.1 161C117.5 144.6 111.2 114.7 89.1996 133.2C78.4996 142.1 76.8996 155.2 74.4996 174.4Z" fill="#EFBEA9"/>
<path d="M109.599 186.8L72.1992 181.4C72.7992 172.1 75.1992 150.6 80.2992 138.9C86.6992 124.4 101.199 124.5 104.499 124.8C108.299 125.2 115.099 129.8 116.799 143C118.399 153.7 112.699 176.6 109.599 186.8Z" fill="#FFDBD5"/>
<path d="M126.5 158C125.8 160 125.5 160.5 124.6 164.1" stroke="#424D51" stroke-linecap="round" stroke-linejoin="round"/>
<path d="M133.6 155.799C133.6 155.799 139.9 142.399 141.4 139.199" stroke="#424D51" stroke-linecap="round" stroke-linejoin="round"/>
<path d="M138.4 158.299C138.4 158.299 143.3 146.599 145.9 141.499C146.6 140.199 147.6 138.699 148.8 137.699" stroke="#424D51" stroke-linecap="round" stroke-linejoin="round"/>
<path d="M143.4 161.299C143.4 161.299 148.9 148.599 150.6 145.399C151 144.699 152.1 142.899 153.5 142.199" stroke="#424D51" stroke-linecap="round" stroke-linejoin="round"/>
<path d="M90.8008 220.7C90.8008 220.7 97.2008 208.7 105.301 197.9" stroke="#424D51" stroke-linecap="round" stroke-linejoin="round"/>
<path d="M113.5 174.7C113.5 174.7 116.4 162.6 115.1 153.4" stroke="#424D51" stroke-linecap="round" stroke-linejoin="round"/>
<path d="M330 166.499C331.6 154.999 333.3 143.499 334.9 131.999C308.1 126.799 281.2 121.599 254.4 116.399C248.1 115.199 241.5 113.999 235.5 115.999C231.2 117.399 227.6 120.299 224.2 123.099C210.4 134.199 196.6 145.299 182.8 156.299C181.5 155.499 180.1 154.599 178.8 153.799C168.5 167.499 158.6 181.599 149.2 196.099C147.5 198.699 145.8 201.299 144.9 204.199C143.6 208.199 143.7 212.499 143.9 216.699C144.9 246.699 146 276.699 147 306.699C147.5 321.699 148 336.699 148.5 351.699C148.6 354.199 147.8 359.099 149.6 360.499C151.1 361.699 158.5 360.699 160.5 360.799C168.2 360.999 175.9 361.199 183.6 361.399C181.9 311.299 183.7 260.999 189 211.199C189.2 209.099 189.5 206.999 190.4 205.199C191.2 203.599 192.6 202.199 193.9 200.999C208.5 186.799 223 172.599 237.6 158.399C239.8 156.299 242.1 154.099 245 153.099C248 152.099 251.3 152.699 254.5 153.199C279.5 157.599 304.7 161.999 330 166.499Z" fill="#EA7A79"/>
<path fill-rule="evenodd" clip-rule="evenodd" d="M184.4 327.6L146.4 327.5L148.2 363.7L183.8 362.7L184.4 327.6Z" fill="#FFDBD5"/>
<path fill-rule="evenodd" clip-rule="evenodd" d="M296.5 161.199L302.5 124.699L337.9 132.499L331 167.499L296.5 161.199Z" fill="#FFDBD5"/>
<path d="M183.4 156.9L191.3 161.3" stroke="#424D51" stroke-linecap="round" stroke-linejoin="round"/>
<path fill-rule="evenodd" clip-rule="evenodd" d="M330.5 164.499C330.5 164.499 330.1 167.999 332.9 168.899C334.7 169.499 336 168.599 336.9 167.599C336.9 167.599 337.6 169.299 339.9 171.099C342.2 172.899 346.5 175.899 349.8 175.099C351.3 174.699 355.6 139.399 355.6 139.399L362.2 102.699C362.2 102.699 354.7 102.899 351 111.099C347.8 118.299 347.4 119.999 346.4 123.699C345.7 125.999 344.4 127.799 342.3 128.399C339.2 129.399 337.7 130.799 336 133.699C333.4 138.299 330.5 159.199 330.5 164.499Z" fill="#FFB6A9"/>
<path fill-rule="evenodd" clip-rule="evenodd" d="M349.899 175.099C348.599 175.999 338.999 166.799 339.599 158.699C340.099 151.199 347.399 146.999 349.399 142.399C350.699 139.299 351.499 134.499 352.199 130.199C352.499 128.299 356.599 104.699 356.599 104.699C356.599 104.699 361.699 99.799 363.399 102.699C364.499 104.299 351.099 174.299 349.899 175.099Z" fill="#D9A48A"/>
<path fill-rule="evenodd" clip-rule="evenodd" d="M181.001 361.599C181.001 361.599 184.501 361.799 184.901 364.699C185.201 366.599 184.101 367.699 183.001 368.399C183.001 368.399 184.601 369.399 185.901 371.899C187.301 374.399 189.501 379.199 188.201 382.299C187.601 383.699 152.101 382.199 152.101 382.199L114.801 382.699C114.801 382.699 116.301 375.299 124.901 373.099C132.601 371.099 134.301 370.999 138.101 370.599C140.501 370.299 142.401 369.299 143.401 367.399C144.901 364.499 146.501 363.299 149.601 362.099C154.801 360.199 175.901 360.899 181.001 361.599Z" fill="#FFB6A9"/>
<path fill-rule="evenodd" clip-rule="evenodd" d="M188.399 382.601C189.499 381.401 181.999 370.501 173.899 369.701C166.399 369.001 161.099 375.501 156.099 376.701C152.899 377.501 147.899 377.501 143.599 377.501C141.699 377.501 117.699 377.601 117.699 377.601C117.699 377.601 111.999 381.801 114.599 384.001C116.099 385.301 187.399 383.701 188.399 382.601Z" fill="#D9A48A"/>
<path d="M162.3 139.401C154.3 130.301 135.5 112.801 123.9 115.101" stroke="#424D51" stroke-linecap="round" stroke-linejoin="round"/>
<path d="M381.814 99.1495C382.575 90.9383 371.447 78.5557 353.373 77.5127" stroke="#424D51" stroke-linecap="round" stroke-linejoin="round"/>
<path d="M391.676 95.9591C390.575 90.0361 384.069 81.3942 373.926 77.835" stroke="#424D51" stroke-linecap="round" stroke-linejoin="round"/>
<path d="M115.901 114.199C111.901 115.899 104.301 120.299 95.301 125.299C81.101 133.099 95.8011 136.199 109.201 132.599C114.201 131.199 122.901 127.199 123.301 119.699C123.501 114.199 120.901 112.099 115.901 114.199Z" fill="#EFBEA9"/>
<path fill-rule="evenodd" clip-rule="evenodd" d="M98.3015 77.019C98.3015 77.019 103.149 68.5836 113.557 77.9609C120.125 83.8667 122.269 94.5809 121.954 98.162C121.61 102.067 120.908 108.618 108.634 110.719C107.368 110.938 103.877 113.594 103.877 113.594C103.877 113.594 87.4644 123.063 79.1555 103.247C76.3815 96.6308 77.3149 91.506 78.4984 87.0653C79.7791 82.4187 88.633 71.8998 98.3015 77.019Z" fill="#AF836B"/>
<path fill-rule="evenodd" clip-rule="evenodd" d="M95.0184 125.545C94.597 128.566 118.265 122.311 117.18 119.592C115.298 114.841 114.333 112.016 111.175 103.433C109.52 98.9169 104.806 101.15 102.145 101.936C97.0941 103.411 97.2504 109.254 97.2504 109.254C97.2504 109.254 95.462 122.534 95.0184 125.545Z" fill="#EFBEA9"/>
<path fill-rule="evenodd" clip-rule="evenodd" d="M96.2452 105.107C96.6095 106.808 99.1927 113.668 105.521 115.198C110.55 116.428 114.999 114.086 114.999 114.086C114.999 114.086 112.19 105.155 111.803 104.363C111.407 103.594 95.9926 103.892 96.2452 105.107Z" fill="#424D51"/>
<path fill-rule="evenodd" clip-rule="evenodd" d="M92.523 100.43C92.523 100.43 98.011 114.218 106.714 112.092C115.418 109.965 114.481 102.524 114.45 101.968C114.419 101.413 111.076 89.1094 108.081 86.0355C105.086 82.9616 98.2446 79.6842 92.6949 83.644C87.1204 87.6326 88.0962 92.1036 89.4268 95.8021C90.1484 97.8295 92.523 100.43 92.523 100.43Z" fill="#EFBEA9"/>
<path fill-rule="evenodd" clip-rule="evenodd" d="M93.2131 97.1315C92.4601 96.2546 86.3158 93.3271 84.0436 98.0592C82.5616 101.176 84.4299 103.181 86.1965 103.981C88.4478 105.019 90.8718 104.718 92.872 102.925C94.8633 101.155 94.3223 99.6018 94.3002 99.024C94.2473 98.1105 93.735 97.7199 93.2131 97.1315Z" fill="#EFBEA9"/>
<path fill-rule="evenodd" clip-rule="evenodd" d="M107.607 91.206C107.51 90.0544 109.729 83.6201 114.696 85.3165C117.958 86.4441 118.078 89.1822 117.411 91.0032C116.573 93.336 114.659 94.8539 111.978 95.0239C109.313 95.1874 108.576 93.7353 108.195 93.3079C107.581 92.6299 107.661 91.9907 107.607 91.206Z" fill="#EFBEA9"/>
<path fill-rule="evenodd" clip-rule="evenodd" d="M92.2694 91.1615C92.2694 91.1615 100.767 92.0015 105.55 85.5562C105.584 85.5053 107.466 88.53 109.081 87.394C109.081 87.394 105.555 76.5095 95.5082 81.0339C84.6635 85.9297 88.8376 95.7331 89.3681 95.5107C91.3185 94.6929 92.2694 91.1615 92.2694 91.1615Z" fill="#AF836B"/>
<path d="M100.649 102.095C102.898 105.051 105.788 102.646 105.788 102.646" stroke="#424D51" stroke-width="0.676772" stroke-linecap="round" stroke-linejoin="round"/>
<path d="M102.896 97.3231C102.896 97.3231 104.575 97.4447 104.759 98.5275C104.943 99.6104 103.791 99.9239 103.038 100.054" stroke="#424D51" stroke-width="0.676772" stroke-linecap="round" stroke-linejoin="round"/>
<path d="M104.416 94.8847C104.416 94.8847 104.711 93.1124 106.103 92.3825C107.494 91.6526 108.516 92.1924 109.376 92.9324" stroke="#424D51" stroke-width="0.676772" stroke-linecap="round" stroke-linejoin="round"/>
<path fill-rule="evenodd" clip-rule="evenodd" d="M105.792 92.8557C106.115 92.3585 106.773 92.203 107.262 92.5049C107.759 92.8274 107.935 93.4775 107.613 93.9747C107.29 94.472 106.64 94.648 106.143 94.3256C105.654 94.0236 105.499 93.3649 105.792 92.8557Z" stroke="#424D51" stroke-width="0.676772" stroke-linecap="round" stroke-linejoin="round"/>
<path d="M94.9159 98.8684C94.9159 98.8684 95.2113 97.096 96.6025 96.3661C97.9937 95.6362 99.0158 96.1761 99.8764 96.916" stroke="#424D51" stroke-width="0.676772" stroke-linecap="round" stroke-linejoin="round"/>
<path fill-rule="evenodd" clip-rule="evenodd" d="M96.2921 96.8394C96.6145 96.3422 97.2733 96.1866 97.7619 96.4885C98.2591 96.811 98.4352 97.4612 98.1127 97.9584C97.7903 98.4556 97.1401 98.6317 96.6429 98.3092C96.1543 98.0073 95.9987 97.3485 96.2921 96.8394Z" stroke="#424D51" stroke-width="0.676772" stroke-linecap="round" stroke-linejoin="round"/>
<path d="M112.848 87.8532C112.848 87.8532 111.9 88.6826 111.592 90.2519M111.524 91.7841C111.469 91.2138 111.504 90.7023 111.592 90.2519M111.592 90.2519C111.97 90.0301 112.906 89.612 113.627 89.7132" stroke="#424D51" stroke-width="0.676772" stroke-linecap="round" stroke-linejoin="round"/>
<path d="M88.1622 98.0709C88.1622 98.0709 89.4183 97.9761 90.7528 98.8569M91.8937 99.882C91.5255 99.443 91.136 99.1098 90.7528 98.8569M90.7528 98.8569C90.3298 98.971 89.3754 99.3455 88.9421 99.9308" stroke="#424D51" stroke-width="0.676772" stroke-linecap="round" stroke-linejoin="round"/>
</svg>
