<svg width="424" height="424" viewBox="0 0 424 424" fill="none" xmlns="http://www.w3.org/2000/svg">
<ellipse cx="205.45" cy="334.41" rx="91.3798" ry="12.0133" fill="#ECECEC"/>
<ellipse cx="72.4928" cy="323.163" rx="10.6202" ry="2.49513" fill="#ECECEC"/>
<ellipse cx="323.139" cy="362.6" rx="20.6182" ry="4.84408" fill="#ECECEC"/>
<ellipse cx="270.395" cy="357.753" rx="11.3206" ry="2.65968" fill="#ECECEC"/>
<ellipse cx="46.1898" cy="353.901" rx="11.3206" ry="2.65968" fill="#ECECEC"/>
<ellipse cx="382.561" cy="346.423" rx="5.6603" ry="1.32984" fill="#ECECEC"/>
<ellipse cx="151.721" cy="381.017" rx="5.6603" ry="1.32984" fill="#ECECEC"/>
<ellipse cx="121.16" cy="357.89" rx="4.32072" ry="1.01512" fill="#ECECEC"/>
<path fill-rule="evenodd" clip-rule="evenodd" d="M233.8 137.035C233.8 137.035 245.9 124.435 233.8 114.535C227.7 109.535 230.7 106.035 229.9 102.435C229.5 100.435 227.4 103.635 226.5 97.8346C224.7 85.6346 217.4 82.1346 207.9 86.1346C201.9 88.7346 201.2 94.0346 200.1 98.0346C198.8 102.635 195.1 107.435 190.3 108.735C184.1 110.435 169.6 117.635 178 131.535C179.7 134.235 186.2 143.135 190.3 142.835C194.4 142.535 214.8 132.035 214.8 132.035L233.8 137.035Z" fill="#89716E"/>
<path fill-rule="evenodd" clip-rule="evenodd" d="M356.409 185.299C356.409 185.299 318.372 212.593 307.708 220.402C296.417 228.491 288.423 221.568 284.949 218.434C284.582 218.036 284.226 217.745 283.881 217.562L282.942 216.895C267.212 204.544 251.611 192.399 237.758 178.121C215.761 155.411 246.135 134.321 266.493 153.714C277.572 164.245 299.278 188.397 299.278 188.397C299.278 188.397 331.928 169.364 339.839 164.549C340.152 164.409 340.563 164.151 340.865 163.903C340.962 163.784 341.178 163.763 341.275 163.644C343.434 162.341 346.413 160.521 346.413 160.521C346.413 160.521 345.086 159.239 344.277 157.689C342.411 154.286 343.307 151.26 344.053 148.901C344.798 146.542 346.612 143.968 349.525 144.765C352.331 145.572 352.351 149.051 351.822 150.3C350.84 152.465 353.008 155.62 355.522 154.607C359.419 153.239 359.431 147.908 354.942 147.704C350.55 147.382 350.799 143.332 352.267 141.663C353.735 139.994 357.178 139.541 361.073 141.436C365.411 143.395 366.089 149.092 366.089 149.092C366.089 149.092 375.49 142.823 378.253 141.024C380.714 139.473 382.473 139.624 383.854 141.444C385.623 143.877 383.259 146.398 383.259 146.398C386.281 145.008 387.608 146.289 388.266 147.42C389.992 150.511 387.369 152.622 387.369 152.622C387.585 152.6 387.682 152.482 387.898 152.46C388.955 152.137 390.531 151.544 392.171 153.773C394.447 156.918 389.093 161.151 383.135 165.879C382.325 166.504 381.624 167.118 380.803 167.635C375.59 172.18 361.925 181.594 356.409 185.299Z" fill="#FDDCC4"/>
<path d="M353.436 163.191C351.45 164.042 347.641 163.009 346.347 160.963" stroke="#424D51" stroke-linecap="round" stroke-linejoin="round"/>
<path d="M365.094 153.324C365.094 153.324 366.293 151.137 366.099 149.199" stroke="#424D51" stroke-linecap="round" stroke-linejoin="round"/>
<path d="M368.008 157.384L384.188 145.87" stroke="#424D51" stroke-linecap="round" stroke-linejoin="round"/>
<path d="M372.245 163.812L388.22 152.427" stroke="#424D51" stroke-linecap="round" stroke-linejoin="round"/>
<path d="M295.836 193.692L298.489 189.162L295.44 188.68" stroke="#424D51" stroke-linecap="round" stroke-linejoin="round"/>
<path d="M276.086 159.943L246.501 191L229.13 174.966C221.45 159.749 211.22 129.424 223.822 129.938C248.311 130.937 266.598 150.97 276.086 159.943Z" fill="#E5CDF4"/>
<path fill-rule="evenodd" clip-rule="evenodd" d="M181.6 209.976C176.7 211.461 170.7 227.155 170.7 227.155C170.7 227.155 126.925 233.64 121.125 239.048C115.325 244.456 181.3 251.652 181.3 251.652C181.3 251.652 213.1 251.122 227.8 252.924C247.875 259.992 284.625 241.832 291.125 236.529C297.625 231.121 245.5 225.353 245.5 225.353C245.5 225.353 240.2 210.718 236.5 209.446C232.8 208.067 196.2 205.628 181.6 209.976Z" fill="#ECDDF6"/>
<mask id="mask0_12_5915" style="mask-type:alpha" maskUnits="userSpaceOnUse" x="120" y="207" width="172" height="48">
<path fill-rule="evenodd" clip-rule="evenodd" d="M181.6 209.976C176.7 211.461 170.7 227.155 170.7 227.155C170.7 227.155 126.925 233.64 121.125 239.048C115.325 244.456 181.3 251.652 181.3 251.652C181.3 251.652 213.1 251.122 227.8 252.924C247.875 259.992 284.625 241.832 291.125 236.529C297.625 231.121 245.5 225.353 245.5 225.353C245.5 225.353 240.2 210.718 236.5 209.446C232.8 208.067 196.2 205.628 181.6 209.976Z" fill="#ECDDF6"/>
</mask>
<g mask="url(#mask0_12_5915)">
<circle cx="129.578" cy="222.865" r="3" fill="white"/>
<circle cx="222.578" cy="222.865" r="3" fill="white"/>
<circle cx="129.578" cy="248.865" r="3" fill="white"/>
<circle cx="222.578" cy="248.865" r="3" fill="white"/>
<circle cx="176.078" cy="222.865" r="3" fill="white"/>
<circle cx="269.078" cy="222.865" r="3" fill="white"/>
<circle cx="176.078" cy="248.865" r="3" fill="white"/>
<circle cx="269.078" cy="248.865" r="3" fill="white"/>
<circle cx="123.578" cy="235.865" r="3" fill="white"/>
<circle cx="216.578" cy="235.865" r="3" fill="white"/>
<circle cx="123.578" cy="209.865" r="3" fill="white"/>
<circle cx="216.578" cy="209.865" r="3" fill="white"/>
<circle cx="170.078" cy="235.865" r="3" fill="white"/>
<circle cx="263.078" cy="235.865" r="3" fill="white"/>
<circle cx="170.078" cy="209.865" r="3" fill="white"/>
<circle cx="263.078" cy="209.865" r="3" fill="white"/>
<circle cx="145.078" cy="222.865" r="3" fill="white"/>
<circle cx="238.078" cy="222.865" r="3" fill="white"/>
<circle cx="145.078" cy="248.865" r="3" fill="white"/>
<circle cx="238.078" cy="248.865" r="3" fill="white"/>
<circle cx="191.578" cy="222.865" r="3" fill="white"/>
<circle cx="284.578" cy="222.865" r="3" fill="white"/>
<circle cx="191.578" cy="248.865" r="3" fill="white"/>
<circle cx="284.578" cy="248.865" r="3" fill="white"/>
<circle cx="139.078" cy="235.865" r="3" fill="white"/>
<circle cx="232.078" cy="235.865" r="3" fill="white"/>
<circle cx="139.078" cy="209.865" r="3" fill="white"/>
<circle cx="232.078" cy="209.865" r="3" fill="white"/>
<circle cx="185.578" cy="235.865" r="3" fill="white"/>
<circle cx="278.578" cy="235.865" r="3" fill="white"/>
<circle cx="185.578" cy="209.865" r="3" fill="white"/>
<circle cx="278.578" cy="209.865" r="3" fill="white"/>
<circle cx="160.578" cy="222.865" r="3" fill="white"/>
<circle cx="253.578" cy="222.865" r="3" fill="white"/>
<circle cx="160.578" cy="248.865" r="3" fill="white"/>
<circle cx="253.578" cy="248.865" r="3" fill="white"/>
<circle cx="207.078" cy="222.865" r="3" fill="white"/>
<circle cx="207.078" cy="248.865" r="3" fill="white"/>
<circle cx="154.578" cy="235.865" r="3" fill="white"/>
<circle cx="247.578" cy="235.865" r="3" fill="white"/>
<circle cx="154.578" cy="209.865" r="3" fill="white"/>
<circle cx="247.578" cy="209.865" r="3" fill="white"/>
<circle cx="201.078" cy="235.865" r="3" fill="white"/>
<circle cx="294.078" cy="235.865" r="3" fill="white"/>
<circle cx="201.078" cy="209.865" r="3" fill="white"/>
<circle cx="294.078" cy="209.865" r="3" fill="white"/>
</g>
<path fill-rule="evenodd" clip-rule="evenodd" d="M122.399 236.736C122.399 236.736 83.6991 236.236 88.7991 264.536C90.9991 276.336 103.499 280.736 113.999 282.136C136.699 285.036 198.299 280.236 214.499 271.636C209.624 235.626 122.399 236.736 122.399 236.736Z" fill="#E5CDF4"/>
<path fill-rule="evenodd" clip-rule="evenodd" d="M230.386 243.73C230.386 243.73 227.115 237.681 233.333 236.282C255.434 229.752 271.879 212.82 284.573 214.302C292.398 215.215 266.941 258.171 242.118 270.067C229.163 276.279 193.753 264.986 193.753 264.986L224.922 262.289L230.386 243.73Z" fill="#DCBEF0"/>
<path fill-rule="evenodd" clip-rule="evenodd" d="M64.9452 202.077C64.9452 202.077 105.614 225.268 117.033 231.926C129.103 238.797 136.334 231.08 139.464 227.602C139.787 227.168 140.111 226.841 140.435 226.623L141.3 225.862C155.661 211.943 169.914 198.241 182.206 182.599C201.723 157.726 169.321 139.908 151.09 161.313C141.165 172.939 122.089 199.218 122.089 199.218C122.089 199.218 87.6368 183.683 79.2674 179.717C78.9415 179.61 78.5067 179.395 78.1804 179.18C78.0714 179.073 77.8545 179.074 77.7455 178.966C75.463 177.894 72.3109 176.393 72.3109 176.393C72.3109 176.393 73.4974 174.981 74.1407 173.355C75.6427 169.776 74.4363 166.86 73.4498 164.591C72.4633 162.323 70.3917 159.951 67.5768 161.047C64.8704 162.141 65.2117 165.603 65.8679 166.791C67.0703 168.841 65.242 172.205 62.6356 171.459C58.6183 170.504 58.0517 165.203 62.4954 164.533C66.8301 163.756 66.161 159.754 64.5272 158.247C62.8934 156.739 59.4224 156.647 55.7453 158.936C51.635 161.336 51.5528 167.073 51.5528 167.073C51.5528 167.073 41.5507 161.815 38.6155 160.314C36.0066 159.027 34.2728 159.36 33.0887 161.313C31.5823 163.918 34.1956 166.178 34.1956 166.178C31.0455 165.11 29.8589 166.523 29.3221 167.716C27.9271 170.969 30.7554 172.796 30.7554 172.796C30.5384 172.797 30.4295 172.689 30.2126 172.69C29.127 172.479 27.4982 172.053 26.0992 174.441C24.1624 177.805 29.9274 181.458 36.3451 185.541C37.2152 186.078 37.9769 186.616 38.8465 187.045C44.5045 191.023 59.0742 198.966 64.9452 202.077Z" fill="#FDDCC4"/>
<path d="M65.6033 179.778C67.6669 180.418 71.3479 178.994 72.4225 176.825" stroke="#424D51" stroke-linecap="round" stroke-linejoin="round"/>
<path d="M52.9827 171.179C52.9827 171.179 51.5633 169.129 51.5544 167.181" stroke="#424D51" stroke-linecap="round" stroke-linejoin="round"/>
<path d="M50.5065 175.519L33.217 165.749" stroke="#424D51" stroke-linecap="round" stroke-linejoin="round"/>
<path d="M46.9595 182.354L29.8874 172.691" stroke="#424D51" stroke-linecap="round" stroke-linejoin="round"/>
<path d="M125.457 203.815L122.803 199.285L125.853 198.803" stroke="#424D51" stroke-linecap="round" stroke-linejoin="round"/>
<path d="M142.197 168.505L174.851 196.317L190.461 178.563C196.516 162.63 203.538 131.407 191.058 133.228C166.806 136.768 150.7 158.595 142.197 168.505Z" fill="#E5CDF4"/>
<path fill-rule="evenodd" clip-rule="evenodd" d="M181.4 183.335C181.4 183.335 180.4 188.835 181.4 209.735C181.8 211.335 236.1 208.835 236.1 208.835C236.1 208.835 238.1 164.235 238.1 162.135C238.1 161.635 236.3 128.935 222 129.935C212 130.735 195.5 129.235 184.4 135.235C179.9 137.735 181.4 183.335 181.4 183.335Z" fill="#E5CDF4"/>
<path d="M237.699 171.736L238.199 158.336" stroke="#424D51" stroke-linecap="round" stroke-linejoin="round"/>
<path fill-rule="evenodd" clip-rule="evenodd" d="M195.601 131.535C193.901 134.335 217.201 142.335 220.101 134.835C220.201 129.335 220.401 126.135 220.901 116.235C221.101 111.035 215.501 111.335 212.501 111.035C206.901 110.435 204.601 116.235 204.601 116.235C204.601 116.235 197.301 128.635 195.601 131.535Z" fill="#FDDCC4"/>
<path fill-rule="evenodd" clip-rule="evenodd" d="M205.301 111.735C204.901 113.535 204.701 121.435 210.301 125.635C214.801 128.935 220.301 128.335 220.301 128.335C220.301 128.335 221.201 118.435 221.101 117.435C221.001 116.535 205.601 110.435 205.301 111.735Z" fill="#424D51"/>
<path fill-rule="evenodd" clip-rule="evenodd" d="M203.601 105.535C203.601 105.535 203.301 121.535 212.801 123.035C222.301 124.535 224.501 116.735 224.701 116.235C224.901 115.635 226.701 102.035 225.001 97.735C223.301 93.435 217.901 87.335 210.701 88.935C203.501 90.535 202.601 95.435 202.401 99.635C202.301 101.935 203.601 105.535 203.601 105.535Z" fill="#FDDCC4"/>
<path fill-rule="evenodd" clip-rule="evenodd" d="M205.601 102.535C205.201 101.335 200.301 95.8352 196.101 99.6352C193.301 102.135 194.301 104.835 195.801 106.435C197.601 108.435 200.101 109.135 202.901 108.135C205.601 107.235 205.701 105.435 205.901 104.835C206.301 103.935 205.901 103.335 205.601 102.535Z" fill="#FDDCC4"/>
<path fill-rule="evenodd" clip-rule="evenodd" d="M222.401 102.635C222.801 101.435 227.701 96.0351 231.901 99.7351C234.701 102.235 233.701 104.935 232.201 106.535C230.401 108.535 227.901 109.235 225.101 108.235C222.401 107.335 222.301 105.535 222.101 104.935C221.801 104.035 222.101 103.435 222.401 102.635Z" fill="#FDDCC4"/>
<path fill-rule="evenodd" clip-rule="evenodd" d="M207.201 96.2355C207.201 96.2355 215.301 100.635 222.701 96.2355C222.801 96.2355 223.401 100.035 225.501 99.5355C225.501 99.5355 225.001 88.0355 213.301 88.4355C201.401 88.8355 201.801 99.3355 202.601 99.4355C204.801 99.7355 207.201 96.2355 207.201 96.2355Z" fill="#89716E"/>
<path fill-rule="evenodd" clip-rule="evenodd" d="M210.401 109.735C210.501 109.735 213.801 111.535 215.601 112.135C216.201 112.335 214.501 114.335 212.501 113.635C210.301 112.935 209.801 109.535 210.401 109.735Z" fill="white"/>
<path d="M214.601 106.235C214.601 106.235 216.201 107.035 215.901 108.235C215.601 109.335 214.401 109.235 213.601 109.035" stroke="#424D51" stroke-width="0.729" stroke-linecap="round" stroke-linejoin="round"/>
<path d="M217.101 104.435C217.101 104.435 218.101 102.835 219.801 102.635C221.501 102.535 222.301 103.435 222.801 104.535" stroke="#424D51" stroke-width="0.729" stroke-linecap="round" stroke-linejoin="round"/>
<path d="M219.301 103.035C219.801 102.635 220.501 102.835 220.901 103.335C221.301 103.835 221.201 104.535 220.601 104.935C220.101 105.335 219.401 105.235 219.001 104.635C218.701 104.135 218.801 103.335 219.301 103.035Z" stroke="#424D51" stroke-width="0.729" stroke-linecap="round" stroke-linejoin="round"/>
<path d="M206.001 104.435C206.001 104.435 207.001 102.835 208.701 102.635C210.401 102.535 211.201 103.435 211.701 104.535" stroke="#424D51" stroke-width="0.729" stroke-linecap="round" stroke-linejoin="round"/>
<path d="M208.201 103.035C208.701 102.635 209.401 102.835 209.801 103.335C210.201 103.835 210.101 104.535 209.501 104.935C209.001 105.335 208.301 105.235 207.901 104.635C207.601 104.135 207.701 103.335 208.201 103.035Z" stroke="#424D51" stroke-width="0.729" stroke-linecap="round" stroke-linejoin="round"/>
<path d="M226.301 103.335C226.801 103.235 227.901 103.235 228.501 103.635M228.601 101.535C228.601 101.535 227.301 101.935 226.401 103.435L228.601 101.535ZM225.601 104.835C225.801 104.235 226.001 103.735 226.301 103.335L225.601 104.835Z" stroke="#424D51" stroke-width="0.729" stroke-linecap="round" stroke-linejoin="round"/>
<path d="M202.101 103.235C201.601 103.135 200.501 103.135 199.901 103.535M199.801 101.335C199.801 101.335 201.101 101.735 202.001 103.235L199.801 101.335ZM202.801 104.735C202.601 104.135 202.401 103.635 202.101 103.235L202.801 104.735Z" stroke="#424D51" stroke-width="0.729" stroke-linecap="round" stroke-linejoin="round"/>
<path fill-rule="evenodd" clip-rule="evenodd" d="M202.601 77.6352C201.101 79.8352 200.901 83.6352 204.101 85.8352C207.401 88.1352 211.801 88.1352 214.301 83.0352C215.801 79.9352 213.901 76.1352 210.201 74.9352C207.701 74.1352 204.801 74.4352 202.601 77.6352Z" fill="#89716E"/>
<path fill-rule="evenodd" clip-rule="evenodd" d="M186.999 244.624C186.999 244.624 190.124 238.499 183.874 237.249C161.624 231.249 144.779 214.714 132.123 216.499C124.323 217.599 150.799 259.934 175.899 271.234C188.999 277.134 199.499 279.034 203.199 279.734C224.499 283.334 301.699 288.634 320.399 272.234C327.199 266.234 327.299 256.434 322.899 248.934C318.599 241.434 295.699 231.574 287.999 232.874C283.099 233.674 263.749 246.249 263.749 246.249C263.749 246.249 248.1 243.935 237.999 243.249C218.121 241.898 186.999 244.624 186.999 244.624Z" fill="#E5CDF4"/>
<path fill-rule="evenodd" clip-rule="evenodd" d="M186.985 244.624C186.985 244.624 190.11 238.499 183.86 237.249C161.61 231.249 144.765 214.714 132.109 216.499C124.309 217.599 151.135 259.762 176.235 271.062C190.085 277.826 203.185 279.734 203.185 279.734C203.185 279.734 209.241 243.046 208.61 243.062C190.485 243.499 186.985 244.624 186.985 244.624Z" fill="#DCBEF0"/>
<path d="M285.6 254.535C285.6 254.535 269.375 245.75 249.5 244.5" stroke="#424D51" stroke-linecap="round" stroke-linejoin="round"/>
<path d="M138.375 235.625C138.375 235.625 157.5 268.625 194 277.835" stroke="#424D51" stroke-linecap="round" stroke-linejoin="round"/>
<path d="M181.077 189.164L186.983 166.487" stroke="#424D51" stroke-linecap="round" stroke-linejoin="round"/>
</svg>
