<svg width="424" height="424" viewBox="0 0 424 424" fill="none" xmlns="http://www.w3.org/2000/svg">
<path d="M206.838 326.331C248.693 324.317 233.842 288.836 215.049 268.309C204.74 254.442 176.13 226.599 144.163 226.161C104.205 225.614 71.6356 272.415 56.3089 298.962C44.0477 320.201 69.7187 326.058 81.2137 326.331C103.474 325.145 155.658 328.794 206.838 326.331Z" fill="#F8F8F8"/>
<path d="M72.1813 333.455C81.2135 333.455 81.4883 327.974 79.4353 322.363C76.2888 315.931 68.7788 306.627 59.3163 306.626C54.9889 306.625 39.4758 320.174 40.2969 327.837C41.118 335.5 62.976 333.455 72.1813 333.455Z" fill="#E1E1E1"/>
<path d="M98.0412 335.499C105.267 334.076 103.971 329.524 102.42 327.425C98.0408 322.225 89.1468 315.793 83.2625 314.836C78.9912 314.141 67.6622 321.952 68.4832 329.615C69.3043 337.278 89.0095 337.278 98.0412 335.499Z" fill="#ECECEC"/>
<path d="M311.124 330.473C312.883 330.473 315.731 317.907 316.936 311.624C316.936 309.477 316.307 305.53 313.794 306.912C310.653 308.64 309.396 316.965 308.925 321.049C308.453 325.133 308.925 330.473 311.124 330.473Z" fill="#ECECEC"/>
<path d="M304.055 326.625C304.055 323.04 302.301 313.981 301.306 310.132C300.32 305.854 298.086 306.912 297.458 308.64C296.83 310.368 297.851 318.3 298.636 321.442C299.422 324.583 300.128 329.688 301.306 330.081C302.485 330.474 304.055 329.767 304.055 326.625Z" fill="#ECECEC"/>
<path d="M295.023 328.667C295.84 327.222 292.798 321.259 291.175 318.457C289.565 315.473 287.248 314.766 285.913 316.886C284.578 319.007 290.704 327.253 291.568 328.667C292.432 330.081 294.002 330.473 295.023 328.667Z" fill="#ECECEC"/>
<path fill-rule="evenodd" clip-rule="evenodd" d="M287.9 109.1C287.9 109.1 285.6 106.9 286.6 102.7C287.3 99.6001 293.3 82.8001 295.8 75.0001C296.7 72.2001 299.2 70.3001 302 70.0001L316.9 68.6001C319.4 68.4001 321.3 70.7001 320.6 73.0001L309.6 108L287.9 109.1Z" fill="#424D51"/>
<path d="M286.099 109.801C283.999 112.101 276.499 127.101 276.499 127.101C276.399 118.001 259.899 91.3009 239.699 93.4009C231.599 95.1009 232.299 105.301 233.999 121.901C234.499 126.501 234.399 132.001 234.399 137.901C234.199 159.001 232.499 180.301 256.399 187.601C269.099 191.501 279.699 186.701 287.099 176.001C299.599 158.001 302.599 135.601 309.799 115.401C312.599 107.501 316.299 95.2009 319.199 82.7009C319.999 79.3009 314.399 77.5009 311.499 90.3009C311.499 90.3009 306.999 81.5009 302.899 83.4009C300.799 84.8009 302.399 87.6009 302.399 87.6009C302.399 87.6009 299.699 84.7009 297.399 86.8009C295.399 88.6009 298.999 93.6009 298.999 93.6009C298.999 93.6009 298.099 92.8009 296.399 93.6009C294.599 94.7009 294.699 96.7009 296.199 99.5009C297.499 101.801 299.699 106.701 299.699 106.701C299.699 106.701 288.099 105.601 286.099 109.801Z" fill="#D9A48A"/>
<path d="M256.9 143.4L271.1 138.8L277 125.9C274.1 118.6 270.5 110.3 263.5 102.8C256.2 95 245.9 93 242 93V94L256.9 143.4Z" fill="#BA79E2"/>
<path d="M306.1 105.5C306.1 105.5 302.7 96.8004 298.9 93.4004" stroke="#424D51" stroke-linecap="round" stroke-linejoin="round"/>
<path d="M310.2 101.401C310.2 101.401 306.4 91.3008 302.1 87.3008" stroke="#424D51" stroke-linecap="round" stroke-linejoin="round"/>
<path d="M314.001 96.8996C312.701 92.6996 311.901 91.3996 310.301 88.5996" stroke="#424D51" stroke-linecap="round" stroke-linejoin="round"/>
<path d="M261.9 160.9C261.9 160.9 272.2 133.6 280.4 120.1" stroke="#424D51" stroke-linecap="round" stroke-linejoin="round"/>
<path d="M226.099 355.601L260.899 353.301C260.199 314.901 259.499 276.501 258.399 238.001C258.399 226.201 257.299 214.201 256.599 202.501C255.999 192.101 256.199 180.701 253.599 170.401C252.799 167.301 196.999 165.801 195.899 167.001C192.999 169.801 191.199 174.201 189.399 177.701C186.199 183.901 183.099 190.101 180.099 196.401C174.599 207.901 169.099 219.501 164.099 231.201C159.899 241.101 155.199 252.301 155.199 263.201C155.299 272.901 169.399 355.601 169.399 355.601L204.099 352.101C204.099 352.101 194.199 273.901 192.799 262.701C192.399 259.301 195.499 254.101 196.799 251.101C200.799 241.201 205.399 231.601 209.999 222.001C211.899 218.201 213.699 214.301 215.599 210.501C216.199 209.301 218.299 206.501 218.199 205.101C221.199 255.301 224.099 305.401 226.099 355.601Z" fill="#C7E7DA"/>
<path fill-rule="evenodd" clip-rule="evenodd" d="M203.501 342.199L167.301 345.599L169.801 358.699L205.601 356.399L203.501 342.199Z" fill="#B68674"/>
<path fill-rule="evenodd" clip-rule="evenodd" d="M225 344L261.2 343V356.3L225.6 356.8L225 344Z" fill="#B68674"/>
<path fill-rule="evenodd" clip-rule="evenodd" d="M203 353.7C203 353.7 206.6 353.9 207 356.8C207.2 358.7 206.2 359.7 205.1 360.5C205.1 360.5 206.7 361.5 208 364C209.4 366.5 211.6 371.3 210.3 374.4C209.7 375.8 174.2 374.3 174.2 374.3L136.9 374.8C136.9 374.8 138.4 367.4 147 365.2C154.7 363.2 156.4 363.1 160.2 362.7C162.6 362.4 164.5 361.4 165.5 359.5C167 356.6 167.8 355.1 171.7 354.2C174.7 353.4 197.9 352.9 203 353.7Z" fill="#80CAB3"/>
<path fill-rule="evenodd" clip-rule="evenodd" d="M210.401 374.599C211.501 373.499 204.001 362.499 195.901 361.699C188.401 360.999 183.101 367.499 178.201 368.699C175.001 369.499 170.001 369.499 165.701 369.499C163.801 369.499 139.801 369.599 139.801 369.599C139.801 369.599 134.101 373.799 136.701 375.999C138.101 377.299 209.401 375.699 210.401 374.599Z" fill="#957FEF"/>
<path fill-rule="evenodd" clip-rule="evenodd" d="M227.7 354.6C227.7 354.6 224.2 354.8 223.8 357.7C223.6 359.6 224.7 360.6 225.7 361.4C225.7 361.4 224.1 362.4 222.8 365C221.5 367.5 219.3 372.3 220.6 375.4C221.2 376.8 256.7 374.9 256.7 374.9L294 375.1C294 375.1 292.4 367.7 283.8 365.6C276.1 363.7 274.4 363.6 270.6 363.2C268.2 363 266.2 362 265.2 360C263.7 357.1 262.1 355.9 258.9 354.7C254 352.9 232.9 353.7 227.7 354.6Z" fill="#80CAB3"/>
<path fill-rule="evenodd" clip-rule="evenodd" d="M220.599 375.599C219.499 374.499 226.899 363.399 234.999 362.599C242.499 361.799 247.899 368.299 252.799 369.399C255.999 370.099 260.999 370.099 265.299 370.099C267.199 370.099 291.199 369.999 291.199 369.999C291.199 369.999 296.899 374.099 294.399 376.399C292.899 377.599 221.599 376.599 220.599 375.599Z" fill="#957FEF"/>
<path fill-rule="evenodd" clip-rule="evenodd" d="M197.5 119.8C197.5 119.8 195.5 163.3 195.7 167.2C195.9 171 254.1 171.4 254.1 171.4C254.1 171.4 259.8 137.6 259.6 124.9C259.5 118.4 253.6 91.8003 239.3 92.9003C229.3 93.7003 212.8 92.2003 201.7 98.2003C197.2 100.6 197.5 119.8 197.5 119.8Z" fill="#BA79E2"/>
<path d="M253.801 171.299C253.801 171.299 260.701 143.799 258.701 120.199" stroke="#424D51" stroke-linecap="round" stroke-linejoin="round"/>
<path d="M209.1 109.6C200 103.6 194.3 93.6995 174.1 100.9C163.3 104.8 151 108.1 133.6 115.3C133.6 115.3 102.6 125.2 104.1 149C105.1 165.3 160.7 211.2 167.1 214.6C167.1 214.6 167.2 214.6 167.2 214.7C169.8 216.9 172.8 218.9 176.1 220.4C177.7 221.1 183.2 221.8 184.3 217.6C184.3 217.6 188.1 218.4 190 217.1C191.5 216.1 191.4 215 191.4 215C191.4 215 193.7 215.1 195.2 213.6C197 212 196.4 211.2 196.4 211.2C196.4 211.2 199.6 211.3 200 208.7C200.3 206.2 197.7 204.9 189.8 201.1C186.1 199.3 181.3 195 181.3 195L184.2 188.8C184.2 188.8 175.8 187.3 171.3 187.7C171.2 187.7 171.1 187.6 170.9 187.6C164.3 182.1 141 150 141.2 147.7C141.2 147.7 165.1 140 178.2 134.8C197.2 130 214.5 117 209.1 109.6Z" fill="#D9A48A"/>
<path d="M139 191.2C147.1 199.2 160.3 211 169.8 216.7" stroke="#424D51" stroke-linecap="round" stroke-linejoin="round"/>
<path d="M185.2 197.9C184.1 197 181.5 194.6 179.7 192.9" stroke="#424D51" stroke-linecap="round" stroke-linejoin="round"/>
<path d="M179 204.099C179 204.099 189.9 211.999 196.5 211.599" stroke="#424D51" stroke-linecap="round" stroke-linejoin="round"/>
<path d="M175.5 209C175.5 209 185.9 215.3 192 215.4" stroke="#424D51" stroke-linecap="round" stroke-linejoin="round"/>
<path d="M172.6 213.8C172.6 213.8 180 218 184.2 218.4" stroke="#424D51" stroke-linecap="round" stroke-linejoin="round"/>
<path d="M162.5 102.2L174 138.1L199.3 133.1C209.1 122.3 233.6 98.3995 221.8 94.3995C209.9 90.2995 174 98.4995 162.5 102.2Z" fill="#BA79E2"/>
<path d="M131.399 137.599C131.399 137.599 139.799 145.799 141.099 147.699" stroke="#424D51" stroke-linecap="round" stroke-linejoin="round"/>
<path fill-rule="evenodd" clip-rule="evenodd" d="M217.099 97.7003C214.299 102.4 239.499 107.8 241.599 101C241.699 95.5003 241.899 92.3003 242.399 82.4003C242.599 77.2003 236.999 77.5003 233.999 77.2003C228.399 76.6003 226.099 82.4003 226.099 82.4003C226.099 82.4003 218.799 94.9003 217.099 97.7003Z" fill="#D9A48A"/>
<path fill-rule="evenodd" clip-rule="evenodd" d="M226.799 77.9003C226.399 79.7003 226.199 87.6003 231.799 91.8003C236.299 95.1003 241.799 94.6003 241.799 94.6003C241.799 94.6003 242.599 84.6003 242.599 83.6003C242.499 82.7003 227.099 76.6003 226.799 77.9003Z" fill="#424D51"/>
<path fill-rule="evenodd" clip-rule="evenodd" d="M225.099 71.7003C225.099 71.7003 224.799 87.7003 234.299 89.2003C243.799 90.7003 245.999 82.9003 246.199 82.4003C246.399 81.8003 248.199 68.2003 246.499 63.9003C244.799 59.6003 239.399 53.5003 232.199 55.1003C224.999 56.7003 224.099 61.6003 223.899 65.8003C223.799 68.1003 225.099 71.7003 225.099 71.7003Z" fill="#D9A48A"/>
<path fill-rule="evenodd" clip-rule="evenodd" d="M227.099 68.7003C226.699 67.5003 221.799 62.1003 217.599 65.8003C214.799 68.3003 215.799 71.1003 217.299 72.6003C219.099 74.6003 221.599 75.3003 224.399 74.3003C227.099 73.3003 227.199 71.6003 227.399 71.0003C227.799 70.1003 227.399 69.5003 227.099 68.7003Z" fill="#D9A48A"/>
<path fill-rule="evenodd" clip-rule="evenodd" d="M243.899 68.8003C244.299 67.6003 249.199 62.1003 253.399 65.9003C256.199 68.4003 255.199 71.1003 253.699 72.7003C251.899 74.7003 249.399 75.4003 246.599 74.4003C243.899 73.5003 243.799 71.7003 243.599 71.1003C243.299 70.2003 243.599 69.6003 243.899 68.8003Z" fill="#D9A48A"/>
<path fill-rule="evenodd" clip-rule="evenodd" d="M232.299 75.7004C232.399 75.8004 235.699 77.5004 237.499 78.1004C238.099 78.3004 236.399 80.3004 234.399 79.6004C232.299 78.9004 231.699 75.5004 232.299 75.7004Z" fill="white"/>
<path d="M236.499 72.2003C236.499 72.2003 238.099 73.0003 237.899 74.2003C237.699 75.4003 236.399 75.2003 235.499 75.0003" stroke="#424D51" stroke-width="0.729" stroke-linecap="round" stroke-linejoin="round"/>
<path d="M238.999 70.4003C238.999 70.4003 239.999 68.8003 241.699 68.6003C243.399 68.5003 244.199 69.4003 244.699 70.5003" stroke="#424D51" stroke-width="0.729" stroke-linecap="round" stroke-linejoin="round"/>
<path d="M241.299 69.0003C241.799 68.6003 242.499 68.8003 242.899 69.3003C243.299 69.8003 243.199 70.5003 242.599 70.9003C242.099 71.3003 241.399 71.2003 240.999 70.6003C240.599 70.1003 240.699 69.4003 241.299 69.0003Z" stroke="#424D51" stroke-width="0.729" stroke-linecap="round" stroke-linejoin="round"/>
<path d="M227.899 70.4003C227.899 70.4003 228.899 68.8003 230.599 68.6003C232.299 68.5003 233.099 69.4003 233.599 70.5003" stroke="#424D51" stroke-width="0.729" stroke-linecap="round" stroke-linejoin="round"/>
<path d="M230.199 69.0003C230.699 68.6003 231.399 68.8003 231.799 69.3003C232.199 69.8003 232.099 70.5003 231.499 70.9003C230.999 71.3003 230.299 71.2003 229.899 70.6003C229.499 70.1003 229.699 69.4003 230.199 69.0003Z" stroke="#424D51" stroke-width="0.729" stroke-linecap="round" stroke-linejoin="round"/>
<path d="M248.299 69.3004C248.799 69.2004 249.899 69.2004 250.499 69.6004M250.499 67.5004C250.499 67.5004 249.199 67.9004 248.299 69.4004L250.499 67.5004ZM247.599 70.8004C247.799 70.2004 247.999 69.7004 248.299 69.3004L247.599 70.8004Z" stroke="#424D51" stroke-width="0.729" stroke-linecap="round" stroke-linejoin="round"/>
<path d="M223.999 69.2003C223.499 69.1003 222.399 69.1003 221.799 69.5003M221.699 67.4003C221.699 67.4003 222.999 67.8003 223.899 69.3003L221.699 67.4003ZM224.699 70.7003C224.499 70.1003 224.299 69.6003 223.999 69.2003L224.699 70.7003Z" stroke="#424D51" stroke-width="0.729" stroke-linecap="round" stroke-linejoin="round"/>
<path fill-rule="evenodd" clip-rule="evenodd" d="M228.699 62.4003C228.699 62.4003 235.999 67.0003 243.499 62.6003C243.599 62.6003 244.699 65.9003 247.099 65.7003C247.099 65.7003 250.899 53.0003 235.999 52.7003C222.399 52.4003 223.399 65.7003 224.099 65.7003C226.399 65.6003 228.699 62.4003 228.699 62.4003Z" fill="#D6D6D6"/>
<path d="M197.301 134.701L202.901 117.801" stroke="#424D51" stroke-linecap="round" stroke-linejoin="round"/>
</svg>
