<svg width="424" height="424" viewBox="0 0 424 424" fill="none" xmlns="http://www.w3.org/2000/svg">
<path d="M288.873 106.319C308.515 101.521 340.684 118.324 337.619 142.665C334.554 167.006 326.856 170.116 306.576 178.786C286.934 183.584 276.74 169.378 266.028 146.035C255.315 122.691 269.23 111.118 288.873 106.319Z" fill="#F8F8F8"/>
<path d="M259.151 164.773C281.875 209.786 259.182 297.404 198.324 303.673C137.465 309.942 125.571 292.995 93.0829 248.612C70.3583 203.599 99.1246 170.831 149.797 131.655C200.47 92.4781 236.426 119.76 259.151 164.773Z" fill="#F8F8F8"/>
<path fill-rule="evenodd" clip-rule="evenodd" d="M205.83 215.512L215.63 215.412C215.63 215.412 221.93 214.212 221.93 204.812C222.03 194.812 215.23 194.612 215.23 194.612L206.33 194.412L205.83 215.512Z" fill="#C7E7DA"/>
<path fill-rule="evenodd" clip-rule="evenodd" d="M155.129 230.313C155.129 230.313 162.529 216.513 176.829 214.213L206.829 215.813C206.829 215.813 210.829 211.613 210.929 204.413C211.029 198.113 207.829 194.313 207.829 194.313C207.829 194.313 190.129 193.313 178.329 192.813C164.729 192.213 155.029 176.213 155.029 176.213L150.529 202.213L155.129 230.313Z" fill="#957FEF"/>
<path fill-rule="evenodd" clip-rule="evenodd" d="M140.53 159.412C150.93 159.412 159.33 179.212 159.33 203.712C159.33 228.212 150.93 248.012 140.53 248.012C130.13 248.012 121.73 228.212 121.73 203.712C121.73 179.212 130.13 159.412 140.53 159.412Z" fill="#C7E7DA"/>
<path fill-rule="evenodd" clip-rule="evenodd" d="M157.23 196.412L143.73 196.512C143.73 196.512 138.83 196.912 139.13 202.912C139.43 209.112 144.33 208.912 144.33 208.912L157.13 209.112C157.13 209.112 157.73 205.812 157.73 202.612C157.83 199.512 157.23 196.412 157.23 196.412Z" fill="#BA79E2"/>
<path fill-rule="evenodd" clip-rule="evenodd" d="M226.605 293.036L275.355 294.286C275.355 294.286 297.655 294.611 299.855 288.411C302.055 282.211 301.53 260.111 297.53 246.311C295.93 241.011 289.53 228.611 253.53 228.411C217.53 228.211 215.43 237.611 211.53 240.611C207.73 243.611 207.83 274.611 207.83 274.611L226.605 293.036Z" fill="#BA79E2"/>
<path fill-rule="evenodd" clip-rule="evenodd" d="M227.83 276.912L211.63 276.712C211.63 276.712 213.33 235.012 212.93 227.812C212.43 217.712 206.03 214.612 206.03 214.612C206.03 214.612 198.73 210.012 192.73 210.912C189.73 211.412 190.03 213.212 190.03 213.212C190.03 213.212 177.03 212.012 176.23 216.012C175.63 219.112 178.43 219.812 178.43 219.812C178.43 219.812 175.13 221.112 175.03 223.312C174.83 226.212 177.83 227.212 177.83 227.212C177.83 227.212 174.73 227.712 174.83 230.512C174.93 233.112 177.03 233.612 177.03 233.612C177.03 233.612 174.83 234.912 174.63 236.112C173.63 241.012 182.43 241.012 182.43 241.012C182.43 241.012 180.43 271.112 181.03 289.312C181.23 296.212 180.93 311.312 191.33 316.412C195.33 318.412 214.43 324.512 223.93 310.612C229.93 302.412 227.83 276.912 227.83 276.912Z" fill="#D9A48A"/>
<path d="M177.529 233.611C181.829 233.811 187.029 233.411 192.129 234.011C193.529 234.211 195.429 235.211 195.229 237.411C195.129 238.711 194.429 239.711 191.829 240.511C189.529 241.111 185.329 241.311 182.829 241.211" stroke="#424D51" stroke-linecap="round" stroke-linejoin="round"/>
<path d="M191.532 233.912C191.532 233.912 194.832 233.812 195.332 231.812C195.532 230.912 195.332 229.612 194.332 228.712C191.432 226.112 181.032 226.812 177.932 227.012" stroke="#424D51" stroke-linecap="round" stroke-linejoin="round"/>
<path d="M189.029 220.313C184.429 219.913 182.929 219.813 178.529 219.913" stroke="#424D51" stroke-linecap="round" stroke-linejoin="round"/>
<path d="M203.23 230.413C203.23 230.413 200.93 229.713 199.03 228.213C197.13 226.813 195.73 224.613 195.73 224.613C195.73 224.613 196.53 220.213 196.73 217.713" stroke="#424D51" stroke-linecap="round" stroke-linejoin="round"/>
<path d="M190.231 212.611C190.231 212.611 188.731 219.811 189.331 223.511C189.731 225.811 190.831 227.111 192.231 227.411C192.931 227.611 195.131 227.211 195.831 224.611" stroke="#424D51" stroke-linecap="round" stroke-linejoin="round"/>
<path d="M211.729 276.412C211.729 276.412 211.629 297.212 211.529 299.412" stroke="#424D51" stroke-linecap="round" stroke-linejoin="round"/>
<path fill-rule="evenodd" clip-rule="evenodd" d="M243.03 229.112C240.23 233.812 265.43 239.212 267.53 232.412C267.63 226.912 267.83 223.712 268.33 213.812C268.53 208.612 262.93 208.912 260.03 208.612C254.43 208.012 252.13 213.812 252.13 213.812C252.13 213.812 244.73 226.312 243.03 229.112Z" fill="#D9A48A"/>
<path fill-rule="evenodd" clip-rule="evenodd" d="M252.831 209.313C252.531 211.113 252.231 219.013 257.831 223.213C262.331 226.513 267.831 226.013 267.831 226.013C267.831 226.013 268.631 216.013 268.631 215.013C268.531 214.113 253.031 208.013 252.831 209.313Z" fill="#424D51"/>
<path fill-rule="evenodd" clip-rule="evenodd" d="M251.031 203.113C251.031 203.113 250.731 219.113 260.231 220.613C269.731 222.113 271.931 214.313 272.131 213.813C272.331 213.213 274.131 199.613 272.431 195.313C270.731 191.013 265.331 184.913 258.131 186.513C250.931 188.113 250.031 193.013 249.831 197.213C249.831 199.513 251.031 203.113 251.031 203.113Z" fill="#D9A48A"/>
<path fill-rule="evenodd" clip-rule="evenodd" d="M253.13 200.113C252.73 198.913 247.83 193.413 243.63 197.213C240.83 199.713 241.83 202.413 243.33 204.013C245.13 206.013 247.63 206.713 250.43 205.713C253.13 204.813 253.23 203.013 253.53 202.413C253.73 201.513 253.33 200.913 253.13 200.113Z" fill="#D9A48A"/>
<path fill-rule="evenodd" clip-rule="evenodd" d="M269.83 200.212C270.23 199.012 275.13 193.512 279.33 197.312C282.13 199.812 281.13 202.512 279.63 204.112C277.83 206.112 275.33 206.812 272.53 205.812C269.83 204.812 269.73 203.112 269.53 202.512C269.23 201.612 269.63 201.112 269.83 200.212Z" fill="#D9A48A"/>
<path fill-rule="evenodd" clip-rule="evenodd" d="M258.33 207.213C258.43 207.213 261.73 209.013 263.53 209.613C264.13 209.813 262.43 211.813 260.43 211.113C258.23 210.413 257.63 206.913 258.33 207.213Z" fill="white"/>
<path d="M262.53 203.712C262.53 203.712 264.13 204.512 263.83 205.712C263.53 206.912 262.33 206.712 261.53 206.512" stroke="#424D51" stroke-width="0.729" stroke-linecap="round" stroke-linejoin="round"/>
<path d="M265.03 201.913C265.03 201.913 266.03 200.313 267.73 200.113C269.43 199.913 270.23 200.913 270.73 202.013" stroke="#424D51" stroke-width="0.729" stroke-linecap="round" stroke-linejoin="round"/>
<path d="M267.23 200.412C267.73 200.012 268.43 200.212 268.83 200.712C269.23 201.212 269.13 201.912 268.53 202.312C268.03 202.712 267.33 202.612 266.93 202.012C266.63 201.512 266.73 200.812 267.23 200.412Z" stroke="#424D51" stroke-width="0.729" stroke-linecap="round" stroke-linejoin="round"/>
<path d="M253.931 201.913C253.931 201.913 254.931 200.313 256.631 200.113C258.331 199.913 259.131 200.913 259.631 202.013" stroke="#424D51" stroke-width="0.729" stroke-linecap="round" stroke-linejoin="round"/>
<path d="M256.13 200.412C256.63 200.012 257.33 200.212 257.73 200.712C258.13 201.212 258.03 201.912 257.43 202.312C256.93 202.712 256.23 202.612 255.83 202.012C255.53 201.512 255.63 200.812 256.13 200.412Z" stroke="#424D51" stroke-width="0.729" stroke-linecap="round" stroke-linejoin="round"/>
<path d="M274.23 200.813C274.73 200.713 275.83 200.713 276.43 201.113M276.53 198.913C276.53 198.913 275.23 199.313 274.33 200.813L276.53 198.913ZM273.53 202.313C273.73 201.713 273.93 201.213 274.23 200.813L273.53 202.313Z" stroke="#424D51" stroke-width="0.729" stroke-linecap="round" stroke-linejoin="round"/>
<path d="M249.93 200.612C249.43 200.512 248.33 200.512 247.73 200.912M247.73 198.812C247.73 198.812 249.03 199.212 249.93 200.712L247.73 198.812ZM250.63 202.112C250.43 201.512 250.23 201.012 249.93 200.612L250.63 202.112Z" stroke="#424D51" stroke-width="0.729" stroke-linecap="round" stroke-linejoin="round"/>
<path fill-rule="evenodd" clip-rule="evenodd" d="M254.631 193.813C254.631 193.813 261.931 198.413 269.431 193.913C269.531 193.913 270.631 197.313 273.031 197.013C273.031 197.013 276.831 184.313 261.931 184.013C248.331 183.713 249.331 197.013 250.031 197.013C252.331 197.013 254.631 193.813 254.631 193.813Z" fill="#D6D6D6"/>
</svg>
