<svg width="424" height="424" viewBox="0 0 424 424" fill="none" xmlns="http://www.w3.org/2000/svg">
<path d="M99.199 182.501C104.799 177.201 132.599 153.501 132.599 153.501C132.599 153.501 157.199 169.101 169.299 176.301C191.499 189.701 212.999 165.301 188.599 149.201C176.499 141.201 163.599 134.801 150.599 128.501C140.199 123.501 129.899 118.101 119.799 127.301C99.299 146.101 79.799 166.401 61.699 187.501C61.099 188.201 60.499 189.001 59.899 189.701C55.499 195.101 51.499 200.001 54.199 202.401C56.099 204.101 57.399 203.301 58.299 202.701C58.499 202.601 58.599 202.501 58.699 202.401C58.699 202.401 56.799 204.801 58.899 207.301C59.699 208.301 61.199 209.201 63.699 207.301C63.699 207.301 62.099 210.001 64.199 211.801C65.799 213.201 67.399 213.001 69.299 211.101C71.499 208.901 78.699 201.401 78.699 201.401C78.699 201.401 80.399 206.401 84.699 207.301C88.599 208.201 91.599 207.201 92.599 205.301C93.599 203.501 92.999 199.701 88.999 200.401C84.899 201.001 83.899 196.301 87.099 194.301C89.199 192.901 91.799 195.301 91.299 197.501C91.099 198.701 91.799 201.801 94.499 202.001C97.299 202.201 98.399 199.501 98.599 197.201C98.799 194.901 98.999 192.001 96.599 189.301C95.599 188.101 94.099 187.201 94.099 187.201C94.099 187.201 97.599 184.101 99.199 182.501Z" fill="#EFBEA9"/>
<path d="M160.1 132.6L142.1 160.6C145 163 155.9 168.5 160.1 170.5C164.3 172.6 179.7 181.4 191.3 173.4C194.9 168.7 198.8 157.5 193.9 151.8C190.2 147.2 169.4 136.6 160.1 132.6Z" fill="#FFDBD5"/>
<path d="M87.5996 186C89.1996 184.8 92.7996 185 94.3996 186.6" stroke="#424D51" stroke-linecap="round" stroke-linejoin="round"/>
<path d="M79.0997 197.199C79.0997 197.199 78.4997 199.399 78.9997 201.099" stroke="#424D51" stroke-linecap="round" stroke-linejoin="round"/>
<path d="M75.7 194.199L63.5 207.799" stroke="#424D51" stroke-linecap="round" stroke-linejoin="round"/>
<path d="M70.5996 189.301L58.5996 202.801" stroke="#424D51" stroke-linecap="round" stroke-linejoin="round"/>
<path fill-rule="evenodd" clip-rule="evenodd" d="M120.101 189.2C120.101 189.2 171.601 134.5 198.001 153C224.601 172.3 195.301 197.8 192.901 199.5C185.101 205.2 170.001 212.9 170.001 212.9C170.001 212.9 114.801 203 120.101 189.2Z" fill="#FFDBD5"/>
<path d="M147.6 165C147.6 165 163.9 151.8 182.5 149.6" stroke="#424D51" stroke-linecap="round" stroke-linejoin="round"/>
<path fill-rule="evenodd" clip-rule="evenodd" d="M216.2 131.2C216.2 131.2 230.1 134.1 230.8 125.3C231.7 114.9 224 111.8 220.6 111.2C218.2 110.8 216.5 111.5 216.5 111.5C216.5 111.5 214.1 108.8 208.1 107.7C202.1 106.7 194.6 108.9 188.9 115.8C184.8 120.8 180.7 126.9 184.3 135.8C186.7 141.8 196.2 146.8 200.8 141.3C205.5 136 216.2 131.2 216.2 131.2Z" fill="#AF836B"/>
<path fill-rule="evenodd" clip-rule="evenodd" d="M192.2 144.699C188.4 146.599 182.1 150.499 182.1 152.799C182.1 153.699 184.6 153.399 187.9 152.899C191.4 152.399 195.9 151.799 199.4 152.399C201.3 153.299 203.2 154.299 204.5 155.499C204.7 155.899 204.9 156.399 205 156.899C206.6 165.099 209.7 165.699 209.1 163.799C209 163.299 208.9 162.499 208.8 161.599C208.7 160.699 208.7 159.599 208.5 158.499C211 154.599 213.7 149.699 215 147.299C215.2 146.999 215.3 146.799 215.4 146.599C215.5 146.499 215.5 146.399 215.6 146.299C218 141.999 219.3 139.699 214.1 134.999C206.7 128.299 203.6 138.299 203.6 138.299C203.6 138.299 196.9 141.699 192.2 144.699Z" fill="#EFBEA9"/>
<path fill-rule="evenodd" clip-rule="evenodd" d="M207.899 137.699C207.899 137.699 216.099 151.399 224.999 147.599C233.899 143.799 231.599 136.099 231.499 135.499C231.399 134.899 225.699 122.399 221.999 119.699C218.299 116.899 210.399 114.599 205.199 119.799C199.999 124.999 201.799 129.599 203.799 133.299C204.899 135.299 207.899 137.699 207.899 137.699Z" fill="#EFBEA9"/>
<path fill-rule="evenodd" clip-rule="evenodd" d="M202.2 131.3C202.9 131.8 210.8 130.6 213.1 125.4C213.1 125.3 229.2 125.2 223.3 117.7C223.3 117.7 217.8 111.6 207.3 117C198.5 121.6 201.8 131 202.2 131.3Z" fill="#AF836B"/>
<path fill-rule="evenodd" clip-rule="evenodd" d="M208.2 130.9C207.4 130.5 199.9 127.4 198.3 132.8C196.7 138.2 203 139.3 203.9 139.1C205.7 138.7 207.1 138.3 208.3 136.7C210.3 134 209.7 131.6 208.2 130.9Z" fill="#EFBEA9"/>
<path d="M217.5 137.6C220.2 140.6 223.1 137.8 223.1 137.8" stroke="#424D51" stroke-width="0.729" stroke-linecap="round" stroke-linejoin="round"/>
<path d="M219.5 132.299C219.5 132.299 221.3 132.299 221.6 133.399C221.9 134.499 220.7 134.999 219.9 135.199" stroke="#424D51" stroke-width="0.729" stroke-linecap="round" stroke-linejoin="round"/>
<path d="M220.1 129.599C220.1 129.599 220.3 127.699 221.7 126.799C223.1 125.899 224.3 126.399 225.3 127.099" stroke="#424D51" stroke-width="0.729" stroke-linecap="round" stroke-linejoin="round"/>
<path d="M221.399 127.299C221.699 126.699 222.399 126.499 222.999 126.799C223.599 127.099 223.799 127.799 223.499 128.299C223.199 128.899 222.499 129.099 221.899 128.799C221.399 128.599 221.099 127.899 221.399 127.299Z" stroke="#424D51" stroke-width="0.729" stroke-linecap="round" stroke-linejoin="round"/>
<path d="M211 134.599C211 134.599 211.2 132.699 212.6 131.799C214 130.899 215.2 131.399 216.2 132.099" stroke="#424D51" stroke-width="0.729" stroke-linecap="round" stroke-linejoin="round"/>
<path d="M212.4 132.299C212.7 131.699 213.4 131.499 213.9 131.799C214.5 132.099 214.7 132.799 214.4 133.399C214.1 133.999 213.4 134.199 212.9 133.899C212.3 133.599 212.1 132.899 212.4 132.299Z" stroke="#424D51" stroke-width="0.729" stroke-linecap="round" stroke-linejoin="round"/>
<path fill-rule="evenodd" clip-rule="evenodd" d="M215.7 146.1C215.7 146.1 212.9 143.7 211.2 140.6C209.4 137.3 213.1 150.7 213.1 150.7L215.7 146.1Z" fill="#424D51"/>
<path d="M205.299 133.9C204.899 134 203.799 134.5 203.399 135.1M202.399 133.1C202.399 133.1 203.699 132.9 205.199 133.8L202.399 133.1ZM206.499 134.9C206.099 134.4 205.599 134.1 205.199 133.8L206.499 134.9Z" stroke="#424D51" stroke-width="0.729" stroke-linecap="round" stroke-linejoin="round"/>
<path d="M174.5 287.299L163.2 236.199L116.7 221.199L127.9 258.599C130.8 267.699 133.1 275.899 133.1 275.899L82.7995 263.399C59.6995 258.499 54.2995 294.199 64.3995 295.999C69.3995 296.899 87.4995 301.399 105.8 305.899C126.3 310.999 147.1 316.199 149.5 316.299C169.7 316.999 175.7 301.999 175.6 295.099C175.6 292.999 175.2 290.299 174.5 287.299Z" fill="#EA7A79"/>
<path fill-rule="evenodd" clip-rule="evenodd" d="M112.7 269.101L100.58 305.5C100.58 305.5 71.1003 297.501 68.3003 296.901C65.5003 296.301 83.2003 263.301 83.2003 263.301L112.7 269.101Z" fill="#FFDBD5"/>
<path fill-rule="evenodd" clip-rule="evenodd" d="M86.1992 267.001C86.1992 267.001 87.4992 263.701 85.0992 262.101C83.4992 261.001 82.0992 261.601 80.8992 262.201C80.8992 262.201 80.6992 260.301 78.9992 258.001C77.2992 255.601 73.9992 251.601 70.6992 251.401C69.1992 251.301 54.9992 284.001 54.9992 284.001L38.1992 317.301C38.1992 317.301 45.4992 319.201 51.2992 312.401C56.3992 306.401 57.1992 304.901 59.2992 301.601C60.5992 299.601 62.2992 298.301 64.4992 298.201C67.7992 298.101 69.5992 297.201 71.9992 294.901C75.9992 291.201 84.5992 271.901 86.1992 267.001Z" fill="#FFB6A9"/>
<path fill-rule="evenodd" clip-rule="evenodd" d="M70.4998 251.199C71.9998 250.699 78.5998 262.299 75.6998 269.899C73.0998 276.899 64.8998 278.899 61.6998 282.799C59.5998 285.399 57.4998 289.799 55.4998 293.699C54.6998 295.399 44.0998 316.899 44.0998 316.899C44.0998 316.899 37.8998 320.199 36.9998 316.899C36.4998 314.999 69.0998 251.599 70.4998 251.199Z" fill="#D9A48A"/>
<path d="M218.201 230.5C215.601 231.2 171.401 243.2 161.101 244.4C149.501 245.7 140.101 246.2 126.201 237.7C111.001 228.3 108.901 198.3 120.201 189C121.501 188.1 151.301 206.8 151.301 206.8L179.101 201.1C183.301 200.2 187.901 199.3 192.701 198.3C212.301 194.4 235.401 190.5 245.401 191.2C268.201 192.9 266.801 215.6 262.901 222.8C259.101 230 222.101 296.4 222.101 296.4L192.501 283.4L218.201 230.5C218.301 230.5 218.401 230.5 218.201 230.5Z" fill="#EA7A79"/>
<path fill-rule="evenodd" clip-rule="evenodd" d="M206.401 252.801L240.601 265.901L223.101 297.401L192.301 283.301L206.401 252.801Z" fill="#FFDBD5"/>
<path d="M115.4 221.699C115.4 221.699 121.6 251.299 162.8 243.999" stroke="#424D51" stroke-linecap="round" stroke-linejoin="round"/>
<path fill-rule="evenodd" clip-rule="evenodd" d="M200.6 283.899C200.6 283.899 195.2 281.599 192.4 281.299C190.4 281.099 189 282.299 188.5 283.699C187.9 285.599 189.3 287.199 189.3 287.199C189.3 287.199 185.7 287.999 183.6 290.099C181.5 292.199 178.6 295.999 179.3 297.099C180 298.199 224.1 316.799 224.1 316.799L253.1 316.899C253.1 316.899 251.9 312.299 245.9 308.999C241.3 306.399 229.6 302.799 227.2 303.599C224.7 304.499 227 302.399 225.1 298.299C222.7 292.999 217.2 291.799 215.4 290.699C213.6 289.699 200.6 283.899 200.6 283.899Z" fill="#FFB6A9"/>
<path fill-rule="evenodd" clip-rule="evenodd" d="M194.8 291.3C189.3 290.5 183.2 293.8 180.1 296C178.7 297 179.3 297.9 179.3 297.9C179.3 297.9 207.6 311.5 220.2 317.9C223.2 319.4 224.3 318.9 231.7 319.2C239.6 319.6 249 319.9 254.6 320.1C255.8 320.2 255.4 319 254.3 317C253.4 315.4 252.1 314.2 250.7 314C249 313.9 229.6 313.1 225.8 312.8C223.6 312.6 210.4 305.5 208.8 303.3C205 297.7 200.3 292 194.8 291.3Z" fill="#D9A48A"/>
<path d="M226.1 303.699C226.1 303.699 226.9 306.299 229 307.099" stroke="#424D51" stroke-linecap="round" stroke-linejoin="round"/>
<path d="M182.9 162.101C174.1 176.701 190.4 191.101 200.9 199.001C212.4 207.701 227.1 217.901 241.6 220.301C254.5 222.401 316.4 212.801 316.4 212.801C318.8 212.501 322.3 211.901 322.3 211.901C322.3 211.901 322.2 213.601 322.5 215.101C323.2 218.601 325.6 220.301 327.6 221.501C329.5 222.701 332.4 223.501 334 221.101C335.5 218.801 333.4 216.301 332.4 215.801C330.4 214.801 330.1 211.401 332.5 210.501C336.1 209.201 339.2 212.901 336.2 215.801C333.2 218.601 335.8 221.401 337.9 221.701C340 222.001 342.6 220.301 344.3 216.601C346.2 212.601 343.3 208.201 343.3 208.201C343.3 208.201 353.6 207.101 356.7 206.701C359.4 206.401 360.5 205.201 360.4 203.101C360.2 200.301 357.1 199.901 357.1 199.901C360.1 199.101 360.3 197.401 360 196.101C359.4 192.901 356.3 193.001 356.3 193.001C356.4 192.901 356.6 192.901 356.8 192.801C357.8 192.401 359.2 191.901 359 189.401C358.3 180.501 316.9 188.301 310.5 188.301C296.9 188.401 252.5 188.701 249.4 188.301C241.2 187.201 233.2 178.601 227.4 173.401C216.3 163.301 194.8 142.401 182.9 162.101Z" fill="#EFBEA9"/>
<path d="M231 175.8L204.3 201.8C200.3 198.8 179.7 185.7 179.9 170.7C180.1 155.7 192.3 151.5 200.3 152.2C210.4 153 223.9 168 230.8 175.6L231 175.8Z" fill="#FFDBD5"/>
<path d="M325.7 205.801C323.8 206.301 321.699 209.401 321.999 211.601" stroke="#424D51" stroke-linecap="round" stroke-linejoin="round"/>
<path d="M339.699 205.9C339.699 205.9 341.799 206.7 342.799 208.2" stroke="#424D51" stroke-linecap="round" stroke-linejoin="round"/>
<path d="M339.4 201.3L357.6 199.9" stroke="#424D51" stroke-linecap="round" stroke-linejoin="round"/>
<path d="M338.6 194.2L356.6 192.9" stroke="#424D51" stroke-linecap="round" stroke-linejoin="round"/>
<path d="M203.5 200.5C203.5 200.5 181.9 186.5 180.3 173.6C178.7 166.5 180.2 161.6 184.4 157.6" stroke="#424D51" stroke-linecap="round" stroke-linejoin="round"/>
<path fill-rule="evenodd" clip-rule="evenodd" d="M308.686 256.565C308.686 256.565 304.274 257.195 300.871 260.346C297.972 263.119 298.098 268.287 298.098 268.287L297.594 305.217C297.594 305.217 297.09 310.511 299.611 313.536C302.383 316.939 308.686 317.569 308.686 317.569L319.777 318.451L321.542 255.557L308.686 256.565Z" fill="#FFB6A9"/>
<path fill-rule="evenodd" clip-rule="evenodd" d="M323.433 255.557C323.433 255.557 319.399 255.053 315.996 258.204C312.971 260.977 313.223 266.144 313.223 266.144L312.467 307.612C312.467 307.612 311.963 312.906 314.484 315.931C317.257 319.334 322.928 318.704 322.928 318.704L372.589 316.813C372.589 316.813 375.866 316.813 378.009 313.662C379.521 311.393 379.269 307.99 379.269 307.99L379.647 265.01C379.647 265.01 379.773 261.607 377.378 259.338C375.362 257.448 371.959 257.7 371.959 257.7L323.433 255.557Z" fill="#FFDBD5"/>
<path d="M379.268 293.526L312.623 291.478V283.758L379.268 285.333V293.526Z" fill="#EA7A79"/>
<path d="M351.462 256.502L350.359 317.947L342.639 317.947L343.269 256.502L351.462 256.502Z" fill="#EA7A79"/>
<path fill-rule="evenodd" clip-rule="evenodd" d="M340.574 255.094C328.145 247.408 310.363 236.41 319.713 223.574C328.443 211.589 338.777 215.854 344.134 223.574C348.42 229.75 351.119 248.309 351.382 256.817H343.346C342.464 256.263 341.535 255.689 340.574 255.094ZM342.07 247.162C334.874 242.707 323.053 235.39 326.803 228.143C329.512 222.909 335.793 224.978 338.777 229.279C341.165 232.72 343.515 243.411 343.661 248.152C343.166 247.84 342.632 247.51 342.07 247.162Z" fill="#EA7A79"/>
<path fill-rule="evenodd" clip-rule="evenodd" d="M353.499 255.551C362.638 249.899 375.714 241.813 368.838 232.374C362.419 223.562 354.821 226.698 350.882 232.374C347.731 236.916 345.746 250.562 345.553 256.818H351.461C352.11 256.411 352.793 255.988 353.499 255.551ZM352.399 249.719C357.691 246.443 366.383 241.063 363.625 235.734C361.634 231.886 357.016 233.407 354.821 236.57C353.065 239.1 351.337 246.961 351.23 250.447C351.594 250.218 351.986 249.975 352.399 249.719Z" fill="#EA7A79"/>
<path d="M342.562 219.312C339.922 222.906 336.109 222.109 334.937 219.938C334.011 218.221 335.392 216.564 336.5 215.5C339.533 215.635 344.66 216.458 342.562 219.312Z" fill="#EFBEA9"/>
</svg>
