<svg width="732" height="424" viewBox="0 0 732 424" fill="none" xmlns="http://www.w3.org/2000/svg">
<path d="M79.4603 277.498L659.454 287.589C662.643 287.589 665.172 284.899 664.975 281.717L661.819 117.275C661.639 114.358 663.956 111.893 666.879 111.893C671.843 111.893 673.85 105.497 669.776 102.661L570.666 33.6733C568.687 32.2952 566.042 32.3588 564.131 33.8304L465.312 109.922C461.608 112.774 463.624 118.698 468.299 118.698C471.004 118.698 473.196 120.891 473.196 123.595V220.923C473.196 223.979 470.719 226.455 467.664 226.455H435.587C434.239 226.455 432.938 225.964 431.928 225.073L331.812 136.799C329.66 134.901 326.414 134.964 324.337 136.944L232.062 224.927C231.033 225.908 229.666 226.455 228.245 226.455H188.351C185.296 226.455 182.82 223.979 182.82 220.923V137.898C182.82 135.438 184.813 133.444 187.273 133.444C191.586 133.444 193.381 127.926 189.892 125.389L129.617 81.5527C127.556 80.0533 124.737 80.1569 122.791 81.8035L63.9054 131.629C59.9715 134.958 62.3254 141.384 67.4786 141.384H68.3967C71.4518 141.384 73.9286 143.861 73.9286 146.916V271.966C73.9286 275.021 76.4052 277.498 79.4603 277.498Z" fill="#F8F8F8"/>
<path d="M105.655 295.418H38.453C26.0154 265.566 54.8854 268.818 62.1216 275.885C55.7534 267.538 55.7291 243.957 69.2692 238.612C93.2928 229.13 102.808 271.038 105.655 295.418Z" fill="#ECECEC"/>
<path d="M574.361 303.6C578.027 329.062 590.316 333.56 596.003 332.626C613.826 334.409 630.884 305.383 639.032 288.324C647.179 271.264 636.221 270.642 629.357 275.593C621.591 281.194 611.194 291.294 606.187 297.999L612.298 281.194C615.268 272.368 620.292 254.053 616.626 251.405C612.043 248.095 605.041 254.207 601.095 264.135C597.993 271.94 590.571 291.634 588.619 301.309C587.006 289.512 585.127 270.386 583.781 264.135C580.679 249.734 568.377 255.862 570.032 265.918C569.947 267.87 570.694 278.139 574.361 303.6Z" fill="#E1E1E1"/>
<path d="M511.731 371.523C508.767 377.815 500.412 378.984 496.606 378.783C493.74 378.867 484.058 376.977 481.481 373.867C477.095 368.573 485.49 351.33 495.32 344.676C502.199 340.019 506.135 344.398 507.723 347.776C510.294 353.07 514.696 365.231 511.731 371.523Z" fill="#E1E1E1"/>
<path d="M657.159 346.63H531.329C533.009 341.909 538.901 333.072 548.134 328.553C558.663 323.399 565.278 327.959 567.484 330.844C580.215 323.461 624.263 304.619 645.905 309.202C663.218 312.869 660.469 336.361 657.159 346.63Z" fill="#F8F8F8"/>
<path d="M467.266 381.731C463.515 381.005 463.325 378.821 463.745 376.627C463.943 375.595 464.609 373.595 466.055 371.295C468.717 367.06 474.807 366.744 477.328 368.307C479.849 369.87 482.84 371.681 485.865 373.98C489.647 376.853 489.458 380.521 487.079 381.731C484.378 383.104 471.954 382.638 467.266 381.731Z" fill="#ECECEC"/>
<path d="M677.015 346.632C675.255 346.632 672.407 334.066 671.203 327.783C671.203 325.636 671.831 321.688 674.344 323.071C677.486 324.799 678.743 333.124 679.214 337.208C679.685 341.291 679.214 346.632 677.015 346.632Z" fill="#E1E1E1"/>
<path d="M684.083 342.784C684.083 339.198 685.837 330.139 686.832 326.291C687.819 322.013 690.052 323.071 690.68 324.799C691.309 326.527 690.288 334.459 689.502 337.6C688.717 340.742 688.01 345.847 686.832 346.24C685.654 346.632 684.083 345.926 684.083 342.784Z" fill="#E1E1E1"/>
<path d="M693.115 344.826C692.298 343.381 695.34 337.417 696.963 334.616C698.573 331.632 700.89 330.925 702.225 333.045C703.561 335.166 697.435 343.412 696.571 344.826C695.707 346.24 694.136 346.632 693.115 344.826Z" fill="#E1E1E1"/>
<path d="M423.601 91.8C423.701 91 423.901 90.2 424.001 89.4C424.401 87.6 424.701 86 424.501 85.7C422.101 80.9 420.801 74.1 420.201 70.6V70.5C419.601 67.2 419.801 65.9 421.801 65.2C423.801 64.5 425.301 66.4 425.701 67.3C427.101 70.4 428.501 73.2 428.501 73.2C428.501 73.2 431.901 57.8 434.101 53.3C435.301 50.8 437.001 50.2 437.801 50.5C439.901 51.1 439.801 52.6 439.801 52.7C440.301 50 442.001 46.5 445.201 47.2C447.401 47.7 447.001 49.8 446.901 50.1C447.601 49 448.901 47.9 451.001 48.7C453.701 49.7 452.801 53.2 452.801 53.2C457.801 52 456.901 57.8 456.801 58.5C456.801 58.5 456.801 58.5 456.801 58.6C455.301 69 451.201 83.7 448.501 92.9C447.601 97 446.601 102.8 445.401 109.1C442.401 125.6 438.601 146.3 434.601 154.4C430.201 163.3 422.801 171.9 412.501 172.1C397.501 172.4 384.601 164.1 370.001 154.8C362.801 150.2 355.101 145.3 346.701 141.1C333.301 134.4 331.901 113.3 357.501 110.4C374.801 108.5 407.401 139.3 407.401 139.3L423.601 91.8Z" fill="#EFBEA9"/>
<path d="M395.901 128.4L376.601 160C357.801 151 324.501 129.4 342.101 115.1C359.701 100.8 385.301 118 395.901 128.4Z" fill="#FFDBD5"/>
<path d="M435.301 69.8992C435.301 69.8992 439.201 55.5992 440.201 52.1992" stroke="#424D51" stroke-linecap="round" stroke-linejoin="round"/>
<path d="M440.5 71.6992C440.5 71.6992 443.4 59.3992 445.1 53.8992C445.5 52.4992 446.3 50.7992 447.3 49.6992" stroke="#424D51" stroke-linecap="round" stroke-linejoin="round"/>
<path d="M445.801 73.7008C445.801 73.7008 449.101 60.3008 450.201 56.9008C450.401 56.1008 451.201 54.1008 452.501 53.3008" stroke="#424D51" stroke-linecap="round" stroke-linejoin="round"/>
<path d="M428.8 73.7011C430.546 76.9631 433.211 76.5296 434.802 77.5879C438.688 79.751 438.113 84.2426 436.313 86.2577" stroke="#424D51" stroke-linecap="round" stroke-linejoin="round"/>
<path fill-rule="evenodd" clip-rule="evenodd" d="M372.3 205.5C353 191.9 329.3 167.8 322 158.3C316 150.5 311.7 141.8 318.6 132.9C323.7 126.4 331.9 118.4 342.2 114.8C356.4 109.8 370.7 123 376.2 127.7C381.9 132.5 406.6 154.1 407.7 156C411.7 162.6 378.6 210 372.3 205.5Z" fill="#FFDBD5"/>
<path d="M301.5 174.4C301.2 177 300.8 179.8 300.4 182.6C294.2 228.9 299.8 247.4 322 250.4C332.2 251.8 340.6 247.4 346.3 239.3C353.5 229.1 363.1 197.5 368.9 184.1C372.8 176.3 380.2 159.6 384 148.1C384 148.1 384 148.1 384 148C384.2 147.2 386 141.8 380.9 142.1C380.9 142.1 382.3 138.9 379.9 137.4C378 136.3 376.6 137.2 375.7 138.1C375.8 137.8 376.6 135.9 374.5 135C371.5 133.7 369.3 136.9 368.3 139.5C368.3 139.3 368.6 137.9 366.7 137C365.9 136.6 364.2 136.9 362.6 139.2C359.7 143.2 353.7 157.8 353.7 157.8C353.7 157.8 352.8 154.8 351.9 151.5C351.7 150.6 350.5 148.5 348.4 148.8C346.4 149.1 345.9 150.4 345.9 153.8V153.9C345.9 157.5 346 164.4 347.6 169.6C347.7 169.9 347.1 171.4 346.4 173.2C346.4 173.3 346.3 173.5 346.2 173.6C345 175.9 331.7 199.6 331.7 199.6C331.7 199.6 339.8 171.8 342.1 161C344.5 144.6 338.2 114.7 316.2 133.2C305.5 142.1 303.9 155.2 301.5 174.4Z" fill="#EFBEA9"/>
<path d="M336.599 186.8L299.199 181.4C299.799 172.1 302.199 150.6 307.299 138.9C313.699 124.4 328.199 124.5 331.499 124.8C335.299 125.2 342.099 129.8 343.799 143C345.399 153.7 339.699 176.6 336.599 186.8Z" fill="#FFDBD5"/>
<path d="M353.5 158C352.8 160 352.5 160.5 351.6 164.1" stroke="#424D51" stroke-linecap="round" stroke-linejoin="round"/>
<path d="M360.6 155.799C360.6 155.799 366.9 142.399 368.4 139.199" stroke="#424D51" stroke-linecap="round" stroke-linejoin="round"/>
<path d="M365.4 158.299C365.4 158.299 370.3 146.599 372.9 141.499C373.6 140.199 374.6 138.699 375.8 137.699" stroke="#424D51" stroke-linecap="round" stroke-linejoin="round"/>
<path d="M370.4 161.299C370.4 161.299 375.9 148.599 377.6 145.399C378 144.699 379.1 142.899 380.5 142.199" stroke="#424D51" stroke-linecap="round" stroke-linejoin="round"/>
<path d="M317.801 220.7C317.801 220.7 324.201 208.7 332.301 197.9" stroke="#424D51" stroke-linecap="round" stroke-linejoin="round"/>
<path d="M340.5 174.7C340.5 174.7 343.4 162.6 342.1 153.4" stroke="#424D51" stroke-linecap="round" stroke-linejoin="round"/>
<path d="M557 166.499C558.6 154.999 560.3 143.499 561.9 131.999C535.1 126.799 508.2 121.599 481.4 116.399C475.1 115.199 468.5 113.999 462.5 115.999C458.2 117.399 454.6 120.299 451.2 123.099C437.4 134.199 423.6 145.299 409.8 156.299C408.5 155.499 407.1 154.599 405.8 153.799C395.5 167.499 385.6 181.599 376.2 196.099C374.5 198.699 372.8 201.299 371.9 204.199C370.6 208.199 370.7 212.499 370.9 216.699C371.9 246.699 373 276.699 374 306.699C374.5 321.699 375 336.699 375.5 351.699C375.6 354.199 374.8 359.099 376.6 360.499C378.1 361.699 385.5 360.699 387.5 360.799C395.2 360.999 402.9 361.199 410.6 361.399C408.9 311.299 410.7 260.999 416 211.199C416.2 209.099 416.5 206.999 417.4 205.199C418.2 203.599 419.6 202.199 420.9 200.999C435.5 186.799 450 172.599 464.6 158.399C466.8 156.299 469.1 154.099 472 153.099C475 152.099 478.3 152.699 481.5 153.199C506.5 157.599 531.7 161.999 557 166.499Z" fill="#EA7A79"/>
<path fill-rule="evenodd" clip-rule="evenodd" d="M411.4 327.6L373.4 327.5L375.2 363.7L410.8 362.7L411.4 327.6Z" fill="#FFDBD5"/>
<path fill-rule="evenodd" clip-rule="evenodd" d="M523.5 161.199L529.5 124.699L564.9 132.499L558 167.499L523.5 161.199Z" fill="#FFDBD5"/>
<path d="M410.4 156.9L418.3 161.3" stroke="#424D51" stroke-linecap="round" stroke-linejoin="round"/>
<path fill-rule="evenodd" clip-rule="evenodd" d="M557.5 164.499C557.5 164.499 557.1 167.999 559.9 168.899C561.7 169.499 563 168.599 563.9 167.599C563.9 167.599 564.6 169.299 566.9 171.099C569.2 172.899 573.5 175.899 576.8 175.099C578.3 174.699 582.6 139.399 582.6 139.399L589.2 102.699C589.2 102.699 581.7 102.899 578 111.099C574.8 118.299 574.4 119.999 573.4 123.699C572.7 125.999 571.4 127.799 569.3 128.399C566.2 129.399 564.7 130.799 563 133.699C560.4 138.299 557.5 159.199 557.5 164.499Z" fill="#FFB6A9"/>
<path fill-rule="evenodd" clip-rule="evenodd" d="M576.899 175.099C575.599 175.999 565.999 166.799 566.599 158.699C567.099 151.199 574.399 146.999 576.399 142.399C577.699 139.299 578.499 134.499 579.199 130.199C579.499 128.299 583.599 104.699 583.599 104.699C583.599 104.699 588.699 99.799 590.399 102.699C591.499 104.299 578.099 174.299 576.899 175.099Z" fill="#D9A48A"/>
<path fill-rule="evenodd" clip-rule="evenodd" d="M408.001 361.599C408.001 361.599 411.501 361.799 411.901 364.699C412.201 366.599 411.101 367.699 410.001 368.399C410.001 368.399 411.601 369.399 412.901 371.899C414.301 374.399 416.501 379.199 415.201 382.299C414.601 383.699 379.101 382.199 379.101 382.199L341.801 382.699C341.801 382.699 343.301 375.299 351.901 373.099C359.601 371.099 361.301 370.999 365.101 370.599C367.501 370.299 369.401 369.299 370.401 367.399C371.901 364.499 373.501 363.299 376.601 362.099C381.801 360.199 402.901 360.899 408.001 361.599Z" fill="#FFB6A9"/>
<path fill-rule="evenodd" clip-rule="evenodd" d="M415.399 382.601C416.499 381.401 408.999 370.501 400.899 369.701C393.399 369.001 388.099 375.501 383.099 376.701C379.899 377.501 374.899 377.501 370.599 377.501C368.699 377.501 344.699 377.601 344.699 377.601C344.699 377.601 338.999 381.801 341.599 384.001C343.099 385.301 414.399 383.701 415.399 382.601Z" fill="#D9A48A"/>
<path d="M389.3 139.401C381.3 130.301 362.5 112.801 350.9 115.101" stroke="#424D51" stroke-linecap="round" stroke-linejoin="round"/>
<path d="M608.813 99.1495C609.575 90.9383 598.447 78.5557 580.373 77.5127" stroke="#424D51" stroke-linecap="round" stroke-linejoin="round"/>
<path d="M618.676 95.9591C617.575 90.0361 611.069 81.3942 600.925 77.835" stroke="#424D51" stroke-linecap="round" stroke-linejoin="round"/>
<path d="M342.901 114.199C338.901 115.899 331.301 120.299 322.301 125.299C308.101 133.099 322.801 136.199 336.201 132.599C341.201 131.199 349.901 127.199 350.301 119.699C350.501 114.199 347.901 112.099 342.901 114.199Z" fill="#EFBEA9"/>
<path fill-rule="evenodd" clip-rule="evenodd" d="M325.301 77.019C325.301 77.019 330.149 68.5836 340.557 77.9609C347.125 83.8667 349.269 94.5809 348.954 98.162C348.61 102.067 347.908 108.618 335.634 110.719C334.368 110.938 330.877 113.594 330.877 113.594C330.877 113.594 314.464 123.063 306.155 103.247C303.382 96.6308 304.315 91.506 305.498 87.0653C306.779 82.4187 315.633 71.8998 325.301 77.019Z" fill="#AF836B"/>
<path fill-rule="evenodd" clip-rule="evenodd" d="M322.018 125.545C321.597 128.566 345.265 122.311 344.18 119.592C342.298 114.841 341.333 112.016 338.175 103.433C336.52 98.9169 331.806 101.15 329.145 101.936C324.094 103.411 324.25 109.254 324.25 109.254C324.25 109.254 322.462 122.534 322.018 125.545Z" fill="#EFBEA9"/>
<path fill-rule="evenodd" clip-rule="evenodd" d="M323.245 105.107C323.61 106.808 326.193 113.668 332.521 115.198C337.55 116.428 341.999 114.086 341.999 114.086C341.999 114.086 339.19 105.155 338.803 104.363C338.407 103.594 322.993 103.892 323.245 105.107Z" fill="#424D51"/>
<path fill-rule="evenodd" clip-rule="evenodd" d="M319.523 100.43C319.523 100.43 325.011 114.218 333.715 112.092C342.418 109.965 341.481 102.524 341.45 101.968C341.419 101.413 338.077 89.1094 335.081 86.0355C332.086 82.9616 325.245 79.6842 319.695 83.644C314.121 87.6326 315.096 92.1036 316.427 95.8021C317.149 97.8295 319.523 100.43 319.523 100.43Z" fill="#EFBEA9"/>
<path fill-rule="evenodd" clip-rule="evenodd" d="M320.213 97.1315C319.46 96.2546 313.316 93.3271 311.044 98.0592C309.562 101.176 311.43 103.181 313.197 103.981C315.448 105.019 317.872 104.718 319.872 102.925C321.863 101.155 321.323 99.6018 321.3 99.024C321.248 98.1105 320.735 97.7199 320.213 97.1315Z" fill="#EFBEA9"/>
<path fill-rule="evenodd" clip-rule="evenodd" d="M334.608 91.206C334.51 90.0544 336.729 83.6201 341.697 85.3165C344.958 86.4441 345.079 89.1822 344.411 91.0032C343.573 93.336 341.659 94.8539 338.979 95.0239C336.314 95.1874 335.576 93.7353 335.195 93.3079C334.581 92.6299 334.661 91.9907 334.608 91.206Z" fill="#EFBEA9"/>
<path fill-rule="evenodd" clip-rule="evenodd" d="M319.27 91.1615C319.27 91.1615 327.768 92.0015 332.55 85.5562C332.584 85.5053 334.466 88.53 336.081 87.394C336.081 87.394 332.555 76.5095 322.508 81.0339C311.664 85.9297 315.838 95.7331 316.368 95.5107C318.319 94.6929 319.27 91.1615 319.27 91.1615Z" fill="#AF836B"/>
<path d="M327.65 102.095C329.898 105.051 332.789 102.646 332.789 102.646" stroke="#424D51" stroke-width="0.676772" stroke-linecap="round" stroke-linejoin="round"/>
<path d="M329.897 97.3231C329.897 97.3231 331.576 97.4447 331.759 98.5275C331.943 99.6104 330.792 99.9239 330.038 100.054" stroke="#424D51" stroke-width="0.676772" stroke-linecap="round" stroke-linejoin="round"/>
<path d="M331.416 94.8847C331.416 94.8847 331.711 93.1124 333.102 92.3825C334.494 91.6526 335.516 92.1924 336.376 92.9324" stroke="#424D51" stroke-width="0.676772" stroke-linecap="round" stroke-linejoin="round"/>
<path fill-rule="evenodd" clip-rule="evenodd" d="M332.792 92.8557C333.115 92.3585 333.773 92.203 334.262 92.5049C334.759 92.8274 334.935 93.4775 334.613 93.9747C334.29 94.472 333.64 94.648 333.143 94.3256C332.654 94.0236 332.499 93.3649 332.792 92.8557Z" stroke="#424D51" stroke-width="0.676772" stroke-linecap="round" stroke-linejoin="round"/>
<path d="M321.916 98.8684C321.916 98.8684 322.211 97.096 323.603 96.3661C324.994 95.6362 326.016 96.1761 326.876 96.916" stroke="#424D51" stroke-width="0.676772" stroke-linecap="round" stroke-linejoin="round"/>
<path fill-rule="evenodd" clip-rule="evenodd" d="M323.292 96.8394C323.615 96.3422 324.274 96.1866 324.762 96.4885C325.259 96.811 325.435 97.4612 325.113 97.9584C324.791 98.4556 324.14 98.6317 323.643 98.3092C323.155 98.0073 322.999 97.3485 323.292 96.8394Z" stroke="#424D51" stroke-width="0.676772" stroke-linecap="round" stroke-linejoin="round"/>
<path d="M339.848 87.8532C339.848 87.8532 338.9 88.6826 338.592 90.2519M338.524 91.7841C338.469 91.2138 338.504 90.7023 338.592 90.2519M338.592 90.2519C338.97 90.0301 339.906 89.612 340.627 89.7132" stroke="#424D51" stroke-width="0.676772" stroke-linecap="round" stroke-linejoin="round"/>
<path d="M315.162 98.0709C315.162 98.0709 316.418 97.9761 317.753 98.8569M318.894 99.882C318.526 99.443 318.136 99.1098 317.753 98.8569M317.753 98.8569C317.33 98.971 316.375 99.3455 315.942 99.9308" stroke="#424D51" stroke-width="0.676772" stroke-linecap="round" stroke-linejoin="round"/>
<path fill-rule="evenodd" clip-rule="evenodd" d="M265.4 361.4L230.1 361.9C230.1 361.9 224.6 284 222.9 276C219.7 260.3 220.8 230.2 222.2 223.5C227.1 200.4 260.7 208.6 261.3 231.1C261.7 246.5 262.5 263.5 262.9 271.7C263.7 284.5 265.4 361.4 265.4 361.4Z" fill="#E5CDF4"/>
<path fill-rule="evenodd" clip-rule="evenodd" d="M265.7 320.699L227.4 322.399L228.1 364.599L266 362.999L265.7 320.699Z" fill="#DCBEF0"/>
<path fill-rule="evenodd" clip-rule="evenodd" d="M257.4 340.6L230.1 362C230.1 362 182.5 276.4 179.1 268.9C174.9 259.7 179.6 249.7 184 241.7C195.3 221.2 222.1 175.6 222.1 175.6C222.1 175.6 257.9 178 253.2 198.1C249.5 213.7 244 222.1 234.2 238.2C226.2 251.4 221.2 259.8 222.2 261.5C229.8 274.3 257.4 340.6 257.4 340.6Z" fill="#E5CDF4"/>
<path fill-rule="evenodd" clip-rule="evenodd" d="M249.801 320.801L213.701 334.801L228.101 364.601L266.001 363.001L249.801 320.801Z" fill="#DCBEF0"/>
<path d="M265.3 360.5C256.7 336.8 225.3 267.6 223.9 264.2C222.8 261.7 221.7 260.5 222.9 258.5" stroke="#424D51" stroke-linecap="round" stroke-linejoin="round"/>
<path d="M222.799 258.5C222.799 258.5 226.499 251.1 236.599 233" stroke="#424D51" stroke-linecap="round" stroke-linejoin="round"/>
<path fill-rule="evenodd" clip-rule="evenodd" d="M262.199 359.4C262.199 359.4 265.699 359.5 266.199 362.4C266.499 364.3 265.399 365.4 264.399 366.2C264.399 366.2 265.999 367.1 267.499 369.6C268.999 372.1 271.299 376.8 270.099 379.9C269.599 381.3 233.999 380.9 233.999 380.9L196.799 382.6C196.799 382.6 198.099 375.2 206.599 372.7C214.199 370.5 215.899 370.4 219.699 369.8C221.999 369.4 223.999 368.4 224.899 366.4C226.299 363.5 227.899 362.2 230.999 360.9C235.899 358.7 257.099 358.7 262.199 359.4Z" fill="#C5B0F0"/>
<path fill-rule="evenodd" clip-rule="evenodd" d="M270.2 380.1C271.2 378.9 263.4 368.2 255.3 367.7C247.8 367.2 242.7 373.9 237.8 375.2C234.6 376.1 229.7 376.2 225.4 376.3C223.5 376.4 199.5 377.2 199.5 377.2C199.5 377.2 194 381.6 196.6 383.7C198.1 385 269.3 381.2 270.2 380.1Z" fill="#9F78BA"/>
<path fill-rule="evenodd" clip-rule="evenodd" d="M233.699 372.1C235.799 372.3 237.599 370.9 237.899 368.9C238.099 366.9 236.699 365.1 234.599 364.8C232.499 364.6 230.699 366 230.399 368C230.199 370 231.699 371.9 233.699 372.1Z" fill="#DCBEF0"/>
<path fill-rule="evenodd" clip-rule="evenodd" d="M225 84.8006C217.6 74.9006 233.5 71.8006 232.5 62.5006C231.9 57.2006 244.2 45.4006 247.6 46.2006C250 46.7006 252.7 44.8006 252.7 44.8006C252.7 44.8006 254.8 44.7006 260.8 46.0006C266.8 47.3006 264.7 56.9006 270.6 58.9006C285.6 64.1006 289.5 82.0006 281.4 86.2006C273.3 90.4006 288.7 102.501 275.3 114.901C267 121.001 256.4 117.201 243.4 112.501C235.4 109.601 232.4 107.601 228.4 104.401C219.2 98.5006 228.3 89.3006 225 84.8006Z" fill="#89716E"/>
<path fill-rule="evenodd" clip-rule="evenodd" d="M269.7 87.7998C270.5 89.7998 247 90.7998 246.2 87.7998C244.8 82.4998 243.8 73.3998 243.5 70.5998C242.9 65.4998 242.4 62.7998 249.1 60.3998C258.5 56.9998 258.1 67.9998 258.1 67.9998C258.1 67.9998 262.7 77.2998 269.7 87.7998Z" fill="#FDDCC4"/>
<path fill-rule="evenodd" clip-rule="evenodd" d="M254 64.9998C254 64.9998 241.2 74.5998 234.4 67.6998C227.6 60.7998 232.7 54.4998 233 53.9998C233.3 53.4998 243.3 44.0998 247.8 42.8998C252.3 41.7998 260.4 42.5998 263.3 49.3998C266.2 56.1998 262.8 59.7998 259.4 62.3998C257.6 63.9998 254 64.9998 254 64.9998Z" fill="#FDDCC4"/>
<path fill-rule="evenodd" clip-rule="evenodd" d="M258.6 62.3999C257.8 62.5999 254.1 57.2999 253.8 51.6999C253.8 51.5999 239 44.9999 247.3 40.6999C247.3 40.6999 254.7 37.1999 262.3 46.0999C268.7 53.6999 262 62.3999 258.6 62.3999Z" fill="#89716E"/>
<path fill-rule="evenodd" clip-rule="evenodd" d="M254.5 59C255.4 58.8 263.5 58.9 262.9 64.5C262.3 70.1 256 68.7 255.3 68.2C253.8 67.1 252.7 66.2 252.2 64.3C251.5 61.1 252.3 59.4 254.5 59Z" fill="#FDDCC4"/>
<path fill-rule="evenodd" clip-rule="evenodd" d="M243.344 69.9065C243.344 69.9065 247.1 68.7002 249.8 66.5002C252.7 64.1002 244.031 75.2656 244.031 75.2656L243.344 69.9065Z" fill="#424D51"/>
<path fill-rule="evenodd" clip-rule="evenodd" d="M273.6 44.0001C275.1 46.2001 275.3 50.0001 272.1 52.2001C268.8 54.5001 264.4 54.6001 261.9 49.4001C260.4 46.3001 262.3 42.5001 266 41.3001C268.5 40.5001 271.4 40.7001 273.6 44.0001Z" fill="#89716E"/>
<path fill-rule="evenodd" clip-rule="evenodd" d="M245.1 61.1002C245 61.0002 241.5 59.7002 239.9 58.7002C239.4 58.4002 238.9 61.0002 240.7 62.1002C242.8 63.2002 245.7 61.4002 245.1 61.1002Z" fill="white"/>
<path d="M245.1 55.6C245.1 55.6 243.4 54.9 242.7 55.9C242 56.8 242.9 57.7 243.6 58.2" stroke="#424D51" stroke-width="0.729" stroke-linecap="round" stroke-linejoin="round"/>
<path d="M245.5 52.8998C245.5 52.8998 246.1 50.9998 245.1 49.6998C244.1 48.2998 242.9 48.2998 241.7 48.5998" stroke="#424D51" stroke-width="0.729" stroke-linecap="round" stroke-linejoin="round"/>
<path d="M245.2 50.2999C245.1 49.6999 244.6 49.1999 244 49.2999C243.4 49.3999 242.9 49.8999 242.9 50.4999C243 51.0999 243.5 51.5999 244.1 51.4999C244.8 51.4999 245.2 50.8999 245.2 50.2999Z" stroke="#424D51" stroke-width="0.729" stroke-linecap="round" stroke-linejoin="round"/>
<path d="M252 60.9999C252 60.9999 252.6 59.0999 251.6 57.7999C250.6 56.3999 249.4 56.3999 248.2 56.6999" stroke="#424D51" stroke-width="0.729" stroke-linecap="round" stroke-linejoin="round"/>
<path d="M251.7 58.3998C251.6 57.7998 251.1 57.2998 250.5 57.2998C249.9 57.3998 249.4 57.8998 249.4 58.4998C249.5 59.0998 250 59.5998 250.6 59.5998C251.2 59.4998 251.7 58.9998 251.7 58.3998Z" stroke="#424D51" stroke-width="0.729" stroke-linecap="round" stroke-linejoin="round"/>
<path d="M256.5 63C256.9 63.3 257.6 64.1 257.8 64.9M259.4 63.4C259.4 63.4 258.2 62.7 256.5 63L259.4 63.4ZM255 63.5C255.6 63.2 256.1 63.1 256.6 63L255 63.5Z" stroke="#424D51" stroke-width="0.729" stroke-linecap="round" stroke-linejoin="round"/>
<path fill-rule="evenodd" clip-rule="evenodd" d="M264.201 159.801C262.401 149.801 279.501 94.8006 267.701 85.0006C245.301 66.6006 229.001 103.901 227.501 111.201C225.901 118.501 231.301 160.801 231.301 160.801C231.301 160.801 266.001 169.901 264.201 159.801Z" fill="#E5CDF4"/>
<path fill-rule="evenodd" clip-rule="evenodd" d="M269.3 229.799C269.3 229.799 257.2 234.299 233.7 232.699C217 231.599 191.9 223.099 191.9 223.099C191.9 223.099 223.9 168.899 225 166.899C226.7 163.899 229.9 157.099 231 156.999C241.2 156.399 263.2 155.599 264.1 156.399C271.1 166.899 271.3 186.099 263.1 195.899C262 208.099 269.3 229.799 269.3 229.799Z" fill="#ECDDF6"/>
<path fill-rule="evenodd" clip-rule="evenodd" d="M144.698 101.566C131.797 97.1684 130.351 103.581 129.808 106.506C129.343 109.214 130.902 116.762 131.015 118.162C131.35 120.235 131.685 122.308 132.256 124.445C133.335 128.322 134.947 132.012 137.815 135.094C144.245 142.057 156.449 144.238 166.094 141.767C172.582 140.009 178.295 136.249 182.228 131.257C186.632 125.683 187.512 119.26 187.119 112.638C187.004 110.53 186.724 105.307 184.791 98.9342C176.838 93.0276 151.253 101.621 144.698 101.566Z" fill="#EA7A79"/>
<path fill-rule="evenodd" clip-rule="evenodd" d="M136.154 92.0066C135.464 92.6246 134.884 93.2249 134.32 93.9239C131.107 97.7862 129.641 102.683 129.747 107.528C129.998 113.97 132.607 120.336 138.119 124.408C143.756 128.562 151.369 130.269 158.756 129.885C169.836 129.31 179.585 123.986 184.042 114.553C188.515 105.22 185.236 94.7087 176.796 88.577C168.213 82.2657 156.141 82.2925 146.059 86.2522C142.431 87.5478 138.915 89.5344 136.154 92.0066Z" fill="#FFB6A9"/>
<path d="M265.099 84.4999C271.299 89.1999 272.299 95.5999 265.099 109.9C261.899 117.5 248.999 131.5 239.599 141.8C235.599 146.2 232.199 149.9 230.399 152.2C224.299 159.8 217.599 161.9 207.599 160C190.899 156.9 155.599 121.8 150.999 116.9C148.099 114.1 143.499 108.9 142.899 99.8999C142.099 88.3999 154.299 83.2999 158.799 85.5999C163.299 87.8999 165.299 90.9999 167.099 98.3999C167.899 101.6 168.599 104.2 168.999 105.3C175.299 111.4 205.499 130.8 207.599 129.8C209.699 128.7 213.799 122.8 217.399 117.6C218.699 115.8 219.899 114 220.899 112.6C221.999 111 223.299 109.1 224.799 107C233.999 93.3999 248.499 71.8999 265.099 84.4999Z" fill="#FDDCC4"/>
<path d="M247.001 134.3L219.201 112.1C224.001 104.8 238.188 87.9252 244.188 82.6252C250.288 77.3252 261.601 79.8001 265.901 83.0001C270.101 86.1001 272.801 94.1001 268.201 105.3C264.501 114.2 252.501 128.3 247.001 134.3Z" fill="#E5CDF4"/>
<path d="M265.6 107.699C262.1 119.099 246.6 134.499 246.6 134.499" stroke="#424D51" stroke-linecap="round" stroke-linejoin="round"/>
<path fill-rule="evenodd" clip-rule="evenodd" d="M124.814 68.4906C123.104 68.5644 122.992 74.7618 122.957 75.1726C123.12 78.6916 123.876 82.1148 124.83 85.5061C126.708 91.4831 129.687 97.3832 135.112 100.862C140.979 104.573 149.009 106.618 155.756 105.122C164.577 103.291 173.578 98.1893 177.139 89.5098C179.818 82.8975 178.421 76.1338 176.842 69.5008C176.102 66.1763 175.043 60.8774 170.919 60.4298C163.887 59.5406 130.257 68.3199 124.814 68.4906Z" fill="#EA7A79"/>
<path fill-rule="evenodd" clip-rule="evenodd" d="M135.057 54.7801C128.53 58.2664 123.57 63.9305 123.038 71.9178C121.872 88.5166 139.439 96.921 153.756 93.9988C164.041 91.8296 179.837 82.3879 176.214 66.8672C174.169 57.9796 166.275 51.7596 157.387 50.664C150.272 49.8895 141.865 51.1472 135.057 54.7801Z" fill="#FFB6A9"/>
<path fill-rule="evenodd" clip-rule="evenodd" d="M148.803 64.6127C145.956 65.1742 143.319 66.4108 141.486 68.2267C137.388 72.3331 138.9 79.1796 144.382 81.1299C148.14 82.447 152.468 81.6461 156.06 80.0525C161.364 77.7768 163.537 70.5373 158.723 66.4531C156.169 64.4349 152.341 63.9395 148.803 64.6127Z" fill="#EA7A79"/>
<path d="M190.554 53.9014C191.315 45.6902 180.187 33.3077 162.113 32.2646" stroke="#424D51" stroke-linecap="round" stroke-linejoin="round"/>
<path d="M200.416 50.711C199.315 44.788 192.809 36.1462 182.666 32.5869" stroke="#424D51" stroke-linecap="round" stroke-linejoin="round"/>
<mask id="mask0_12_2842" style="mask-type:alpha" maskUnits="userSpaceOnUse" x="191" y="156" width="79" height="78">
<path fill-rule="evenodd" clip-rule="evenodd" d="M269.3 229.799C269.3 229.799 257.2 234.299 233.7 232.699C217 231.599 191.9 223.099 191.9 223.099C191.9 223.099 223.9 168.899 225 166.899C226.7 163.899 229.9 157.099 231 156.999C241.2 156.399 263.2 155.599 264.1 156.399C271.1 166.899 271.3 186.099 263.1 195.899C262 208.099 269.3 229.799 269.3 229.799Z" fill="#ECDDF6"/>
</mask>
<g mask="url(#mask0_12_2842)">
<circle cx="239.855" cy="205.494" r="3" fill="white"/>
<circle cx="239.855" cy="153.494" r="3" fill="white"/>
<circle cx="239.855" cy="231.494" r="3" fill="white"/>
<circle cx="239.855" cy="179.494" r="3" fill="white"/>
<circle cx="193.355" cy="205.494" r="3" fill="white"/>
<circle cx="193.355" cy="153.494" r="3" fill="white"/>
<circle cx="193.355" cy="231.494" r="3" fill="white"/>
<circle cx="193.355" cy="179.494" r="3" fill="white"/>
<circle cx="233.855" cy="218.494" r="3" fill="white"/>
<circle cx="233.855" cy="166.494" r="3" fill="white"/>
<circle cx="233.855" cy="192.494" r="3" fill="white"/>
<circle cx="255.355" cy="205.494" r="3" fill="white"/>
<circle cx="255.355" cy="153.494" r="3" fill="white"/>
<circle cx="255.355" cy="231.494" r="3" fill="white"/>
<circle cx="255.355" cy="179.494" r="3" fill="white"/>
<circle cx="208.855" cy="205.494" r="3" fill="white"/>
<circle cx="208.855" cy="153.494" r="3" fill="white"/>
<circle cx="208.855" cy="231.494" r="3" fill="white"/>
<circle cx="208.855" cy="179.494" r="3" fill="white"/>
<circle cx="249.355" cy="218.494" r="3" fill="white"/>
<circle cx="249.355" cy="166.494" r="3" fill="white"/>
<circle cx="249.355" cy="192.494" r="3" fill="white"/>
<circle cx="202.855" cy="218.494" r="3" fill="white"/>
<circle cx="202.855" cy="166.494" r="3" fill="white"/>
<circle cx="202.855" cy="192.494" r="3" fill="white"/>
<circle cx="270.855" cy="205.494" r="3" fill="white"/>
<circle cx="270.855" cy="153.494" r="3" fill="white"/>
<circle cx="270.855" cy="231.494" r="3" fill="white"/>
<circle cx="270.855" cy="179.494" r="3" fill="white"/>
<circle cx="224.355" cy="205.494" r="3" fill="white"/>
<circle cx="224.355" cy="153.494" r="3" fill="white"/>
<circle cx="224.355" cy="231.494" r="3" fill="white"/>
<circle cx="224.355" cy="179.494" r="3" fill="white"/>
<circle cx="264.855" cy="218.494" r="3" fill="white"/>
<circle cx="264.855" cy="166.494" r="3" fill="white"/>
<circle cx="264.855" cy="192.494" r="3" fill="white"/>
<circle cx="218.355" cy="218.494" r="3" fill="white"/>
<circle cx="218.355" cy="166.494" r="3" fill="white"/>
<circle cx="218.355" cy="192.494" r="3" fill="white"/>
</g>
</svg>
