<svg width="732" height="424" viewBox="0 0 732 424" fill="none" xmlns="http://www.w3.org/2000/svg">
<path d="M219.664 362.179C261.52 360.165 246.668 324.684 227.875 304.157C217.566 290.29 188.956 262.447 156.989 262.009C117.031 261.461 84.4617 308.262 69.1351 334.81C56.8738 356.048 82.5449 361.905 94.0398 362.179C116.3 360.993 168.484 364.642 219.664 362.179Z" fill="#F8F8F8"/>
<path d="M85.0075 369.302C94.0397 369.302 94.3145 363.821 92.2614 358.211C89.115 351.779 81.605 342.474 72.1425 342.473C67.8151 342.473 52.302 356.021 53.1231 363.685C53.9441 371.348 75.8022 369.302 85.0075 369.302Z" fill="#E1E1E1"/>
<path d="M110.868 371.347C118.093 369.924 116.798 365.371 115.247 363.273C110.867 358.073 101.973 351.641 96.0889 350.683C91.8177 349.988 80.4886 357.799 81.3096 365.463C82.1307 373.126 101.836 373.126 110.868 371.347Z" fill="#ECECEC"/>
<path d="M302.95 366.321C304.709 366.321 307.558 353.755 308.762 347.472C308.762 345.325 308.134 341.377 305.62 342.76C302.479 344.487 301.222 352.812 300.751 356.896C300.28 360.98 300.751 366.321 302.95 366.321Z" fill="#ECECEC"/>
<path d="M295.882 362.473C295.882 358.887 294.128 349.828 293.133 345.98C292.146 341.702 289.913 342.76 289.285 344.488C288.656 346.216 289.677 354.148 290.463 357.289C291.248 360.431 291.955 365.536 293.133 365.929C294.311 366.321 295.882 365.614 295.882 362.473Z" fill="#ECECEC"/>
<path d="M286.85 364.515C287.667 363.07 284.625 357.106 283.002 354.305C281.392 351.32 279.075 350.614 277.739 352.734C276.404 354.855 282.53 363.101 283.394 364.515C284.258 365.929 285.829 366.321 286.85 364.515Z" fill="#ECECEC"/>
<path d="M391.501 321.283H324.299C311.861 291.432 340.731 294.683 347.968 301.75C341.599 293.404 341.575 269.822 355.115 264.478C379.139 254.995 388.654 296.903 391.501 321.283Z" fill="#F8F8F8"/>
<path d="M701.28 327.014C690.856 330.489 679.623 346.681 675.219 354.704H592.87C586.355 341.311 568.438 344.569 565.904 346.379C563.37 348.189 547.441 348.733 557.941 336.425C570.982 321.139 593.716 329.487 602.282 334.434C602.101 332.323 599.35 326.073 589.794 317.965C579.794 309.48 586.193 303.045 596.853 307.287C606.517 311.133 616.218 328.1 616.218 328.1C616.218 328.1 620.778 297.632 630.516 284.302C639.836 271.543 646.985 281.045 643.365 290.455C640.245 298.568 638.057 311.087 638.117 316.698C644.934 307.89 663.375 290.619 681.01 285.568C700.285 280.048 703.452 293.837 692.231 297.513C681.01 301.189 656.332 332.939 656.332 332.939C656.332 332.939 677.332 317.965 699.29 323.575C703.108 324.55 703.859 326.154 701.28 327.014Z" fill="#ECECEC"/>
<path fill-rule="evenodd" clip-rule="evenodd" d="M256.301 214.65C256.301 214.65 248.301 138.55 268.801 135.85C316.101 128.55 319.901 165.95 316.101 184.55C313.301 198.45 312.601 216.35 312.601 216.35C312.601 216.35 260.201 228.95 256.301 214.65Z" fill="#FFDBD5"/>
<path d="M448.199 161.949C457.599 161.649 470.199 160.949 479.099 159.449H479.199C479.999 159.349 485.699 158.349 482.999 153.949C482.999 153.949 486.499 153.749 486.699 150.849C486.799 148.649 485.399 147.749 484.099 147.449C484.399 147.449 486.499 147.149 486.299 144.949C485.999 141.749 482.199 141.149 479.399 141.549C479.499 141.549 480.899 141.149 480.799 138.949C480.799 138.049 479.699 136.649 476.999 136.249C472.099 135.549 456.399 137.049 456.399 137.049C456.399 137.049 458.599 134.849 461.099 132.549C461.799 131.849 463.099 129.849 461.899 128.149C460.699 126.549 459.399 126.649 456.399 128.249L456.299 128.349C453.999 129.549 451.799 130.849 449.599 132.149C446.799 133.949 444.899 137.049 441.399 137.249C437.899 137.549 434.099 136.749 430.599 136.649C413.199 136.149 395.999 137.149 378.599 137.749C360.299 138.349 341.999 137.849 323.799 136.249C314.399 135.449 304.699 135.349 295.299 136.049C269.999 137.949 277.599 170.749 293.899 171.349C301.299 171.649 311.399 172.049 321.599 172.549C338.199 173.249 354.899 172.249 360.799 172.349C379.899 172.849 441.599 163.249 448.199 161.949Z" fill="#EFBEA9"/>
<path d="M339 136.351L341 173.851H313C308.7 173.851 290 172.451 279.6 165.851C269.2 159.351 278.3 140.351 286.3 136.351C292.7 133.151 323.7 135.051 339 136.351Z" fill="#FFDBD5"/>
<path d="M455.901 137.25C454.201 137.25 452.401 137.15 450.301 137.65" stroke="#424D51" stroke-linecap="round" stroke-linejoin="round"/>
<path d="M461.5 142.349C461.5 142.349 476.3 141.649 479.9 141.449" stroke="#424D51" stroke-linecap="round" stroke-linejoin="round"/>
<path d="M461.4 147.85C461.4 147.85 474 146.75 479.7 146.75C481.2 146.75 483 146.85 484.3 147.55" stroke="#424D51" stroke-linecap="round" stroke-linejoin="round"/>
<path d="M461.1 153.649C461.1 153.649 474.9 152.549 478.5 152.649C479.3 152.649 481.4 152.749 482.7 153.749" stroke="#424D51" stroke-linecap="round" stroke-linejoin="round"/>
<path d="M303.1 140.051C309.3 145.451 316.2 156.451 317.2 172.651" stroke="#424D51" stroke-linecap="round" stroke-linejoin="round"/>
<path d="M349.6 252.75C349.6 252.75 276.4 256.65 264.3 247.95C255.1 241.35 248.2 226.45 256.7 213.25C258.3 210.75 356.3 214.45 356.3 214.45C370.5 214.85 383.3 215.35 390.8 216.05C407.3 217.65 409.1 238.15 409.1 247.75C409.1 255.95 408.8 335.15 408.8 335.15L374 336.75C374 336.75 373.4 264.85 372.2 253.65C372.1 252.45 362.7 252.55 349.6 252.75Z" fill="#EA7A79"/>
<path fill-rule="evenodd" clip-rule="evenodd" d="M373 302.75L410 301.85L408.9 338.05L373.3 340.35L373 302.75Z" fill="#FFDBD5"/>
<path fill-rule="evenodd" clip-rule="evenodd" d="M375.799 338.051C375.799 338.051 372.299 338.351 371.999 341.251C371.799 343.151 372.899 344.151 373.999 344.951C373.999 344.951 372.499 345.951 371.199 348.551C369.899 351.151 367.799 355.951 369.199 358.951C369.799 360.351 405.299 357.651 405.299 357.651L442.599 356.951C442.599 356.951 440.899 349.651 432.199 347.651C424.499 345.951 422.799 345.851 418.999 345.551C416.599 345.351 414.599 344.451 413.599 342.551C411.999 339.751 410.399 338.551 407.199 337.451C401.999 335.751 380.899 337.151 375.799 338.051Z" fill="#FFB6A9"/>
<path fill-rule="evenodd" clip-rule="evenodd" d="M369.099 359.249C367.999 358.149 375.099 346.949 383.199 345.949C390.699 344.949 396.199 351.349 401.199 352.349C404.399 353.049 409.399 352.849 413.699 352.749C415.599 352.749 439.599 352.049 439.599 352.049C439.599 352.049 445.399 356.049 442.899 358.349C441.399 359.649 370.099 360.249 369.099 359.249Z" fill="#D9A48A"/>
<path d="M237.999 265.85C240.599 257.45 243.299 249.05 246.499 240.95C247.099 239.45 247.099 237.65 247.099 235.45C247.199 229.95 247.299 222.35 255.799 212.85C256.899 211.65 299.799 211.35 298.899 221.85C298.699 224.85 276.499 279.85 276.199 280.55C270.699 294.85 265.199 309.05 261.099 318.75C254.699 333.95 236.699 333.75 227.199 332.45C219.099 331.35 140.699 320.05 140.699 320.05L143.999 285.35C143.999 285.35 215.299 294.65 226.599 295.15C228.699 295.25 231.399 285.35 231.899 283.95C234.099 277.95 236.099 271.85 237.999 265.85Z" fill="#EA7A79"/>
<path fill-rule="evenodd" clip-rule="evenodd" d="M177.701 288.95L173.501 325.75L137.801 319.65L143.001 284.35L177.701 288.95Z" fill="#FFDBD5"/>
<path d="M287.801 253.25L296.301 233.35" stroke="#424D51" stroke-linecap="round" stroke-linejoin="round"/>
<path fill-rule="evenodd" clip-rule="evenodd" d="M143.6 287.25C143.6 287.25 143.8 283.75 141 282.95C139.2 282.45 138 283.45 137.1 284.45C137.1 284.45 136.3 282.75 133.9 281.05C131.5 279.35 127.1 276.65 123.9 277.55C122.4 277.95 119.8 313.45 119.8 313.45L114.9 350.35C114.9 350.35 122.4 349.75 125.6 341.45C128.5 334.05 128.7 332.35 129.6 328.65C130.2 326.35 131.4 324.45 133.4 323.75C136.4 322.65 137.9 321.15 139.4 318.15C142 313.55 143.8 292.45 143.6 287.25Z" fill="#FFB6A9"/>
<path fill-rule="evenodd" clip-rule="evenodd" d="M123.6 277.551C124.9 276.651 134.9 285.351 134.7 293.451C134.5 300.951 127.4 305.451 125.7 310.251C124.6 313.351 124 318.251 123.5 322.551C123.3 324.451 120.3 348.251 120.3 348.251C120.3 348.251 115.5 353.351 113.6 350.551C112.5 348.951 122.5 278.351 123.6 277.551Z" fill="#D9A48A"/>
<path fill-rule="evenodd" clip-rule="evenodd" d="M290.9 106.651C290.9 106.651 304.9 104.051 302.2 95.6507C299.1 85.7507 290.8 85.7507 287.4 86.4507C285 87.0507 283.8 88.2507 283.8 88.2507C283.8 88.2507 280.6 86.6507 274.6 87.9507C268.6 89.2507 262.5 94.1507 259.9 102.751C258 108.951 256.5 116.151 263.3 123.051C267.8 127.651 278.5 128.751 280.7 121.951C282.8 115.151 290.9 106.651 290.9 106.651Z" fill="#AF836B"/>
<path fill-rule="evenodd" clip-rule="evenodd" d="M294.7 131.951C295.3 128.151 295.8 124.251 296 122.051C296 121.751 296.1 121.451 296.1 121.251C296.1 121.151 296.1 120.951 296.1 120.851C296.7 115.951 297 113.351 290.5 110.951C281.2 107.551 282 117.951 282 117.951C282 117.951 277 123.551 273.8 128.151C272.5 129.551 271.3 130.851 270.2 131.951C269 133.151 268.1 134.051 267.7 134.651C266.9 135.751 267.9 135.751 270.1 135.751C274 135.751 281.7 135.651 290 141.951C296.7 147.051 301.8 147.151 298.4 139.951C296.8 136.551 295.8 135.151 295.2 134.351C294.6 133.451 294.5 133.251 294.6 131.951C294.7 132.051 294.7 132.051 294.7 131.951Z" fill="#EFBEA9"/>
<path fill-rule="evenodd" clip-rule="evenodd" d="M285.7 115.751C285.7 115.751 298.5 125.351 305.3 118.451C312.1 111.651 307 105.251 306.7 104.851C306.4 104.351 296.3 94.951 291.9 93.851C287.4 92.751 279.3 93.551 276.4 100.351C273.5 107.151 276.9 110.751 280.3 113.351C282 114.651 285.7 115.751 285.7 115.751Z" fill="#EFBEA9"/>
<path fill-rule="evenodd" clip-rule="evenodd" d="M278 112.051C278.8 112.251 285.6 108.151 285.8 102.451C285.8 102.351 300.6 96.1508 292.3 91.4508C292.3 91.4508 284.9 87.9508 277.3 96.8508C270.9 104.451 277.5 111.851 278 112.051Z" fill="#AF836B"/>
<path fill-rule="evenodd" clip-rule="evenodd" d="M283.4 109.351C282.5 109.351 274.4 109.251 275 114.851C275.6 120.451 281.9 119.051 282.5 118.551C284 117.451 285.1 116.551 285.6 114.651C286.5 111.451 285.1 109.451 283.4 109.351Z" fill="#EFBEA9"/>
<path fill-rule="evenodd" clip-rule="evenodd" d="M294.3 111.851C294.4 111.751 297.9 110.451 299.6 109.451C300.1 109.151 300.6 111.751 298.8 112.851C296.7 113.951 293.7 112.151 294.3 111.851Z" fill="white"/>
<path d="M294.4 106.351C294.4 106.351 296.1 105.651 296.8 106.651C297.5 107.651 296.5 108.451 295.9 108.951" stroke="#424D51" stroke-width="0.729" stroke-linecap="round" stroke-linejoin="round"/>
<path d="M293.9 103.651C293.9 103.651 293.3 101.751 294.3 100.451C295.3 99.0509 296.5 99.1509 297.7 99.4509" stroke="#424D51" stroke-width="0.729" stroke-linecap="round" stroke-linejoin="round"/>
<path d="M294.3 101.051C294.4 100.451 294.9 99.9507 295.5 99.9507C296.1 100.051 296.6 100.551 296.5 101.151C296.4 101.751 295.9 102.251 295.3 102.151C294.7 102.251 294.2 101.651 294.3 101.051Z" stroke="#424D51" stroke-width="0.729" stroke-linecap="round" stroke-linejoin="round"/>
<path d="M287.4 111.751C287.4 111.751 286.8 109.951 287.8 108.551C288.8 107.151 290 107.251 291.2 107.451" stroke="#424D51" stroke-width="0.729" stroke-linecap="round" stroke-linejoin="round"/>
<path d="M287.8 109.151C287.9 108.551 288.4 108.051 289 108.151C289.6 108.251 290.1 108.751 290 109.351C289.9 109.951 289.4 110.451 288.8 110.451C288.2 110.251 287.7 109.751 287.8 109.151Z" stroke="#424D51" stroke-width="0.729" stroke-linecap="round" stroke-linejoin="round"/>
<path fill-rule="evenodd" clip-rule="evenodd" d="M296.1 120.651C296.1 120.651 292.6 119.451 289.9 117.251C287 114.851 295.5 125.851 295.5 125.851L296.1 120.651Z" fill="#424D51"/>
<path d="M281.8 113.251C281.4 113.551 280.7 114.351 280.5 115.151M278.9 113.651C278.9 113.651 280.1 112.951 281.8 113.251L278.9 113.651ZM283.4 113.751C282.8 113.451 282.3 113.351 281.8 113.251L283.4 113.751Z" stroke="#424D51" stroke-width="0.729" stroke-linecap="round" stroke-linejoin="round"/>
<path d="M272.9 136.049C298.3 137.949 291 169.549 274.7 170.149C267.2 170.449 256.4 170.849 246.1 171.249C212.8 172.649 179.4 171.149 146.6 165.749C140.7 164.849 134.5 163.049 128.6 163.049C126.8 163.049 125.2 163.149 125 163.249C120.8 166.649 114.3 169.249 111 170.649C107.9 171.949 106.5 171.949 105.5 170.249C104.4 168.449 105.9 166.549 106.7 165.949C109.4 163.949 111.9 162.049 111.9 162.049C111.9 162.049 96.1 161.849 91.3 160.749C88.6 160.049 87.7 158.549 87.8 157.649C87.9 155.449 89.4 155.249 89.5 155.249C86.7 155.349 82.9 154.349 83 151.149C83.1 148.949 85.1 148.849 85.4 148.849H85.5C84.3 148.349 83 147.349 83.3 145.149C83.7 142.249 87.3 142.449 87.3 142.449C85.1 137.849 90.9 137.449 91.7 137.449C91.7 137.449 91.7 137.449 91.8 137.449C103.3 136.649 120.5 137.949 129.7 138.749C132.1 138.649 136.7 138.349 142.5 137.949C160.1 136.849 183.4 136.549 201.1 136.549C206.8 136.549 213.6 136.549 224.4 135.949C239.2 135.249 258.3 134.949 272.9 136.049Z" fill="#EFBEA9"/>
<path d="M233.001 172.951L231.301 134.351C239.401 134.351 249.701 134.251 266.101 134.951C287.901 135.751 289.501 141.551 290.501 145.451C291.001 147.551 297.101 166.951 278.501 170.651C259.201 174.451 249.401 173.351 233.001 172.951Z" fill="#FFDBD5"/>
<path d="M107.3 156.35C107.3 156.35 92.5 155.45 89 155.25" stroke="#424D51" stroke-linecap="round" stroke-linejoin="round"/>
<path d="M107.9 150.95C107.9 150.95 95.2996 150.65 89.5996 150.15C88.0996 149.95 86.3996 149.65 85.0996 148.85" stroke="#424D51" stroke-linecap="round" stroke-linejoin="round"/>
<path d="M108.801 145.15C108.801 145.15 95.0008 144.75 91.4008 144.35C90.6008 144.25 88.5008 143.95 87.3008 142.85" stroke="#424D51" stroke-linecap="round" stroke-linejoin="round"/>
<path d="M254.9 173.451C254.9 173.451 273.5 172.651 278.9 170.551C283.1 168.951 288.8 165.651 290 158.051" stroke="#424D51" stroke-linecap="round" stroke-linejoin="round"/>
<path d="M111.923 162.456C114.984 160.377 114.273 157.772 115.159 156.079C116.902 151.986 121.429 152.087 123.622 153.666" stroke="#424D51" stroke-linecap="round" stroke-linejoin="round"/>
<path d="M60.776 150.219C56.3318 143.273 60.5377 127.165 76.1185 117.945" stroke="#424D51" stroke-linecap="round" stroke-linejoin="round"/>
<path d="M50.5489 151.91C48.8096 146.142 50.6249 135.478 58.0048 127.661" stroke="#424D51" stroke-linecap="round" stroke-linejoin="round"/>
<path fill-rule="evenodd" clip-rule="evenodd" d="M447.201 110.05L482.801 97.6504C482.801 97.6504 476.601 181.95 476.301 190.15C476.001 199.75 475.401 260.45 475.501 272.35C475.501 279.75 439.801 286.35 437.701 280.95C435.601 275.55 437.201 211.25 437.601 207.65C439.101 196.55 447.201 110.05 447.201 110.05Z" fill="#EFD9CE"/>
<path fill-rule="evenodd" clip-rule="evenodd" d="M443.301 146.15L480.001 141.55L482.501 99.25L446.901 110.65L443.301 146.15Z" fill="#CBE4FC"/>
<path fill-rule="evenodd" clip-rule="evenodd" d="M451.2 113.45C451.2 113.45 447.8 114.45 446.4 111.85C445.5 110.15 446.2 108.75 447 107.65C447 107.65 445.2 107.25 443.1 105.25C441 103.35 437.3 99.55 437.5 96.25C437.6 94.75 471.7 84.45 471.7 84.45L506.7 71.75C506.7 71.75 507.7 79.25 500.3 84.15C493.7 88.55 492.1 89.15 488.7 90.85C486.6 91.85 485 93.45 484.7 95.65C484.2 98.85 483.1 100.55 480.6 102.75C476.5 106.25 456.3 112.55 451.2 113.45Z" fill="#93BEFA"/>
<path fill-rule="evenodd" clip-rule="evenodd" d="M437.399 96.1507C436.799 97.5507 447.499 105.451 455.399 103.551C462.699 101.751 465.599 93.8507 469.899 91.1507C472.699 89.3507 477.299 87.7507 481.399 86.3507C483.199 85.7507 505.799 77.7507 505.799 77.7507C505.799 77.7507 509.799 71.9507 506.599 70.6507C504.699 69.7507 437.999 94.7507 437.399 96.1507Z" fill="#EFD9CE"/>
<path fill-rule="evenodd" clip-rule="evenodd" d="M474.5 92.7502C472.5 93.1502 471.1 95.0502 471.5 97.0502C471.9 99.0502 473.8 100.35 475.9 99.9502C477.9 99.5502 479.3 97.6502 479 95.6502C478.5 93.7502 476.6 92.3502 474.5 92.7502Z" fill="#CBE4FC"/>
<path d="M533.677 62.6827C534.438 54.4715 523.31 42.0889 505.236 41.0459" stroke="#424D51" stroke-linecap="round" stroke-linejoin="round"/>
<path d="M543.539 59.4923C542.438 53.5693 535.932 44.9274 525.789 41.3682" stroke="#424D51" stroke-linecap="round" stroke-linejoin="round"/>
<path d="M356.075 124.343C350.86 117.955 353.18 101.47 367.594 90.515" stroke="#424D51" stroke-linecap="round" stroke-linejoin="round"/>
<path d="M346.112 127.201C343.719 121.673 344.292 110.871 350.722 102.255" stroke="#424D51" stroke-linecap="round" stroke-linejoin="round"/>
<path fill-rule="evenodd" clip-rule="evenodd" d="M537.5 243.65C539 249.85 520.8 257.65 516.4 249.45C515 244.15 514.6 236.65 514.2 233.85C513.6 228.75 513.1 226.05 519.8 223.65C529.2 220.25 528.8 231.25 528.8 231.25C528.8 231.25 535.9 239.55 537.5 243.65Z" fill="#EFD9CE"/>
<path fill-rule="evenodd" clip-rule="evenodd" d="M524.6 228.751C524.6 228.751 511.8 238.351 505 231.451C498.2 224.551 503.3 218.251 503.6 217.851C504 217.351 514 207.951 518.4 206.851C522.9 205.751 531 206.551 533.9 213.351C536.8 220.151 533.4 223.751 530 226.351C528.2 227.651 524.6 228.751 524.6 228.751Z" fill="#EFD9CE"/>
<path fill-rule="evenodd" clip-rule="evenodd" d="M529 223.351C529 223.351 524.9 220.451 524.7 214.851C524.7 214.751 512.1 208.751 516.4 206.051L525.1 200.051C525.1 200.051 527.7 198.351 530.2 201.551C532.1 204.051 540.2 214.451 540.2 214.451C540.2 214.451 542.4 217.451 539.3 219.751C536.2 222.051 531.6 225.451 531.6 225.451L529 223.351Z" fill="#F1D7AD"/>
<path fill-rule="evenodd" clip-rule="evenodd" d="M514.199 233.55C514.199 233.55 517.699 232.35 520.399 230.15C523.299 227.75 514.699 238.85 514.699 238.85L514.199 233.55Z" fill="#424D51"/>
<path d="M515.6 224.65C512 226.45 510.4 222.65 510.4 222.65" stroke="#424D51" stroke-width="0.729" stroke-linecap="round" stroke-linejoin="round"/>
<path d="M515.7 218.949C515.7 218.949 514 218.249 513.3 219.249C512.6 220.249 513.6 221.049 514.2 221.549" stroke="#424D51" stroke-width="0.729" stroke-linecap="round" stroke-linejoin="round"/>
<path d="M516.2 216.249C516.2 216.249 516.8 214.449 515.8 213.049C514.8 211.649 513.6 211.749 512.4 211.949" stroke="#424D51" stroke-width="0.729" stroke-linecap="round" stroke-linejoin="round"/>
<path d="M515.8 213.65C515.7 213.05 515.2 212.55 514.6 212.65C514 212.75 513.5 213.25 513.5 213.85C513.6 214.45 514.1 214.95 514.7 214.95C515.4 214.85 515.9 214.25 515.8 213.65Z" stroke="#424D51" stroke-width="0.729" stroke-linecap="round" stroke-linejoin="round"/>
<path d="M522.601 224.251C522.601 224.251 523.201 222.351 522.201 221.051C521.201 219.651 520.001 219.651 518.801 219.951" stroke="#424D51" stroke-width="0.729" stroke-linecap="round" stroke-linejoin="round"/>
<path d="M522.301 221.65C522.201 221.05 521.701 220.55 521.101 220.65C520.501 220.75 520.001 221.25 520.101 221.85C520.201 222.45 520.701 222.95 521.301 222.85C521.901 222.85 522.301 222.35 522.301 221.65Z" stroke="#424D51" stroke-width="0.729" stroke-linecap="round" stroke-linejoin="round"/>
<path fill-rule="evenodd" clip-rule="evenodd" d="M525.2 222.349C526.1 222.149 534.2 222.249 533.6 227.849C533 233.449 526.7 232.049 526.1 231.549C524.6 230.449 523.5 229.549 523 227.649C522.1 224.449 523 222.749 525.2 222.349Z" fill="#EFD9CE"/>
<path d="M527.2 226.25C527.6 226.55 528.3 227.35 528.5 228.15M530.1 226.65C530.1 226.65 528.9 226.05 527.2 226.25L530.1 226.65ZM525.6 226.75C526.2 226.45 526.7 226.35 527.2 226.25L525.6 226.75Z" stroke="#424D51" stroke-width="0.729" stroke-linecap="round" stroke-linejoin="round"/>
<path fill-rule="evenodd" clip-rule="evenodd" d="M436.6 278.65L476.3 271.85C476.3 271.85 481.7 299.75 483.3 310.55C483.3 310.55 517.7 323.85 517.2 327.75C516.3 335.95 508 349.95 497.8 354.35C484.3 360.25 464.3 357.25 455.4 347.15C436 325.25 436.6 278.65 436.6 278.65Z" fill="#FFB6A9"/>
<path fill-rule="evenodd" clip-rule="evenodd" d="M531.1 329.551L548.4 268.951C548.4 268.951 539.7 235.751 527.8 239.851C515.9 243.951 505.2 259.151 501.5 268.451C498.9 275.151 484.8 304.751 488.2 311.951C491.7 319.151 531.1 329.551 531.1 329.551Z" fill="#DEC0F1"/>
<path fill-rule="evenodd" clip-rule="evenodd" d="M395.5 130.451L427.5 116.551C427.5 116.551 467.2 200.251 470.8 207.651C475 216.251 477 217.151 480.1 235.751C484 258.651 488 269.951 486 284.251C485 291.551 450.9 294.451 449.6 285.351C446.8 266.851 441.7 232.351 440.5 228.951C436.6 218.451 395.5 130.451 395.5 130.451Z" fill="#EFD9CE"/>
<path fill-rule="evenodd" clip-rule="evenodd" d="M409.5 161.35L443.1 145.95L419.2 97.8496L393.4 126.15L409.5 161.35Z" fill="#CBE4FC"/>
<path d="M444 149.75C444 149.75 471.8 201.65 475.8 217.45" stroke="#424D51" stroke-linecap="round" stroke-linejoin="round"/>
<path fill-rule="evenodd" clip-rule="evenodd" d="M398.2 127.55C398.2 127.55 395.6 129.95 393.2 128.25C391.7 127.15 391.7 125.65 391.8 124.25C391.8 124.25 390 124.65 387.2 123.95C384.4 123.15 379.5 121.45 378.1 118.45C377.5 117.05 403.3 92.5496 403.3 92.5496L428.8 65.3496C428.8 65.3496 433.1 71.5496 428.7 79.2496C424.8 86.1496 423.7 87.4496 421.4 90.4496C420 92.3496 419.3 94.4496 420 96.5496C421.1 99.6496 420.8 101.65 419.5 104.75C417.5 109.65 402.3 124.35 398.2 127.55Z" fill="#93BEFA"/>
<path fill-rule="evenodd" clip-rule="evenodd" d="M378 118.25C378.1 119.85 391.2 122.05 397.4 116.75C403.1 111.85 402.1 103.55 404.7 99.1496C406.4 96.2496 409.8 92.7496 412.8 89.6496C414.1 88.2496 430.7 70.9496 430.7 70.9496C430.7 70.9496 431.6 63.9496 428.2 64.2496C426.2 64.3496 377.9 116.85 378 118.25Z" fill="#EFD9CE"/>
<path fill-rule="evenodd" clip-rule="evenodd" d="M409.7 98.4494C408 99.7494 407.7 102.049 408.9 103.649C410.1 105.249 412.5 105.549 414.1 104.249C415.7 102.949 416.1 100.649 414.9 99.0494C413.7 97.5494 411.4 97.2494 409.7 98.4494Z" fill="#CBE4FC"/>
<path fill-rule="evenodd" clip-rule="evenodd" d="M448.4 283.65L487.7 274.65C487.7 274.65 494.6 302.15 496.8 312.85C496.8 312.85 531.9 324.25 531.6 328.15C531.1 336.35 523.6 350.75 513.6 355.75C500.5 362.35 480.3 360.55 470.8 350.85C450.4 330.15 448.4 283.65 448.4 283.65Z" fill="#FFB6A9"/>
<mask id="mask0_12_3211" style="mask-type:alpha" maskUnits="userSpaceOnUse" x="436" y="274" width="96" height="86">
<path d="M487.7 274.65C487.7 274.65 494.601 302.151 496.801 312.851C496.938 312.895 531.9 324.258 531.601 328.15C531.101 336.35 523.601 350.75 513.601 355.75C504.353 360.409 491.567 360.882 481.505 357.345C471.332 357.167 461.094 353.612 455.399 347.149C436 325.249 436.6 278.649 436.6 278.649L448.524 283.621L487.7 274.65Z" fill="#FFB6A9"/>
</mask>
<g mask="url(#mask0_12_3211)">
<path fill-rule="evenodd" clip-rule="evenodd" d="M649.481 182.226C644.082 184.839 637.197 184.36 628.815 180.172C626.97 179.25 625.553 177.513 624.386 175.493C623.21 173.456 622.199 170.974 621.243 168.372C620.777 167.105 620.324 165.811 619.869 164.513C618.424 160.386 616.965 156.221 615.058 152.789C612.566 148.303 609.572 145.55 605.297 145.665C600.817 145.787 594.447 149.027 585.233 158.121C576.096 167.139 571.312 175.159 569.41 182.213C567.517 189.236 568.453 195.4 570.943 200.797C571.487 201.976 572.106 203.118 572.785 204.225C578.128 199.731 585.944 195.995 597.197 192.98C600.648 192.055 603.562 192.002 605.956 192.721C608.376 193.448 610.161 194.935 611.369 196.884C613.734 200.703 613.838 206.194 612.685 211.322C611.524 216.483 609.014 221.631 605.711 224.879C604.053 226.51 602.131 227.724 600.016 228.143C597.864 228.57 595.639 228.147 593.489 226.721C587.443 222.71 578.41 216.602 572.32 208.235C572.223 208.336 572.127 208.436 572.032 208.537C567.251 213.626 565.44 219.577 564.975 226.514C564.68 230.916 565.458 234.434 566.803 237.2C568.279 235.995 569.701 235.044 571.064 234.316C575.803 231.783 579.9 231.924 582.819 233.677C585.683 235.397 587.195 238.56 586.945 241.57C586.686 244.675 584.568 247.485 580.54 248.404C579.101 248.733 577.178 248.532 575.2 247.882C573.189 247.222 570.997 246.059 568.998 244.316C567.997 243.442 567.047 242.425 566.195 241.259C563.447 243.925 560.452 247.589 557.269 252.515C551.333 261.7 544.614 266.428 537.963 267.967C531.319 269.505 524.949 267.812 519.804 264.556C516.074 262.195 512.943 258.986 510.772 255.507C509.931 255.187 509.086 254.859 508.24 254.53C504.574 253.107 500.877 251.672 497.336 250.853C492.178 249.661 488.019 249.95 485.248 253.085C482.355 256.357 480.573 263.111 481.473 276.03C482.364 288.837 485.335 297.691 489.448 303.728C493.544 309.739 498.831 313.044 504.548 314.669C505.766 315.015 507.004 315.285 508.253 315.489C508.41 308.554 510.592 300.333 515.716 289.657C517.263 286.435 519.12 284.19 521.225 282.842C523.353 281.479 525.644 281.092 527.91 281.446C532.347 282.138 536.582 285.636 539.722 289.851C542.882 294.093 545.154 299.351 545.467 303.973C545.625 306.293 545.294 308.543 544.234 310.42C543.156 312.331 541.386 313.744 538.904 314.446C531.889 316.431 521.305 319.325 510.942 318.457L510.945 318.506C510.947 318.531 510.949 318.557 510.951 318.582C511.46 325.554 514.271 331.07 518.013 337.091C520.441 340.996 524.564 342.695 528.975 342.991C528.829 340.931 528.865 339.167 529.056 337.664C529.346 335.373 530.008 333.599 531.016 332.318C532.044 331.012 533.369 330.3 534.797 330.054C537.548 329.579 540.548 330.833 542.756 332.325C543.888 333.09 544.895 333.971 545.645 334.845C546.345 335.661 546.998 336.674 547.071 337.69C547.15 338.793 546.567 339.757 545.889 340.49C545.187 341.249 544.21 341.953 543.087 342.575C540.832 343.823 537.769 344.862 534.476 345.354C533.635 345.479 532.769 345.57 531.89 345.618C532.365 349.102 533.312 353.419 534.885 358.73C537.989 369.217 537.2 377.395 534.036 383.444C530.875 389.487 525.442 393.218 519.62 395.001C513.815 396.779 507.531 396.652 502.519 394.887C497.524 393.128 493.532 389.621 492.964 384.503C491.938 375.271 495.02 366.791 498.694 360.111C501.513 354.984 504.769 350.783 506.822 348.135L506.823 348.134L506.824 348.133C507.432 347.348 507.934 346.7 508.288 346.204C508.992 345.218 509.804 343.486 510.201 341.521C510.598 339.556 510.549 337.515 509.73 335.809C508.938 334.158 507.335 332.635 504.224 331.816C501.066 330.983 496.384 330.891 489.593 332.184C484.296 333.193 479.958 334.787 476.493 336.674C476.894 337.643 477.247 338.585 477.554 339.498C479.278 344.628 479.591 349.012 478.484 352.251C477.924 353.891 476.994 355.246 475.699 356.212C474.406 357.176 472.825 357.697 471.049 357.79C467.547 357.974 464.858 356.619 463.553 354.101C462.29 351.664 462.51 348.488 463.969 345.349C465.527 341.996 468.553 338.521 473.151 335.599C470.071 329.015 464.751 321.124 456.699 312.403C455.875 313.734 454.953 314.997 453.929 316.184C455.818 317.981 457.273 320.196 458.325 322.741C460.746 328.599 461.008 336.136 459.776 344.274C458.539 352.436 455.78 361.334 452.018 370.003C444.512 387.296 432.897 403.943 421.065 412.093C415.145 416.171 408.977 418.25 403.164 416.933C397.315 415.608 392.231 410.939 388.292 402.437C387.425 400.566 387.401 398.324 387.749 396.018C388.1 393.692 388.858 391.122 389.733 388.491C390.159 387.211 390.612 385.917 391.066 384.619L391.067 384.618C392.511 380.49 393.968 376.325 394.619 372.453C395.469 367.392 394.846 363.372 391.432 360.796C387.855 358.097 380.854 356.657 367.981 358.018C355.214 359.368 346.472 362.653 340.586 366.98C334.725 371.289 331.612 376.69 330.193 382.462C329.883 383.723 329.654 385.002 329.494 386.29C336.474 386.111 344.913 388.066 355.589 392.727C358.864 394.157 361.175 395.933 362.597 397.988C364.035 400.066 364.504 402.342 364.231 404.619C363.698 409.078 360.354 413.436 356.255 416.724C352.129 420.035 346.955 422.493 342.348 422.972C340.035 423.213 337.775 422.962 335.86 421.971C333.912 420.962 332.437 419.244 331.646 416.788C329.421 409.882 326.171 399.474 326.629 389.135C326.491 389.153 326.353 389.172 326.216 389.191C319.305 390.187 314.178 393.709 309.487 398.841C306.511 402.098 304.925 405.333 304.252 408.334C306.156 408.313 307.861 408.457 309.38 408.738C314.664 409.714 317.779 412.379 318.967 415.57C320.133 418.701 319.342 422.116 317.269 424.313C315.13 426.579 311.722 427.454 308 425.66C306.671 425.02 305.292 423.662 304.151 421.921C302.991 420.151 302.003 417.875 301.529 415.265C301.291 413.958 301.183 412.571 301.244 411.128C297.433 411.498 292.807 412.493 287.246 414.358C276.878 417.836 268.677 417.34 262.518 414.395C256.366 411.453 252.442 406.157 250.452 400.403C248.467 394.665 248.369 388.38 249.954 383.308C251.532 378.253 254.895 374.139 259.989 373.387C269.178 372.031 277.763 374.807 284.571 378.24C289.795 380.874 294.11 383.977 296.83 385.933C297.637 386.514 298.303 386.993 298.812 387.329C299.822 387.998 301.582 388.748 303.561 389.074C305.538 389.4 307.577 389.278 309.252 388.399C310.874 387.548 312.338 385.891 313.046 382.753C313.764 379.567 313.689 374.885 312.153 368.145C310.955 362.887 309.206 358.609 307.197 355.213C306.243 355.649 305.314 356.035 304.413 356.375C299.348 358.281 294.978 358.752 291.702 357.762C290.042 357.26 288.655 356.379 287.643 355.12C286.633 353.863 286.056 352.301 285.899 350.53C285.59 347.036 286.848 344.301 289.318 342.906C291.708 341.556 294.89 341.663 298.079 343.008C301.486 344.445 305.067 347.345 308.152 351.835C314.62 348.521 322.316 342.922 330.743 334.563C323.357 330.345 317.871 323.186 315.4 312.231C312.249 298.268 314.014 289.326 318.6 284.635C323.15 279.983 329.968 279.991 335.959 282.732C336.349 281.445 336.983 280.221 337.896 279.101C343.764 271.901 351.975 268.159 359.316 266.1C364.949 264.521 370.227 263.9 373.555 263.51L373.556 263.509C374.542 263.394 375.358 263.298 375.96 263.203C377.157 263.015 378.962 262.381 380.642 261.287C382.322 260.194 383.745 258.728 384.388 256.949C385.011 255.227 384.974 253.017 383.38 250.223C381.761 247.386 378.547 243.981 372.866 240.041C368.435 236.968 364.258 234.99 360.484 233.839C360.073 234.804 359.649 235.716 359.212 236.574C356.76 241.398 353.851 244.694 350.765 246.173C349.202 246.922 347.583 247.208 345.987 246.961C344.393 246.714 342.914 245.95 341.603 244.749C339.018 242.379 338.101 239.511 338.983 236.815C339.837 234.206 342.258 232.138 345.52 230.98C349.004 229.743 353.603 229.468 358.91 230.701C361.449 223.891 363.353 214.566 363.934 202.711C355.637 204.58 346.758 202.996 337.543 196.577C325.798 188.395 321.068 180.603 321.29 174.047C321.515 167.401 326.771 162.75 333.234 160.802C339.727 158.846 347.802 159.464 354.406 163.61C361.067 167.793 366.092 175.476 366.582 187.343C366.754 191.508 366.785 195.457 366.69 199.19C373.621 196.752 380.112 191.731 386.019 185.186C399.192 170.588 409.085 148.818 414.149 133.178L414.174 133.104L414.207 133.032C419.84 120.841 425.802 113.186 431.896 109.258C438.081 105.272 444.312 105.185 450.138 107.917C455.877 110.609 461.155 115.995 465.735 122.834C470.329 129.693 474.294 138.122 477.365 147.06C481.899 160.256 484.532 174.71 484.282 187.006C486.31 187.833 488.342 188.734 490.365 189.703C506.387 197.373 522.067 209.342 530.534 221.762C531.461 223.121 532.305 224.492 533.055 225.868C538.626 224.74 543.763 224.483 547.03 224.319L547.031 224.319L547.031 224.319C548.023 224.27 548.843 224.229 549.45 224.174C550.657 224.067 552.501 223.555 554.25 222.576C555.999 221.597 557.517 220.23 558.278 218.498C559.014 216.821 559.126 214.614 557.721 211.719C556.296 208.781 553.317 205.168 547.912 200.857C543.696 197.495 539.661 195.242 535.973 193.841C535.499 194.776 535.014 195.658 534.521 196.485C531.751 201.134 528.629 204.228 525.45 205.498C523.841 206.141 522.207 206.318 520.631 205.964C519.057 205.612 517.632 204.75 516.404 203.464C513.983 200.926 513.26 198.004 514.321 195.373C515.348 192.827 517.901 190.925 521.233 189.988C524.793 188.986 529.4 189.02 534.612 190.605C537.601 183.98 540.124 174.803 541.497 163.013C533.093 164.324 524.34 162.149 515.575 155.128C504.404 146.179 500.205 138.089 500.865 131.562C501.534 124.946 507.089 120.656 513.667 119.146C520.277 117.628 528.293 118.784 534.604 123.363C540.972 127.982 545.471 135.984 545.167 147.857C545.06 152.024 544.826 155.966 544.482 159.684C551.56 157.715 558.373 153.14 564.704 147.005C578.824 133.32 590.151 112.26 596.249 96.9946L596.279 96.9216L596.316 96.8526C602.753 85.0649 609.213 77.8264 615.556 74.3145C621.994 70.7506 628.217 71.0808 633.847 74.1965C639.393 77.2658 644.299 82.9932 648.411 90.1228C652.536 97.2738 655.929 105.949 658.395 115.072C663.315 133.271 664.619 153.528 660.454 167.278C658.37 174.158 654.846 179.63 649.481 182.226ZM335.493 285.417C335.401 285.371 335.308 285.326 335.216 285.281C329.695 282.63 324.039 282.827 320.476 286.47C316.852 290.177 314.866 297.943 317.959 311.653C320.355 322.275 325.669 328.859 332.66 332.626C335.393 329.815 338.197 326.717 341.056 323.316C346.479 316.867 348.474 310.602 348.319 305.049C343.336 302.141 339.325 297.776 337.181 293.194C335.992 290.654 335.35 287.972 335.493 285.417ZM347.962 301.715C344.199 299.12 341.22 295.636 339.557 292.082C338.735 290.325 338.25 288.596 338.128 286.967C342.409 289.89 346.035 294.463 347.557 299.97C347.715 300.541 347.851 301.123 347.962 301.715ZM350.851 303.445C350.719 302.012 350.459 300.619 350.087 299.271C348.237 292.581 343.641 287.169 338.342 283.989C338.623 282.807 339.148 281.718 339.93 280.759C345.32 274.146 352.948 270.611 360.024 268.627C365.425 267.112 370.35 266.532 373.696 266.138C374.757 266.013 375.659 265.907 376.367 265.795C377.957 265.545 380.108 264.766 382.073 263.486C384.039 262.207 385.952 260.34 386.855 257.842C387.779 255.288 387.573 252.277 385.658 248.922C383.768 245.609 380.204 241.937 374.361 237.885C369.822 234.737 365.467 232.643 361.452 231.393C364.128 224.122 366.06 214.31 366.594 201.989C374.47 199.485 381.64 193.955 387.967 186.944C401.468 171.983 411.494 149.867 416.621 134.062C422.157 122.104 427.842 114.993 433.318 111.463C438.714 107.985 443.985 107.929 449.024 110.293C454.15 112.697 459.101 117.644 463.555 124.294C467.995 130.923 471.868 139.137 474.883 147.912C479.243 160.6 481.761 174.32 481.672 185.983C476.544 184.053 471.482 182.628 466.709 181.846C459.27 180.626 452.392 180.942 447.061 183.485C444.407 184.751 442.177 186.551 440.47 188.919C439.952 187.96 439.414 187.036 438.85 186.165C435.884 181.577 431.925 177.982 426.185 178.523C420.648 179.045 413.921 183.412 405.281 193.164C396.57 202.996 392.04 211.727 390.496 219.488C388.945 227.279 390.425 233.989 393.538 239.697C394.291 241.078 395.14 242.4 396.064 243.664C395.842 243.917 395.627 244.171 395.417 244.426C390.481 250.44 388.982 257.162 388.982 264.499C388.982 269.707 390.277 273.812 392.237 276.96C389.385 280.042 386.403 284.205 383.362 289.684C378.293 298.814 372.386 303.421 366.666 305.155C361.14 306.83 355.6 305.883 350.851 303.445ZM350.941 306.399C350.758 312.251 348.432 318.621 343.065 325.005C340.382 328.195 337.741 331.131 335.153 333.823C341.913 336.698 350.092 337.372 358.868 336.524C374.653 335.001 392.012 328.593 405.634 321.907C401.834 317.138 402.327 310.584 405.286 304.948C408.44 298.944 414.538 293.615 422.123 291.808C429.775 289.985 438.777 291.783 447.588 299.747C450.681 302.542 453.52 305.287 456.117 307.97C459.233 301.317 460.199 293.167 459.667 284.367C458.48 264.74 449.878 242.428 442.266 227.858L442.23 227.788L442.202 227.714C437.452 215.159 435.925 205.462 436.95 198.214C437.305 195.71 437.964 193.5 438.895 191.572C438.188 190.166 437.445 188.825 436.647 187.59C433.86 183.28 430.689 180.734 426.431 181.135C421.969 181.556 415.83 185.215 407.245 194.904C398.731 204.513 394.495 212.836 393.069 220C391.649 227.135 392.995 233.222 395.842 238.441C396.463 239.58 397.156 240.679 397.908 241.738C402.939 236.897 410.488 232.647 421.513 228.886C424.895 227.732 427.799 227.484 430.235 228.041C432.699 228.605 434.58 229.969 435.915 231.834C438.53 235.485 439.001 240.958 438.193 246.15C437.381 251.378 435.22 256.683 432.142 260.144C430.597 261.882 428.76 263.222 426.678 263.782C424.559 264.351 422.311 264.078 420.07 262.799C413.769 259.202 404.348 253.711 397.712 245.77C397.622 245.877 397.533 245.984 397.445 246.091C393.016 251.488 391.606 257.547 391.606 264.499C391.606 268.911 392.618 272.369 394.145 275.039C395.537 273.739 396.893 272.694 398.203 271.877C402.762 269.033 406.86 268.899 409.889 270.453C412.862 271.978 414.582 275.032 414.534 278.053C414.483 281.168 412.558 284.113 408.601 285.3C407.187 285.723 405.254 285.652 403.237 285.136C401.186 284.612 398.922 283.598 396.811 281.992C395.753 281.187 394.738 280.237 393.809 279.13C391.246 281.974 388.502 285.829 385.656 290.957C380.348 300.518 373.96 305.685 367.427 307.666C361.64 309.42 355.898 308.626 350.941 306.399ZM407.58 323.872C393.659 330.788 375.624 337.543 359.12 339.136C349.72 340.044 340.696 339.289 333.194 335.824C324.488 344.559 316.442 350.499 309.562 354.061C311.682 357.692 313.484 362.176 314.711 367.562C316.291 374.494 316.444 379.609 315.605 383.33C314.755 387.099 312.876 389.46 310.471 390.722C308.12 391.956 305.448 392.044 303.134 391.663C300.82 391.281 298.706 390.406 297.364 389.518C296.766 389.122 296.029 388.592 295.162 387.969L295.161 387.969C292.425 386.002 288.398 383.108 283.389 380.583C276.827 377.274 268.812 374.738 260.372 375.983C256.651 376.532 253.87 379.571 252.458 384.09C251.052 388.591 251.118 394.301 252.932 399.545C254.74 404.773 258.251 409.446 263.65 412.028C269.043 414.607 276.511 415.191 286.412 411.87C292.353 409.878 297.362 408.816 301.547 408.466C302.224 404.819 304.037 400.916 307.55 397.071C312.5 391.655 318.141 387.704 325.842 386.594C326.169 386.547 326.499 386.505 326.833 386.469C327.004 384.912 327.269 383.363 327.645 381.836C329.197 375.522 332.632 369.571 339.032 364.866C345.408 360.179 354.642 356.79 367.705 355.408C380.661 354.038 388.573 355.352 393.012 358.702C397.615 362.175 398.112 367.499 397.206 372.887C396.515 377.004 394.95 381.474 393.489 385.645L393.488 385.648C393.048 386.905 392.617 388.135 392.223 389.32C391.356 391.924 390.659 394.317 390.344 396.409C390.025 398.52 390.125 400.151 390.673 401.334C394.421 409.424 398.983 413.295 403.744 414.374C408.543 415.461 413.95 413.808 419.577 409.932C430.839 402.174 442.202 386.028 449.611 368.958C453.305 360.446 455.987 351.77 457.181 343.881C458.38 335.968 458.062 328.976 455.9 323.743C454.989 321.539 453.748 319.634 452.128 318.092C447.709 322.367 441.709 325.454 433.832 326.937C420.928 329.366 412.394 327.814 407.58 323.872ZM450.047 316.451C446.04 320.225 440.595 322.994 433.346 324.358C421.642 326.561 414.333 325.273 410.2 322.543C412.225 321.496 414.147 320.453 415.946 319.43C428.099 314.337 437.093 312.924 443.516 314.012C446.071 314.445 448.235 315.276 450.047 316.451ZM451.891 314.528C449.703 313.016 447.068 311.953 443.955 311.425C436.806 310.214 427.242 311.842 414.858 317.041L414.786 317.072L414.718 317.11C412.646 318.289 410.412 319.494 408.047 320.699C404.758 317.006 404.823 311.474 407.609 306.168C410.442 300.775 415.946 295.977 422.731 294.36C429.449 292.76 437.585 294.242 445.829 301.694C449.125 304.672 452.121 307.586 454.832 310.418C453.98 311.872 453.003 313.247 451.891 314.528ZM521.207 262.339C518.898 260.877 516.849 259.062 515.16 257.071C517.079 257.689 518.934 258.168 520.643 258.365C522.89 258.623 525.078 258.416 526.834 257.189C533.508 252.526 536.682 246.817 536.985 240.584C537.18 236.565 536.177 232.421 534.28 228.302C539.332 227.337 543.855 227.109 546.996 226.951L546.999 226.951C548.064 226.897 548.97 226.852 549.683 226.788C551.287 226.645 553.485 226.011 555.531 224.866C557.578 223.721 559.612 221.985 560.68 219.554C561.772 217.067 561.769 214.049 560.082 210.574C558.417 207.142 555.107 203.239 549.548 198.806C545.23 195.362 541.024 192.981 537.102 191.465C540.259 184.389 542.843 174.728 544.199 162.471C552.224 160.499 559.749 155.461 566.53 148.889C581.001 134.864 592.485 113.469 598.657 98.0414C604.979 86.4805 611.128 79.7655 616.827 76.6101C622.444 73.5006 627.706 73.7972 632.576 76.4923C637.531 79.2339 642.139 84.5012 646.138 91.4339C650.125 98.3451 653.441 106.799 655.862 115.757C660.718 133.72 661.908 153.429 657.943 166.517C655.962 173.056 652.767 177.721 648.338 179.864C643.944 181.991 637.963 181.81 629.988 177.825C628.822 177.242 627.727 176.029 626.659 174.18C625.6 172.348 624.653 170.043 623.706 167.467C623.275 166.295 622.844 165.064 622.404 163.806L622.403 163.805L622.403 163.804L622.403 163.802C620.943 159.632 619.378 155.162 617.352 151.514C614.699 146.738 610.989 142.886 605.226 143.042C599.667 143.193 592.663 147.101 583.39 156.253C574.041 165.48 568.937 173.889 566.877 181.53C564.809 189.199 565.836 195.993 568.561 201.896C569.22 203.324 569.979 204.7 570.816 206.024C570.578 206.261 570.346 206.5 570.119 206.74C564.793 212.411 562.848 219.018 562.357 226.338C562.009 231.535 563.026 235.716 564.771 238.989C561.719 241.873 558.466 245.827 555.065 251.09C549.397 259.862 543.195 264.063 537.372 265.411C531.54 266.76 525.882 265.297 521.207 262.339ZM534.364 240.456C534.543 236.787 533.573 232.876 531.645 228.865C524.889 230.472 517.734 233.487 512.327 239.282C509.761 242.032 509.482 246.142 511.198 250.554C511.564 251.497 512.019 252.441 512.552 253.372C513.106 253.58 513.651 253.78 514.183 253.969C516.714 254.867 518.995 255.534 520.943 255.758C522.899 255.983 524.329 255.739 525.331 255.038C531.45 250.763 534.107 245.752 534.364 240.456ZM510.408 237.492C516.112 231.378 523.522 228.187 530.388 226.471C529.777 225.398 529.102 224.32 528.366 223.24C520.238 211.318 504.984 199.61 489.232 192.069C487.546 191.262 485.857 190.504 484.173 189.8C483.982 193.076 483.567 196.169 482.911 199.011C481.291 206.015 478.141 211.711 472.962 214.66C467.749 217.627 460.847 217.61 452.204 213.992C450.302 213.195 448.772 211.557 447.473 209.619C446.163 207.666 444.988 205.257 443.86 202.725C443.311 201.492 442.772 200.231 442.231 198.966L442.231 198.966C441.634 197.568 441.035 196.166 440.418 194.793C440.035 195.949 439.743 197.209 439.549 198.581C438.614 205.188 439.97 214.378 444.628 226.713C452.314 241.444 461.07 264.093 462.286 284.209C462.856 293.635 461.778 302.626 458.047 309.999C466.465 319.012 472.112 327.266 475.426 334.27C479.131 332.281 483.676 330.64 489.102 329.607C496.087 328.276 501.204 328.306 504.893 329.278C508.628 330.263 510.921 332.225 512.096 334.674C513.245 337.068 513.237 339.741 512.773 342.04C512.309 344.339 511.358 346.42 510.423 347.73C510.007 348.313 509.451 349.03 508.798 349.873L508.796 349.875C506.733 352.539 503.696 356.46 500.993 361.375C497.451 367.815 494.629 375.734 495.572 384.213C495.987 387.952 498.924 390.84 503.39 392.412C507.838 393.978 513.546 394.118 518.852 392.493C524.141 390.873 528.937 387.532 531.711 382.228C534.481 376.931 535.333 369.489 532.369 359.475C530.732 353.944 529.731 349.378 529.244 345.629C524.103 345.38 518.894 343.477 515.785 338.476C511.983 332.36 508.891 326.397 508.334 318.773C508.319 318.567 508.305 318.359 508.294 318.15C506.791 317.924 505.299 317.61 503.831 317.193C497.577 315.415 491.752 311.77 487.28 305.205C482.824 298.666 479.768 289.316 478.855 276.212C477.951 263.219 479.628 255.48 483.282 251.347C487.057 247.077 492.534 247.05 497.927 248.297C501.499 249.123 505.328 250.585 508.946 251.987C508.879 251.827 508.815 251.666 508.752 251.505C506.833 246.569 506.895 241.256 510.408 237.492ZM541.788 160.304C542.17 156.402 542.43 152.231 542.544 147.79C542.828 136.681 538.654 129.542 533.064 125.487C527.418 121.391 520.192 120.339 514.255 121.703C508.286 123.074 503.988 126.756 503.475 131.826C502.954 136.984 506.246 144.293 517.215 153.08C525.713 159.888 533.973 161.719 541.788 160.304ZM533.456 192.998C528.827 191.659 524.863 191.692 521.944 192.514C519.096 193.315 517.378 194.81 516.755 196.354C516.166 197.813 516.416 199.675 518.303 201.653C519.23 202.624 520.212 203.181 521.205 203.404C522.196 203.626 523.29 203.535 524.477 203.061C526.891 202.096 529.635 199.56 532.267 195.142C532.668 194.468 533.065 193.754 533.456 192.998ZM568.153 239.488C568.934 240.595 569.809 241.541 570.723 242.338C572.447 243.842 574.327 244.834 576.018 245.389C577.742 245.955 579.151 246.03 579.956 245.846C582.907 245.172 584.169 243.281 584.33 241.353C584.498 239.33 583.469 237.128 581.468 235.927C579.523 234.758 576.433 234.421 572.301 236.63C571.008 237.321 569.622 238.258 568.153 239.488ZM574.247 206.425C579.981 214.445 588.738 220.421 594.939 224.534C596.554 225.605 598.079 225.852 599.506 225.57C600.969 225.279 602.453 224.404 603.871 223.009C606.722 220.206 609.042 215.56 610.125 210.746C611.215 205.897 610.974 201.23 609.138 198.266C608.245 196.825 606.967 195.765 605.201 195.234C603.408 194.696 601.014 194.674 597.876 195.515C586.64 198.525 579.179 202.196 574.247 206.425ZM441.839 191.62C443.378 188.992 445.55 187.113 448.191 185.853C452.839 183.636 459.103 183.257 466.284 184.435C471.123 185.229 476.315 186.718 481.6 188.763C481.442 192.228 481.034 195.477 480.354 198.42C478.815 205.077 475.939 209.945 471.663 212.379C467.421 214.795 461.442 215.015 453.218 211.572C452.015 211.068 450.841 209.931 449.652 208.158C448.474 206.401 447.374 204.164 446.257 201.657C445.748 200.516 445.236 199.316 444.712 198.09L444.712 198.089C443.802 195.958 442.858 193.747 441.839 191.62ZM363.961 187.451C364.144 191.89 364.164 196.069 364.043 199.988C356.341 201.923 347.977 200.648 339.043 194.424C327.51 186.389 323.737 179.317 323.912 174.135C324.085 169.043 328.126 165.082 333.991 163.315C339.824 161.557 347.104 162.124 353.01 165.832C358.859 169.505 363.502 176.348 363.961 187.451ZM346.398 233.453C349.256 232.438 353.208 232.14 357.917 233.167C357.577 233.946 357.229 234.686 356.873 235.385C354.543 239.969 351.975 242.683 349.631 243.807C348.478 244.359 347.393 244.524 346.389 244.368C345.383 244.212 344.366 243.722 343.376 242.815C341.361 240.968 340.988 239.127 341.477 237.631C341.995 236.049 343.609 234.443 346.398 233.453ZM398.4 279.904C397.434 279.169 396.498 278.284 395.645 277.232C397.028 275.907 398.348 274.879 399.592 274.103C403.568 271.623 406.673 271.752 408.692 272.788C410.768 273.853 411.943 275.981 411.91 278.01C411.879 279.945 410.746 281.917 407.847 282.786C407.056 283.023 405.645 283.043 403.887 282.594C402.162 282.153 400.22 281.289 398.4 279.904ZM421.371 260.52C414.908 256.83 405.772 251.454 399.514 243.836C404.153 239.286 411.351 235.124 422.36 231.369C425.435 230.32 427.826 230.182 429.65 230.599C431.448 231.011 432.794 231.983 433.782 233.361C435.811 236.196 436.364 240.836 435.601 245.747C434.842 250.623 432.837 255.413 430.181 258.401C428.859 259.887 427.437 260.86 425.996 261.248C424.592 261.625 423.053 261.48 421.371 260.52ZM466.348 346.455C467.626 343.704 470.183 340.675 474.214 338.035C474.533 338.823 474.816 339.59 475.066 340.334C476.704 345.208 476.842 348.942 476.001 351.402C475.588 352.611 474.945 353.501 474.13 354.109C473.315 354.717 472.252 355.099 470.911 355.17C468.182 355.313 466.606 354.29 465.882 352.893C465.116 351.415 465.101 349.138 466.348 346.455ZM534.089 342.759C533.267 342.881 532.437 342.966 531.608 343.008C531.454 341.014 531.485 339.358 531.659 337.995C531.911 336.006 532.454 334.734 533.078 333.941C533.682 333.173 534.418 332.782 535.244 332.639C537.003 332.335 539.292 333.151 541.287 334.499C542.256 335.153 543.078 335.884 543.653 336.554C544.278 337.282 544.444 337.745 544.454 337.877C544.457 337.921 544.435 338.197 543.963 338.709C543.514 339.193 542.794 339.738 541.816 340.279C539.869 341.358 537.111 342.307 534.089 342.759ZM538.189 311.922C531.004 313.955 520.722 316.719 510.872 315.819C510.965 309.337 512.979 301.422 518.082 290.792C519.488 287.864 521.064 286.061 522.64 285.051C524.193 284.057 525.83 283.777 527.505 284.038C530.95 284.576 534.648 287.433 537.617 291.418C540.566 295.375 542.579 300.162 542.849 304.15C542.984 306.135 542.682 307.832 541.949 309.131C541.235 310.398 540.053 311.394 538.189 311.922ZM297.059 345.426C299.854 346.605 302.972 349.051 305.755 352.985C304.979 353.332 304.223 353.643 303.488 353.919C298.676 355.731 294.95 356.002 292.461 355.25C291.237 354.88 290.325 354.269 289.689 353.477C289.051 352.683 288.632 351.635 288.513 350.298C288.272 347.576 289.238 345.964 290.608 345.191C292.058 344.372 294.333 344.275 297.059 345.426ZM304.11 414.796C303.893 413.602 303.799 412.317 303.879 410.965C305.794 410.92 307.462 411.052 308.903 411.318C313.511 412.169 315.716 414.359 316.508 416.486C317.322 418.673 316.753 421.036 315.36 422.512C314.032 423.919 311.866 424.61 309.139 423.296C308.395 422.938 307.341 422.001 306.346 420.483C305.37 418.994 304.52 417.046 304.11 414.796ZM334.144 415.984C331.862 408.9 328.745 398.768 329.264 388.923C335.758 388.693 343.879 390.478 354.539 395.132C357.516 396.432 359.374 397.943 360.44 399.482C361.489 400.998 361.827 402.624 361.626 404.307C361.212 407.769 358.49 411.568 354.613 414.678C350.764 417.766 346.053 419.949 342.077 420.362C340.098 420.568 338.392 420.327 337.067 419.641C335.776 418.972 334.737 417.827 334.144 415.984Z" fill="white"/>
</g>
<path d="M437.199 221.15L444.899 238.15C444.899 238.15 449.699 312.85 457.899 331.65C461.999 344.25 468.599 350.25 471.299 351.75" stroke="#424D51" stroke-linecap="round" stroke-linejoin="round"/>
<path fill-rule="evenodd" clip-rule="evenodd" d="M577.899 339.551C577.899 339.551 581.099 345.551 577.399 350.451C573.799 355.151 544.599 353.551 541.599 353.251C537.299 352.851 532.999 353.051 529.999 352.751C528.199 352.551 523.999 349.651 528.999 347.451C533.999 345.251 552.799 341.051 554.999 340.251C556.199 339.951 577.899 339.551 577.899 339.551Z" fill="#EFD9CE"/>
<path fill-rule="evenodd" clip-rule="evenodd" d="M579.8 336.25C580.3 336.25 580.2 340.05 578.6 341.35C577 342.65 555.1 341.45 554.4 339.65C553.6 337.85 553.8 335.25 553.8 335.25C553.8 335.25 579.4 336.25 579.8 336.25Z" fill="#EFD9CE"/>
<path fill-rule="evenodd" clip-rule="evenodd" d="M518.401 274.75C538.301 282.95 548.301 283.45 551.201 285.95C553.701 288.15 550.401 311.35 550.301 319.95C550.201 327.95 548.701 336.75 554.501 337.55C559.301 338.25 581.501 342.45 583.501 335.45C587.001 322.95 591.101 274.75 587.301 264.65C583.501 254.55 565.401 248.75 557.301 245.45C546.101 240.95 502.101 268.05 518.401 274.75Z" fill="#DEC0F1"/>
<path d="M554.212 345.812C554.212 345.812 544.112 347.613 542.312 348.013C538.212 348.813 536.512 353.413 542.912 353.413" stroke="#424D51" stroke-linecap="round" stroke-linejoin="round"/>
<path d="M536.212 352.912C533.812 353.312 530.412 350.012 535.012 347.912C539.112 346.012 546.012 344.912 546.012 344.912" stroke="#424D51" stroke-linecap="round" stroke-linejoin="round"/>
<path fill-rule="evenodd" clip-rule="evenodd" d="M597.8 345.449C597.8 345.449 601.1 351.449 597.3 356.349C593.7 361.049 564.5 359.449 561.5 359.149C557.1 358.749 552.9 358.949 549.9 358.649C548.1 358.449 543.9 355.549 548.9 353.349C553.9 351.149 572.7 346.949 574.9 346.149C576 345.849 597.8 345.449 597.8 345.449Z" fill="#EFD9CE"/>
<path fill-rule="evenodd" clip-rule="evenodd" d="M599.7 342.151C600.2 342.151 600.2 345.851 598.6 347.051C597 348.351 575 347.251 574.2 345.451C573.4 343.651 573.6 341.051 573.6 341.051C573.6 341.051 599.2 342.251 599.7 342.151Z" fill="#EFD9CE"/>
<path fill-rule="evenodd" clip-rule="evenodd" d="M549.4 240.449C525.1 231.949 516.9 247.949 517.4 255.449C518 264.849 521.1 269.549 537.5 276.249C557.4 284.449 568.2 286.149 571.1 288.749C573.6 290.949 570.4 317.449 570.3 326.049C570.2 334.049 568.7 342.849 574.5 343.649C579.3 344.349 601.5 348.549 603.5 341.549C607 329.049 611.1 280.849 607.3 270.749C603.5 260.649 585.4 254.849 577.3 251.549C566 246.849 549.4 240.449 549.4 240.449Z" fill="#DEC0F1"/>
<path d="M575.88 351.588C575.88 351.588 565.78 353.388 563.98 353.788C559.88 354.588 558.18 359.188 564.58 359.188" stroke="#424D51" stroke-linecap="round" stroke-linejoin="round"/>
<path d="M556.319 358.688C554.019 359.088 550.619 355.787 555.119 353.688C559.219 351.788 566.119 350.688 566.119 350.688" stroke="#424D51" stroke-linecap="round" stroke-linejoin="round"/>
<path d="M550 358.55C545.9 358.35 544.6 354.25 550.6 352.15C557.7 349.75 575.1 346.25 575.1 346.25" stroke="#424D51" stroke-linecap="round" stroke-linejoin="round"/>
<path d="M571.4 341.35C571.4 341.35 569.9 337.55 569.7 333.95C569 320.25 572.2 307.25 571.7 289.55C571.6 286.75 540 278.15 529.6 271.75C522.7 267.95 519.1 263.95 517.9 258.85" stroke="#424D51" stroke-linecap="round" stroke-linejoin="round"/>
<path d="M544 283.95L545.4 278.85" stroke="#424D51" stroke-linecap="round" stroke-linejoin="round"/>
</svg>
