<svg width="732" height="424" viewBox="0 0 732 424" fill="none" xmlns="http://www.w3.org/2000/svg">
<path d="M592.373 331.925C634.229 329.911 619.377 294.43 600.584 273.903C590.275 260.036 561.665 232.193 529.698 231.755C489.74 231.207 457.171 278.008 441.844 304.556C429.583 325.795 455.254 331.651 466.749 331.925C489.009 330.739 541.193 334.388 592.373 331.925Z" fill="#F8F8F8"/>
<path d="M457.716 339.049C466.749 339.049 467.023 333.567 464.97 327.957C461.824 321.525 454.314 312.221 444.851 312.219C440.524 312.219 425.011 325.767 425.832 333.431C426.653 341.094 448.511 339.049 457.716 339.049Z" fill="#E1E1E1"/>
<path d="M483.576 341.093C490.802 339.67 489.506 335.117 487.955 333.019C483.576 327.819 474.682 321.387 468.798 320.429C464.526 319.734 453.197 327.545 454.018 335.209C454.839 342.872 474.545 342.872 483.576 341.093Z" fill="#ECECEC"/>
<path d="M675.659 336.067C677.418 336.067 680.266 323.501 681.471 317.218C681.471 315.071 680.842 311.123 678.329 312.506C675.188 314.233 673.931 322.558 673.46 326.642C672.989 330.726 673.46 336.067 675.659 336.067Z" fill="#ECECEC"/>
<path d="M668.59 332.219C668.59 328.633 666.836 319.574 665.842 315.726C664.855 311.448 662.622 312.506 661.993 314.234C661.365 315.962 662.386 323.894 663.171 327.035C663.957 330.177 664.664 335.282 665.842 335.675C667.02 336.067 668.59 335.36 668.59 332.219Z" fill="#ECECEC"/>
<path d="M659.559 334.261C660.375 332.816 657.333 326.852 655.71 324.051C654.101 321.067 651.783 320.36 650.448 322.48C649.113 324.601 655.239 332.847 656.103 334.261C656.967 335.675 658.538 336.067 659.559 334.261Z" fill="#ECECEC"/>
<path fill-rule="evenodd" clip-rule="evenodd" d="M574.901 223.701C583.101 224.901 602.301 227.601 614.801 227.601C615.201 227.601 621.501 227.701 619.501 222.801C619.501 222.801 623.001 223.201 623.601 220.301C624.101 218.101 622.801 217.101 621.601 216.501C621.501 216.501 624.001 216.801 624.201 214.401C624.501 211.201 620.801 210.001 618.001 209.901C617.901 209.901 619.601 209.901 619.901 207.601C620.001 206.701 619.201 205.201 616.501 204.301C611.801 202.801 596.101 201.701 596.101 201.701C596.101 201.701 598.701 199.901 601.501 198.101C602.301 197.601 603.901 195.801 602.901 193.901C602.001 192.101 600.601 192.001 597.401 193.101C594.001 194.201 587.401 196.501 583.001 199.601C582.601 199.801 578.801 199.501 576.201 199.501C564.301 199.401 561.401 221.701 574.901 223.701Z" fill="#EFD9CE"/>
<path d="M596.061 201.761C592.779 203.471 593.183 206.141 592.107 207.72C589.901 211.582 585.416 210.957 583.421 209.135" stroke="#424D51" stroke-linecap="round" stroke-linejoin="round"/>
<path d="M600.301 207.801C600.301 207.801 615.001 209.601 618.501 210.001" stroke="#424D51" stroke-linecap="round" stroke-linejoin="round"/>
<path d="M599.4 213.199C599.4 213.199 612 214.199 617.7 215.099C619.2 215.299 620.9 215.799 622.2 216.599" stroke="#424D51" stroke-linecap="round" stroke-linejoin="round"/>
<path d="M598.1 218.801C598.1 218.801 611.9 220.001 615.4 220.601C616.2 220.701 618.3 221.201 619.4 222.401" stroke="#424D51" stroke-linecap="round" stroke-linejoin="round"/>
<path fill-rule="evenodd" clip-rule="evenodd" d="M570.2 223.9C570.1 224.4 573.3 224.8 574.8 223.4C576.3 222 579 200.3 577.4 199.2C575.7 198.1 573.2 198 573.2 198C573.2 198 570.3 223.5 570.2 223.9Z" fill="#EFD9CE"/>
<path fill-rule="evenodd" clip-rule="evenodd" d="M513.099 131.099C517.499 116.799 533.749 102.999 545.199 136.699C549.899 153.399 525.899 191.299 525.899 191.299L570.699 194.799C570.699 194.799 575.799 194.999 575.299 198.999C574.699 203.799 575.999 226.399 568.799 227.299C555.899 228.799 527.199 226.399 515.199 222.699C505.699 219.799 495.199 211.099 493.299 201.099C489.199 179.199 504.799 158.399 513.099 131.099Z" fill="#DEC0F1"/>
<path fill-rule="evenodd" clip-rule="evenodd" d="M325.199 213.9L318.699 248.2C318.699 248.2 402.999 266.5 410.999 268.4C420.299 270.6 428.499 264.5 432.699 258.9C447.399 239.7 467.599 208.7 467.599 208.7C467.599 208.7 476.799 193.8 455.899 185.2C445.299 180.8 433.499 187.3 425.299 198.4C418.299 208 408.999 230.7 405.399 230.2C394.299 228.7 325.199 213.9 325.199 213.9Z" fill="#EFD9CE"/>
<path fill-rule="evenodd" clip-rule="evenodd" d="M358.401 220.7L350.801 256.9L315.801 247.6L324.201 213L358.401 220.7Z" fill="#CBE4FC"/>
<path fill-rule="evenodd" clip-rule="evenodd" d="M327.899 215.2C327.899 215.2 328.599 211.7 325.899 210.6C324.199 209.8 322.799 210.6 321.799 211.5C321.799 211.5 321.199 209.7 319.099 207.7C316.999 205.7 312.999 202.3 309.699 202.8C308.199 203 300.399 237.7 300.399 237.7L290.199 273.6C290.199 273.6 297.699 274.1 302.099 266.4C305.999 259.5 306.499 257.9 307.899 254.3C308.799 252.1 310.299 250.4 312.399 250C315.599 249.3 317.199 248.1 319.199 245.4C322.499 241 327.399 220.4 327.899 215.2Z" fill="#93BEFA"/>
<path fill-rule="evenodd" clip-rule="evenodd" d="M309.6 202.7C311 202 319.6 212.1 318.3 220.1C317.1 227.5 309.4 230.9 306.9 235.4C305.3 238.3 304.1 243.1 302.9 247.2C302.4 249.1 296 272.2 296 272.2C296 272.2 290.5 276.6 289 273.5C288.2 271.7 308.3 203.4 309.6 202.7Z" fill="#EFD9CE"/>
<path fill-rule="evenodd" clip-rule="evenodd" d="M308.999 240C309.199 237.9 310.999 236.4 313.099 236.6C315.099 236.8 316.599 238.7 316.299 240.7C316.099 242.8 314.299 244.3 312.199 244.1C310.199 243.9 308.699 242.1 308.999 240Z" fill="#CBE4FC"/>
<path fill-rule="evenodd" clip-rule="evenodd" d="M522.199 342.7L557.099 341.9C557.099 341.9 559.199 262.7 559.399 254.6C559.599 245 557.899 239.7 550.899 233.8C532.399 218.1 520.199 206.3 520.199 206.3C520.199 206.3 502.199 197.2 493.099 215.7C489.899 222.3 492.799 230.6 499.199 237.2C507.499 245.8 522.299 254.6 522.499 258.2C523.299 269.4 522.199 342.7 522.199 342.7Z" fill="#EFD9CE"/>
<path fill-rule="evenodd" clip-rule="evenodd" d="M522 308.799L559 308.699L557.1 344.899L521.5 343.799L522 308.799Z" fill="#CBE4FC"/>
<path fill-rule="evenodd" clip-rule="evenodd" d="M524.299 342.8C524.299 342.8 520.699 343 520.299 345.9C519.999 347.8 521.099 348.9 522.199 349.7C522.199 349.7 520.599 350.7 519.299 353.2C517.899 355.7 515.699 360.5 516.999 363.6C517.599 365 553.099 363.5 553.099 363.5L590.399 364.1C590.399 364.1 588.899 356.7 580.299 354.5C572.599 352.5 570.899 352.4 567.099 352C564.699 351.7 562.799 350.7 561.799 348.8C560.299 345.9 558.699 344.7 555.599 343.5C550.599 341.4 529.499 342 524.299 342.8Z" fill="#93BEFA"/>
<path fill-rule="evenodd" clip-rule="evenodd" d="M516.901 363.8C515.801 362.7 523.301 351.7 531.401 350.9C538.901 350.2 544.201 356.7 549.101 357.9C552.301 358.7 557.301 358.7 561.601 358.7C563.501 358.7 587.501 358.9 587.501 358.9C587.501 358.9 593.101 363.1 590.601 365.3C589.201 366.6 517.901 364.8 516.901 363.8Z" fill="#EFD9CE"/>
<path fill-rule="evenodd" clip-rule="evenodd" d="M553.2 354.7C551.1 355 549.2 353.7 548.9 351.6C548.6 349.6 550 347.7 552.1 347.4C554.2 347.1 556.1 348.4 556.4 350.5C556.7 352.5 555.2 354.4 553.2 354.7Z" fill="#CBE4FC"/>
<path fill-rule="evenodd" clip-rule="evenodd" d="M453.6 166.799C463.8 145.499 483.8 118.199 491.9 109.499C498.6 102.299 506.5 96.6992 516.4 101.999C523.6 105.899 532.8 112.699 538.1 122.299C545.3 135.499 534.7 151.699 531 157.999C527.2 164.399 509.9 192.299 508.3 193.699C502.4 198.599 450.2 173.799 453.6 166.799Z" fill="#DEC0F1"/>
<path d="M512.625 187.125C512.625 187.125 527.55 167.325 534.25 151.625" stroke="#424D51" stroke-linecap="round" stroke-linejoin="round"/>
<path fill-rule="evenodd" clip-rule="evenodd" d="M504.3 243.4L531.4 215.5C531.4 215.5 515.6 202.4 507.8 196.4C507.8 196.4 510.1 191.6 509.9 191.4C502 186.3 455.6 165.2 454.2 165.4C447.7 166.3 414.4 211.6 414.4 211.6C414.4 211.6 452.7 235 452.5 233.6C452.3 232.2 465.9 214.3 466 213.4C466.1 213.2 504.3 243.4 504.3 243.4Z" fill="#FFB6A9"/>
<path d="M507.7 196.4L504.6 204.9" stroke="#424D51" stroke-linecap="round" stroke-linejoin="round"/>
<path fill-rule="evenodd" clip-rule="evenodd" d="M473.3 158.9C481.2 161.3 499.7 167 512.2 168.9C512.6 169 518.8 170.1 517.6 164.9C517.6 164.9 521 165.8 522.1 163.1C522.9 161 521.8 159.8 520.7 159C520.6 159 523 159.7 523.6 157.3C524.4 154.2 520.9 152.4 518.1 151.9C518 151.9 519.7 152.1 520.3 149.9C520.5 149.1 520 147.4 517.5 146.2C513.1 144 497.7 140.5 497.7 140.5C497.7 140.5 500.5 139.1 503.6 137.7C504.5 137.3 506.4 135.8 505.7 133.8C505 131.8 503.7 131.6 500.4 132.2C496.9 132.8 490 134 485.1 136.4C484.7 136.6 481 135.7 478.3 135.3C466.5 133.3 460.2 154.9 473.3 158.9Z" fill="#EFD9CE"/>
<path d="M497.4 140.5C495.3 140.1 494.7 139.9 491.1 139.6" stroke="#424D51" stroke-linecap="round" stroke-linejoin="round"/>
<path d="M500.699 147.1C500.699 147.1 514.999 151.1 518.399 152.1" stroke="#424D51" stroke-linecap="round" stroke-linejoin="round"/>
<path d="M499 152.301C499 152.301 511.3 155.301 516.8 157.001C518.2 157.401 519.9 158.201 521 159.201" stroke="#424D51" stroke-linecap="round" stroke-linejoin="round"/>
<path d="M496.9 157.699C496.9 157.699 510.3 161.099 513.7 162.199C514.5 162.499 516.5 163.199 517.3 164.599" stroke="#424D51" stroke-linecap="round" stroke-linejoin="round"/>
<path fill-rule="evenodd" clip-rule="evenodd" d="M468.499 158.4C468.299 158.8 471.399 159.8 473.099 158.7C474.799 157.5 480.899 136.5 479.399 135.2C477.899 133.9 475.399 133.4 475.399 133.4C475.399 133.4 468.699 158 468.499 158.4Z" fill="#EFD9CE"/>
<path fill-rule="evenodd" clip-rule="evenodd" d="M464.4 92.0999C488.3 91.3999 506.75 92.0998 521.125 105.125C529.925 124.325 508.4 126.7 492.6 129.9C481.6 129.5 473.6 129.9 473.6 129.9C473.6 129.9 478.9 129.7 477.5 134.7C476.2 139.3 474 161.9 466.7 161.7C453.8 161.2 425.7 154.4 414.5 148.9C405.6 144.6 399.9 137 399.6 126.7C399 104.4 417.8 93.5999 464.4 92.0999Z" fill="#DEC0F1"/>
<path d="M429.699 115.5C429.699 115.5 452.599 118.3 472.799 128.7C474.799 129.7 478.199 131.5 477.699 133.8" stroke="#424D51" stroke-linecap="round" stroke-linejoin="round"/>
<path d="M478.801 130.5C478.801 130.5 491.201 131.3 500.101 128.6" stroke="#424D51" stroke-linecap="round" stroke-linejoin="round"/>
<path d="M470.801 159.301C470.801 159.301 469.401 163.401 456.801 160.701" stroke="#424D51" stroke-linecap="round" stroke-linejoin="round"/>
<path fill-rule="evenodd" clip-rule="evenodd" d="M511.699 110.799C507.799 115.699 528.999 128.699 532.899 123.499C535.199 118.499 536.599 115.599 540.899 106.699C543.199 101.999 537.899 99.9994 535.299 98.5994C530.399 95.7994 525.999 100.299 525.999 100.299C525.999 100.299 514.399 108.899 511.699 110.799Z" fill="#EFD9CE"/>
<path fill-rule="evenodd" clip-rule="evenodd" d="M528.4 96.8004C527.4 98.4004 524 105.5 527.5 111.5C530.3 116.3 535.5 118 535.5 118C535.5 118 540.3 109.1 540.6 108.2C540.9 107.4 529.1 95.6004 528.4 96.8004Z" fill="#424D51"/>
<path fill-rule="evenodd" clip-rule="evenodd" d="M529.201 90.4001C529.201 90.4001 522.601 105 530.801 110.1C539.001 115.2 544.001 109 544.401 108.5C544.801 108.1 551.801 96.3 552.001 91.6C552.101 87 549.601 79.2 542.301 77.9C535.001 76.6 532.301 80.7 530.401 84.5C529.501 86.6 529.201 90.4001 529.201 90.4001Z" fill="#EFD9CE"/>
<path fill-rule="evenodd" clip-rule="evenodd" d="M532.301 88.3992C532.401 87.1992 530.101 80.1992 524.701 81.9992C521.201 83.1992 521.001 86.0992 521.701 88.0992C522.601 90.5992 524.601 92.2992 527.501 92.4992C530.401 92.6992 531.201 91.0992 531.601 90.6992C532.301 89.9992 532.201 89.2992 532.301 88.3992Z" fill="#EFD9CE"/>
<path fill-rule="evenodd" clip-rule="evenodd" d="M547.699 95.0993C548.499 94.1993 555.199 91.0993 557.599 96.1993C559.199 99.5993 557.099 101.699 555.199 102.599C552.799 103.699 550.199 103.299 547.999 101.399C545.899 99.4993 546.499 97.7993 546.499 97.1993C546.499 96.1993 547.099 95.7993 547.699 95.0993Z" fill="#EFD9CE"/>
<path fill-rule="evenodd" clip-rule="evenodd" d="M536.199 83.1992C536.199 83.1992 541.899 90.3992 550.499 89.2992C550.599 89.2992 549.899 93.0992 551.999 93.4992L557.099 83.6992C557.099 83.6992 558.199 80.7992 554.499 78.9992C551.599 77.5992 539.699 71.9992 539.699 71.9992C539.699 71.9992 536.299 70.4992 534.699 73.9992C533.099 77.4992 530.099 83.9992 530.699 84.1992C532.799 85.2992 536.199 83.1992 536.199 83.1992Z" fill="#F1D7AD"/>
<path fill-rule="evenodd" clip-rule="evenodd" d="M534.3 97.0001C534.4 97.1001 536.7 100 538.2 101.3C538.6 101.7 536.3 102.9 534.7 101.5C532.9 99.9001 533.7 96.6001 534.3 97.0001Z" fill="white"/>
<path d="M539.5 95.5C539.5 95.5 540.7 96.9 540 97.9C539.3 98.8 538.2 98.2 537.5 97.7" stroke="#424D51" stroke-width="0.729" stroke-linecap="round" stroke-linejoin="round"/>
<path d="M542.5 94.8006C542.5 94.8006 544.1 93.7006 545.7 94.2006C547.3 94.7006 547.6 95.9006 547.7 97.1006" stroke="#424D51" stroke-width="0.729" stroke-linecap="round" stroke-linejoin="round"/>
<path d="M545.101 94.4001C545.701 94.3001 546.301 94.7001 546.501 95.3001C546.601 95.9001 546.301 96.5001 545.601 96.7001C545.001 96.8001 544.401 96.5001 544.201 95.8001C544.101 95.1001 544.501 94.5001 545.101 94.4001Z" stroke="#424D51" stroke-width="0.729" stroke-linecap="round" stroke-linejoin="round"/>
<path d="M532.301 90.4002C532.301 90.4002 533.901 89.3002 535.501 89.8002C537.101 90.3002 537.401 91.5002 537.501 92.8002" stroke="#424D51" stroke-width="0.729" stroke-linecap="round" stroke-linejoin="round"/>
<path d="M534.9 89.9997C535.5 89.8997 536.1 90.2997 536.3 90.8997C536.4 91.4997 536.1 92.0997 535.4 92.2997C534.8 92.3997 534.2 92.0997 534 91.3997C533.9 90.7997 534.3 90.1997 534.9 89.9997Z" stroke="#424D51" stroke-width="0.729" stroke-linecap="round" stroke-linejoin="round"/>
<path d="M551.399 97.501C551.899 97.601 552.899 98.001 553.299 98.701M554.199 96.601C554.199 96.601 552.799 96.501 551.399 97.401L554.199 96.601ZM550.199 98.601C550.599 98.101 550.999 97.801 551.399 97.501L550.199 98.601Z" stroke="#424D51" stroke-width="0.729" stroke-linecap="round" stroke-linejoin="round"/>
<path d="M529.1 87.7992C528.7 87.5992 527.7 87.0992 526.9 87.1992M527.8 85.1992C527.8 85.1992 528.8 86.0992 529.1 87.7992L527.8 85.1992ZM529.2 89.3992C529.3 88.7992 529.2 88.1992 529.1 87.7992L529.2 89.3992Z" stroke="#424D51" stroke-width="0.729" stroke-linecap="round" stroke-linejoin="round"/>
<mask id="mask0_12_3980" style="mask-type:alpha" maskUnits="userSpaceOnUse" x="414" y="165" width="118" height="79">
<path fill-rule="evenodd" clip-rule="evenodd" d="M504.3 243.4L531.4 215.5C531.4 215.5 515.6 202.4 507.8 196.4C507.8 196.4 510.1 191.6 509.9 191.4C502 186.3 455.6 165.2 454.2 165.4C447.7 166.3 414.4 211.6 414.4 211.6C414.4 211.6 452.7 235 452.5 233.6C452.3 232.2 465.9 214.3 466 213.4C466.1 213.2 504.3 243.4 504.3 243.4Z" fill="#FFB6A9"/>
</mask>
<g mask="url(#mask0_12_3980)">
<path fill-rule="evenodd" clip-rule="evenodd" d="M589.58 153.919C584.181 156.531 577.296 156.053 568.914 151.864C567.069 150.943 565.653 149.205 564.486 147.185C563.309 145.148 562.298 142.667 561.342 140.065C560.876 138.798 560.423 137.503 559.968 136.205C558.523 132.078 557.064 127.914 555.157 124.481C552.665 119.995 549.671 117.242 545.396 117.358C540.916 117.479 534.546 120.719 525.332 129.813C516.195 138.831 511.411 146.852 509.509 153.905C507.616 160.929 508.552 167.092 511.043 172.489C511.587 173.668 512.205 174.81 512.884 175.917C518.228 171.424 526.043 167.688 537.296 164.672C540.747 163.748 543.661 163.694 546.055 164.413C548.475 165.14 550.261 166.627 551.468 168.577C553.833 172.395 553.937 177.887 552.784 183.014C551.623 188.176 549.113 193.324 545.81 196.572C544.153 198.202 542.23 199.417 540.115 199.836C537.963 200.263 535.738 199.839 533.588 198.413C527.542 194.403 518.509 188.295 512.419 179.928C512.322 180.028 512.226 180.129 512.131 180.229C507.351 185.318 505.539 191.269 505.074 198.206C504.779 202.608 505.557 206.126 506.903 208.892C508.378 207.688 509.8 206.737 511.163 206.008C515.902 203.475 519.999 203.616 522.918 205.369C525.782 207.089 527.294 210.252 527.044 213.263C526.785 216.368 524.667 219.177 520.639 220.097C519.201 220.425 517.277 220.224 515.299 219.575C513.288 218.915 511.096 217.752 509.097 216.008C508.096 215.134 507.146 214.118 506.294 212.951C503.546 215.617 500.551 219.281 497.368 224.207C491.433 233.392 484.714 238.12 478.062 239.66C471.418 241.197 465.048 239.505 459.903 236.249C456.173 233.888 453.042 230.679 450.871 227.199C450.03 226.879 449.185 226.551 448.339 226.223C444.673 224.8 440.976 223.365 437.435 222.546C432.277 221.353 428.118 221.643 425.347 224.778C422.454 228.05 420.673 234.803 421.572 247.722C422.464 260.529 425.434 269.383 429.547 275.42C433.643 281.432 438.93 284.736 444.647 286.361C445.865 286.707 447.103 286.978 448.352 287.181C448.509 280.246 450.691 272.025 455.815 261.349C457.362 258.128 459.219 255.882 461.324 254.534C463.452 253.171 465.743 252.785 468.009 253.138C472.446 253.831 476.681 257.329 479.821 261.543C482.982 265.786 485.253 271.044 485.566 275.665C485.724 277.985 485.393 280.235 484.334 282.113C483.256 284.024 481.485 285.436 479.003 286.139C471.989 288.124 461.404 291.017 451.041 290.15L451.044 290.198C451.046 290.224 451.048 290.249 451.05 290.275C451.559 297.246 454.37 302.763 458.112 308.783C460.54 312.688 464.664 314.387 469.075 314.683C468.928 312.623 468.964 310.859 469.155 309.357C469.445 307.066 470.107 305.292 471.115 304.01C472.143 302.704 473.468 301.993 474.896 301.746C477.647 301.271 480.647 302.526 482.855 304.017C483.987 304.782 484.994 305.664 485.744 306.537C486.444 307.353 487.098 308.366 487.17 309.382C487.249 310.486 486.666 311.45 485.988 312.183C485.286 312.942 484.31 313.645 483.186 314.267C480.932 315.516 477.868 316.554 474.576 317.046C473.734 317.172 472.868 317.263 471.989 317.311C472.464 320.794 473.412 325.111 474.984 330.423C478.088 340.909 477.299 349.087 474.135 355.137C470.974 361.179 465.541 364.911 459.719 366.694C453.914 368.472 447.63 368.344 442.618 366.579C437.623 364.821 433.631 361.313 433.063 356.195C432.037 346.964 435.119 338.483 438.793 331.803C441.612 326.677 444.868 322.476 446.921 319.828L446.922 319.826L446.923 319.825C447.531 319.04 448.033 318.392 448.387 317.897C449.091 316.911 449.904 315.178 450.3 313.213C450.697 311.248 450.648 309.207 449.83 307.501C449.037 305.85 447.434 304.328 444.323 303.508C441.165 302.676 436.483 302.583 429.692 303.877C424.395 304.886 420.057 306.48 416.592 308.366C416.993 309.335 417.346 310.277 417.653 311.19C419.377 316.32 419.69 320.704 418.583 323.943C418.023 325.583 417.093 326.938 415.799 327.904C414.505 328.869 412.924 329.389 411.148 329.482C407.646 329.667 404.957 328.312 403.652 325.793C402.389 323.356 402.609 320.18 404.068 317.041C405.626 313.688 408.652 310.213 413.25 307.291C410.17 300.708 404.85 292.816 396.798 284.096C395.974 285.426 395.052 286.689 394.028 287.877C395.917 289.674 397.372 291.888 398.424 294.433C400.845 300.292 401.107 307.828 399.875 315.966C398.639 324.129 395.879 333.026 392.117 341.695C384.611 358.988 372.996 375.636 361.164 383.786C355.244 387.864 349.076 389.942 343.263 388.626C337.414 387.3 332.33 382.631 328.391 374.13C327.524 372.259 327.5 370.017 327.848 367.71C328.199 365.384 328.957 362.814 329.832 360.184C330.258 358.903 330.711 357.609 331.165 356.311L331.166 356.31C332.61 352.182 334.067 348.018 334.718 344.145C335.568 339.084 334.945 335.065 331.531 332.489C327.954 329.789 320.953 328.349 308.08 329.71C295.313 331.06 286.571 334.346 280.685 338.672C274.824 342.981 271.711 348.383 270.292 354.155C269.982 355.415 269.753 356.694 269.593 357.983C276.573 357.803 285.012 359.758 295.688 364.42C298.963 365.85 301.274 367.625 302.696 369.681C304.134 371.758 304.603 374.034 304.331 376.311C303.798 380.771 300.453 385.128 296.354 388.417C292.228 391.727 287.054 394.186 282.447 394.665C280.134 394.905 277.874 394.655 275.959 393.663C274.011 392.655 272.536 390.936 271.745 388.481C269.521 381.575 266.27 371.166 266.728 360.828C266.59 360.845 266.452 360.864 266.315 360.884C259.404 361.88 254.277 365.401 249.586 370.534C246.61 373.79 245.024 377.026 244.351 380.027C246.255 380.006 247.96 380.149 249.479 380.43C254.763 381.406 257.878 384.072 259.066 387.263C260.232 390.393 259.441 393.809 257.368 396.006C255.229 398.271 251.821 399.146 248.099 397.353C246.77 396.712 245.391 395.355 244.25 393.614C243.09 391.843 242.103 389.567 241.628 386.958C241.39 385.65 241.282 384.263 241.343 382.82C237.533 383.19 232.906 384.185 227.346 386.05C216.977 389.528 208.776 389.033 202.617 386.087C196.465 383.145 192.541 377.849 190.551 372.095C188.566 366.357 188.468 360.073 190.053 355C191.631 349.945 194.994 345.831 200.088 345.079C209.277 343.724 217.862 346.5 224.67 349.932C229.894 352.566 234.209 355.669 236.929 357.626C237.736 358.206 238.402 358.685 238.911 359.022C239.921 359.69 241.682 360.44 243.66 360.766C245.638 361.092 247.676 360.97 249.351 360.091C250.973 359.24 252.437 357.584 253.145 354.445C253.863 351.259 253.788 346.577 252.252 339.837C251.054 334.579 249.306 330.301 247.296 326.906C246.342 327.341 245.413 327.728 244.512 328.067C239.447 329.974 235.077 330.444 231.801 329.454C230.142 328.953 228.754 328.072 227.742 326.813C226.732 325.555 226.156 323.993 225.999 322.222C225.689 318.728 226.947 315.993 229.417 314.598C231.807 313.249 234.989 313.355 238.178 314.7C241.585 316.138 245.166 319.037 248.251 323.528C254.72 320.213 262.415 314.615 270.842 306.255C263.456 302.038 257.97 294.878 255.499 283.923C252.349 269.96 254.113 261.018 258.7 256.328C263.249 251.675 270.067 251.684 276.059 254.424C276.448 253.138 277.082 251.914 277.995 250.794C283.864 243.594 292.074 239.851 299.415 237.793C305.048 236.213 310.326 235.593 313.654 235.202C314.641 235.086 315.457 234.99 316.059 234.896C317.256 234.707 319.061 234.073 320.741 232.98C322.421 231.886 323.844 230.421 324.487 228.642C325.11 226.919 325.074 224.709 323.479 221.915C321.86 219.078 318.646 215.673 312.965 211.733C308.534 208.661 304.357 206.682 300.583 205.531C300.173 206.496 299.748 207.408 299.311 208.267C296.859 213.091 293.95 216.386 290.864 217.865C289.301 218.615 287.682 218.901 286.086 218.654C284.492 218.407 283.013 217.643 281.702 216.441C279.117 214.071 278.2 211.204 279.083 208.508C279.937 205.899 282.357 203.831 285.619 202.672C289.103 201.435 293.703 201.16 299.009 202.393C301.548 195.583 303.452 186.259 304.034 174.403C295.736 176.272 286.857 174.689 277.642 168.269C265.897 160.087 261.167 152.296 261.389 145.739C261.614 139.093 266.87 134.442 273.333 132.495C279.826 130.538 287.901 131.156 294.505 135.302C301.166 139.485 306.191 147.168 306.681 159.035C306.854 163.2 306.884 167.149 306.789 170.882C313.72 168.444 320.211 163.424 326.118 156.878C339.291 142.28 349.184 120.51 354.248 104.871L354.273 104.796L354.306 104.725C359.94 92.5329 365.901 84.8785 371.995 80.9504C378.18 76.9639 384.411 76.8772 390.237 79.6094C395.976 82.3009 401.254 87.6875 405.834 94.5261C410.428 101.385 414.393 109.815 417.464 118.752C421.998 131.948 424.631 146.402 424.381 158.698C426.409 159.525 428.441 160.427 430.464 161.395C446.486 169.065 462.166 181.034 470.633 193.454C471.56 194.813 472.404 196.184 473.154 197.561C478.725 196.432 483.862 196.175 487.129 196.012C488.122 195.962 488.942 195.921 489.549 195.867C490.756 195.759 492.6 195.247 494.349 194.268C496.099 193.29 497.616 191.923 498.377 190.191C499.114 188.514 499.225 186.306 497.821 183.411C496.395 180.473 493.416 176.86 488.011 172.55C483.796 169.187 479.761 166.934 476.072 165.533C475.598 166.469 475.113 167.35 474.62 168.178C471.851 172.827 468.728 175.92 465.55 177.19C463.94 177.833 462.306 178.01 460.73 177.657C459.156 177.304 457.731 176.443 456.504 175.156C454.082 172.619 453.359 169.696 454.42 167.065C455.447 164.519 458 162.618 461.332 161.68C464.892 160.679 469.499 160.712 474.711 162.297C477.7 155.672 480.224 146.496 481.596 134.706C473.192 136.016 464.439 133.842 455.674 126.82C444.503 117.871 440.304 109.781 440.964 103.254C441.633 96.638 447.188 92.3488 453.767 90.8381C460.376 89.3201 468.392 90.4764 474.704 95.0553C481.071 99.6741 485.57 107.676 485.266 119.549C485.159 123.716 484.925 127.659 484.581 131.377C491.659 129.408 498.472 124.833 504.803 118.697C518.923 105.013 530.25 83.9529 536.349 68.687L536.378 68.614L536.415 68.5449C542.852 56.7573 549.312 49.5188 555.656 46.0069C562.093 42.443 568.316 42.7732 573.946 45.8889C579.492 48.9581 584.398 54.6856 588.51 61.8152C592.635 68.9662 596.028 77.6417 598.494 86.7647C603.414 104.963 604.718 125.22 600.553 138.97C598.47 145.85 594.945 151.323 589.58 153.919ZM275.592 257.109C275.5 257.063 275.407 257.018 275.315 256.974C269.794 254.322 264.138 254.52 260.576 258.162C256.951 261.869 254.965 269.635 258.058 283.346C260.454 293.967 265.768 300.551 272.759 304.318C275.492 301.507 278.297 298.409 281.156 295.009C286.578 288.559 288.573 282.295 288.419 276.741C283.435 273.833 279.424 269.469 277.28 264.887C276.091 262.347 275.45 259.664 275.592 257.109ZM288.061 273.407C284.298 270.812 281.319 267.328 279.656 263.774C278.834 262.017 278.349 260.288 278.227 258.659C282.508 261.582 286.134 266.155 287.657 271.663C287.814 272.233 287.95 272.815 288.061 273.407ZM290.95 275.137C290.818 273.705 290.558 272.311 290.186 270.964C288.336 264.274 283.741 258.861 278.441 255.682C278.722 254.499 279.247 253.41 280.029 252.451C285.419 245.838 293.047 242.304 300.123 240.319C305.524 238.805 310.449 238.224 313.795 237.83C314.856 237.705 315.758 237.599 316.466 237.488C318.056 237.237 320.207 236.458 322.173 235.179C324.138 233.899 326.051 232.032 326.955 229.534C327.878 226.98 327.673 223.969 325.758 220.614C323.867 217.302 320.303 213.629 314.46 209.577C309.921 206.43 305.566 204.336 301.551 203.085C304.227 195.814 306.16 186.002 306.694 173.681C314.569 171.177 321.739 165.647 328.066 158.636C341.567 143.675 351.594 121.56 356.72 105.754C362.256 93.7964 367.942 86.6853 373.417 83.1558C378.813 79.6776 384.084 79.6217 389.123 81.9851C394.249 84.3892 399.2 89.3365 403.654 95.9862C408.094 102.615 411.967 110.829 414.983 119.605C419.342 132.292 421.86 146.013 421.772 157.675C416.643 155.745 411.581 154.321 406.808 153.538C399.369 152.318 392.491 152.634 387.16 155.177C384.506 156.444 382.276 158.243 380.569 160.611C380.051 159.653 379.513 158.729 378.949 157.857C375.983 153.269 372.024 149.674 366.284 150.215C360.747 150.737 354.021 155.105 345.38 164.857C336.669 174.688 332.139 183.42 330.595 191.181C329.044 198.972 330.524 205.681 333.637 211.389C334.39 212.77 335.239 214.092 336.163 215.357C335.941 215.609 335.726 215.863 335.516 216.118C330.58 222.132 329.081 228.855 329.081 236.192C329.081 241.4 330.376 245.504 332.336 248.653C329.484 251.734 326.502 255.897 323.461 261.376C318.393 270.506 312.485 275.113 306.765 276.847C301.239 278.522 295.699 277.575 290.95 275.137ZM291.04 278.091C290.857 283.944 288.532 290.313 283.164 296.697C280.481 299.888 277.84 302.824 275.252 305.515C282.012 308.391 290.191 309.064 298.967 308.217C314.752 306.693 332.111 300.286 345.733 293.599C341.934 288.831 342.426 282.276 345.385 276.64C348.539 270.636 354.637 265.307 362.222 263.5C369.874 261.677 378.876 263.475 387.688 271.439C390.78 274.234 393.619 276.98 396.216 279.662C399.332 273.009 400.298 264.86 399.766 256.059C398.579 236.432 389.977 214.121 382.365 199.55L382.329 199.48L382.301 199.407C377.551 186.851 376.024 177.154 377.05 169.906C377.404 167.402 378.063 165.192 378.994 163.264C378.287 161.858 377.545 160.517 376.746 159.282C373.96 154.973 370.788 152.426 366.53 152.827C362.068 153.248 355.929 156.907 347.344 166.597C338.831 176.206 334.594 184.528 333.168 191.693C331.748 198.827 333.095 204.915 335.941 210.133C336.562 211.273 337.255 212.371 338.007 213.43C343.038 208.589 350.587 204.339 361.612 200.578C364.994 199.424 367.898 199.176 370.335 199.734C372.798 200.297 374.679 201.661 376.014 203.526C378.629 207.177 379.1 212.65 378.292 217.843C377.48 223.071 375.319 228.375 372.241 231.837C370.696 233.574 368.859 234.914 366.777 235.474C364.658 236.044 362.41 235.77 360.17 234.491C353.869 230.894 344.448 225.404 337.811 217.463C337.721 217.569 337.632 217.676 337.544 217.783C333.115 223.18 331.705 229.239 331.705 236.192C331.705 240.603 332.717 244.062 334.244 246.731C335.636 245.431 336.992 244.387 338.302 243.569C342.861 240.725 346.959 240.591 349.989 242.145C352.961 243.67 354.681 246.724 354.633 249.745C354.582 252.861 352.657 255.805 348.7 256.992C347.286 257.416 345.353 257.344 343.336 256.828C341.286 256.304 339.021 255.291 336.91 253.684C335.852 252.88 334.837 251.929 333.908 250.822C331.346 253.666 328.601 257.522 325.755 262.649C320.447 272.211 314.06 277.378 307.526 279.358C301.739 281.113 295.997 280.319 291.04 278.091ZM347.679 295.564C333.758 302.481 315.723 309.235 299.219 310.829C289.819 311.736 280.795 310.981 273.293 307.517C264.587 316.251 256.541 322.191 249.661 325.753C251.781 329.384 253.583 333.868 254.811 339.254C256.39 346.186 256.543 351.302 255.704 355.022C254.855 358.791 252.975 361.152 250.571 362.414C248.219 363.649 245.547 363.737 243.233 363.355C240.919 362.974 238.805 362.098 237.463 361.21C236.865 360.815 236.128 360.285 235.261 359.662C232.525 357.695 228.497 354.801 223.489 352.275C216.926 348.966 208.911 346.43 200.471 347.675C196.75 348.224 193.969 351.263 192.557 355.782C191.151 360.284 191.217 365.993 193.031 371.237C194.839 376.465 198.35 381.138 203.749 383.72C209.142 386.299 216.61 386.883 226.511 383.563C232.452 381.57 237.462 380.509 241.646 380.158C242.323 376.511 244.136 372.608 247.649 368.764C252.599 363.348 258.24 359.397 265.941 358.287C266.268 358.24 266.598 358.198 266.932 358.161C267.103 356.604 267.368 355.056 267.744 353.528C269.297 347.214 272.731 341.263 279.131 336.558C285.507 331.871 294.741 328.482 307.804 327.101C320.76 325.731 328.673 327.045 333.112 330.394C337.714 333.867 338.211 339.192 337.306 344.58C336.614 348.696 335.049 353.167 333.588 357.337L333.587 357.34C333.147 358.598 332.716 359.828 332.322 361.012C331.455 363.617 330.758 366.009 330.443 368.101C330.124 370.212 330.224 371.844 330.772 373.027C334.52 381.116 339.082 384.988 343.843 386.067C348.642 387.154 354.049 385.5 359.676 381.625C370.938 373.867 382.301 357.72 389.71 340.65C393.404 332.138 396.086 323.462 397.28 315.573C398.479 307.66 398.161 300.668 395.999 295.436C395.088 293.231 393.847 291.326 392.227 289.785C387.809 294.06 381.809 297.146 373.931 298.629C361.027 301.058 352.493 299.506 347.679 295.564ZM390.146 288.143C386.139 291.917 380.694 294.686 373.445 296.051C361.741 298.254 354.432 296.965 350.3 294.236C352.324 293.189 354.246 292.145 356.045 291.123C368.198 286.03 377.193 284.616 383.616 285.704C386.17 286.137 388.334 286.968 390.146 288.143ZM391.991 286.221C389.802 284.708 387.167 283.645 384.054 283.117C376.905 281.906 367.341 283.534 354.957 288.733L354.885 288.764L354.817 288.803C352.745 289.981 350.511 291.187 348.146 292.392C344.857 288.699 344.922 283.166 347.708 277.86C350.541 272.467 356.046 267.669 362.83 266.053C369.549 264.452 377.684 265.934 385.928 273.386C389.224 276.365 392.22 279.278 394.931 282.11C394.079 283.565 393.102 284.939 391.991 286.221ZM461.307 234.031C458.997 232.569 456.948 230.755 455.26 228.764C457.178 229.382 459.033 229.861 460.742 230.057C462.989 230.315 465.177 230.108 466.933 228.881C473.607 224.219 476.782 218.509 477.084 212.276C477.279 208.257 476.276 204.114 474.379 199.994C479.431 199.03 483.954 198.802 487.095 198.644L487.098 198.643C488.163 198.59 489.069 198.544 489.783 198.48C491.386 198.337 493.584 197.703 495.63 196.558C497.677 195.413 499.711 193.678 500.779 191.246C501.872 188.759 501.868 185.742 500.181 182.266C498.516 178.834 495.206 174.932 489.647 170.498C485.329 167.054 481.123 164.674 477.201 163.158C480.358 156.081 482.942 146.421 484.299 134.163C492.323 132.192 499.848 127.153 506.629 120.581C521.1 106.556 532.584 85.1611 538.756 69.7338C545.079 58.1729 551.227 51.4579 556.926 48.3025C562.543 45.1929 567.806 45.4896 572.676 48.1847C577.63 50.9263 582.239 56.1936 586.238 63.1262C590.224 70.0374 593.54 78.4916 595.961 87.4495C600.817 105.412 602.007 125.121 598.042 138.21C596.062 144.749 592.866 149.414 588.437 151.557C584.043 153.683 578.062 153.503 570.087 149.517C568.921 148.934 567.826 147.721 566.758 145.873C565.699 144.041 564.752 141.736 563.805 139.16C563.374 137.987 562.943 136.756 562.503 135.498L562.502 135.497L562.502 135.494C561.042 131.324 559.477 126.855 557.451 123.207C554.798 118.431 551.089 114.579 545.325 114.735C539.766 114.885 532.762 118.793 523.489 127.945C514.14 137.173 509.036 145.582 506.976 153.222C504.908 160.892 505.935 167.685 508.66 173.589C509.319 175.017 510.078 176.392 510.915 177.716C510.677 177.953 510.445 178.192 510.219 178.433C504.892 184.103 502.947 190.71 502.456 198.031C502.108 203.227 503.125 207.409 504.87 210.682C501.818 213.566 498.565 217.52 495.164 222.783C489.496 231.554 483.294 235.755 477.471 237.103C471.639 238.453 465.981 236.99 461.307 234.031ZM474.463 212.149C474.642 208.479 473.672 204.568 471.744 200.557C464.988 202.164 457.833 205.179 452.426 210.974C449.86 213.724 449.581 217.834 451.297 222.247C451.663 223.19 452.118 224.134 452.651 225.065C453.205 225.272 453.75 225.472 454.282 225.661C456.814 226.559 459.094 227.226 461.042 227.45C462.998 227.675 464.428 227.431 465.431 226.73C471.549 222.456 474.206 217.445 474.463 212.149ZM450.507 209.184C456.211 203.071 463.621 199.88 470.487 198.163C469.877 197.09 469.201 196.013 468.465 194.932C460.338 183.01 445.084 171.303 429.331 163.762C427.645 162.955 425.956 162.197 424.272 161.492C424.081 164.768 423.667 167.862 423.01 170.703C421.391 177.707 418.24 183.403 413.061 186.352C407.849 189.32 400.946 189.303 392.303 185.684C390.401 184.888 388.871 183.249 387.572 181.312C386.262 179.358 385.088 176.949 383.959 174.417C383.41 173.184 382.871 171.923 382.331 170.658C381.733 169.261 381.134 167.858 380.517 166.485C380.134 167.641 379.842 168.902 379.648 170.273C378.713 176.881 380.07 186.071 384.727 198.405C392.413 213.137 401.169 235.786 402.385 255.901C402.955 265.327 401.877 274.318 398.146 281.691C406.564 290.705 412.211 298.958 415.525 305.962C419.23 303.973 423.775 302.333 429.201 301.299C436.186 299.969 441.303 299.999 444.992 300.971C448.728 301.955 451.02 303.917 452.195 306.366C453.344 308.76 453.337 311.434 452.872 313.733C452.408 316.032 451.458 318.112 450.522 319.422C450.106 320.005 449.55 320.722 448.897 321.566L448.895 321.568C446.832 324.232 443.795 328.153 441.092 333.067C437.55 339.507 434.729 347.426 435.671 355.906C436.086 359.644 439.024 362.532 443.489 364.104C447.937 365.671 453.645 365.81 458.951 364.185C464.24 362.565 469.036 359.224 471.81 353.92C474.58 348.624 475.432 341.181 472.468 331.168C470.831 325.637 469.83 321.07 469.343 317.322C464.202 317.072 458.993 315.17 455.884 310.168C452.082 304.053 448.99 298.09 448.433 290.466C448.418 290.259 448.405 290.051 448.393 289.842C446.89 289.617 445.398 289.303 443.93 288.885C437.676 287.107 431.852 283.462 427.379 276.898C422.923 270.358 419.867 261.008 418.954 247.904C418.05 234.912 419.727 227.173 423.381 223.04C427.156 218.77 432.633 218.742 438.026 219.989C441.598 220.815 445.427 222.277 449.045 223.68C448.979 223.519 448.914 223.358 448.851 223.197C446.933 218.262 446.994 212.949 450.507 209.184ZM481.887 131.996C482.27 128.094 482.529 123.923 482.643 119.482C482.927 108.373 478.753 101.235 473.163 97.1792C467.517 93.0838 460.291 92.0319 454.354 93.3955C448.385 94.7663 444.087 98.4487 443.575 103.518C443.053 108.676 446.345 115.985 457.315 124.772C465.812 131.58 474.072 133.412 481.887 131.996ZM473.555 164.691C468.926 163.351 464.962 163.385 462.043 164.206C459.195 165.007 457.477 166.502 456.854 168.046C456.265 169.506 456.515 171.367 458.402 173.345C459.329 174.316 460.311 174.874 461.304 175.096C462.296 175.319 463.389 175.227 464.576 174.753C466.991 173.789 469.734 171.252 472.366 166.835C472.768 166.161 473.164 165.446 473.555 164.691ZM508.252 211.18C509.033 212.288 509.908 213.233 510.822 214.031C512.546 215.534 514.426 216.526 516.117 217.082C517.841 217.648 519.25 217.722 520.055 217.538C523.006 216.865 524.268 214.973 524.429 213.045C524.597 211.023 523.568 208.82 521.567 207.619C519.622 206.451 516.532 206.114 512.4 208.323C511.107 209.013 509.721 209.951 508.252 211.18ZM514.346 178.118C520.08 186.138 528.837 192.113 535.039 196.227C536.653 197.297 538.178 197.545 539.605 197.262C541.068 196.972 542.552 196.096 543.97 194.701C546.821 191.898 549.141 187.253 550.224 182.438C551.314 177.589 551.073 172.922 549.237 169.958C548.345 168.517 547.066 167.457 545.3 166.926C543.507 166.388 541.113 166.366 537.975 167.207C526.739 170.218 519.278 173.889 514.346 178.118ZM381.938 163.313C383.477 160.684 385.649 158.806 388.29 157.546C392.938 155.328 399.202 154.95 406.383 156.127C411.222 156.921 416.414 158.411 421.699 160.456C421.541 163.921 421.134 167.169 420.453 170.112C418.914 176.769 416.038 181.637 411.762 184.072C407.52 186.487 401.541 186.707 393.317 183.264C392.114 182.76 390.94 181.623 389.751 179.85C388.573 178.093 387.473 175.856 386.356 173.349C385.848 172.208 385.335 171.008 384.812 169.782C383.902 167.651 382.957 165.44 381.938 163.313ZM304.06 159.144C304.243 163.583 304.263 167.761 304.142 171.68C296.44 173.615 288.076 172.34 279.142 166.116C267.609 158.082 263.836 151.009 264.011 145.828C264.184 140.736 268.226 136.774 274.09 135.007C279.923 133.25 287.203 133.816 293.11 137.525C298.959 141.197 303.601 148.04 304.06 159.144ZM286.497 205.145C289.355 204.13 293.307 203.832 298.016 204.859C297.676 205.639 297.328 206.378 296.972 207.078C294.642 211.661 292.074 214.375 289.73 215.499C288.577 216.052 287.492 216.216 286.488 216.06C285.482 215.905 284.465 215.414 283.475 214.507C281.46 212.66 281.087 210.819 281.576 209.324C282.094 207.741 283.708 206.135 286.497 205.145ZM338.499 251.596C337.533 250.861 336.597 249.977 335.744 248.924C337.127 247.599 338.447 246.571 339.691 245.795C343.667 243.315 346.772 243.445 348.791 244.48C350.868 245.545 352.042 247.674 352.009 249.703C351.978 251.637 350.845 253.609 347.946 254.479C347.155 254.716 345.744 254.736 343.986 254.286C342.261 253.845 340.319 252.981 338.499 251.596ZM361.47 232.212C355.007 228.523 345.871 223.146 339.613 215.528C344.252 210.978 351.45 206.817 362.46 203.061C365.534 202.013 367.925 201.874 369.749 202.292C371.547 202.703 372.894 203.675 373.881 205.054C375.91 207.888 376.463 212.529 375.7 217.44C374.942 222.316 372.937 227.106 370.28 230.093C368.958 231.58 367.536 232.553 366.095 232.94C364.691 233.318 363.152 233.173 361.47 232.212ZM406.447 318.147C407.726 315.397 410.282 312.368 414.314 309.727C414.632 310.516 414.916 311.282 415.166 312.026C416.804 316.9 416.941 320.634 416.1 323.094C415.687 324.304 415.044 325.193 414.229 325.801C413.414 326.41 412.351 326.792 411.01 326.862C408.281 327.006 406.706 325.983 405.982 324.586C405.215 323.107 405.2 320.83 406.447 318.147ZM474.188 314.451C473.367 314.574 472.536 314.659 471.707 314.701C471.553 312.707 471.585 311.05 471.758 309.687C472.01 307.699 472.553 306.426 473.177 305.633C473.781 304.865 474.517 304.474 475.343 304.332C477.102 304.028 479.391 304.844 481.386 306.191C482.355 306.846 483.178 307.576 483.752 308.246C484.377 308.974 484.543 309.437 484.553 309.569C484.556 309.614 484.535 309.89 484.062 310.401C483.613 310.886 482.893 311.43 481.915 311.972C479.968 313.05 477.21 314 474.188 314.451ZM478.288 283.614C471.103 285.647 460.821 288.411 450.971 287.512C451.064 281.029 453.079 273.115 458.181 262.485C459.587 259.556 461.163 257.753 462.739 256.744C464.292 255.749 465.929 255.469 467.604 255.731C471.049 256.268 474.747 259.125 477.717 263.111C480.665 267.068 482.678 271.854 482.948 275.843C483.083 277.828 482.781 279.524 482.048 280.824C481.334 282.09 480.152 283.086 478.288 283.614ZM237.158 317.118C239.953 318.297 243.071 320.743 245.855 324.678C245.078 325.024 244.322 325.335 243.588 325.611C238.775 327.423 235.049 327.694 232.56 326.942C231.337 326.573 230.425 325.962 229.788 325.169C229.151 324.376 228.731 323.328 228.612 321.99C228.371 319.268 229.337 317.657 230.707 316.883C232.157 316.065 234.432 315.968 237.158 317.118ZM244.209 386.488C243.992 385.294 243.898 384.01 243.978 382.657C245.893 382.612 247.561 382.744 249.003 383.01C253.61 383.861 255.815 386.052 256.607 388.178C257.422 390.365 256.853 392.729 255.46 394.204C254.132 395.611 251.965 396.303 249.238 394.989C248.494 394.63 247.44 393.693 246.445 392.175C245.469 390.686 244.619 388.738 244.209 386.488ZM274.243 387.676C271.961 380.592 268.844 370.46 269.364 360.615C275.857 360.386 283.978 362.17 294.638 366.825C297.615 368.124 299.473 369.635 300.539 371.174C301.588 372.691 301.926 374.316 301.725 376C301.311 379.461 298.589 383.26 294.712 386.37C290.863 389.458 286.152 391.641 282.176 392.055C280.197 392.26 278.491 392.019 277.166 391.333C275.875 390.665 274.837 389.519 274.243 387.676Z" fill="white"/>
</g>
<path d="M288.686 345.19C278.262 348.665 267.029 364.856 262.625 372.88H180.276C173.761 359.487 155.844 362.745 153.31 364.555C150.776 366.365 134.847 366.909 145.347 354.601C158.388 339.315 181.122 347.663 189.688 352.61C189.507 350.498 186.756 344.248 177.2 336.14C167.2 327.656 173.599 321.22 184.259 325.462C193.923 329.309 203.624 346.275 203.624 346.275C203.624 346.275 208.184 315.808 217.922 302.477C227.242 289.719 234.391 299.22 230.771 308.631C227.651 316.743 225.463 329.263 225.523 334.874C232.34 326.066 250.781 308.794 268.416 303.744C287.691 298.224 290.858 312.013 279.637 315.689C268.416 319.365 243.738 351.115 243.738 351.115C243.738 351.115 264.738 336.14 286.696 341.751C290.514 342.726 291.265 344.33 288.686 345.19Z" fill="#ECECEC"/>
<path d="M125.094 379.473H57.8925C45.4548 349.621 74.3249 352.873 81.5611 359.94C75.1928 351.593 75.1686 328.012 88.7087 322.667C112.732 313.184 122.248 355.092 125.094 379.473Z" fill="#F8F8F8"/>
<path d="M186.5 164.801C188.5 158.401 190.4 152.101 192.2 145.601C195.6 134.001 199 122.401 202 110.701C205.1 98.6009 217 98.4009 227.3 98.5009C243.2 98.7009 259 99.5009 274.9 101.301C303.9 104.601 294.8 135.301 269 133.401C254.9 132.401 227 129.401 227 129.401C222.3 140.701 217.5 152.001 213 163.301C211.8 166.201 210.6 169.001 209.7 172.001C209.3 173.301 207.8 177.001 208.3 178.301C210.5 183.201 211.3 190.101 211.7 193.701V193.801C212.1 197.201 211.8 198.401 209.8 199.001C207.8 199.601 206.4 197.601 206 196.701C204.8 193.601 203.6 190.701 203.6 190.701C203.6 190.701 199.3 205.901 196.9 210.201C195.5 212.601 193.8 213.101 193 212.801C190.9 212.101 191.1 210.601 191.1 210.501C190.4 213.201 188.5 216.601 185.4 215.701C183.2 215.001 183.8 213.001 183.8 212.701C183 213.701 181.7 214.801 179.6 213.801C177 212.601 178 209.301 178 209.301C173 210.201 174.1 204.501 174.3 203.801C174.3 203.801 174.3 203.801 174.3 203.701C176.3 193.801 179.7 184.201 183.1 174.701C184.3 171.401 185.4 168.101 186.5 164.801Z" fill="#EFBEA9"/>
<path d="M239.699 131.801L244.299 98.3008L274.899 100.701L302.399 116.501L256.899 133.301L239.699 131.801Z" fill="#FFDBD5"/>
<path d="M203.377 190.126C202.143 186.638 199.443 186.664 198.03 185.378C194.514 182.654 195.761 178.3 197.844 176.58" stroke="#424D51" stroke-linecap="round" stroke-linejoin="round"/>
<path d="M196.701 193.6C196.701 193.6 192.001 207.6 190.801 211" stroke="#424D51" stroke-linecap="round" stroke-linejoin="round"/>
<path d="M191.6 191.5C191.6 191.5 188 203.6 186 209C185.5 210.4 184.7 212 183.6 213" stroke="#424D51" stroke-linecap="round" stroke-linejoin="round"/>
<path d="M186.4 189.199C186.4 189.199 182.4 202.399 181.1 205.799C180.8 206.499 179.9 208.499 178.6 209.299" stroke="#424D51" stroke-linecap="round" stroke-linejoin="round"/>
<path fill-rule="evenodd" clip-rule="evenodd" d="M247.199 169.9C247.199 169.9 252.699 100.1 282.699 99.9004C310.699 103.9 308.599 132.8 306.399 139.9C304.099 147 295.499 175.4 295.499 175.4C295.499 175.4 251.199 184.2 247.199 169.9Z" fill="#FFDBD5"/>
<path d="M220.301 217.9C220.301 217.9 244.101 181 246.301 178.8C246.701 178.4 247.201 177.8 247.801 177C250.801 173.3 256.401 166.4 264.201 168C269.101 169 275.301 170.3 281.101 171.6C286.701 172.8 291.901 173.9 295.301 174.6C297.301 175 295.301 181.7 293.501 186.8C293.601 186.9 293.701 187 293.701 187C293.701 187 293.501 187.2 293.301 187.6C292.901 188.7 292.501 189.7 292.201 190.5C291.901 191.2 291.801 191.7 291.701 192C291.001 194.2 252.301 242.5 252.301 242.5C246.101 250.7 240.501 258.1 236.801 263C231.201 270.2 224.801 275.7 215.001 273.5C207.001 271.7 118.801 243.9 118.801 243.9L134.101 212.8C134.101 212.8 198.301 230.4 209.101 233.6C210.201 233.9 213.601 228.6 217.701 222.1C218.501 220.8 219.401 219.4 220.301 217.9Z" fill="#EA7A79"/>
<path fill-rule="evenodd" clip-rule="evenodd" d="M160 219.6L147.9 254.9L113.5 243.4L124 209.4L160 219.6Z" fill="#FFDBD5"/>
<path fill-rule="evenodd" clip-rule="evenodd" d="M132.9 215.601C132.9 215.601 134.5 212.501 132.3 210.601C130.8 209.401 129.3 209.801 128.1 210.301C128.1 210.301 128.1 208.401 126.6 205.901C125.1 203.401 122.2 199.101 118.9 198.601C117.4 198.401 100.3 229.601 100.3 229.601L80.5996 261.201C80.5996 261.201 87.6996 263.701 93.9996 257.501C99.6996 252.001 100.6 250.501 103 247.501C104.5 245.601 106.3 244.401 108.5 244.601C111.7 244.801 113.6 244.101 116.3 242.001C120.6 238.901 131 220.401 132.9 215.601Z" fill="#FFB6A9"/>
<path fill-rule="evenodd" clip-rule="evenodd" d="M118.799 198.5C120.299 198.2 125.799 210.3 122.299 217.6C119.099 224.4 110.699 225.5 107.199 229.2C104.899 231.6 102.299 235.8 100.099 239.5C99.0992 241.1 86.5992 261.6 86.5992 261.6C86.5992 261.6 80.0992 264.3 79.4992 260.9C79.0992 258.9 117.399 198.8 118.799 198.5Z" fill="#D9A48A"/>
<path fill-rule="evenodd" clip-rule="evenodd" d="M292.999 75.4989C292.999 75.4989 306.999 72.8989 304.299 64.4989C301.199 54.5989 292.899 54.5989 289.499 55.3989C287.099 55.8989 285.899 57.1989 285.899 57.1989C285.899 57.1989 282.699 55.5989 276.699 56.8989C270.699 58.1989 264.599 63.0989 261.999 71.6989C260.099 77.8989 258.599 85.0989 265.399 91.9989C269.899 96.5989 280.599 97.6989 282.799 90.8989C284.899 83.9989 292.999 75.4989 292.999 75.4989Z" fill="#AF836B"/>
<path fill-rule="evenodd" clip-rule="evenodd" d="M295.899 105.799C296.999 100.899 297.799 94.0993 298.099 90.9993C298.099 90.6993 298.199 90.3993 298.199 90.1993C298.199 90.0993 298.199 89.8993 298.199 89.7993C298.799 84.8993 299.099 82.2993 292.599 79.8993C283.299 76.4993 284.099 86.8993 284.099 86.8993C284.099 86.8993 279.099 92.4993 275.899 97.0993C273.099 100.299 267.299 108.799 269.599 108.499C270.899 108.299 272.099 107.999 273.399 107.799C278.799 106.699 284.199 105.599 292.699 108.799C300.499 111.699 299.999 110.199 298.799 108.599C298.299 107.799 297.299 106.799 295.899 105.799Z" fill="#EFBEA9"/>
<path fill-rule="evenodd" clip-rule="evenodd" d="M287.799 84.599C287.799 84.599 300.599 94.199 307.399 87.299C314.199 80.399 309.199 74.099 308.799 73.599C308.499 73.099 298.499 63.699 293.999 62.599C289.499 61.499 281.399 62.299 278.499 69.099C275.599 75.899 278.999 79.399 282.399 82.099C284.099 83.499 287.799 84.599 287.799 84.599Z" fill="#EFBEA9"/>
<path fill-rule="evenodd" clip-rule="evenodd" d="M280.099 80.8991C280.899 81.0991 287.699 76.9991 287.899 71.3991C287.899 71.2991 302.699 65.1991 294.399 60.3991C294.399 60.3991 286.999 56.8991 279.399 65.7991C272.999 73.2991 279.599 80.6991 280.099 80.8991Z" fill="#AF836B"/>
<path fill-rule="evenodd" clip-rule="evenodd" d="M285.499 78.1993C284.599 78.1993 276.499 78.0993 277.099 83.6993C277.699 89.2993 283.999 87.8993 284.599 87.3993C286.099 86.2993 287.199 85.3993 287.699 83.4993C288.599 80.2993 287.199 78.2993 285.499 78.1993Z" fill="#EFBEA9"/>
<path d="M296.599 80.8989C300.199 82.6989 301.799 78.8989 301.799 78.8989" stroke="#424D51" stroke-width="0.729" stroke-linecap="round" stroke-linejoin="round"/>
<path d="M296.499 75.1993C296.499 75.1993 298.199 74.4993 298.899 75.3993C299.599 76.3993 298.599 77.1993 297.999 77.6993" stroke="#424D51" stroke-width="0.729" stroke-linecap="round" stroke-linejoin="round"/>
<path d="M295.999 72.4989C295.999 72.4989 295.399 70.5989 296.399 69.2989C297.399 67.8989 298.599 67.8989 299.799 68.1989" stroke="#424D51" stroke-width="0.729" stroke-linecap="round" stroke-linejoin="round"/>
<path d="M296.4 69.899C296.5 69.299 297 68.799 297.6 68.899C298.2 68.999 298.7 69.499 298.6 70.099C298.5 70.699 298 71.199 297.4 71.099C296.8 71.099 296.3 70.499 296.4 69.899Z" stroke="#424D51" stroke-width="0.729" stroke-linecap="round" stroke-linejoin="round"/>
<path d="M289.499 80.599C289.499 80.599 288.899 78.699 289.899 77.399C290.899 75.999 292.099 75.999 293.299 76.299" stroke="#424D51" stroke-width="0.729" stroke-linecap="round" stroke-linejoin="round"/>
<path d="M289.9 77.899C290 77.299 290.5 76.799 291.1 76.899C291.7 76.999 292.2 77.499 292.1 78.099C292 78.699 291.5 79.199 290.9 79.199C290.3 79.099 289.8 78.599 289.9 77.899Z" stroke="#424D51" stroke-width="0.729" stroke-linecap="round" stroke-linejoin="round"/>
<path fill-rule="evenodd" clip-rule="evenodd" d="M298.199 89.4993C298.199 89.4993 294.699 88.2993 291.999 86.0993C289.099 83.6993 297.599 94.6993 297.599 94.6993L298.199 89.4993Z" fill="#424D51"/>
<path d="M283.899 82.0992C283.499 82.3992 282.799 83.1992 282.599 83.9992M280.999 82.4992C280.999 82.4992 282.199 81.7992 283.899 82.0992L280.999 82.4992ZM285.499 82.5992C284.899 82.2992 284.399 82.1992 283.899 82.0992L285.499 82.5992Z" stroke="#424D51" stroke-width="0.729" stroke-linecap="round" stroke-linejoin="round"/>
<path fill-rule="evenodd" clip-rule="evenodd" d="M270.601 112.101C264.801 117.301 262.301 127.901 268.301 137.801C274.901 148.801 283.001 160.601 288.401 167.301C288.801 167.801 289.301 168.401 289.701 169.001C294.201 174.601 300.101 182.001 307.601 186.301C316.201 191.201 355.901 177.501 374.001 171.601C388.401 166.801 403.301 163.901 417.301 158.001C417.301 158.001 417.301 158.001 417.401 158.001C418.101 157.701 423.401 155.401 419.801 151.801C419.801 151.801 423.201 150.801 422.701 147.901C422.301 145.701 420.701 145.201 419.401 145.101C419.701 145.001 421.701 144.301 421.001 142.101C420.001 139.001 416.101 139.401 413.501 140.401C413.601 140.301 414.901 139.601 414.301 137.501C414.101 136.601 412.701 135.601 409.901 135.801C405.001 136.201 390.101 141.401 390.101 141.401C390.101 141.401 391.801 138.701 393.701 136.001C394.201 135.201 395.001 132.901 393.401 131.601C391.801 130.301 390.601 130.801 388.101 133.001C385.401 135.401 380.201 140.001 377.401 144.601C368.901 146.401 324.201 156.501 323.001 154.601C322.301 153.401 320.501 150.701 318.501 147.701C315.901 143.801 312.901 139.201 310.901 135.901C310.101 134.601 309.201 133.101 308.301 131.601C300.101 117.901 287.801 97.0008 270.601 112.101Z" fill="#EFBEA9"/>
<path d="M313.5 139.301L283.2 159.901C281.7 157.501 277.2 150.901 271.6 143.501C264.7 134.201 264.2 128.501 265.2 121.001C266.2 113.501 271.8 110.101 275 108.501C279.3 106.401 284.6 106.201 289.4 107.901C295.7 110.301 307.5 129.301 313.5 139.301Z" fill="#FFDBD5"/>
<path d="M389.4 142C387.7 142.4 386 142.8 384.1 143.7" stroke="#424D51" stroke-linecap="round" stroke-linejoin="round"/>
<path d="M396 145.7C396 145.7 410.2 141.6 413.7 140.6" stroke="#424D51" stroke-linecap="round" stroke-linejoin="round"/>
<path d="M397.301 151C397.301 151 409.301 147.1 414.901 145.7C416.301 145.3 418.101 145.1 419.601 145.4" stroke="#424D51" stroke-linecap="round" stroke-linejoin="round"/>
<path d="M398.301 156.701C398.301 156.701 411.501 152.501 415.001 151.701C415.801 151.501 417.901 151.101 419.301 151.801" stroke="#424D51" stroke-linecap="round" stroke-linejoin="round"/>
<path d="M269.5 113.6C269.5 113.6 262.4 120.1 265.6 131.6C268.8 143.1 296.2 176.8 296.2 176.8" stroke="#424D51" stroke-linecap="round" stroke-linejoin="round"/>
<path d="M293.1 112.1C293.1 112.1 300.7 117.1 311.4 137.4" stroke="#424D51" stroke-linecap="round" stroke-linejoin="round"/>
<path d="M254.301 132.999C254.301 132.999 256.201 121.899 265.501 109.199" stroke="#424D51" stroke-linecap="round" stroke-linejoin="round"/>
<path d="M121.844 179.888C114.518 176.102 98.8657 181.775 91.1209 198.139" stroke="#424D51" stroke-linecap="round" stroke-linejoin="round"/>
<path d="M122.585 169.548C116.681 168.348 106.23 171.138 99.1268 179.207" stroke="#424D51" stroke-linecap="round" stroke-linejoin="round"/>
<path d="M330.5 213.699C323 207.199 315.5 200.599 308 193.999C302.4 188.999 296.7 183.899 291 178.999C289.2 177.499 284.4 171.899 281.8 171.899C281.6 171.899 280.8 171.699 279.5 171.299C271.8 169.299 248.5 164.899 247.1 165.499C246.8 166.999 246.4 168.499 245.9 169.899C244.5 174.699 243.1 179.299 245.2 187.799C248.4 201.099 264.1 210.299 274.2 217.999C283.4 224.899 292.6 231.899 301.8 238.799C306 241.999 310.2 245.099 314.4 248.199C316.6 249.799 322.2 252.999 322.5 256.199C323.6 267.399 324.2 340.699 324.2 340.699L359 339.099C359 339.099 359.3 259.899 359.3 251.699C359.3 242.099 357.7 237.599 350.4 231.099C343.8 225.199 337.2 219.499 330.5 213.699Z" fill="#EA7A79"/>
<path d="M272.75 216.799C267 213.382 254 203.949 248 193.549" stroke="#424D51" stroke-linecap="round" stroke-linejoin="round"/>
<path fill-rule="evenodd" clip-rule="evenodd" d="M323.199 306.8L360.199 305.9L359.099 342.1L323.499 341.9L323.199 306.8Z" fill="#FFDBD5"/>
<path fill-rule="evenodd" clip-rule="evenodd" d="M326.301 340.799C326.301 340.799 322.801 341.099 322.401 343.999C322.201 345.899 323.301 346.899 324.401 347.699C324.401 347.699 322.801 348.699 321.501 351.299C320.201 353.899 318.001 358.699 319.401 361.699C320.001 363.099 355.501 360.799 355.501 360.799L392.801 360.499C392.801 360.499 391.201 353.099 382.501 351.099C374.801 349.299 373.101 349.199 369.301 348.899C366.901 348.699 364.901 347.699 363.901 345.799C362.401 342.899 360.701 341.699 357.601 340.599C352.601 338.799 331.401 339.899 326.301 340.799Z" fill="#FFB6A9"/>
<path fill-rule="evenodd" clip-rule="evenodd" d="M319.399 361.9C318.299 360.8 325.599 349.7 333.699 348.7C341.199 347.8 346.599 354.2 351.599 355.3C354.799 356 359.799 355.9 364.099 355.8C365.999 355.8 389.999 355.4 389.999 355.4C389.999 355.4 395.799 359.5 393.199 361.8C391.699 363.1 320.399 362.9 319.399 361.9Z" fill="#D9A48A"/>
<path d="M294.999 182.8L288.199 176.9L294.999 182.8Z" stroke="#424D51" stroke-linecap="round" stroke-linejoin="round"/>
</svg>
