<svg width="424" height="424" viewBox="0 0 424 424" fill="none" xmlns="http://www.w3.org/2000/svg">
<path d="M368.735 334.11C358.31 337.585 347.078 353.776 342.674 361.8H260.325C253.81 348.407 235.893 351.665 233.359 353.475C230.825 355.285 214.895 355.829 225.396 343.521C238.437 328.235 261.17 336.583 269.737 341.53C269.556 339.418 266.805 333.168 257.249 325.06C247.249 316.576 253.648 310.14 264.307 314.382C273.972 318.228 283.673 335.195 283.673 335.195C283.673 335.195 288.233 304.728 297.971 291.397C307.291 278.639 314.44 288.14 310.82 297.551C307.7 305.663 305.511 318.183 305.572 323.794C312.389 314.986 330.83 297.714 348.465 292.664C367.74 287.144 370.907 300.933 359.686 304.609C348.465 308.285 323.787 340.035 323.787 340.035C323.787 340.035 344.787 325.06 366.745 330.67C370.563 331.646 371.314 333.25 368.735 334.11Z" fill="#ECECEC"/>
<path fill-rule="evenodd" clip-rule="evenodd" d="M181.801 172.8C181.801 172.8 155.501 186.3 142.001 211C140.301 214.1 132.101 200.7 133.801 198C140.401 187.5 157.301 166.6 181.601 157.6" fill="#93BEFA"/>
<path d="M171.301 161.801L173.401 166.001" stroke="#EFD9CE" stroke-linecap="round" stroke-linejoin="round"/>
<path d="M162.9 167L165 171.2" stroke="#EFD9CE" stroke-linecap="round" stroke-linejoin="round"/>
<path d="M136.801 193.801L138.901 198.001" stroke="#EFD9CE" stroke-linecap="round" stroke-linejoin="round"/>
<path fill-rule="evenodd" clip-rule="evenodd" d="M247 175.8C247 175.8 273.3 189.3 286.8 214C288.5 217.1 296.7 203.7 295 201C288.4 190.5 271.5 169.6 247.2 160.6" fill="#93BEFA"/>
<path d="M257.5 165L255.4 169.2" stroke="#EFD9CE" stroke-linecap="round" stroke-linejoin="round"/>
<path d="M292 197L289.9 201.2" stroke="#EFD9CE" stroke-linecap="round" stroke-linejoin="round"/>
<path d="M265.901 170.199L263.801 174.399" stroke="#EFD9CE" stroke-linecap="round" stroke-linejoin="round"/>
<path d="M287 189.5L284.9 193.7" stroke="#EFD9CE" stroke-linecap="round" stroke-linejoin="round"/>
<path fill-rule="evenodd" clip-rule="evenodd" d="M194.099 352L159.399 355.5C159.399 355.5 145.299 272.8 145.299 263.1C145.199 248.3 158.199 221.7 161.899 214.6C176.599 186.5 182.199 175.5 198.199 182.6C207.799 186.9 208.799 197.3 203.799 211.3C200.899 219.3 182.399 259 182.799 262.7C184.199 273.7 194.099 352 194.099 352Z" fill="#EFD9CE"/>
<path fill-rule="evenodd" clip-rule="evenodd" d="M191.5 319.301L153.4 322.701L159.7 358.401L196.1 356.201L191.5 319.301Z" fill="#CBE4FC"/>
<path fill-rule="evenodd" clip-rule="evenodd" d="M193.1 353.499C193.1 353.499 196.6 353.699 197 356.599C197.2 358.499 196.2 359.499 195.1 360.299C195.1 360.299 196.7 361.299 198.1 363.799C199.5 366.299 201.7 371.099 200.4 374.199C199.8 375.599 164.3 374.099 164.3 374.099L127 374.599C127 374.599 128.5 367.199 137.1 364.999C144.8 362.999 146.5 362.899 150.3 362.499C152.7 362.199 154.6 361.199 155.6 359.299C157.1 356.399 158.7 355.199 161.8 353.999C166.8 352.099 187.9 352.699 193.1 353.499Z" fill="#93BEFA"/>
<path fill-rule="evenodd" clip-rule="evenodd" d="M200.401 374.499C201.501 373.399 194.001 362.399 185.901 361.599C178.401 360.899 173.101 367.399 168.201 368.599C165.001 369.399 160.001 369.399 155.701 369.399C153.801 369.399 129.801 369.499 129.801 369.499C129.801 369.499 124.101 373.699 126.701 375.899C128.201 377.199 199.401 375.599 200.401 374.499Z" fill="#EFD9CE"/>
<path fill-rule="evenodd" clip-rule="evenodd" d="M164.199 365.399C166.299 365.699 168.199 364.399 168.499 362.399C168.799 360.399 167.399 358.499 165.299 358.199C163.199 357.899 161.299 359.199 160.999 361.199C160.699 363.199 162.099 365.099 164.199 365.399Z" fill="#CBE4FC"/>
<path fill-rule="evenodd" clip-rule="evenodd" d="M216.201 355.499L251.001 353.199C251.001 353.199 249.601 273.999 249.401 265.799C249.201 256.199 248.801 253.899 248.601 244.699C248.101 218.499 247.601 201.599 219.101 206.099C208.701 207.699 209.001 221.499 209.701 231.599C210.301 240.099 212.101 257.999 212.501 265.399C213.001 276.699 216.201 355.499 216.201 355.499Z" fill="#EFD9CE"/>
<path fill-rule="evenodd" clip-rule="evenodd" d="M214.5 321.6L251.5 319.9L251.2 356.2L215.6 356.7L214.5 321.6Z" fill="#CBE4FC"/>
<path fill-rule="evenodd" clip-rule="evenodd" d="M217.599 354.499C217.599 354.499 214.099 354.699 213.699 357.599C213.499 359.499 214.599 360.499 215.599 361.299C215.599 361.299 213.999 362.299 212.699 364.899C211.399 367.399 209.099 372.199 210.499 375.299C211.099 376.699 246.599 374.799 246.599 374.799L283.899 374.899C283.899 374.899 282.299 367.499 273.699 365.399C265.999 363.499 264.299 363.399 260.499 362.999C258.099 362.799 256.099 361.799 255.099 359.799C253.599 356.899 251.999 355.699 248.799 354.499C243.899 352.799 222.799 353.699 217.599 354.499Z" fill="#93BEFA"/>
<path fill-rule="evenodd" clip-rule="evenodd" d="M210.5 375.599C209.4 374.499 216.8 363.399 224.9 362.599C232.4 361.799 237.8 368.299 242.7 369.399C245.9 370.099 250.9 370.099 255.2 369.999C257.1 369.999 281.1 369.899 281.1 369.899C281.1 369.899 286.8 373.999 284.3 376.299C282.8 377.499 211.5 376.599 210.5 375.599Z" fill="#EFD9CE"/>
<path fill-rule="evenodd" clip-rule="evenodd" d="M246.6 366.1C244.5 366.4 242.6 365.1 242.3 363.1C242 361.1 243.4 359.2 245.4 358.9C247.5 358.6 249.4 359.9 249.7 361.9C250.1 363.9 248.7 365.8 246.6 366.1Z" fill="#CBE4FC"/>
<path fill-rule="evenodd" clip-rule="evenodd" d="M240.399 163.9C240.399 163.9 251.599 165.1 252.499 171.2C253.299 177.3 238.099 176 236.599 175.8C235.099 175.6 240.399 163.9 240.399 163.9Z" fill="#EFD9CE"/>
<path fill-rule="evenodd" clip-rule="evenodd" d="M188.4 160.9C188.4 160.9 177.1 162.5 176.2 168.6C175.3 174.7 190.7 172.9 192.2 172.8C193.7 172.6 188.4 160.9 188.4 160.9Z" fill="#EFD9CE"/>
<path fill-rule="evenodd" clip-rule="evenodd" d="M208.799 236.8L249.099 234.4C249.099 234.4 245.899 179.5 243.599 170.3C242.799 167.2 186.399 165.1 185.199 166.3C180.099 171.3 156.699 222 156.699 222L193.699 236.3L208.199 205.1L208.799 236.8Z" fill="#FFB6A9"/>
<mask id="mask0_12_5051" style="mask-type:alpha" maskUnits="userSpaceOnUse" x="156" y="165" width="94" height="72">
<path fill-rule="evenodd" clip-rule="evenodd" d="M208.799 236.8L249.099 234.4C249.099 234.4 245.899 179.5 243.599 170.3C242.799 167.2 186.399 165.1 185.199 166.3C180.099 171.3 156.699 222 156.699 222L193.699 236.3L208.199 205.1L208.799 236.8Z" fill="#FFB6A9"/>
</mask>
<g mask="url(#mask0_12_5051)">
<path fill-rule="evenodd" clip-rule="evenodd" d="M443.349 122.541C437.95 125.154 431.064 124.676 422.683 120.487C420.838 119.565 419.421 117.828 418.254 115.808C417.077 113.771 416.067 111.289 415.111 108.687C414.645 107.421 414.192 106.126 413.737 104.828C412.291 100.701 410.833 96.5365 408.926 93.1037C406.434 88.6177 403.439 85.8646 399.164 85.9803C394.684 86.1016 388.314 89.3421 379.101 98.4356C369.963 107.454 365.18 115.475 363.278 122.528C361.384 129.551 362.32 135.715 364.811 141.112C365.355 142.291 365.973 143.433 366.653 144.54C371.996 140.046 379.812 136.31 391.064 133.295C394.516 132.37 397.43 132.317 399.823 133.036C402.243 133.763 404.029 135.25 405.237 137.199C407.601 141.018 407.705 146.509 406.553 151.637C405.392 156.798 402.881 161.947 399.579 165.195C397.921 166.825 395.998 168.039 393.883 168.459C391.731 168.885 389.507 168.462 387.357 167.036C381.311 163.025 372.278 156.917 366.187 148.55C366.09 148.651 365.994 148.751 365.9 148.852C361.119 153.941 359.308 159.892 358.843 166.829C358.548 171.231 359.326 174.749 360.671 177.515C362.147 176.31 363.569 175.359 364.931 174.631C369.67 172.098 373.768 172.239 376.687 173.992C379.551 175.712 381.063 178.875 380.812 181.885C380.554 184.99 378.436 187.8 374.408 188.719C372.969 189.048 371.045 188.847 369.067 188.197C367.056 187.537 364.865 186.374 362.866 184.631C361.864 183.757 360.915 182.74 360.062 181.574C357.315 184.24 354.319 187.904 351.136 192.83C345.201 202.015 338.482 206.743 331.831 208.282C325.187 209.82 318.817 208.127 313.672 204.871C309.942 202.51 306.811 199.301 304.64 195.822C303.799 195.502 302.954 195.174 302.107 194.845C298.441 193.422 294.744 191.987 291.204 191.168C286.046 189.976 281.887 190.266 279.115 193.4C276.222 196.672 274.441 203.426 275.34 216.345C276.232 229.152 279.202 238.006 283.316 244.043C287.412 250.054 292.698 253.359 298.416 254.984C299.634 255.33 300.871 255.6 302.121 255.804C302.277 248.869 304.46 240.648 309.584 229.972C311.13 226.751 312.988 224.505 315.092 223.157C317.22 221.794 319.512 221.407 321.777 221.761C326.215 222.453 330.45 225.952 333.589 230.166C336.75 234.408 339.021 239.667 339.335 244.288C339.492 246.608 339.161 248.858 338.102 250.736C337.024 252.646 335.254 254.059 332.772 254.761C325.757 256.747 315.172 259.64 304.81 258.772L304.813 258.821C304.815 258.846 304.817 258.872 304.818 258.897C305.328 265.869 308.139 271.385 311.881 277.406C314.309 281.311 318.432 283.01 322.843 283.306C322.696 281.246 322.732 279.482 322.923 277.979C323.214 275.688 323.875 273.914 324.884 272.633C325.911 271.327 327.236 270.615 328.665 270.369C331.416 269.894 334.416 271.148 336.623 272.64C337.756 273.405 338.763 274.286 339.512 275.16C340.213 275.976 340.866 276.989 340.939 278.005C341.018 279.108 340.434 280.073 339.757 280.805C339.054 281.565 338.078 282.268 336.955 282.89C334.7 284.138 331.636 285.177 328.344 285.669C327.503 285.794 326.637 285.885 325.757 285.934C326.233 289.417 327.18 293.734 328.752 299.046C331.856 309.532 331.068 317.71 327.904 323.759C324.743 329.802 319.309 333.534 313.488 335.316C307.683 337.094 301.399 336.967 296.386 335.202C291.391 333.443 287.4 329.936 286.831 324.818C285.806 315.586 288.888 307.106 292.562 300.426C295.381 295.299 298.637 291.098 300.689 288.45L300.69 288.449L300.691 288.448C301.299 287.663 301.802 287.015 302.155 286.52C302.86 285.533 303.672 283.801 304.069 281.836C304.466 279.871 304.417 277.83 303.598 276.124C302.806 274.473 301.203 272.95 298.092 272.131C294.933 271.299 290.252 271.206 283.461 272.499C278.164 273.508 273.826 275.102 270.36 276.989C270.761 277.958 271.115 278.9 271.421 279.813C273.145 284.943 273.459 289.327 272.352 292.566C271.791 294.206 270.861 295.561 269.567 296.527C268.274 297.492 266.692 298.012 264.917 298.105C261.414 298.289 258.726 296.934 257.421 294.416C256.157 291.979 256.377 288.803 257.836 285.664C259.395 282.311 262.421 278.836 267.019 275.914C263.938 269.331 258.619 261.439 250.567 252.718C249.742 254.049 248.821 255.312 247.797 256.499C249.686 258.296 251.141 260.511 252.193 263.056C254.614 268.914 254.876 276.451 253.643 284.589C252.407 292.751 249.648 301.649 245.885 310.318C238.38 327.611 226.764 344.258 214.933 352.408C209.012 356.486 202.844 358.565 197.032 357.248C191.182 355.923 186.099 351.254 182.16 342.752C181.293 340.881 181.269 338.64 181.617 336.333C181.967 334.007 182.726 331.437 183.601 328.807C184.027 327.526 184.48 326.232 184.934 324.934L184.934 324.933C186.379 320.805 187.836 316.641 188.486 312.768C189.337 307.707 188.713 303.687 185.3 301.111C181.722 298.412 174.722 296.972 161.848 298.333C149.081 299.683 140.34 302.968 134.454 307.295C128.593 311.604 125.48 317.005 124.061 322.777C123.751 324.038 123.521 325.317 123.362 326.605C130.341 326.426 138.781 328.381 149.457 333.043C152.731 334.472 155.042 336.248 156.465 338.303C157.903 340.381 158.371 342.657 158.099 344.934C157.566 349.393 154.222 353.751 150.123 357.039C145.996 360.35 140.823 362.808 136.216 363.287C133.903 363.528 131.642 363.277 129.728 362.286C127.78 361.277 126.305 359.559 125.514 357.103C123.289 350.197 120.039 339.789 120.497 329.45C120.358 329.468 120.221 329.487 120.084 329.506C113.173 330.503 108.045 334.024 103.355 339.156C100.379 342.413 98.7926 345.648 98.1192 348.649C100.024 348.628 101.729 348.772 103.248 349.053C108.532 350.029 111.647 352.694 112.835 355.885C114.001 359.016 113.21 362.431 111.136 364.628C108.997 366.894 105.59 367.769 101.868 365.975C100.538 365.335 99.16 363.978 98.0189 362.236C96.8589 360.466 95.8712 358.19 95.3963 355.58C95.1584 354.273 95.0502 352.886 95.1114 351.443C91.3011 351.813 86.6743 352.808 81.1141 354.673C70.7459 358.151 62.5449 357.655 56.3858 354.71C50.2336 351.768 46.3099 346.472 44.3196 340.718C42.3348 334.98 42.2369 328.695 43.8212 323.623C45.3999 318.568 48.7623 314.454 53.8562 313.702C63.0456 312.346 71.631 315.123 78.4384 318.555C83.6624 321.189 87.9774 324.292 90.6974 326.248C91.5043 326.829 92.1709 327.308 92.6792 327.644C93.69 328.313 95.4502 329.063 97.4282 329.389C99.4061 329.715 101.445 329.593 103.12 328.714C104.741 327.863 106.206 326.206 106.913 323.068C107.632 319.882 107.557 315.2 106.021 308.46C104.823 303.202 103.074 298.924 101.065 295.528C100.111 295.964 99.182 296.35 98.2806 296.69C93.2159 298.596 88.8457 299.067 85.5694 298.077C83.9101 297.575 82.5224 296.694 81.511 295.435C80.5006 294.178 79.9241 292.616 79.7672 290.845C79.4574 287.351 80.7153 284.616 83.1855 283.221C85.5759 281.871 88.7578 281.978 91.9469 283.323C95.3536 284.76 98.9343 287.66 102.02 292.15C108.488 288.836 116.184 283.237 124.611 274.878C117.225 270.66 111.739 263.501 109.267 252.546C106.117 238.583 107.881 229.641 112.468 224.95C117.018 220.298 123.836 220.306 129.827 223.047C130.217 221.76 130.85 220.537 131.763 219.416C137.632 212.216 145.843 208.474 153.183 206.415C158.816 204.836 164.095 204.216 167.423 203.825L167.423 203.825C168.41 203.709 169.225 203.613 169.827 203.518C171.024 203.33 172.83 202.696 174.51 201.602C176.19 200.509 177.612 199.043 178.256 197.265C178.879 195.542 178.842 193.332 177.247 190.538C175.628 187.701 172.415 184.296 166.734 180.356C162.303 177.283 158.126 175.305 154.352 174.154C153.941 175.119 153.517 176.031 153.08 176.889C150.628 181.713 147.719 185.009 144.632 186.488C143.069 187.237 141.451 187.523 139.855 187.276C138.261 187.029 136.781 186.265 135.471 185.064C132.885 182.694 131.969 179.826 132.851 177.13C133.705 174.521 136.126 172.453 139.387 171.295C142.872 170.058 147.471 169.783 152.778 171.016C155.317 164.206 157.221 154.881 157.802 143.026C149.505 144.895 140.625 143.311 131.411 136.892C119.666 128.71 114.936 120.918 115.158 114.362C115.382 107.716 120.639 103.065 127.101 101.118C133.595 99.1609 141.669 99.7787 148.273 103.925C154.935 108.108 159.959 115.791 160.45 127.658C160.622 131.823 160.653 135.772 160.558 139.505C167.488 137.067 173.98 132.046 179.886 125.501C193.06 110.903 202.953 89.133 208.017 73.4935L208.041 73.4187L208.074 73.3473C213.708 61.1556 219.67 53.5012 225.764 49.573C231.949 45.5866 238.18 45.4999 244.006 48.2321C249.745 50.9236 255.022 56.3102 259.603 63.1488C264.196 70.008 268.162 78.4372 271.233 87.3748C275.767 100.571 278.4 115.025 278.15 127.321C280.178 128.148 282.21 129.049 284.233 130.018C300.255 137.688 315.935 149.657 324.402 162.077C325.328 163.436 326.172 164.807 326.923 166.183C332.494 165.055 337.631 164.798 340.898 164.634L340.898 164.634L340.899 164.634C341.891 164.585 342.711 164.544 343.318 164.489C344.525 164.382 346.368 163.87 348.118 162.891C349.867 161.912 351.384 160.545 352.145 158.813C352.882 157.136 352.993 154.929 351.589 152.034C350.163 149.096 347.185 145.483 341.78 141.172C337.564 137.81 333.529 135.557 329.84 134.156C329.366 135.091 328.882 135.973 328.389 136.8C325.619 141.45 322.497 144.543 319.318 145.813C317.708 146.456 316.074 146.633 314.499 146.279C312.924 145.927 311.499 145.065 310.272 143.779C307.851 141.241 307.128 138.319 308.189 135.688C309.215 133.142 311.769 131.24 315.101 130.303C318.66 129.301 323.268 129.335 328.48 130.92C331.469 124.295 333.992 115.118 335.365 103.328C326.961 104.639 318.207 102.464 309.443 95.443C298.271 86.4938 294.073 78.4038 294.733 71.8767C295.401 65.2606 300.957 60.9715 307.535 59.4608C314.145 57.9428 322.16 59.0991 328.472 63.678C334.839 68.2968 339.338 76.2986 339.034 88.1719C338.928 92.3392 338.694 96.2815 338.35 99.9993C345.428 98.0303 352.24 93.4554 358.572 87.3196C372.691 73.6353 384.019 52.5756 390.117 37.3097L390.146 37.2366L390.184 37.1676C396.621 25.38 403.081 18.1414 409.424 14.6296C415.861 11.0656 422.085 11.3958 427.715 14.5116C433.261 17.5808 438.166 23.3083 442.279 30.4378C446.404 37.5889 449.797 46.2644 452.263 55.3874C457.183 73.5859 458.487 93.8432 454.322 107.593C452.238 114.473 448.713 119.945 443.349 122.541ZM129.361 225.732C129.268 225.686 129.176 225.641 129.083 225.596C123.562 222.945 117.907 223.142 114.344 226.785C110.719 230.492 108.734 238.258 111.827 251.969C114.223 262.59 119.537 269.174 126.528 272.941C129.261 270.13 132.065 267.032 134.924 263.631C140.347 257.182 142.342 250.917 142.187 245.364C137.203 242.456 133.193 238.091 131.048 233.509C129.86 230.969 129.218 228.287 129.361 225.732ZM141.83 242.03C138.067 239.435 135.088 235.951 133.425 232.397C132.602 230.64 132.118 228.911 131.995 227.282C136.276 230.205 139.903 234.778 141.425 240.285C141.583 240.856 141.718 241.438 141.83 242.03ZM144.719 243.76C144.586 242.327 144.327 240.934 143.954 239.586C142.105 232.896 137.509 227.484 132.21 224.304C132.491 223.122 133.016 222.033 133.797 221.074C139.188 214.461 146.815 210.926 153.892 208.942C159.293 207.427 164.218 206.847 167.564 206.453C168.625 206.328 169.527 206.222 170.235 206.11C171.825 205.86 173.976 205.081 175.941 203.801C177.907 202.522 179.82 200.655 180.723 198.157C181.647 195.603 181.441 192.592 179.526 189.237C177.635 185.924 174.072 182.252 168.229 178.2C163.69 175.052 159.334 172.958 155.32 171.708C157.996 164.437 159.928 154.625 160.462 142.304C168.337 139.8 175.508 134.27 181.834 127.259C195.335 112.298 205.362 90.1825 210.489 74.377C216.024 62.4191 221.71 55.308 227.186 51.7785C232.582 48.3003 237.852 48.2444 242.892 50.6078C248.018 53.0119 252.969 57.9592 257.422 64.6089C261.862 71.2381 265.736 79.4516 268.751 88.2274C273.11 100.915 275.629 114.635 275.54 126.298C270.412 124.368 265.35 122.943 260.577 122.161C253.138 120.941 246.26 121.257 240.929 123.8C238.275 125.066 236.044 126.866 234.337 129.234C233.82 128.275 233.281 127.351 232.718 126.48C229.751 121.892 225.793 118.297 220.052 118.838C214.516 119.36 207.789 123.727 199.149 133.479C190.438 143.311 185.908 152.043 184.363 159.803C182.813 167.594 184.292 174.304 187.406 180.012C188.159 181.393 189.008 182.715 189.932 183.979C189.71 184.232 189.494 184.486 189.285 184.741C184.349 190.755 182.85 197.477 182.85 204.814C182.85 210.022 184.144 214.127 186.105 217.276C183.253 220.357 180.271 224.52 177.229 229.999C172.161 239.129 166.254 243.736 160.533 245.47C155.008 247.145 149.468 246.198 144.719 243.76ZM144.808 246.714C144.625 252.566 142.3 258.936 136.933 265.32C134.25 268.511 131.608 271.446 129.021 274.138C135.781 277.013 143.96 277.687 152.735 276.839C168.521 275.316 185.879 268.909 199.501 262.222C195.702 257.454 196.194 250.899 199.154 245.263C202.307 239.259 208.405 233.93 215.991 232.123C223.643 230.3 232.645 232.098 241.456 240.062C244.549 242.857 247.388 245.602 249.985 248.285C253.101 241.632 254.067 233.483 253.534 224.682C252.348 205.055 243.745 182.743 236.134 168.173L236.097 168.103L236.069 168.029C231.32 155.474 229.793 145.777 230.818 138.529C231.172 136.025 231.832 133.815 232.763 131.887C232.056 130.481 231.313 129.14 230.515 127.905C227.728 123.596 224.556 121.049 220.299 121.45C215.837 121.871 209.698 125.53 201.113 135.219C192.599 144.828 188.363 153.151 186.937 160.316C185.517 167.45 186.863 173.537 189.709 178.756C190.331 179.895 191.024 180.994 191.776 182.053C196.807 177.212 204.355 172.962 215.381 169.201C218.763 168.047 221.667 167.799 224.103 168.357C226.566 168.92 228.447 170.284 229.783 172.149C232.398 175.8 232.868 181.273 232.061 186.465C231.248 191.693 229.088 196.998 226.01 200.459C224.465 202.197 222.627 203.537 220.545 204.097C218.427 204.667 216.179 204.393 213.938 203.114C207.637 199.517 198.216 194.026 191.58 186.085C191.49 186.192 191.401 186.299 191.313 186.406C186.883 191.803 185.474 197.862 185.474 204.814C185.474 209.226 186.486 212.684 188.013 215.354C189.405 214.054 190.76 213.009 192.071 212.192C196.63 209.348 200.727 209.214 203.757 210.768C206.73 212.293 208.45 215.347 208.401 218.368C208.351 221.483 206.426 224.428 202.468 225.615C201.055 226.039 199.122 225.967 197.105 225.451C195.054 224.927 192.79 223.913 190.679 222.307C189.621 221.502 188.606 220.552 187.677 219.445C185.114 222.289 182.37 226.144 179.524 231.272C174.216 240.834 167.828 246 161.295 247.981C155.508 249.736 149.766 248.941 144.808 246.714ZM201.448 264.187C187.527 271.103 169.491 277.858 152.987 279.451C143.588 280.359 134.564 279.604 127.062 276.139C118.356 284.874 110.31 290.814 103.429 294.376C105.549 298.007 107.352 302.491 108.579 307.877C110.159 314.809 110.312 319.924 109.473 323.645C108.623 327.414 106.744 329.775 104.339 331.037C101.987 332.272 99.3154 332.359 97.0013 331.978C94.6874 331.596 92.574 330.721 91.2315 329.833C90.6337 329.437 89.8964 328.907 89.0295 328.284L89.0288 328.284C86.2927 326.317 82.2656 323.423 77.2571 320.898C70.6948 317.589 62.6796 315.053 54.2392 316.298C50.5183 316.847 47.7372 319.886 46.3258 324.405C44.9199 328.907 44.9853 334.616 46.7993 339.86C48.6077 345.088 52.1183 349.761 57.5179 352.343C62.9106 354.922 70.3789 355.506 80.2797 352.185C86.2208 350.193 91.2301 349.131 95.4142 348.781C96.0914 345.134 97.9046 341.231 101.418 337.386C106.367 331.97 112.009 328.019 119.709 326.909C120.036 326.862 120.367 326.82 120.701 326.784C120.872 325.227 121.137 323.678 121.513 322.151C123.065 315.837 126.499 309.886 132.9 305.181C139.275 300.494 148.51 297.105 161.572 295.723C174.529 294.354 182.441 295.667 186.88 299.017C191.483 302.49 191.979 307.814 191.074 313.202C190.383 317.319 188.817 321.789 187.357 325.96L187.356 325.963C186.916 327.22 186.485 328.45 186.091 329.635C185.224 332.239 184.527 334.632 184.211 336.724C183.893 338.835 183.992 340.466 184.54 341.649C188.289 349.739 192.851 353.61 197.612 354.689C202.41 355.776 207.818 354.123 213.444 350.247C224.707 342.489 236.07 326.343 243.478 309.273C247.173 300.761 249.854 292.085 251.049 284.196C252.247 276.283 251.93 269.291 249.768 264.058C248.857 261.854 247.615 259.949 245.995 258.407C241.577 262.682 235.577 265.769 227.699 267.252C214.795 269.681 206.262 268.129 201.448 264.187ZM243.914 256.766C239.907 260.54 234.463 263.309 227.214 264.673C215.509 266.877 208.201 265.588 204.068 262.858C206.092 261.811 208.014 260.768 209.814 259.745C221.967 254.652 230.961 253.239 237.384 254.327C239.939 254.76 242.103 255.591 243.914 256.766ZM245.759 254.844C243.571 253.331 240.936 252.268 237.822 251.74C230.674 250.529 221.109 252.157 208.726 257.356L208.654 257.387L208.585 257.425C206.513 258.604 204.28 259.809 201.915 261.014C198.626 257.321 198.691 251.789 201.477 246.483C204.309 241.09 209.814 236.292 216.599 234.675C223.317 233.075 231.452 234.557 239.697 242.009C242.993 244.988 245.988 247.901 248.7 250.733C247.847 252.187 246.871 253.562 245.759 254.844ZM315.075 202.654C312.765 201.192 310.717 199.377 309.028 197.386C310.947 198.004 312.802 198.483 314.511 198.68C316.758 198.938 318.946 198.731 320.702 197.504C327.376 192.841 330.55 187.132 330.853 180.899C331.048 176.88 330.044 172.736 328.147 168.617C333.199 167.652 337.723 167.424 340.863 167.266L340.866 167.266C341.931 167.212 342.838 167.167 343.551 167.103C345.154 166.96 347.352 166.326 349.399 165.181C351.446 164.036 353.479 162.3 354.548 159.869C355.64 157.382 355.636 154.365 353.95 150.889C352.285 147.457 348.975 143.554 343.416 139.121C339.098 135.677 334.892 133.296 330.97 131.78C334.126 124.704 336.71 115.043 338.067 102.786C346.092 100.814 353.616 95.776 360.398 89.2038C374.869 75.179 386.352 53.7838 392.524 38.3565C398.847 26.7955 404.996 20.0806 410.695 16.9252C416.312 13.8156 421.574 14.1123 426.444 16.8074C431.398 19.5489 436.007 24.8163 440.006 31.7489C443.993 38.6601 447.308 47.1143 449.73 56.0721C454.586 74.0351 455.775 93.7437 451.811 106.832C449.83 113.371 446.635 118.036 442.206 120.18C437.812 122.306 431.831 122.125 423.855 118.14C422.689 117.557 421.594 116.344 420.526 114.495C419.468 112.663 418.52 110.358 417.574 107.782C417.143 106.61 416.712 105.379 416.272 104.121L416.271 104.12L416.271 104.119L416.27 104.117C414.811 99.947 413.246 95.4773 411.219 91.8294C408.566 87.0534 404.857 83.2013 399.093 83.3573C393.534 83.5078 386.53 87.416 377.258 96.5681C367.908 105.795 362.805 114.204 360.745 121.845C358.677 129.514 359.704 136.308 362.429 142.211C363.088 143.639 363.846 145.015 364.684 146.339C364.445 146.576 364.213 146.815 363.987 147.056C358.66 152.726 356.715 159.333 356.225 166.653C355.876 171.85 356.893 176.032 358.639 179.305C355.587 182.188 352.333 186.142 348.932 191.406C343.265 200.177 337.063 204.378 331.239 205.726C325.408 207.075 319.749 205.612 315.075 202.654ZM328.232 180.771C328.41 177.102 327.441 173.191 325.513 169.18C318.757 170.787 311.601 173.802 306.194 179.597C303.628 182.347 303.35 186.457 305.065 190.869C305.432 191.812 305.886 192.756 306.42 193.687C306.974 193.895 307.518 194.095 308.051 194.284C310.582 195.182 312.862 195.849 314.811 196.073C316.767 196.298 318.196 196.054 319.199 195.353C325.317 191.078 327.975 186.068 328.232 180.771ZM304.276 177.807C309.98 171.693 317.39 168.502 324.255 166.786C323.645 165.713 322.97 164.635 322.234 163.555C314.106 151.633 298.852 139.925 283.1 132.385C281.414 131.577 279.725 130.819 278.041 130.115C277.849 133.391 277.435 136.484 276.778 139.326C275.159 146.33 272.008 152.026 266.829 154.975C261.617 157.942 254.715 157.925 246.072 154.307C244.17 153.511 242.64 151.872 241.34 149.934C240.03 147.981 238.856 145.572 237.728 143.04C237.179 141.807 236.64 140.546 236.099 139.281L236.099 139.281C235.502 137.883 234.903 136.481 234.286 135.108C233.903 136.264 233.61 137.525 233.416 138.896C232.482 145.503 233.838 154.693 238.496 167.028C246.182 181.759 254.937 204.408 256.154 224.524C256.724 233.95 255.646 242.941 251.915 250.314C260.332 259.328 265.98 267.581 269.293 274.585C272.998 272.596 277.544 270.955 282.97 269.922C289.955 268.591 295.072 268.622 298.76 269.593C302.496 270.578 304.788 272.54 305.964 274.989C307.113 277.383 307.105 280.056 306.641 282.355C306.177 284.654 305.226 286.735 304.291 288.045C303.874 288.628 303.319 289.345 302.666 290.188L302.664 290.191C300.601 292.854 297.564 296.775 294.861 301.69C291.319 308.13 288.497 316.049 289.439 324.528C289.855 328.267 292.792 331.155 297.258 332.727C301.706 334.293 307.414 334.433 312.72 332.808C318.009 331.188 322.804 327.847 325.578 322.543C328.349 317.246 329.2 309.804 326.236 299.79C324.599 294.259 323.598 289.693 323.112 285.944C317.971 285.695 312.762 283.792 309.653 278.791C305.851 272.676 302.758 266.713 302.201 259.088C302.186 258.882 302.173 258.674 302.162 258.465C300.658 258.239 299.167 257.925 297.698 257.508C291.444 255.73 285.62 252.085 281.147 245.52C276.692 238.981 273.635 229.631 272.723 216.527C271.818 203.534 273.495 195.795 277.149 191.662C280.925 187.392 286.402 187.365 291.795 188.612C295.367 189.438 299.196 190.9 302.814 192.302C302.747 192.142 302.682 191.981 302.62 191.82C300.701 186.884 300.763 181.571 304.276 177.807ZM335.655 100.619C336.038 96.7166 336.298 92.546 336.411 88.1048C336.696 76.9957 332.522 69.8573 326.931 65.8019C321.286 61.7065 314.06 60.6546 308.122 62.0181C302.153 63.389 297.856 67.0714 297.343 72.1406C296.822 77.2987 300.114 84.6077 311.083 93.3951C319.581 100.203 327.841 102.034 335.655 100.619ZM327.324 133.314C322.694 131.974 318.731 132.007 315.811 132.829C312.963 133.63 311.245 135.125 310.622 136.669C310.034 138.128 310.284 139.99 312.171 141.968C313.097 142.939 314.079 143.496 315.072 143.719C316.064 143.941 317.158 143.85 318.345 143.376C320.759 142.411 323.503 139.875 326.134 135.457C326.536 134.783 326.933 134.069 327.324 133.314ZM362.021 179.803C362.802 180.91 363.676 181.856 364.591 182.653C366.314 184.157 368.194 185.149 369.886 185.704C371.61 186.27 373.019 186.345 373.824 186.161C376.775 185.487 378.037 183.596 378.197 181.668C378.366 179.645 377.336 177.443 375.336 176.242C373.391 175.073 370.301 174.736 366.168 176.945C364.875 177.636 363.489 178.573 362.021 179.803ZM368.115 146.741C373.849 154.76 382.605 160.736 388.807 164.849C390.421 165.92 391.947 166.167 393.373 165.885C394.837 165.595 396.321 164.719 397.739 163.324C400.589 160.521 402.91 155.875 403.993 151.061C405.083 146.212 404.842 141.545 403.006 138.581C402.113 137.14 400.835 136.08 399.068 135.549C397.276 135.011 394.881 134.989 391.744 135.83C380.508 138.84 373.047 142.511 368.115 146.741ZM235.706 131.936C237.246 129.307 239.417 127.428 242.059 126.168C246.706 123.951 252.971 123.573 260.152 124.75C264.991 125.544 270.182 127.033 275.467 129.078C275.31 132.543 274.902 135.792 274.222 138.735C272.683 145.392 269.807 150.26 265.531 152.694C261.289 155.11 255.309 155.33 247.085 151.887C245.883 151.383 244.709 150.246 243.52 148.473C242.341 146.716 241.242 144.479 240.125 141.972C239.616 140.831 239.104 139.631 238.58 138.405L238.58 138.404C237.67 136.273 236.726 134.062 235.706 131.936ZM157.828 127.766C158.012 132.205 158.032 136.384 157.911 140.303C150.209 142.238 141.845 140.963 132.911 134.739C121.378 126.704 117.605 119.632 117.78 114.451C117.952 109.358 121.994 105.397 127.858 103.63C133.691 101.872 140.971 102.439 146.878 106.147C152.727 109.82 157.369 116.663 157.828 127.766ZM140.265 173.768C143.123 172.753 147.076 172.455 151.784 173.482C151.445 174.261 151.097 175.001 150.741 175.7C148.411 180.284 145.843 182.998 143.498 184.122C142.346 184.674 141.261 184.839 140.256 184.683C139.25 184.528 138.233 184.037 137.244 183.13C135.229 181.283 134.855 179.442 135.345 177.947C135.863 176.364 137.477 174.758 140.265 173.768ZM192.267 220.219C191.302 219.484 190.366 218.599 189.513 217.547C190.896 216.222 192.216 215.194 193.46 214.418C197.435 211.938 200.541 212.067 202.56 213.103C204.636 214.168 205.81 216.296 205.778 218.325C205.746 220.26 204.614 222.232 201.714 223.101C200.923 223.339 199.513 223.358 197.755 222.909C196.03 222.468 194.088 221.604 192.267 220.219ZM215.239 200.835C208.776 197.145 199.64 191.769 193.382 184.151C198.02 179.601 205.219 175.44 216.228 171.684C219.303 170.635 221.693 170.497 223.518 170.914C225.316 171.326 226.662 172.298 227.649 173.676C229.679 176.511 230.232 181.151 229.468 186.062C228.71 190.938 226.705 195.728 224.049 198.716C222.727 200.203 221.305 201.176 219.864 201.563C218.46 201.94 216.921 201.795 215.239 200.835ZM260.216 286.77C261.494 284.019 264.05 280.99 268.082 278.35C268.4 279.138 268.684 279.905 268.934 280.649C270.572 285.523 270.71 289.257 269.869 291.717C269.456 292.926 268.813 293.816 267.998 294.424C267.182 295.032 266.119 295.414 264.779 295.485C262.05 295.628 260.474 294.605 259.75 293.208C258.984 291.73 258.969 289.453 260.216 286.77ZM327.957 283.074C327.135 283.196 326.305 283.281 325.475 283.323C325.322 281.329 325.353 279.673 325.526 278.31C325.779 276.321 326.322 275.049 326.946 274.256C327.55 273.488 328.285 273.097 329.112 272.954C330.871 272.65 333.16 273.466 335.154 274.814C336.123 275.468 336.946 276.199 337.521 276.869C338.146 277.597 338.312 278.06 338.321 278.192C338.325 278.236 338.303 278.512 337.83 279.024C337.382 279.509 336.662 280.053 335.684 280.594C333.736 281.673 330.978 282.622 327.957 283.074ZM332.057 252.237C324.872 254.27 314.59 257.034 304.739 256.134C304.833 249.652 306.847 241.737 311.95 231.107C313.355 228.179 314.932 226.376 316.508 225.366C318.061 224.372 319.698 224.092 321.373 224.353C324.817 224.891 328.516 227.748 331.485 231.733C334.433 235.69 336.446 240.477 336.717 244.466C336.852 246.45 336.55 248.147 335.817 249.446C335.102 250.713 333.921 251.709 332.057 252.237ZM90.9269 285.741C93.7212 286.92 96.8398 289.366 99.6231 293.3C98.8466 293.647 98.0906 293.958 97.3562 294.234C92.5437 296.046 88.8172 296.317 86.3284 295.565C85.1051 295.195 84.1931 294.584 83.5566 293.792C82.9191 292.999 82.4994 291.95 82.3808 290.613C82.1395 287.891 83.1055 286.28 84.4756 285.506C85.9257 284.687 88.2007 284.59 90.9269 285.741ZM97.9779 355.111C97.7607 353.917 97.6665 352.632 97.7468 351.28C99.6618 351.235 101.33 351.367 102.771 351.633C107.379 352.484 109.584 354.675 110.376 356.801C111.19 358.988 110.621 361.351 109.228 362.827C107.9 364.234 105.734 364.925 103.007 363.611C102.263 363.253 101.208 362.316 100.214 360.798C99.2379 359.309 98.3873 357.361 97.9779 355.111ZM128.011 356.299C125.729 349.215 122.612 339.083 123.132 329.238C129.625 329.008 137.747 330.793 148.407 335.447C151.384 336.747 153.242 338.258 154.307 339.797C155.357 341.313 155.695 342.939 155.494 344.623C155.08 348.084 152.358 351.883 148.481 354.993C144.632 358.081 139.921 360.264 135.944 360.677C133.966 360.883 132.26 360.642 130.934 359.956C129.643 359.287 128.605 358.142 128.011 356.299Z" fill="white"/>
</g>
<path d="M280.201 161.199C280.001 161.299 276.001 165.599 275.901 165.599C268.701 165.299 264.201 169.499 264.201 169.499L268.401 172.399C268.401 172.399 263.201 179.399 259.701 181.699C252.401 186.699 250.101 188.399 250.801 190.799C251.501 193.299 254.701 192.699 254.701 192.699C254.701 192.699 254.201 193.599 256.201 194.899C258.001 196.099 260.201 195.599 260.201 195.599C260.201 195.599 260.301 196.699 261.901 197.399C264.001 198.399 267.601 196.999 267.601 196.999C269.301 200.999 274.601 199.399 276.101 198.399C278.001 197.199 279.701 195.799 281.301 194.199C283.301 192.299 285.101 190.299 287.001 188.399C288.101 187.299 289.101 186.199 290.101 185.099C292.901 181.999 297.201 176.699 300.001 173.499L280.201 161.199Z" fill="#EFD9CE"/>
<path d="M254.501 193.099C261.001 192.399 270.601 182.899 270.601 182.899" stroke="#424D51" stroke-linecap="round" stroke-linejoin="round"/>
<path d="M259.501 196.099C265.501 195.099 274.801 187.199 274.801 187.199" stroke="#424D51" stroke-linecap="round" stroke-linejoin="round"/>
<path d="M267.401 197.299C271.401 196.299 278.001 190.899 278.001 190.899" stroke="#424D51" stroke-linecap="round" stroke-linejoin="round"/>
<path fill-rule="evenodd" clip-rule="evenodd" d="M299.001 174.599C299.401 174.799 297.901 177.699 295.801 177.999C293.801 178.299 274.901 167.199 275.101 165.299C275.301 163.299 276.701 161.199 276.701 161.199C276.701 161.199 298.501 174.399 299.001 174.599Z" fill="#EFD9CE"/>
<path d="M298.8 113.199C298.8 113.199 292.8 123.299 292 125.499" stroke="#424D51" stroke-linecap="round" stroke-linejoin="round"/>
<path d="M146.3 160.301C146.5 160.501 150.4 164.801 150.5 164.901C157.7 164.901 161.6 168.701 161.6 168.701L157.9 171.901C157.9 171.901 162.9 179.101 166.3 181.501C173.4 186.701 175.7 188.501 174.9 190.901C174.1 193.401 171 192.701 171 192.701C171 192.701 171.5 193.601 169.4 194.901C167.6 196.001 165.4 195.501 165.4 195.501C165.4 195.501 165.3 196.601 163.6 197.301C161.5 198.201 157.9 196.701 157.9 196.701C156 200.601 150.8 198.901 149.3 197.901C147.5 196.601 145.8 195.201 144.3 193.601C142.4 191.601 140.6 189.601 138.7 187.601C137.7 186.501 136.7 185.301 135.7 184.201C133 181.101 130.2 174.801 127.5 171.601L146.3 160.301Z" fill="#EFD9CE"/>
<path d="M155.2 182.201C155.2 182.201 164.5 192.001 170.9 192.901" stroke="#424D51" stroke-linecap="round" stroke-linejoin="round"/>
<path d="M150.9 186.401C150.9 186.401 159.9 194.601 165.9 195.801" stroke="#424D51" stroke-linecap="round" stroke-linejoin="round"/>
<path d="M147.5 190.001C147.5 190.001 154 195.601 157.9 196.801" stroke="#424D51" stroke-linecap="round" stroke-linejoin="round"/>
<path fill-rule="evenodd" clip-rule="evenodd" d="M128.901 175.7C128.501 175.9 130.2 178.7 132.3 178.9C134.3 179.1 152.5 166.8 152.1 164.9C151.8 162.9 150.201 160.9 150.201 160.9C150.201 160.9 129.301 175.5 128.901 175.7Z" fill="#EFD9CE"/>
<path d="M218.386 93.6784C206.995 91.0787 190.19 90.0418 179.201 89.6997C176.98 89.7691 174.182 89.7048 170.841 89.6279C159.737 89.3726 142.632 88.9792 120.801 92.8997C91.0007 96.6997 85.2007 117 89.0007 126.2C93.8007 137.7 115.401 167.5 124.701 176.6C129.148 180.95 145.745 167.449 150.187 163.836C150.339 163.712 150.478 163.599 150.601 163.5C154.509 160.356 150.911 154.904 147.164 149.226C146.501 148.22 145.833 147.208 145.201 146.2C143.525 143.468 141.651 140.286 139.873 137.266C136.768 131.994 133.954 127.217 133.001 126.2C132.831 126.031 135.06 126.058 138.513 126.101C143.223 126.159 150.211 126.246 156.501 125.9C160.43 125.706 164.891 125.758 169.507 125.811C175.455 125.879 181.662 125.95 187.327 125.505L185.4 166.5L243.7 170.3C243.7 170.3 245.532 141.226 246.424 126.202C253.377 126.995 261.158 126.978 268.3 126.9C274.633 126.842 281.641 126.311 286.343 125.955C289.734 125.698 291.926 125.532 291.8 125.7C290.929 126.758 288.507 131.537 285.813 136.853L285.812 136.854C284.18 140.076 282.447 143.494 280.9 146.4C280.3 147.521 279.662 148.643 279.033 149.75C275.678 155.65 272.559 161.137 276.6 164L276.77 164.122C281.009 167.167 299.06 180.133 303.3 175.4C311.9 165.7 331.6 134.6 335.7 122.8C338.9 113.5 331.9 93.5997 301.9 91.5997C288.7 90.6997 275.6 90.4997 262.4 90.2997C255.9 90.1997 249.4 90.1997 243 90.5997C236.607 90.9931 230.31 91.8703 224.11 93.4215C222.269 93.528 220.354 93.615 218.386 93.6784Z" fill="#DEC0F1"/>
<path d="M126.5 117C126.5 117 133.1 126.7 134.1 128.8" stroke="#424D51" stroke-linecap="round" stroke-linejoin="round"/>
<path d="M297.5 116.699C297.5 116.699 290.9 126.399 289.9 128.499" stroke="#424D51" stroke-linecap="round" stroke-linejoin="round"/>
<path d="M245.801 136C245.801 136 246.701 129.1 245.701 122.6" stroke="#424D51" stroke-linecap="round" stroke-linejoin="round"/>
<path d="M186.999 137.5C186.999 137.5 186.099 130.6 187.099 124.1" stroke="#424D51" stroke-linecap="round" stroke-linejoin="round"/>
<path fill-rule="evenodd" clip-rule="evenodd" d="M204.2 93.6996C202.6 99.7996 227.2 103.3 228.7 96.9996C228.8 91.4996 229 88.2996 229.5 78.4996C229.7 73.2996 224.1 73.5996 221.2 73.2996C215.6 72.6996 213.3 78.4996 213.3 78.4996C213.3 78.4996 205.8 90.8996 204.2 93.6996Z" fill="#EFD9CE"/>
<path fill-rule="evenodd" clip-rule="evenodd" d="M213.9 74.1996C213.6 75.9996 213.3 83.8996 218.9 88.0996C223.4 91.3996 228.9 90.8996 228.9 90.8996C228.9 90.8996 229.8 80.8996 229.7 79.8996C229.6 78.9996 214.2 72.8996 213.9 74.1996Z" fill="#424D51"/>
<path fill-rule="evenodd" clip-rule="evenodd" d="M212.1 67.9996C212.1 67.9996 211.8 83.9996 221.3 85.4996C230.8 86.9996 233 79.1996 233.2 78.6996C233.4 78.0996 235.2 64.4996 233.5 60.1996C231.8 55.8996 226.4 49.7996 219.2 51.3996C212 52.9996 211.1 57.8996 210.9 62.0996C210.9 64.3996 212.1 67.9996 212.1 67.9996Z" fill="#EFD9CE"/>
<path fill-rule="evenodd" clip-rule="evenodd" d="M214.2 64.9996C213.8 63.7996 208.9 58.3996 204.7 62.0996C201.9 64.5996 203 67.2996 204.4 68.8996C206.2 70.8996 208.7 71.5996 211.5 70.5996C214.2 69.6996 214.3 67.8996 214.5 67.2996C214.8 66.3996 214.5 65.7996 214.2 64.9996Z" fill="#EFD9CE"/>
<path fill-rule="evenodd" clip-rule="evenodd" d="M231 65.0996C231.4 63.8996 236.3 58.3996 240.5 62.1996C243.3 64.6996 242.3 67.3996 240.8 68.9996C239 70.9996 236.5 71.6996 233.7 70.6996C231 69.7996 230.9 67.9996 230.7 67.3996C230.4 66.4996 230.7 65.9996 231 65.0996Z" fill="#EFD9CE"/>
<path fill-rule="evenodd" clip-rule="evenodd" d="M215.8 58.6996C215.8 58.6996 223.9 63.0996 231.3 58.6996C231.3 58.6996 232.3 62.4996 234.4 61.9996L235.2 50.9996C235.2 50.9996 235 47.8996 231 47.6996C227.8 47.5996 214.7 47.0996 214.7 47.0996C214.7 47.0996 211 47.0996 210.9 50.8996C210.8 54.7996 210.7 61.8996 211.3 61.8996C213.4 61.8996 215.8 58.6996 215.8 58.6996Z" fill="#F1D7AD"/>
<path fill-rule="evenodd" clip-rule="evenodd" d="M219.3 72.1996C219.4 72.2996 222.7 73.9996 224.5 74.5996C225.1 74.7996 223.4 76.7996 221.4 76.0996C219.3 75.3996 218.7 71.8996 219.3 72.1996Z" fill="white"/>
<path d="M223.5 68.6996C223.5 68.6996 225.1 69.4996 224.8 70.6996C224.5 71.7996 223.3 71.6996 222.5 71.4996" stroke="#424D51" stroke-width="0.729" stroke-linecap="round" stroke-linejoin="round"/>
<path d="M226.1 67.4997C226.1 67.4997 227.1 66.1997 228.8 66.0997C229.9 65.9997 231.3 66.4997 231.8 67.5997" stroke="#424D51" stroke-width="0.729" stroke-linecap="round" stroke-linejoin="round"/>
<path d="M215 67.4996C215 67.4996 216 66.1996 217.7 66.0996C219 65.9996 220.2 66.4996 220.7 67.6996" stroke="#424D51" stroke-width="0.729" stroke-linecap="round" stroke-linejoin="round"/>
<path d="M235.3 65.7997C235.8 65.6997 236.9 65.6997 237.5 66.0997M237.6 63.8997C237.6 63.8997 236.3 64.2997 235.4 65.7997L237.6 63.8997ZM234.6 67.2997C234.8 66.6997 235 66.1997 235.3 65.7997L234.6 67.2997Z" stroke="#424D51" stroke-width="0.729" stroke-linecap="round" stroke-linejoin="round"/>
<path d="M211.1 65.6996C210.6 65.5996 209.5 65.5996 208.9 65.9996M208.8 63.7996C208.8 63.7996 210.1 64.1996 211 65.6996L208.8 63.7996ZM211.8 67.1996C211.6 66.5996 211.4 66.0996 211.1 65.6996L211.8 67.1996Z" stroke="#424D51" stroke-width="0.729" stroke-linecap="round" stroke-linejoin="round"/>
<path fill-rule="evenodd" clip-rule="evenodd" d="M178.899 151.5C177.299 152.5 176.299 154.3 176.299 156.2L175.799 168.4C175.799 168.7 176.199 168.9 176.399 168.6C177.499 167.5 179.999 165.3 183.099 164.5C190.099 162.6 197.199 161.7 213.399 162C229.499 162.3 238.699 163.9 244.099 165C248.799 166 251.099 168.4 252.299 170.1C252.499 170.4 253.199 170.2 253.299 169.9L253.599 158.2C253.599 156.3 252.799 154.5 251.199 153.6C248.399 152.1 243.099 149.8 234.599 148.8C218.299 146.8 210.399 146.6 195.399 147.5C187.899 148 183.199 148.9 178.899 151.5Z" fill="#CBE4FC"/>
<path d="M184.4 149.199V153.899" stroke="#EFD9CE" stroke-linecap="round" stroke-linejoin="round"/>
<path d="M178.201 151.6V156.3" stroke="#EFD9CE" stroke-linecap="round" stroke-linejoin="round"/>
<path d="M192.5 147.9V152.6" stroke="#EFD9CE" stroke-linecap="round" stroke-linejoin="round"/>
<path d="M201.6 147.1V151.8" stroke="#EFD9CE" stroke-linecap="round" stroke-linejoin="round"/>
<path d="M211.1 146.9V151.6" stroke="#EFD9CE" stroke-linecap="round" stroke-linejoin="round"/>
<path d="M220.799 147.1V151.8" stroke="#EFD9CE" stroke-linecap="round" stroke-linejoin="round"/>
<path d="M230 147.9V152.6" stroke="#EFD9CE" stroke-linecap="round" stroke-linejoin="round"/>
<path d="M238.6 149.5V154.2" stroke="#EFD9CE" stroke-linecap="round" stroke-linejoin="round"/>
<path d="M245.6 151.199V155.899" stroke="#EFD9CE" stroke-linecap="round" stroke-linejoin="round"/>
<path d="M250.799 153.5V158.2" stroke="#EFD9CE" stroke-linecap="round" stroke-linejoin="round"/>
<path d="M119.547 378.078H52.3456C39.908 348.227 68.778 351.478 76.0142 358.545C69.646 350.199 69.6217 326.617 83.1618 321.273C107.185 311.79 116.701 353.698 119.547 378.078Z" fill="#F8F8F8"/>
</svg>
