<svg width="886" height="424" viewBox="0 0 886 424" fill="none" xmlns="http://www.w3.org/2000/svg">
<path d="M127.129 167.868H350.176C350.176 167.431 347.135 164.671 334.974 157.122C321.26 148.61 314.705 153.846 312.171 156.205C310.138 158.098 308.502 158.799 295.921 151.88C280.195 143.231 267.646 139.727 254.509 145.852C248.612 148.601 240.487 133.4 234.59 127.371C230.735 123.431 206.63 93.8639 182.039 91.8569C140.941 88.5027 134.206 144.629 127.129 167.868Z" fill="#F8F8F8"/>
<path d="M780.358 92.1433L472.129 108.13C480.866 101.315 495.796 87.687 505.022 85.5902C516.555 82.9692 521.535 88.8664 531.232 88.8664C538.702 88.8664 547.745 74.1888 558.753 66.0637C567.559 59.5637 579.284 60.3404 581.555 63.0488C585.136 67.3178 590.598 69.471 597.413 63.0488C609.964 51.22 625.093 36.5265 639.217 29.3688C668.179 14.6922 694.006 34.413 700.942 40.5083C718.24 55.7113 727.047 83.1256 740.257 76.6795C762.011 66.0637 779.484 86.7266 780.358 92.1433Z" fill="#F8F8F8"/>
<path fill-rule="evenodd" clip-rule="evenodd" d="M638.83 320.63C651.63 300.83 679.03 256.23 679.03 236.43C679.03 210.73 658.13 189.83 632.43 189.83C606.73 189.83 585.83 210.73 585.83 236.43C585.83 256.13 613.23 300.83 626.03 320.63C629.03 325.43 635.83 325.43 638.83 320.63ZM632.43 255.93C642.63 255.93 651.03 247.63 651.03 237.43C651.03 227.23 642.73 218.83 632.43 218.83C622.13 218.83 613.93 227.13 613.93 237.43C613.93 247.63 622.23 255.93 632.43 255.93Z" fill="#ECECEC"/>
<path fill-rule="evenodd" clip-rule="evenodd" d="M263.3 371.309C272.5 357.009 292.4 324.709 292.4 310.409C292.4 291.809 277.3 276.709 258.7 276.709C240.1 276.709 225 291.809 225 310.409C225 324.709 244.8 357.009 254.1 371.309C256.3 374.709 261.1 374.709 263.3 371.309ZM258.7 324.509C266.1 324.509 272.1 318.509 272.1 311.109C272.1 303.709 266.1 297.709 258.7 297.709C251.3 297.709 245.3 303.709 245.3 311.109C245.3 318.509 251.3 324.509 258.7 324.509Z" fill="#ECECEC"/>
<ellipse cx="258.7" cy="386.25" rx="33.7" ry="3.5" fill="#F8F8F8"/>
<ellipse cx="632.43" cy="360.891" rx="33.7" ry="3.5" fill="#F8F8F8"/>
<path fill-rule="evenodd" clip-rule="evenodd" d="M574.829 116.44C574.829 116.44 572.529 114.24 573.529 110.04C574.229 106.94 580.229 90.1399 582.729 82.3399C583.629 79.5399 586.129 77.6399 588.929 77.3399L603.829 75.9399C606.329 75.7399 608.229 78.0399 607.529 80.3399L596.529 115.34L574.829 116.44Z" fill="#424D51"/>
<path d="M573.029 117.141C570.929 119.441 563.429 134.441 563.429 134.441C563.329 125.341 546.829 98.6407 526.629 100.741C518.529 102.441 519.229 112.641 520.929 129.241C521.429 133.841 521.329 139.341 521.329 145.241C521.129 166.341 519.429 187.641 543.329 194.941C556.029 198.841 566.629 194.041 574.029 183.341C586.529 165.341 589.529 142.941 596.729 122.741C599.529 114.841 603.229 102.541 606.129 90.0407C606.929 86.6407 601.329 84.8407 598.429 97.6407C598.429 97.6407 593.929 88.8407 589.829 90.7407C587.729 92.1407 589.329 94.9407 589.329 94.9407C589.329 94.9407 586.629 92.0407 584.329 94.1407C582.329 95.9407 585.929 100.941 585.929 100.941C585.929 100.941 585.029 100.141 583.329 100.941C581.529 102.041 581.629 104.041 583.129 106.841C584.429 109.141 586.629 114.041 586.629 114.041C586.629 114.041 575.029 112.941 573.029 117.141Z" fill="#D9A48A"/>
<path d="M543.83 150.74L558.03 146.14L563.93 133.24C561.03 125.94 557.43 117.64 550.43 110.14C543.13 102.34 532.83 100.34 528.93 100.34V101.34L543.83 150.74Z" fill="#BA79E2"/>
<path d="M593.03 112.84C593.03 112.84 589.63 104.14 585.83 100.74" stroke="#424D51" stroke-linecap="round" stroke-linejoin="round"/>
<path d="M597.129 108.741C597.129 108.741 593.329 98.6406 589.029 94.6406" stroke="#424D51" stroke-linecap="round" stroke-linejoin="round"/>
<path d="M600.929 104.241C599.629 100.041 598.829 98.7414 597.229 95.9414" stroke="#424D51" stroke-linecap="round" stroke-linejoin="round"/>
<path d="M548.83 168.241C548.83 168.241 559.13 140.941 567.33 127.441" stroke="#424D51" stroke-linecap="round" stroke-linejoin="round"/>
<path d="M513.031 362.941L547.831 360.641C547.131 322.241 546.431 283.841 545.331 245.341C545.331 233.541 544.231 221.541 543.531 209.841C542.931 199.441 543.131 188.041 540.531 177.741C539.731 174.641 483.931 173.141 482.831 174.341C479.931 177.141 478.131 181.541 476.331 185.041C473.131 191.241 470.031 197.441 467.031 203.741C461.531 215.241 456.031 226.841 451.031 238.541C446.831 248.441 442.131 259.641 442.131 270.541C442.231 280.241 456.331 362.941 456.331 362.941L491.031 359.441C491.031 359.441 481.131 281.241 479.731 270.041C479.331 266.641 482.431 261.441 483.731 258.441C487.731 248.541 492.331 238.941 496.931 229.341C498.831 225.541 500.631 221.641 502.531 217.841C503.131 216.641 505.231 213.841 505.131 212.441C508.131 262.641 511.031 312.741 513.031 362.941Z" fill="#C7E7DA"/>
<path fill-rule="evenodd" clip-rule="evenodd" d="M490.429 349.541L454.229 352.941L456.729 366.041L492.529 363.741L490.429 349.541Z" fill="#B68674"/>
<path fill-rule="evenodd" clip-rule="evenodd" d="M511.93 351.34L548.13 350.34V363.64L512.53 364.14L511.93 351.34Z" fill="#B68674"/>
<path fill-rule="evenodd" clip-rule="evenodd" d="M489.93 361.04C489.93 361.04 493.53 361.24 493.93 364.14C494.13 366.04 493.13 367.04 492.03 367.84C492.03 367.84 493.63 368.84 494.93 371.34C496.33 373.84 498.53 378.64 497.23 381.74C496.63 383.14 461.13 381.64 461.13 381.64L423.83 382.14C423.83 382.14 425.33 374.74 433.93 372.54C441.63 370.54 443.33 370.44 447.13 370.04C449.53 369.74 451.43 368.74 452.43 366.84C453.93 363.94 454.73 362.44 458.63 361.54C461.63 360.74 484.83 360.24 489.93 361.04Z" fill="#80CAB3"/>
<path fill-rule="evenodd" clip-rule="evenodd" d="M497.331 381.941C498.431 380.841 490.931 369.841 482.831 369.041C475.331 368.341 470.031 374.841 465.131 376.041C461.931 376.841 456.931 376.841 452.631 376.841C450.731 376.841 426.731 376.941 426.731 376.941C426.731 376.941 421.031 381.141 423.631 383.341C425.031 384.641 496.331 383.041 497.331 381.941Z" fill="#957FEF"/>
<path fill-rule="evenodd" clip-rule="evenodd" d="M514.63 361.94C514.63 361.94 511.13 362.14 510.73 365.04C510.53 366.94 511.63 367.94 512.63 368.74C512.63 368.74 511.03 369.74 509.73 372.34C508.43 374.84 506.23 379.64 507.53 382.74C508.13 384.14 543.63 382.24 543.63 382.24L580.93 382.44C580.93 382.44 579.33 375.04 570.73 372.94C563.03 371.04 561.33 370.94 557.53 370.54C555.13 370.34 553.13 369.34 552.13 367.34C550.63 364.44 549.03 363.24 545.83 362.04C540.93 360.24 519.83 361.04 514.63 361.94Z" fill="#80CAB3"/>
<path fill-rule="evenodd" clip-rule="evenodd" d="M507.529 382.941C506.429 381.841 513.829 370.741 521.929 369.941C529.429 369.141 534.829 375.641 539.729 376.741C542.929 377.441 547.929 377.441 552.229 377.441C554.129 377.441 578.129 377.341 578.129 377.341C578.129 377.341 583.829 381.441 581.329 383.741C579.829 384.941 508.529 383.941 507.529 382.941Z" fill="#957FEF"/>
<path fill-rule="evenodd" clip-rule="evenodd" d="M484.429 127.14C484.429 127.14 482.429 170.64 482.629 174.54C482.829 178.34 541.029 178.74 541.029 178.74C541.029 178.74 546.729 144.94 546.529 132.24C546.429 125.74 540.529 99.1402 526.229 100.24C516.229 101.04 499.729 99.5402 488.629 105.54C484.129 107.94 484.429 127.14 484.429 127.14Z" fill="#BA79E2"/>
<path d="M540.729 178.641C540.729 178.641 547.629 151.141 545.629 127.541" stroke="#424D51" stroke-linecap="round" stroke-linejoin="round"/>
<path d="M496.029 116.941C486.929 110.941 481.229 101.041 461.029 108.241C450.229 112.141 437.929 115.441 420.529 122.641C420.529 122.641 389.529 132.541 391.029 156.341C392.029 172.641 447.629 218.541 454.029 221.941C454.029 221.941 454.129 221.941 454.129 222.041C456.729 224.241 459.729 226.241 463.029 227.741C464.629 228.441 470.129 229.141 471.229 224.941C471.229 224.941 475.029 225.741 476.929 224.441C478.429 223.441 478.329 222.341 478.329 222.341C478.329 222.341 480.629 222.441 482.129 220.941C483.929 219.341 483.329 218.541 483.329 218.541C483.329 218.541 486.529 218.641 486.929 216.041C487.229 213.541 484.629 212.241 476.729 208.441C473.029 206.641 468.229 202.341 468.229 202.341L471.129 196.141C471.129 196.141 462.729 194.641 458.229 195.041C458.129 195.041 458.029 194.941 457.829 194.941C451.229 189.441 427.929 157.341 428.129 155.041C428.129 155.041 452.029 147.341 465.129 142.141C484.129 137.341 501.429 124.341 496.029 116.941Z" fill="#D9A48A"/>
<path d="M425.929 198.541C434.029 206.541 447.229 218.341 456.729 224.041" stroke="#424D51" stroke-linecap="round" stroke-linejoin="round"/>
<path d="M472.129 205.241C471.029 204.341 468.429 201.941 466.629 200.241" stroke="#424D51" stroke-linecap="round" stroke-linejoin="round"/>
<path d="M465.929 211.441C465.929 211.441 476.829 219.341 483.429 218.941" stroke="#424D51" stroke-linecap="round" stroke-linejoin="round"/>
<path d="M462.429 216.341C462.429 216.341 472.829 222.641 478.929 222.741" stroke="#424D51" stroke-linecap="round" stroke-linejoin="round"/>
<path d="M459.529 221.141C459.529 221.141 466.929 225.341 471.129 225.741" stroke="#424D51" stroke-linecap="round" stroke-linejoin="round"/>
<path d="M449.429 109.541L460.929 145.441L486.229 140.441C496.029 129.641 520.529 105.741 508.729 101.741C496.829 97.6413 460.929 105.841 449.429 109.541Z" fill="#BA79E2"/>
<path d="M418.329 144.941C418.329 144.941 426.729 153.141 428.029 155.041" stroke="#424D51" stroke-linecap="round" stroke-linejoin="round"/>
<path fill-rule="evenodd" clip-rule="evenodd" d="M504.029 105.04C501.229 109.74 526.429 115.14 528.529 108.34C528.629 102.84 528.829 99.6401 529.329 89.7401C529.529 84.5401 523.929 84.8401 520.929 84.5401C515.329 83.9401 513.029 89.7401 513.029 89.7401C513.029 89.7401 505.729 102.24 504.029 105.04Z" fill="#D9A48A"/>
<path fill-rule="evenodd" clip-rule="evenodd" d="M513.729 85.2402C513.329 87.0402 513.129 94.9402 518.729 99.1402C523.229 102.44 528.729 101.94 528.729 101.94C528.729 101.94 529.529 91.9402 529.529 90.9402C529.429 90.0402 514.029 83.9402 513.729 85.2402Z" fill="#424D51"/>
<path fill-rule="evenodd" clip-rule="evenodd" d="M512.029 79.0401C512.029 79.0401 511.729 95.0401 521.229 96.5401C530.729 98.0401 532.929 90.2401 533.129 89.7401C533.329 89.1401 535.129 75.5401 533.429 71.2401C531.729 66.9401 526.329 60.8401 519.129 62.4401C511.929 64.0401 511.029 68.9401 510.829 73.1401C510.729 75.4401 512.029 79.0401 512.029 79.0401Z" fill="#D9A48A"/>
<path fill-rule="evenodd" clip-rule="evenodd" d="M514.029 76.0401C513.629 74.8401 508.729 69.4401 504.529 73.1401C501.729 75.6401 502.729 78.4401 504.229 79.9401C506.029 81.9401 508.529 82.6401 511.329 81.6401C514.029 80.6401 514.129 78.9401 514.329 78.3401C514.729 77.4401 514.329 76.8401 514.029 76.0401Z" fill="#D9A48A"/>
<path fill-rule="evenodd" clip-rule="evenodd" d="M530.829 76.1401C531.229 74.9401 536.129 69.4401 540.329 73.2401C543.129 75.7401 542.129 78.4401 540.629 80.0401C538.829 82.0401 536.329 82.7401 533.529 81.7401C530.829 80.8401 530.729 79.0401 530.529 78.4401C530.229 77.5401 530.529 76.9401 530.829 76.1401Z" fill="#D9A48A"/>
<path fill-rule="evenodd" clip-rule="evenodd" d="M519.229 83.0402C519.329 83.1402 522.629 84.8402 524.429 85.4402C525.029 85.6402 523.329 87.6402 521.329 86.9402C519.229 86.2402 518.629 82.8402 519.229 83.0402Z" fill="white"/>
<path d="M523.429 79.5402C523.429 79.5402 525.029 80.3402 524.829 81.5402C524.629 82.7402 523.329 82.5402 522.429 82.3402" stroke="#424D51" stroke-width="0.729" stroke-linecap="round" stroke-linejoin="round"/>
<path d="M525.929 77.7401C525.929 77.7401 526.929 76.1401 528.629 75.9401C530.329 75.8401 531.129 76.7401 531.629 77.8401" stroke="#424D51" stroke-width="0.729" stroke-linecap="round" stroke-linejoin="round"/>
<path d="M528.229 76.3401C528.729 75.9401 529.429 76.1401 529.829 76.6401C530.229 77.1401 530.129 77.8401 529.529 78.2401C529.029 78.6401 528.329 78.5401 527.929 77.9401C527.529 77.4401 527.629 76.7401 528.229 76.3401Z" stroke="#424D51" stroke-width="0.729" stroke-linecap="round" stroke-linejoin="round"/>
<path d="M514.829 77.7401C514.829 77.7401 515.829 76.1401 517.529 75.9401C519.229 75.8401 520.029 76.7401 520.529 77.8401" stroke="#424D51" stroke-width="0.729" stroke-linecap="round" stroke-linejoin="round"/>
<path d="M517.129 76.3401C517.629 75.9401 518.329 76.1401 518.729 76.6401C519.129 77.1401 519.029 77.8401 518.429 78.2401C517.929 78.6401 517.229 78.5401 516.829 77.9401C516.429 77.4401 516.629 76.7401 517.129 76.3401Z" stroke="#424D51" stroke-width="0.729" stroke-linecap="round" stroke-linejoin="round"/>
<path d="M535.229 76.6402C535.729 76.5402 536.829 76.5402 537.429 76.9402M537.429 74.8402C537.429 74.8402 536.129 75.2402 535.229 76.7402L537.429 74.8402ZM534.529 78.1402C534.729 77.5402 534.929 77.0402 535.229 76.6402L534.529 78.1402Z" stroke="#424D51" stroke-width="0.729" stroke-linecap="round" stroke-linejoin="round"/>
<path d="M510.929 76.5401C510.429 76.4401 509.329 76.4401 508.729 76.8401M508.629 74.7401C508.629 74.7401 509.929 75.1401 510.829 76.6401L508.629 74.7401ZM511.629 78.0401C511.429 77.4401 511.229 76.9401 510.929 76.5401L511.629 78.0401Z" stroke="#424D51" stroke-width="0.729" stroke-linecap="round" stroke-linejoin="round"/>
<path fill-rule="evenodd" clip-rule="evenodd" d="M515.629 69.7402C515.629 69.7402 522.929 74.3402 530.429 69.9402C530.529 69.9402 531.629 73.2402 534.029 73.0402C534.029 73.0402 537.829 60.3402 522.929 60.0402C509.329 59.7402 510.329 73.0402 511.029 73.0402C513.329 72.9402 515.629 69.7402 515.629 69.7402Z" fill="#D6D6D6"/>
<path d="M484.229 142.041L489.829 125.141" stroke="#424D51" stroke-linecap="round" stroke-linejoin="round"/>
<path fill-rule="evenodd" clip-rule="evenodd" d="M345.8 361.54L380.6 360.14C380.9 332.84 381.1 305.44 381.2 278.14C381.3 266.14 381.4 254.24 381.2 242.24C381.1 235.44 381.1 227.74 378.1 221.44C373.5 211.54 362.3 211.04 352.7 212.24C342.3 213.64 342.2 227.44 342.6 237.44C343 245.94 344.3 263.94 344.4 271.24C344.8 282.64 345.8 361.54 345.8 361.54Z" fill="#E5CDF4"/>
<path fill-rule="evenodd" clip-rule="evenodd" d="M345.1 327.639L382.1 326.939L380.8 363.139L345.2 362.639L345.1 327.639Z" fill="#DCBEF0"/>
<path fill-rule="evenodd" clip-rule="evenodd" d="M347.901 361.64C347.901 361.64 344.401 361.94 344.001 364.84C343.801 366.74 344.901 367.74 345.901 368.54C345.901 368.54 344.301 369.54 343.001 372.14C341.701 374.74 339.501 379.44 340.801 382.54C341.401 383.94 376.901 381.84 376.901 381.84L414.201 381.74C414.201 381.74 412.601 374.34 404.001 372.24C396.301 370.34 394.601 370.34 390.801 369.94C388.401 369.74 386.401 368.74 385.401 366.84C383.901 363.94 382.201 362.74 379.101 361.64C374.201 359.74 353.101 360.74 347.901 361.64Z" fill="#C5B0F0"/>
<path fill-rule="evenodd" clip-rule="evenodd" d="M340.901 382.64C339.801 381.54 347.101 370.44 355.201 369.54C362.701 368.64 368.101 375.14 373.001 376.24C376.201 376.94 381.201 376.84 385.501 376.84C387.401 376.84 411.401 376.54 411.401 376.54C411.401 376.54 417.101 380.64 414.601 382.94C413.201 384.24 341.901 383.74 340.901 382.64Z" fill="#9F78BA"/>
<path fill-rule="evenodd" clip-rule="evenodd" d="M377.001 373.04C374.901 373.34 373.001 372.04 372.701 370.04C372.401 368.04 373.701 366.14 375.801 365.84C377.901 365.54 379.801 366.84 380.101 368.84C380.401 370.74 379.101 372.64 377.001 373.04Z" fill="#DCBEF0"/>
<path fill-rule="evenodd" clip-rule="evenodd" d="M319.399 362.039L354.199 360.639C354.399 334.839 354.499 309.039 354.899 283.339C355.099 271.839 354.799 260.439 354.799 248.939C354.799 241.939 354.999 234.639 353.499 227.739C350.499 213.839 339.099 211.139 326.299 212.839C315.999 214.139 315.899 228.039 316.299 238.039C318.099 277.239 318.799 316.439 319.299 355.639C319.399 357.839 319.399 359.939 319.399 362.039Z" fill="#E5CDF4"/>
<path fill-rule="evenodd" clip-rule="evenodd" d="M318.6 328.139L355.6 327.439L354.3 363.639L318.7 363.139L318.6 328.139Z" fill="#DCBEF0"/>
<path fill-rule="evenodd" clip-rule="evenodd" d="M321.499 362.14C321.499 362.14 317.999 362.44 317.599 365.34C317.399 367.24 318.499 368.24 319.499 369.04C319.499 369.04 317.899 370.04 316.599 372.64C315.299 375.24 313.099 379.94 314.399 383.04C314.999 384.44 350.499 382.34 350.499 382.34L387.799 382.24C387.799 382.24 386.199 374.84 377.599 372.74C369.899 370.84 368.199 370.84 364.399 370.44C361.999 370.24 359.999 369.24 358.999 367.34C357.499 364.44 355.799 363.24 352.699 362.14C347.799 360.24 326.599 361.24 321.499 362.14Z" fill="#C5B0F0"/>
<path fill-rule="evenodd" clip-rule="evenodd" d="M314.499 383.239C313.399 382.139 320.699 371.039 328.799 370.139C336.299 369.339 341.699 375.739 346.699 376.839C349.899 377.539 354.899 377.439 359.199 377.439C361.099 377.439 385.099 377.139 385.099 377.139C385.099 377.139 390.799 381.239 388.299 383.539C386.799 384.739 315.499 384.239 314.499 383.239Z" fill="#9F78BA"/>
<path fill-rule="evenodd" clip-rule="evenodd" d="M350.599 373.54C348.499 373.94 346.599 372.54 346.299 370.54C345.999 368.54 347.299 366.64 349.399 366.34C351.499 365.94 353.399 367.34 353.699 369.34C353.999 371.34 352.599 373.24 350.599 373.54Z" fill="#DCBEF0"/>
<path d="M388.2 383.34C390.8 381.44 386.7 376.04 377.8 373.04C367.8 369.64 361 371.84 359.8 368.84C358 364.24 354.4 362.24 354.4 362.24L356.2 241.34" stroke="#424D51" stroke-linecap="round" stroke-linejoin="round"/>
<path fill-rule="evenodd" clip-rule="evenodd" d="M365.5 96.7404C365.5 96.7404 372 87.1404 362.1 79.0404C356 74.0404 359 70.5404 358.2 66.9404C357.8 64.9404 355.7 68.1404 354.8 62.3404C353 50.1404 345.7 46.6404 336.2 50.6404C330.2 53.2404 329.5 58.5404 328.4 62.5404C327.1 67.1404 323.4 71.9404 318.6 73.2404C312.4 74.9404 297.9 82.1404 306.3 96.0404C308 98.7404 314.5 107.64 318.6 107.34C322.7 107.04 343.1 96.5404 343.1 96.5404L365.5 96.7404Z" fill="#89716E"/>
<path fill-rule="evenodd" clip-rule="evenodd" d="M358.599 96.8396C347.799 92.6396 332.599 94.6396 332.799 109.04C332.799 111.64 332.699 115.14 332.599 119.14C332.099 136.94 331.299 165.34 339.899 177.84C354.999 199.74 373.999 191.44 380.599 184.04C387.599 176.24 391.799 165.74 395.799 156.24C400.899 143.94 404.599 131.24 408.699 118.54C409.099 117.24 409.499 115.84 409.999 114.54C409.999 114.44 410.099 114.44 410.299 114.44C410.899 114.34 412.499 114.04 413.899 109.04C414.799 105.84 414.999 103.44 412.199 102.64C410.599 102.14 409.299 103.14 409.299 103.14C409.299 103.14 409.299 100.74 407.299 99.8396C405.899 99.2396 404.399 99.5396 404.399 99.5396C404.399 99.5396 403.499 98.3396 402.399 98.0396C401.299 97.7396 399.999 98.2396 399.999 98.2396C399.999 98.2396 399.099 96.7396 396.199 96.9396C392.099 97.3396 391.499 100.14 391.499 100.14C391.499 100.14 389.999 97.5396 387.699 98.5396C385.399 99.5396 385.699 102.34 385.999 105.74C386.199 107.44 386.399 109.34 386.199 111.14C385.799 116.44 381.599 121.64 379.399 126.34C377.999 129.24 375.099 133.44 374.699 136.74C374.499 136.54 378.299 104.44 358.599 96.8396Z" fill="#FDDCC4"/>
<path d="M390.5 99.1406C392.6 100.841 391.9 105.441 392.7 107.941C393.4 110.341 396.5 111.741 395 117.641" stroke="#424D51" stroke-linecap="round" stroke-linejoin="round"/>
<path d="M399.301 97.7402C399.301 97.7402 407.901 107.04 406.601 110.84C405.501 114.04 400.101 112.74 396.701 105.34" stroke="#424D51" stroke-linecap="round" stroke-linejoin="round"/>
<path d="M409.2 103.141C409.2 103.141 406.8 109.641 406.9 112.041C407 114.141 410.4 116.041 412 112.841" stroke="#424D51" stroke-linecap="round" stroke-linejoin="round"/>
<path d="M395.701 109.439C395.701 109.439 397.601 108.539 398.101 107.939" stroke="#424D51" stroke-linecap="round" stroke-linejoin="round"/>
<path d="M404.6 99.4395C404.6 99.4395 406 101.539 405.2 105.439" stroke="#424D51" stroke-linecap="round" stroke-linejoin="round"/>
<path fill-rule="evenodd" clip-rule="evenodd" d="M321.6 182.04L373.2 178.34C373.2 178.34 384.7 112.34 366.7 99.5404C357 92.6404 344.6 93.4404 330.4 96.3404C324.1 97.6404 313.9 98.2404 313.9 106.94C314 114.54 321.6 182.04 321.6 182.04Z" fill="#E5CDF4"/>
<path d="M373.299 174.739C373.299 174.739 375.799 147.439 373.799 129.539" stroke="#424D51" stroke-linecap="round" stroke-linejoin="round"/>
<path fill-rule="evenodd" clip-rule="evenodd" d="M307.9 243.04C337.6 246.74 381.8 236.64 384.9 234.54C385.8 234.24 377.9 169.64 373.1 170.34C356.8 172.84 323.3 172.34 319.8 175.14C314.9 179.24 313.5 195.94 313 199.04C311.8 207.04 307.9 243.04 307.9 243.04Z" fill="#ECDDF6"/>
<mask id="mask0_12_6410" style="mask-type:alpha" maskUnits="userSpaceOnUse" x="307" y="170" width="78" height="74">
<path fill-rule="evenodd" clip-rule="evenodd" d="M307.9 243.04C337.6 246.74 381.8 236.64 384.9 234.54C385.8 234.24 377.9 169.64 373.1 170.34C356.8 172.84 323.3 172.34 319.8 175.14C314.9 179.24 313.5 195.94 313 199.04C311.8 207.04 307.9 243.04 307.9 243.04Z" fill="#ECDDF6"/>
</mask>
<g mask="url(#mask0_12_6410)">
<circle cx="361.631" cy="206.742" r="3" fill="white"/>
<circle cx="361.631" cy="232.742" r="3" fill="white"/>
<circle cx="361.631" cy="180.742" r="3" fill="white"/>
<circle cx="315.131" cy="206.742" r="3" fill="white"/>
<circle cx="315.131" cy="232.742" r="3" fill="white"/>
<circle cx="315.131" cy="180.742" r="3" fill="white"/>
<circle cx="355.631" cy="219.742" r="3" fill="white"/>
<circle cx="355.631" cy="167.742" r="3" fill="white"/>
<circle cx="355.631" cy="245.742" r="3" fill="white"/>
<circle cx="355.631" cy="193.742" r="3" fill="white"/>
<circle cx="309.131" cy="219.742" r="3" fill="white"/>
<circle cx="309.131" cy="167.742" r="3" fill="white"/>
<circle cx="309.131" cy="245.742" r="3" fill="white"/>
<circle cx="309.131" cy="193.742" r="3" fill="white"/>
<circle cx="377.131" cy="206.742" r="3" fill="white"/>
<circle cx="377.131" cy="232.742" r="3" fill="white"/>
<circle cx="377.131" cy="180.742" r="3" fill="white"/>
<circle cx="330.631" cy="206.742" r="3" fill="white"/>
<circle cx="330.631" cy="232.742" r="3" fill="white"/>
<circle cx="330.631" cy="180.742" r="3" fill="white"/>
<circle cx="371.131" cy="219.742" r="3" fill="white"/>
<circle cx="371.131" cy="167.742" r="3" fill="white"/>
<circle cx="371.131" cy="245.742" r="3" fill="white"/>
<circle cx="371.131" cy="193.742" r="3" fill="white"/>
<circle cx="324.631" cy="219.742" r="3" fill="white"/>
<circle cx="324.631" cy="167.742" r="3" fill="white"/>
<circle cx="324.631" cy="245.742" r="3" fill="white"/>
<circle cx="324.631" cy="193.742" r="3" fill="white"/>
<circle cx="346.131" cy="206.742" r="3" fill="white"/>
<circle cx="346.131" cy="232.742" r="3" fill="white"/>
<circle cx="346.131" cy="180.742" r="3" fill="white"/>
<circle cx="386.631" cy="219.742" r="3" fill="white"/>
<circle cx="386.631" cy="167.742" r="3" fill="white"/>
<circle cx="386.631" cy="245.742" r="3" fill="white"/>
<circle cx="386.631" cy="193.742" r="3" fill="white"/>
<circle cx="340.131" cy="219.742" r="3" fill="white"/>
<circle cx="340.131" cy="167.742" r="3" fill="white"/>
<circle cx="340.131" cy="245.742" r="3" fill="white"/>
<circle cx="340.131" cy="193.742" r="3" fill="white"/>
</g>
<path fill-rule="evenodd" clip-rule="evenodd" d="M355.351 122.696C355.351 122.696 353.051 120.496 354.051 116.296C354.751 113.196 360.751 96.3958 363.251 88.5958C364.151 85.7958 366.651 83.8958 369.451 83.5958L384.351 82.1958C386.851 81.9958 388.751 84.2958 388.051 86.5958L377.051 121.596L355.351 122.696Z" fill="#424D51"/>
<path d="M371.101 136.141C364.101 152.541 355.801 167.941 346.201 183.141C341.001 191.441 334.001 196.541 323.901 195.541C314.101 194.641 307.201 187.441 304.101 178.441C297.301 158.341 292.101 136.941 295.601 121.641C299.101 106.441 309.901 99.0409 321.601 99.1409C328.601 99.1409 327.101 112.241 326.001 121.641C325.501 125.641 325.201 128.941 325.501 130.441C327.601 139.341 328.401 157.441 328.401 157.441L349.301 123.041C347.801 117.941 347.901 111.141 347.901 107.441C347.901 107.341 347.901 107.341 347.901 107.241C348.001 103.841 348.401 102.641 350.501 102.341C352.601 102.041 353.701 104.141 354.001 105.141C354.801 108.441 355.801 111.941 355.801 111.941C355.801 111.941 365.301 94.4409 370.501 97.6409C371.801 98.4409 372.101 101.441 369.601 105.141C366.901 109.141 364.501 113.241 364.901 112.941C366.601 111.641 370.501 110.441 373.401 110.941C378.001 111.741 377.001 116.441 377.001 116.441C377.001 116.441 380.401 117.441 380.201 121.041C380.101 122.341 379.301 124.641 379.301 124.641C379.301 124.641 380.301 126.241 379.401 129.141C378.901 130.841 377.201 135.941 375.101 135.741C371.901 135.441 372.901 131.641 373.401 130.141C373.301 130.341 373.401 130.241 373.401 130.141C372.801 132.241 372.001 134.241 371.101 136.141Z" fill="#FDDCC4"/>
<path d="M325.581 161.7L328.234 157.17L325.185 156.688" stroke="#424D51" stroke-linecap="round" stroke-linejoin="round"/>
<path d="M295.199 148.541L328.399 142.341C328.399 131.841 331.299 107.141 331.299 99.8412C331.299 95.9412 320.399 95.2412 315.299 95.8412C311.099 96.3412 306.199 99.1411 303.199 101.641C292.399 110.641 292.599 135.141 295.199 148.541Z" fill="#E5CDF4"/>
<path d="M356.101 111.439C355.001 114.039 354.301 116.839 354.201 118.139" stroke="#424D51" stroke-linecap="round" stroke-linejoin="round"/>
<path d="M369.6 118.039C369.6 118.039 371.6 117.039 374.1 116.839C376.6 116.639 378.7 117.039 379.7 118.939" stroke="#424D51" stroke-linecap="round" stroke-linejoin="round"/>
<path d="M373.501 123.04C373.501 123.04 375.301 122.24 377.601 122.84C379.601 123.44 380.101 125.34 380.101 127.04C380.201 129.14 379.901 133.74 377.601 135.24C375.301 136.74 372.001 135.64 373.501 130.44" stroke="#424D51" stroke-linecap="round" stroke-linejoin="round"/>
<path d="M327.9 118.74C329.2 126.74 328.2 140.34 328.2 140.34" stroke="#424D51" stroke-linecap="round" stroke-linejoin="round"/>
<path fill-rule="evenodd" clip-rule="evenodd" d="M323.8 95.939C322.1 98.739 345.4 106.739 348.3 99.239C348.4 93.739 348.6 90.539 349.1 80.639C349.3 75.439 343.7 75.739 340.8 75.439C335.2 74.839 332.9 80.639 332.9 80.639C332.9 80.639 325.5 93.139 323.8 95.939Z" fill="#FDDCC4"/>
<path fill-rule="evenodd" clip-rule="evenodd" d="M333.5 76.139C333.1 77.939 332.9 85.839 338.5 90.039C343 93.339 348.5 92.739 348.5 92.739C348.5 92.739 349.3 82.839 349.3 81.839C349.2 81.039 333.8 74.839 333.5 76.139Z" fill="#424D51"/>
<path fill-rule="evenodd" clip-rule="evenodd" d="M331.8 69.9388C331.8 69.9388 331.5 85.9388 341 87.4388C350.5 88.9388 352.7 81.1388 352.9 80.6388C353.1 80.0388 354.9 66.4388 353.2 62.1388C351.5 57.8388 346.1 51.7388 338.9 53.3388C331.7 54.9388 330.8 59.8388 330.6 64.0388C330.5 66.4388 331.8 69.9388 331.8 69.9388Z" fill="#FDDCC4"/>
<path fill-rule="evenodd" clip-rule="evenodd" d="M333.8 67.0389C333.4 65.8389 328.5 60.4389 324.3 64.1389C321.5 66.6389 322.5 69.3389 324 70.9389C325.8 72.9389 328.3 73.6389 331.1 72.6389C333.8 71.7389 333.9 69.9389 334.2 69.3389C334.5 68.4389 334.1 67.8389 333.8 67.0389Z" fill="#FDDCC4"/>
<path fill-rule="evenodd" clip-rule="evenodd" d="M350.6 67.139C351 65.939 355.9 60.539 360.1 64.239C362.9 66.739 361.9 69.439 360.4 71.039C358.6 73.039 356.1 73.739 353.3 72.739C350.6 71.739 350.5 70.039 350.3 69.439C350 68.539 350.3 67.939 350.6 67.139Z" fill="#FDDCC4"/>
<path fill-rule="evenodd" clip-rule="evenodd" d="M335.4 60.6393C335.4 60.6393 343.5 65.0393 350.9 60.6393C351 60.6393 351.6 64.4393 353.7 63.9393C353.7 63.9393 353.3 52.4393 341.5 52.8393C329.6 53.2393 330 63.7393 330.8 63.8393C333 64.1393 335.4 60.6393 335.4 60.6393Z" fill="#89716E"/>
<path fill-rule="evenodd" clip-rule="evenodd" d="M338.6 74.2389C338.7 74.2389 342 76.0389 343.8 76.6389C344.4 76.8389 342.7 78.8389 340.7 78.1389C338.5 77.4389 337.9 73.9389 338.6 74.2389Z" fill="white"/>
<path d="M342.8 70.7393C342.8 70.7393 344.4 71.5393 344.1 72.7393C343.8 73.9393 342.6 73.7393 341.8 73.5393" stroke="#424D51" stroke-width="0.729" stroke-linecap="round" stroke-linejoin="round"/>
<path d="M345.3 68.939C345.3 68.939 346.3 67.339 348 67.139C349.7 67.039 350.5 67.939 351 69.039" stroke="#424D51" stroke-width="0.729" stroke-linecap="round" stroke-linejoin="round"/>
<path d="M347.5 67.4389C348 67.0389 348.7 67.2389 349.1 67.7389C349.5 68.2389 349.4 68.9389 348.8 69.3389C348.3 69.7389 347.6 69.6389 347.2 69.0389C346.9 68.5389 347 67.8389 347.5 67.4389Z" stroke="#424D51" stroke-width="0.729" stroke-linecap="round" stroke-linejoin="round"/>
<path d="M334.2 68.939C334.2 68.939 335.2 67.339 336.9 67.139C338.6 67.039 339.4 67.939 339.9 69.039" stroke="#424D51" stroke-width="0.729" stroke-linecap="round" stroke-linejoin="round"/>
<path d="M336.4 67.4389C336.9 67.0389 337.6 67.2389 338 67.7389C338.4 68.2389 338.3 68.9389 337.7 69.3389C337.2 69.7389 336.5 69.6389 336.1 69.0389C335.8 68.5389 335.9 67.8389 336.4 67.4389Z" stroke="#424D51" stroke-width="0.729" stroke-linecap="round" stroke-linejoin="round"/>
<path d="M354.5 67.839C355 67.739 356.1 67.739 356.7 68.139M356.8 65.939C356.8 65.939 355.5 66.339 354.6 67.839L356.8 65.939ZM353.8 69.339C354 68.739 354.2 68.239 354.5 67.839L353.8 69.339Z" stroke="#424D51" stroke-width="0.729" stroke-linecap="round" stroke-linejoin="round"/>
<path d="M330.2 67.7389C329.7 67.6389 328.6 67.6389 328 68.0389M328 65.8389C328 65.8389 329.3 66.2389 330.2 67.7389L328 65.8389ZM331 69.2389C330.8 68.6389 330.6 68.1389 330.3 67.7389L331 69.2389Z" stroke="#424D51" stroke-width="0.729" stroke-linecap="round" stroke-linejoin="round"/>
<path fill-rule="evenodd" clip-rule="evenodd" d="M330.8 42.0392C329.3 44.2392 329.1 48.0392 332.3 50.2392C335.6 52.5392 340 52.5392 342.5 47.4392C344 44.3392 342.1 40.5392 338.4 39.4392C335.9 38.6392 332.9 38.8392 330.8 42.0392Z" fill="#89716E"/>
</svg>
