<svg width="732" height="424" viewBox="0 0 732 424" fill="none" xmlns="http://www.w3.org/2000/svg">
<path fill-rule="evenodd" clip-rule="evenodd" d="M276.164 262.204C276.212 261.522 276.435 260.864 276.81 260.292L328.985 180.832C330.686 178.241 334.56 178.486 335.922 181.27L421.427 356.124C422.674 358.675 420.94 361.677 418.107 361.871L272.929 371.848C270.504 372.015 268.492 369.998 268.665 367.574L276.164 262.204Z" fill="#EDF6FF"/>
<path fill-rule="evenodd" clip-rule="evenodd" d="M458.938 376.132C462.681 376.143 464.388 371.467 461.518 369.065L429.643 342.379C428.124 341.107 425.903 341.139 424.421 342.453L404.355 360.247C402.401 361.98 399.338 361.406 398.144 359.083L379.942 323.677C378.54 320.95 374.716 320.75 373.037 323.316L350.835 357.247C349.077 359.934 345.03 359.559 343.795 356.596L259.548 154.44C258.217 151.246 253.733 151.134 252.245 154.258L149.716 369.465C148.454 372.115 150.38 375.176 153.315 375.186L458.938 376.132Z" fill="#DEEEFE"/>
<path fill-rule="evenodd" clip-rule="evenodd" d="M210.564 84.2807C208.214 81.3263 210.929 76.8703 214.657 77.4619C227.535 79.5053 248.909 81.8328 264.251 78.0752C279.276 74.3951 285.501 71.1639 306.001 71.1641C316.289 71.1642 332.501 75.3999 332.501 75.3999V119.7C332.501 119.7 308.751 110.164 291.001 113.914C279.904 116.258 271.242 118.362 256.126 119.7C246.377 120.563 225.017 119.818 212.717 119.273C209.219 119.119 207.644 114.867 210.176 112.448L223.126 100.075L210.564 84.2807Z" fill="#EDF6FF"/>
<path d="M529.899 349.565L495.399 354.565C489.699 305.765 484.399 257.365 474.099 209.265C473.399 206.265 445.399 207.165 442.499 207.065C439.599 206.965 405.599 206.165 405.699 207.365C406.999 218.565 412.599 290.865 412.599 290.865L377.799 293.965C377.799 293.965 361.699 200.065 363.599 190.565C367.399 171.165 391.699 169.165 405.399 169.265C422.699 169.365 440.199 168.965 457.499 168.165C473.099 167.365 507.899 165.565 508.699 168.065C513.299 181.765 513.899 197.665 515.799 211.865C521.799 257.565 525.499 303.665 529.899 349.565Z" fill="#EA7A79"/>
<path fill-rule="evenodd" clip-rule="evenodd" d="M410.2 258.164L372.1 261.064L377.9 296.864L414.3 295.064L410.2 258.164Z" fill="#FFDBD5"/>
<path fill-rule="evenodd" clip-rule="evenodd" d="M491.1 320.865L527.8 316.365L530.3 352.565L494.8 355.765L491.1 320.865Z" fill="#FFDBD5"/>
<path fill-rule="evenodd" clip-rule="evenodd" d="M411.3 292.365C411.3 292.365 414.8 292.665 415.2 295.465C415.4 297.365 414.3 298.365 413.3 299.165C413.3 299.165 414.9 300.165 416.2 302.765C417.6 305.365 419.7 310.065 418.4 313.165C417.8 314.565 382.3 312.565 382.3 312.565H345C345 312.565 346.6 305.165 355.2 303.065C362.9 301.165 364.6 301.165 368.4 300.765C370.8 300.465 372.8 299.565 373.8 297.565C375.3 294.665 377 293.465 380.1 292.365C385 290.565 406.1 291.465 411.3 292.365Z" fill="#FFB6A9"/>
<path fill-rule="evenodd" clip-rule="evenodd" d="M418.301 313.364C419.401 312.264 412.001 301.164 404.001 300.264C396.501 299.464 391.101 305.864 386.201 306.964C383.001 307.664 378.001 307.564 373.701 307.564C371.801 307.564 347.801 307.364 347.801 307.364C347.801 307.364 342.101 311.464 344.601 313.764C346.001 315.164 417.301 314.464 418.301 313.364Z" fill="#D9A48A"/>
<path fill-rule="evenodd" clip-rule="evenodd" d="M497.9 350.465C497.9 350.465 494.3 350.665 493.9 353.565C493.6 355.465 494.7 356.565 495.8 357.365C495.8 357.365 494.2 358.365 492.8 360.865C491.4 363.365 489.1 368.065 490.4 371.265C491 372.665 526.5 371.565 526.5 371.565L563.7 372.465C563.7 372.465 562.3 365.065 553.7 362.765C546.1 360.665 544.3 360.665 540.6 360.165C538.3 359.865 536.3 358.865 535.3 356.865C533.9 353.965 532.3 352.665 529.1 351.465C524.2 349.265 503 349.665 497.9 350.465Z" fill="#FFB6A9"/>
<path fill-rule="evenodd" clip-rule="evenodd" d="M490.301 371.265C489.201 370.065 496.901 359.265 505.001 358.565C512.501 357.865 517.701 364.465 522.701 365.765C525.901 366.565 530.801 366.566 535.101 366.666C537.001 366.666 561.001 367.065 561.001 367.065C561.001 367.065 566.601 371.265 564.001 373.465C562.501 374.765 491.301 372.365 490.301 371.265Z" fill="#D9A48A"/>
<path d="M332.937 136.478L332.6 72.4648" stroke="#424D51" stroke-linecap="round" stroke-linejoin="round"/>
<path d="M423 115.165C434.2 105.865 450 92.7646 459.6 95.8646C459.8 95.9646 460 95.9646 460.2 96.0646C468.9 98.8646 488.6 105.165 468.6 125.065C454.2 139.465 431.1 151.965 421.5 154.265C411.5 156.665 400.6 156.365 390.4 156.565C377 156.865 363.7 156.765 350.3 155.765C347 155.565 344.2 155.765 340.9 156.065C334.6 156.865 327.3 157.865 318.9 156.965C318.5 156.865 313.7 155.365 316.1 150.665C316.1 150.665 312.6 150.765 312.2 147.865C311.9 145.665 313.3 144.665 314.5 144.265C314.2 144.265 312.1 144.165 312.1 141.865C312.1 138.965 313.8 137.765 315.3 137.665C315.2 137.665 313.7 137.365 313.7 135.165C313.7 134.265 314.6 132.865 317.3 132.265C322.1 131.165 328.4 131.265 328.4 131.265C328.4 131.265 328.3 129.165 329 127.165C330.7 121.865 333.5 121.365 336.8 122.265C342.1 123.665 343.6 130.365 343.6 130.365C343.7 130.965 352.7 130.865 353.5 130.865C362.2 130.765 368.5 130.165 377.2 129.265C384.1 128.565 392.3 127.665 400.2 126.665C408.6 125.565 416.6 120.565 423 115.165Z" fill="#EFBEA9"/>
<path d="M433.699 150.465L413.699 119.965C421.499 113.865 438.299 100.365 446.099 97.2654C451.599 95.1654 460.699 94.6654 464.799 95.1654L469.099 107.765L459.999 135.565L433.699 150.465Z" fill="#FFDBD5"/>
<path d="M327.9 131.866C327.3 136.266 332.2 137.466 334.2 135.666C336.3 133.766 337.5 129.266 337.5 129.266" stroke="#424D51" stroke-linecap="round" stroke-linejoin="round"/>
<path d="M332.9 175.539L332.901 136.789" stroke="#424D51" stroke-linecap="round" stroke-linejoin="round"/>
<path d="M329.499 141.465C329.499 141.465 332.099 137.965 327.999 136.265C325.099 135.065 317.499 136.565 315.299 137.665" stroke="#424D51" stroke-linecap="round" stroke-linejoin="round"/>
<path d="M330.699 147.965C330.699 147.965 333.499 142.465 327.799 141.665C324.899 141.265 315.599 143.465 314.299 144.265" stroke="#424D51" stroke-linecap="round" stroke-linejoin="round"/>
<path d="M323 156.165C323 156.165 327.3 155.865 330.9 154.465C332.5 153.865 333 152.265 332.5 150.565C331 145.365 317.2 150.065 316 151.165" stroke="#424D51" stroke-linecap="round" stroke-linejoin="round"/>
<path d="M473.607 105.894C481.988 98.9708 487.796 95.2514 510.344 95.2506C521.614 97.9431 531.169 97.8757 549.296 103.144C549.296 103.144 581.137 109.583 582.425 133.308C583.208 149.582 533.09 201.397 527.088 205.485C527.088 205.485 526.99 205.506 527.01 205.604C524.669 208.125 521.973 210.413 518.785 212.291C517.24 213.22 511.892 214.52 510.343 210.448C510.343 210.448 506.721 211.701 504.657 210.592C503.064 209.796 503.039 208.678 503.039 208.678C503.039 208.678 500.766 209.042 499.073 207.755C497.145 206.313 497.69 205.487 497.69 205.487C497.69 205.487 494.515 205.933 493.895 203.406C493.295 200.977 495.719 199.358 503.248 194.753C506.788 192.598 512.345 185.845 512.345 185.845L511.613 180.279C511.613 180.279 515.727 179.436 520.219 179.434C520.317 179.414 520.415 179.394 520.59 179.256C526.562 173.03 546.129 138.5 545.687 136.344C545.687 136.344 521.09 131.381 507.462 127.641C487.699 124.851 469.114 113.858 473.607 105.894Z" fill="#EFBEA9"/>
<path d="M514.102 196.407C514.102 196.407 504.103 205.398 497.554 205.821" stroke="#424D51" stroke-linecap="round" stroke-linejoin="round"/>
<path d="M518.084 200.9C518.084 200.9 508.49 208.378 502.414 209.113" stroke="#424D51" stroke-linecap="round" stroke-linejoin="round"/>
<path d="M521.459 205.414C521.459 205.414 514.54 210.507 510.524 211.33" stroke="#424D51" stroke-linecap="round" stroke-linejoin="round"/>
<path d="M553.988 125.048C553.988 125.048 546.559 134.124 545.451 136.189" stroke="#424D51" stroke-linecap="round" stroke-linejoin="round"/>
<path fill-rule="evenodd" clip-rule="evenodd" d="M447.6 125.864C447.6 125.864 454.8 163.764 455.8 167.564C456.8 171.264 508.4 167.764 508.4 167.764C508.4 167.764 507.1 112.464 507 110.464C506.7 104.264 508.8 93.9643 499.5 93.6643C483.8 92.0643 451.8 94.4643 448.8 98.1643C445.8 101.764 447.6 125.864 447.6 125.864Z" fill="#FFDBD5"/>
<path d="M537.458 99.3451L530.135 134.618C523.186 133.771 499.547 130.183 489.492 127.546C476.905 124.198 474.748 116.279 473.576 110.192C472.404 104.105 473.944 100.566 482.197 94.0167C488.681 88.7629 524.101 95.7014 537.458 99.3451Z" fill="#FFDBD5"/>
<path d="M507.9 131.066C507.9 131.066 505.3 126.266 503.1 120.766" stroke="#424D51" stroke-linecap="round" stroke-linejoin="round"/>
<path d="M449.3 135.765L448.5 127.365" stroke="#424D51" stroke-linecap="round" stroke-linejoin="round"/>
<path d="M489.628 92.7643C485.228 92.5643 476.528 93.0643 466.228 93.4643C450.028 94.1643 461.828 103.364 475.428 106.164C480.528 107.164 490.128 107.464 493.828 100.864C496.528 96.2643 495.128 93.0643 489.628 92.7643Z" fill="#EFBEA9"/>
<path fill-rule="evenodd" clip-rule="evenodd" d="M487.306 52.0215C487.306 52.0215 495.038 46.1167 501.011 58.7892C504.784 66.7752 502.618 77.4851 500.943 80.6659C499.116 84.1344 495.935 89.9038 483.804 87.0952C482.552 86.8076 478.305 87.9074 478.305 87.9074C478.305 87.9074 459.508 90.293 459.508 68.8055C459.508 61.6317 462.35 57.2665 465.159 53.6289C468.137 49.8389 480.369 43.5619 487.306 52.0215Z" fill="#AF836B"/>
<path fill-rule="evenodd" clip-rule="evenodd" d="M465.514 95.5037C463.958 98.1262 488.203 101.51 488.254 98.583C488.355 93.4734 488.558 90.4956 488.964 81.3592C489.184 76.5541 483.973 76.791 481.215 76.4864C475.987 75.8942 473.872 81.3422 473.872 81.3422C473.872 81.3422 467.088 92.8981 465.514 95.5037Z" fill="#EFBEA9"/>
<path fill-rule="evenodd" clip-rule="evenodd" d="M474.549 77.1298C474.227 78.8387 473.957 86.1647 479.201 90.0223C483.364 93.1017 488.372 92.6617 488.372 92.6617C488.372 92.6617 489.235 83.3392 489.184 82.4594C489.116 81.5965 474.786 75.9116 474.549 77.1298Z" fill="#424D51"/>
<path fill-rule="evenodd" clip-rule="evenodd" d="M472.925 71.3768C472.925 71.3768 472.654 86.215 481.503 87.6193C490.352 89.0236 492.365 81.7991 492.551 81.2746C492.737 80.7501 494.412 68.1113 492.839 64.1184C491.265 60.1254 486.223 54.4575 479.574 55.9633C472.891 57.486 472.062 61.9866 471.859 65.9118C471.74 68.0606 472.925 71.3768 472.925 71.3768Z" fill="#EFBEA9"/>
<path fill-rule="evenodd" clip-rule="evenodd" d="M474.837 68.6019C474.481 67.5022 469.947 62.4264 466.022 65.9118C463.45 68.2128 464.397 70.7845 465.717 72.2057C467.392 74.033 469.744 74.6929 472.282 73.8131C474.803 72.9502 474.904 71.309 475.107 70.7676C475.412 69.9047 475.09 69.3464 474.837 68.6019Z" fill="#EFBEA9"/>
<path fill-rule="evenodd" clip-rule="evenodd" d="M490.402 68.7035C490.758 67.6037 495.292 62.5279 499.217 66.0133C501.789 68.3143 500.842 70.8861 499.522 72.3073C497.847 74.1346 495.495 74.7944 492.957 73.9146C490.436 73.0348 490.318 71.4106 490.132 70.8692C489.827 70.0063 490.149 69.4479 490.402 68.7035Z" fill="#EFBEA9"/>
<path fill-rule="evenodd" clip-rule="evenodd" d="M476.275 62.7314C476.275 62.7314 483.787 66.7921 490.69 62.6976C490.741 62.6638 491.307 66.1809 493.236 65.7579C493.236 65.7579 494.192 54.3564 483.178 54.644C471.284 54.9655 471.342 65.6204 471.917 65.6204C474.032 65.6204 476.275 62.7314 476.275 62.7314Z" fill="#AF836B"/>
<path d="M479.775 76.0547C480.706 79.65 484.301 78.5503 484.301 78.5503" stroke="#424D51" stroke-width="0.676772" stroke-linecap="round" stroke-linejoin="round"/>
<path d="M483.693 72.5231C483.693 72.5231 485.194 73.2844 484.945 74.3541C484.696 75.4238 483.512 75.2677 482.767 75.0968" stroke="#424D51" stroke-width="0.676772" stroke-linecap="round" stroke-linejoin="round"/>
<path d="M486.037 70.8618C486.037 70.8618 486.994 69.3416 488.56 69.2064C490.125 69.0712 490.859 69.9643 491.366 70.9795" stroke="#424D51" stroke-width="0.676772" stroke-linecap="round" stroke-linejoin="round"/>
<path fill-rule="evenodd" clip-rule="evenodd" d="M488.09 69.5228C488.58 69.189 489.248 69.3003 489.582 69.7677C489.915 70.2573 489.826 70.925 489.337 71.2588C488.847 71.5927 488.179 71.5037 487.846 71.014C487.512 70.5466 487.623 69.879 488.09 69.5228Z" stroke="#424D51" stroke-width="0.676772" stroke-linecap="round" stroke-linejoin="round"/>
<path d="M475.735 70.8623C475.735 70.8623 476.693 69.342 478.258 69.2069C479.824 69.0717 480.557 69.9648 481.065 70.98" stroke="#424D51" stroke-width="0.676772" stroke-linecap="round" stroke-linejoin="round"/>
<path fill-rule="evenodd" clip-rule="evenodd" d="M477.789 69.5233C478.279 69.1895 478.946 69.3008 479.28 69.7682C479.614 70.2578 479.525 70.9255 479.036 71.2593C478.546 71.5932 477.878 71.5041 477.544 71.0145C477.21 70.5471 477.322 69.8794 477.789 69.5233Z" stroke="#424D51" stroke-width="0.676772" stroke-linecap="round" stroke-linejoin="round"/>
<path d="M496.531 67.6377C496.531 67.6377 495.336 68.036 494.446 69.3644M493.791 70.7509C493.96 70.2037 494.191 69.7457 494.446 69.3644M494.446 69.3644C494.881 69.306 495.906 69.2824 496.531 69.6546" stroke="#424D51" stroke-width="0.676772" stroke-linecap="round" stroke-linejoin="round"/>
<path d="M469.815 67.5151C469.815 67.5151 471.01 67.9135 471.9 69.2418M472.556 70.6283C472.386 70.0811 472.156 69.6231 471.9 69.2418M471.9 69.2418C471.466 69.1834 470.441 69.1598 469.815 69.532" stroke="#424D51" stroke-width="0.676772" stroke-linecap="round" stroke-linejoin="round"/>
</svg>
