<svg width="732" height="424" viewBox="0 0 732 424" fill="none" xmlns="http://www.w3.org/2000/svg">
<path d="M254.653 361.355C296.508 359.341 281.657 323.859 262.863 303.333C252.554 289.466 223.945 261.622 191.978 261.184C152.019 260.637 119.45 307.438 104.123 333.986C91.8621 355.224 117.533 361.081 129.028 361.355C151.288 360.169 203.473 363.818 254.653 361.355Z" fill="#F8F8F8"/>
<path d="M119.996 368.478C129.028 368.478 129.303 362.997 127.25 357.386C124.103 350.955 116.593 341.65 107.131 341.649C102.803 341.649 87.2903 355.197 88.1114 362.86C88.9324 370.524 110.79 368.478 119.996 368.478Z" fill="#E1E1E1"/>
<path d="M145.856 370.523C153.081 369.1 151.786 364.547 150.235 362.449C145.855 357.249 136.961 350.817 131.077 349.859C126.806 349.164 115.477 356.975 116.298 364.638C117.119 372.302 136.824 372.302 145.856 370.523Z" fill="#ECECEC"/>
<path d="M61.9362 363.558C63.6955 363.558 66.5438 350.992 67.748 344.709C67.748 342.562 67.1197 338.614 64.6065 339.996C61.465 341.724 60.2084 350.049 59.7372 354.133C59.2659 358.217 59.7372 363.558 61.9362 363.558Z" fill="#ECECEC"/>
<path d="M54.8678 359.71C54.8678 356.124 53.1138 347.065 52.119 343.217C51.1324 338.939 48.8989 339.996 48.2706 341.724C47.6423 343.453 48.6633 351.385 49.4487 354.526C50.2341 357.668 50.9409 362.773 52.119 363.165C53.2971 363.558 54.8678 362.851 54.8678 359.71Z" fill="#ECECEC"/>
<path d="M45.836 361.752C46.6528 360.307 43.6107 354.343 41.9876 351.542C40.378 348.557 38.0607 347.85 36.7256 349.971C35.3904 352.091 41.5164 360.338 42.3803 361.752C43.2442 363.165 44.815 363.558 45.836 361.752Z" fill="#ECECEC"/>
<path d="M692.311 341.41C681.887 344.885 670.654 361.077 666.25 369.101H583.901C577.386 355.707 559.469 358.966 556.935 360.776C554.401 362.586 538.472 363.129 548.972 350.822C562.013 335.536 584.747 343.884 593.313 348.831C593.132 346.719 590.381 340.469 580.825 332.361C570.825 323.877 577.224 317.441 587.884 321.683C597.548 325.529 607.249 342.496 607.249 342.496C607.249 342.496 611.809 312.028 621.547 298.698C630.867 285.939 638.016 295.441 634.396 304.852C631.276 312.964 629.088 325.484 629.148 331.094C635.965 322.286 654.406 305.015 672.041 299.965C691.316 294.445 694.483 308.234 683.262 311.91C672.041 315.586 647.363 347.336 647.363 347.336C647.363 347.336 668.363 332.361 690.321 337.971C694.139 338.947 694.89 340.551 692.311 341.41Z" fill="#F8F8F8"/>
<path fill-rule="evenodd" clip-rule="evenodd" d="M538.45 81.1997C538.75 80.4997 540.25 80.3997 540.75 80.1997C542.05 79.8997 543.35 79.6997 544.75 79.4997C548.35 78.9997 552.05 79.1997 555.65 79.5997C559.55 79.9997 563.65 80.5997 567.45 81.8997C572.55 83.5997 576.75 87.5997 579.45 92.0997C584.55 100.7 586.45 111.9 585.75 121.8C585.15 130.6 582.75 139.9 577.85 147.4C574.55 152.4 569.95 156.4 564.35 158.6C557.85 161.1 550.45 160 543.75 158.9C539.55 158.2 534.95 156.9 534.05 152.1C532.05 142 535.55 88.3997 538.45 81.1997Z" fill="#957FEF"/>
<path fill-rule="evenodd" clip-rule="evenodd" d="M522.551 101C522.551 101 529.851 75.0003 549.351 80.5003C568.851 86.0003 572.351 107.3 571.451 121C570.451 136.4 561.551 160.9 542.551 158.4C528.751 156.6 521.951 142 520.751 135.6C518.751 125.5 519.551 108.2 522.551 101Z" fill="#BA79E2"/>
<path fill-rule="evenodd" clip-rule="evenodd" d="M535.851 119.1C536.151 114.5 537.551 109.8 539.851 106.6C542.551 102.6 547.551 101.8 551.451 104.9C555.451 108.1 556.551 113.6 556.551 118.5C556.551 123.7 555.651 130.1 551.751 133.8C546.851 138.5 539.951 135.6 537.551 129.9C536.051 126.8 535.551 122.9 535.851 119.1Z" fill="#957FEF"/>
<path d="M503.15 110.501L486.95 138.801C483.85 141.301 479.65 142.301 476.55 144.701L476.25 144.901C476.25 144.901 473.05 121.801 460.75 113.001C450.25 108.101 452.95 111.301 452.95 111.301C452.75 113.901 448.35 120.301 447.95 124.301C446.25 142.101 447.15 147.701 454.85 160.701C468.45 183.601 487.95 176.501 495.05 169.601C497.05 167.601 499.45 165.901 501.45 163.901C503.55 161.701 505.65 159.501 507.55 157.101C511.45 152.301 514.95 147.301 518.05 142.001C521.75 135.801 525.85 125.701 528.75 119.101C528.75 119.101 519.85 110.001 515.95 109.401C503.85 107.201 503.15 110.501 503.15 110.501Z" fill="#D9A48A"/>
<path d="M546.55 116.099L343.15 90.1992L335.85 99.0992L546.65 124.699V116.099H546.55Z" fill="#957FEF"/>
<path d="M527.05 122.501C527.75 122.401 529.25 122.201 531.05 117.301C532.15 114.101 532.55 111.801 529.75 110.701C528.15 110.101 526.75 111.001 526.75 111.001C526.75 111.001 526.95 108.701 524.95 107.601C523.55 106.901 522.05 107.101 522.05 107.101C522.05 107.101 521.25 105.901 520.15 105.401C519.05 105.001 517.65 105.501 517.65 105.501C517.65 105.501 516.85 103.901 513.95 104.001C509.85 104.101 509.05 106.801 509.05 106.801C509.05 106.801 507.75 104.101 505.35 105.001C503.35 105.701 503.15 107.801 503.15 110.401C505.15 110.501 510.55 111.001 510.85 111.801C511.15 112.801 511.75 120.801 514.35 121.801C516.95 122.801 517.65 120.601 518.95 119.401C518.95 119.401 516.75 121.401 517.95 122.001C519.15 122.701 525.35 122.301 526.65 122.901C526.75 122.801 526.75 122.601 526.85 122.501C526.75 122.501 526.85 122.501 527.05 122.501Z" fill="#D9A48A"/>
<path d="M508.75 105.9C509.75 107.2 510.45 109.6 510.85 111.9" stroke="#424D51" stroke-linecap="round" stroke-linejoin="round"/>
<path d="M517.55 106.2C517.55 106.2 521.15 119.6 516.85 121.9C513.45 123 511.55 119.5 510.85 111.9" stroke="#424D51" stroke-linecap="round" stroke-linejoin="round"/>
<path d="M527.15 111.2C527.15 111.2 524.35 117.5 524.25 119.9C524.25 122 527.45 124.1 529.25 121" stroke="#424D51" stroke-linecap="round" stroke-linejoin="round"/>
<path d="M522.75 107.2C522.75 107.2 524.45 121.3 518.95 119.5" stroke="#424D51" stroke-linecap="round" stroke-linejoin="round"/>
<path d="M447.05 112.6C447.55 120.7 445.35 134.1 445.35 134.1" stroke="#424D51" stroke-linecap="round" stroke-linejoin="round"/>
<path fill-rule="evenodd" clip-rule="evenodd" d="M457.951 355.801L492.751 354.401C492.751 354.401 496.851 268.201 496.951 260.101C497.151 233.901 495.151 145.101 464.851 151.701C454.451 153.101 454.451 221.801 454.851 231.801C455.251 240.301 456.551 258.301 456.651 265.701C456.951 277.001 457.951 355.801 457.951 355.801Z" fill="#C7E7DA"/>
<path fill-rule="evenodd" clip-rule="evenodd" d="M458.75 345.699H494.05L492.95 357.499L457.35 356.999L458.75 345.699Z" fill="#B68674"/>
<path fill-rule="evenodd" clip-rule="evenodd" d="M460.05 355.9C460.05 355.9 456.55 356.2 456.15 359C455.95 360.9 457.05 362 458.05 362.7C458.05 362.7 456.45 363.7 455.15 366.3C453.85 368.9 451.65 373.6 452.95 376.7C453.55 378.1 489.05 376 489.05 376L526.35 375.9C526.35 375.9 524.75 368.5 516.15 366.5C508.45 364.6 506.75 364.6 502.95 364.2C500.55 364 498.55 363 497.55 361.1C496.05 358.2 494.35 357 491.25 355.9C486.35 354 465.25 355 460.05 355.9Z" fill="#80CAB3"/>
<path fill-rule="evenodd" clip-rule="evenodd" d="M453.05 376.999C451.95 375.899 459.25 364.799 467.35 363.899C474.85 363.099 480.25 369.499 485.15 370.599C488.35 371.299 493.35 371.199 497.65 371.199C499.55 371.199 523.55 370.899 523.55 370.899C523.55 370.899 529.25 374.999 526.75 377.299C525.35 378.499 454.05 377.999 453.05 376.999Z" fill="#957FEF"/>
<path fill-rule="evenodd" clip-rule="evenodd" d="M431.551 356.3L466.351 354.9C466.351 354.9 467.051 275.7 467.151 267.5C467.151 257.9 466.851 255.6 466.951 246.4C467.151 220.2 469.851 163.4 441.251 167.1C422.151 171.4 428.951 215.3 430.851 230.7C434.051 243.8 434.351 260.2 434.551 267.5C434.751 278.9 431.551 356.3 431.551 356.3Z" fill="#C7E7DA"/>
<path fill-rule="evenodd" clip-rule="evenodd" d="M430.949 343.801L467.449 344.301L466.549 358.001L430.949 357.501V343.801Z" fill="#B68674"/>
<path fill-rule="evenodd" clip-rule="evenodd" d="M433.649 356.399C433.649 356.399 430.149 356.699 429.749 359.599C429.549 361.499 430.649 362.499 431.649 363.299C431.649 363.299 430.049 364.299 428.749 366.899C427.449 369.499 425.249 374.199 426.549 377.299C427.149 378.699 462.649 376.599 462.649 376.599L499.949 376.499C499.949 376.499 498.349 369.099 489.749 367.099C482.049 365.199 480.349 365.199 476.549 364.799C474.149 364.599 472.149 363.599 471.149 361.699C469.649 358.799 467.949 357.599 464.849 356.499C459.949 354.599 438.749 355.499 433.649 356.399Z" fill="#80CAB3"/>
<path fill-rule="evenodd" clip-rule="evenodd" d="M426.649 377.5C425.549 376.4 432.849 365.3 440.949 364.4C448.449 363.5 453.849 370 458.749 371.1C461.949 371.8 466.949 371.7 471.249 371.7C473.149 371.7 497.149 371.4 497.149 371.4C497.149 371.4 502.849 375.5 500.349 377.8C498.949 379.1 427.649 378.5 426.649 377.5Z" fill="#957FEF"/>
<path d="M500.351 377.6C502.951 375.7 498.851 370.3 489.951 367.3C479.951 363.9 473.151 366.1 471.951 363.1C470.151 358.5 466.551 356.5 466.551 356.5L471.951 269L470.251 189.5" stroke="#424D51" stroke-linecap="round" stroke-linejoin="round"/>
<path fill-rule="evenodd" clip-rule="evenodd" d="M433.449 172.4C433.449 172.4 451.049 176.3 462.449 176.1C472.049 176 486.849 172.8 486.849 172.8C488.449 165.5 489.549 158.1 490.449 150.6C492.049 137.1 492.949 123.2 490.649 109.7C489.749 104.7 488.349 99.5003 484.849 95.7003C476.349 86.3003 462.949 89.2003 451.849 90.4003C445.449 91.1003 435.249 90.7003 434.449 99.3003C433.649 107 433.449 172.4 433.449 172.4Z" fill="#BA79E2"/>
<path d="M394.849 114L403.949 145C403.949 145 409.349 127.7 413.749 119.6C414.449 118.3 414.949 114.9 415.549 111C416.949 101.6 426.749 94.2003 433.549 95.9003C444.949 98.9003 445.549 103.2 444.949 118.8C444.349 134.4 433.849 153.7 422.049 171.4C408.549 191.7 386.849 181.4 382.949 172.3C378.949 162.8 371.849 137.6 369.449 121.8C368.849 119.8 366.749 112.5 365.949 108.7C364.949 103.7 364.049 95.8003 364.049 95.8003C364.049 95.8003 362.049 87.2003 367.049 87.0003C368.249 87.0003 370.049 88.8003 370.049 88.8003C370.049 88.8003 370.049 86.7003 372.549 86.0003C375.149 85.3003 376.449 88.1003 376.449 88.1003C376.449 88.1003 376.649 84.9003 379.549 84.5003C381.749 84.1003 383.749 87.0003 383.749 87.0003C383.749 87.0003 383.749 84.1003 386.949 84.0003C390.949 83.8003 392.849 96.8003 392.849 96.8003C392.849 96.8003 394.549 96.1003 395.749 98.9003C398.049 104.5 395.249 112.7 395.249 112.7C395.249 112.7 395.149 113.2 394.849 114Z" fill="#D9A48A"/>
<path d="M405.75 131.999L440.75 145.699C443.85 135.599 450.95 106.299 453.15 99.2991C454.35 95.5991 474.15 90.0991 469.05 89.0991C444.05 85.5991 429.25 90.8991 425.85 92.6991C416.35 97.7991 408.55 118.499 405.75 131.999Z" fill="#BA79E2"/>
<path d="M403.65 144.699C404.55 147.299 404.95 150.199 404.95 151.599" stroke="#424D51" stroke-linecap="round" stroke-linejoin="round"/>
<path d="M370.25 89.4004C371.05 93.6004 372.65 98.6004 373.25 103.7C373.45 105.1 372.85 107.2 370.65 107.5C369.35 107.7 368.25 107.3 366.95 104.9C365.75 102.8 364.65 98.7004 364.25 96.3004" stroke="#424D51" stroke-linecap="round" stroke-linejoin="round"/>
<path d="M373.15 102.999C373.15 102.999 373.95 106.199 376.05 106.199C377.05 106.199 378.15 105.599 378.85 104.499C380.65 101.099 377.65 91.1992 376.75 88.1992" stroke="#424D51" stroke-linecap="round" stroke-linejoin="round"/>
<path d="M385.85 97.3996C385.25 92.8996 384.85 91.2996 383.75 87.0996" stroke="#424D51" stroke-linecap="round" stroke-linejoin="round"/>
<path d="M379.35 113.6C379.35 113.6 379.55 111.2 380.55 109C381.55 106.8 383.35 105 383.35 105C383.35 105 387.75 104.8 390.25 104.4" stroke="#424D51" stroke-linecap="round" stroke-linejoin="round"/>
<path d="M393.65 96.8008C393.65 96.8008 386.25 97.0008 382.85 98.4008C380.65 99.3008 379.65 100.701 379.65 102.101C379.65 102.901 380.55 104.901 383.25 104.901" stroke="#424D51" stroke-linecap="round" stroke-linejoin="round"/>
<path fill-rule="evenodd" clip-rule="evenodd" d="M310.051 51.699C311.251 49.099 320.351 46.699 320.851 46.499C324.551 45.699 328.351 45.399 332.151 45.499C341.951 45.699 352.851 47.899 360.451 54.499C372.451 64.899 375.051 84.599 373.951 99.599C372.551 119.799 362.151 146.599 338.351 147.699C331.751 147.999 323.951 147.099 317.451 145.399C313.351 144.299 309.851 142.099 308.951 137.699C306.651 124.999 306.051 60.599 310.051 51.699Z" fill="#957FEF"/>
<path fill-rule="evenodd" clip-rule="evenodd" d="M294.85 73.6006C295.75 70.8006 296.75 68.1006 297.95 65.5006C300.55 60.0006 304.25 54.9006 309.25 51.4006C316.95 46.1006 326.85 46.2006 335.05 50.4006C341.85 53.9006 347.15 60.0006 350.55 66.8006C358.25 82.2006 357.75 101.301 352.35 117.401C347.65 131.701 337.05 147.901 319.85 145.601C310.45 144.401 302.95 138.101 298.05 130.201C292.25 121.001 291.05 110.401 291.15 99.7006C291.15 91.1006 292.15 82.0006 294.85 73.6006Z" fill="#BA79E2"/>
<path fill-rule="evenodd" clip-rule="evenodd" d="M311.749 96.3003C312.149 90.1003 313.549 81.6003 318.549 77.9003C323.249 74.5003 329.749 76.1003 333.149 80.5003C336.049 84.3003 336.849 89.3003 337.049 94.0003C337.349 102 335.849 115.5 326.049 117.4C315.049 119.5 311.249 105.9 311.649 97.6003C311.649 97.3003 311.649 96.8003 311.749 96.3003Z" fill="#957FEF"/>
<path d="M486.949 172.699C486.949 172.699 492.049 145.799 491.749 127.699" stroke="#424D51" stroke-linecap="round" stroke-linejoin="round"/>
<path fill-rule="evenodd" clip-rule="evenodd" d="M446.351 90.8996C443.551 95.5996 468.751 101 470.851 94.1996C470.951 88.6996 471.151 85.4996 471.651 75.6996C471.851 70.4996 466.251 70.7996 463.351 70.4996C457.751 69.8996 455.451 75.6996 455.451 75.6996C455.451 75.6996 448.051 88.0996 446.351 90.8996Z" fill="#D9A48A"/>
<path fill-rule="evenodd" clip-rule="evenodd" d="M456.151 71.0994C455.851 72.8994 455.551 80.7994 461.151 84.9994C465.651 88.2994 471.151 87.7994 471.151 87.7994C471.151 87.7994 471.951 77.7994 471.951 76.7994C471.751 75.8994 456.351 69.7994 456.151 71.0994Z" fill="#424D51"/>
<path fill-rule="evenodd" clip-rule="evenodd" d="M454.351 64.8995C454.351 64.8995 454.051 80.8995 463.551 82.3995C473.051 83.8995 475.251 76.0995 475.451 75.5995C475.651 74.9995 477.451 61.3995 475.751 57.0995C474.051 52.7995 468.651 46.6995 461.451 48.2995C454.251 49.8995 453.351 54.7995 453.151 58.9995C453.051 61.2995 454.351 64.8995 454.351 64.8995Z" fill="#D9A48A"/>
<path fill-rule="evenodd" clip-rule="evenodd" d="M456.451 61.8994C456.051 60.6994 451.151 55.1994 446.951 58.9994C444.151 61.4994 445.151 64.2994 446.651 65.7994C448.451 67.7994 450.951 68.4994 453.751 67.4994C456.451 66.4994 456.551 64.7994 456.751 64.1994C457.051 63.2994 456.651 62.6994 456.451 61.8994Z" fill="#D9A48A"/>
<path fill-rule="evenodd" clip-rule="evenodd" d="M473.151 61.9995C473.551 60.7995 478.451 55.2995 482.651 59.0995C485.451 61.5995 484.451 64.2995 482.951 65.8995C481.151 67.8995 478.651 68.5995 475.851 67.5995C473.151 66.5995 473.051 64.8995 472.751 64.2995C472.551 63.3995 472.951 62.7995 473.151 61.9995Z" fill="#D9A48A"/>
<path fill-rule="evenodd" clip-rule="evenodd" d="M461.551 68.8996C461.651 68.8996 464.951 70.6996 466.751 71.2996C467.351 71.4996 465.651 73.4996 463.651 72.7996C461.551 72.0996 460.951 68.6996 461.551 68.8996Z" fill="white"/>
<path d="M465.751 65.3994C465.751 65.3994 467.351 66.1994 467.051 67.3994C466.751 68.5994 465.451 68.3994 464.751 68.1994" stroke="#424D51" stroke-width="0.729" stroke-linecap="round" stroke-linejoin="round"/>
<path d="M468.351 63.6995C468.351 63.6995 469.351 62.0995 471.051 61.8995C472.751 61.6995 473.551 62.6995 474.051 63.7995" stroke="#424D51" stroke-width="0.729" stroke-linecap="round" stroke-linejoin="round"/>
<path d="M470.551 62.1996C471.051 61.7996 471.751 61.9996 472.151 62.4996C472.551 62.9996 472.451 63.6996 471.851 64.0996C471.351 64.4996 470.651 64.3996 470.251 63.7996C469.851 63.2996 470.051 62.5996 470.551 62.1996Z" stroke="#424D51" stroke-width="0.729" stroke-linecap="round" stroke-linejoin="round"/>
<path d="M457.251 63.6995C457.251 63.6995 458.251 62.0995 459.951 61.8995C461.651 61.6995 462.451 62.6995 462.951 63.7995" stroke="#424D51" stroke-width="0.729" stroke-linecap="round" stroke-linejoin="round"/>
<path d="M459.451 62.1996C459.951 61.7996 460.651 61.9996 461.051 62.4996C461.451 62.9996 461.351 63.6996 460.751 64.0996C460.151 64.4996 459.551 64.3996 459.151 63.7996C458.751 63.2996 458.951 62.5996 459.451 62.1996Z" stroke="#424D51" stroke-width="0.729" stroke-linecap="round" stroke-linejoin="round"/>
<path d="M477.551 62.5995C478.051 62.4995 479.151 62.4995 479.751 62.8995M479.751 60.6995C479.751 60.6995 478.451 61.0995 477.551 62.5995L479.751 60.6995ZM476.851 64.0995C477.051 63.4995 477.251 62.9995 477.551 62.5995L476.851 64.0995Z" stroke="#424D51" stroke-width="0.729" stroke-linecap="round" stroke-linejoin="round"/>
<path d="M453.251 62.3996C452.751 62.2996 451.651 62.2996 451.051 62.6996M451.051 60.5996C451.051 60.5996 452.351 60.9996 453.251 62.4996L451.051 60.5996ZM453.951 63.8996C453.751 63.2996 453.551 62.7996 453.251 62.3996L453.951 63.8996Z" stroke="#424D51" stroke-width="0.729" stroke-linecap="round" stroke-linejoin="round"/>
<path fill-rule="evenodd" clip-rule="evenodd" d="M457.951 55.5995C457.951 55.5995 465.251 60.1995 472.751 55.7995C472.851 55.7995 473.951 59.0995 476.351 58.8995C476.351 58.8995 480.151 46.1995 465.251 45.8995C451.651 45.5995 452.651 58.8995 453.351 58.8995C455.651 58.7995 457.951 55.5995 457.951 55.5995Z" fill="#D6D6D6"/>
<path d="M445.15 126.801C444.65 129.501 438.45 144.001 437.85 145.201" stroke="#424D51" stroke-linecap="round" stroke-linejoin="round"/>
<path fill-rule="evenodd" clip-rule="evenodd" d="M370.36 268.801C368.96 257.301 363.22 250.751 346.64 250.751C330.06 250.751 310.39 254.551 293.14 260.001C277.52 262.052 276.66 261.8 264.36 261.5C252.66 261.2 245.829 257.122 230.542 254.551C213.892 251.75 200.89 247.252 186.09 247.251C173.64 247.251 164.06 252.552 162.66 264.052C161.46 273.752 162.66 372.8 162.66 372.8L197.56 373.8C197.56 373.8 199.09 297.4 199.19 286.1C199.19 283.7 216.39 293.001 233.64 299.001C282.64 312.001 286.42 297.551 316.89 288.301C318.79 288.201 333.06 284.901 333.06 288.301C333.16 299.501 333.46 373.7 333.46 373.7L368.36 372.7C368.36 372.9 371.56 278.501 370.36 268.801Z" fill="#EA7A79"/>
<path fill-rule="evenodd" clip-rule="evenodd" d="M199.261 326.799L161.061 325.199L161.686 361.965L199.061 363.899L199.261 326.799Z" fill="#FFDBD5"/>
<path fill-rule="evenodd" clip-rule="evenodd" d="M331.861 326.801L370.061 325.301L369.312 361.592L332.061 364.001L331.861 326.801Z" fill="#FFDBD5"/>
<path fill-rule="evenodd" clip-rule="evenodd" d="M197.161 355.599C197.161 355.599 200.661 355.799 201.061 358.699C201.361 360.599 200.261 361.699 199.161 362.399C199.161 362.399 200.761 363.399 202.161 365.899C203.561 368.399 205.761 373.199 204.461 376.299C203.861 377.699 168.361 376.099 168.361 376.099L131.061 376.699C131.061 376.699 132.561 369.299 141.161 367.099C148.861 365.099 150.561 364.999 154.361 364.599C156.761 364.299 158.661 363.299 159.661 361.399C161.161 358.499 162.761 357.299 165.861 356.099C170.861 354.199 191.961 354.799 197.161 355.599Z" fill="#FFB6A9"/>
<path fill-rule="evenodd" clip-rule="evenodd" d="M204.461 376.599C205.561 375.499 198.061 364.499 189.961 363.699C182.461 362.999 177.161 369.499 172.261 370.699C169.061 371.499 164.061 371.499 159.761 371.499C157.861 371.499 133.861 371.599 133.861 371.599C133.861 371.599 128.161 375.799 130.761 377.999C132.261 379.299 203.461 377.699 204.461 376.599Z" fill="#D9A48A"/>
<path fill-rule="evenodd" clip-rule="evenodd" d="M333.961 355.601C333.961 355.601 330.462 355.801 330.062 358.701C329.762 360.601 330.861 361.701 331.961 362.401C331.961 362.401 330.361 363.401 328.961 365.901C327.561 368.401 325.362 373.201 326.662 376.301C327.262 377.701 362.762 376.101 362.762 376.101L400.062 376.601C400.062 376.601 398.561 369.201 389.961 367.001C382.261 365.001 380.562 364.901 376.762 364.501C374.362 364.201 372.461 363.201 371.461 361.301C369.961 358.401 368.362 357.201 365.262 356.001C360.262 354.201 339.061 354.801 333.961 355.601Z" fill="#FFB6A9"/>
<path fill-rule="evenodd" clip-rule="evenodd" d="M326.66 376.599C325.56 375.499 333.06 364.499 341.16 363.699C348.66 362.999 353.96 369.499 358.86 370.699C362.06 371.499 367.06 371.499 371.36 371.499C373.26 371.499 397.26 371.599 397.26 371.599C397.26 371.599 402.96 375.799 400.36 377.999C398.86 379.299 327.66 377.699 326.66 376.599Z" fill="#D9A48A"/>
<path d="M266.142 203.5C268.058 196.678 271.405 190.371 252.835 182.227C246.417 179.452 230.265 170.653 207.108 164.652C207.108 164.652 178.16 158.403 173.265 166.903C165.656 175.869 178.932 227.868 180.515 234.904C180.515 245.154 181.679 253.559 182.681 257.001C183.188 258.673 186.256 263.367 190.114 261.408C190.114 261.408 191.921 264.844 194.269 265.425C196.033 265.836 196.823 265.124 196.823 265.124C196.823 265.124 198.223 266.901 200.308 267.148C202.692 267.431 202.909 266.45 202.909 266.45C202.909 266.45 204.934 268.905 207.108 267.552C209.183 266.187 208.52 263.289 206.197 254.856C205.499 252.256 205.588 250.655 205.588 250.655L216.412 251.939C216.412 251.939 212.904 236.519 204.367 232.082C204.268 232.071 204.291 231.872 204.216 231.662C204.136 222.992 201.513 195.601 201.513 195.601C201.513 195.601 235.996 210.598 250.107 213.883C264.747 214.411 263.193 213.925 266.142 203.5Z" fill="#EFBEA9"/>
<path d="M205.787 250.679C205.782 249.872 205.531 249.44 205.632 247.74C205.662 246.636 206.576 244.025 209.111 244.729" stroke="#424D51" stroke-linecap="round" stroke-linejoin="round"/>
<path d="M197.056 248.738C197.056 248.738 198.182 262.164 202.74 267.035" stroke="#424D51" stroke-linecap="round" stroke-linejoin="round"/>
<path d="M191.055 249.234C191.055 249.234 192.954 261.241 196.928 265.942" stroke="#424D51" stroke-linecap="round" stroke-linejoin="round"/>
<path d="M185.504 250.188C185.504 250.188 187.12 258.637 189.436 262.034" stroke="#424D51" stroke-linecap="round" stroke-linejoin="round"/>
<path fill-rule="evenodd" clip-rule="evenodd" d="M294.627 320.521C303.235 329.659 297.764 333.14 295.229 334.631C292.867 335.981 285.288 337.373 283.944 337.777C281.895 338.236 279.845 338.695 277.655 338.982C273.664 339.467 269.662 339.442 265.787 338.158C257.05 335.301 250.752 325.952 249.683 317.071C249.054 311.063 250.56 304.986 253.837 299.947C257.493 294.311 263.171 291.295 269.479 289.266C271.485 288.611 276.449 286.986 283.064 286.322C291.425 290.699 292.36 314.983 294.627 320.521Z" fill="#EFD9CE"/>
<path fill-rule="evenodd" clip-rule="evenodd" d="M306.62 324.185C306.285 324.977 305.928 325.672 305.474 326.389C302.998 330.429 298.947 333.387 294.395 335.022C288.303 337.106 281.459 337.205 275.737 334.082C269.895 330.882 265.643 325.174 263.419 318.909C260.082 309.512 261.635 299.53 268.867 292.477C276.002 285.445 286.944 284.427 295.609 289.248C304.491 294.122 308.686 304.147 308.52 313.92C308.581 317.391 307.937 320.918 306.62 324.185Z" fill="#DEC0F1"/>
<path fill-rule="evenodd" clip-rule="evenodd" d="M338.39 215.002L307.777 227.226L329.89 250.5C329.89 250.5 299.682 286.388 292.744 288.354C292.744 288.354 280.767 303.952 290.444 311.006C297.906 316.404 309.902 305.003 309.902 305.003C316.591 303.298 362.832 268.916 363.64 248.75C364.036 240.463 338.39 215.002 338.39 215.002Z" fill="#EFBEA9"/>
<path d="M314.527 296.382L292.344 300.742C292.344 300.742 281.913 302.67 283.869 310.021C285.452 315.712 290.895 314.389 290.895 314.389L318.891 309.444C318.891 309.444 319.788 296.535 314.527 296.382Z" fill="#DEC0F1"/>
<path fill-rule="evenodd" clip-rule="evenodd" d="M356.8 321.138C357.477 322.748 351.826 325.322 351.448 325.487C348.212 326.742 344.678 327.438 341.194 327.822C335.03 328.556 328.355 328.058 322.989 324.499C317.163 320.613 312.203 314.045 310.762 307.291C308.971 298.466 309.973 288.156 316.538 281.372C321.56 276.267 328.215 274.842 335.003 273.597C338.356 273.033 343.631 271.84 345.758 275.437C349.352 281.727 354.737 316.111 356.8 321.138Z" fill="#EFD9CE"/>
<path fill-rule="evenodd" clip-rule="evenodd" d="M365.259 306.327C364.68 313.726 361.469 320.554 354.373 324.183C339.639 331.836 324.822 319.12 321.822 304.921C319.684 294.634 321.988 276.398 337.732 273.544C346.788 271.917 355.591 276.62 360.142 284.372C363.687 290.367 365.887 298.616 365.259 306.327Z" fill="#DEC0F1"/>
<path fill-rule="evenodd" clip-rule="evenodd" d="M350.809 297.606C351.488 300.432 351.378 303.392 350.346 305.695C348.218 311.124 341.349 312.484 337.38 308.183C334.662 305.294 333.619 300.907 333.678 297.043C333.718 291.256 339.48 286.331 345.041 289.248C347.937 290.788 349.916 294.106 350.809 297.606Z" fill="#EFD9CE"/>
<path d="M304.929 303.761C303.997 304.175 303.292 305.461 303.001 306.448C303.131 306.112 301.583 304.922 301.365 304.868C300.812 304.685 300.205 304.718 299.641 304.947C298.98 305.198 298.265 305.666 297.767 306.187C297.518 306.448 296.425 307.513 296.61 307.881C296.359 307.22 294.806 306.236 294.014 305.902C293.579 305.794 293.536 305.599 293.763 305.24C294.195 304.426 295.267 303.263 295.699 302.449C297.093 299.984 298.098 297.607 297.875 294.787C297.764 293.377 297.36 292.033 296.881 290.809C296.63 290.147 296.282 289.508 295.836 288.891C295.509 288.349 295.095 287.417 294.39 287.473C294.195 287.516 293.903 287.582 293.729 287.723C292.429 288.322 291.204 288.802 289.86 289.206C288.613 289.588 287.552 290.338 286.588 291.067C285.18 292.1 283.815 293.328 282.907 294.762C282.28 295.62 281.891 296.629 281.503 297.639C281.503 297.639 278.492 305.693 280.683 311.35C281.827 314.168 283.518 313.482 283.518 313.482C283.518 313.482 285.094 326.451 289.172 326.357C292.328 326.264 292.398 323.378 292.398 323.378C292.398 323.378 294.389 326.314 296.579 326.028C299.453 325.588 299.772 322.442 299.772 322.442C299.772 322.442 300.938 325.358 303.648 324.648C306.164 323.981 306.214 321.92 306.214 321.92C306.214 321.92 307.964 323.783 309.178 323.715C315.827 323.659 311.834 311.334 310.819 308.18C310.186 306.272 308.608 303.346 306.179 303.481C305.789 303.569 305.102 303.62 304.929 303.761Z" fill="#EFBEA9"/>
<path d="M305.953 321.671C305.207 317.432 303.777 312.423 303.246 307.316C303.135 305.906 303.695 303.833 305.983 303.525C307.274 303.338 308.403 303.802 309.655 306.186C310.743 308.299 311.782 312.473 312.209 314.837" stroke="#424D51" stroke-linecap="round" stroke-linejoin="round"/>
<path d="M303.258 307.592C303.258 307.592 302.461 304.725 300.302 304.696C299.38 304.698 298.155 305.178 297.496 306.35C295.572 309.651 298.433 319.668 299.328 322.747" stroke="#424D51" stroke-linecap="round" stroke-linejoin="round"/>
<path d="M290.557 313.338C291.151 317.817 291.404 319.4 292.464 323.671" stroke="#424D51" stroke-linecap="round" stroke-linejoin="round"/>
<path d="M297.305 297.272C297.305 297.272 297.125 299.67 296.077 301.852C295.029 304.034 293.287 305.86 293.287 305.86C293.287 305.86 288.796 305.944 286.313 306.296" stroke="#424D51" stroke-linecap="round" stroke-linejoin="round"/>
<path d="M282.661 313.776C282.661 313.776 290.037 313.762 293.516 312.367C295.673 311.474 296.701 310.116 296.709 308.782C296.751 308.055 295.879 305.996 293.189 305.882" stroke="#424D51" stroke-linecap="round" stroke-linejoin="round"/>
<path d="M341.08 215.249C333.83 208.249 331.951 204.749 323.765 198.249C315.579 191.749 305.248 186.776 295.455 185.249C289.822 184.371 284.984 184.515 279.33 185.249C273.578 185.995 278.115 187.762 272.701 185.249C269.619 183.783 240.073 173.567 227.139 170L216.704 204.249C223.953 207.249 230.39 210.499 237.312 212.763L235.64 256.499C235.64 256.499 254.167 263.249 268.745 263.999C283.322 264.749 294.89 260.249 294.89 260.249L302.89 224.999C307.349 228.749 316.83 237.937 316.83 237.937L341.08 215.249Z" fill="#FFDBD5"/>
<path d="M284.048 185.079C279.816 184.107 271.98 183.045 261.739 181.855C244.802 180.869 255.882 193.238 268.934 198.044C273.793 199.897 284.073 202.386 288.795 196.44C291.805 193.447 293.634 187.789 284.048 185.079Z" fill="#EFBEA9"/>
<path fill-rule="evenodd" clip-rule="evenodd" d="M276.838 138.504C276.838 138.504 284.152 131.043 292.413 143.702C297.633 151.67 296.927 163.321 295.627 166.989C294.162 170.977 291.683 177.594 278.364 176.37C276.94 176.227 272.612 178.02 272.612 178.02C272.612 178.02 252.983 183.34 249.725 160.561C248.669 152.931 251.017 147.838 253.453 143.54C256.165 139.009 268.194 130.517 276.838 138.504Z" fill="#AF836B"/>
<path fill-rule="evenodd" clip-rule="evenodd" d="M260.154 188.07C258.887 191.13 285.148 191.106 284.791 187.926C284.179 182.46 283.922 179.269 282.93 169.518C282.45 164.34 276.94 165.46 273.926 165.496C268.305 165.623 266.875 171.72 266.875 171.72C266.875 171.72 261.421 185.01 260.154 188.07Z" fill="#EFBEA9"/>
<path fill-rule="evenodd" clip-rule="evenodd" d="M267.058 167.071C266.961 168.893 267.741 176.755 273.951 180.084C278.878 182.752 284.078 181.565 284.078 181.565C284.078 181.565 283.561 171.561 283.45 170.567C283.25 169.684 267.112 165.756 267.058 167.071Z" fill="#424D51"/>
<path fill-rule="evenodd" clip-rule="evenodd" d="M264.491 161.22C264.491 161.22 266.46 176.999 276.046 177.233C285.621 177.367 286.74 169.393 286.871 168.775C287.003 168.156 286.88 154.485 284.624 150.511C282.367 146.538 276.134 141.199 269.278 143.779C262.423 146.358 262.174 151.317 262.542 155.502C262.71 157.898 264.491 161.22 264.491 161.22Z" fill="#EFBEA9"/>
<path fill-rule="evenodd" clip-rule="evenodd" d="M266.045 158.027C265.514 156.879 259.955 152.169 256.314 156.502C253.921 159.386 255.315 161.947 256.972 163.27C259.072 164.947 261.623 165.265 264.195 163.97C266.767 162.676 266.567 160.887 266.699 160.269C266.896 159.341 266.432 158.789 266.045 158.027Z" fill="#EFBEA9"/>
<path fill-rule="evenodd" clip-rule="evenodd" d="M282.597 155.77C282.761 154.544 286.908 148.444 291.582 151.543C294.632 153.616 294.049 156.499 292.836 158.245C291.369 160.422 288.974 161.495 286.091 160.913C283.308 160.319 282.92 158.652 282.654 158.078C282.256 157.217 282.487 156.587 282.597 155.77Z" fill="#EFBEA9"/>
<path fill-rule="evenodd" clip-rule="evenodd" d="M266.723 151.511C266.723 151.511 275.329 154.673 282.071 149.288C282.171 149.277 283.278 152.876 285.21 152.157C285.21 152.157 284.536 139.855 272.887 141.865C260.245 143.986 261.912 155.271 262.508 155.204C264.794 154.948 266.723 151.511 266.723 151.511Z" fill="#AF836B"/>
<path d="M272.479 165.155C273.995 168.809 277.627 167.094 277.627 167.094" stroke="#424D51" stroke-width="0.729" stroke-linecap="round" stroke-linejoin="round"/>
<path d="M276.019 160.834C276.019 160.834 277.699 161.451 277.622 162.566C277.557 163.781 276.243 163.727 275.437 163.717" stroke="#424D51" stroke-width="0.729" stroke-linecap="round" stroke-linejoin="round"/>
<path d="M278.303 158.767C278.303 158.767 279.108 156.966 280.786 156.677C282.453 156.289 283.349 157.095 284.067 158.121" stroke="#424D51" stroke-width="0.729" stroke-linecap="round" stroke-linejoin="round"/>
<path d="M280.323 157.031C280.775 156.578 281.482 156.599 281.935 157.052C282.388 157.504 282.367 158.211 281.915 158.664C281.462 159.117 280.755 159.096 280.302 158.644C279.849 158.191 279.871 157.484 280.323 157.031Z" stroke="#424D51" stroke-width="0.729" stroke-linecap="round" stroke-linejoin="round"/>
<path d="M267.405 160.29C267.405 160.29 268.21 158.489 269.877 158.101C271.544 157.713 272.439 158.518 273.158 159.545" stroke="#424D51" stroke-width="0.729" stroke-linecap="round" stroke-linejoin="round"/>
<path d="M269.325 158.565C269.778 158.112 270.484 158.134 270.938 158.586C271.391 159.038 271.369 159.745 270.917 160.198C270.465 160.651 269.758 160.63 269.305 160.178C268.852 159.725 268.873 159.019 269.325 158.565Z" stroke="#424D51" stroke-width="0.729" stroke-linecap="round" stroke-linejoin="round"/>
<path d="M287.036 155.876C287.522 155.721 288.615 155.599 289.256 155.93M289.011 153.743C289.011 153.743 287.774 154.385 287.036 155.876L289.011 153.743ZM286.507 157.445C286.639 156.826 286.782 156.307 287.036 155.876L286.507 157.445Z" stroke="#424D51" stroke-width="0.729" stroke-linecap="round" stroke-linejoin="round"/>
<path d="M263.053 159.168C262.545 159.124 261.463 159.346 260.912 159.81M260.567 157.635C260.567 157.635 261.904 157.888 263.053 159.168L260.567 157.635ZM263.905 160.481C263.639 159.907 263.285 159.444 263.042 159.068L263.905 160.481Z" stroke="#424D51" stroke-width="0.729" stroke-linecap="round" stroke-linejoin="round"/>
<path d="M301.594 231.381L303.277 222.922" stroke="#424D51" stroke-linecap="round" stroke-linejoin="round"/>
</svg>
