<svg width="732" height="424" viewBox="0 0 732 424" fill="none" xmlns="http://www.w3.org/2000/svg">
<path d="M254.653 361.355C296.508 359.341 281.657 323.859 262.863 303.333C252.554 289.466 223.945 261.622 191.978 261.184C152.019 260.637 119.45 307.438 104.123 333.986C91.8621 355.224 117.533 361.081 129.028 361.355C151.288 360.169 203.473 363.818 254.653 361.355Z" fill="#F8F8F8"/>
<path d="M119.996 368.478C129.028 368.478 129.303 362.997 127.25 357.386C124.103 350.955 116.593 341.65 107.131 341.649C102.803 341.649 87.2903 355.197 88.1114 362.86C88.9324 370.524 110.79 368.478 119.996 368.478Z" fill="#E1E1E1"/>
<path d="M145.856 370.523C153.081 369.1 151.786 364.547 150.235 362.449C145.855 357.249 136.961 350.817 131.077 349.859C126.806 349.164 115.477 356.975 116.298 364.638C117.119 372.302 136.824 372.302 145.856 370.523Z" fill="#ECECEC"/>
<path d="M61.9362 363.558C63.6955 363.558 66.5438 350.992 67.748 344.709C67.748 342.562 67.1197 338.614 64.6065 339.996C61.465 341.724 60.2084 350.049 59.7372 354.133C59.2659 358.217 59.7372 363.558 61.9362 363.558Z" fill="#ECECEC"/>
<path d="M54.8678 359.71C54.8678 356.124 53.1138 347.065 52.119 343.217C51.1324 338.939 48.8989 339.996 48.2706 341.724C47.6423 343.453 48.6633 351.385 49.4487 354.526C50.2341 357.668 50.9409 362.773 52.119 363.165C53.2971 363.558 54.8678 362.851 54.8678 359.71Z" fill="#ECECEC"/>
<path d="M45.836 361.752C46.6528 360.307 43.6107 354.343 41.9876 351.542C40.378 348.557 38.0607 347.85 36.7256 349.971C35.3904 352.091 41.5164 360.338 42.3803 361.752C43.2442 363.165 44.815 363.558 45.836 361.752Z" fill="#ECECEC"/>
<path d="M692.311 341.41C681.887 344.885 670.654 361.077 666.25 369.101H583.901C577.386 355.707 559.469 358.966 556.935 360.776C554.401 362.586 538.472 363.129 548.972 350.822C562.013 335.536 584.747 343.884 593.313 348.831C593.132 346.719 590.381 340.469 580.825 332.361C570.825 323.877 577.224 317.441 587.884 321.683C597.548 325.529 607.249 342.496 607.249 342.496C607.249 342.496 611.809 312.028 621.547 298.698C630.867 285.939 638.016 295.441 634.396 304.852C631.276 312.964 629.088 325.484 629.148 331.094C635.965 322.286 654.406 305.015 672.041 299.965C691.316 294.445 694.483 308.234 683.262 311.91C672.041 315.586 647.363 347.336 647.363 347.336C647.363 347.336 668.363 332.361 690.321 337.971C694.139 338.947 694.89 340.551 692.311 341.41Z" fill="#F8F8F8"/>
<path fill-rule="evenodd" clip-rule="evenodd" d="M300.1 361.4L264.8 361.9C264.8 361.9 259.3 284 257.6 276C254.4 260.3 255.5 230.2 256.9 223.5C261.8 200.4 295.4 208.6 296 231.1C296.4 246.5 297.2 263.5 297.6 271.7C298.4 284.5 300.1 361.4 300.1 361.4Z" fill="#E5CDF4"/>
<path fill-rule="evenodd" clip-rule="evenodd" d="M300.4 320.699L262.1 322.399L262.8 364.599L300.7 362.999L300.4 320.699Z" fill="#DCBEF0"/>
<path fill-rule="evenodd" clip-rule="evenodd" d="M292.099 340.6L264.799 362C264.799 362 217.199 276.4 213.799 268.9C209.599 259.7 214.299 249.7 218.699 241.7C229.999 221.2 256.799 175.6 256.799 175.6C256.799 175.6 292.599 178 287.899 198.1C284.199 213.7 278.699 222.1 268.899 238.2C260.899 251.4 255.899 259.8 256.899 261.5C264.499 274.3 292.099 340.6 292.099 340.6Z" fill="#E5CDF4"/>
<path fill-rule="evenodd" clip-rule="evenodd" d="M284.5 320.801L248.4 334.801L262.8 364.601L300.7 363.001L284.5 320.801Z" fill="#DCBEF0"/>
<path d="M300 360.5C291.4 336.8 260 267.6 258.6 264.2C257.5 261.7 256.4 260.5 257.6 258.5" stroke="#424D51" stroke-linecap="round" stroke-linejoin="round"/>
<path d="M257.498 258.5C257.498 258.5 261.198 251.1 271.298 233" stroke="#424D51" stroke-linecap="round" stroke-linejoin="round"/>
<path fill-rule="evenodd" clip-rule="evenodd" d="M296.898 359.4C296.898 359.4 300.398 359.5 300.898 362.4C301.198 364.3 300.098 365.4 299.098 366.2C299.098 366.2 300.698 367.1 302.198 369.6C303.698 372.1 305.998 376.8 304.798 379.9C304.298 381.3 268.698 380.9 268.698 380.9L231.498 382.6C231.498 382.6 232.798 375.2 241.298 372.7C248.898 370.5 250.598 370.4 254.398 369.8C256.698 369.4 258.698 368.4 259.598 366.4C260.998 363.5 262.598 362.2 265.698 360.9C270.598 358.7 291.798 358.7 296.898 359.4Z" fill="#C5B0F0"/>
<path fill-rule="evenodd" clip-rule="evenodd" d="M304.9 380.1C305.9 378.9 298.1 368.2 290 367.7C282.5 367.2 277.4 373.9 272.5 375.2C269.3 376.1 264.4 376.2 260.1 376.3C258.2 376.4 234.2 377.2 234.2 377.2C234.2 377.2 228.7 381.6 231.3 383.7C232.8 385 304 381.2 304.9 380.1Z" fill="#9F78BA"/>
<path fill-rule="evenodd" clip-rule="evenodd" d="M268.398 372.1C270.498 372.3 272.298 370.9 272.598 368.9C272.798 366.9 271.398 365.1 269.298 364.8C267.198 364.6 265.398 366 265.098 368C264.898 370 266.398 371.9 268.398 372.1Z" fill="#DCBEF0"/>
<path fill-rule="evenodd" clip-rule="evenodd" d="M259.699 84.8006C252.299 74.9006 268.199 71.8006 267.199 62.5006C266.599 57.2006 278.899 45.4006 282.299 46.2006C284.699 46.7006 287.399 44.8006 287.399 44.8006C287.399 44.8006 289.499 44.7006 295.499 46.0006C301.499 47.3006 299.399 56.9006 305.299 58.9006C320.299 64.1006 324.199 82.0006 316.099 86.2006C307.999 90.4006 323.399 102.501 309.999 114.901C301.699 121.001 291.099 117.201 278.099 112.501C270.099 109.601 267.099 107.601 263.099 104.401C253.899 98.5006 262.999 89.3006 259.699 84.8006Z" fill="#89716E"/>
<path fill-rule="evenodd" clip-rule="evenodd" d="M304.4 87.7998C305.2 89.7998 281.7 90.7998 280.9 87.7998C279.5 82.4998 278.5 73.3998 278.2 70.5998C277.6 65.4998 277.1 62.7998 283.8 60.3998C293.2 56.9998 292.8 67.9998 292.8 67.9998C292.8 67.9998 297.4 77.2998 304.4 87.7998Z" fill="#FDDCC4"/>
<path fill-rule="evenodd" clip-rule="evenodd" d="M288.699 64.9998C288.699 64.9998 275.899 74.5998 269.099 67.6998C262.299 60.7998 267.399 54.4998 267.699 53.9998C267.999 53.4998 277.999 44.0998 282.499 42.8998C286.999 41.7998 295.099 42.5998 297.999 49.3998C300.899 56.1998 297.499 59.7998 294.099 62.3998C292.299 63.9998 288.699 64.9998 288.699 64.9998Z" fill="#FDDCC4"/>
<path fill-rule="evenodd" clip-rule="evenodd" d="M293.299 62.3999C292.499 62.5999 288.799 57.2999 288.499 51.6999C288.499 51.5999 273.699 44.9999 281.999 40.6999C281.999 40.6999 289.399 37.1999 296.999 46.0999C303.399 53.6999 296.699 62.3999 293.299 62.3999Z" fill="#89716E"/>
<path fill-rule="evenodd" clip-rule="evenodd" d="M289.2 59C290.1 58.8 298.2 58.9 297.6 64.5C297 70.1 290.7 68.7 290 68.2C288.5 67.1 287.4 66.2 286.9 64.3C286.2 61.1 287 59.4 289.2 59Z" fill="#FDDCC4"/>
<path fill-rule="evenodd" clip-rule="evenodd" d="M278.043 69.9065C278.043 69.9065 281.799 68.7002 284.499 66.5002C287.399 64.1002 278.73 75.2656 278.73 75.2656L278.043 69.9065Z" fill="#424D51"/>
<path fill-rule="evenodd" clip-rule="evenodd" d="M308.299 44.0001C309.799 46.2001 309.999 50.0001 306.799 52.2001C303.499 54.5001 299.099 54.6001 296.599 49.4001C295.099 46.3001 296.999 42.5001 300.699 41.3001C303.199 40.5001 306.099 40.7001 308.299 44.0001Z" fill="#89716E"/>
<path fill-rule="evenodd" clip-rule="evenodd" d="M279.799 61.1002C279.699 61.0002 276.199 59.7002 274.599 58.7002C274.099 58.4002 273.599 61.0002 275.399 62.1002C277.499 63.2002 280.399 61.4002 279.799 61.1002Z" fill="white"/>
<path d="M279.799 55.6C279.799 55.6 278.099 54.9 277.399 55.9C276.699 56.8 277.599 57.7 278.299 58.2" stroke="#424D51" stroke-width="0.729" stroke-linecap="round" stroke-linejoin="round"/>
<path d="M280.199 52.8998C280.199 52.8998 280.799 50.9998 279.799 49.6998C278.799 48.2998 277.599 48.2998 276.399 48.5998" stroke="#424D51" stroke-width="0.729" stroke-linecap="round" stroke-linejoin="round"/>
<path d="M279.9 50.2999C279.8 49.6999 279.3 49.1999 278.7 49.2999C278.1 49.3999 277.6 49.8999 277.6 50.4999C277.7 51.0999 278.2 51.5999 278.8 51.4999C279.5 51.4999 279.9 50.8999 279.9 50.2999Z" stroke="#424D51" stroke-width="0.729" stroke-linecap="round" stroke-linejoin="round"/>
<path d="M286.699 60.9999C286.699 60.9999 287.299 59.0999 286.299 57.7999C285.299 56.3999 284.099 56.3999 282.899 56.6999" stroke="#424D51" stroke-width="0.729" stroke-linecap="round" stroke-linejoin="round"/>
<path d="M286.4 58.3998C286.3 57.7998 285.8 57.2998 285.2 57.2998C284.6 57.3998 284.1 57.8998 284.1 58.4998C284.2 59.0998 284.7 59.5998 285.3 59.5998C285.9 59.4998 286.4 58.9998 286.4 58.3998Z" stroke="#424D51" stroke-width="0.729" stroke-linecap="round" stroke-linejoin="round"/>
<path d="M291.199 63C291.599 63.3 292.299 64.1 292.499 64.9M294.099 63.4C294.099 63.4 292.899 62.7 291.199 63L294.099 63.4ZM289.699 63.5C290.299 63.2 290.799 63.1 291.299 63L289.699 63.5Z" stroke="#424D51" stroke-width="0.729" stroke-linecap="round" stroke-linejoin="round"/>
<path fill-rule="evenodd" clip-rule="evenodd" d="M298.901 159.801C297.101 149.801 314.201 94.8006 302.401 85.0006C280.001 66.6006 263.701 103.901 262.201 111.201C260.601 118.501 266.001 160.801 266.001 160.801C266.001 160.801 300.701 169.901 298.901 159.801Z" fill="#E5CDF4"/>
<path fill-rule="evenodd" clip-rule="evenodd" d="M304 229.799C304 229.799 291.9 234.299 268.4 232.699C251.7 231.599 226.6 223.099 226.6 223.099C226.6 223.099 258.6 168.899 259.7 166.899C261.4 163.899 264.6 157.099 265.7 156.999C275.9 156.399 297.9 155.599 298.8 156.399C305.8 166.899 306 186.099 297.8 195.899C296.7 208.099 304 229.799 304 229.799Z" fill="#ECDDF6"/>
<path fill-rule="evenodd" clip-rule="evenodd" d="M179.397 101.566C166.497 97.1684 165.05 103.581 164.507 106.506C164.042 109.214 165.601 116.762 165.714 118.162C166.05 120.235 166.385 122.308 166.956 124.445C168.034 128.322 169.646 132.012 172.515 135.094C178.945 142.057 191.148 144.238 200.794 141.767C207.282 140.009 212.994 136.249 216.928 131.257C221.331 125.683 222.212 119.26 221.818 112.638C221.703 110.53 221.423 105.307 219.49 98.9342C211.538 93.0276 185.952 101.621 179.397 101.566Z" fill="#EA7A79"/>
<path fill-rule="evenodd" clip-rule="evenodd" d="M170.853 92.0065C170.163 92.6245 169.583 93.2248 169.019 93.9238C165.806 97.786 164.34 102.683 164.446 107.528C164.697 113.97 167.306 120.336 172.818 124.408C178.455 128.562 186.068 130.269 193.455 129.885C204.535 129.309 214.284 123.986 218.741 114.553C223.214 105.22 219.935 94.7085 211.495 88.5769C202.912 82.2656 190.84 82.2924 180.758 86.2521C177.13 87.5477 173.614 89.5342 170.853 92.0065Z" fill="#FFB6A9"/>
<path d="M299.798 84.4999C305.998 89.1999 306.998 95.5999 299.798 109.9C296.598 117.5 283.698 131.5 274.298 141.8C270.298 146.2 266.898 149.9 265.098 152.2C258.998 159.8 252.298 161.9 242.298 160C225.598 156.9 190.298 121.8 185.698 116.9C182.798 114.1 178.198 108.9 177.598 99.8999C176.798 88.3999 188.998 83.2999 193.498 85.5999C197.998 87.8999 199.998 90.9999 201.798 98.3999C202.598 101.6 203.298 104.2 203.698 105.3C209.998 111.4 240.198 130.8 242.298 129.8C244.398 128.7 248.498 122.8 252.098 117.6C253.398 115.8 254.598 114 255.598 112.6C256.698 111 257.998 109.1 259.498 107C268.698 93.3999 283.198 71.8999 299.798 84.4999Z" fill="#FDDCC4"/>
<path d="M281.7 134.3L253.9 112.1C258.7 104.8 272.888 87.9252 278.888 82.6252C284.988 77.3252 296.3 79.8001 300.6 83.0001C304.8 86.1001 307.5 94.1001 302.9 105.3C299.2 114.2 287.2 128.3 281.7 134.3Z" fill="#E5CDF4"/>
<path d="M300.299 107.699C296.799 119.099 281.299 134.499 281.299 134.499" stroke="#424D51" stroke-linecap="round" stroke-linejoin="round"/>
<path fill-rule="evenodd" clip-rule="evenodd" d="M159.513 68.4906C157.803 68.5644 157.691 74.7618 157.656 75.1726C157.82 78.6916 158.576 82.1148 159.529 85.5061C161.407 91.4831 164.387 97.3832 169.811 100.862C175.679 104.573 183.708 106.618 190.456 105.122C199.276 103.291 208.278 98.1893 211.838 89.5098C214.517 82.8975 213.12 76.1338 211.541 69.5008C210.801 66.1763 209.742 60.8774 205.618 60.4298C198.586 59.5406 164.956 68.3199 159.513 68.4906Z" fill="#EA7A79"/>
<path fill-rule="evenodd" clip-rule="evenodd" d="M169.757 54.7801C163.229 58.2664 158.27 63.9305 157.738 71.9178C156.571 88.5166 174.138 96.921 188.455 93.9988C198.741 91.8296 214.536 82.3879 210.913 66.8672C208.868 57.9796 200.975 51.7596 192.086 50.664C184.971 49.8895 176.564 51.1472 169.757 54.7801Z" fill="#FFB6A9"/>
<path fill-rule="evenodd" clip-rule="evenodd" d="M183.502 64.6126C180.655 65.1741 178.019 66.4107 176.185 68.2266C172.088 72.333 173.6 79.1795 179.081 81.1297C182.839 82.4468 187.167 81.646 190.759 80.0524C196.064 77.7766 198.236 70.5372 193.423 66.453C190.868 64.4348 187.04 63.9394 183.502 64.6126Z" fill="#EA7A79"/>
<path d="M225.253 53.9014C226.015 45.6902 214.887 33.3077 196.813 32.2646" stroke="#424D51" stroke-linecap="round" stroke-linejoin="round"/>
<path d="M235.116 50.7109C234.015 44.7879 227.509 36.146 217.365 32.5868" stroke="#424D51" stroke-linecap="round" stroke-linejoin="round"/>
<mask id="mask0_12_4094" style="mask-type:alpha" maskUnits="userSpaceOnUse" x="226" y="156" width="79" height="78">
<path fill-rule="evenodd" clip-rule="evenodd" d="M304 229.799C304 229.799 291.9 234.299 268.4 232.699C251.7 231.599 226.6 223.099 226.6 223.099C226.6 223.099 258.6 168.899 259.7 166.899C261.4 163.899 264.6 157.099 265.7 156.999C275.9 156.399 297.9 155.599 298.8 156.399C305.8 166.899 306 186.099 297.8 195.899C296.7 208.099 304 229.799 304 229.799Z" fill="#ECDDF6"/>
</mask>
<g mask="url(#mask0_12_4094)">
<circle cx="274.555" cy="205.494" r="3" fill="white"/>
<circle cx="274.555" cy="153.494" r="3" fill="white"/>
<circle cx="274.555" cy="231.494" r="3" fill="white"/>
<circle cx="274.555" cy="179.494" r="3" fill="white"/>
<circle cx="228.055" cy="205.494" r="3" fill="white"/>
<circle cx="228.055" cy="153.494" r="3" fill="white"/>
<circle cx="228.055" cy="231.494" r="3" fill="white"/>
<circle cx="228.055" cy="179.494" r="3" fill="white"/>
<circle cx="268.555" cy="218.494" r="3" fill="white"/>
<circle cx="268.555" cy="166.494" r="3" fill="white"/>
<circle cx="268.555" cy="192.494" r="3" fill="white"/>
<circle cx="290.055" cy="205.494" r="3" fill="white"/>
<circle cx="290.055" cy="153.494" r="3" fill="white"/>
<circle cx="290.055" cy="231.494" r="3" fill="white"/>
<circle cx="290.055" cy="179.494" r="3" fill="white"/>
<circle cx="243.555" cy="205.494" r="3" fill="white"/>
<circle cx="243.555" cy="153.494" r="3" fill="white"/>
<circle cx="243.555" cy="231.494" r="3" fill="white"/>
<circle cx="243.555" cy="179.494" r="3" fill="white"/>
<circle cx="284.055" cy="218.494" r="3" fill="white"/>
<circle cx="284.055" cy="166.494" r="3" fill="white"/>
<circle cx="284.055" cy="192.494" r="3" fill="white"/>
<circle cx="237.555" cy="218.494" r="3" fill="white"/>
<circle cx="237.555" cy="166.494" r="3" fill="white"/>
<circle cx="237.555" cy="192.494" r="3" fill="white"/>
<circle cx="305.555" cy="205.494" r="3" fill="white"/>
<circle cx="305.555" cy="153.494" r="3" fill="white"/>
<circle cx="305.555" cy="231.494" r="3" fill="white"/>
<circle cx="305.555" cy="179.494" r="3" fill="white"/>
<circle cx="259.055" cy="205.494" r="3" fill="white"/>
<circle cx="259.055" cy="153.494" r="3" fill="white"/>
<circle cx="259.055" cy="231.494" r="3" fill="white"/>
<circle cx="259.055" cy="179.494" r="3" fill="white"/>
<circle cx="299.555" cy="218.494" r="3" fill="white"/>
<circle cx="299.555" cy="166.494" r="3" fill="white"/>
<circle cx="299.555" cy="192.494" r="3" fill="white"/>
<circle cx="253.055" cy="218.494" r="3" fill="white"/>
<circle cx="253.055" cy="166.494" r="3" fill="white"/>
<circle cx="253.055" cy="192.494" r="3" fill="white"/>
</g>
<path fill-rule="evenodd" clip-rule="evenodd" d="M415.399 289.101C415.399 289.101 411.199 203.601 421.099 201.701C429.899 200.101 479.199 201.401 484.699 200.801C488.399 200.401 485.899 269.801 485.399 283.901C484.799 302.501 419.399 303.401 415.399 289.101Z" fill="#DEC0F1"/>
<path fill-rule="evenodd" clip-rule="evenodd" d="M322.999 238.101C322.999 238.101 320.299 222.101 331.899 212.801C343.499 203.601 351.499 204.501 358.399 203.701C366.999 202.701 420.799 197.901 443.399 201.101C468.799 204.701 446.199 256.901 446.199 256.901L416.099 256.701L415.299 244.001C415.299 244.101 326.099 246.801 322.999 238.101Z" fill="#DEC0F1"/>
<path fill-rule="evenodd" clip-rule="evenodd" d="M401.498 254.701C409.798 255.001 429.098 255.801 441.598 254.401C441.998 254.401 448.298 253.801 445.798 249.201C445.798 249.201 449.398 249.201 449.698 246.301C449.898 244.101 448.498 243.101 447.298 242.701C447.198 242.701 449.698 242.801 449.698 240.301C449.598 237.101 445.798 236.301 442.998 236.401C442.898 236.401 444.598 236.201 444.598 233.901C444.598 233.001 443.698 231.601 440.898 231.001C436.098 230.001 420.298 230.501 420.298 230.501C420.298 230.501 422.698 228.401 425.298 226.301C426.098 225.701 427.498 223.801 426.298 222.001C425.198 220.301 423.898 220.401 420.798 221.801C417.598 223.301 411.198 226.201 407.098 229.801C406.798 230.101 402.898 230.201 400.298 230.401C388.398 231.701 387.898 254.201 401.498 254.701Z" fill="#EFD9CE"/>
<path d="M419.799 230.901C418.099 230.801 416.299 230.601 414.199 231.001" stroke="#424D51" stroke-linecap="round" stroke-linejoin="round"/>
<path d="M425.1 236.301C425.1 236.301 439.9 236.601 443.5 236.601" stroke="#424D51" stroke-linecap="round" stroke-linejoin="round"/>
<path d="M424.699 241.799C424.699 241.799 437.299 241.499 443.099 241.799C444.599 241.899 446.299 242.199 447.699 242.899" stroke="#424D51" stroke-linecap="round" stroke-linejoin="round"/>
<path d="M424.1 247.501C424.1 247.501 437.9 247.301 441.5 247.601C442.3 247.701 444.4 247.901 445.6 249.001" stroke="#424D51" stroke-linecap="round" stroke-linejoin="round"/>
<path fill-rule="evenodd" clip-rule="evenodd" d="M394.699 255.201C394.599 255.701 397.899 256.001 399.299 254.501C400.699 253.001 402.299 231.201 400.599 230.201C398.899 229.201 396.299 229.201 396.299 229.201C396.299 229.201 394.799 254.701 394.699 255.201Z" fill="#EFD9CE"/>
<path fill-rule="evenodd" clip-rule="evenodd" d="M353 222.901C355.2 223.401 376 223.801 384.7 224.501C391.3 225.101 399 224.401 398.7 230.101C398.5 234.901 399.8 258.901 393.8 258.701C387.1 258.501 349.6 258.901 341.3 257.101C333.6 255.401 321.4 246.101 322.8 233.501C324 222.301 347.3 221.601 353 222.901Z" fill="#DEC0F1"/>
<path d="M344.398 222.701C344.398 222.701 392.198 225.001 393.198 225.201C394.198 225.401 398.898 225.401 398.698 229.201" stroke="#424D51" stroke-linecap="round" stroke-linejoin="round"/>
<path fill-rule="evenodd" clip-rule="evenodd" d="M576.999 238.501C576.999 238.501 579.799 222.501 568.099 213.201C556.499 204.001 548.499 204.901 541.599 204.101C532.999 203.101 479.199 198.301 456.599 201.501C446.449 205.701 453.799 257.401 453.799 257.401L483.899 257.201L484.699 244.501C484.699 244.501 573.899 247.201 576.999 238.501Z" fill="#DEC0F1"/>
<path fill-rule="evenodd" clip-rule="evenodd" d="M498.499 255.101C490.199 255.401 470.899 256.201 458.399 254.801C457.999 254.801 451.699 254.201 454.199 249.601C454.199 249.601 450.699 249.601 450.299 246.701C450.099 244.501 451.499 243.601 452.699 243.101C452.799 243.101 450.299 243.201 450.299 240.701C450.399 237.501 454.199 236.701 456.999 236.901C457.099 236.901 455.399 236.701 455.399 234.401C455.399 233.501 456.299 232.101 459.099 231.501C463.899 230.501 479.699 231.001 479.699 231.001C479.699 231.001 477.299 228.901 474.699 226.901C473.899 226.301 472.499 224.401 473.699 222.601C474.799 220.901 476.099 221.001 479.199 222.401C482.399 223.901 488.799 226.801 492.899 230.401C493.199 230.701 497.099 230.801 499.699 231.001C511.599 232.101 512.099 254.501 498.499 255.101Z" fill="#EFD9CE"/>
<path d="M480.199 231.299C481.899 231.199 483.699 230.999 485.799 231.399" stroke="#424D51" stroke-linecap="round" stroke-linejoin="round"/>
<path d="M474.9 236.701C474.9 236.701 460.1 237.001 456.5 237.001" stroke="#424D51" stroke-linecap="round" stroke-linejoin="round"/>
<path d="M475.299 242.2C475.299 242.2 462.699 241.9 456.899 242.2C455.399 242.3 453.599 242.6 452.299 243.3" stroke="#424D51" stroke-linecap="round" stroke-linejoin="round"/>
<path d="M475.898 247.901C475.898 247.901 462.098 247.701 458.498 248.001C457.698 248.001 455.598 248.301 454.398 249.401" stroke="#424D51" stroke-linecap="round" stroke-linejoin="round"/>
<path fill-rule="evenodd" clip-rule="evenodd" d="M505.3 255.5C505.4 256 502.1 256.3 500.7 254.8C499.3 253.3 497.7 231.5 499.4 230.5C501.1 229.5 503.7 229.5 503.7 229.5C503.7 229.5 505.2 255.1 505.3 255.5Z" fill="#EFD9CE"/>
<path fill-rule="evenodd" clip-rule="evenodd" d="M547 223.301C544.8 223.801 524 224.201 515.3 224.901C508.7 225.401 501 224.801 501.3 230.501C501.5 235.301 500.2 259.301 506.2 259.101C512.9 258.901 550.4 259.301 558.7 257.501C566.4 255.801 578.6 246.501 577.2 233.901C576 222.601 552.7 222.001 547 223.301Z" fill="#DEC0F1"/>
<path d="M555.599 223.1C555.599 223.1 507.799 225.4 506.799 225.6C505.799 225.8 501.099 225.8 501.299 229.6" stroke="#424D51" stroke-linecap="round" stroke-linejoin="round"/>
<path fill-rule="evenodd" clip-rule="evenodd" d="M515.6 291.2L520.6 280.4L515.6 291.2Z" fill="white"/>
<path fill-rule="evenodd" clip-rule="evenodd" d="M383 290.5L378 279.6L383 290.5Z" fill="white"/>
<path fill-rule="evenodd" clip-rule="evenodd" d="M499.698 322.9L534.398 335.7C534.398 335.7 555.998 293.4 559.698 286.1C563.998 277.5 564.598 271.2 560.898 262.8C543.398 222.4 503.698 258.6 489.298 268C474.898 277.4 492.598 303.2 502.898 301.1C508.298 300 515.398 292 513.698 295.2C508.098 305.6 499.698 322.9 499.698 322.9Z" fill="#EFD9CE"/>
<path fill-rule="evenodd" clip-rule="evenodd" d="M501.6 318.1L536 334L518.8 365.9C518.8 365.9 483.1 376.3 483.3 363.7C483.5 349.1 501.6 318.1 501.6 318.1Z" fill="#CBE4FC"/>
<path d="M515.6 291.2L520.6 280.4" stroke="#424D51" stroke-linecap="round" stroke-linejoin="round"/>
<path fill-rule="evenodd" clip-rule="evenodd" d="M485.1 362.1C485.1 362.1 481.5 362.4 481.2 365.3C481 367.2 482.1 368.2 483.2 369C483.2 369 481.6 370 480.3 372.6C479 375.2 476.9 380 478.2 383C478.8 384.4 514.3 382.1 514.3 382.1L551.6 381.8C551.6 381.8 550 374.4 541.3 372.4C533.6 370.6 531.9 370.5 528.1 370.2C525.7 370 523.7 369 522.7 367.1C521.2 364.2 519.5 363 516.4 361.9C511.3 360.1 490.2 361.2 485.1 362.1Z" fill="#93BEFA"/>
<path fill-rule="evenodd" clip-rule="evenodd" d="M478.099 383.2C476.999 382.1 484.299 371 492.399 370C499.899 369.1 505.299 375.501 510.299 376.601C513.499 377.301 518.499 377.201 522.799 377.101C524.699 377.101 548.699 376.7 548.699 376.7C548.699 376.7 554.499 380.801 551.899 383.101C550.399 384.401 479.099 384.2 478.099 383.2Z" fill="#EFD9CE"/>
<path fill-rule="evenodd" clip-rule="evenodd" d="M514.099 373.401C512.099 373.801 510.099 372.501 509.799 370.501C509.399 368.501 510.799 366.601 512.899 366.201C514.899 365.801 516.899 367.101 517.299 369.101C517.599 371.101 516.199 373.001 514.099 373.401Z" fill="#CBE4FC"/>
<path fill-rule="evenodd" clip-rule="evenodd" d="M398.8 322.201L364.1 335.001C364.1 335.001 342.5 292.701 338.8 285.401C334.5 276.801 333.9 270.501 337.6 262.101C355.1 221.701 394.8 257.901 409.2 267.301C423.6 276.701 405.9 302.401 395.6 300.401C390.2 299.301 383.1 291.301 384.8 294.501C390.4 304.901 398.8 322.201 398.8 322.201Z" fill="#EFD9CE"/>
<path fill-rule="evenodd" clip-rule="evenodd" d="M396.9 317.4L362.5 333.3L379.7 365.2C379.7 365.2 415.3 375.6 415.2 363C415.1 348.4 396.9 317.4 396.9 317.4Z" fill="#CBE4FC"/>
<path d="M383 290.5L378 279.6" stroke="#424D51" stroke-linecap="round" stroke-linejoin="round"/>
<path fill-rule="evenodd" clip-rule="evenodd" d="M413.5 361.401C413.5 361.401 417.1 361.701 417.4 364.601C417.6 366.501 416.5 367.501 415.4 368.301C415.4 368.301 417 369.301 418.3 371.901C419.6 374.401 421.7 379.301 420.4 382.301C419.8 383.701 384.3 381.401 384.3 381.401L347 381.101C347 381.101 348.6 373.701 357.3 371.701C365 369.901 366.7 369.801 370.5 369.501C372.9 369.301 374.9 368.301 375.9 366.401C377.4 363.501 379.1 362.301 382.2 361.201C387.2 359.401 408.4 360.501 413.5 361.401Z" fill="#93BEFA"/>
<path fill-rule="evenodd" clip-rule="evenodd" d="M420.4 382.501C421.5 381.401 414.2 370.301 406.1 369.301C398.6 368.401 393.2 374.801 388.2 375.901C385 376.601 380 376.501 375.7 376.401C373.8 376.401 349.8 376.001 349.8 376.001C349.8 376.001 344 380.101 346.6 382.401C348.1 383.701 419.4 383.501 420.4 382.501Z" fill="#EFD9CE"/>
<path fill-rule="evenodd" clip-rule="evenodd" d="M384.399 372.7C386.499 373.1 388.399 371.7 388.799 369.8C389.199 367.8 387.799 365.9 385.699 365.5C383.599 365.1 381.699 366.5 381.299 368.4C380.999 370.4 382.299 372.3 384.399 372.7Z" fill="#CBE4FC"/>
<path d="M387 299.2L383 290.5L400.9 261.4C400.9 261.4 421.962 273.812 431.38 280.321C440.318 280.376 455.654 280.563 466.763 281.2C476.048 274.742 497.5 262.101 497.5 262.101L515.4 291.201L511.5 299.901C511.5 299.901 485.5 320.901 468.2 324.101C465.557 324.596 462.662 324.741 459.825 324.586C452.903 324.977 443.492 324.738 436.985 324.031C434.668 324.071 432.351 323.904 430.2 323.5C413 320.2 387 299.2 387 299.2Z" fill="#FFB6A9"/>
<path fill-rule="evenodd" clip-rule="evenodd" d="M440 204.6C438.4 210.7 463 214.2 464.5 207.9C464.6 202.4 464.8 199.2 465.3 189.3C465.5 184.1 459.9 184.4 456.9 184.1C451.3 183.5 449 189.3 449 189.3C449 189.3 441.6 201.8 440 204.6Z" fill="#EFD9CE"/>
<path fill-rule="evenodd" clip-rule="evenodd" d="M449.7 185.1C449.4 186.9 449.1 194.8 454.7 199C459.2 202.3 464.7 201.8 464.7 201.8C464.7 201.8 465.6 191.8 465.5 190.8C465.4 189.9 450 183.8 449.7 185.1Z" fill="#424D51"/>
<path fill-rule="evenodd" clip-rule="evenodd" d="M447.999 178.9C447.999 178.9 447.699 194.9 457.199 196.4C466.699 197.9 468.899 190.1 469.099 189.6C469.299 189 471.099 175.4 469.399 171.1C467.699 166.8 462.299 160.7 455.099 162.3C447.899 163.9 446.999 168.8 446.799 173C446.699 175.3 447.999 178.9 447.999 178.9Z" fill="#EFD9CE"/>
<path fill-rule="evenodd" clip-rule="evenodd" d="M450 175.9C449.6 174.7 444.7 169.2 440.5 173C437.7 175.5 438.7 178.2 440.2 179.8C442 181.8 444.5 182.5 447.3 181.5C450 180.6 450.1 178.8 450.4 178.2C450.6 177.3 450.3 176.7 450 175.9Z" fill="#EFD9CE"/>
<path fill-rule="evenodd" clip-rule="evenodd" d="M466.8 176C467.2 174.8 472.1 169.4 476.3 173.1C479.1 175.6 478.1 178.3 476.6 179.9C474.8 181.9 472.3 182.6 469.5 181.6C466.8 180.7 466.7 178.9 466.5 178.3C466.2 177.4 466.5 176.8 466.8 176Z" fill="#EFD9CE"/>
<path fill-rule="evenodd" clip-rule="evenodd" d="M451.6 169.6C451.6 169.6 459.7 174 467.1 169.6C467.2 169.6 468.1 173.4 470.2 172.9L471 161.9C471 161.9 470.8 158.8 466.8 158.6C463.6 158.5 450.5 158 450.5 158C450.5 158 446.8 158 446.7 161.8C446.6 165.7 446.5 172.8 447.1 172.8C449.2 172.8 451.6 169.6 451.6 169.6Z" fill="#F1D7AD"/>
<path d="M455.2 183.4C456.2 187.3 460.1 186.1 460.1 186.1" stroke="#424D51" stroke-width="0.729" stroke-linecap="round" stroke-linejoin="round"/>
<path d="M459.4 179.5C459.4 179.5 461 180.3 460.8 181.5C460.5 182.6 459.3 182.5 458.5 182.3" stroke="#424D51" stroke-width="0.729" stroke-linecap="round" stroke-linejoin="round"/>
<path d="M461.899 177.8C461.899 177.8 462.899 176.2 464.599 176C466.299 175.9 467.099 176.8 467.599 177.9" stroke="#424D51" stroke-width="0.729" stroke-linecap="round" stroke-linejoin="round"/>
<path d="M464.1 176.3C464.6 175.9 465.3 176.1 465.7 176.6C466.1 177.1 466 177.8 465.4 178.2C464.9 178.6 464.2 178.5 463.8 177.9C463.5 177.4 463.6 176.7 464.1 176.3Z" stroke="#424D51" stroke-width="0.729" stroke-linecap="round" stroke-linejoin="round"/>
<path d="M450.8 177.8C450.8 177.8 451.8 176.2 453.5 176C455.2 175.9 456 176.8 456.5 177.9" stroke="#424D51" stroke-width="0.729" stroke-linecap="round" stroke-linejoin="round"/>
<path d="M453 176.3C453.5 175.9 454.2 176.1 454.6 176.6C455 177.1 454.9 177.8 454.3 178.2C453.8 178.6 453.1 178.5 452.7 177.9C452.4 177.4 452.5 176.7 453 176.3Z" stroke="#424D51" stroke-width="0.729" stroke-linecap="round" stroke-linejoin="round"/>
<path d="M471.099 176.7C471.599 176.6 472.699 176.6 473.299 177M473.399 174.8C473.399 174.8 472.099 175.2 471.199 176.7L473.399 174.8ZM470.399 178.2C470.599 177.6 470.799 177.1 471.099 176.7L470.399 178.2Z" stroke="#424D51" stroke-width="0.729" stroke-linecap="round" stroke-linejoin="round"/>
<path d="M446.9 176.5C446.4 176.4 445.3 176.4 444.7 176.8M444.6 174.7C444.6 174.7 445.9 175.1 446.8 176.6L444.6 174.7ZM447.6 178C447.4 177.4 447.2 176.9 446.9 176.5L447.6 178Z" stroke="#424D51" stroke-width="0.729" stroke-linecap="round" stroke-linejoin="round"/>
<mask id="mask1_12_4094" style="mask-type:alpha" maskUnits="userSpaceOnUse" x="383" y="261" width="133" height="64">
<path d="M387 299.2L383 290.5L400.9 261.4C400.9 261.4 421.962 273.812 431.38 280.321C440.318 280.376 455.654 280.563 466.763 281.2C476.048 274.742 497.5 262.101 497.5 262.101L515.4 291.201L511.5 299.901C511.5 299.901 485.5 320.901 468.2 324.101C465.557 324.596 462.662 324.741 459.825 324.586C452.903 324.977 443.492 324.738 436.985 324.031C434.668 324.071 432.351 323.904 430.2 323.5C413 320.2 387 299.2 387 299.2Z" fill="#FFB6A9"/>
</mask>
<g mask="url(#mask1_12_4094)">
<path fill-rule="evenodd" clip-rule="evenodd" d="M643.145 164.441C637.746 167.054 630.86 166.575 622.478 162.387C620.634 161.465 619.217 159.727 618.05 157.707C616.873 155.671 615.863 153.189 614.907 150.587C614.441 149.32 613.988 148.026 613.533 146.728C612.087 142.6 610.629 138.436 608.722 135.003C606.23 130.517 603.235 127.764 598.96 127.88C594.48 128.001 588.11 131.242 578.897 140.335C569.759 149.353 564.976 157.374 563.074 164.427C561.18 171.451 562.116 177.614 564.607 183.011C565.151 184.19 565.769 185.333 566.449 186.439C571.792 181.946 579.608 178.21 590.86 175.195C594.312 174.27 597.225 174.217 599.619 174.936C602.039 175.663 603.825 177.149 605.033 179.099C607.397 182.917 607.501 188.409 606.348 193.536C605.188 198.698 602.677 203.846 599.375 207.094C597.717 208.725 595.794 209.939 593.679 210.358C591.527 210.785 589.303 210.361 587.153 208.935C581.106 204.925 572.074 198.817 565.983 190.45C565.886 190.55 565.79 190.651 565.695 190.752C560.915 195.841 559.103 201.791 558.639 208.728C558.343 213.13 559.122 216.649 560.467 219.414C561.943 218.21 563.365 217.259 564.727 216.531C569.466 213.998 573.564 214.139 576.483 215.892C579.347 217.612 580.859 220.774 580.608 223.785C580.35 226.89 578.232 229.699 574.204 230.619C572.765 230.947 570.841 230.746 568.863 230.097C566.852 229.437 564.661 228.274 562.662 226.53C561.66 225.656 560.711 224.64 559.858 223.474C557.111 226.14 554.115 229.803 550.932 234.729C544.997 243.914 538.278 248.642 531.627 250.182C524.983 251.719 518.612 250.027 513.468 246.771C509.738 244.41 506.607 241.201 504.436 237.721C503.595 237.402 502.75 237.074 501.903 236.745C498.237 235.322 494.54 233.887 491 233.068C485.842 231.875 481.683 232.165 478.911 235.3C476.018 238.572 474.237 245.326 475.136 258.244C476.028 271.052 478.998 279.905 483.112 285.942C487.208 291.954 492.494 295.258 498.212 296.883C499.43 297.23 500.667 297.5 501.917 297.703C502.073 290.768 504.256 282.547 509.38 271.871C510.926 268.65 512.784 266.404 514.888 265.056C517.016 263.694 519.308 263.307 521.573 263.66C526.011 264.353 530.246 267.851 533.385 272.065C536.546 276.308 538.817 281.566 539.131 286.187C539.288 288.507 538.957 290.757 537.898 292.635C536.82 294.546 535.05 295.958 532.567 296.661C525.553 298.646 514.968 301.54 504.605 300.672L504.609 300.72C504.611 300.746 504.612 300.771 504.614 300.797C505.123 307.768 507.935 313.285 511.677 319.305C514.104 323.21 518.228 324.909 522.639 325.205C522.492 323.146 522.528 321.382 522.719 319.879C523.01 317.588 523.671 315.814 524.679 314.533C525.707 313.226 527.032 312.515 528.461 312.268C531.211 311.793 534.212 313.048 536.419 314.539C537.552 315.304 538.558 316.186 539.308 317.06C540.008 317.876 540.662 318.888 540.735 319.904C540.813 321.008 540.23 321.972 539.553 322.705C538.85 323.464 537.874 324.168 536.751 324.789C534.496 326.038 531.432 327.077 528.14 327.568C527.299 327.694 526.433 327.785 525.553 327.833C526.029 331.316 526.976 335.634 528.548 340.945C531.652 351.431 530.864 359.609 527.699 365.659C524.539 371.702 519.105 375.433 513.284 377.216C507.479 378.994 501.195 378.867 496.182 377.102C491.187 375.343 487.196 371.835 486.627 366.718C485.602 357.486 488.683 349.005 492.358 342.325C495.177 337.199 498.433 332.998 500.485 330.35L500.486 330.348L500.487 330.347C501.095 329.563 501.597 328.915 501.951 328.419C502.656 327.433 503.468 325.701 503.865 323.736C504.262 321.771 504.213 319.729 503.394 318.024C502.601 316.372 500.999 314.85 497.888 314.03C494.729 313.198 490.048 313.105 483.257 314.399C477.96 315.408 473.622 317.002 470.156 318.889C470.557 319.858 470.91 320.799 471.217 321.712C472.941 326.842 473.255 331.226 472.148 334.465C471.587 336.105 470.657 337.461 469.363 338.426C468.07 339.391 466.488 339.911 464.713 340.005C461.21 340.189 458.522 338.834 457.216 336.315C455.953 333.878 456.173 330.702 457.632 327.563C459.191 324.21 462.217 320.736 466.815 317.813C463.734 311.23 458.415 303.339 450.363 294.618C449.538 295.948 448.616 297.211 447.592 298.399C449.482 300.196 450.937 302.41 451.989 304.956C454.409 310.814 454.672 318.351 453.439 326.488C452.203 334.651 449.444 343.548 445.681 352.217C438.176 369.511 426.56 386.158 414.729 394.308C408.808 398.386 402.64 400.465 396.828 399.148C390.978 397.822 385.895 393.154 381.956 384.652C381.089 382.781 381.065 380.539 381.413 378.232C381.763 375.906 382.522 373.336 383.397 370.706C383.823 369.426 384.276 368.131 384.73 366.834L384.73 366.832C386.175 362.705 387.632 358.54 388.282 354.667C389.132 349.607 388.509 345.587 385.095 343.011C381.518 340.312 374.518 338.871 361.644 340.232C348.877 341.582 340.135 344.868 334.25 349.195C328.389 353.503 325.276 358.905 323.857 364.677C323.547 365.938 323.317 367.216 323.158 368.505C330.137 368.326 338.577 370.28 349.253 374.942C352.527 376.372 354.838 378.148 356.261 380.203C357.699 382.28 358.167 384.557 357.895 386.834C357.362 391.293 354.018 395.65 349.919 398.939C345.792 402.25 340.619 404.708 336.012 405.187C333.699 405.427 331.438 405.177 329.524 404.186C327.576 403.177 326.101 401.458 325.31 399.003C323.085 392.097 319.834 381.688 320.293 371.35C320.154 371.368 320.017 371.386 319.88 371.406C312.969 372.402 307.841 375.924 303.151 381.056C300.175 384.312 298.589 387.548 297.915 390.549C299.82 390.528 301.525 390.672 303.044 390.952C308.328 391.928 311.443 394.594 312.631 397.785C313.796 400.915 313.006 404.331 310.932 406.528C308.793 408.794 305.386 409.668 301.664 407.875C300.334 407.234 298.956 405.877 297.815 404.136C296.655 402.366 295.667 400.09 295.192 397.48C294.954 396.172 294.846 394.786 294.907 393.342C291.097 393.712 286.47 394.708 280.91 396.573C270.542 400.05 262.341 399.555 256.182 396.61C250.029 393.667 246.106 388.371 244.115 382.617C242.131 376.88 242.033 370.595 243.617 365.522C245.196 360.468 248.558 356.353 253.652 355.602C262.841 354.246 271.427 357.022 278.234 360.454C283.458 363.088 287.773 366.192 290.493 368.148C291.3 368.728 291.967 369.208 292.475 369.544C293.486 370.213 295.246 370.962 297.224 371.288C299.202 371.615 301.24 371.493 302.916 370.613C304.537 369.762 306.001 368.106 306.709 364.968C307.428 361.781 307.353 357.1 305.817 350.359C304.619 345.102 302.87 340.824 300.86 337.428C299.906 337.863 298.978 338.25 298.076 338.589C293.012 340.496 288.642 340.966 285.365 339.976C283.706 339.475 282.318 338.594 281.307 337.335C280.296 336.077 279.72 334.515 279.563 332.744C279.253 329.251 280.511 326.515 282.981 325.121C285.372 323.771 288.554 323.877 291.743 325.223C295.15 326.66 298.73 329.56 301.816 334.05C308.284 330.736 315.98 325.137 324.407 316.777C317.021 312.56 311.535 305.401 309.063 294.446C305.913 280.483 307.677 271.54 312.264 266.85C316.814 262.198 323.632 262.206 329.623 264.947C330.013 263.66 330.646 262.436 331.559 261.316C337.428 254.116 345.638 250.373 352.979 248.315C358.612 246.735 363.891 246.115 367.218 245.724L367.219 245.724C368.206 245.608 369.021 245.512 369.623 245.418C370.82 245.229 372.625 244.595 374.306 243.502C375.986 242.408 377.408 240.943 378.051 239.164C378.674 237.442 378.638 235.231 377.043 232.437C375.424 229.601 372.21 226.195 366.53 222.256C362.098 219.183 357.922 217.205 354.148 216.054C353.737 217.019 353.312 217.93 352.876 218.789C350.423 223.613 347.515 226.908 344.428 228.388C342.865 229.137 341.247 229.423 339.651 229.176C338.056 228.929 336.577 228.165 335.267 226.963C332.681 224.593 331.764 221.726 332.647 219.03C333.501 216.421 335.921 214.353 339.183 213.195C342.668 211.957 347.267 211.682 352.574 212.916C355.113 206.105 357.017 196.781 357.598 184.925C349.3 186.795 340.421 185.211 331.207 178.791C319.462 170.609 314.732 162.818 314.953 156.261C315.178 149.615 320.435 144.964 326.897 143.017C333.391 141.06 341.465 141.678 348.069 145.825C354.731 150.007 359.755 157.69 360.246 169.557C360.418 173.723 360.449 177.672 360.354 181.404C367.284 178.966 373.776 173.946 379.682 167.401C392.855 152.803 402.749 131.033 407.813 115.393L407.837 115.318L407.87 115.247C413.504 103.055 419.466 95.4008 425.56 91.4726C431.744 87.4861 437.976 87.3994 443.802 90.1317C449.541 92.8232 454.818 98.2097 459.398 105.048C463.992 111.908 467.958 120.337 471.029 129.274C475.562 142.47 478.196 156.924 477.946 169.22C479.974 170.047 482.006 170.949 484.029 171.917C500.051 179.587 515.731 191.556 524.198 203.977C525.124 205.336 525.968 206.706 526.719 208.083C532.289 206.955 537.427 206.697 540.694 206.534L540.694 206.534L540.695 206.534C541.687 206.484 542.507 206.443 543.114 206.389C544.321 206.281 546.164 205.769 547.914 204.79C549.663 203.812 551.18 202.445 551.941 200.713C552.678 199.036 552.789 196.828 551.385 193.934C549.959 190.995 546.981 187.382 541.576 183.072C537.36 179.71 533.325 177.456 529.636 176.056C529.162 176.991 528.678 177.872 528.185 178.7C525.415 183.349 522.292 186.442 519.114 187.712C517.504 188.355 515.87 188.532 514.294 188.179C512.72 187.826 511.295 186.965 510.068 185.678C507.647 183.141 506.924 180.218 507.985 177.587C509.011 175.041 511.565 173.14 514.897 172.202C518.456 171.201 523.063 171.234 528.276 172.819C531.265 166.194 533.788 157.018 535.161 145.228C526.757 146.538 518.003 144.364 509.238 137.343C498.067 128.393 493.869 120.303 494.528 113.776C495.197 107.16 500.753 102.871 507.331 101.36C513.941 99.8423 521.956 100.999 528.268 105.577C534.635 110.196 539.134 118.198 538.83 130.071C538.724 134.239 538.49 138.181 538.146 141.899C545.224 139.93 552.036 135.355 558.367 129.219C572.487 115.535 583.815 94.4751 589.913 79.2092L589.942 79.1362L589.98 79.0672C596.417 67.2795 602.877 60.041 609.22 56.5291C615.657 52.9652 621.88 53.2954 627.511 56.4111C633.057 59.4804 637.962 65.2078 642.075 72.3374C646.2 79.4884 649.593 88.1639 652.059 97.2869C656.979 115.485 658.283 135.743 654.118 149.492C652.034 156.373 648.509 161.845 643.145 164.441ZM329.157 267.632C329.064 267.586 328.972 267.54 328.879 267.496C323.358 264.844 317.702 265.042 314.14 268.685C310.515 272.391 308.53 280.157 311.623 293.868C314.019 304.489 319.333 311.073 326.324 314.841C329.057 312.029 331.861 308.931 334.72 305.531C340.143 299.081 342.138 292.817 341.983 287.263C336.999 284.356 332.988 279.991 330.844 275.409C329.656 272.869 329.014 270.186 329.157 267.632ZM341.626 283.929C337.863 281.334 334.884 277.85 333.221 274.297C332.398 272.539 331.914 270.811 331.791 269.181C336.072 272.104 339.698 276.677 341.221 282.185C341.379 282.756 341.514 283.337 341.626 283.929ZM344.515 285.66C344.382 284.227 344.123 282.833 343.75 281.486C341.901 274.796 337.305 269.383 332.006 266.204C332.287 265.022 332.812 263.933 333.593 262.974C338.984 256.361 346.611 252.826 353.688 250.841C359.088 249.327 364.014 248.747 367.36 248.352C368.42 248.227 369.322 248.121 370.031 248.01C371.621 247.76 373.772 246.98 375.737 245.701C377.703 244.421 379.616 242.554 380.519 240.056C381.443 237.502 381.237 234.492 379.322 231.137C377.431 227.824 373.868 224.151 368.025 220.099C363.486 216.952 359.13 214.858 355.116 213.608C357.792 206.336 359.724 196.524 360.258 184.203C368.133 181.7 375.304 176.169 381.63 169.158C395.131 154.197 405.158 132.082 410.285 116.277C415.82 104.319 421.506 97.2075 426.982 93.678C432.378 90.1998 437.648 90.1439 442.688 92.5073C447.814 94.9114 452.765 99.8587 457.218 106.508C461.658 113.138 465.532 121.351 468.547 130.127C472.906 142.815 475.424 156.535 475.336 168.197C470.208 166.267 465.146 164.843 460.372 164.06C452.934 162.841 446.055 163.156 440.725 165.7C438.071 166.966 435.84 168.766 434.133 171.134C433.616 170.175 433.077 169.251 432.514 168.38C429.547 163.792 425.589 160.196 419.848 160.737C414.312 161.259 407.585 165.627 398.945 175.379C390.234 185.211 385.704 193.942 384.159 201.703C382.609 209.494 384.088 216.203 387.202 221.912C387.955 223.292 388.803 224.614 389.727 225.879C389.506 226.131 389.29 226.385 389.08 226.641C384.145 232.655 382.646 239.377 382.646 246.714C382.646 251.922 383.94 256.026 385.901 259.175C383.049 262.257 380.067 266.419 377.025 271.898C371.957 281.029 366.05 285.635 360.329 287.37C354.804 289.045 349.263 288.098 344.515 285.66ZM344.604 288.613C344.421 294.466 342.096 300.835 336.728 307.219C334.046 310.41 331.404 313.346 328.816 316.037C335.577 318.913 343.755 319.586 352.531 318.739C368.317 317.215 385.675 310.808 399.297 304.121C395.498 299.353 395.99 292.798 398.95 287.163C402.103 281.158 408.201 275.83 415.787 274.022C423.438 272.2 432.441 273.997 441.252 281.961C444.345 284.757 447.184 287.502 449.781 290.184C452.897 283.531 453.863 275.382 453.33 266.582C452.143 246.955 443.541 224.643 435.93 210.072L435.893 210.002L435.865 209.929C431.116 197.374 429.589 187.677 430.614 180.428C430.968 177.924 431.628 175.714 432.558 173.787C431.852 172.38 431.109 171.039 430.311 169.804C427.524 165.495 424.352 162.948 420.095 163.35C415.633 163.77 409.494 167.43 400.909 177.119C392.395 186.728 388.159 195.051 386.733 202.215C385.313 209.35 386.659 215.437 389.505 220.655C390.127 221.795 390.82 222.893 391.572 223.952C396.603 219.112 404.151 214.861 415.177 211.1C418.559 209.947 421.462 209.699 423.899 210.256C426.362 210.82 428.243 212.184 429.579 214.048C432.193 217.7 432.664 223.172 431.857 228.365C431.044 233.593 428.883 238.897 425.806 242.359C424.261 244.097 422.423 245.437 420.341 245.996C418.222 246.566 415.974 246.292 413.734 245.013C407.433 241.416 398.012 235.926 391.376 227.985C391.286 228.091 391.197 228.198 391.109 228.305C386.679 233.702 385.27 239.761 385.27 246.714C385.27 251.125 386.282 254.584 387.809 257.253C389.201 255.953 390.556 254.909 391.867 254.091C396.426 251.247 400.523 251.114 403.553 252.668C406.525 254.192 408.246 257.247 408.197 260.267C408.147 263.383 406.222 266.327 402.264 267.514C400.85 267.938 398.918 267.866 396.901 267.351C394.85 266.826 392.586 265.813 390.475 264.207C389.417 263.402 388.401 262.451 387.473 261.344C384.91 264.188 382.166 268.044 379.32 273.172C374.012 282.733 367.624 287.9 361.091 289.881C355.304 291.635 349.561 290.841 344.604 288.613ZM401.243 306.087C387.322 313.003 369.287 319.758 352.783 321.351C343.383 322.258 334.36 321.503 326.858 318.039C318.151 326.774 310.106 332.713 303.225 336.275C305.345 339.907 307.148 344.391 308.375 349.776C309.955 356.709 310.108 361.824 309.269 365.545C308.419 369.313 306.54 371.674 304.135 372.937C301.783 374.171 299.111 374.259 296.797 373.877C294.483 373.496 292.37 372.62 291.027 371.732C290.43 371.337 289.692 370.807 288.825 370.184L288.825 370.183C286.089 368.217 282.062 365.323 277.053 362.797C270.491 359.489 262.476 356.952 254.035 358.198C250.314 358.747 247.533 361.786 246.122 366.305C244.716 370.806 244.781 376.515 246.595 381.759C248.404 386.987 251.914 391.66 257.314 394.242C262.706 396.821 270.175 397.406 280.076 394.085C286.017 392.092 291.026 391.031 295.21 390.68C295.887 387.033 297.701 383.13 301.214 379.286C306.163 373.87 311.805 369.919 319.505 368.809C319.832 368.762 320.163 368.72 320.497 368.683C320.668 367.126 320.933 365.578 321.308 364.05C322.861 357.737 326.295 351.786 332.695 347.081C339.071 342.394 348.305 339.004 361.368 337.623C374.325 336.253 382.237 337.567 386.676 340.916C391.279 344.39 391.775 349.714 390.87 355.102C390.179 359.218 388.613 363.689 387.153 367.859L387.152 367.862C386.712 369.12 386.281 370.35 385.886 371.535C385.02 374.139 384.323 376.532 384.007 378.624C383.689 380.735 383.788 382.366 384.336 383.549C388.084 391.638 392.647 395.51 397.408 396.589C402.206 397.676 407.614 396.023 413.24 392.147C424.503 384.389 435.866 368.242 443.274 351.173C446.969 342.66 449.65 333.984 450.845 326.096C452.043 318.182 451.726 311.191 449.564 305.958C448.653 303.754 447.411 301.849 445.791 300.307C441.373 304.582 435.373 307.669 427.495 309.152C414.591 311.58 406.058 310.028 401.243 306.087ZM443.71 298.665C439.703 302.44 434.258 305.208 427.01 306.573C415.305 308.776 407.997 307.488 403.864 304.758C405.888 303.711 407.81 302.667 409.61 301.645C421.763 296.552 430.757 295.138 437.18 296.227C439.735 296.66 441.898 297.49 443.71 298.665ZM445.555 296.743C443.367 295.231 440.732 294.167 437.618 293.64C430.47 292.428 420.905 294.057 408.522 299.256L408.449 299.286L408.381 299.325C406.309 300.504 404.076 301.709 401.711 302.914C398.422 299.221 398.486 293.688 401.273 288.383C404.105 282.989 409.61 278.191 416.395 276.575C423.113 274.974 431.248 276.457 439.493 283.908C442.788 286.887 445.784 289.8 448.496 292.633C447.643 294.087 446.667 295.461 445.555 296.743ZM514.871 244.554C512.561 243.092 510.513 241.277 508.824 239.286C510.742 239.904 512.598 240.383 514.307 240.579C516.554 240.838 518.742 240.63 520.498 239.403C527.171 234.741 530.346 229.031 530.649 222.798C530.844 218.779 529.84 214.636 527.943 210.516C532.995 209.552 537.519 209.324 540.659 209.166L540.662 209.166C541.727 209.112 542.633 209.066 543.347 209.003C544.95 208.859 547.148 208.225 549.195 207.08C551.242 205.935 553.275 204.2 554.344 201.768C555.436 199.282 555.432 196.264 553.746 192.788C552.081 189.357 548.771 185.454 543.212 181.021C538.893 177.576 534.688 175.196 530.766 173.68C533.922 166.604 536.506 156.943 537.863 144.685C545.888 142.714 553.412 137.676 560.194 131.103C574.665 117.079 586.148 95.6833 592.32 80.256C598.643 68.6951 604.792 61.9801 610.491 58.8247C616.107 55.7152 621.37 56.0118 626.24 58.7069C631.194 61.4485 635.803 66.7158 639.802 73.6485C643.789 80.5597 647.104 89.0139 649.526 97.9717C654.382 115.935 655.571 135.643 651.607 148.732C649.626 155.271 646.431 159.936 642.002 162.079C637.607 164.206 631.627 164.025 623.651 160.039C622.485 159.457 621.39 158.244 620.322 156.395C619.264 154.563 618.316 152.258 617.369 149.682C616.938 148.509 616.508 147.279 616.068 146.021L616.067 146.019L616.067 146.019L616.066 146.017C614.606 141.847 613.042 137.377 611.015 133.729C608.362 128.953 604.653 125.101 598.889 125.257C593.33 125.407 586.326 129.316 577.053 138.468C567.704 147.695 562.601 156.104 560.54 163.744C558.472 171.414 559.5 178.207 562.225 184.111C562.884 185.539 563.642 186.915 564.479 188.238C564.241 188.475 564.009 188.714 563.783 188.955C558.456 194.625 556.511 201.233 556.02 208.553C555.672 213.749 556.689 217.931 558.435 221.204C555.383 224.088 552.129 228.042 548.728 233.305C543.061 242.076 536.859 246.278 531.035 247.625C525.204 248.975 519.545 247.512 514.871 244.554ZM528.028 222.671C528.206 219.001 527.237 215.09 525.309 211.08C518.553 212.687 511.397 215.702 505.99 221.496C503.424 224.246 503.146 228.356 504.861 232.769C505.228 233.712 505.682 234.656 506.216 235.587C506.77 235.794 507.314 235.994 507.847 236.183C510.378 237.081 512.658 237.749 514.606 237.973C516.563 238.197 517.992 237.953 518.995 237.252C525.113 232.978 527.771 227.967 528.028 222.671ZM504.072 219.706C509.776 213.593 517.186 210.402 524.051 208.685C523.441 207.613 522.766 206.535 522.029 205.455C513.902 193.532 498.648 181.825 482.896 174.284C481.21 173.477 479.521 172.719 477.837 172.014C477.645 175.29 477.231 178.384 476.574 181.225C474.955 188.23 471.804 193.925 466.625 196.874C461.413 199.842 454.511 199.825 445.868 196.206C443.966 195.41 442.436 193.771 441.136 191.834C439.826 189.88 438.652 187.472 437.524 184.94C436.974 183.707 436.435 182.445 435.895 181.181L435.895 181.18C435.298 179.783 434.699 178.381 434.082 177.008C433.698 178.164 433.406 179.424 433.212 180.796C432.278 187.403 433.634 196.593 438.292 208.927C445.978 223.659 454.733 246.308 455.95 266.423C456.52 275.85 455.442 284.841 451.711 292.214C460.128 301.227 465.776 309.48 469.089 316.484C472.794 314.496 477.34 312.855 482.766 311.821C489.75 310.491 494.868 310.521 498.556 311.493C502.292 312.477 504.584 314.44 505.76 316.888C506.909 319.283 506.901 321.956 506.437 324.255C505.973 326.554 505.022 328.634 504.086 329.944C503.67 330.527 503.115 331.244 502.461 332.088L502.46 332.09C500.396 334.754 497.36 338.675 494.657 343.59C491.115 350.029 488.293 357.948 489.235 366.428C489.651 370.166 492.588 373.054 497.054 374.627C501.502 376.193 507.21 376.332 512.515 374.707C517.805 373.087 522.6 369.746 525.374 364.443C528.145 359.146 528.996 351.703 526.032 341.69C524.395 336.159 523.394 331.592 522.908 327.844C517.767 327.594 512.557 325.692 509.448 320.691C505.647 314.575 502.554 308.612 501.997 300.988C501.982 300.781 501.969 300.573 501.958 300.364C500.454 300.139 498.963 299.825 497.494 299.407C491.24 297.63 485.416 293.985 480.943 287.42C476.488 280.88 473.431 271.531 472.519 258.427C471.614 245.434 473.291 237.695 476.945 233.562C480.721 229.292 486.197 229.264 491.591 230.512C495.163 231.337 498.991 232.799 502.61 234.202C502.543 234.041 502.478 233.88 502.416 233.72C500.497 228.784 500.559 223.471 504.072 219.706ZM535.451 142.518C535.834 138.616 536.094 134.445 536.207 130.004C536.492 118.895 532.318 111.757 526.727 107.701C521.082 103.606 513.856 102.554 507.918 103.918C501.949 105.289 497.652 108.971 497.139 114.04C496.618 119.198 499.91 126.507 510.879 135.295C519.377 142.102 527.637 143.934 535.451 142.518ZM527.12 175.213C522.49 173.874 518.527 173.907 515.607 174.728C512.759 175.53 511.041 177.024 510.418 178.569C509.83 180.028 510.08 181.89 511.966 183.867C512.893 184.838 513.875 185.396 514.868 185.619C515.86 185.841 516.954 185.75 518.141 185.275C520.555 184.311 523.299 181.775 525.93 177.357C526.332 176.683 526.729 175.968 527.12 175.213ZM561.817 221.703C562.597 222.81 563.472 223.755 564.387 224.553C566.11 226.056 567.99 227.049 569.682 227.604C571.406 228.17 572.815 228.244 573.62 228.061C576.571 227.387 577.833 225.495 577.993 223.567C578.162 221.545 577.132 219.343 575.132 218.141C573.187 216.973 570.097 216.636 565.964 218.845C564.671 219.536 563.285 220.473 561.817 221.703ZM567.911 188.64C573.645 196.66 582.401 202.635 588.603 206.749C590.217 207.819 591.743 208.067 593.169 207.784C594.633 207.494 596.117 206.618 597.535 205.223C600.385 202.42 602.706 197.775 603.788 192.961C604.879 188.112 604.637 183.444 602.802 180.481C601.909 179.039 600.631 177.979 598.864 177.449C597.072 176.91 594.677 176.888 591.539 177.729C580.304 180.74 572.843 184.411 567.911 188.64ZM435.502 173.835C437.042 171.206 439.213 169.328 441.855 168.068C446.502 165.85 452.767 165.472 459.948 166.65C464.787 167.443 469.978 168.933 475.263 170.978C475.106 174.443 474.698 177.691 474.018 180.634C472.479 187.291 469.602 192.159 465.327 194.594C461.085 197.01 455.105 197.229 446.881 193.786C445.679 193.283 444.505 192.146 443.316 190.372C442.137 188.615 441.038 186.379 439.921 183.872C439.412 182.73 438.9 181.531 438.376 180.304L438.376 180.304C437.466 178.173 436.522 175.962 435.502 173.835ZM357.624 169.666C357.808 174.105 357.828 178.283 357.707 182.202C350.005 184.138 341.64 182.862 332.706 176.638C321.174 168.604 317.401 161.531 317.576 156.35C317.748 151.258 321.79 147.296 327.654 145.529C333.487 143.772 340.767 144.338 346.674 148.047C352.523 151.719 357.165 158.563 357.624 169.666ZM340.061 215.667C342.919 214.652 346.871 214.354 351.58 215.381C351.241 216.161 350.893 216.9 350.537 217.6C348.207 222.184 345.639 224.898 343.294 226.022C342.142 226.574 341.056 226.738 340.052 226.583C339.046 226.427 338.029 225.936 337.04 225.029C335.025 223.182 334.651 221.341 335.141 219.846C335.659 218.263 337.273 216.657 340.061 215.667ZM392.063 262.118C391.098 261.384 390.162 260.499 389.309 259.446C390.692 258.121 392.012 257.093 393.255 256.318C397.231 253.837 400.337 253.967 402.356 255.002C404.432 256.067 405.606 258.196 405.574 260.225C405.542 262.159 404.41 264.131 401.51 265.001C400.719 265.238 399.309 265.258 397.55 264.808C395.826 264.368 393.883 263.503 392.063 262.118ZM415.035 242.735C408.572 239.045 399.436 233.669 393.178 226.05C397.816 221.501 405.015 217.339 416.024 213.584C419.099 212.535 421.489 212.397 423.314 212.814C425.112 213.225 426.458 214.197 427.445 215.576C429.475 218.41 430.028 223.051 429.264 227.962C428.506 232.838 426.501 237.628 423.845 240.615C422.523 242.102 421.101 243.075 419.66 243.462C418.256 243.84 416.717 243.695 415.035 242.735ZM460.012 328.669C461.29 325.919 463.846 322.89 467.878 320.249C468.196 321.038 468.48 321.804 468.73 322.548C470.368 327.423 470.506 331.156 469.665 333.617C469.252 334.826 468.608 335.715 467.794 336.323C466.978 336.932 465.915 337.314 464.575 337.384C461.846 337.528 460.27 336.505 459.546 335.108C458.78 333.629 458.765 331.352 460.012 328.669ZM527.752 324.973C526.931 325.096 526.101 325.181 525.271 325.223C525.118 323.229 525.149 321.573 525.322 320.209C525.575 318.221 526.118 316.948 526.742 316.155C527.346 315.387 528.081 314.997 528.908 314.854C530.667 314.55 532.956 315.366 534.95 316.713C535.919 317.368 536.742 318.098 537.317 318.768C537.941 319.496 538.108 319.96 538.117 320.091C538.121 320.136 538.099 320.412 537.626 320.923C537.178 321.408 536.458 321.952 535.48 322.494C533.532 323.572 530.774 324.522 527.752 324.973ZM531.853 294.136C524.668 296.17 514.386 298.934 504.535 298.034C504.629 291.551 506.643 283.637 511.745 273.007C513.151 270.078 514.727 268.275 516.304 267.266C517.857 266.271 519.494 265.992 521.169 266.253C524.613 266.791 528.312 269.647 531.281 273.633C534.229 277.59 536.242 282.377 536.513 286.365C536.648 288.35 536.346 290.046 535.613 291.346C534.898 292.612 533.716 293.609 531.853 294.136ZM290.723 327.64C293.517 328.819 296.636 331.265 299.419 335.2C298.642 335.546 297.886 335.857 297.152 336.134C292.34 337.945 288.613 338.216 286.124 337.464C284.901 337.095 283.989 336.484 283.352 335.692C282.715 334.898 282.295 333.85 282.177 332.513C281.935 329.79 282.901 328.179 284.272 327.405C285.722 326.587 287.997 326.49 290.723 327.64ZM297.774 397.01C297.557 395.816 297.462 394.532 297.543 393.179C299.458 393.134 301.126 393.266 302.567 393.532C307.175 394.384 309.38 396.574 310.172 398.701C310.986 400.887 310.417 403.251 309.024 404.727C307.696 406.133 305.53 406.825 302.803 405.511C302.059 405.152 301.004 404.215 300.01 402.698C299.034 401.209 298.183 399.26 297.774 397.01ZM327.807 398.198C325.525 391.115 322.408 380.982 322.928 371.137C329.421 370.908 337.543 372.692 348.203 377.347C351.18 378.647 353.038 380.157 354.103 381.696C355.153 383.213 355.491 384.839 355.29 386.522C354.876 389.984 352.153 393.782 348.277 396.892C344.428 399.98 339.716 402.164 335.74 402.577C333.761 402.783 332.055 402.542 330.73 401.856C329.439 401.187 328.401 400.042 327.807 398.198Z" fill="white"/>
</g>
</svg>
