<svg width="424" height="424" viewBox="0 0 424 424" fill="none" xmlns="http://www.w3.org/2000/svg">
<path d="M254.267 245.059C259.868 295.171 208.046 369.375 148.821 354.028C89.5964 338.681 84.3595 318.649 69.3878 265.723C63.7866 215.611 102.174 194.932 163.327 175.885C224.481 156.839 248.666 194.947 254.267 245.059Z" fill="#F8F8F8"/>
<path fill-rule="evenodd" clip-rule="evenodd" d="M226.368 269.812C226.668 275.712 224.168 313.012 224.168 313.012L162.968 313.712C162.968 313.712 162.968 269.112 162.968 267.012C162.968 266.512 159.768 238.512 181.168 239.512C187.368 239.812 199.668 242.412 210.168 239.712C215.168 238.512 225.968 262.512 226.368 269.812Z" fill="#DEC0F1"/>
<path fill-rule="evenodd" clip-rule="evenodd" d="M285.569 253.112C288.869 245.512 288.969 245.312 292.069 233.112C292.169 232.712 293.869 226.712 288.669 227.312C288.669 227.312 290.069 224.312 287.569 223.012C285.569 222.012 284.369 222.812 283.569 223.812C283.569 223.812 283.969 222.212 281.969 221.512C279.369 220.712 278.069 222.112 277.269 224.812C277.269 224.812 280.869 215.412 282.969 209.912C284.069 207.112 283.369 206.212 282.269 205.712C280.569 205.012 279.069 205.412 277.569 207.812C274.969 211.912 269.769 226.912 269.769 226.912C269.769 226.912 268.669 223.912 267.669 220.812C267.369 219.912 266.069 217.912 263.969 218.312C261.969 218.712 261.569 220.012 261.769 223.412C261.969 227.012 262.469 234.012 264.369 239.012C264.569 239.412 263.269 243.012 262.569 245.612C259.469 257.112 280.269 265.712 285.569 253.112Z" fill="#EFD9CE"/>
<path d="M269.768 227.512C270.168 228.912 270.468 232.112 273.068 233.912C276.868 236.612 275.668 242.712 270.768 243.412" stroke="#424D51" stroke-linecap="round" stroke-linejoin="round"/>
<path d="M277.867 223.012C277.867 223.012 274.367 230.712 274.867 233.612C275.167 235.212 278.367 237.312 280.167 232.712C281.967 228.112 283.567 224.012 283.567 224.012" stroke="#424D51" stroke-linecap="round" stroke-linejoin="round"/>
<path d="M280.168 232.713C280.168 232.713 279.068 235.613 282.068 236.413C283.968 236.913 285.068 235.313 285.768 234.113C286.768 232.413 288.868 227.213 288.868 227.213" stroke="#424D51" stroke-linecap="round" stroke-linejoin="round"/>
<path d="M285.867 233.713C285.867 233.713 284.267 237.413 286.967 238.513C288.667 239.213 290.267 239.013 291.267 236.713" stroke="#424D51" stroke-linecap="round" stroke-linejoin="round"/>
<path fill-rule="evenodd" clip-rule="evenodd" d="M284.669 257.812C285.069 258.012 286.369 255.012 285.469 253.212C284.469 251.412 264.169 243.112 262.769 244.512C261.369 245.812 260.469 248.312 260.469 248.312C260.469 248.312 284.169 257.512 284.669 257.812Z" fill="#EFD9CE"/>
<path fill-rule="evenodd" clip-rule="evenodd" d="M206.967 282.712C204.167 273.912 202.167 265.412 200.667 254.412C199.067 242.912 207.267 238.812 217.267 239.412C245.067 241.212 246.167 273.212 244.967 274.612C243.467 276.312 247.467 268.712 251.067 260.812C254.367 253.612 256.767 245.012 262.467 246.712C267.067 248.112 288.967 254.712 287.767 261.012C285.267 273.712 272.767 304.912 265.867 315.312C260.367 323.512 254.167 331.012 245.067 331.112C215.967 331.412 211.967 298.412 206.967 282.712Z" fill="#DEC0F1"/>
<path d="M235.668 295.013C235.668 295.013 243.968 275.213 245.268 273.213" stroke="#424D51" stroke-linecap="round" stroke-linejoin="round"/>
<path d="M225.268 298.912C225.268 298.912 226.768 273.612 226.168 268.212C224.968 257.712 222.168 252.712 219.268 249.012" stroke="#424D51" stroke-linecap="round" stroke-linejoin="round"/>
<path fill-rule="evenodd" clip-rule="evenodd" d="M189.768 308.512C189.268 311.712 184.268 324.412 199.468 324.812C210.468 325.112 225.268 325.212 225.268 325.212C225.268 325.212 224.268 325.312 223.768 325.712C222.968 326.412 222.368 328.912 224.768 329.512C224.768 329.512 236.868 332.612 239.068 322.212C239.868 318.512 238.768 316.212 238.768 316.212C238.768 316.212 239.668 315.412 239.968 314.312C240.368 312.812 239.968 311.212 239.968 311.212C239.968 311.212 240.668 310.612 240.768 308.912C240.868 306.912 240.068 305.512 240.068 305.512C240.068 305.512 240.868 300.212 235.468 298.912C230.668 297.812 222.068 299.612 220.468 300.012C215.268 301.412 191.068 300.912 189.768 308.512Z" fill="#EFD9CE"/>
<path d="M240.068 305.312C236.968 301.712 226.968 303.012 223.268 304.212" stroke="#424D51" stroke-linecap="round" stroke-linejoin="round"/>
<path d="M223.367 308.512C223.367 308.512 235.867 305.212 239.967 311.312" stroke="#424D51" stroke-linecap="round" stroke-linejoin="round"/>
<path d="M224.068 313.512C224.068 313.512 235.468 310.512 238.768 316.012" stroke="#424D51" stroke-linecap="round" stroke-linejoin="round"/>
<path d="M223.068 325.413C223.068 325.413 227.268 324.613 231.668 324.213" stroke="#424D51" stroke-linecap="round" stroke-linejoin="round"/>
<path fill-rule="evenodd" clip-rule="evenodd" d="M205.568 326.113C205.568 326.613 208.768 326.713 210.168 325.213C211.568 323.613 212.068 301.713 210.268 300.913C208.468 300.013 205.868 300.113 205.868 300.113C205.868 300.113 205.568 325.713 205.568 326.113Z" fill="#EFD9CE"/>
<path fill-rule="evenodd" clip-rule="evenodd" d="M163.068 244.711C169.968 240.811 182.768 236.111 192.168 242.511C201.568 251.811 191.968 261.411 188.568 265.811C177.568 280.411 162.368 293.211 162.368 293.211C162.368 293.211 180.268 294.411 188.868 294.911C196.868 295.411 207.768 295.511 208.168 301.411C208.468 306.211 210.068 329.011 203.668 330.111C190.868 332.311 149.768 332.011 137.568 329.211C127.868 327.011 109.168 315.011 117.968 294.911C129.268 268.911 153.868 249.911 163.068 244.711Z" fill="#DEC0F1"/>
<path d="M153.469 293.512C153.469 293.512 205.469 292.712 207.869 300.412" stroke="#424D51" stroke-linecap="round" stroke-linejoin="round"/>
<path d="M162.168 293.012C162.168 293.012 176.168 282.312 184.168 273.212C187.868 269.012 190.268 262.812 190.268 262.812" stroke="#424D51" stroke-linecap="round" stroke-linejoin="round"/>
<path fill-rule="evenodd" clip-rule="evenodd" d="M211.569 215.913C211.969 214.713 216.869 209.313 221.069 213.013C223.869 215.513 222.869 218.213 221.369 219.813C219.569 221.813 217.069 222.513 214.269 221.513C211.569 220.613 211.469 218.813 211.269 218.213C210.969 217.313 211.269 216.713 211.569 215.913Z" fill="#EFD9CE"/>
<path d="M215.868 216.513C216.368 216.413 217.468 216.413 218.068 216.813M218.168 214.713C218.168 214.713 216.868 215.113 215.968 216.613L218.168 214.713ZM215.168 218.013C215.368 217.413 215.568 216.913 215.868 216.513L215.168 218.013Z" stroke="#424D51" stroke-width="0.729" stroke-linecap="round" stroke-linejoin="round"/>
<path fill-rule="evenodd" clip-rule="evenodd" d="M184.669 244.413C183.069 250.513 207.669 254.013 209.169 247.713C209.269 242.213 209.469 239.013 209.969 229.113C210.169 223.913 204.569 224.213 201.669 223.913C196.069 223.313 193.768 229.113 193.768 229.113C193.768 229.113 186.369 241.613 184.669 244.413Z" fill="#EFD9CE"/>
<path fill-rule="evenodd" clip-rule="evenodd" d="M194.467 225.013C194.167 226.913 193.867 234.713 199.467 238.913C203.967 242.213 209.467 241.813 209.467 241.813C209.467 241.813 210.367 231.713 210.267 230.813C210.167 229.813 194.667 223.613 194.467 225.013Z" fill="#424D51"/>
<path fill-rule="evenodd" clip-rule="evenodd" d="M192.669 218.812C192.669 218.812 192.369 234.812 201.869 236.312C211.369 237.812 213.569 230.012 213.769 229.512C213.969 228.912 215.769 215.312 214.069 211.012C212.369 206.712 206.969 200.612 199.769 202.212C192.569 203.812 191.669 208.712 191.469 212.912C191.469 215.212 192.669 218.812 192.669 218.812Z" fill="#EFD9CE"/>
<path fill-rule="evenodd" clip-rule="evenodd" d="M194.767 215.813C194.367 214.613 189.467 209.112 185.267 212.912C182.467 215.412 183.467 218.112 184.967 219.712C186.767 221.712 189.267 222.412 192.067 221.412C194.767 220.512 194.867 218.712 195.067 218.112C195.367 217.212 195.067 216.613 194.767 215.813Z" fill="#EFD9CE"/>
<path fill-rule="evenodd" clip-rule="evenodd" d="M196.368 209.412C196.368 209.412 204.468 213.812 211.868 209.412C211.968 209.412 212.868 213.212 214.968 212.712L215.768 201.712C215.768 201.712 215.568 198.612 211.568 198.412C208.368 198.312 195.268 197.812 195.268 197.812C195.268 197.812 191.568 197.812 191.468 201.612C191.368 205.512 191.268 212.612 191.868 212.612C193.968 212.712 196.368 209.412 196.368 209.412Z" fill="#F1D7AD"/>
<path d="M199.969 223.213C200.969 227.113 204.869 225.913 204.869 225.913" stroke="#424D51" stroke-width="0.729" stroke-linecap="round" stroke-linejoin="round"/>
<path d="M204.168 219.412C204.168 219.412 205.768 220.212 205.468 221.412C205.168 222.612 203.968 222.412 203.168 222.212" stroke="#424D51" stroke-width="0.729" stroke-linecap="round" stroke-linejoin="round"/>
<path d="M206.668 217.612C206.668 217.612 207.668 216.012 209.368 215.812C211.068 215.712 211.868 216.612 212.368 217.712" stroke="#424D51" stroke-width="0.729" stroke-linecap="round" stroke-linejoin="round"/>
<path d="M208.867 216.213C209.367 215.813 210.067 216.013 210.467 216.513C210.867 217.013 210.767 217.713 210.167 218.113C209.667 218.513 208.967 218.413 208.567 217.813C208.267 217.313 208.367 216.613 208.867 216.213Z" stroke="#424D51" stroke-width="0.729" stroke-linecap="round" stroke-linejoin="round"/>
<path d="M195.568 217.612C195.568 217.612 196.568 216.012 198.268 215.812C199.968 215.712 200.768 216.612 201.268 217.712" stroke="#424D51" stroke-width="0.729" stroke-linecap="round" stroke-linejoin="round"/>
<path d="M197.768 216.213C198.268 215.813 198.968 216.013 199.368 216.513C199.768 217.013 199.668 217.713 199.068 218.113C198.568 218.513 197.868 218.413 197.468 217.813C197.168 217.313 197.268 216.613 197.768 216.213Z" stroke="#424D51" stroke-width="0.729" stroke-linecap="round" stroke-linejoin="round"/>
<path d="M191.567 216.412C191.067 216.312 189.967 216.312 189.367 216.712M189.367 214.512C189.367 214.512 190.667 214.912 191.567 216.412L189.367 214.512ZM192.267 217.912C192.067 217.312 191.867 216.812 191.567 216.412L192.267 217.912Z" stroke="#424D51" stroke-width="0.729" stroke-linecap="round" stroke-linejoin="round"/>
<path fill-rule="evenodd" clip-rule="evenodd" d="M247.657 159.382C254.051 161.55 257.562 168.088 255.548 174.025C253.534 179.961 246.77 183.014 240.377 180.845C233.983 178.676 230.472 172.139 232.486 166.202C234.5 160.265 241.264 157.213 247.657 159.382Z" fill="#FFDBD5"/>
<path d="M281.729 88.1629C282.939 84.5935 286.814 82.6815 290.384 83.8923C293.953 85.1031 295.865 88.9782 294.655 92.5476L292.926 97.644C291.715 101.213 287.84 103.125 284.27 101.915C280.701 100.704 278.789 96.8288 280 93.2594L281.729 88.1629Z" fill="#FFDBD5"/>
<path d="M254.525 105.785C260.681 94.2836 274.253 88.9227 286.607 93.1133C298.829 97.2592 306.329 109.562 304.415 122.325L298.139 164.178L300.547 181.927C301.029 185.475 297.611 188.292 294.22 187.142L224.514 163.497C221.186 162.368 220.145 158.173 222.558 155.619L234.776 142.684L254.525 105.785Z" fill="#FFDBD5"/>
<path d="M293.143 96.4382C292.704 95.5937 290.618 94.0233 287.048 92.8125C283.479 91.6017 281.267 91.6875 280.58 91.9691" stroke="#424D51" stroke-linecap="round" stroke-linejoin="round"/>
<path fill-rule="evenodd" clip-rule="evenodd" d="M270.584 90.3783C280.158 101.29 279.069 117.953 268.158 127.527C257.246 137.1 240.583 136.012 231.009 125.1C221.436 114.188 222.524 97.5251 233.436 87.9516C244.348 78.3782 261.011 79.4667 270.584 90.3783Z" fill="white"/>
<path fill-rule="evenodd" clip-rule="evenodd" d="M263.456 96.6329C269.58 103.613 268.884 114.273 261.904 120.397C254.923 126.521 244.264 125.825 238.139 118.845C232.015 111.864 232.711 101.205 239.692 95.0805C246.672 88.9563 257.332 89.6526 263.456 96.6329Z" fill="#EA7A79"/>
<path d="M255.393 174L232.331 166.187" stroke="#424D51" stroke-linecap="round" stroke-linejoin="round"/>
</svg>
