<svg width="424" height="424" viewBox="0 0 424 424" fill="none" xmlns="http://www.w3.org/2000/svg">
<path d="M306.074 311.575C251.918 351.207 127.109 333.879 101.015 249.024C74.9198 164.169 94.3428 144.536 144.82 91.2265C198.976 51.594 251.529 86.7007 319.077 151.654C386.627 216.609 360.231 271.942 306.074 311.575Z" fill="#F8F8F8"/>
<path fill-rule="evenodd" clip-rule="evenodd" d="M335.062 235.495C335.062 235.495 332.762 233.295 333.762 229.095C334.462 225.995 340.462 209.195 342.962 201.395C343.862 198.595 346.362 196.695 349.162 196.395L364.062 194.995C366.562 194.795 368.462 197.095 367.762 199.395L356.762 234.395L335.062 235.495Z" fill="#424D51"/>
<path fill-rule="evenodd" clip-rule="evenodd" d="M357.53 243.19C360.33 235.39 364.33 222.39 367.33 209.29C368.13 205.89 361.13 204.69 358.13 215.79C358.13 215.79 355.13 208.09 351.13 209.99C347.93 211.49 349.13 214.49 349.13 214.49C349.13 214.49 347.63 211.49 344.43 213.49C340.83 215.69 344.03 221.29 344.03 221.29C344.03 221.29 342.93 220.69 341.23 221.59C339.23 222.59 338.53 225.09 339.73 227.89C340.73 230.39 343.03 235.09 343.03 235.09C343.03 235.09 335.23 232.39 334.23 237.29C331.73 248.79 352.93 256.09 357.53 243.19Z" fill="#EFD9CE"/>
<path d="M351.131 234.39C351.131 234.39 348.331 223.99 343.631 221.09" stroke="#424D51" stroke-linecap="round" stroke-linejoin="round"/>
<path d="M356.431 229.69C356.431 229.69 353.331 217.89 348.631 213.59" stroke="#424D51" stroke-linecap="round" stroke-linejoin="round"/>
<path d="M362.529 226.789C362.529 226.789 362.429 224.689 361.929 223.089C360.629 218.889 359.629 217.589 358.029 214.789" stroke="#424D51" stroke-linecap="round" stroke-linejoin="round"/>
<path fill-rule="evenodd" clip-rule="evenodd" d="M356.732 247.89C357.132 248.09 358.332 244.99 357.232 243.29C356.132 241.49 335.432 234.49 334.032 235.99C332.632 237.39 331.932 239.89 331.932 239.89C331.932 239.89 356.332 247.69 356.732 247.89Z" fill="#EFD9CE"/>
<path fill-rule="evenodd" clip-rule="evenodd" d="M282.231 248.491C280.431 231.991 279.731 221.691 287.931 219.991C307.731 215.791 325.631 237.391 325.831 246.491C316.831 269.891 313.331 275.891 313.331 278.091C312.031 279.891 320.431 260.891 323.531 252.791C326.331 245.391 328.331 236.691 334.031 237.991C338.731 239.091 360.931 244.391 360.131 250.791C358.431 263.591 350.331 289.591 344.031 300.491C339.031 309.091 327.131 325.091 306.131 318.791C275.631 309.491 284.431 269.591 282.231 248.491Z" fill="#DEC0F1"/>
<path d="M310.23 287.991C310.23 287.991 318.93 260.191 326.33 246.191" stroke="#424D51" stroke-linecap="round" stroke-linejoin="round"/>
<path fill-rule="evenodd" clip-rule="evenodd" d="M217.529 262.09C217.529 278.79 219.279 291.44 219.479 295.24C220.353 311.846 301.429 301.79 301.429 301.79C301.429 301.79 307.929 264.09 307.729 251.49C307.629 244.99 301.729 218.39 287.429 219.49C267.229 221.09 241.329 218.89 226.729 235.69C220.329 243.19 217.529 252.39 217.529 262.09Z" fill="#DEC0F1"/>
<path d="M244.131 280.49L252.131 256.59" stroke="#424D51" stroke-linecap="round" stroke-linejoin="round"/>
<path d="M301.932 297.791C301.932 297.791 308.832 270.291 306.832 246.691" stroke="#424D51" stroke-linecap="round" stroke-linejoin="round"/>
<path fill-rule="evenodd" clip-rule="evenodd" d="M262.23 223.59C260.63 229.69 285.23 233.19 286.73 226.89C286.83 221.39 287.03 218.19 287.53 208.29C287.73 203.09 282.13 203.39 279.23 203.09C273.63 202.49 271.33 208.29 271.33 208.29C271.33 208.29 263.93 220.79 262.23 223.59Z" fill="#EFD9CE"/>
<path fill-rule="evenodd" clip-rule="evenodd" d="M271.93 204.19C271.63 205.99 271.33 213.89 276.93 218.09C281.43 221.39 286.93 220.89 286.93 220.89C286.93 220.89 287.73 210.89 287.73 209.89C287.63 208.99 272.23 202.79 271.93 204.19Z" fill="#424D51"/>
<path fill-rule="evenodd" clip-rule="evenodd" d="M270.23 197.89C270.23 197.89 269.93 213.89 279.43 215.39C288.93 216.89 291.13 209.09 291.33 208.59C291.53 207.99 293.33 194.39 291.63 190.09C289.93 185.79 284.53 179.69 277.33 181.29C270.13 182.89 269.23 187.79 269.03 191.99C268.93 194.39 270.23 197.89 270.23 197.89Z" fill="#EFD9CE"/>
<path fill-rule="evenodd" clip-rule="evenodd" d="M272.23 194.99C271.83 193.79 266.93 188.39 262.73 192.09C259.93 194.59 260.93 197.29 262.43 198.89C264.23 200.89 266.73 201.59 269.53 200.59C272.23 199.69 272.33 197.89 272.53 197.29C272.93 196.39 272.53 195.79 272.23 194.99Z" fill="#EFD9CE"/>
<path fill-rule="evenodd" clip-rule="evenodd" d="M289.03 195.09C289.43 193.89 294.33 188.39 298.53 192.19C301.33 194.69 300.33 197.39 298.83 198.99C297.03 200.99 294.53 201.69 291.73 200.69C289.03 199.79 288.93 197.99 288.73 197.39C288.43 196.49 288.73 195.89 289.03 195.09Z" fill="#EFD9CE"/>
<path fill-rule="evenodd" clip-rule="evenodd" d="M273.83 188.59C273.83 188.59 281.93 192.99 289.33 188.59C289.43 188.59 290.33 192.39 292.43 191.89L293.23 180.89C293.23 180.89 293.03 177.79 289.03 177.59C285.83 177.49 272.73 176.99 272.73 176.99C272.73 176.99 269.03 176.99 268.93 180.79C268.83 184.69 268.73 191.79 269.33 191.79C271.53 191.89 273.83 188.59 273.83 188.59Z" fill="#F1D7AD"/>
<path d="M277.43 202.39C278.43 206.29 282.33 205.09 282.33 205.09" stroke="#424D51" stroke-width="0.729" stroke-linecap="round" stroke-linejoin="round"/>
<path d="M281.63 198.59C281.63 198.59 283.23 199.39 282.93 200.59C282.63 201.69 281.43 201.59 280.63 201.39" stroke="#424D51" stroke-width="0.729" stroke-linecap="round" stroke-linejoin="round"/>
<path d="M284.13 196.79C284.13 196.79 285.13 195.19 286.83 194.99C288.53 194.89 289.33 195.79 289.83 196.89" stroke="#424D51" stroke-width="0.729" stroke-linecap="round" stroke-linejoin="round"/>
<path d="M286.43 195.39C286.93 194.99 287.63 195.19 288.03 195.69C288.43 196.19 288.33 196.89 287.73 197.29C287.13 197.69 286.53 197.59 286.13 196.99C285.73 196.49 285.83 195.79 286.43 195.39Z" stroke="#424D51" stroke-width="0.729" stroke-linecap="round" stroke-linejoin="round"/>
<path d="M273.03 196.79C273.03 196.79 274.03 195.19 275.73 194.99C277.43 194.89 278.23 195.79 278.73 196.89" stroke="#424D51" stroke-width="0.729" stroke-linecap="round" stroke-linejoin="round"/>
<path d="M275.23 195.39C275.73 194.99 276.43 195.19 276.83 195.69C277.23 196.19 277.13 196.89 276.53 197.29C276.03 197.69 275.33 197.59 274.93 196.99C274.63 196.49 274.73 195.79 275.23 195.39Z" stroke="#424D51" stroke-width="0.729" stroke-linecap="round" stroke-linejoin="round"/>
<path d="M293.43 195.69C293.93 195.59 295.03 195.59 295.63 195.99M295.63 193.89C295.63 193.89 294.33 194.29 293.43 195.79L295.63 193.89ZM292.63 197.19C292.83 196.59 293.03 196.09 293.33 195.69L292.63 197.19Z" stroke="#424D51" stroke-width="0.729" stroke-linecap="round" stroke-linejoin="round"/>
<path d="M269.13 195.59C268.63 195.49 267.53 195.49 266.93 195.89M266.83 193.69C266.83 193.69 268.13 194.09 269.03 195.59L266.83 193.69ZM269.83 197.09C269.63 196.49 269.43 195.99 269.13 195.59L269.83 197.09Z" stroke="#424D51" stroke-width="0.729" stroke-linecap="round" stroke-linejoin="round"/>
<path fill-rule="evenodd" clip-rule="evenodd" d="M182.93 158.59C182.93 158.59 189.43 148.99 179.53 140.89C173.43 135.89 176.43 132.39 175.63 128.79C175.23 126.79 173.13 129.99 172.23 124.19C170.43 111.99 163.13 108.49 153.63 112.49C147.63 115.09 146.93 120.39 145.83 124.39C144.53 128.99 140.83 133.79 136.03 135.09C129.83 136.79 115.33 143.99 123.73 157.89C125.43 160.59 131.43 158.89 135.63 158.59C139.73 158.29 160.63 158.39 160.63 158.39L182.93 158.59Z" fill="#89716E"/>
<path fill-rule="evenodd" clip-rule="evenodd" d="M87.6766 167.547C87.6766 167.547 89.9766 165.347 88.9766 161.147C88.2766 158.047 82.2766 141.247 79.7766 133.447C78.8766 130.647 76.3766 128.747 73.5766 128.447L58.6766 127.047C56.1766 126.847 54.2766 129.147 54.9766 131.447L65.9766 166.447L87.6766 167.547Z" fill="#424D51"/>
<path d="M135.231 152.491C143.331 154.191 142.631 164.391 140.931 180.991C140.431 185.591 140.431 190.891 140.531 196.491C140.631 216.891 140.831 241.291 116.831 248.591C103.131 252.791 92.6308 245.191 85.4308 233.991C78.9308 223.991 74.9308 212.491 71.5308 201.091C69.9308 195.791 68.4308 190.391 67.0308 184.891C66.1308 180.991 64.5308 176.491 64.5308 172.391C64.5308 172.291 64.4308 172.191 64.4308 171.991C61.7308 164.191 58.4308 152.991 55.8308 141.591C55.0308 138.191 62.0308 136.991 65.0308 147.991C65.0308 147.991 68.0308 140.291 72.0308 142.191C75.2308 143.691 74.0308 146.591 74.0308 146.591C74.0308 146.591 75.5308 143.591 78.6308 145.591C82.2308 147.791 79.0308 153.391 79.0308 153.391C79.0308 153.391 80.1308 152.791 81.8308 153.591C83.8308 154.591 84.5308 156.991 83.3308 159.891C82.3308 162.391 80.0308 166.991 80.0308 166.991C80.0308 166.991 87.8308 164.291 88.8308 169.191C88.9308 169.591 88.9308 169.991 89.0308 170.391C89.6308 171.491 93.3308 179.191 96.4308 185.991C98.3308 190.091 100.531 195.991 100.531 195.991C100.531 195.991 101.031 185.991 102.931 179.591C107.431 165.591 115.431 148.291 135.231 152.491Z" fill="#FDDCC4"/>
<path d="M144.431 199.291L100.531 196.291C100.531 196.291 100.031 192.291 101.831 181.891C104.031 168.891 110.231 160.491 117.931 154.691C124.131 149.991 137.731 151.191 143.731 152.391L144.431 199.291Z" fill="#E5CDF4"/>
<path d="M72.0293 166.79C72.0293 166.79 74.8293 156.39 79.5293 153.49" stroke="#424D51" stroke-linecap="round" stroke-linejoin="round"/>
<path d="M66.6309 162.19C66.6309 162.19 69.7309 150.39 74.4309 145.99" stroke="#424D51" stroke-linecap="round" stroke-linejoin="round"/>
<path d="M60.5293 159.289C60.5293 159.289 60.6293 157.189 61.1293 155.589C62.4293 151.389 63.4293 150.089 65.0293 147.289" stroke="#424D51" stroke-linecap="round" stroke-linejoin="round"/>
<path d="M113.129 225.791C113.129 225.791 107.829 209.891 100.529 195.891" stroke="#424D51" stroke-linecap="round" stroke-linejoin="round"/>
<path fill-rule="evenodd" clip-rule="evenodd" d="M205.531 194.491C205.531 194.491 203.631 229.691 203.431 233.491C202.863 244.267 121.631 234.191 121.631 234.191C121.631 234.191 115.131 196.591 115.331 183.891C115.431 177.291 121.331 150.791 135.631 151.891C145.531 152.691 155.431 152.991 165.331 154.291C175.931 155.691 185.831 157.691 193.731 165.491C201.631 173.191 204.931 183.791 205.531 194.491Z" fill="#E5CDF4"/>
<path d="M121.131 230.291C121.131 230.291 114.231 202.791 116.231 179.191" stroke="#424D51" stroke-linecap="round" stroke-linejoin="round"/>
<path fill-rule="evenodd" clip-rule="evenodd" d="M141.231 157.89C139.531 160.69 159.731 171.49 165.731 161.19C165.831 155.69 166.031 152.49 166.531 142.59C166.731 137.39 161.131 137.69 158.231 137.39C152.631 136.79 150.331 142.59 150.331 142.59C150.331 142.59 142.931 155.09 141.231 157.89Z" fill="#FDDCC4"/>
<path fill-rule="evenodd" clip-rule="evenodd" d="M151.03 138.09C150.73 139.89 150.43 147.79 156.03 151.99C160.53 155.29 166.03 154.69 166.03 154.69C166.03 154.69 166.83 144.79 166.83 143.79C166.63 142.89 151.23 136.79 151.03 138.09Z" fill="#424D51"/>
<path fill-rule="evenodd" clip-rule="evenodd" d="M149.23 131.89C149.23 131.89 148.93 147.89 158.43 149.39C167.93 150.89 170.13 143.09 170.33 142.59C170.53 141.99 172.33 128.39 170.63 124.09C168.93 119.79 163.53 113.69 156.33 115.29C149.13 116.89 148.23 121.79 148.03 125.99C147.93 128.29 149.23 131.89 149.23 131.89Z" fill="#FDDCC4"/>
<path fill-rule="evenodd" clip-rule="evenodd" d="M151.331 128.89C150.931 127.69 146.031 122.29 141.831 125.99C139.031 128.49 140.131 131.19 141.531 132.79C143.331 134.79 145.831 135.49 148.631 134.49C151.331 133.59 151.431 131.79 151.631 131.19C151.931 130.29 151.531 129.69 151.331 128.89Z" fill="#FDDCC4"/>
<path fill-rule="evenodd" clip-rule="evenodd" d="M168.03 128.99C168.43 127.79 173.33 122.39 177.53 126.09C180.33 128.59 179.33 131.29 177.83 132.89C176.03 134.89 173.53 135.59 170.73 134.59C168.03 133.69 167.93 131.89 167.73 131.29C167.43 130.39 167.83 129.79 168.03 128.99Z" fill="#FDDCC4"/>
<path fill-rule="evenodd" clip-rule="evenodd" d="M152.83 122.59C152.83 122.59 160.93 126.99 168.33 122.59C168.43 122.59 169.03 126.39 171.13 125.89C171.13 125.89 170.63 114.39 158.93 114.79C147.03 115.19 147.43 125.69 148.23 125.79C150.43 126.09 152.83 122.59 152.83 122.59Z" fill="#89716E"/>
<path fill-rule="evenodd" clip-rule="evenodd" d="M156.031 136.09C156.131 136.09 159.431 137.89 161.231 138.49C161.831 138.69 160.131 140.69 158.131 139.99C156.031 139.29 155.431 135.89 156.031 136.09Z" fill="white"/>
<path d="M160.23 132.59C160.23 132.59 161.83 133.39 161.53 134.59C161.23 135.69 160.03 135.59 159.23 135.39" stroke="#424D51" stroke-width="0.729" stroke-linecap="round" stroke-linejoin="round"/>
<path d="M162.73 130.79C162.73 130.79 163.73 129.19 165.43 128.99C167.13 128.89 167.93 129.79 168.43 130.89" stroke="#424D51" stroke-width="0.729" stroke-linecap="round" stroke-linejoin="round"/>
<path d="M164.931 129.39C165.431 128.99 166.131 129.19 166.531 129.69C166.931 130.19 166.831 130.89 166.231 131.29C165.731 131.69 165.031 131.59 164.631 130.99C164.331 130.49 164.431 129.79 164.931 129.39Z" stroke="#424D51" stroke-width="0.729" stroke-linecap="round" stroke-linejoin="round"/>
<path d="M151.63 130.79C151.63 130.79 152.63 129.19 154.33 128.99C156.03 128.89 156.83 129.79 157.33 130.89" stroke="#424D51" stroke-width="0.729" stroke-linecap="round" stroke-linejoin="round"/>
<path d="M153.831 129.39C154.331 128.99 155.031 129.19 155.431 129.69C155.831 130.19 155.731 130.89 155.131 131.29C154.531 131.69 153.931 131.59 153.531 130.99C153.231 130.49 153.331 129.79 153.831 129.39Z" stroke="#424D51" stroke-width="0.729" stroke-linecap="round" stroke-linejoin="round"/>
<path d="M172.031 129.69C172.531 129.59 173.631 129.59 174.231 129.99M174.231 127.89C174.231 127.89 172.931 128.29 172.031 129.79L174.231 127.89ZM171.331 131.19C171.531 130.59 171.731 130.09 172.031 129.69L171.331 131.19Z" stroke="#424D51" stroke-width="0.729" stroke-linecap="round" stroke-linejoin="round"/>
<path d="M147.731 129.59C147.231 129.49 146.131 129.49 145.531 129.89M145.431 127.79C145.431 127.79 146.731 128.19 147.631 129.69L145.431 127.79ZM148.431 131.09C148.231 130.49 148.031 129.99 147.731 129.59L148.431 131.09Z" stroke="#424D51" stroke-width="0.729" stroke-linecap="round" stroke-linejoin="round"/>
<path fill-rule="evenodd" clip-rule="evenodd" d="M148.231 103.99C146.731 106.19 146.531 109.99 149.731 112.19C153.031 114.49 157.431 114.59 159.931 109.39C161.431 106.29 159.531 102.49 155.831 101.39C153.331 100.49 150.431 100.79 148.231 103.99Z" fill="#89716E"/>
<path d="M205.531 194.49L176.631 204.89L185.931 238.39C192.131 238.89 203.581 239.59 205.431 233.115C206.231 230.315 205.831 207.29 205.531 194.49Z" fill="#FDDCC4"/>
<path d="M178.93 212.99L170.93 189.09" stroke="#424D51" stroke-linecap="round" stroke-linejoin="round"/>
<path d="M162.83 322.79L291.83 107.59" stroke="#424D51" stroke-linecap="round" stroke-linejoin="round"/>
</svg>
