<svg width="424" height="424" viewBox="0 0 424 424" fill="none" xmlns="http://www.w3.org/2000/svg">
<path d="M189.667 360.359C243.128 360.359 286.467 345.495 286.467 327.159C286.467 308.823 243.128 293.959 189.667 293.959C136.206 293.959 92.8672 308.823 92.8672 327.159C92.8672 345.495 136.206 360.359 189.667 360.359Z" fill="#505050"/>
<path d="M240.667 250.46C240.667 250.46 241.167 345.36 228.967 358.36C221.267 366.66 204.267 374.76 186.267 368.86C183.967 366.86 196.167 299.56 198.867 243.96C200.367 213.76 229.267 141.66 229.267 141.66L261.767 146.16C261.867 146.16 248.267 202.66 240.667 250.46Z" fill="#EA7A79"/>
<path fill-rule="evenodd" clip-rule="evenodd" d="M257.567 171.559L220.367 164.059L232.667 118.059L265.267 134.659L257.567 171.559Z" fill="#FFDBD5"/>
<path fill-rule="evenodd" clip-rule="evenodd" d="M260.067 140.959C260.067 140.959 263.167 142.559 265.067 140.359C266.267 138.859 265.867 137.359 265.367 136.159C265.367 136.159 267.267 136.159 269.667 134.659C272.167 133.159 276.467 130.259 276.967 126.959C277.167 125.459 245.867 108.559 245.867 108.559L214.067 89.0586C214.067 89.0586 211.567 96.1586 217.767 102.459C223.367 108.059 224.767 109.059 227.767 111.359C229.667 112.759 230.867 114.659 230.667 116.859C230.467 120.059 231.267 121.959 233.267 124.659C236.767 128.759 255.267 139.059 260.067 140.959Z" fill="#FFB6A9"/>
<path fill-rule="evenodd" clip-rule="evenodd" d="M277.067 126.759C277.367 128.259 265.367 133.859 257.967 130.359C251.167 127.159 249.967 118.859 246.267 115.259C243.867 112.959 239.667 110.459 235.967 108.259C234.367 107.259 213.767 94.9586 213.767 94.9586C213.767 94.9586 211.067 88.4586 214.367 87.8586C216.367 87.4586 276.867 125.359 277.067 126.759Z" fill="#D9A48A"/>
<path d="M182.467 302.558C186.567 327.658 154.067 327.958 149.667 312.258C147.667 305.058 144.767 294.658 141.867 284.758C137.367 268.958 134.267 252.658 132.767 247.058C128.467 230.458 123.467 188.258 122.967 174.458C122.967 172.858 122.867 171.658 122.867 170.958C122.667 170.158 122.467 169.358 122.267 168.658C121.767 166.858 121.367 165.358 121.167 165.158C116.867 161.858 112.767 156.158 110.767 153.258C108.767 150.458 108.467 149.258 109.867 147.758C111.367 146.258 113.567 147.258 114.267 147.958C116.867 150.158 119.267 152.058 119.267 152.058C119.267 152.058 115.667 136.658 115.767 131.758C115.767 128.958 117.067 127.758 117.867 127.558C120.067 127.158 120.567 128.558 120.667 128.658C119.967 125.958 119.967 122.058 123.167 121.358C125.367 120.858 125.867 122.858 125.967 123.158V123.258C126.167 121.958 126.867 120.458 129.067 120.258C131.967 120.058 132.667 123.458 132.667 123.458C136.667 120.258 138.367 125.858 138.567 126.558C138.567 126.558 138.567 126.558 138.567 126.658C141.967 137.658 144.767 154.658 146.167 163.758C146.767 166.058 148.167 170.458 149.867 176.058C155.067 192.858 160.767 215.558 164.867 232.658C166.167 238.158 167.767 244.758 170.867 255.158C175.367 269.658 180.067 288.158 182.467 302.558Z" fill="#EFBEA9"/>
<path d="M119.798 152.632C122.72 154.902 124.979 153.422 126.862 153.742C131.46 154.556 132.593 158.476 131.768 161.049" stroke="#424D51" stroke-linecap="round" stroke-linejoin="round"/>
<path d="M124.067 146.36C124.067 146.36 121.467 131.76 120.867 128.26" stroke="#424D51" stroke-linecap="round" stroke-linejoin="round"/>
<path d="M129.467 145.659C129.467 145.659 126.767 133.259 125.967 127.659C125.767 126.159 125.667 124.459 126.167 122.959" stroke="#424D51" stroke-linecap="round" stroke-linejoin="round"/>
<path d="M135.167 145.16C135.167 145.16 132.367 131.66 131.867 128.06C131.767 127.26 131.567 125.16 132.367 123.76" stroke="#424D51" stroke-linecap="round" stroke-linejoin="round"/>
<path d="M137.268 272.36L174.368 261.76C176.268 269.66 178.768 279.56 181.968 295.76C186.268 317.16 181.068 320.06 177.468 321.96C175.568 322.96 158.068 333.36 150.168 316.16C141.868 298.26 140.768 288.46 137.268 272.36Z" fill="#FFDBD5"/>
<path fill-rule="evenodd" clip-rule="evenodd" d="M201.067 376.56C201.067 376.56 148.867 365.36 135.467 318.16C147.567 293.26 182.967 307.56 201.067 314.76C214.967 320.36 226.867 329.96 226.867 329.96C226.867 329.96 214.867 381.96 201.067 376.56Z" fill="#FFDBD5"/>
<path d="M271.368 269.46C271.368 269.46 252.968 362.56 238.468 372.96C229.268 379.56 210.968 384.16 194.568 374.76C192.668 372.36 218.068 308.76 231.768 254.86C239.268 225.56 281.868 160.66 281.868 160.66L312.868 171.56C312.868 171.46 288.368 224.06 271.368 269.46Z" fill="#EA7A79"/>
<path fill-rule="evenodd" clip-rule="evenodd" d="M303.566 195.46L268.566 180.76L289.766 138.16L318.466 160.96L303.566 195.46Z" fill="#FFDBD5"/>
<path d="M212.066 321.459C212.066 321.459 229.466 256.859 235.566 240.359" stroke="#424D51" stroke-linecap="round" stroke-linejoin="round"/>
<path fill-rule="evenodd" clip-rule="evenodd" d="M312.168 165.959C312.168 165.959 314.968 168.159 317.168 166.359C318.568 165.159 318.568 163.559 318.268 162.259C318.268 162.259 320.068 162.559 322.868 161.659C325.568 160.659 330.468 158.659 331.568 155.559C332.068 154.159 304.668 131.359 304.668 131.359L277.368 105.959C277.368 105.959 273.468 112.459 278.368 119.859C282.668 126.459 283.968 127.659 286.468 130.559C288.068 132.359 288.868 134.459 288.268 136.559C287.368 139.659 287.768 141.659 289.268 144.659C291.668 149.359 307.868 163.159 312.168 165.959Z" fill="#FFB6A9"/>
<path fill-rule="evenodd" clip-rule="evenodd" d="M331.667 155.358C331.667 156.958 318.767 160.059 312.267 155.159C306.267 150.659 306.667 142.258 303.767 138.058C301.867 135.358 298.267 132.058 295.067 129.158C293.667 127.858 275.967 111.658 275.967 111.658C275.967 111.658 274.567 104.758 277.967 104.858C279.967 104.858 331.667 153.958 331.667 155.358Z" fill="#D9A48A"/>
<path fill-rule="evenodd" clip-rule="evenodd" d="M126.367 282.46C126.367 282.46 132.667 269.66 124.267 266.86C114.467 263.46 109.467 270.16 108.067 273.26C107.067 275.46 107.367 277.26 107.367 277.26C107.367 277.26 104.167 278.86 101.667 284.46C99.1674 290.06 99.4674 297.86 104.867 305.06C108.667 310.26 113.567 315.76 123.167 314.46C129.567 313.56 136.767 305.66 132.567 299.76C128.467 293.96 126.367 282.46 126.367 282.46Z" fill="#AF836B"/>
<path fill-rule="evenodd" clip-rule="evenodd" d="M148.966 294.56C146.266 291.76 143.366 289.16 141.866 287.66C141.666 287.46 141.466 287.26 141.266 287.06C141.166 286.96 141.066 286.86 140.966 286.76C137.366 283.36 135.466 281.56 129.666 285.46C121.366 290.96 130.266 296.46 130.266 296.46C130.266 296.46 131.866 303.86 133.566 309.06C133.966 310.96 134.266 312.76 134.466 314.16C134.766 315.86 134.966 317.16 135.166 317.86C135.566 319.16 136.166 318.36 137.466 316.56C139.766 313.46 144.366 307.16 154.366 304.26C162.366 301.86 165.566 297.86 157.766 296.36C154.066 295.66 152.366 295.56 151.366 295.56C150.266 295.56 150.066 295.56 149.066 294.66C149.066 294.56 149.066 294.56 148.966 294.56Z" fill="#EFBEA9"/>
<path fill-rule="evenodd" clip-rule="evenodd" d="M130.567 292.059C130.567 292.059 145.867 287.459 144.367 277.959C142.867 268.459 134.867 268.759 134.267 268.759C133.667 268.759 120.167 271.159 116.567 274.059C112.967 276.959 108.867 284.059 112.567 290.359C116.367 296.659 121.167 296.059 125.367 294.959C127.567 294.359 130.567 292.059 130.567 292.059Z" fill="#EFBEA9"/>
<path fill-rule="evenodd" clip-rule="evenodd" d="M123.066 296.059C123.766 295.559 124.466 287.559 120.066 284.059C120.066 284.059 123.866 268.459 115.066 272.259C115.066 272.259 107.866 276.059 110.466 287.559C112.766 297.259 122.566 296.359 123.066 296.059Z" fill="#AF836B"/>
<path fill-rule="evenodd" clip-rule="evenodd" d="M124.166 290.159C123.566 290.859 118.666 297.359 123.566 300.159C128.466 303.059 131.066 297.159 131.066 296.259C131.066 294.459 131.066 292.959 129.766 291.459C127.666 288.859 125.166 288.859 124.166 290.159Z" fill="#EFBEA9"/>
<path d="M128.268 279.56C128.268 279.56 128.668 277.76 129.868 277.76C131.068 277.76 131.168 279.06 131.168 279.86" stroke="#424D51" stroke-width="0.729" stroke-linecap="round" stroke-linejoin="round"/>
<path d="M126.266 278.159C126.266 278.159 124.466 277.559 123.966 275.959C123.466 274.359 124.166 273.359 125.166 272.559" stroke="#424D51" stroke-width="0.729" stroke-linecap="round" stroke-linejoin="round"/>
<path d="M124.367 276.36C123.867 275.96 123.867 275.16 124.267 274.76C124.667 274.26 125.467 274.26 125.867 274.66C126.367 275.06 126.367 275.76 125.967 276.26C125.567 276.66 124.867 276.76 124.367 276.36Z" stroke="#424D51" stroke-width="0.729" stroke-linecap="round" stroke-linejoin="round"/>
<path d="M124.166 278.359C123.266 277.559 121.466 275.759 121.066 274.559" stroke="#424D51" stroke-width="0.729" stroke-linecap="round" stroke-linejoin="round"/>
<path d="M125.068 282.359C124.568 283.459 123.768 285.959 123.868 287.159" stroke="#424D51" stroke-width="0.729" stroke-linecap="round" stroke-linejoin="round"/>
<path d="M128.868 288.159C128.868 288.159 127.068 287.559 126.568 285.959C126.068 284.359 126.768 283.359 127.768 282.559" stroke="#424D51" stroke-width="0.729" stroke-linecap="round" stroke-linejoin="round"/>
<path d="M126.967 286.36C126.467 285.96 126.467 285.16 126.867 284.76C127.267 284.26 128.067 284.26 128.467 284.66C128.967 285.06 128.967 285.76 128.567 286.26C128.267 286.76 127.467 286.76 126.967 286.36Z" stroke="#424D51" stroke-width="0.729" stroke-linecap="round" stroke-linejoin="round"/>
<path d="M135.067 280.159C133.767 279.659 133.467 278.459 133.467 278.459" stroke="#424D51" stroke-width="0.729" stroke-linecap="round" stroke-linejoin="round"/>
<path fill-rule="evenodd" clip-rule="evenodd" d="M140.767 286.66C140.767 286.66 137.767 288.76 134.367 289.66C130.767 290.56 144.667 290.26 144.667 290.26L140.767 286.66Z" fill="#424D51"/>
<path d="M126.267 293.76C126.267 294.26 126.467 295.36 126.967 295.96M124.867 296.26C124.867 296.26 125.067 294.96 126.267 293.66L124.867 296.26ZM127.667 292.76C127.167 293.06 126.667 293.36 126.367 293.76L127.667 292.76Z" stroke="#424D51" stroke-width="0.729" stroke-linecap="round" stroke-linejoin="round"/>
<path d="M186.066 162.959C186.366 153.559 186.466 140.959 185.466 131.959V131.859C185.366 131.059 184.766 125.359 180.266 127.759C180.266 127.759 180.266 124.259 177.366 123.859C175.166 123.659 174.266 125.059 173.766 126.259C173.766 125.959 173.666 123.859 171.366 123.959C168.166 123.959 167.366 127.859 167.566 130.559C167.566 130.459 167.266 128.959 165.066 128.959C164.166 128.959 162.766 129.859 162.166 132.659C161.166 137.459 161.666 153.259 161.666 153.259C161.666 153.259 159.566 150.859 157.466 148.259C156.866 147.459 154.966 146.059 153.166 147.259C151.466 148.359 151.566 149.659 152.966 152.759V152.859C154.466 156.159 157.366 162.459 160.866 166.459C160.966 166.559 160.966 166.759 161.066 167.059C160.866 169.159 160.366 173.459 159.766 179.059C157.766 200.959 157.566 227.759 157.266 242.159C157.566 245.859 156.466 254.559 155.266 265.359C153.466 280.359 150.666 299.459 150.766 314.059C151.066 339.459 182.466 332.959 184.166 316.759C184.966 309.359 187.766 300.159 188.866 290.059C190.666 273.559 190.666 256.759 191.166 250.959C192.666 231.759 186.966 169.659 186.066 162.959Z" fill="#EFBEA9"/>
<path d="M153.668 270.359L191.068 274.059C190.568 281.259 189.968 295.259 189.468 298.659C187.868 310.259 186.568 321.459 179.368 331.459C172.168 341.459 153.768 331.159 150.268 322.959C147.568 316.359 151.368 285.559 153.668 270.359Z" fill="#FFDBD5"/>
<path d="M150.867 295.059L154.08 268.75L158.267 206.359" stroke="#424D51" stroke-linecap="round" stroke-linejoin="round"/>
<path d="M162.566 334.36C162.566 334.36 181.066 341.06 187.866 309.66" stroke="#424D51" stroke-linecap="round" stroke-linejoin="round"/>
<path d="M161.868 153.76C161.768 155.46 161.568 157.26 161.968 159.36" stroke="#424D51" stroke-linecap="round" stroke-linejoin="round"/>
<path d="M167.268 148.56C167.268 148.56 167.568 133.76 167.568 130.16" stroke="#424D51" stroke-linecap="round" stroke-linejoin="round"/>
<path d="M172.768 148.859C172.768 148.859 172.468 136.159 172.768 130.459C172.868 128.959 173.068 127.159 173.868 125.859" stroke="#424D51" stroke-linecap="round" stroke-linejoin="round"/>
<path d="M178.468 149.559C178.468 149.559 178.268 135.759 178.568 132.159C178.568 131.359 178.868 129.259 179.968 128.059" stroke="#424D51" stroke-linecap="round" stroke-linejoin="round"/>
<path d="M164.168 359.259C172.268 360.059 180.768 360.459 189.668 360.459C212.268 360.459 232.968 357.759 249.468 353.359" stroke="#424D51" stroke-linecap="round" stroke-linejoin="round"/>
<path d="M151.642 63.893L177.813 37.3842L171.893 57.793L188.46 62.5985L163.957 101.305L168.831 76.4276L151.642 63.893Z" fill="#ECECEC"/>
<path d="M194.35 47.0955L214.071 35.7071L207.276 46.7793L216.264 52.2952L195.551 71.1442L202.453 57.2684L194.35 47.0955Z" fill="#ECECEC"/>
</svg>
