<svg width="381" height="75" viewBox="0 0 381 75" fill="none" xmlns="http://www.w3.org/2000/svg">
<path d="M22.839 60.8518C15.9038 60.8518 10.3766 59.2353 6.25725 56.0024C2.13789 52.7695 0.0521439 48.6241 0 43.5661H10.6373C10.6895 46.434 11.8106 48.6501 14.0006 50.2144C16.1906 51.7266 19.1628 52.4827 22.9172 52.4827C26.6715 52.4827 29.5394 51.7266 31.5209 50.2144C33.5545 48.6501 34.5713 46.6947 34.5713 44.3483C34.5713 42.0018 33.7631 40.3593 32.1466 39.4207C30.5823 38.43 28.2619 37.6999 25.1854 37.2306L17.9114 36.1356C13.062 35.4056 9.07301 33.8152 5.94439 31.3645C2.81576 28.8616 1.25145 25.1072 1.25145 20.1014C1.25145 17.8071 1.72074 15.6431 2.65933 13.6095C3.65006 11.5759 5.05795 9.80303 6.88298 8.29086C8.70801 6.77869 10.9502 5.57938 13.6095 4.69294C16.321 3.80649 19.3714 3.36327 22.7608 3.36327C26.2544 3.36327 29.3309 3.80649 31.9902 4.69294C34.7017 5.57938 36.9439 6.75261 38.7168 8.21264C40.5418 9.67267 41.9236 11.3934 42.8622 13.3749C43.8529 15.3563 44.3743 17.416 44.4265 19.5539H33.7892C33.737 17.3117 32.7984 15.4606 30.9734 14.0006C29.2005 12.4884 26.4369 11.7323 22.6825 11.7323C18.9282 11.7323 16.1906 12.4884 14.4699 14.0006C12.7492 15.5128 11.8888 17.2857 11.8888 19.3193C11.8888 21.6657 12.697 23.3604 14.3135 24.4033C15.9299 25.394 18.146 26.098 20.9618 26.5151L28.0794 27.5319C30.478 27.8969 32.7202 28.4444 34.806 29.1744C36.9439 29.9044 38.7689 30.8952 40.2811 32.1466C41.7932 33.3981 42.9925 34.9624 43.879 36.8396C44.7654 38.7167 45.2086 40.9589 45.2086 43.5661C45.2086 46.1733 44.6611 48.5458 43.5661 50.6837C42.4711 52.8216 40.9329 54.6467 38.9514 56.1588C37.0221 57.6189 34.6756 58.766 31.912 59.6003C29.1484 60.4346 26.124 60.8518 22.839 60.8518Z" fill="white"/>
<path d="M50.1312 16.4717H59.5171V24.5279H60.0646C61.0032 21.8686 62.5154 19.6786 64.6011 17.9578C66.739 16.2371 69.5809 15.3767 73.1266 15.3767C76.151 15.3767 78.7842 15.9764 81.0264 17.1757C83.2686 18.375 85.1197 19.9914 86.5797 22.025C88.0919 24.0065 89.213 26.353 89.943 29.0644C90.673 31.7238 91.038 34.5395 91.038 37.5117C91.038 40.4318 90.673 43.2476 89.943 45.959C89.213 48.6184 88.0919 50.9648 86.5797 52.9984C85.1197 54.9799 83.2686 56.5703 81.0264 57.7696C78.7842 58.9689 76.151 59.5686 73.1266 59.5686C69.8416 59.5686 67.2083 58.8385 65.2269 57.3785C63.2975 55.8663 61.8114 53.8849 60.7686 51.4341H60.2993V73.4909H50.1312V16.4717ZM80.87 35.6346C80.87 31.8802 79.8793 28.9862 77.8978 26.9526C75.9685 24.8669 73.5177 23.824 70.5455 23.824C67.5733 23.824 65.1226 24.8929 63.1933 27.0308C61.2639 29.1166 60.2993 31.9845 60.2993 35.6346V39.2325C60.2993 42.8825 61.2639 45.7765 63.1933 47.9144C65.1226 50.0002 67.5733 51.043 70.5455 51.043C73.5177 51.043 75.9685 50.0262 77.8978 47.9926C79.8793 45.9069 80.87 42.9868 80.87 39.2325V35.6346Z" fill="white"/>
<path d="M115.292 60.7736C111.799 60.7736 108.748 60.1739 106.141 58.9746C103.586 57.7753 101.448 56.1849 99.7273 54.2034C98.0587 52.1698 96.8073 49.8234 95.973 47.164C95.1387 44.4526 94.7215 41.6368 94.7215 38.7167C94.7215 35.7967 95.1387 33.007 95.973 30.3477C96.8073 27.6362 98.0587 25.2637 99.7273 23.23C101.448 21.1964 103.612 19.58 106.219 18.3807C108.826 17.1814 111.851 16.5817 115.292 16.5817C118.734 16.5817 121.732 17.1814 124.287 18.3807C126.894 19.58 129.032 21.1964 130.701 23.23C132.422 25.2637 133.699 27.6362 134.533 30.3477C135.368 33.007 135.785 35.7967 135.785 38.7167C135.785 41.6368 135.368 44.4526 134.533 47.164C133.699 49.8234 132.422 52.1698 130.701 54.2034C129.032 56.1849 126.894 57.7753 124.287 58.9746C121.732 60.1739 118.734 60.7736 115.292 60.7736ZM125.617 40.5157V36.996C125.617 33.2416 124.652 30.3477 122.723 28.3141C120.793 26.2283 118.317 25.1854 115.292 25.1854C112.216 25.1854 109.713 26.2283 107.784 28.3141C105.854 30.3998 104.89 33.2938 104.89 36.996V40.5157C104.89 44.1658 105.854 47.0597 107.784 49.1976C109.713 51.2834 112.216 52.3263 115.292 52.3263C118.317 52.3263 120.793 51.3095 122.723 49.2759C124.652 47.1901 125.617 44.2701 125.617 40.5157Z" fill="white"/>
<path d="M139.01 59.6785V17.6767H148.63V25.3419H149.1C149.569 23.5168 150.69 21.77 152.463 20.1014C154.236 18.4328 156.805 17.9228 160.403 17.9228H165.495L165.495 26.0703H158.366C154.873 26.0703 152.698 27.7144 151.29 29.3309C149.882 30.9473 149.178 33.1113 149.178 35.8228V59.6785H139.01Z" fill="white"/>
<path d="M170.588 17.9228H179.753L179.763 7.19584H189.931V17.9228H202.602V25.9676H189.931V47.9462C189.931 49.1455 190.191 50.0319 190.713 50.6055C191.287 51.127 192.147 51.3877 193.294 51.3877H202.602V59.6785H190.948C187.193 59.6785 184.377 58.766 182.5 56.941C180.675 55.0638 179.763 52.3784 179.763 48.8848V25.9676L165.495 26.0703L170.588 17.9228Z" fill="white"/>
<path d="M220.855 12.0452H220.23C218.457 12.0452 216.945 11.4456 215.693 10.2462C214.494 9.04694 213.894 7.63906 213.894 6.0226C213.894 4.354 214.494 2.94612 215.693 1.79896C216.945 0.599653 218.457 0 220.23 0H220.855C222.576 0 224.036 0.599653 225.235 1.79896C226.435 2.94612 227.034 4.354 227.034 6.0226C227.034 7.63906 226.435 9.04694 225.235 10.2462C224.036 11.4456 222.576 12.0452 220.855 12.0452ZM209.045 26.0703V17.9228H225.548V59.6785H215.38V26.0703H209.045Z" fill="white"/>
<path d="M290.745 12.0452H290.12C288.347 12.0452 286.835 11.4456 285.583 10.2462C284.384 9.04694 283.784 7.63906 283.784 6.0226C283.784 4.354 284.384 2.94612 285.583 1.79896C286.835 0.599653 288.347 0 290.12 0H290.745C292.466 0 293.926 0.599653 295.125 1.79896C296.325 2.94612 296.924 4.354 296.924 6.0226C296.924 7.63906 296.325 9.04694 295.125 10.2462C293.926 11.4456 292.466 12.0452 290.745 12.0452ZM278.935 26.0703V17.9228H295.438V59.6785H285.27V26.0703H278.935Z" fill="white"/>
<path d="M302.02 17.9228H310.937V7.19584H321.105V17.9228H339.138L333.776 25.9676H321.105V47.9462C321.105 49.1455 321.366 50.0319 321.887 50.6055C322.461 51.127 323.321 51.3877 324.468 51.3877H333.776V59.6785H322.122C318.367 59.6785 315.552 58.766 313.674 56.941C311.849 55.0638 310.937 52.3784 310.937 48.8848V26.0703H302.02V17.9228Z" fill="white"/>
<path d="M364.033 63.014C362.42 67.2194 360.365 70.2047 357.868 71.9699C355.423 73.7351 352.171 74.6177 348.113 74.6177H339.528V66.2848H347.645C349.257 66.2848 350.506 66.0252 351.391 65.506C352.327 64.9869 353.134 63.8447 353.81 62.0794L354.981 58.9643L339.138 17.9228H350.298L360.131 48.2172H360.599L370.277 17.9228H380.5L364.033 63.014Z" fill="white"/>
<path d="M220.23 12.0452H220.855C222.576 12.0452 224.036 11.4456 225.235 10.2462C226.435 9.04694 227.034 7.63906 227.034 6.0226C227.034 4.354 226.435 2.94612 225.235 1.79896C224.036 0.599653 222.576 0 220.855 0H220.23C218.457 0 216.945 0.599653 215.693 1.79896C214.494 2.94612 213.894 4.354 213.894 6.0226C213.894 7.63906 214.494 9.04694 215.693 10.2462C216.945 11.4456 218.457 12.0452 220.23 12.0452Z" fill="white"/>
<path d="M228.215 17.9228H239.332L249.177 48.8848H249.411V59.835H244.093L228.215 17.9228Z" fill="white"/>
<path d="M249.411 48.8848V59.835H256.543V48.8848H249.411Z" fill="white"/>
<path d="M266.32 17.9228H277.014L261.702 59.835H256.54V48.8848H256.775L266.32 17.9228Z" fill="white"/>
</svg>
