<svg xmlns="http://www.w3.org/2000/svg" width="770" height="770" viewBox="0 0 770 770" fill="none"><metadata><rdf:RDF xmlns:rdf="http://www.w3.org/1999/02/22-rdf-syntax-ns#" xmlns:dc="http://purl.org/dc/elements/1.1/"><rdf:Description><dc:creator>RealFaviconGenerator</dc:creator><dc:source>https://realfavicongenerator.net</dc:source></rdf:Description></rdf:RDF></metadata><path d="M209.495 87.5122C321.733 119.688 423.905 179.973 506.339 262.661C589.027 345.095 649.312 447.267 681.488 559.505" stroke="#E2D7F8" stroke-width="80" stroke-linecap="round" stroke-linejoin="round"></path><path d="M456.046 47.3419C500.785 159.423 515.339 281.28 498.256 400.746C481.172 520.211 433.048 633.105 358.689 728.156" stroke="#B79CED" stroke-width="80" stroke-linecap="round" stroke-linejoin="round"></path><path d="M40.8444 410.311C135.895 335.952 248.789 287.828 368.254 270.744C487.72 253.661 609.577 268.215 721.658 312.954" stroke="#B79CED" stroke-width="80" stroke-linecap="round" stroke-linejoin="round"></path><path d="M384.625 729.25C574.956 729.25 729.25 574.956 729.25 384.625C729.25 194.294 574.956 40 384.625 40C194.294 40 40 194.294 40 384.625C40 574.956 194.294 729.25 384.625 729.25Z" stroke="#B79CED" stroke-width="80" stroke-linecap="round" stroke-linejoin="round"></path></svg>