<svg xmlns="http://www.w3.org/2000/svg" version="1.1" xmlns:xlink="http://www.w3.org/1999/xlink" width="1000" height="1000"><metadata><rdf:RDF xmlns:rdf="http://www.w3.org/1999/02/22-rdf-syntax-ns#" xmlns:dc="http://purl.org/dc/elements/1.1/"><rdf:Description><dc:creator>RealFaviconGenerator</dc:creator><dc:source>https://realfavicongenerator.net</dc:source></rdf:Description></rdf:RDF></metadata><style>
    #light-icon {
      display: inline;
    }
    #dark-icon {
      display: none;
    }

    @media (prefers-color-scheme: dark) {
      #light-icon {
        display: none;
      }
      #dark-icon {
        display: inline;
      }
    }
  </style><g id="light-icon"><svg xmlns="http://www.w3.org/2000/svg" version="1.1" xmlns:xlink="http://www.w3.org/1999/xlink" width="1000" height="1000"><g><g transform="matrix(1.3333333333333333,0,0,1.3333333333333333,0,0)"><svg xmlns="http://www.w3.org/2000/svg" width="750" height="750" viewBox="0 0 750 750" fill="none"><path d="M199.495 77.5122C311.733 109.688 413.905 169.973 496.339 252.661C579.027 335.095 639.312 437.267 671.488 549.505" stroke="#E2D7F8" stroke-width="60" stroke-linecap="round" stroke-linejoin="round"></path><path d="M446.046 37.3419C490.785 149.423 505.339 271.28 488.256 390.746C471.172 510.211 423.048 623.105 348.689 718.156" stroke="#B79CED" stroke-width="60" stroke-linecap="round" stroke-linejoin="round"></path><path d="M30.8444 400.311C125.895 325.952 238.789 277.828 358.254 260.744C477.72 243.661 599.577 258.215 711.658 302.954" stroke="#B79CED" stroke-width="60" stroke-linecap="round" stroke-linejoin="round"></path><path d="M374.625 719.25C564.956 719.25 719.25 564.956 719.25 374.625C719.25 184.294 564.956 30 374.625 30C184.294 30 30 184.294 30 374.625C30 564.956 184.294 719.25 374.625 719.25Z" stroke="#B79CED" stroke-width="60" stroke-linecap="round" stroke-linejoin="round"></path></svg></g></g></svg></g><g id="dark-icon"><svg xmlns="http://www.w3.org/2000/svg" version="1.1" xmlns:xlink="http://www.w3.org/1999/xlink" width="1000" height="1000"><g clip-path="url(#SvgjsClipPath1051)"><rect width="1000" height="1000" fill="#ffffff"></rect><g transform="matrix(0.9333333333333333,0,0,0.9333333333333333,150,150)"><svg xmlns="http://www.w3.org/2000/svg" width="750" height="750" viewBox="0 0 750 750" fill="none"><path d="M199.495 77.5122C311.733 109.688 413.905 169.973 496.339 252.661C579.027 335.095 639.312 437.267 671.488 549.505" stroke="#E2D7F8" stroke-width="60" stroke-linecap="round" stroke-linejoin="round"></path><path d="M446.046 37.3419C490.785 149.423 505.339 271.28 488.256 390.746C471.172 510.211 423.048 623.105 348.689 718.156" stroke="#B79CED" stroke-width="60" stroke-linecap="round" stroke-linejoin="round"></path><path d="M30.8444 400.311C125.895 325.952 238.789 277.828 358.254 260.744C477.72 243.661 599.577 258.215 711.658 302.954" stroke="#B79CED" stroke-width="60" stroke-linecap="round" stroke-linejoin="round"></path><path d="M374.625 719.25C564.956 719.25 719.25 564.956 719.25 374.625C719.25 184.294 564.956 30 374.625 30C184.294 30 30 184.294 30 374.625C30 564.956 184.294 719.25 374.625 719.25Z" stroke="#B79CED" stroke-width="60" stroke-linecap="round" stroke-linejoin="round"></path></svg></g></g><defs><clipPath id="SvgjsClipPath1051"><rect width="1000" height="1000" x="0" y="0" rx="300" ry="300"></rect></clipPath></defs></svg></g></svg>